<?xml version="1.0" encoding="utf-8"?>
<!-- Generator: Adobe Illustrator 25.1.0, SVG Export Plug-In . SVG Version: 6.00 Build 0)  -->
<svg version="1.1" id="Layer_1" xmlns="http://www.w3.org/2000/svg" xmlns:xlink="http://www.w3.org/1999/xlink" x="0px" y="0px"
	 viewBox="0 0 200 100" style="enable-background:new 0 0 200 100;" xml:space="preserve">
<style type="text/css">
	.st0{fill:none;stroke:#CF2030;stroke-width:0.9811;stroke-linecap:round;stroke-miterlimit:10;}
	.st1{fill:#6C9D41;}
	.st2{fill:#567836;}
	.st3{fill:#F16723;}
	.st4{fill:#CF2030;}
	.st5{fill:#A91F27;}
	.st6{fill:#28AAE1;}
	.st7{fill:#231F20;}
</style>
<g>
	<g>
		<path class="st0" d="M59.36,64.34c0,0-12.87-21.47-37.11-14.95"/>
		<path class="st1" d="M52.51,20.92c-1.04-0.1-2.09-0.15-3.14-0.15c-18.11,0-32.84,14.73-32.84,32.84s14.73,32.85,32.84,32.85
			c7.66,0,15.12-2.69,21-7.59c1.87-1.56,4.66-1.3,6.22,0.57c1.56,1.87,1.31,4.66-0.57,6.22c-7.46,6.21-16.92,9.63-26.65,9.63
			c-22.98,0-41.68-18.7-41.68-41.68c0-22.98,18.7-41.67,41.68-41.67c1.14,0,2.28,0.05,3.4,0.14"/>
		<path class="st2" d="M82.55,40.98c-1.79,0-3.48-1.1-4.14-2.88c-0.35-0.92-8.57-21.57-37.6-16.55c-2.4,0.42-4.69-1.2-5.1-3.6
			c-0.42-2.4,1.2-4.69,3.6-5.1c18.89-3.27,30.74,2.83,37.35,8.52c7.25,6.24,9.92,13.36,10.03,13.67c0.84,2.29-0.34,4.83-2.63,5.67
			C83.56,40.89,83.05,40.98,82.55,40.98"/>
		<path class="st3" d="M52.05,18.72c0,8.16-6.15,14.77-13.74,14.77c-7.59,0-13.74-6.61-13.74-14.77c0-8.16,6.15-14.77,13.74-14.77
			C45.9,3.95,52.05,10.56,52.05,18.72"/>
		<path class="st0" d="M58.69,64.82c-0.12,0.85,4.84-17.32,20.98-21.45"/>
		<path class="st4" d="M59.96,75.26c-1.19,0-2.32-0.6-2.98-1.61c-0.09-0.14-9.66-14.48-22.99-15.91c-7.08-0.75-14.17,2.31-21.1,9.11
			c-1.4,1.38-3.65,1.36-5.03-0.04c-1.38-1.4-1.36-3.65,0.05-5.03c8.53-8.38,17.58-12.12,26.88-11.11
			c11.1,1.2,19.68,8.93,24.32,14.18c4.65-9.35,10.49-15.35,17.43-17.91c8.55-3.14,15.48,0.32,15.77,0.47
			c1.75,0.89,2.44,3.04,1.55,4.79c-0.89,1.74-3.02,2.43-4.76,1.56c-0.24-0.12-4.68-2.19-10.23-0.08
			c-5.89,2.23-11.14,8.56-15.17,18.3l-0.42,1.05c-0.49,1.23-1.63,2.09-2.95,2.22C60.19,75.26,60.07,75.26,59.96,75.26"/>
		<path class="st5" d="M59.1,64.85c0,0,0.9,6.6-1.26,9.41l-0.13,0.19c0,0,1.34,1.37,3.38,0.66c0,0,1.38-0.3,1.93-1.46l0.99-2.27
			c0,0,2.34-5.34,3.79-7.37c1.45-2.03,3.54-5.74,7.72-8.6c0,0,4.05-2.94,9.45-2.57c0,0,1.78,0.11,3.32,0.58c0,0,1.34,0.52,1.52,0.63
			c0,0,1.54,0.54,2.77-0.41c0,0,2.48-1.3,1.65-4.36c0,0-0.44-1.47-2.92-2.27c0,0-3.76-1.46-7.32-1.37c0,0-6.1-0.34-12.11,3.65
			c0,0-4.39,2.79-7.66,7.24C64.22,56.52,61.79,59.31,59.1,64.85"/>
		<path class="st6" d="M73.07,20.89c0,5.43-4.1,9.84-9.15,9.84c-5.05,0-9.15-4.41-9.15-9.84c0-5.43,4.1-9.84,9.15-9.84
			C68.98,11.05,73.07,15.45,73.07,20.89"/>
	</g>
	<path class="st7" d="M88.72,59.51c1.78,0,2.65,0.52,3.08,0.78c1.88,1.11,2.16,2.97,2.3,3.9h-1.69c-0.31-1.56-0.96-2.03-1.28-2.27
		c-0.97-0.71-1.96-0.71-2.45-0.71c-1.75,0-2.55,0.99-2.95,1.48c-1.2,1.48-1.2,3.44-1.2,4.42c0,2.54,0.66,3.6,0.99,4.13
		c0.99,1.59,2.48,1.59,3.22,1.59c1.71,0,2.46-0.75,2.83-1.12c1.12-1.12,1.14-2.79,1.15-3.62h-3.96v-1.6h5.55v7.62h-1.1l-0.41-1.83
		c-0.87,1.08-1.32,1.35-1.54,1.49c-1.13,0.72-2.28,0.72-2.86,0.72c-2.24,0-3.32-1.09-3.86-1.64c-1.76-2.05-1.76-4.44-1.76-5.64
		c0-3.58,1.15-4.98,1.72-5.69C86.12,59.51,87.85,59.51,88.72,59.51z"/>
	<path class="st7" d="M103.06,68.1c-0.09-1.13-0.32-1.59-0.44-1.81c-0.64-1.26-1.63-1.26-2.12-1.26c-1.07,0-1.55,0.58-1.79,0.87
		c-0.72,0.87-0.75,1.76-0.77,2.2H103.06z M100.59,63.5c0.98,0,1.59,0.35,1.9,0.52c0.92,0.52,1.24,1.07,1.4,1.34
		c0.46,0.78,0.57,1.48,0.62,1.83c0.14,0.72,0.14,1.76,0.14,2.29H97.9c0.04,1.58,0.46,2.22,0.66,2.53c0.62,0.95,1.48,0.95,1.92,0.95
		c1.21,0,1.69-0.6,1.93-0.9c0.41-0.52,0.53-0.98,0.58-1.21h1.52c-0.06,0.57-0.29,1.04-0.4,1.27c-0.34,0.7-0.62,1-0.76,1.15
		c-0.71,0.78-1.4,0.96-1.75,1.05c-0.56,0.16-1.03,0.16-1.26,0.16c-1.72,0-2.52-0.94-2.92-1.41c-1.2-1.41-1.2-3.1-1.2-3.95
		c0-2.5,0.8-3.54,1.2-4.06C98.64,63.5,99.94,63.5,100.59,63.5z"/>
	<path class="st7" d="M106.85,60.84h1.57v2.9h1.47v1.42h-1.47v6.77c0,0.54,0.22,0.67,0.33,0.73c0.18,0.11,0.46,0.11,0.6,0.11
		c0.11,0,0.2,0,0.24,0c0.13,0,0.24-0.02,0.3-0.02v1.38c-0.27,0.09-0.46,0.11-0.55,0.13c-0.29,0.04-0.51,0.04-0.62,0.04
		c-1.08,0-1.34-0.42-1.47-0.62c-0.39-0.62-0.39-1.29-0.39-1.62v-6.87h-1.25v-1.42h1.25V60.84z"/>
	<path class="st7" d="M117.66,69.52c0.06,1.21,0.36,1.72,0.51,1.97c0.85,1.41,2.28,1.41,3,1.41c0.96,0,1.49-0.21,1.75-0.31
		c1.53-0.6,1.53-1.63,1.53-2.15c0-1.16-0.43-1.49-0.64-1.66c-0.65-0.48-1.58-0.72-2.05-0.84l-1.71-0.44
		c-1.68-0.43-2.14-0.77-2.37-0.94c-1.2-0.89-1.2-2.07-1.2-2.66c0-1.92,0.79-2.74,1.18-3.15c1.18-1.23,2.62-1.23,3.34-1.23
		c1.99,0,2.91,0.72,3.38,1.08c1.39,1.08,1.39,2.66,1.39,3.45h-1.61c-0.13-1.14-0.41-1.55-0.55-1.75c-0.78-1.11-2.03-1.11-2.66-1.11
		c-1.51,0-1.96,0.48-2.18,0.72c-0.66,0.72-0.66,1.35-0.66,1.67c0,1.05,0.52,1.37,0.77,1.53c0.51,0.31,1.7,0.62,2.3,0.78l1.77,0.46
		c1.28,0.33,1.75,0.71,1.98,0.9c1.2,1,1.2,2.26,1.2,2.9c0,2.36-1.02,3.04-1.53,3.38c-1.53,1.02-2.87,1.02-3.55,1.02
		c-2.36,0-3.24-0.9-3.69-1.36c-1.33-1.35-1.32-2.88-1.31-3.65H117.66z"/>
	<path class="st7" d="M134.39,68.1c-0.09-1.13-0.32-1.59-0.44-1.81c-0.64-1.26-1.63-1.26-2.12-1.26c-1.07,0-1.55,0.58-1.79,0.87
		c-0.72,0.87-0.75,1.76-0.77,2.2H134.39z M131.92,63.5c0.98,0,1.59,0.35,1.9,0.52c0.92,0.52,1.24,1.07,1.4,1.34
		c0.46,0.78,0.57,1.48,0.62,1.83c0.14,0.72,0.14,1.76,0.14,2.29h-6.75c0.04,1.58,0.46,2.22,0.66,2.53c0.62,0.95,1.48,0.95,1.92,0.95
		c1.21,0,1.69-0.6,1.93-0.9c0.41-0.52,0.53-0.98,0.58-1.21h1.52c-0.06,0.57-0.29,1.04-0.4,1.27c-0.34,0.7-0.62,1-0.76,1.15
		c-0.71,0.78-1.4,0.96-1.75,1.05c-0.56,0.16-1.03,0.16-1.26,0.16c-1.72,0-2.52-0.94-2.92-1.41c-1.2-1.41-1.2-3.1-1.2-3.95
		c0-2.5,0.8-3.54,1.2-4.06C129.98,63.5,131.27,63.5,131.92,63.5z"/>
	<path class="st7" d="M138.19,60.84h1.57v2.9h1.47v1.42h-1.47v6.77c0,0.54,0.22,0.67,0.33,0.73c0.18,0.11,0.46,0.11,0.6,0.11
		c0.11,0,0.2,0,0.24,0c0.13,0,0.24-0.02,0.3-0.02v1.38c-0.27,0.09-0.46,0.11-0.55,0.13c-0.29,0.04-0.51,0.04-0.62,0.04
		c-1.08,0-1.34-0.42-1.47-0.62c-0.39-0.62-0.39-1.29-0.39-1.62v-6.87h-1.25v-1.42h1.25V60.84z"/>
	<polygon class="st7" points="148.74,59.88 150.56,59.88 150.56,72.41 157.36,72.41 157.36,74.11 148.74,74.11 	"/>
	<path class="st7" d="M165.64,68.09c-0.1-1.13-0.34-1.59-0.47-1.81c-0.68-1.26-1.73-1.26-2.26-1.26c-1.13,0-1.65,0.58-1.9,0.87
		c-0.77,0.87-0.8,1.76-0.81,2.2H165.64z M163.02,63.5c1.04,0,1.7,0.35,2.02,0.52c0.98,0.52,1.32,1.07,1.49,1.34
		c0.49,0.78,0.6,1.48,0.66,1.83c0.15,0.72,0.15,1.76,0.15,2.29h-7.18c0.05,1.58,0.48,2.22,0.7,2.53c0.66,0.95,1.58,0.95,2.04,0.95
		c1.29,0,1.8-0.6,2.06-0.9c0.44-0.52,0.56-0.98,0.62-1.21h1.62c-0.06,0.57-0.31,1.04-0.43,1.27c-0.36,0.7-0.66,1-0.81,1.15
		c-0.75,0.78-1.49,0.96-1.86,1.05c-0.59,0.16-1.09,0.16-1.34,0.16c-1.83,0-2.68-0.94-3.1-1.41c-1.27-1.41-1.27-3.1-1.27-3.95
		c0-2.5,0.85-3.54,1.28-4.06C160.95,63.5,162.33,63.5,163.02,63.5z"/>
	<path class="st7" d="M174.61,67.82c0.57-0.08,0.7-0.36,0.76-0.5c0.11-0.23,0.11-0.52,0.11-0.67c0-0.89-0.4-1.16-0.6-1.29
		c-0.6-0.4-1.34-0.4-1.72-0.4c-1.29,0-1.65,0.49-1.83,0.74c-0.3,0.41-0.36,0.94-0.39,1.21h-1.54c0.05-1.92,0.8-2.42,1.18-2.67
		c1.13-0.75,2.12-0.75,2.62-0.75c1.73,0,2.45,0.47,2.81,0.7c1.07,0.7,1.07,1.68,1.07,2.17v5.98c0,0.27,0.07,0.38,0.11,0.44
		c0.11,0.16,0.33,0.16,0.44,0.16c0.11,0,0.2-0.01,0.25-0.01c0.14-0.01,0.24-0.03,0.29-0.04v1.29c-0.38,0.12-0.52,0.14-0.59,0.15
		c-0.2,0.03-0.43,0.03-0.55,0.03c-0.85,0-1.11-0.43-1.24-0.64c-0.2-0.34-0.26-0.75-0.28-0.96c-0.5,0.7-1.13,1.04-1.45,1.21
		c-0.94,0.51-1.7,0.51-2.08,0.51c-1.36,0-1.94-0.58-2.23-0.88c-0.86-0.88-0.86-1.76-0.86-2.19c0-1.44,0.57-1.97,0.85-2.24
		c0.85-0.79,1.77-0.92,2.23-0.98L174.61,67.82z M170.62,71.35c0,0.76,0.35,1.05,0.52,1.19c0.52,0.44,1,0.44,1.24,0.44
		c0.87,0,1.41-0.28,1.68-0.43c1.37-0.71,1.37-1.78,1.37-2.32v-1.4c-0.3,0.2-0.62,0.29-0.78,0.34c-0.48,0.14-0.78,0.17-0.93,0.19
		l-1,0.14c-0.9,0.13-1.2,0.31-1.35,0.4C170.62,70.35,170.62,71.02,170.62,71.35z"/>
	<path class="st7" d="M179.82,63.73h1.56v1.79c0.19-0.52,0.69-1.02,0.94-1.27c0.75-0.75,1.4-0.75,1.73-0.75
		c0.05,0,0.12,0.01,0.16,0.01c0.11,0.01,0.29,0.03,0.38,0.04v1.84c-0.15-0.03-0.23-0.04-0.27-0.04c-0.12-0.01-0.22-0.01-0.27-0.01
		c-1.24,0-1.69,0.57-1.91,0.85c-0.67,0.85-0.67,1.58-0.67,1.95v5.97h-1.65V63.73z"/>
	<path class="st7" d="M186.01,63.73h1.56v1.47c0.7-0.91,1.21-1.18,1.47-1.31c0.78-0.4,1.41-0.4,1.73-0.4c2.09,0,2.57,1.03,2.82,1.54
		c0.4,0.84,0.4,1.89,0.4,2.41v6.66h-1.67v-6.54c0-0.95-0.18-1.34-0.27-1.53c-0.44-0.97-1.21-0.97-1.59-0.97
		c-0.59,0-0.84,0.08-0.96,0.13c-0.68,0.21-1.02,0.64-1.19,0.85c-0.41,0.51-0.49,0.88-0.54,1.06c-0.12,0.55-0.12,1.23-0.12,1.56v5.44
		h-1.65V63.73z"/>
	<path class="st7" d="M84.72,82.85l0.35-1.12c0.27-0.82,0.5-1.63,0.73-2.49h0.04c0.24,0.85,0.47,1.66,0.74,2.49l0.35,1.12H84.72z
		 M82.81,85.85h0.96l0.71-2.25h2.69l0.7,2.25h0.99l-2.5-7.38h-1.06L82.81,85.85z"/>
	<path class="st7" d="M92.11,85.85h0.94v-2.93h1.21c1.61,0,2.72-0.73,2.72-2.28c0-1.62-1.12-2.17-2.77-2.17h-2.11V85.85z
		 M93.05,82.16v-2.93h1.05c1.3,0,1.95,0.35,1.95,1.41c0,1.05-0.62,1.52-1.91,1.52H93.05z"/>
	<path class="st7" d="M98.39,85.85h0.92v-3.51c0.37-0.92,0.92-1.26,1.38-1.26c0.22,0,0.34,0.03,0.53,0.09l0.17-0.81
		c-0.17-0.08-0.34-0.11-0.58-0.11c-0.61,0-1.17,0.44-1.55,1.13h-0.03l-0.08-1h-0.76V85.85z"/>
	<path class="st7" d="M104.3,85.22c-0.94,0-1.58-0.84-1.58-2.09c0-1.25,0.64-2.1,1.58-2.1s1.58,0.85,1.58,2.1
		C105.88,84.38,105.24,85.22,104.3,85.22z M104.3,85.99c1.34,0,2.53-1.05,2.53-2.86c0-1.82-1.19-2.87-2.53-2.87
		c-1.34,0-2.53,1.05-2.53,2.87C101.77,84.94,102.96,85.99,104.3,85.99z"/>
	<path class="st7" d="M108.75,79.26c0.36,0,0.64-0.25,0.64-0.6c0-0.36-0.28-0.6-0.64-0.6s-0.64,0.23-0.64,0.6
		C108.11,79.02,108.39,79.26,108.75,79.26L108.75,79.26z M107.7,88.29c1.09,0,1.5-0.71,1.5-1.82v-6.08h-0.92v6.08
		c0,0.66-0.13,1.07-0.68,1.07c-0.19,0-0.38-0.05-0.52-0.1l-0.18,0.71C107.09,88.22,107.37,88.29,107.7,88.29z"/>
	<path class="st7" d="M111.55,82.68c0.11-1.07,0.8-1.69,1.57-1.69c0.85,0,1.35,0.6,1.35,1.69H111.55z M113.26,85.99
		c0.74,0,1.33-0.25,1.8-0.57l-0.33-0.61c-0.4,0.27-0.84,0.44-1.36,0.44c-1.04,0-1.75-0.75-1.82-1.91h3.68
		c0.03-0.13,0.04-0.33,0.04-0.53c0-1.56-0.79-2.56-2.18-2.56c-1.26,0-2.46,1.1-2.46,2.87C110.64,84.92,111.8,85.99,113.26,85.99z"/>
	<path class="st7" d="M118.78,85.99c0.66,0,1.28-0.26,1.77-0.69l-0.4-0.62c-0.34,0.3-0.78,0.54-1.28,0.54c-1,0-1.69-0.84-1.69-2.09
		c0-1.25,0.73-2.1,1.72-2.1c0.43,0,0.77,0.2,1.08,0.48l0.47-0.61c-0.38-0.35-0.88-0.64-1.6-0.64c-1.4,0-2.63,1.05-2.63,2.87
		C116.22,84.94,117.33,85.99,118.78,85.99z"/>
	<path class="st7" d="M123.36,85.99c0.34,0,0.71-0.1,1.01-0.2l-0.18-0.7c-0.18,0.07-0.43,0.15-0.62,0.15
		c-0.63,0-0.85-0.39-0.85-1.06v-3.04h1.48v-0.75h-1.48v-1.53h-0.77l-0.11,1.53l-0.85,0.05v0.7h0.81v3.02
		C121.8,85.25,122.19,85.99,123.36,85.99z"/>
	<path class="st7" d="M129.95,81.97h-1.24v-2.74h1.24c1.15,0,1.78,0.34,1.78,1.32C131.73,81.51,131.1,81.97,129.95,81.97z
		 M131.82,85.85h1.06l-1.88-3.22c1-0.25,1.66-0.93,1.66-2.08c0-1.54-1.08-2.08-2.58-2.08h-2.31v7.38h0.94v-3.12h1.33L131.82,85.85z"
		/>
	<polygon class="st7" points="134.17,85.85 138.53,85.85 138.53,85.06 135.11,85.06 135.11,82.37 137.9,82.37 137.9,81.58 
		135.11,81.58 135.11,79.27 138.42,79.27 138.42,78.47 134.17,78.47 	"/>
	<path class="st7" d="M141.02,82.85l0.35-1.12c0.27-0.82,0.5-1.63,0.73-2.49h0.04c0.24,0.85,0.47,1.66,0.74,2.49l0.35,1.12H141.02z
		 M139.11,85.85h0.96l0.71-2.25h2.69l0.7,2.25h0.99l-2.5-7.38h-1.06L139.11,85.85z"/>
	<path class="st7" d="M146.16,78.47v7.38h1.89c2.23,0,3.44-1.37,3.44-3.72c0-2.34-1.22-3.66-3.48-3.66H146.16z M147.1,85.08v-5.84
		h0.84c1.72,0,2.58,1.03,2.58,2.89c0,1.87-0.86,2.95-2.58,2.95H147.1z"/>
	<path class="st7" d="M155.33,85.85h0.94v-2.93h1.21c1.61,0,2.72-0.73,2.72-2.28c0-1.62-1.12-2.17-2.77-2.17h-2.11V85.85z
		 M156.26,82.16v-2.93h1.05c1.3,0,1.95,0.35,1.95,1.41c0,1.05-0.62,1.52-1.91,1.52H156.26z"/>
	<path class="st7" d="M161.6,85.85h0.92v-3.51c0.37-0.92,0.92-1.26,1.38-1.26c0.22,0,0.34,0.03,0.53,0.09l0.17-0.81
		c-0.17-0.08-0.34-0.11-0.58-0.11c-0.61,0-1.17,0.44-1.55,1.13h-0.03l-0.08-1h-0.76V85.85z"/>
	<path class="st7" d="M167.52,85.22c-0.94,0-1.58-0.84-1.58-2.09c0-1.25,0.64-2.1,1.58-2.1c0.94,0,1.58,0.85,1.58,2.1
		C169.09,84.38,168.46,85.22,167.52,85.22z M167.52,85.99c1.34,0,2.53-1.05,2.53-2.86c0-1.82-1.19-2.87-2.53-2.87
		c-1.34,0-2.53,1.05-2.53,2.87C164.98,84.94,166.18,85.99,167.52,85.99z"/>
	<path class="st7" d="M173.46,87.73c-0.99,0-1.58-0.37-1.58-0.96c0-0.31,0.17-0.64,0.56-0.92c0.24,0.06,0.5,0.08,0.71,0.08h0.94
		c0.72,0,1.1,0.17,1.1,0.68C175.19,87.19,174.5,87.73,173.46,87.73z M173.32,83.5c-0.63,0-1.16-0.5-1.16-1.3
		c0-0.8,0.52-1.28,1.16-1.28c0.64,0,1.16,0.48,1.16,1.28C174.49,82.99,173.95,83.5,173.32,83.5z M173.33,88.37
		c1.69,0,2.76-0.87,2.76-1.89c0-0.91-0.64-1.31-1.91-1.31h-1.06c-0.73,0-0.96-0.25-0.96-0.59c0-0.3,0.15-0.48,0.35-0.65
		c0.25,0.12,0.55,0.19,0.81,0.19c1.12,0,2-0.72,2-1.89c0-0.47-0.19-0.88-0.45-1.12H176v-0.71h-1.91c-0.2-0.08-0.47-0.13-0.77-0.13
		c-1.11,0-2.05,0.75-2.05,1.95c0,0.65,0.35,1.18,0.71,1.47v0.04c-0.28,0.2-0.6,0.56-0.6,1.01c0,0.43,0.21,0.72,0.49,0.9v0.04
		c-0.5,0.33-0.8,0.77-0.8,1.24C171.07,87.84,171.99,88.37,173.33,88.37z"/>
	<path class="st7" d="M177.15,85.85h0.92v-3.51c0.37-0.92,0.92-1.26,1.38-1.26c0.22,0,0.34,0.03,0.53,0.09l0.17-0.81
		c-0.17-0.08-0.34-0.11-0.58-0.11c-0.61,0-1.17,0.44-1.55,1.13h-0.03l-0.08-1h-0.76V85.85z"/>
	<path class="st7" d="M182.3,85.24c-0.54,0-0.96-0.25-0.96-0.87c0-0.7,0.62-1.15,2.45-1.37v1.52
		C183.27,84.98,182.83,85.24,182.3,85.24z M182.04,85.99c0.68,0,1.29-0.36,1.81-0.79h0.03l0.08,0.65h0.76V82.5
		c0-1.36-0.56-2.25-1.9-2.25c-0.88,0-1.64,0.38-2.15,0.71l0.36,0.63c0.43-0.29,1-0.59,1.63-0.59c0.89,0,1.13,0.68,1.13,1.38
		c-2.33,0.25-3.36,0.85-3.36,2.04C180.44,85.42,181.13,85.99,182.04,85.99z"/>
	<path class="st7" d="M186.45,85.85h0.92v-3.96c0.51-0.56,0.96-0.84,1.37-0.84c0.69,0,1.02,0.44,1.02,1.45v3.34h0.92v-3.96
		c0.51-0.56,0.95-0.84,1.37-0.84c0.69,0,1.02,0.44,1.02,1.45v3.34h0.92v-3.46c0-1.39-0.54-2.14-1.66-2.14
		c-0.66,0-1.23,0.43-1.8,1.04c-0.23-0.64-0.67-1.04-1.51-1.04c-0.65,0-1.22,0.41-1.7,0.93h-0.03l-0.08-0.79h-0.76V85.85z"/>
</g>
</svg>
