<?xml version="1.0" encoding="utf-8"?>
<!-- Generator: Adobe Illustrator 25.1.0, SVG Export Plug-In . SVG Version: 6.00 Build 0)  -->
<svg version="1.1"
	 id="Layer_1" inkscape:version="0.92.2 5c3e80d, 2017-08-06" xmlns:cc="http://creativecommons.org/ns#" xmlns:dc="http://purl.org/dc/elements/1.1/" xmlns:inkscape="http://www.inkscape.org/namespaces/inkscape" xmlns:rdf="http://www.w3.org/1999/02/22-rdf-syntax-ns#" xmlns:sodipodi="http://sodipodi.sourceforge.net/DTD/sodipodi-0.dtd" xmlns:svg="http://www.w3.org/2000/svg"
	 xmlns="http://www.w3.org/2000/svg" xmlns:xlink="http://www.w3.org/1999/xlink" x="0px" y="0px" viewBox="0 0 300 100"
	 style="enable-background:new 0 0 300 100;" xml:space="preserve">
<style type="text/css">
	.st0{fill:#CF2030;}
	.st1{fill:#A91F27;}
	.st2{fill:#231F20;}
</style>
<sodipodi:namedview  bordercolor="#666666" borderopacity="1" gridtolerance="10" guidetolerance="10" id="namedview14" inkscape:current-layer="Layer_1" inkscape:cx="257.3262" inkscape:cy="49.999999" inkscape:pageopacity="0" inkscape:pageshadow="2" inkscape:window-height="1041" inkscape:window-maximized="0" inkscape:window-width="636" inkscape:window-x="2006" inkscape:window-y="18" inkscape:zoom="1.1333333" objecttolerance="10" pagecolor="#ffffff" showgrid="false">
	</sodipodi:namedview>
<g>
	<path class="st0" d="M115.48,72.83c-1.04,0-2.02-0.52-2.59-1.4c-0.08-0.12-8.41-12.6-20-13.84c-6.16-0.66-12.33,2.01-18.35,7.93
		c-1.22,1.2-3.18,1.18-4.38-0.04c-1.2-1.22-1.18-3.18,0.04-4.38c7.42-7.29,15.29-10.54,23.39-9.66c9.65,1.05,17.12,7.77,21.15,12.34
		c4.04-8.13,9.13-13.36,15.16-15.58c7.44-2.74,13.47,0.28,13.72,0.4c1.52,0.78,2.12,2.64,1.35,4.17c-0.78,1.51-2.63,2.12-4.14,1.36
		c-0.21-0.1-4.07-1.91-8.9-0.07c-5.13,1.94-9.69,7.45-13.2,15.92l-0.37,0.92c-0.43,1.07-1.42,1.81-2.57,1.93
		C115.69,72.82,115.58,72.83,115.48,72.83"/>
	<g>
		<path class="st0" d="M124.54,75.97c-5.11,4.26-11.6,6.6-18.27,6.6c-13.02,0-24.02-8.76-27.46-20.69
			c-1.43,1.03-2.86,2.24-4.28,3.63c-0.65,0.63-1.5,0.92-2.34,0.88c5.07,13.9,18.43,23.86,34.07,23.86c8.46,0,16.69-2.98,23.18-8.38
			c1.63-1.36,1.85-3.78,0.49-5.41C128.59,74.84,126.17,74.61,124.54,75.97z"/>
		<path class="st0" d="M77.73,55.18C77.71,54.79,77.7,54.4,77.7,54c0-9.98,5.15-18.77,12.92-23.89c-1.09-1.89-1.71-4.13-1.71-6.51
			c0-0.5,0.03-0.98,0.08-1.46C77.7,28.29,70.02,40.26,70.02,54c0,2.28,0.21,4.52,0.62,6.68C72.96,58.45,75.33,56.62,77.73,55.18z"/>
	</g>
	<path class="st1" d="M138,38.21c-0.1-0.26-2.42-6.46-8.73-11.89c-3.89-3.34-9.85-6.85-18.38-7.89c0.67,1.58,1.05,3.33,1.05,5.18
		c0,0.93-0.1,1.83-0.28,2.71c14.36,2.57,18.88,13.93,19.12,14.56c0.58,1.55,2.04,2.5,3.6,2.5c0.44,0,0.89-0.08,1.32-0.24
		C137.71,42.4,138.73,40.2,138,38.21z"/>
	<path class="st1" d="M114.81,64.49c0,0,0.66,4.56-1.22,7.01l-0.05,0.06c0,0,1.1,1.3,2.88,0.67c0,0,0.98-0.31,1.47-1.32l0.81-1.98
		c0,0,2.1-4.71,3.37-6.48s3.26-4.9,6.89-7.38c0,0,3.52-2.56,8.21-2.24c0,0,1.54,0.09,2.88,0.51c0,0,1.17,0.45,1.32,0.55
		c0,0,1.34,0.47,2.41-0.36c0,0,1.88-1.49,0.73-3.5c0,0-0.4-1.04-2.49-1.6c0,0-2.58-1.02-5.67-0.94c0,0-4.71-0.4-10.03,2.96
		c0,0-3.35,1.92-6.27,5.7C120.04,56.15,117.14,59.66,114.81,64.49"/>
	<g>
		<path class="st2" d="M145.35,52.96c0.43-0.84,0.51-1.79,0.22-2.69c-0.29-0.9-0.91-1.62-1.75-2.05c-0.26-0.13-6.45-3.22-14.06-0.43
			c-4.95,1.82-9.28,5.64-12.92,11.37c2.35-4.66,7.44-11.82,16.32-14.1c0.23-0.06,0.37-0.29,0.31-0.52
			c-0.06-0.23-0.29-0.37-0.52-0.31c-12.24,3.14-17.48,15.1-18.41,18.31c-0.92-1.37-3.59-4.99-7.99-8.19
			c-5.03-3.67-13.36-7.42-24.41-4.44c-0.23,0.06-0.36,0.3-0.3,0.52c0.06,0.23,0.3,0.36,0.52,0.3c10.72-2.88,18.78,0.74,23.66,4.29
			c1.87,1.36,3.42,2.81,4.66,4.12c-4.17-3.62-10.05-7.38-17.05-8.14c-5.29-0.57-10.47,0.58-15.5,3.44c0-0.15-0.01-0.3-0.01-0.45
			c0-9.52,4.75-17.94,12.01-23.04c2.22,3.57,6.01,5.92,10.29,5.92c5.77,0,10.62-4.25,11.99-9.99c0,0,0,0,0,0
			c13.49,2.81,17.76,13.55,17.98,14.13c0.62,1.66,2.23,2.78,4,2.78c0.5,0,0.99-0.09,1.47-0.26c1.07-0.39,1.92-1.18,2.4-2.21
			c0.48-1.03,0.53-2.19,0.14-3.26c-0.1-0.27-2.46-6.57-8.85-12.06c-3.82-3.29-9.63-6.74-17.87-7.9c-1.95-4.58-6.26-7.77-11.26-7.77
			c-6.36,0-11.61,5.18-12.3,11.81c0,0,0,0,0,0C77.06,28.45,69.59,40.37,69.59,54c0,2.23,0.2,4.41,0.58,6.54c0,0,0,0,0,0
			c-0.09,0.09-0.18,0.17-0.27,0.26c-1.39,1.36-1.41,3.59-0.04,4.98c0.55,0.56,1.27,0.91,2.04,1.02c0,0,0,0,0,0
			c5.2,13.94,18.65,23.89,34.38,23.89c8.56,0,16.89-3.01,23.45-8.48c1.81-1.51,2.05-4.2,0.55-6.01c-0.73-0.88-1.76-1.42-2.89-1.52
			c-1.14-0.1-2.24,0.24-3.12,0.97c-5.04,4.19-11.43,6.5-17.99,6.5c-12.72,0-23.49-8.49-26.97-20.09c4.49-3.17,9.02-4.52,13.54-4.04
			c11.39,1.22,19.61,13.52,19.69,13.65c0.65,1,1.75,1.6,2.95,1.6c0.12,0,0.23-0.01,0.35-0.02c1.31-0.13,2.43-0.97,2.92-2.19
			l0.37-0.91c3.46-8.36,7.94-13.78,12.96-15.68c4.68-1.77,8.41-0.02,8.56,0.06C142.36,55.37,144.47,54.68,145.35,52.96z M129,26.64
			c6.22,5.35,8.51,11.45,8.6,11.71c0.31,0.86,0.28,1.78-0.11,2.61c-0.38,0.83-1.07,1.46-1.92,1.77c-0.38,0.14-0.78,0.21-1.17,0.21
			c-1.42,0-2.7-0.89-3.2-2.23c-0.23-0.61-4.67-11.77-18.61-14.67c0,0,0,0,0,0c0.14-0.79,0.21-1.61,0.21-2.45
			c0-1.61-0.27-3.16-0.76-4.59C119.83,20.22,125.34,23.5,129,26.64z M100.43,11.17c6.35,0,11.52,5.57,11.52,12.43
			s-5.17,12.43-11.52,12.43c-6.35,0-11.52-5.57-11.52-12.43S94.07,11.17,100.43,11.17z M70.44,54c0-13.11,7.08-24.6,17.62-30.84
			c0,0,0,0,0,0c0,0.15-0.01,0.3-0.01,0.44c0,2.41,0.6,4.67,1.65,6.62c0,0,0,0,0,0C82.2,35.46,77.27,44.16,77.27,54
			c0,0.32,0.01,0.63,0.02,0.95c-2.16,1.31-4.28,2.94-6.38,4.88c0,0,0,0,0,0C70.61,57.93,70.44,55.98,70.44,54z M106.27,83
			c6.77,0,13.35-2.38,18.54-6.7c0.7-0.58,1.59-0.86,2.5-0.78c0.91,0.08,1.73,0.51,2.31,1.22c1.2,1.45,1.01,3.6-0.44,4.81
			c-6.41,5.34-14.55,8.28-22.91,8.28c-15.25,0-28.3-9.57-33.46-23.03c0,0,0,0,0,0c0.77-0.09,1.47-0.43,2.03-0.98
			c1.24-1.22,2.48-2.29,3.73-3.22C82.24,74.4,93.27,83,106.27,83z M72.34,66.83c0.09,0,0.18,0,0.27-0.01
			C72.52,66.83,72.43,66.83,72.34,66.83z M141.01,53.74c-0.17-0.08-4.22-1.99-9.24-0.09c-5.24,1.99-9.89,7.57-13.45,16.16
			l-0.37,0.92c-0.37,0.93-1.22,1.56-2.21,1.66c-1,0.1-1.95-0.37-2.5-1.2c-0.08-0.13-8.5-12.77-20.31-14.03
			c-0.62-0.07-1.25-0.1-1.87-0.1c-5.66,0-11.31,2.73-16.82,8.15c-0.5,0.49-1.17,0.76-1.87,0.76c-0.01,0-0.02,0-0.02,0
			c-0.71-0.01-1.38-0.29-1.88-0.8c-1.03-1.05-1.02-2.74,0.03-3.77c7.33-7.2,15.08-10.41,23.04-9.54c9.72,1.05,17.26,8.09,20.88,12.2
			l0.42,0.48l0.28-0.57c3.99-8.02,9.01-13.19,14.93-15.37c7.26-2.67,13.13,0.26,13.38,0.38c0.63,0.32,1.1,0.88,1.32,1.56
			c0.22,0.68,0.16,1.4-0.16,2.04C143.92,53.87,142.32,54.4,141.01,53.74z"/>
		<path class="st2" d="M139.34,57.79h-3.99v9.98h1.2v-4.22h2.79c0.45,0,1.34,0,1.98-0.87c0.22-0.29,0.65-0.87,0.65-2.03
			c0-0.45,0-1.36-0.72-2.11C141,58.29,140.52,57.79,139.34,57.79z M140.25,62.02c-0.17,0.13-0.5,0.39-1.31,0.39h-2.39v-3.46h2.39
			c0.23,0,0.69,0,1.09,0.21c0.24,0.13,0.72,0.39,0.72,1.49C140.76,60.98,140.76,61.64,140.25,62.02z"/>
		<path class="st2" d="M146.15,61.62c0.03,0,0.1,0,0.18,0.01c0.03,0,0.08,0.01,0.18,0.03v-1.29c-0.06-0.01-0.17-0.02-0.25-0.03
			c-0.02,0-0.07-0.01-0.1-0.01c-0.22,0-0.65,0-1.14,0.53c-0.16,0.18-0.49,0.53-0.62,0.89V60.5h-1.03v7.28h1.09v-4.18
			c0-0.26,0-0.77,0.44-1.37C145.03,62.02,145.33,61.62,146.15,61.62z"/>
		<path class="st2" d="M152.26,66.89c0.25-0.38,0.76-1.15,0.76-2.91c0-0.61,0-1.82-0.86-2.76c-0.29-0.31-0.86-0.94-2.11-0.94
			c-0.46,0-1.39,0-2.22,1.09c-0.28,0.36-0.83,1.09-0.83,2.92c0,0.57,0,1.71,0.78,2.73c0.26,0.34,0.78,1.02,2.12,1.02
			C150.44,68.04,151.5,68.04,152.26,66.89z M148.57,66.21c-0.15-0.26-0.45-0.77-0.45-1.94c0-0.4,0-1.21,0.45-2.07
			c0.15-0.29,0.45-0.86,1.45-0.86c0.37,0,1.12,0,1.58,1.01c0.1,0.21,0.29,0.64,0.29,1.66c0,0.38,0,1.13-0.4,2.05
			c-0.13,0.31-0.4,0.92-1.48,0.92C149.68,66.98,149.02,66.98,148.57,66.21z"/>
		<rect x="154.31" y="57.79" class="st2" width="1.09" height="1.41"/>
		<path class="st2" d="M154.31,68.72c0,0.21,0,0.63-0.15,0.74c-0.05,0.04-0.15,0.12-0.88,0.15v1.06c0.06,0.01,0.19,0.02,0.27,0.03
			c0.03,0,0.09,0.01,0.17,0.01c0.35,0,1.06,0,1.44-0.67c0.08-0.13,0.23-0.39,0.23-1.19v-8.32h-1.09V68.72z"/>
		<path class="st2" d="M159.57,68.03c0.16,0,0.49,0,0.89-0.11c0.24-0.06,0.73-0.19,1.22-0.73c0.1-0.1,0.3-0.31,0.53-0.81
			c0.08-0.16,0.24-0.49,0.28-0.89h-1.07c-0.04,0.16-0.12,0.48-0.41,0.85c-0.17,0.21-0.51,0.63-1.36,0.63c-0.3,0-0.91,0-1.34-0.67
			c-0.14-0.22-0.43-0.67-0.46-1.78h4.73c0-0.37,0-1.1-0.1-1.6c-0.04-0.24-0.11-0.73-0.43-1.28c-0.11-0.19-0.34-0.58-0.98-0.94
			c-0.22-0.12-0.65-0.36-1.33-0.36c-0.45,0-1.36,0-2.21,1.09c-0.28,0.36-0.84,1.09-0.84,2.85c0,0.59,0,1.78,0.84,2.77
			C157.81,67.37,158.37,68.03,159.57,68.03z M158.42,62.01c0.17-0.2,0.51-0.61,1.25-0.61c0.35,0,1.04,0,1.49,0.88
			c0.08,0.16,0.24,0.48,0.31,1.27h-3.59C157.89,63.24,157.91,62.62,158.42,62.01z"/>
		<path class="st2" d="M166.25,67.98c0.38,0,1.13,0,1.85-0.67c0.24-0.22,0.72-0.67,0.9-2.12h-1.06c-0.05,0.27-0.15,0.81-0.55,1.27
			c-0.13,0.16-0.39,0.47-1.07,0.47c-0.29,0-0.88,0-1.29-0.75c-0.14-0.25-0.41-0.75-0.41-1.84c0-0.36,0-1.09,0.29-1.83
			c0.15-0.38,0.45-1.14,1.48-1.14c0.25,0,0.76,0,1.1,0.44c0.11,0.15,0.34,0.44,0.44,1.12h1.06c-0.05-0.49-0.14-1.46-0.82-2.06
			c-0.23-0.2-0.68-0.6-1.78-0.6c-0.43,0-1.28,0-2.1,1.07c-0.28,0.36-0.83,1.07-0.83,2.98c0,0.52,0,1.56,0.75,2.61
			C164.48,67.29,164.98,67.98,166.25,67.98z"/>
		<path class="st2" d="M170.31,66.31c0,0.23,0,0.7,0.27,1.14c0.09,0.15,0.27,0.44,1.03,0.44c0.08,0,0.24,0,0.44-0.03
			c0.07-0.01,0.2-0.03,0.39-0.09v-0.96c-0.04,0-0.12,0.01-0.21,0.02c-0.03,0-0.09,0-0.17,0c-0.1,0-0.3,0-0.42-0.07
			c-0.08-0.04-0.23-0.13-0.23-0.51v-4.75h1.03v-1h-1.03v-2.03h-1.1v2.03h-0.87v1h0.87V66.31z"/>
		<path class="st2" d="M184.22,66.94c-0.02-0.09-0.07-0.28-0.08-0.85l-0.04-1.34c-0.01-0.29-0.03-0.87-0.29-1.26
			c-0.09-0.13-0.26-0.39-0.78-0.62c0.2-0.12,0.59-0.35,0.92-0.92c0.11-0.19,0.33-0.57,0.33-1.47c0-0.57,0-1.72-1.25-2.36
			c-0.22-0.11-0.66-0.33-1.67-0.33h-4.1v9.98h1.2v-4.28h2.73c0.25,0,0.74,0,1.08,0.18c0.2,0.11,0.6,0.33,0.65,1.31l0.07,1.66
			c0.01,0.19,0.02,0.58,0.06,0.79c0.01,0.07,0.04,0.2,0.1,0.33h1.47v-0.22C184.51,67.5,184.33,67.41,184.22,66.94z M182.56,61.98
			c-0.16,0.13-0.49,0.38-1.34,0.38h-2.77v-3.41h2.93c0.21,0,0.62,0,0.98,0.2c0.23,0.13,0.69,0.39,0.69,1.45
			C183.05,60.94,183.05,61.6,182.56,61.98z"/>
		<polygon class="st2" points="187.3,63.2 192.19,63.2 192.19,62.04 187.3,62.04 187.3,59.01 192.59,59.01 192.59,57.79 
			186.13,57.79 186.13,67.77 192.68,67.77 192.68,66.58 187.3,66.58 		"/>
		<path class="st2" d="M195.68,64.78h3.5l0.9,2.99h1.31l-3.21-9.98h-1.36l-3.33,9.98h1.23L195.68,64.78z M197.46,59.27l1.34,4.41
			h-2.77L197.46,59.27z"/>
		<path class="st2" d="M209.33,65.5c0.18-0.43,0.53-1.28,0.53-2.87c0-0.69,0-2.06-0.9-3.38c-0.34-0.49-1.01-1.46-2.83-1.46h-3.59
			v9.98h3.58C206.88,67.77,208.4,67.77,209.33,65.5z M203.75,66.62v-7.66h2.13c0.48,0,1.45,0,2.11,1.03
			c0.22,0.34,0.65,1.03,0.65,2.88c0,0.16,0,0.48-0.09,1.05c-0.05,0.31-0.16,0.94-0.51,1.55c-0.15,0.25-0.45,0.75-1.15,1.02
			c-0.13,0.05-0.39,0.14-1,0.14H203.75z"/>
		<polygon class="st2" points="136.58,72.73 135.3,72.73 135.3,82.71 141.35,82.71 141.35,81.52 136.58,81.52 		"/>
		<rect x="142.45" y="75.47" class="st2" width="1.17" height="7.24"/>
		<rect x="142.45" y="72.73" class="st2" width="1.17" height="1.39"/>
		<path class="st2" d="M146.77,73.41h-1.17v2.03h-0.93v1h0.93v4.82c0,0.23,0,0.7,0.29,1.14c0.1,0.15,0.29,0.44,1.1,0.44
			c0.08,0,0.25,0,0.47-0.03c0.07-0.01,0.21-0.03,0.41-0.09v-0.96c-0.04,0-0.13,0.01-0.22,0.02c-0.03,0-0.1,0-0.18,0
			c-0.1,0-0.31,0-0.45-0.07c-0.08-0.04-0.24-0.13-0.24-0.51v-4.75h1.1v-1h-1.1V73.41z"/>
		<path class="st2" d="M154.81,77.86c-0.04-0.24-0.12-0.73-0.46-1.28c-0.12-0.19-0.36-0.58-1.05-0.94
			c-0.23-0.12-0.69-0.36-1.42-0.36c-0.48,0-1.45,0-2.35,1.09c-0.3,0.36-0.9,1.09-0.9,2.85c0,0.59,0,1.78,0.89,2.77
			c0.3,0.33,0.89,0.99,2.17,0.99c0.18,0,0.53,0,0.94-0.11c0.26-0.06,0.78-0.19,1.3-0.73c0.1-0.1,0.31-0.31,0.57-0.81
			c0.08-0.16,0.25-0.49,0.3-0.89h-1.14c-0.04,0.16-0.13,0.48-0.44,0.85c-0.18,0.21-0.54,0.63-1.44,0.63c-0.32,0-0.97,0-1.43-0.67
			c-0.15-0.22-0.46-0.67-0.49-1.78h5.04C154.91,79.1,154.91,78.37,154.81,77.86z M149.91,78.49c0.01-0.31,0.03-0.94,0.57-1.55
			c0.18-0.2,0.54-0.61,1.33-0.61c0.37,0,1.11,0,1.58,0.88c0.09,0.16,0.26,0.48,0.33,1.27H149.91z"/>
		<path class="st2" d="M159.33,75.27c-0.23,0-0.69,0-1.21,0.53c-0.18,0.18-0.53,0.53-0.66,0.89v-1.26h-1.1v7.28h1.15v-4.18
			c0-0.26,0-0.77,0.47-1.37c0.16-0.2,0.47-0.59,1.34-0.59c0.03,0,0.1,0,0.19,0.01c0.03,0,0.09,0.01,0.19,0.03v-1.29
			c-0.06-0.01-0.19-0.02-0.26-0.03C159.41,75.28,159.36,75.27,159.33,75.27z"/>
		<path class="st2" d="M166.5,81.88c-0.08,0-0.24,0-0.31-0.12c-0.02-0.04-0.07-0.12-0.07-0.31v-4.19c0-0.34,0-1.03-0.75-1.52
			c-0.25-0.16-0.76-0.49-1.97-0.49c-0.35,0-1.05,0-1.84,0.53c-0.26,0.18-0.79,0.53-0.82,1.87h1.08c0.02-0.19,0.06-0.56,0.28-0.85
			c0.13-0.17,0.38-0.52,1.28-0.52c0.26,0,0.78,0,1.2,0.28c0.14,0.09,0.42,0.28,0.42,0.91c0,0.1,0,0.31-0.08,0.47
			c-0.04,0.1-0.13,0.3-0.53,0.35l-1.84,0.24c-0.32,0.04-0.97,0.13-1.57,0.69c-0.2,0.19-0.6,0.56-0.6,1.57c0,0.31,0,0.92,0.61,1.54
			c0.2,0.2,0.61,0.61,1.56,0.61c0.27,0,0.8,0,1.46-0.36c0.22-0.12,0.66-0.36,1.01-0.85c0.02,0.14,0.06,0.43,0.2,0.67
			c0.09,0.15,0.27,0.45,0.87,0.45c0.08,0,0.24,0,0.38-0.02c0.05-0.01,0.14-0.02,0.41-0.1v-0.9c-0.04,0.01-0.11,0.02-0.21,0.03
			C166.64,81.88,166.58,81.88,166.5,81.88z M164.96,80c0,0.38,0,1.13-0.96,1.62c-0.19,0.1-0.57,0.3-1.18,0.3
			c-0.17,0-0.5,0-0.87-0.31c-0.12-0.1-0.37-0.31-0.37-0.84c0-0.23,0-0.7,0.53-1.02c0.1-0.06,0.31-0.19,0.94-0.28l0.7-0.1
			c0.11-0.01,0.32-0.04,0.65-0.14c0.11-0.03,0.33-0.1,0.55-0.24V80z"/>
		<path class="st2" d="M170.65,76.32c0.27,0,0.81,0,1.17,0.44c0.12,0.15,0.37,0.44,0.47,1.12h1.12c-0.05-0.49-0.15-1.46-0.88-2.06
			c-0.24-0.2-0.73-0.6-1.89-0.6c-0.45,0-1.36,0-2.24,1.07c-0.29,0.36-0.88,1.07-0.88,2.98c0,0.52,0,1.56,0.8,2.61
			c0.27,0.35,0.8,1.04,2.15,1.04c0.4,0,1.2,0,1.97-0.67c0.26-0.22,0.77-0.67,0.96-2.12h-1.12c-0.05,0.27-0.16,0.81-0.58,1.27
			c-0.14,0.16-0.42,0.47-1.14,0.47c-0.31,0-0.94,0-1.37-0.75c-0.15-0.25-0.44-0.75-0.44-1.84c0-0.36,0-1.09,0.31-1.83
			C169.23,77.08,169.55,76.32,170.65,76.32z"/>
		<path class="st2" d="M177.01,81.36l-1.84-5.92h-1.31l2.54,7.49c-0.03,0.08-0.09,0.24-0.29,0.75c-0.07,0.17-0.2,0.5-0.23,0.56
			c-0.03,0.05-0.1,0.16-0.25,0.28c-0.05,0.04-0.15,0.11-0.47,0.11c-0.03,0-0.1,0-0.24-0.02c-0.04-0.01-0.13-0.02-0.44-0.11v1.11
			c0.06,0.02,0.19,0.05,0.32,0.07c0.04,0.01,0.13,0.02,0.38,0.02c0.33,0,1,0,1.41-0.61c0.14-0.2,0.41-0.61,1.41-3.4
			c0.14-0.39,0.42-1.18,1.05-3.06c0.28-0.83,0.84-2.49,1.08-3.19h-1.28L177.01,81.36z"/>
		<polygon class="st2" points="191.22,80.82 186.46,72.73 184.95,72.73 184.95,82.71 186.17,82.71 186.17,74.64 191,82.71 
			192.43,82.71 192.43,72.73 191.22,72.73 		"/>
		<path class="st2" d="M200.07,77.86c-0.04-0.24-0.12-0.73-0.46-1.28c-0.12-0.19-0.36-0.58-1.05-0.94
			c-0.23-0.12-0.69-0.36-1.42-0.36c-0.48,0-1.45,0-2.35,1.09c-0.3,0.36-0.9,1.09-0.9,2.85c0,0.59,0,1.78,0.89,2.77
			c0.3,0.33,0.89,0.99,2.17,0.99c0.18,0,0.53,0,0.94-0.11c0.26-0.06,0.78-0.19,1.3-0.73c0.1-0.1,0.31-0.31,0.57-0.81
			c0.08-0.16,0.25-0.49,0.3-0.89h-1.14c-0.04,0.16-0.13,0.48-0.44,0.85c-0.18,0.21-0.54,0.63-1.44,0.63c-0.32,0-0.97,0-1.43-0.67
			c-0.15-0.22-0.46-0.67-0.49-1.78h5.04C200.17,79.1,200.17,78.37,200.07,77.86z M195.17,78.49c0.01-0.31,0.03-0.94,0.57-1.55
			c0.18-0.2,0.54-0.61,1.33-0.61c0.37,0,1.11,0,1.58,0.88c0.09,0.16,0.26,0.48,0.33,1.27H195.17z"/>
		<path class="st2" d="M202.99,73.41h-1.17v2.03h-0.93v1h0.93v4.82c0,0.23,0,0.7,0.29,1.14c0.1,0.15,0.29,0.44,1.1,0.44
			c0.08,0,0.25,0,0.47-0.03c0.07-0.01,0.21-0.03,0.41-0.09v-0.96c-0.04,0-0.13,0.01-0.22,0.02c-0.03,0-0.1,0-0.18,0
			c-0.1,0-0.31,0-0.45-0.07c-0.08-0.04-0.24-0.13-0.24-0.51v-4.75h1.1v-1h-1.1V73.41z"/>
		<polygon class="st2" points="211.5,81.14 210.16,75.44 208.86,75.44 207.52,81.17 206.2,75.44 204.93,75.44 206.92,82.71 
			208.12,82.71 209.47,77.08 210.87,82.71 212.07,82.71 214.06,75.44 212.91,75.44 		"/>
		<path class="st2" d="M217.92,75.23c-0.49,0-1.48,0-2.36,1.09c-0.29,0.36-0.88,1.09-0.88,2.92c0,0.57,0,1.71,0.83,2.73
			c0.28,0.34,0.83,1.02,2.25,1.02c0.57,0,1.7,0,2.51-1.15c0.27-0.38,0.81-1.15,0.81-2.91c0-0.61,0-1.82-0.92-2.76
			C219.86,75.85,219.25,75.23,217.92,75.23z M219.45,81c-0.14,0.31-0.43,0.92-1.57,0.92c-0.35,0-1.05,0-1.53-0.77
			c-0.16-0.26-0.48-0.77-0.48-1.94c0-0.4,0-1.21,0.48-2.07c0.16-0.29,0.48-0.86,1.54-0.86c0.4,0,1.19,0,1.68,1.01
			c0.1,0.21,0.31,0.64,0.31,1.66C219.88,79.33,219.88,80.08,219.45,81z"/>
		<path class="st2" d="M225.46,75.27c-0.23,0-0.69,0-1.21,0.53c-0.18,0.18-0.53,0.53-0.66,0.89v-1.26h-1.1v7.28h1.15v-4.18
			c0-0.26,0-0.77,0.47-1.37c0.16-0.2,0.47-0.59,1.34-0.59c0.03,0,0.1,0,0.19,0.01c0.03,0,0.09,0.01,0.19,0.03v-1.29
			c-0.06-0.01-0.19-0.02-0.26-0.03C225.54,75.28,225.49,75.27,225.46,75.27z"/>
		<polygon class="st2" points="229.73,78.16 232.36,75.44 230.88,75.44 227.92,78.53 227.92,72.73 226.81,72.73 226.81,82.71 
			227.92,82.71 227.92,79.98 228.88,79.04 231.03,82.71 232.5,82.71 		"/>
	</g>
	<path class="st0" d="M100.43,11.17c-6.35,0-11.52,5.57-11.52,12.43s5.17,12.43,11.52,12.43c6.35,0,11.52-5.57,11.52-12.43
		S106.78,11.17,100.43,11.17z"/>
</g>
</svg>
