<?xml version="1.0" encoding="utf-8"?>
<!-- Generator: Adobe Illustrator 25.2.2, SVG Export Plug-In . SVG Version: 6.00 Build 0)  -->
<svg version="1.1" id="Layer_1" xmlns="http://www.w3.org/2000/svg" xmlns:xlink="http://www.w3.org/1999/xlink" x="0px" y="0px"
	 viewBox="0 0 250 250" style="enable-background:new 0 0 250 250;" xml:space="preserve">
<style type="text/css">
	.st0{fill:#CF2030;}
	.st1{fill:#FFFFFF;}
</style>
<circle class="st0" cx="125" cy="125" r="124.5"/>
<g>
	<g>
		<ellipse transform="matrix(0.9732 -0.2298 0.2298 0.9732 -11.0056 39.4642)" class="st1" cx="164" cy="67" rx="9.1" ry="9.1"/>
		<path class="st1" d="M149.5,93.3h26.6c2.8,0,5.1-2.3,5.1-5.1c0-5.4-4.4-9.7-9.7-9.7h-17.4c-5.4,0-9.7,4.4-9.7,9.7
			C144.4,91,146.7,93.3,149.5,93.3z"/>
		<rect x="66.5" y="90.9" class="st1" width="45.6" height="4.2"/>
		<rect x="66.5" y="107.7" class="st1" width="28.2" height="4.2"/>
		<rect x="98.3" y="107.7" class="st1" width="28.2" height="4.2"/>
		<rect x="130.1" y="107.7" class="st1" width="54.6" height="4.2"/>
		<rect x="66.5" y="124.5" class="st1" width="52.2" height="4.2"/>
		<rect x="122.3" y="124.5" class="st1" width="62.4" height="4.2"/>
		<rect x="66.5" y="141.3" class="st1" width="37.2" height="4.2"/>
		<rect x="107.3" y="141.3" class="st1" width="16.8" height="4.2"/>
		<rect x="127.7" y="141.3" class="st1" width="16.8" height="4.2"/>
		<rect x="148.1" y="141.3" class="st1" width="16.8" height="4.2"/>
		<rect x="66.5" y="158" class="st1" width="11.4" height="4.2"/>
		<rect x="81.5" y="158" class="st1" width="49.8" height="4.2"/>
		<rect x="134.9" y="158" class="st1" width="49.8" height="4.2"/>
		<rect x="66.5" y="174.8" class="st1" width="28.2" height="4.2"/>
		<rect x="98.3" y="174.8" class="st1" width="54.6" height="4.2"/>
		<path class="st1" d="M194.6,128.4V42h-15.3l-1.2-6.8L139.9,42h-68v-6.6c0-1.2-0.9-2.1-2.1-2.1s-2.1,0.9-2.1,2.1V42H55.4v15
			l-11.4,2l11.4,64.5v81.6h139.1v-10.2l11.4-2L194.6,128.4z M191.6,202.1H58.4V45h9.3v18c0,1.2,0.9,2.1,2.1,2.1s2.1-0.9,2.1-2.1V45
			h119.6V202.1z"/>
	</g>
	<polygon class="st1" points="72,216.7 137.1,205.1 69.9,205.1 	"/>
</g>
</svg>
