<?xml version="1.0" encoding="utf-8"?>
<!-- Generator: Adobe Illustrator 25.2.2, SVG Export Plug-In . SVG Version: 6.00 Build 0)  -->
<svg version="1.1" id="Layer_1" xmlns="http://www.w3.org/2000/svg" xmlns:xlink="http://www.w3.org/1999/xlink" x="0px" y="0px"
	 viewBox="0 0 250 250" style="enable-background:new 0 0 250 250;" xml:space="preserve">
<style type="text/css">
	.st0{fill:#CF2030;}
	.st1{fill:#FFFFFF;}
</style>
<circle class="st0" cx="125" cy="125" r="124.5"/>
<g>
	<circle class="st1" cx="82.9" cy="115.8" r="24.7"/>
	<path class="st1" d="M103.3,147H56c-14.6,0-26.5,11.9-26.5,26.5v13.9h100.3v-13.9C129.8,158.9,118,147,103.3,147z"/>
	<path class="st1" d="M222.5,68.1c-3.9,2-9.2,2.7-12,2.7c-3.4,0-7.8-2.7-12.1-4.5c-0.3-0.1-0.6-0.2-0.9-0.2v-5.8
		c0-1.2-1-2.2-2.2-2.2h-0.8c-1.2,0-2.2,1-2.2,2.2v72.4c0,1.2,1,2.2,2.2,2.2h0.8c1.2,0,2.2-1,2.2-2.2V90.8c4.8,1.7,12.1,3.7,14.9,3.7
		c2.8,0,9.8-0.8,13.2-3.1c1.1-0.8,1.9-2.2,1.9-3.8V72.1C227.5,69,224.9,66.9,222.5,68.1z"/>
	<path class="st1" d="M124.7,120c-3,1.7-4.5,3.8-4.5,6.3c0.1,6.1,9.1,11.1,23.9,18.9c8.7,4.6,23.3,12.3,22.6,16
		c-0.1,0.8-2,4.8-25.5,7.9l0.7,5.2c19.9-2.6,28.9-6.3,30-12.2c1.3-7.5-11-14-25.3-21.6c-8.4-4.4-21.1-11.1-21.1-14.4
		c0-0.3,0.5-0.9,1.8-1.7c6.1-3.4,39.1-4,59.9-3.6l0.1-5.2C181.7,115.7,133.9,114.9,124.7,120z"/>
</g>
</svg>
