<?xml version="1.0" encoding="utf-8"?>
<!-- Generator: Adobe Illustrator 25.2.2, SVG Export Plug-In . SVG Version: 6.00 Build 0)  -->
<svg version="1.1" id="Layer_1" xmlns="http://www.w3.org/2000/svg" xmlns:xlink="http://www.w3.org/1999/xlink" x="0px" y="0px"
	 viewBox="0 0 250 250" style="enable-background:new 0 0 250 250;" xml:space="preserve">
<style type="text/css">
	.st0{fill:#CF2030;}
	.st1{fill:#FFFFFF;}
</style>
<circle class="st0" cx="125" cy="125" r="124.5"/>
<g>
	<path class="st1" d="M215.4,121.5h-74c-1.1,0-2.1-0.9-2.1-2.1v-1.8c0-1.2,1-2.2,2.2-2.2h51.4c5.3,0,9.6-4.3,9.6-9.6v0
		c0-5.3-4.3-9.6-9.6-9.6h-36.5c0,0-34,28.1-36.5,33.8c-3.7,8.3-17.9,37.4-17.9,37.4c-0.5,1-4.5,5.1-8,3.2c-3.4-1.9-0.5-7.1-0.5-7.1
		l7.3-14.8c0.4-0.8-0.5-1.5-1.2-1l-6.4,4.9l-3.8,2.9l-20,15.3c-2,1.5-4.8,1.1-6.3-0.8c-1.5-2-1.1-4.8,0.8-6.3L83,148.8
		c0.5-0.3,0.5-1,0.2-1.5l-0.5-0.7c-0.3-0.4-0.9-0.5-1.4-0.2l-27.6,21.1c-2,1.5-4.8,1.1-6.3-0.8v0c-1.5-2-1.1-4.8,0.8-6.3l27.5-21
		c0.5-0.4,0.6-1.1,0.2-1.6l-0.2-0.3c-0.4-0.6-1.2-0.7-1.8-0.2l-22.1,16.8c-2,1.5-4.8,1.1-6.3-0.8c-1.5-2-1.1-4.8,0.8-6.3l22-16.8
		c0.6-0.5,0.7-1.3,0.3-1.9c-0.5-0.7-1.4-0.8-2.1-0.3L52.1,139c-2,1.5-4.8,1.1-6.3-0.8c-1.5-2-1.1-4.8,0.8-6.3l15.6-12L66,117
		c0,0,16.3-12.6,25.4-14.4c7.4-1.4,19.8-9.7,19.8-9.7l0.2,0l31.4-15.7c0,0,11.5-4.9,8.2-12.6c-3.3-7.7-15.4-5.9-17.6-4.9
		c0,0-61.5,30.8-78.6,40.1c-15.1,8.3-29.9,9.1-29.9,9.1l0.3,67.3c0,0,28-0.5,42.3,6.6c17.6,8.8,61.5,8.5,61.5,8.5h10.2h45.9
		c5.3,0,9.6-4.3,9.6-9.6v0c0-5.3-4.3-9.6-9.6-9.6h-42.7c-1.8,0-3.2-1.4-3.2-3.2c0-1.6,1.3-2.9,2.9-2.9h59c5.3,0,9.6-4.3,9.6-9.6v0
		c0-5.3-4.3-9.6-9.6-9.6H142c-1.5,0-2.7-1.2-2.7-2.7v-0.9c0-1.4,1.1-2.5,2.5-2.5h73.6c5.3,0,9.6-4.3,9.6-9.6v0
		C225,125.8,220.7,121.5,215.4,121.5z"/>
</g>
</svg>
