<?xml version="1.0" encoding="utf-8"?>
<!-- Generator: Adobe Illustrator 25.2.2, SVG Export Plug-In . SVG Version: 6.00 Build 0)  -->
<svg version="1.1" id="Layer_1" xmlns="http://www.w3.org/2000/svg" xmlns:xlink="http://www.w3.org/1999/xlink" x="0px" y="0px"
	 viewBox="0 0 250 250" style="enable-background:new 0 0 250 250;" xml:space="preserve">
<style type="text/css">
	.st0{fill:#CF2030;}
	.st1{fill:#FFFFFF;}
</style>
<circle class="st0" cx="125" cy="125" r="124.5"/>
<g>
	<circle class="st1" cx="126.3" cy="55.1" r="12.2"/>
	<path class="st1" d="M181.9,37.8c-0.9-1.6-2.4-2.8-4.2-3.3c-1.8-0.5-3.7-0.3-5.3,0.7c-1.6,0.9-2.8,2.4-3.3,4.2L162.2,64l-17.6,10
		c-2.2-2.2-5.1-3.5-8.2-3.5H113c-3,0-5.8,1.2-8,3.3L87.8,64L81,39.4c-0.5-1.8-1.7-3.3-3.3-4.2c-1.6-0.9-3.5-1.2-5.3-0.7
		c-1.8,0.5-3.3,1.7-4.2,3.3c-0.9,1.6-1.2,3.5-0.7,5.3L75,70.4c0.3,1.2,0.9,2.2,1.7,3c0.5,0.6,1.1,1.1,1.8,1.5L100,87.1l6.2,55.9
		l-17,61.8c-1.3,4.6,1.4,9.4,6,10.6c0.8,0.2,1.5,0.3,2.3,0.3c3.8,0,7.3-2.5,8.3-6.3l18.3-66.4h4.4l18.3,66.4l0,0
		c1.1,3.8,4.5,6.3,8.3,6.3c0.8,0,1.5-0.1,2.3-0.3c4.6-1.3,7.3-6,6-10.6l-17-61.8l3-55.5l22.1-12.6c0.7-0.4,1.3-0.9,1.8-1.5
		c0.8-0.8,1.4-1.9,1.7-3l7.5-27.3C183,41.3,182.8,39.4,181.9,37.8z"/>
</g>
</svg>
