<?xml version="1.0" encoding="utf-8"?>
<!-- Generator: Adobe Illustrator 25.2.2, SVG Export Plug-In . SVG Version: 6.00 Build 0)  -->
<svg version="1.1" id="Layer_1" xmlns="http://www.w3.org/2000/svg" xmlns:xlink="http://www.w3.org/1999/xlink" x="0px" y="0px"
	 viewBox="0 0 376 491" style="enable-background:new 0 0 376 491;" xml:space="preserve">
<style type="text/css">
	.st0{fill:#F16522;}
	.st1{fill:url(#SVGID_1_);}
	.st2{fill-rule:evenodd;clip-rule:evenodd;fill:none;}
	.st3{fill:#FFC33C;}
	.st4{fill:#57CBF5;}
	.st5{fill:#4AB513;}
</style>
<g>
	<path class="st0" d="M238.2,283.7c0.9,0,1.8,0,2.7-0.1c0.9,0,1.8-0.1,2.7-0.2c0.9-0.1,1.8-0.2,2.6-0.3c0.9-0.1,1.8-0.3,2.6-0.5
		c0.9-0.2,1.7-0.4,2.6-0.6c0.9-0.2,1.7-0.5,2.6-0.7c0.8-0.3,1.7-0.5,2.5-0.8c0.8-0.3,1.7-0.6,2.5-1c0.8-0.3,1.6-0.7,2.4-1.1
		c0.8-0.4,1.6-0.8,2.4-1.2c0.8-0.4,1.6-0.9,2.3-1.3c0.8-0.5,1.5-0.9,2.2-1.4c0.7-0.5,1.5-1,2.2-1.5c0.7-0.5,1.4-1.1,2.1-1.6
		c0.7-0.6,1.4-1.1,2-1.7c0.7-0.6,1.3-1.2,1.9-1.8c0.6-0.6,1.2-1.3,1.8-1.9c0.6-0.7,1.2-1.3,1.7-2c0.6-0.7,1.1-1.4,1.6-2.1
		c0.5-0.7,1-1.4,1.5-2.2c0.5-0.7,1-1.5,1.4-2.2c0.5-0.8,0.9-1.5,1.3-2.3c0.4-0.8,0.8-1.6,1.2-2.4c0.4-0.8,0.7-1.6,1.1-2.4
		c0.3-0.8,0.7-1.6,1-2.5c0.3-0.8,0.6-1.7,0.8-2.5s0.5-1.7,0.7-2.6s0.4-1.7,0.6-2.6c0.2-0.9,0.3-1.7,0.5-2.6c0.1-0.9,0.2-1.8,0.3-2.6
		c0.1-0.9,0.2-1.8,0.2-2.7c0-0.9,0.1-1.8,0.1-2.7c0-0.9,0-1.8-0.1-2.7s-0.1-1.8-0.2-2.7c-0.1-0.9-0.2-1.8-0.3-2.6s-0.3-1.8-0.5-2.6
		c-0.2-0.9-0.4-1.7-0.6-2.6c-0.2-0.9-0.5-1.7-0.7-2.6c-0.3-0.8-0.5-1.7-0.8-2.5c-0.3-0.8-0.6-1.7-1-2.5c-0.3-0.8-0.7-1.6-1.1-2.4
		c-0.4-0.8-0.8-1.6-1.2-2.4c-0.4-0.8-0.9-1.6-1.3-2.3c-0.5-0.8-0.9-1.5-1.4-2.2c-0.5-0.7-1-1.5-1.5-2.2c-0.5-0.7-1.1-1.4-1.6-2.1
		c-0.6-0.7-1.1-1.4-1.7-2c-0.6-0.7-1.2-1.3-1.8-1.9c-0.6-0.6-1.3-1.2-1.9-1.8c-0.7-0.6-1.3-1.2-2-1.7s-1.4-1.1-2.1-1.6
		c-0.7-0.5-1.4-1-2.2-1.5c-0.7-0.5-1.5-1-2.2-1.4c-0.8-0.5-1.5-0.9-2.3-1.3c-0.8-0.4-1.6-0.8-2.4-1.2c-0.8-0.4-1.6-0.7-2.4-1.1
		c-0.8-0.3-1.6-0.7-2.5-1c-0.8-0.3-1.7-0.6-2.5-0.8c-0.8-0.3-1.7-0.5-2.6-0.7c-0.9-0.2-1.7-0.4-2.6-0.6c-0.9-0.2-1.7-0.3-2.6-0.5
		c-0.9-0.1-1.8-0.2-2.6-0.3c-0.9-0.1-1.8-0.2-2.7-0.2s-1.8-0.1-2.7-0.1c-0.9,0-1.8,0-2.7,0.1c-0.9,0-1.8,0.1-2.7,0.2
		c-0.9,0.1-1.8,0.2-2.6,0.3c-0.9,0.1-1.8,0.3-2.6,0.5c-0.9,0.2-1.7,0.4-2.6,0.6c-0.9,0.2-1.7,0.5-2.6,0.7c-0.8,0.3-1.7,0.5-2.5,0.8
		c-0.8,0.3-1.7,0.6-2.5,1c-0.8,0.3-1.6,0.7-2.4,1.1c-0.8,0.4-1.6,0.8-2.4,1.2c-0.8,0.4-1.6,0.9-2.3,1.3c-0.8,0.5-1.5,0.9-2.2,1.4
		c-0.7,0.5-1.5,1-2.2,1.5c-0.7,0.5-1.4,1.1-2.1,1.6c-0.7,0.6-1.4,1.1-2,1.7c-0.7,0.6-1.3,1.2-1.9,1.8c-0.6,0.6-1.2,1.3-1.8,1.9
		c-0.6,0.7-1.2,1.3-1.7,2c-0.6,0.7-1.1,1.4-1.6,2.1c-0.5,0.7-1,1.4-1.5,2.2c-0.5,0.7-1,1.5-1.4,2.2c-0.5,0.8-0.9,1.5-1.3,2.3
		c-0.4,0.8-0.8,1.6-1.2,2.4c-0.4,0.8-0.7,1.6-1.1,2.4c-0.3,0.8-0.7,1.6-1,2.5c-0.3,0.8-0.6,1.7-0.8,2.5c-0.3,0.8-0.5,1.7-0.7,2.6
		c-0.2,0.9-0.4,1.7-0.6,2.6c-0.2,0.9-0.3,1.7-0.5,2.6c-0.1,0.9-0.2,1.8-0.3,2.6c-0.1,0.9-0.2,1.8-0.2,2.7c0,0.9-0.1,1.8-0.1,2.7
		s0,1.8,0.1,2.7c0,0.9,0.1,1.8,0.2,2.7c0.1,0.9,0.2,1.8,0.3,2.6c0.1,0.9,0.3,1.8,0.5,2.6c0.2,0.9,0.4,1.7,0.6,2.6
		c0.2,0.9,0.5,1.7,0.7,2.6c0.3,0.8,0.5,1.7,0.8,2.5s0.6,1.7,1,2.5c0.3,0.8,0.7,1.6,1.1,2.4c0.4,0.8,0.8,1.6,1.2,2.4
		c0.4,0.8,0.9,1.6,1.3,2.3c0.5,0.8,0.9,1.5,1.4,2.2c0.5,0.7,1,1.5,1.5,2.2c0.5,0.7,1.1,1.4,1.6,2.1c0.6,0.7,1.1,1.4,1.7,2
		c0.6,0.7,1.2,1.3,1.8,1.9c0.6,0.6,1.3,1.2,1.9,1.8c0.7,0.6,1.3,1.2,2,1.7c0.7,0.6,1.4,1.1,2.1,1.6c0.7,0.5,1.4,1,2.2,1.5
		c0.7,0.5,1.5,1,2.2,1.4c0.8,0.5,1.5,0.9,2.3,1.3c0.8,0.4,1.6,0.8,2.4,1.2c0.8,0.4,1.6,0.7,2.4,1.1c0.8,0.3,1.6,0.7,2.5,1
		c0.8,0.3,1.7,0.6,2.5,0.8c0.8,0.3,1.7,0.5,2.6,0.7c0.9,0.2,1.7,0.4,2.6,0.6c0.9,0.2,1.7,0.3,2.6,0.5c0.9,0.1,1.8,0.2,2.6,0.3
		c0.9,0.1,1.8,0.2,2.7,0.2C236.5,283.6,237.3,283.7,238.2,283.7z"/>
	
		<linearGradient id="SVGID_1_" gradientUnits="userSpaceOnUse" x1="633.0574" y1="1187.2704" x2="912.4669" y2="1187.2704" gradientTransform="matrix(0.7147 0 0 -0.7147 -400.7929 998.2464)">
		<stop  offset="0" style="stop-color:#0E83CD"/>
		<stop  offset="0.515" style="stop-color:#0E83CD"/>
		<stop  offset="1" style="stop-color:#0E83CD"/>
	</linearGradient>
	<path class="st1" d="M251.4,149.7l0,0.4c0,0.3-0.1,0.5-0.2,0.8c-0.1,0.3-0.3,0.5-0.4,0.7c-0.2,0.2-0.4,0.3-0.7,0.4
		c-0.3,0.1-0.5,0.2-0.8,0.2s-0.5-0.1-0.8-0.2c-0.3-0.1-0.5-0.3-0.7-0.4c-0.2-0.2-0.3-0.4-0.4-0.7c-0.1-0.3-0.2-0.5-0.2-0.8l0-0.4
		c0-0.3,0.1-0.5,0.2-0.8c0.1-0.3,0.3-0.5,0.4-0.7c0.2-0.2,0.4-0.3,0.7-0.4c0.3-0.1,0.5-0.2,0.8-0.2c0.3,0,0.5,0.1,0.8,0.2
		c0.3,0.1,0.5,0.3,0.7,0.4c0.2,0.2,0.3,0.4,0.4,0.7C251.3,149.1,251.4,149.4,251.4,149.7z M250.6,137l0,0.2l0,0.3
		c0,0.3,0,0.5-0.1,0.8c-0.1,0.3-0.2,0.5-0.4,0.7c-0.2,0.2-0.4,0.4-0.6,0.5c-0.2,0.1-0.5,0.2-0.8,0.3c-0.3,0-0.5,0-0.8-0.1
		c-0.3-0.1-0.5-0.2-0.7-0.4c-0.2-0.2-0.4-0.4-0.5-0.6c-0.1-0.2-0.2-0.5-0.3-0.8l0-0.2l0-0.2c0-0.3,0-0.5,0.1-0.8
		c0.1-0.3,0.2-0.5,0.4-0.7c0.2-0.2,0.4-0.4,0.6-0.5c0.2-0.1,0.5-0.2,0.8-0.3c0.3,0,0.5,0,0.8,0.1c0.3,0.1,0.5,0.2,0.7,0.4
		c0.2,0.2,0.4,0.4,0.5,0.6C250.4,136.4,250.5,136.7,250.6,137z M248,124.1l0.1,0.4c0.1,0.3,0.1,0.5,0,0.8c0,0.3-0.1,0.5-0.3,0.8
		c-0.1,0.2-0.3,0.4-0.5,0.6c-0.2,0.2-0.5,0.3-0.7,0.4c-0.3,0.1-0.5,0.1-0.8,0c-0.3,0-0.5-0.1-0.8-0.3c-0.2-0.1-0.4-0.3-0.6-0.5
		c-0.2-0.2-0.3-0.5-0.4-0.7l-0.1-0.4c-0.1-0.3-0.1-0.5,0-0.8c0-0.3,0.1-0.5,0.3-0.8c0.1-0.2,0.3-0.4,0.5-0.6
		c0.2-0.2,0.5-0.3,0.7-0.4s0.5-0.1,0.8,0c0.3,0,0.5,0.1,0.8,0.3c0.2,0.1,0.4,0.3,0.6,0.5C247.9,123.6,248,123.9,248,124.1z
		 M243.9,111.7l0.2,0.4c0.1,0.3,0.2,0.5,0.2,0.8c0,0.3-0.1,0.5-0.2,0.8c-0.1,0.3-0.3,0.5-0.4,0.7c-0.2,0.2-0.4,0.3-0.7,0.4
		c-0.3,0.1-0.5,0.2-0.8,0.2c-0.3,0-0.5-0.1-0.8-0.2c-0.3-0.1-0.5-0.3-0.7-0.4c-0.2-0.2-0.3-0.4-0.4-0.7l-0.2-0.4
		c-0.1-0.3-0.2-0.5-0.2-0.8c0-0.3,0.1-0.5,0.2-0.8c0.1-0.3,0.3-0.5,0.4-0.7s0.4-0.3,0.7-0.4c0.3-0.1,0.5-0.2,0.8-0.2
		c0.3,0,0.5,0.1,0.8,0.2c0.3,0.1,0.5,0.3,0.7,0.4C243.6,111.3,243.8,111.5,243.9,111.7z M238.1,100l0.2,0.4c0.1,0.2,0.2,0.5,0.3,0.8
		c0,0.3,0,0.5-0.1,0.8c-0.1,0.3-0.2,0.5-0.4,0.7c-0.2,0.2-0.4,0.4-0.6,0.5c-0.2,0.1-0.5,0.2-0.8,0.3c-0.3,0-0.5,0-0.8-0.1
		c-0.3-0.1-0.5-0.2-0.7-0.4c-0.2-0.2-0.4-0.4-0.5-0.6l-0.2-0.4c-0.1-0.2-0.2-0.5-0.3-0.8c0-0.3,0-0.5,0.1-0.8
		c0.1-0.3,0.2-0.5,0.4-0.7s0.4-0.4,0.6-0.5c0.2-0.1,0.5-0.2,0.8-0.3c0.3,0,0.5,0,0.8,0.1c0.3,0.1,0.5,0.2,0.7,0.4
		C237.8,99.6,238,99.8,238.1,100z M230.9,89.1l0.3,0.3c0.2,0.2,0.3,0.5,0.4,0.7c0.1,0.3,0.1,0.5,0,0.8c0,0.3-0.1,0.5-0.3,0.8
		c-0.1,0.2-0.3,0.4-0.5,0.6c-0.2,0.2-0.5,0.3-0.7,0.4c-0.3,0.1-0.5,0.1-0.8,0c-0.3,0-0.5-0.1-0.8-0.3c-0.2-0.1-0.4-0.3-0.6-0.5
		l-0.3-0.3c-0.2-0.2-0.3-0.5-0.4-0.7c-0.1-0.3-0.1-0.5,0-0.8c0-0.3,0.1-0.5,0.3-0.8c0.1-0.2,0.3-0.4,0.5-0.6
		c0.2-0.2,0.5-0.3,0.7-0.4c0.3-0.1,0.5-0.1,0.8,0c0.3,0,0.5,0.1,0.8,0.3C230.5,88.7,230.7,88.9,230.9,89.1z M222.3,79.3l0.3,0.3
		c0.2,0.2,0.3,0.4,0.4,0.7c0.1,0.3,0.2,0.5,0.2,0.8c0,0.3-0.1,0.5-0.2,0.8c-0.1,0.3-0.3,0.5-0.4,0.7c-0.2,0.2-0.4,0.3-0.7,0.4
		c-0.3,0.1-0.5,0.2-0.8,0.2c-0.3,0-0.5-0.1-0.8-0.2c-0.3-0.1-0.5-0.3-0.7-0.4l-0.3-0.3c-0.2-0.2-0.3-0.4-0.4-0.7
		c-0.1-0.3-0.2-0.5-0.2-0.8c0-0.3,0.1-0.5,0.2-0.8c0.1-0.3,0.3-0.5,0.4-0.7c0.2-0.2,0.4-0.3,0.7-0.4c0.3-0.1,0.5-0.2,0.8-0.2
		c0.3,0,0.5,0.1,0.8,0.2C221.9,78.9,222.1,79.1,222.3,79.3z M212.5,70.6l0.3,0.3c0.2,0.2,0.4,0.4,0.5,0.6c0.1,0.2,0.2,0.5,0.3,0.8
		c0,0.3,0,0.5-0.1,0.8c-0.1,0.3-0.2,0.5-0.4,0.7c-0.2,0.2-0.4,0.4-0.6,0.5c-0.2,0.1-0.5,0.2-0.8,0.3c-0.3,0-0.5,0-0.8-0.1
		c-0.3-0.1-0.5-0.2-0.7-0.4l-0.3-0.3c-0.2-0.2-0.4-0.4-0.5-0.6c-0.1-0.2-0.2-0.5-0.3-0.8c0-0.3,0-0.5,0.1-0.8
		c0.1-0.3,0.2-0.5,0.4-0.7c0.2-0.2,0.4-0.4,0.6-0.5c0.2-0.1,0.5-0.2,0.8-0.3c0.3,0,0.5,0,0.8,0.1C212,70.3,212.3,70.4,212.5,70.6z
		 M201.6,63.3L201.6,63.3l0.4,0.2c0.2,0.1,0.4,0.3,0.6,0.5c0.2,0.2,0.3,0.5,0.4,0.7c0.1,0.3,0.1,0.5,0,0.8c0,0.3-0.1,0.5-0.3,0.8
		c-0.1,0.2-0.3,0.4-0.5,0.6c-0.2,0.2-0.5,0.3-0.7,0.4c-0.3,0.1-0.5,0.1-0.8,0c-0.3,0-0.5-0.1-0.8-0.3l-0.3-0.2l0,0
		c-0.2-0.1-0.4-0.3-0.6-0.5c-0.2-0.2-0.3-0.5-0.4-0.7c-0.1-0.3-0.1-0.5-0.1-0.8c0-0.3,0.1-0.5,0.3-0.8c0.1-0.2,0.3-0.4,0.5-0.6
		c0.2-0.2,0.5-0.3,0.7-0.4c0.3-0.1,0.5-0.1,0.8-0.1C201.2,63.1,201.4,63.2,201.6,63.3z M189.9,57.5l0.4,0.2c0.3,0.1,0.5,0.3,0.7,0.4
		c0.2,0.2,0.3,0.4,0.4,0.7c0.1,0.3,0.2,0.5,0.2,0.8c0,0.3-0.1,0.5-0.2,0.8c-0.1,0.3-0.3,0.5-0.4,0.7c-0.2,0.2-0.4,0.3-0.7,0.4
		c-0.3,0.1-0.5,0.2-0.8,0.2c-0.3,0-0.5-0.1-0.8-0.2l-0.4-0.2c-0.3-0.1-0.5-0.3-0.7-0.4c-0.2-0.2-0.3-0.4-0.4-0.7
		c-0.1-0.3-0.2-0.5-0.2-0.8c0-0.3,0.1-0.5,0.2-0.8c0.1-0.3,0.3-0.5,0.4-0.7c0.2-0.2,0.4-0.3,0.7-0.4c0.3-0.1,0.5-0.2,0.8-0.2
		C189.4,57.4,189.7,57.4,189.9,57.5z M177.6,53.3l0.4,0.1c0.3,0.1,0.5,0.2,0.7,0.4s0.4,0.4,0.5,0.6c0.1,0.2,0.2,0.5,0.3,0.8
		c0,0.3,0,0.5-0.1,0.8c-0.1,0.3-0.2,0.5-0.4,0.7c-0.2,0.2-0.4,0.4-0.6,0.5c-0.2,0.1-0.5,0.2-0.8,0.3c-0.3,0-0.5,0-0.8-0.1l-0.4-0.1
		c-0.3-0.1-0.5-0.2-0.7-0.4c-0.2-0.2-0.4-0.4-0.5-0.6c-0.1-0.2-0.2-0.5-0.3-0.8c0-0.3,0-0.5,0.1-0.8c0.1-0.3,0.2-0.5,0.4-0.7
		c0.2-0.2,0.4-0.4,0.6-0.5c0.2-0.1,0.5-0.2,0.8-0.3C177,53.2,177.3,53.2,177.6,53.3z M164.7,50.7l0.4,0.1c0.3,0,0.5,0.1,0.8,0.3
		c0.2,0.1,0.4,0.3,0.6,0.5c0.2,0.2,0.3,0.5,0.4,0.7c0.1,0.3,0.1,0.5,0,0.8c0,0.3-0.1,0.5-0.3,0.8c-0.1,0.2-0.3,0.4-0.5,0.6
		c-0.2,0.2-0.5,0.3-0.7,0.4c-0.3,0.1-0.5,0.1-0.8,0l-0.4-0.1c-0.3,0-0.5-0.1-0.8-0.3c-0.2-0.1-0.4-0.3-0.6-0.5
		c-0.2-0.2-0.3-0.5-0.4-0.7c-0.1-0.3-0.1-0.5,0-0.8c0-0.3,0.1-0.5,0.3-0.8c0.1-0.2,0.3-0.4,0.5-0.6c0.2-0.2,0.5-0.3,0.7-0.4
		C164.2,50.7,164.5,50.7,164.7,50.7z M151.7,49.8l0.4,0c0.3,0,0.5,0.1,0.8,0.2c0.3,0.1,0.5,0.3,0.7,0.4c0.2,0.2,0.3,0.4,0.4,0.7
		c0.1,0.3,0.2,0.5,0.2,0.8c0,0.3-0.1,0.5-0.2,0.8c-0.1,0.3-0.3,0.5-0.4,0.7c-0.2,0.2-0.4,0.3-0.7,0.4c-0.3,0.1-0.5,0.2-0.8,0.2
		l-0.4,0c-0.3,0-0.5-0.1-0.8-0.2c-0.3-0.1-0.5-0.3-0.7-0.4s-0.3-0.4-0.4-0.7c-0.1-0.3-0.2-0.5-0.2-0.8c0-0.3,0.1-0.5,0.2-0.8
		c0.1-0.3,0.3-0.5,0.4-0.7c0.2-0.2,0.4-0.3,0.7-0.4C151.2,49.9,151.5,49.8,151.7,49.8z M138.7,50.6l0.4-0.1c0.3,0,0.5,0,0.8,0.1
		c0.3,0.1,0.5,0.2,0.7,0.4c0.2,0.2,0.4,0.4,0.5,0.6c0.1,0.2,0.2,0.5,0.3,0.8c0,0.3,0,0.5-0.1,0.8c-0.1,0.3-0.2,0.5-0.4,0.7
		c-0.2,0.2-0.4,0.4-0.6,0.5c-0.2,0.1-0.5,0.2-0.8,0.3l-0.4,0.1c-0.3,0-0.5,0-0.8-0.1c-0.3-0.1-0.5-0.2-0.7-0.4
		c-0.2-0.2-0.4-0.4-0.5-0.6c-0.1-0.2-0.2-0.5-0.3-0.8c0-0.3,0-0.5,0.1-0.8c0.1-0.3,0.2-0.5,0.4-0.7c0.2-0.2,0.4-0.4,0.6-0.5
		C138.2,50.8,138.5,50.7,138.7,50.6z M125.9,53.2l0.4-0.1c0.3-0.1,0.5-0.1,0.8,0c0.3,0,0.5,0.1,0.8,0.3c0.2,0.1,0.4,0.3,0.6,0.5
		c0.2,0.2,0.3,0.5,0.4,0.7c0.1,0.3,0.1,0.5,0,0.8c0,0.3-0.1,0.5-0.3,0.8c-0.1,0.2-0.3,0.4-0.5,0.6c-0.2,0.2-0.5,0.3-0.7,0.4
		l-0.4,0.1c-0.3,0.1-0.5,0.1-0.8,0c-0.3,0-0.5-0.1-0.8-0.3c-0.2-0.1-0.4-0.3-0.6-0.5c-0.2-0.2-0.3-0.5-0.4-0.7
		c-0.1-0.3-0.1-0.5,0-0.8c0-0.3,0.1-0.5,0.3-0.8c0.1-0.2,0.3-0.4,0.5-0.6C125.4,53.4,125.6,53.2,125.9,53.2z M113.5,57.3l0.4-0.2
		c0.3-0.1,0.5-0.2,0.8-0.2s0.5,0.1,0.8,0.2c0.3,0.1,0.5,0.3,0.7,0.4c0.2,0.2,0.3,0.4,0.4,0.7c0.1,0.3,0.2,0.5,0.2,0.8
		c0,0.3-0.1,0.5-0.2,0.8c-0.1,0.3-0.3,0.5-0.4,0.7c-0.2,0.2-0.4,0.3-0.7,0.4l-0.4,0.2c-0.3,0.1-0.5,0.2-0.8,0.2
		c-0.3,0-0.5-0.1-0.8-0.2c-0.3-0.1-0.5-0.3-0.7-0.4c-0.2-0.2-0.3-0.4-0.4-0.7c-0.1-0.3-0.2-0.5-0.2-0.8c0-0.3,0.1-0.5,0.2-0.8
		c0.1-0.3,0.3-0.5,0.4-0.7C113,57.6,113.3,57.4,113.5,57.3z M101.8,63.1l0.4-0.2c0.2-0.1,0.5-0.2,0.8-0.3c0.3,0,0.5,0,0.8,0.1
		c0.3,0.1,0.5,0.2,0.7,0.4c0.2,0.2,0.4,0.4,0.5,0.6c0.1,0.2,0.2,0.5,0.3,0.8c0,0.3,0,0.5-0.1,0.8c-0.1,0.3-0.2,0.5-0.4,0.7
		c-0.2,0.2-0.4,0.4-0.6,0.5l-0.4,0.2c-0.2,0.1-0.5,0.2-0.8,0.3c-0.3,0-0.5,0-0.8-0.1c-0.3-0.1-0.5-0.2-0.7-0.4
		c-0.2-0.2-0.4-0.4-0.5-0.6c-0.1-0.2-0.2-0.5-0.3-0.8c0-0.3,0-0.5,0.1-0.8c0.1-0.3,0.2-0.5,0.4-0.7
		C101.3,63.4,101.5,63.2,101.8,63.1z M90.9,70.3l0.3-0.3c0.2-0.2,0.5-0.3,0.7-0.4c0.3-0.1,0.5-0.1,0.8,0s0.5,0.1,0.8,0.3
		c0.2,0.1,0.4,0.3,0.6,0.5c0.2,0.2,0.3,0.5,0.4,0.7c0.1,0.3,0.1,0.5,0,0.8c0,0.3-0.1,0.5-0.3,0.8c-0.1,0.2-0.3,0.4-0.5,0.6l-0.3,0.3
		c-0.2,0.2-0.5,0.3-0.7,0.4c-0.3,0.1-0.5,0.1-0.8,0c-0.3,0-0.5-0.1-0.8-0.3c-0.2-0.1-0.4-0.3-0.6-0.5c-0.2-0.2-0.3-0.5-0.4-0.7
		c-0.1-0.3-0.1-0.5,0-0.8c0-0.3,0.1-0.5,0.3-0.8C90.5,70.7,90.7,70.5,90.9,70.3z M81,78.9l0.3-0.3c0.2-0.2,0.4-0.3,0.7-0.4
		c0.3-0.1,0.5-0.2,0.8-0.2c0.3,0,0.5,0.1,0.8,0.2c0.3,0.1,0.5,0.3,0.7,0.4c0.2,0.2,0.3,0.4,0.4,0.7c0.1,0.3,0.2,0.5,0.2,0.8
		c0,0.3-0.1,0.5-0.2,0.8c-0.1,0.3-0.3,0.5-0.4,0.7l-0.3,0.3c-0.2,0.2-0.4,0.3-0.7,0.4c-0.3,0.1-0.5,0.2-0.8,0.2
		c-0.3,0-0.5-0.1-0.8-0.2c-0.3-0.1-0.5-0.3-0.7-0.4c-0.2-0.2-0.3-0.4-0.4-0.7c-0.1-0.3-0.2-0.5-0.2-0.8c0-0.3,0.1-0.5,0.2-0.8
		C80.7,79.3,80.9,79.1,81,78.9z M72.4,88.8l0.3-0.3c0.2-0.2,0.4-0.4,0.6-0.5c0.2-0.1,0.5-0.2,0.8-0.3c0.3,0,0.5,0,0.8,0.1
		c0.3,0.1,0.5,0.2,0.7,0.4c0.2,0.2,0.4,0.4,0.5,0.6s0.2,0.5,0.3,0.8c0,0.3,0,0.5-0.1,0.8c-0.1,0.3-0.2,0.5-0.4,0.7l-0.3,0.3
		c-0.2,0.2-0.4,0.4-0.6,0.5c-0.2,0.1-0.5,0.2-0.8,0.3c-0.3,0-0.5,0-0.8-0.1c-0.3-0.1-0.5-0.2-0.7-0.4c-0.2-0.2-0.4-0.4-0.5-0.6
		c-0.1-0.2-0.2-0.5-0.3-0.8c0-0.3,0-0.5,0.1-0.8C72.1,89.2,72.2,89,72.4,88.8z M65.1,99.6l0.2-0.4c0.1-0.2,0.3-0.4,0.5-0.6
		c0.2-0.2,0.5-0.3,0.7-0.4s0.5-0.1,0.8,0c0.3,0,0.5,0.1,0.8,0.3c0.2,0.1,0.4,0.3,0.6,0.5c0.2,0.2,0.3,0.5,0.4,0.7
		c0.1,0.3,0.1,0.5,0,0.8c0,0.3-0.1,0.5-0.3,0.8l-0.2,0.4c-0.1,0.2-0.3,0.4-0.5,0.6c-0.2,0.2-0.5,0.3-0.7,0.4c-0.3,0.1-0.5,0.1-0.8,0
		c-0.3,0-0.5-0.1-0.8-0.3c-0.2-0.1-0.4-0.3-0.6-0.5c-0.2-0.2-0.3-0.5-0.4-0.7c-0.1-0.3-0.1-0.5,0-0.8C64.9,100.1,65,99.8,65.1,99.6z
		 M59.3,111.3l0.2-0.4c0.1-0.3,0.3-0.5,0.4-0.7c0.2-0.2,0.4-0.3,0.7-0.4c0.3-0.1,0.5-0.2,0.8-0.2c0.3,0,0.5,0.1,0.8,0.2
		c0.3,0.1,0.5,0.3,0.7,0.4c0.2,0.2,0.3,0.4,0.4,0.7c0.1,0.3,0.2,0.5,0.2,0.8c0,0.3-0.1,0.5-0.2,0.8l-0.2,0.4
		c-0.1,0.3-0.3,0.5-0.4,0.7c-0.2,0.2-0.4,0.3-0.7,0.4c-0.3,0.1-0.5,0.2-0.8,0.2c-0.3,0-0.5-0.1-0.8-0.2c-0.3-0.1-0.5-0.3-0.7-0.4
		c-0.2-0.2-0.3-0.4-0.4-0.7c-0.1-0.3-0.2-0.5-0.2-0.8C59.2,111.8,59.2,111.6,59.3,111.3z M55.1,123.7l0.1-0.4
		c0.1-0.3,0.2-0.5,0.4-0.7c0.2-0.2,0.4-0.4,0.6-0.5c0.2-0.1,0.5-0.2,0.8-0.3c0.3,0,0.5,0,0.8,0.1c0.3,0.1,0.5,0.2,0.7,0.4
		c0.2,0.2,0.4,0.4,0.5,0.6c0.1,0.2,0.2,0.5,0.3,0.8c0,0.3,0,0.5-0.1,0.8l-0.1,0.4c-0.1,0.3-0.2,0.5-0.4,0.7
		c-0.2,0.2-0.4,0.4-0.6,0.5c-0.2,0.1-0.5,0.2-0.8,0.3c-0.3,0-0.5,0-0.8-0.1c-0.3-0.1-0.5-0.2-0.7-0.4c-0.2-0.2-0.4-0.4-0.5-0.6
		c-0.1-0.2-0.2-0.5-0.3-0.8C55,124.2,55,124,55.1,123.7z M52.5,136.5l0.1-0.4c0-0.3,0.1-0.5,0.3-0.8c0.1-0.2,0.3-0.4,0.5-0.6
		c0.2-0.2,0.5-0.3,0.7-0.4s0.5-0.1,0.8,0c0.3,0,0.5,0.1,0.8,0.3c0.2,0.1,0.4,0.3,0.6,0.5c0.2,0.2,0.3,0.5,0.4,0.7
		c0.1,0.3,0.1,0.5,0,0.8l-0.1,0.4c0,0.3-0.1,0.5-0.3,0.8c-0.1,0.2-0.3,0.4-0.5,0.6c-0.2,0.2-0.5,0.3-0.7,0.4c-0.3,0.1-0.5,0.1-0.8,0
		c-0.3,0-0.5-0.1-0.8-0.3c-0.2-0.1-0.4-0.3-0.6-0.5c-0.2-0.2-0.3-0.5-0.4-0.7C52.5,137.1,52.5,136.8,52.5,136.5z M51.7,149.5l0-0.4
		c0-0.3,0.1-0.5,0.2-0.8c0.1-0.3,0.3-0.5,0.4-0.7c0.2-0.2,0.4-0.3,0.7-0.4c0.3-0.1,0.5-0.2,0.8-0.2c0.3,0,0.5,0.1,0.8,0.2
		c0.3,0.1,0.5,0.3,0.7,0.4c0.2,0.2,0.3,0.4,0.4,0.7c0.1,0.3,0.2,0.5,0.2,0.8l0,0.4c0,0.3-0.1,0.5-0.2,0.8c-0.1,0.3-0.3,0.5-0.4,0.7
		c-0.2,0.2-0.4,0.3-0.7,0.4c-0.3,0.1-0.5,0.2-0.8,0.2c-0.3,0-0.5-0.1-0.8-0.2c-0.3-0.1-0.5-0.3-0.7-0.4c-0.2-0.2-0.3-0.4-0.4-0.7
		C51.7,150.1,51.7,149.8,51.7,149.5z M52.5,162.5l-0.1-0.4c0-0.3,0-0.5,0.1-0.8c0.1-0.3,0.2-0.5,0.4-0.7c0.2-0.2,0.4-0.4,0.6-0.5
		c0.2-0.1,0.5-0.2,0.8-0.3c0.3,0,0.5,0,0.8,0.1c0.3,0.1,0.5,0.2,0.7,0.4c0.2,0.2,0.4,0.4,0.5,0.6c0.1,0.2,0.2,0.5,0.3,0.8l0.1,0.4
		c0,0.3,0,0.5-0.1,0.8c-0.1,0.3-0.2,0.5-0.4,0.7c-0.2,0.2-0.4,0.4-0.6,0.5c-0.2,0.1-0.5,0.2-0.8,0.3c-0.3,0-0.5,0-0.8-0.1
		c-0.3-0.1-0.5-0.2-0.7-0.4c-0.2-0.2-0.4-0.4-0.5-0.6C52.6,163.1,52.5,162.8,52.5,162.5z M55,175.4l-0.1-0.4c-0.1-0.3-0.1-0.5,0-0.8
		c0-0.3,0.1-0.5,0.3-0.8c0.1-0.2,0.3-0.4,0.5-0.6c0.2-0.2,0.5-0.3,0.7-0.4c0.3-0.1,0.5-0.1,0.8,0c0.3,0,0.5,0.1,0.8,0.3
		c0.2,0.1,0.4,0.3,0.6,0.5c0.2,0.2,0.3,0.5,0.4,0.7l0.1,0.4c0.1,0.3,0.1,0.5,0,0.8c0,0.3-0.1,0.5-0.3,0.8c-0.1,0.2-0.3,0.4-0.5,0.6
		c-0.2,0.2-0.5,0.3-0.7,0.4c-0.3,0.1-0.5,0.1-0.8,0s-0.5-0.1-0.8-0.3c-0.2-0.1-0.4-0.3-0.6-0.5C55.2,175.9,55.1,175.6,55,175.4z
		 M59.2,187.8l-0.2-0.4c-0.1-0.3-0.2-0.5-0.2-0.8c0-0.3,0.1-0.5,0.2-0.8c0.1-0.3,0.3-0.5,0.4-0.7c0.2-0.2,0.4-0.3,0.7-0.4
		c0.3-0.1,0.5-0.2,0.8-0.2c0.3,0,0.5,0.1,0.8,0.2c0.3,0.1,0.5,0.3,0.7,0.4c0.2,0.2,0.3,0.4,0.4,0.7l0.2,0.4c0.1,0.3,0.2,0.5,0.2,0.8
		s-0.1,0.5-0.2,0.8c-0.1,0.3-0.3,0.5-0.4,0.7c-0.2,0.2-0.4,0.3-0.7,0.4c-0.3,0.1-0.5,0.2-0.8,0.2c-0.3,0-0.5-0.1-0.8-0.2
		c-0.3-0.1-0.5-0.3-0.7-0.4C59.5,188.2,59.3,188,59.2,187.8z M65,199.5L65,199.5l-0.2-0.4c-0.1-0.2-0.2-0.5-0.3-0.8
		c0-0.3,0-0.5,0.1-0.8c0.1-0.3,0.2-0.5,0.4-0.7c0.2-0.2,0.4-0.4,0.6-0.5c0.2-0.1,0.5-0.2,0.8-0.3c0.3,0,0.5,0,0.8,0.1
		c0.3,0.1,0.5,0.2,0.7,0.4c0.2,0.2,0.4,0.4,0.5,0.6l0.2,0.3l0,0c0.1,0.2,0.2,0.5,0.3,0.8c0,0.3,0,0.5-0.1,0.8
		c-0.1,0.3-0.2,0.5-0.4,0.7c-0.2,0.2-0.4,0.4-0.6,0.5c-0.2,0.1-0.5,0.2-0.8,0.3c-0.3,0-0.5,0-0.8-0.1c-0.3-0.1-0.5-0.2-0.7-0.4
		C65.3,199.9,65.1,199.7,65,199.5z M72.2,210.4L72,210c-0.2-0.2-0.3-0.5-0.4-0.7c-0.1-0.3-0.1-0.5,0-0.8c0-0.3,0.1-0.5,0.3-0.8
		c0.1-0.2,0.3-0.4,0.5-0.6c0.2-0.2,0.5-0.3,0.7-0.4c0.3-0.1,0.5-0.1,0.8,0c0.3,0,0.5,0.1,0.8,0.3c0.2,0.1,0.4,0.3,0.6,0.5l0.3,0.3
		c0.2,0.2,0.3,0.5,0.4,0.7c0.1,0.3,0.1,0.5,0,0.8c0,0.3-0.1,0.5-0.3,0.8c-0.1,0.2-0.3,0.4-0.5,0.6c-0.2,0.2-0.5,0.3-0.7,0.4
		c-0.3,0.1-0.5,0.1-0.8,0c-0.3,0-0.5-0.1-0.8-0.3C72.6,210.8,72.4,210.6,72.2,210.4z M80.8,220.2l-0.3-0.3c-0.2-0.2-0.3-0.4-0.4-0.7
		c-0.1-0.3-0.2-0.5-0.2-0.8s0.1-0.5,0.2-0.8c0.1-0.3,0.3-0.5,0.4-0.7c0.2-0.2,0.4-0.3,0.7-0.4c0.3-0.1,0.5-0.2,0.8-0.2
		c0.3,0,0.5,0.1,0.8,0.2c0.3,0.1,0.5,0.3,0.7,0.4l0.3,0.3c0.2,0.2,0.3,0.4,0.4,0.7c0.1,0.3,0.2,0.5,0.2,0.8c0,0.3-0.1,0.5-0.2,0.8
		c-0.1,0.3-0.3,0.5-0.4,0.7c-0.2,0.2-0.4,0.3-0.7,0.4c-0.3,0.1-0.5,0.2-0.8,0.2c-0.3,0-0.5-0.1-0.8-0.2S81,220.4,80.8,220.2z
		 M90.7,228.8l-0.3-0.3c-0.2-0.2-0.4-0.4-0.5-0.6c-0.1-0.2-0.2-0.5-0.3-0.8c0-0.3,0-0.5,0.1-0.8c0.1-0.3,0.2-0.5,0.4-0.7
		c0.2-0.2,0.4-0.4,0.6-0.5c0.2-0.1,0.5-0.2,0.8-0.3c0.3,0,0.5,0,0.8,0.1c0.3,0.1,0.5,0.2,0.7,0.4l0.3,0.3c0.2,0.2,0.4,0.4,0.5,0.6
		c0.1,0.2,0.2,0.5,0.3,0.8c0,0.3,0,0.5-0.1,0.8c-0.1,0.3-0.2,0.5-0.4,0.7c-0.2,0.2-0.4,0.4-0.6,0.5c-0.2,0.1-0.5,0.2-0.8,0.3
		c-0.3,0-0.5,0-0.8-0.1C91.1,229.1,90.9,229,90.7,228.8z M101.5,236.1l-0.4-0.2c-0.2-0.1-0.4-0.3-0.6-0.5c-0.2-0.2-0.3-0.5-0.4-0.7
		c-0.1-0.3-0.1-0.5-0.1-0.8c0-0.3,0.1-0.5,0.3-0.8c0.1-0.2,0.3-0.4,0.5-0.6c0.2-0.2,0.5-0.3,0.7-0.4c0.3-0.1,0.5-0.1,0.8-0.1
		c0.3,0,0.5,0.1,0.8,0.3l0.4,0.2c0.2,0.1,0.4,0.3,0.6,0.5c0.2,0.2,0.3,0.5,0.4,0.7c0.1,0.3,0.1,0.5,0.1,0.8c0,0.3-0.1,0.5-0.3,0.8
		s-0.3,0.4-0.5,0.6c-0.2,0.2-0.5,0.3-0.7,0.4c-0.3,0.1-0.5,0.1-0.8,0C102,236.3,101.8,236.2,101.5,236.1z M113.2,241.9l-0.4-0.2
		c-0.3-0.1-0.5-0.3-0.7-0.4c-0.2-0.2-0.3-0.4-0.4-0.7c-0.1-0.3-0.2-0.5-0.2-0.8c0-0.3,0.1-0.5,0.2-0.8c0.1-0.3,0.3-0.5,0.4-0.7
		c0.2-0.2,0.4-0.3,0.7-0.4c0.3-0.1,0.5-0.2,0.8-0.2c0.3,0,0.5,0.1,0.8,0.2l0.4,0.2c0.3,0.1,0.5,0.3,0.7,0.4c0.2,0.2,0.3,0.4,0.4,0.7
		c0.1,0.3,0.2,0.5,0.2,0.8c0,0.3-0.1,0.5-0.2,0.8s-0.3,0.5-0.4,0.7c-0.2,0.2-0.4,0.3-0.7,0.4c-0.3,0.1-0.5,0.2-0.8,0.2
		C113.7,242,113.5,242,113.2,241.9z M125.6,246.1l-0.4-0.1c-0.3-0.1-0.5-0.2-0.7-0.4c-0.2-0.2-0.4-0.4-0.5-0.6
		c-0.1-0.2-0.2-0.5-0.3-0.8c0-0.3,0-0.5,0.1-0.8c0.1-0.3,0.2-0.5,0.4-0.7c0.2-0.2,0.4-0.4,0.6-0.5c0.2-0.1,0.5-0.2,0.8-0.3
		c0.3,0,0.5,0,0.8,0.1l0.4,0.1c0.3,0.1,0.5,0.2,0.7,0.4c0.2,0.2,0.4,0.4,0.5,0.6s0.2,0.5,0.3,0.8c0,0.3,0,0.5-0.1,0.8
		c-0.1,0.3-0.2,0.5-0.4,0.7c-0.2,0.2-0.4,0.4-0.6,0.5c-0.2,0.1-0.5,0.2-0.8,0.3C126.1,246.2,125.9,246.2,125.6,246.1z M138.4,248.7
		l-0.4-0.1c-0.3,0-0.5-0.1-0.8-0.3s-0.4-0.3-0.6-0.5c-0.2-0.2-0.3-0.5-0.4-0.7c-0.1-0.3-0.1-0.5-0.1-0.8c0-0.3,0.1-0.5,0.3-0.8
		c0.1-0.2,0.3-0.4,0.5-0.6c0.2-0.2,0.5-0.3,0.7-0.4c0.3-0.1,0.5-0.1,0.8-0.1l0.4,0.1c0.3,0,0.5,0.1,0.8,0.3c0.2,0.1,0.4,0.3,0.6,0.5
		c0.2,0.2,0.3,0.5,0.4,0.7c0.1,0.3,0.1,0.5,0.1,0.8c0,0.3-0.1,0.5-0.3,0.8c-0.1,0.2-0.3,0.4-0.5,0.6c-0.2,0.2-0.5,0.3-0.7,0.4
		C139,248.7,138.7,248.7,138.4,248.7z M151.4,249.5l-0.4,0c-0.3,0-0.5-0.1-0.8-0.2c-0.3-0.1-0.5-0.3-0.7-0.4
		c-0.2-0.2-0.3-0.4-0.4-0.7c-0.1-0.3-0.2-0.5-0.2-0.8c0-0.3,0.1-0.5,0.2-0.8c0.1-0.3,0.3-0.5,0.4-0.7c0.2-0.2,0.4-0.3,0.7-0.4
		c0.3-0.1,0.5-0.2,0.8-0.2l0.4,0c0.3,0,0.5,0.1,0.8,0.2c0.3,0.1,0.5,0.3,0.7,0.4c0.2,0.2,0.3,0.4,0.4,0.7c0.1,0.3,0.2,0.5,0.2,0.8
		c0,0.3-0.1,0.5-0.2,0.8c-0.1,0.3-0.3,0.5-0.4,0.7c-0.2,0.2-0.4,0.3-0.7,0.4C152,249.5,151.7,249.5,151.4,249.5z M164.4,248.7
		l-0.4,0.1c-0.3,0-0.5,0-0.8-0.1c-0.3-0.1-0.5-0.2-0.7-0.4c-0.2-0.2-0.4-0.4-0.5-0.6c-0.1-0.2-0.2-0.5-0.3-0.8c0-0.3,0-0.5,0.1-0.8
		c0.1-0.3,0.2-0.5,0.4-0.7c0.2-0.2,0.4-0.4,0.6-0.5c0.2-0.1,0.5-0.2,0.8-0.3l0.4-0.1c0.3,0,0.5,0,0.8,0.1c0.3,0.1,0.5,0.2,0.7,0.4
		c0.2,0.2,0.4,0.4,0.5,0.6c0.1,0.2,0.2,0.5,0.3,0.8c0,0.3,0,0.5-0.1,0.8c-0.1,0.3-0.2,0.5-0.4,0.7c-0.2,0.2-0.4,0.4-0.6,0.5
		C165,248.6,164.7,248.6,164.4,248.7z M177.3,246.1l-0.4,0.1c-0.3,0.1-0.5,0.1-0.8,0c-0.3,0-0.5-0.1-0.8-0.3
		c-0.2-0.1-0.4-0.3-0.6-0.5c-0.2-0.2-0.3-0.5-0.4-0.7c-0.1-0.3-0.1-0.5,0-0.8c0-0.3,0.1-0.5,0.3-0.8c0.1-0.2,0.3-0.4,0.5-0.6
		c0.2-0.2,0.5-0.3,0.7-0.4l0.4-0.1c0.3-0.1,0.5-0.1,0.8,0c0.3,0,0.5,0.1,0.8,0.3c0.2,0.1,0.4,0.3,0.6,0.5c0.2,0.2,0.3,0.5,0.4,0.7
		c0.1,0.3,0.1,0.5,0,0.8c0,0.3-0.1,0.5-0.3,0.8c-0.1,0.2-0.3,0.4-0.5,0.6C177.8,246,177.5,246.1,177.3,246.1z M189.7,242l-0.4,0.2
		c-0.3,0.1-0.5,0.2-0.8,0.2c-0.3,0-0.5-0.1-0.8-0.2c-0.3-0.1-0.5-0.3-0.7-0.4c-0.2-0.2-0.3-0.4-0.4-0.7c-0.1-0.3-0.2-0.5-0.2-0.8
		c0-0.3,0.1-0.5,0.2-0.8c0.1-0.3,0.3-0.5,0.4-0.7c0.2-0.2,0.4-0.3,0.7-0.4l0.4-0.2c0.3-0.1,0.5-0.2,0.8-0.2c0.3,0,0.5,0.1,0.8,0.2
		c0.3,0.1,0.5,0.3,0.7,0.4c0.2,0.2,0.3,0.4,0.4,0.7c0.1,0.3,0.2,0.5,0.2,0.8c0,0.3-0.1,0.5-0.2,0.8c-0.1,0.3-0.3,0.5-0.4,0.7
		C190.1,241.7,189.9,241.8,189.7,242z M201.4,236.2l-0.4,0.2c-0.2,0.1-0.5,0.2-0.8,0.3c-0.3,0-0.5,0-0.8-0.1
		c-0.3-0.1-0.5-0.2-0.7-0.4c-0.2-0.2-0.4-0.4-0.5-0.6c-0.1-0.2-0.2-0.5-0.3-0.8c0-0.3,0-0.5,0.1-0.8c0.1-0.3,0.2-0.5,0.4-0.7
		c0.2-0.2,0.4-0.4,0.6-0.5l0.4-0.2c0.2-0.1,0.5-0.2,0.8-0.3c0.3,0,0.5,0,0.8,0.1c0.3,0.1,0.5,0.2,0.7,0.4c0.2,0.2,0.4,0.4,0.5,0.6
		c0.1,0.2,0.2,0.5,0.3,0.8c0,0.3,0,0.5-0.1,0.8c-0.1,0.3-0.2,0.5-0.4,0.7C201.8,235.9,201.6,236,201.4,236.2z M212.3,228.9l-0.3,0.3
		c-0.2,0.2-0.5,0.3-0.7,0.4c-0.3,0.1-0.5,0.1-0.8,0.1c-0.3,0-0.5-0.1-0.8-0.3c-0.2-0.1-0.4-0.3-0.6-0.5c-0.2-0.2-0.3-0.5-0.4-0.7
		c-0.1-0.3-0.1-0.5-0.1-0.8c0-0.3,0.1-0.5,0.3-0.8c0.1-0.2,0.3-0.4,0.5-0.6l0.3-0.3c0.2-0.2,0.5-0.3,0.7-0.4
		c0.3-0.1,0.5-0.1,0.8-0.1c0.3,0,0.5,0.1,0.8,0.3c0.2,0.1,0.4,0.3,0.6,0.5c0.2,0.2,0.3,0.5,0.4,0.7c0.1,0.3,0.1,0.5,0.1,0.8
		c0,0.3-0.1,0.5-0.3,0.8C212.7,228.6,212.5,228.8,212.3,228.9z M222.1,220.3l-0.3,0.3c-0.2,0.2-0.4,0.3-0.7,0.4
		c-0.3,0.1-0.5,0.2-0.8,0.2c-0.3,0-0.5-0.1-0.8-0.2c-0.3-0.1-0.5-0.3-0.7-0.4c-0.2-0.2-0.3-0.4-0.4-0.7c-0.1-0.3-0.2-0.5-0.2-0.8
		c0-0.3,0.1-0.5,0.2-0.8c0.1-0.3,0.3-0.5,0.4-0.7l0.3-0.3c0.2-0.2,0.4-0.3,0.7-0.4c0.3-0.1,0.5-0.2,0.8-0.2c0.3,0,0.5,0.1,0.8,0.2
		c0.3,0.1,0.5,0.3,0.7,0.4c0.2,0.2,0.3,0.4,0.4,0.7c0.1,0.3,0.2,0.5,0.2,0.8c0,0.3-0.1,0.5-0.2,0.8
		C222.4,219.9,222.3,220.1,222.1,220.3z M230.7,210.5l-0.3,0.3c-0.2,0.2-0.4,0.4-0.6,0.5c-0.2,0.1-0.5,0.2-0.8,0.3
		c-0.3,0-0.5,0-0.8-0.1c-0.3-0.1-0.5-0.2-0.7-0.4c-0.2-0.2-0.4-0.4-0.5-0.6c-0.1-0.2-0.2-0.5-0.3-0.8c0-0.3,0-0.5,0.1-0.8
		c0.1-0.3,0.2-0.5,0.4-0.7l0.3-0.3c0.2-0.2,0.4-0.4,0.6-0.5c0.2-0.1,0.5-0.2,0.8-0.3s0.5,0,0.8,0.1c0.3,0.1,0.5,0.2,0.7,0.4
		c0.2,0.2,0.4,0.4,0.5,0.6c0.1,0.2,0.2,0.5,0.3,0.8c0,0.3,0,0.5-0.1,0.8C231,210,230.9,210.3,230.7,210.5z M238,199.6l-0.2,0.4
		c-0.1,0.2-0.3,0.4-0.5,0.6c-0.2,0.2-0.5,0.3-0.7,0.4c-0.3,0.1-0.5,0.1-0.8,0.1c-0.3,0-0.5-0.1-0.8-0.3c-0.2-0.1-0.4-0.3-0.6-0.5
		c-0.2-0.2-0.3-0.5-0.4-0.7c-0.1-0.3-0.1-0.5-0.1-0.8c0-0.3,0.1-0.5,0.3-0.8l0.2-0.4c0.1-0.2,0.3-0.4,0.5-0.6
		c0.2-0.2,0.5-0.3,0.7-0.4c0.3-0.1,0.5-0.1,0.8-0.1c0.3,0,0.5,0.1,0.8,0.3c0.2,0.1,0.4,0.3,0.6,0.5c0.2,0.2,0.3,0.5,0.4,0.7
		c0.1,0.3,0.1,0.5,0.1,0.8S238.1,199.4,238,199.6z M243.8,187.9l-0.2,0.4c-0.1,0.3-0.3,0.5-0.4,0.7c-0.2,0.2-0.4,0.3-0.7,0.4
		c-0.3,0.1-0.5,0.2-0.8,0.2s-0.5-0.1-0.8-0.2c-0.3-0.1-0.5-0.3-0.7-0.4c-0.2-0.2-0.3-0.4-0.4-0.7c-0.1-0.3-0.2-0.5-0.2-0.8
		c0-0.3,0.1-0.5,0.2-0.8l0.2-0.4c0.1-0.3,0.3-0.5,0.4-0.7c0.2-0.2,0.4-0.3,0.7-0.4c0.3-0.1,0.5-0.2,0.8-0.2c0.3,0,0.5,0.1,0.8,0.2
		c0.3,0.1,0.5,0.3,0.7,0.4c0.2,0.2,0.3,0.4,0.4,0.7c0.1,0.3,0.2,0.5,0.2,0.8C243.9,187.4,243.9,187.6,243.8,187.9z M248,175.5
		l-0.1,0.4c-0.1,0.3-0.2,0.5-0.4,0.7c-0.2,0.2-0.4,0.4-0.6,0.5c-0.2,0.1-0.5,0.2-0.8,0.3c-0.3,0-0.5,0-0.8-0.1
		c-0.3-0.1-0.5-0.2-0.7-0.4c-0.2-0.2-0.4-0.4-0.5-0.6c-0.1-0.2-0.2-0.5-0.3-0.8s0-0.5,0.1-0.8l0.1-0.4c0.1-0.3,0.2-0.5,0.4-0.7
		c0.2-0.2,0.4-0.4,0.6-0.5c0.2-0.1,0.5-0.2,0.8-0.3c0.3,0,0.5,0,0.8,0.1s0.5,0.2,0.7,0.4c0.2,0.2,0.4,0.4,0.5,0.6
		c0.1,0.2,0.2,0.5,0.3,0.8C248.1,175,248,175.3,248,175.5z M250.5,162.7l-0.1,0.4c0,0.3-0.1,0.5-0.3,0.8c-0.1,0.2-0.3,0.4-0.5,0.6
		c-0.2,0.2-0.5,0.3-0.7,0.4c-0.3,0.1-0.5,0.1-0.8,0.1c-0.3,0-0.5-0.1-0.8-0.3c-0.2-0.1-0.4-0.3-0.6-0.5s-0.3-0.5-0.4-0.7
		c-0.1-0.3-0.1-0.5-0.1-0.8l0.1-0.4c0-0.3,0.1-0.5,0.3-0.8c0.1-0.2,0.3-0.4,0.5-0.6c0.2-0.2,0.5-0.3,0.7-0.4
		c0.3-0.1,0.5-0.1,0.8-0.1c0.3,0,0.5,0.1,0.8,0.3c0.2,0.1,0.4,0.3,0.6,0.5c0.2,0.2,0.3,0.5,0.4,0.7
		C250.5,162.1,250.6,162.4,250.5,162.7z"/>
	<rect x="51.7" y="112.3" class="st2" width="199.7" height="137.2"/>
	<path class="st3" d="M254.2,300.8c-38.7,0-70.1,31.4-70.1,70.1s31.4,70.1,70.1,70.1c38.7,0,70.1-31.4,70.1-70.1
		S292.9,300.8,254.2,300.8z M254.2,307.9c34.8,0,63.1,28.3,63.1,63.1s-28.3,63.1-63.1,63.1s-63.1-28.3-63.1-63.1
		S219.4,307.9,254.2,307.9"/>
	<rect x="184" y="300.8" class="st2" width="92.3" height="140.3"/>
	<path class="st4" d="M219.7,335.4c0.6,0,1.2,0,1.8-0.1c0.6-0.1,1.2-0.1,1.8-0.3c0.6-0.1,1.2-0.3,1.8-0.4c0.6-0.2,1.2-0.4,1.7-0.6
		c0.6-0.2,1.1-0.5,1.6-0.8s1.1-0.6,1.6-0.9c0.5-0.3,1-0.7,1.5-1.1c0.5-0.4,0.9-0.8,1.4-1.2s0.8-0.9,1.2-1.4c0.4-0.5,0.7-1,1.1-1.5
		c0.3-0.5,0.7-1,0.9-1.6c0.3-0.5,0.5-1.1,0.8-1.6c0.2-0.6,0.4-1.1,0.6-1.7c0.2-0.6,0.3-1.2,0.4-1.8s0.2-1.2,0.3-1.8
		c0.1-0.6,0.1-1.2,0.1-1.8c0-0.6,0-1.2-0.1-1.8c-0.1-0.6-0.1-1.2-0.3-1.8s-0.3-1.2-0.4-1.8c-0.2-0.6-0.4-1.2-0.6-1.7
		c-0.2-0.6-0.5-1.1-0.8-1.6c-0.3-0.5-0.6-1.1-0.9-1.6c-0.3-0.5-0.7-1-1.1-1.5c-0.4-0.5-0.8-0.9-1.2-1.4s-0.9-0.8-1.4-1.2
		c-0.5-0.4-1-0.7-1.5-1.1c-0.5-0.3-1-0.7-1.6-0.9c-0.5-0.3-1.1-0.5-1.6-0.8c-0.6-0.2-1.1-0.4-1.7-0.6c-0.6-0.2-1.2-0.3-1.8-0.4
		c-0.6-0.1-1.2-0.2-1.8-0.3c-0.6-0.1-1.2-0.1-1.8-0.1s-1.2,0-1.8,0.1c-0.6,0.1-1.2,0.1-1.8,0.3c-0.6,0.1-1.2,0.3-1.8,0.4
		c-0.6,0.2-1.2,0.4-1.7,0.6c-0.6,0.2-1.1,0.5-1.6,0.8c-0.5,0.3-1.1,0.6-1.6,0.9c-0.5,0.3-1,0.7-1.5,1.1c-0.5,0.4-0.9,0.8-1.4,1.2
		c-0.4,0.4-0.8,0.9-1.2,1.4c-0.4,0.5-0.7,1-1.1,1.5c-0.3,0.5-0.7,1-0.9,1.6c-0.3,0.5-0.5,1.1-0.8,1.6c-0.2,0.6-0.4,1.1-0.6,1.7
		c-0.2,0.6-0.3,1.2-0.4,1.8c-0.1,0.6-0.2,1.2-0.3,1.8c-0.1,0.6-0.1,1.2-0.1,1.8c0,0.6,0,1.2,0.1,1.8c0.1,0.6,0.1,1.2,0.3,1.8
		c0.1,0.6,0.3,1.2,0.4,1.8c0.2,0.6,0.4,1.2,0.6,1.7c0.2,0.6,0.5,1.1,0.8,1.6c0.3,0.5,0.6,1.1,0.9,1.6c0.3,0.5,0.7,1,1.1,1.5
		c0.4,0.5,0.8,0.9,1.2,1.4c0.4,0.4,0.9,0.8,1.4,1.2c0.5,0.4,1,0.7,1.5,1.1c0.5,0.3,1,0.7,1.6,0.9c0.5,0.3,1.1,0.5,1.6,0.8
		c0.6,0.2,1.1,0.4,1.7,0.6c0.6,0.2,1.2,0.3,1.8,0.4c0.6,0.1,1.2,0.2,1.8,0.3C218.4,335.4,219,335.4,219.7,335.4z"/>
	<path class="st5" d="M98.4,268.2c0.6,0,1.3,0,1.9,0c0.6,0,1.3-0.1,1.9-0.1c0.6-0.1,1.3-0.1,1.9-0.2c0.6-0.1,1.2-0.2,1.9-0.3
		c0.6-0.1,1.2-0.3,1.9-0.4c0.6-0.2,1.2-0.3,1.8-0.5c0.6-0.2,1.2-0.4,1.8-0.6c0.6-0.2,1.2-0.4,1.8-0.7c0.6-0.2,1.2-0.5,1.7-0.8
		c0.6-0.3,1.1-0.6,1.7-0.9c0.6-0.3,1.1-0.6,1.7-0.9c0.5-0.3,1.1-0.7,1.6-1c0.5-0.4,1-0.7,1.6-1.1c0.5-0.4,1-0.8,1.5-1.2
		c0.5-0.4,1-0.8,1.4-1.2c0.5-0.4,0.9-0.9,1.4-1.3c0.4-0.4,0.9-0.9,1.3-1.4c0.4-0.5,0.8-0.9,1.2-1.4c0.4-0.5,0.8-1,1.2-1.5
		c0.4-0.5,0.7-1,1.1-1.6c0.4-0.5,0.7-1.1,1-1.6c0.3-0.5,0.6-1.1,0.9-1.7c0.3-0.6,0.6-1.1,0.9-1.7c0.3-0.6,0.5-1.2,0.8-1.7
		c0.2-0.6,0.5-1.2,0.7-1.8c0.2-0.6,0.4-1.2,0.6-1.8c0.2-0.6,0.4-1.2,0.5-1.8c0.2-0.6,0.3-1.2,0.4-1.9c0.1-0.6,0.2-1.2,0.3-1.9
		c0.1-0.6,0.2-1.3,0.2-1.9c0.1-0.6,0.1-1.3,0.1-1.9c0-0.6,0-1.3,0-1.9c0-0.6,0-1.3,0-1.9c0-0.6-0.1-1.3-0.1-1.9s-0.1-1.3-0.2-1.9
		c-0.1-0.6-0.2-1.3-0.3-1.9c-0.1-0.6-0.3-1.2-0.4-1.9c-0.2-0.6-0.3-1.2-0.5-1.8c-0.2-0.6-0.4-1.2-0.6-1.8c-0.2-0.6-0.4-1.2-0.7-1.8
		c-0.2-0.6-0.5-1.2-0.8-1.7c-0.3-0.6-0.6-1.1-0.9-1.7c-0.3-0.6-0.6-1.1-0.9-1.7c-0.3-0.5-0.7-1.1-1-1.6c-0.4-0.5-0.7-1-1.1-1.6
		c-0.4-0.5-0.8-1-1.2-1.5c-0.4-0.5-0.8-1-1.2-1.4c-0.4-0.5-0.9-0.9-1.3-1.4c-0.4-0.4-0.9-0.9-1.4-1.3c-0.5-0.4-0.9-0.8-1.4-1.2
		c-0.5-0.4-1-0.8-1.5-1.2c-0.5-0.4-1-0.7-1.6-1.1c-0.5-0.4-1.1-0.7-1.6-1s-1.1-0.6-1.7-0.9c-0.6-0.3-1.1-0.6-1.7-0.9
		c-0.6-0.3-1.2-0.5-1.7-0.8c-0.6-0.2-1.2-0.5-1.8-0.7c-0.6-0.2-1.2-0.4-1.8-0.6c-0.6-0.2-1.2-0.4-1.8-0.5c-0.6-0.2-1.2-0.3-1.9-0.4
		c-0.6-0.1-1.2-0.2-1.9-0.3c-0.6-0.1-1.3-0.2-1.9-0.2c-0.6-0.1-1.3-0.1-1.9-0.1c-0.6,0-1.3,0-1.9,0c-0.6,0-1.3,0-1.9,0
		c-0.6,0-1.3,0.1-1.9,0.1c-0.6,0.1-1.3,0.1-1.9,0.2c-0.6,0.1-1.3,0.2-1.9,0.3c-0.6,0.1-1.2,0.3-1.9,0.4c-0.6,0.2-1.2,0.3-1.8,0.5
		c-0.6,0.2-1.2,0.4-1.8,0.6c-0.6,0.2-1.2,0.4-1.8,0.7c-0.6,0.2-1.2,0.5-1.7,0.8c-0.6,0.3-1.1,0.6-1.7,0.9c-0.6,0.3-1.1,0.6-1.7,0.9
		c-0.5,0.3-1.1,0.7-1.6,1c-0.5,0.4-1,0.7-1.6,1.1c-0.5,0.4-1,0.8-1.5,1.2c-0.5,0.4-1,0.8-1.4,1.2c-0.5,0.4-0.9,0.9-1.4,1.3
		c-0.4,0.4-0.9,0.9-1.3,1.4c-0.4,0.5-0.8,0.9-1.2,1.4c-0.4,0.5-0.8,1-1.2,1.5c-0.4,0.5-0.7,1-1.1,1.6c-0.4,0.5-0.7,1.1-1,1.6
		c-0.3,0.5-0.6,1.1-0.9,1.7c-0.3,0.6-0.6,1.1-0.9,1.7c-0.3,0.6-0.5,1.2-0.8,1.7c-0.2,0.6-0.5,1.2-0.7,1.8c-0.2,0.6-0.4,1.2-0.6,1.8
		c-0.2,0.6-0.4,1.2-0.5,1.8c-0.2,0.6-0.3,1.2-0.4,1.9c-0.1,0.6-0.2,1.2-0.3,1.9c-0.1,0.6-0.2,1.3-0.2,1.9c-0.1,0.6-0.1,1.3-0.1,1.9
		c0,0.6,0,1.3,0,1.9c0,0.6,0,1.3,0,1.9c0,0.6,0.1,1.3,0.1,1.9c0.1,0.6,0.1,1.3,0.2,1.9c0.1,0.6,0.2,1.3,0.3,1.9
		c0.1,0.6,0.3,1.2,0.4,1.9c0.2,0.6,0.3,1.2,0.5,1.8c0.2,0.6,0.4,1.2,0.6,1.8c0.2,0.6,0.4,1.2,0.7,1.8c0.2,0.6,0.5,1.2,0.8,1.7
		c0.3,0.6,0.6,1.1,0.9,1.7c0.3,0.6,0.6,1.1,0.9,1.7c0.3,0.5,0.7,1.1,1,1.6c0.4,0.5,0.7,1,1.1,1.6c0.4,0.5,0.8,1,1.2,1.5
		c0.4,0.5,0.8,1,1.2,1.4c0.4,0.5,0.9,0.9,1.3,1.4c0.4,0.4,0.9,0.9,1.4,1.3c0.5,0.4,0.9,0.8,1.4,1.2c0.5,0.4,1,0.8,1.5,1.2
		c0.5,0.4,1,0.7,1.6,1.1c0.5,0.4,1.1,0.7,1.6,1c0.5,0.3,1.1,0.6,1.7,0.9c0.6,0.3,1.1,0.6,1.7,0.9s1.2,0.5,1.7,0.8
		c0.6,0.2,1.2,0.5,1.8,0.7s1.2,0.4,1.8,0.6c0.6,0.2,1.2,0.4,1.8,0.5c0.6,0.2,1.2,0.3,1.9,0.4c0.6,0.1,1.2,0.2,1.9,0.3
		c0.6,0.1,1.3,0.2,1.9,0.2c0.6,0.1,1.3,0.1,1.9,0.1C97.1,268.2,97.7,268.2,98.4,268.2z"/>
</g>
</svg>
