<?xml version="1.0" encoding="utf-8"?>
<!-- Generator: Adobe Illustrator 25.2.2, SVG Export Plug-In . SVG Version: 6.00 Build 0)  -->
<svg version="1.1" id="Layer_1" xmlns="http://www.w3.org/2000/svg" xmlns:xlink="http://www.w3.org/1999/xlink" x="0px" y="0px"
	 viewBox="0 0 376 788.3" style="enable-background:new 0 0 376 788.3;" xml:space="preserve">
<style type="text/css">
	.st0{fill:#FFC62F;}
	.st1{fill:#57CBF5;}
	.st2{fill:url(#SVGID_1_);}
	.st3{fill:#4AB513;}
	.st4{fill:#0E83CD;}
	.st5{fill:#D0112B;}
</style>
<circle class="st0" cx="171.5" cy="455.4" r="135.5"/>
<path class="st1" d="M194,208.9c-1,0-2,0-3,0.1c-1,0.1-2,0.2-3,0.4c-1,0.2-2,0.4-2.9,0.7c-1,0.3-1.9,0.6-2.9,1
	c-0.9,0.4-1.8,0.8-2.7,1.3c-0.9,0.5-1.8,1-2.6,1.6c-0.8,0.6-1.7,1.2-2.4,1.8c-0.8,0.6-1.5,1.3-2.2,2c-0.7,0.7-1.4,1.5-2,2.2
	c-0.6,0.8-1.2,1.6-1.8,2.4c-0.6,0.8-1.1,1.7-1.6,2.6c-0.5,0.9-0.9,1.8-1.3,2.7c-0.4,0.9-0.7,1.9-1,2.9c-0.3,1-0.5,1.9-0.7,2.9
	c-0.2,1-0.3,2-0.4,3c-0.1,1-0.1,2-0.1,3c0,1,0,2,0.1,3c0.1,1,0.2,2,0.4,3c0.2,1,0.4,2,0.7,2.9c0.3,1,0.6,1.9,1,2.9
	c0.4,0.9,0.8,1.8,1.3,2.7c0.5,0.9,1,1.8,1.6,2.6c0.6,0.8,1.2,1.7,1.8,2.4c0.6,0.8,1.3,1.5,2,2.2c0.7,0.7,1.5,1.4,2.2,2
	c0.8,0.6,1.6,1.2,2.4,1.8c0.8,0.6,1.7,1.1,2.6,1.6c0.9,0.5,1.8,0.9,2.7,1.3c0.9,0.4,1.9,0.7,2.9,1c1,0.3,1.9,0.5,2.9,0.7
	c1,0.2,2,0.3,3,0.4c1,0.1,2,0.1,3,0.1s2,0,3-0.1c1-0.1,2-0.2,3-0.4c1-0.2,2-0.4,2.9-0.7c1-0.3,1.9-0.6,2.9-1
	c0.9-0.4,1.8-0.8,2.7-1.3c0.9-0.5,1.8-1,2.6-1.6c0.8-0.6,1.7-1.2,2.4-1.8c0.8-0.6,1.5-1.3,2.2-2c0.7-0.7,1.4-1.5,2-2.2
	c0.6-0.8,1.2-1.6,1.8-2.4c0.6-0.8,1.1-1.7,1.6-2.6c0.5-0.9,0.9-1.8,1.3-2.7c0.4-0.9,0.7-1.9,1-2.9c0.3-1,0.5-1.9,0.7-2.9
	c0.2-1,0.3-2,0.4-3c0.1-1,0.1-2,0.1-3c0-1,0-2-0.1-3c-0.1-1-0.2-2-0.4-3c-0.2-1-0.4-2-0.7-2.9c-0.3-1-0.6-1.9-1-2.9
	c-0.4-0.9-0.8-1.8-1.3-2.7c-0.5-0.9-1-1.8-1.6-2.6c-0.6-0.8-1.2-1.7-1.8-2.4c-0.6-0.8-1.3-1.5-2-2.2c-0.7-0.7-1.5-1.4-2.2-2
	c-0.8-0.6-1.6-1.2-2.4-1.8c-0.8-0.6-1.7-1.1-2.6-1.6c-0.9-0.5-1.8-0.9-2.7-1.3c-0.9-0.4-1.9-0.7-2.9-1s-1.9-0.5-2.9-0.7
	c-1-0.2-2-0.3-3-0.4C196,208.9,195,208.9,194,208.9z"/>
<linearGradient id="SVGID_1_" gradientUnits="userSpaceOnUse" x1="8868.7051" y1="813.7623" x2="9253.0732" y2="813.7623" gradientTransform="matrix(1.984800e-11 -0.4421 -0.4421 -1.984800e-11 479.4807 4299.2568)">
	<stop  offset="0" style="stop-color:#D0112B"/>
	<stop  offset="0.515" style="stop-color:#D0112B"/>
	<stop  offset="1" style="stop-color:#D0112B"/>
</linearGradient>
<path class="st2" d="M119.7,208.6l0.3,0c0.2,0,0.5,0,0.7,0.1c0.2,0.1,0.4,0.2,0.6,0.4c0.2,0.2,0.3,0.4,0.4,0.6
	c0.1,0.2,0.1,0.4,0.1,0.7c0,0.2,0,0.5-0.1,0.7c-0.1,0.2-0.2,0.4-0.4,0.6c-0.2,0.2-0.4,0.3-0.6,0.4s-0.4,0.1-0.7,0.1l-0.3,0
	c-0.2,0-0.5,0-0.7-0.1c-0.2-0.1-0.4-0.2-0.6-0.4c-0.2-0.2-0.3-0.4-0.4-0.6c-0.1-0.2-0.1-0.4-0.1-0.7c0-0.2,0-0.5,0.1-0.7
	c0.1-0.2,0.2-0.4,0.4-0.6c0.2-0.2,0.4-0.3,0.6-0.4C119.3,208.7,119.5,208.6,119.7,208.6z M108.9,209.3l0.1,0l0.2,0
	c0.2,0,0.5,0,0.7,0c0.2,0.1,0.4,0.2,0.6,0.3c0.2,0.1,0.3,0.3,0.4,0.5c0.1,0.2,0.2,0.4,0.2,0.6c0,0.2,0,0.5,0,0.7
	c-0.1,0.2-0.2,0.4-0.3,0.6c-0.1,0.2-0.3,0.3-0.5,0.4c-0.2,0.1-0.4,0.2-0.6,0.2l-0.2,0l-0.1,0c-0.2,0-0.5,0-0.7,0
	c-0.2-0.1-0.4-0.2-0.6-0.3c-0.2-0.1-0.3-0.3-0.4-0.5c-0.1-0.2-0.2-0.4-0.2-0.6c0-0.2,0-0.5,0-0.7c0.1-0.2,0.2-0.4,0.3-0.6
	c0.1-0.2,0.3-0.3,0.5-0.4C108.5,209.4,108.7,209.4,108.9,209.3z M98,211.5l0.3-0.1c0.2-0.1,0.5-0.1,0.7,0c0.2,0,0.4,0.1,0.6,0.2
	c0.2,0.1,0.4,0.3,0.5,0.5c0.1,0.2,0.2,0.4,0.3,0.6c0.1,0.2,0.1,0.5,0,0.7c0,0.2-0.1,0.4-0.2,0.6c-0.1,0.2-0.3,0.4-0.5,0.5
	c-0.2,0.1-0.4,0.2-0.6,0.3l-0.3,0.1c-0.2,0.1-0.5,0.1-0.7,0c-0.2,0-0.4-0.1-0.6-0.2c-0.2-0.1-0.4-0.3-0.5-0.5
	c-0.1-0.2-0.2-0.4-0.3-0.6c-0.1-0.2-0.1-0.5,0-0.7c0-0.2,0.1-0.4,0.2-0.6c0.1-0.2,0.3-0.4,0.5-0.5C97.6,211.6,97.8,211.5,98,211.5z
	 M87.4,215l0.3-0.1c0.2-0.1,0.4-0.1,0.7-0.1c0.2,0,0.5,0,0.7,0.1c0.2,0.1,0.4,0.2,0.6,0.4c0.2,0.2,0.3,0.4,0.4,0.6
	c0.1,0.2,0.1,0.4,0.1,0.7c0,0.2,0,0.5-0.1,0.7c-0.1,0.2-0.2,0.4-0.4,0.6c-0.2,0.2-0.4,0.3-0.6,0.4l-0.3,0.1
	c-0.2,0.1-0.4,0.1-0.7,0.1c-0.2,0-0.5,0-0.7-0.1c-0.2-0.1-0.4-0.2-0.6-0.4c-0.2-0.2-0.3-0.4-0.4-0.6c-0.1-0.2-0.1-0.4-0.1-0.7
	c0-0.2,0-0.5,0.1-0.7c0.1-0.2,0.2-0.4,0.4-0.6C87,215.2,87.2,215.1,87.4,215z M77.5,219.9l0.3-0.2c0.2-0.1,0.4-0.2,0.6-0.2
	c0.2,0,0.5,0,0.7,0c0.2,0.1,0.4,0.2,0.6,0.3c0.2,0.1,0.3,0.3,0.4,0.5c0.1,0.2,0.2,0.4,0.2,0.6c0,0.2,0,0.5,0,0.7
	c-0.1,0.2-0.2,0.4-0.3,0.6c-0.1,0.2-0.3,0.3-0.5,0.4l-0.3,0.2c-0.2,0.1-0.4,0.2-0.6,0.2c-0.2,0-0.5,0-0.7,0
	c-0.2-0.1-0.4-0.2-0.6-0.3c-0.2-0.1-0.3-0.3-0.4-0.5c-0.1-0.2-0.2-0.4-0.2-0.6s0-0.5,0-0.7c0.1-0.2,0.2-0.4,0.3-0.6
	C77.1,220.2,77.3,220,77.5,219.9z M68.2,226.1l0.3-0.2c0.2-0.1,0.4-0.2,0.6-0.3c0.2-0.1,0.5-0.1,0.7,0c0.2,0,0.4,0.1,0.6,0.2
	c0.2,0.1,0.4,0.3,0.5,0.5s0.2,0.4,0.3,0.6c0.1,0.2,0.1,0.5,0,0.7s-0.1,0.4-0.2,0.6c-0.1,0.2-0.3,0.4-0.5,0.5l-0.3,0.2
	c-0.2,0.1-0.4,0.2-0.6,0.3c-0.2,0.1-0.5,0.1-0.7,0c-0.2,0-0.4-0.1-0.6-0.2c-0.2-0.1-0.4-0.3-0.5-0.5c-0.1-0.2-0.2-0.4-0.3-0.6
	c-0.1-0.2-0.1-0.5,0-0.7c0-0.2,0.1-0.4,0.2-0.6S68,226.2,68.2,226.1z M59.8,233.4l0.2-0.2c0.2-0.2,0.4-0.3,0.6-0.4
	c0.2-0.1,0.4-0.1,0.7-0.1c0.2,0,0.5,0,0.7,0.1c0.2,0.1,0.4,0.2,0.6,0.4c0.2,0.2,0.3,0.4,0.4,0.6c0.1,0.2,0.1,0.4,0.1,0.7
	c0,0.2,0,0.5-0.1,0.7c-0.1,0.2-0.2,0.4-0.4,0.6l-0.2,0.2c-0.2,0.2-0.4,0.3-0.6,0.4c-0.2,0.1-0.4,0.1-0.7,0.1c-0.2,0-0.5,0-0.7-0.1
	c-0.2-0.1-0.4-0.2-0.6-0.4c-0.2-0.2-0.3-0.4-0.4-0.6c-0.1-0.2-0.1-0.4-0.1-0.7c0-0.2,0-0.5,0.1-0.7S59.6,233.5,59.8,233.4z
	 M52.5,241.7l0.2-0.3c0.1-0.2,0.3-0.3,0.5-0.4s0.4-0.2,0.6-0.2c0.2,0,0.5,0,0.7,0c0.2,0.1,0.4,0.2,0.6,0.3c0.2,0.1,0.3,0.3,0.4,0.5
	c0.1,0.2,0.2,0.4,0.2,0.6c0,0.2,0,0.5,0,0.7c-0.1,0.2-0.2,0.4-0.3,0.6l-0.2,0.3c-0.1,0.2-0.3,0.3-0.5,0.4c-0.2,0.1-0.4,0.2-0.6,0.2
	c-0.2,0-0.5,0-0.7,0c-0.2-0.1-0.4-0.2-0.6-0.3c-0.2-0.1-0.3-0.3-0.4-0.5c-0.1-0.2-0.2-0.4-0.2-0.6c0-0.2,0-0.5,0-0.7
	C52.2,242.1,52.3,241.9,52.5,241.7z M46.2,250.9L46.2,250.9l0.2-0.3c0.1-0.2,0.3-0.4,0.5-0.5c0.2-0.1,0.4-0.2,0.6-0.3
	c0.2-0.1,0.5-0.1,0.7,0c0.2,0,0.4,0.1,0.6,0.2c0.2,0.1,0.4,0.3,0.5,0.5c0.1,0.2,0.2,0.4,0.3,0.6c0.1,0.2,0.1,0.5,0,0.7
	c0,0.2-0.1,0.4-0.2,0.6l-0.2,0.3l0,0c-0.1,0.2-0.3,0.4-0.5,0.5c-0.2,0.1-0.4,0.2-0.6,0.3c-0.2,0.1-0.5,0.1-0.7,0
	c-0.2,0-0.4-0.1-0.6-0.2c-0.2-0.1-0.4-0.3-0.5-0.5c-0.1-0.2-0.2-0.4-0.3-0.6c-0.1-0.2-0.1-0.5,0-0.7S46.1,251.1,46.2,250.9z
	 M41.3,260.9l0.1-0.3c0.1-0.2,0.2-0.4,0.4-0.6c0.2-0.2,0.4-0.3,0.6-0.4c0.2-0.1,0.4-0.1,0.7-0.1c0.2,0,0.5,0,0.7,0.1
	c0.2,0.1,0.4,0.2,0.6,0.4c0.2,0.2,0.3,0.4,0.4,0.6s0.1,0.4,0.1,0.7c0,0.2,0,0.5-0.1,0.7l-0.1,0.3c-0.1,0.2-0.2,0.4-0.4,0.6
	c-0.2,0.2-0.4,0.3-0.6,0.4c-0.2,0.1-0.4,0.1-0.7,0.1c-0.2,0-0.5,0-0.7-0.1c-0.2-0.1-0.4-0.2-0.6-0.4c-0.2-0.2-0.3-0.4-0.4-0.6
	c-0.1-0.2-0.1-0.4-0.1-0.7C41.2,261.3,41.2,261.1,41.3,260.9z M37.7,271.4l0.1-0.3c0.1-0.2,0.2-0.4,0.3-0.6c0.1-0.2,0.3-0.3,0.5-0.4
	c0.2-0.1,0.4-0.2,0.6-0.2c0.2,0,0.5,0,0.7,0c0.2,0.1,0.4,0.2,0.6,0.3c0.2,0.1,0.3,0.3,0.4,0.5c0.1,0.2,0.2,0.4,0.2,0.6
	c0,0.2,0,0.5,0,0.7l-0.1,0.3c-0.1,0.2-0.2,0.4-0.3,0.6c-0.1,0.2-0.3,0.3-0.5,0.4c-0.2,0.1-0.4,0.2-0.6,0.2c-0.2,0-0.5,0-0.7,0
	c-0.2-0.1-0.4-0.2-0.6-0.3c-0.2-0.1-0.3-0.3-0.4-0.5c-0.1-0.2-0.2-0.4-0.2-0.6C37.6,271.9,37.7,271.7,37.7,271.4z M35.5,282.3l0-0.3
	c0-0.2,0.1-0.4,0.2-0.6c0.1-0.2,0.3-0.4,0.5-0.5c0.2-0.1,0.4-0.2,0.6-0.3c0.2-0.1,0.5-0.1,0.7,0c0.2,0,0.4,0.1,0.6,0.2
	c0.2,0.1,0.4,0.3,0.5,0.5c0.1,0.2,0.2,0.4,0.3,0.6c0.1,0.2,0.1,0.5,0,0.7l0,0.3c0,0.2-0.1,0.4-0.2,0.6c-0.1,0.2-0.3,0.4-0.5,0.5
	c-0.2,0.1-0.4,0.2-0.6,0.3c-0.2,0.1-0.5,0.1-0.7,0c-0.2,0-0.4-0.1-0.6-0.2c-0.2-0.1-0.4-0.3-0.5-0.5c-0.1-0.2-0.2-0.4-0.3-0.6
	C35.5,282.8,35.5,282.6,35.5,282.3z M34.8,293.4l0-0.3c0-0.2,0-0.5,0.1-0.7c0.1-0.2,0.2-0.4,0.4-0.6c0.2-0.2,0.4-0.3,0.6-0.4
	c0.2-0.1,0.4-0.1,0.7-0.1c0.2,0,0.5,0,0.7,0.1s0.4,0.2,0.6,0.4c0.2,0.2,0.3,0.4,0.4,0.6c0.1,0.2,0.1,0.4,0.1,0.7l0,0.3
	c0,0.2,0,0.5-0.1,0.7c-0.1,0.2-0.2,0.4-0.4,0.6c-0.2,0.2-0.4,0.3-0.6,0.4c-0.2,0.1-0.4,0.1-0.7,0.1c-0.2,0-0.5,0-0.7-0.1
	c-0.2-0.1-0.4-0.2-0.6-0.4c-0.2-0.2-0.3-0.4-0.4-0.6S34.8,293.6,34.8,293.4z M35.5,304.5l0-0.3c0-0.2,0-0.5,0-0.7
	c0.1-0.2,0.2-0.4,0.3-0.6c0.1-0.2,0.3-0.3,0.5-0.4c0.2-0.1,0.4-0.2,0.6-0.2c0.2,0,0.5,0,0.7,0c0.2,0.1,0.4,0.2,0.6,0.3
	c0.2,0.1,0.3,0.3,0.4,0.5c0.1,0.2,0.2,0.4,0.2,0.6l0,0.3c0,0.2,0,0.5,0,0.7s-0.2,0.4-0.3,0.6c-0.1,0.2-0.3,0.3-0.5,0.4
	c-0.2,0.1-0.4,0.2-0.6,0.2c-0.2,0-0.5,0-0.7,0c-0.2-0.1-0.4-0.2-0.6-0.3c-0.2-0.1-0.3-0.3-0.4-0.5C35.6,304.9,35.5,304.7,35.5,304.5
	z M37.6,315.4l-0.1-0.3c-0.1-0.2-0.1-0.5,0-0.7s0.1-0.4,0.2-0.6c0.1-0.2,0.3-0.4,0.5-0.5c0.2-0.1,0.4-0.2,0.6-0.3
	c0.2-0.1,0.5-0.1,0.7,0c0.2,0,0.4,0.1,0.6,0.2c0.2,0.1,0.4,0.3,0.5,0.5c0.1,0.2,0.2,0.4,0.3,0.6l0.1,0.3c0.1,0.2,0.1,0.5,0,0.7
	c0,0.2-0.1,0.4-0.2,0.6c-0.1,0.2-0.3,0.4-0.5,0.5c-0.2,0.1-0.4,0.2-0.6,0.3c-0.2,0.1-0.5,0.1-0.7,0c-0.2,0-0.4-0.1-0.6-0.2
	c-0.2-0.1-0.4-0.3-0.5-0.5C37.8,315.8,37.7,315.6,37.6,315.4z M41.2,325.9l-0.1-0.3c-0.1-0.2-0.1-0.4-0.1-0.7c0-0.2,0-0.5,0.1-0.7
	c0.1-0.2,0.2-0.4,0.4-0.6c0.2-0.2,0.4-0.3,0.6-0.4c0.2-0.1,0.4-0.1,0.7-0.1c0.2,0,0.5,0,0.7,0.1c0.2,0.1,0.4,0.2,0.6,0.4
	c0.2,0.2,0.3,0.4,0.4,0.6l0.1,0.3c0.1,0.2,0.1,0.4,0.1,0.7c0,0.2,0,0.5-0.1,0.7c-0.1,0.2-0.2,0.4-0.4,0.6c-0.2,0.2-0.4,0.3-0.6,0.4
	c-0.2,0.1-0.4,0.1-0.7,0.1c-0.2,0-0.5,0-0.7-0.1c-0.2-0.1-0.4-0.2-0.6-0.4C41.4,326.3,41.3,326.2,41.2,325.9z M46.1,335.9l-0.2-0.3
	c-0.1-0.2-0.2-0.4-0.2-0.6c0-0.2,0-0.5,0-0.7c0.1-0.2,0.2-0.4,0.3-0.6c0.1-0.2,0.3-0.3,0.5-0.4c0.2-0.1,0.4-0.2,0.6-0.2
	c0.2,0,0.5,0,0.7,0c0.2,0.1,0.4,0.2,0.6,0.3c0.2,0.1,0.3,0.3,0.4,0.5l0.2,0.3c0.1,0.2,0.2,0.4,0.2,0.6c0,0.2,0,0.5,0,0.7
	c-0.1,0.2-0.2,0.4-0.3,0.6c-0.1,0.2-0.3,0.3-0.5,0.4c-0.2,0.1-0.4,0.2-0.6,0.2c-0.2,0-0.5,0-0.7,0c-0.2-0.1-0.4-0.2-0.6-0.3
	C46.3,336.3,46.2,336.1,46.1,335.9z M52.2,345.2l-0.2-0.3c-0.1-0.2-0.2-0.4-0.3-0.6c-0.1-0.2-0.1-0.5,0-0.7c0-0.2,0.1-0.4,0.2-0.6
	c0.1-0.2,0.3-0.4,0.5-0.5c0.2-0.1,0.4-0.2,0.6-0.3c0.2-0.1,0.5-0.1,0.7,0c0.2,0,0.4,0.1,0.6,0.2c0.2,0.1,0.4,0.3,0.5,0.5l0.2,0.3
	c0.1,0.2,0.2,0.4,0.3,0.6c0.1,0.2,0.1,0.5,0,0.7c0,0.2-0.1,0.4-0.2,0.6c-0.1,0.2-0.3,0.4-0.5,0.5c-0.2,0.1-0.4,0.2-0.6,0.3
	c-0.2,0.1-0.5,0.1-0.7,0c-0.2,0-0.4-0.1-0.6-0.2C52.5,345.5,52.4,345.4,52.2,345.2z M59.5,353.6l-0.2-0.2c-0.2-0.2-0.3-0.4-0.4-0.6
	c-0.1-0.2-0.1-0.4-0.1-0.7c0-0.2,0-0.5,0.1-0.7c0.1-0.2,0.2-0.4,0.4-0.6c0.2-0.2,0.4-0.3,0.6-0.4c0.2-0.1,0.4-0.1,0.7-0.1
	c0.2,0,0.5,0,0.7,0.1c0.2,0.1,0.4,0.2,0.6,0.4l0.2,0.2c0.2,0.2,0.3,0.4,0.4,0.6c0.1,0.2,0.1,0.4,0.1,0.7c0,0.2,0,0.5-0.1,0.7
	c-0.1,0.2-0.2,0.4-0.4,0.6c-0.2,0.2-0.4,0.3-0.6,0.4c-0.2,0.1-0.4,0.1-0.7,0.1c-0.2,0-0.5,0-0.7-0.1
	C59.9,353.9,59.7,353.7,59.5,353.6z M67.9,360.9l-0.3-0.2c-0.2-0.1-0.3-0.3-0.4-0.5c-0.1-0.2-0.2-0.4-0.2-0.6c0-0.2,0-0.5,0-0.7
	c0.1-0.2,0.2-0.4,0.3-0.6c0.1-0.2,0.3-0.3,0.5-0.4c0.2-0.1,0.4-0.2,0.6-0.2c0.2,0,0.5,0,0.7,0c0.2,0.1,0.4,0.2,0.6,0.3l0.3,0.2
	c0.2,0.1,0.3,0.3,0.4,0.5c0.1,0.2,0.2,0.4,0.2,0.6c0,0.2,0,0.5,0,0.7c-0.1,0.2-0.2,0.4-0.3,0.6c-0.1,0.2-0.3,0.3-0.5,0.4
	s-0.4,0.2-0.6,0.2c-0.2,0-0.5,0-0.7,0C68.3,361.2,68.1,361.1,67.9,360.9z M77.1,367.1l-0.3-0.2c-0.2-0.1-0.4-0.3-0.5-0.5
	c-0.1-0.2-0.2-0.4-0.3-0.6c-0.1-0.2-0.1-0.5,0-0.7c0-0.2,0.1-0.4,0.2-0.6c0.1-0.2,0.3-0.4,0.5-0.5c0.2-0.1,0.4-0.2,0.6-0.3
	c0.2-0.1,0.5-0.1,0.7,0s0.4,0.1,0.6,0.2l0.3,0.2c0.2,0.1,0.4,0.3,0.5,0.5c0.1,0.2,0.2,0.4,0.3,0.6c0.1,0.2,0.1,0.5,0,0.7
	s-0.1,0.4-0.2,0.6c-0.1,0.2-0.3,0.4-0.5,0.5c-0.2,0.1-0.4,0.2-0.6,0.3c-0.2,0.1-0.5,0.1-0.7,0C77.5,367.3,77.3,367.2,77.1,367.1z
	 M87.1,372l-0.3-0.1c-0.2-0.1-0.4-0.2-0.6-0.4c-0.2-0.2-0.3-0.4-0.4-0.6c-0.1-0.2-0.1-0.4-0.1-0.7c0-0.2,0-0.5,0.1-0.7
	c0.1-0.2,0.2-0.4,0.4-0.6c0.2-0.2,0.4-0.3,0.6-0.4c0.2-0.1,0.4-0.1,0.7-0.1c0.2,0,0.5,0,0.7,0.1l0.3,0.1c0.2,0.1,0.4,0.2,0.6,0.4
	c0.2,0.2,0.3,0.4,0.4,0.6c0.1,0.2,0.1,0.4,0.1,0.7c0,0.2,0,0.5-0.1,0.7c-0.1,0.2-0.2,0.4-0.4,0.6c-0.2,0.2-0.4,0.3-0.6,0.4
	c-0.2,0.1-0.4,0.1-0.7,0.1C87.5,372.2,87.3,372.1,87.1,372z M97.6,375.6l-0.3-0.1c-0.2-0.1-0.4-0.2-0.6-0.3
	c-0.2-0.1-0.3-0.3-0.4-0.5c-0.1-0.2-0.2-0.4-0.2-0.6c0-0.2,0-0.5,0-0.7c0.1-0.2,0.2-0.4,0.3-0.6c0.1-0.2,0.3-0.3,0.5-0.4
	c0.2-0.1,0.4-0.2,0.6-0.2c0.2,0,0.5,0,0.7,0l0.3,0.1c0.2,0.1,0.4,0.2,0.6,0.3c0.2,0.1,0.3,0.3,0.4,0.5c0.1,0.2,0.2,0.4,0.2,0.6
	c0,0.2,0,0.5,0,0.7c-0.1,0.2-0.2,0.4-0.3,0.6c-0.1,0.2-0.3,0.3-0.5,0.4c-0.2,0.1-0.4,0.2-0.6,0.2C98.1,375.7,97.8,375.7,97.6,375.6z
	 M108.5,377.8l-0.3,0c-0.2,0-0.4-0.1-0.6-0.2s-0.4-0.3-0.5-0.5c-0.1-0.2-0.2-0.4-0.3-0.6s-0.1-0.5,0-0.7c0-0.2,0.1-0.4,0.2-0.6
	c0.1-0.2,0.3-0.4,0.5-0.5c0.2-0.1,0.4-0.2,0.6-0.3c0.2-0.1,0.5-0.1,0.7,0l0.3,0c0.2,0,0.4,0.1,0.6,0.2c0.2,0.1,0.4,0.3,0.5,0.5
	c0.1,0.2,0.2,0.4,0.3,0.6s0.1,0.5,0,0.7c0,0.2-0.1,0.4-0.2,0.6c-0.1,0.2-0.3,0.4-0.5,0.5c-0.2,0.1-0.4,0.2-0.6,0.3
	C109,377.8,108.8,377.8,108.5,377.8z M119.6,378.6l-0.3,0c-0.2,0-0.5,0-0.7-0.1c-0.2-0.1-0.4-0.2-0.6-0.4c-0.2-0.2-0.3-0.4-0.4-0.6
	c-0.1-0.2-0.1-0.4-0.1-0.7c0-0.2,0-0.5,0.1-0.7c0.1-0.2,0.2-0.4,0.4-0.6c0.2-0.2,0.4-0.3,0.6-0.4c0.2-0.1,0.4-0.1,0.7-0.1l0.3,0
	c0.2,0,0.5,0,0.7,0.1c0.2,0.1,0.4,0.2,0.6,0.4c0.2,0.2,0.3,0.4,0.4,0.6c0.1,0.2,0.1,0.4,0.1,0.7c0,0.2,0,0.5-0.1,0.7
	c-0.1,0.2-0.2,0.4-0.4,0.6c-0.2,0.2-0.4,0.3-0.6,0.4C120.1,378.5,119.8,378.6,119.6,378.6z M130.7,377.9l-0.3,0c-0.2,0-0.5,0-0.7,0
	c-0.2-0.1-0.4-0.2-0.6-0.3c-0.2-0.1-0.3-0.3-0.4-0.5c-0.1-0.2-0.2-0.4-0.2-0.6c0-0.2,0-0.5,0-0.7c0.1-0.2,0.2-0.4,0.3-0.6
	c0.1-0.2,0.3-0.3,0.5-0.4c0.2-0.1,0.4-0.2,0.6-0.2l0.3,0c0.2,0,0.5,0,0.7,0c0.2,0.1,0.4,0.2,0.6,0.3c0.2,0.1,0.3,0.3,0.4,0.5
	c0.1,0.2,0.2,0.4,0.2,0.6c0,0.2,0,0.5,0,0.7c-0.1,0.2-0.2,0.4-0.3,0.6c-0.1,0.2-0.3,0.3-0.5,0.4
	C131.1,377.7,130.9,377.8,130.7,377.9z M141.6,375.7l-0.3,0.1c-0.2,0.1-0.5,0.1-0.7,0s-0.4-0.1-0.6-0.2c-0.2-0.1-0.4-0.3-0.5-0.5
	c-0.1-0.2-0.2-0.4-0.3-0.6c-0.1-0.2-0.1-0.5,0-0.7c0-0.2,0.1-0.4,0.2-0.6c0.1-0.2,0.3-0.4,0.5-0.5c0.2-0.1,0.4-0.2,0.6-0.3l0.3-0.1
	c0.2-0.1,0.5-0.1,0.7,0c0.2,0,0.4,0.1,0.6,0.2c0.2,0.1,0.4,0.3,0.5,0.5c0.1,0.2,0.2,0.4,0.3,0.6s0.1,0.5,0,0.7
	c0,0.2-0.1,0.4-0.2,0.6c-0.1,0.2-0.3,0.4-0.5,0.5C142,375.5,141.8,375.6,141.6,375.7z M152.1,372.1l-0.3,0.1
	c-0.2,0.1-0.4,0.1-0.7,0.1c-0.2,0-0.5,0-0.7-0.1c-0.2-0.1-0.4-0.2-0.6-0.4c-0.2-0.2-0.3-0.4-0.4-0.6c-0.1-0.2-0.1-0.4-0.1-0.7
	c0-0.2,0-0.5,0.1-0.7c0.1-0.2,0.2-0.4,0.4-0.6c0.2-0.2,0.4-0.3,0.6-0.4l0.3-0.1c0.2-0.1,0.4-0.1,0.7-0.1c0.2,0,0.5,0,0.7,0.1
	c0.2,0.1,0.4,0.2,0.6,0.4c0.2,0.2,0.3,0.4,0.4,0.6c0.1,0.2,0.1,0.4,0.1,0.7c0,0.2,0,0.5-0.1,0.7c-0.1,0.2-0.2,0.4-0.4,0.6
	C152.5,371.9,152.3,372,152.1,372.1z M162.1,367.2L162.1,367.2l-0.3,0.2c-0.2,0.1-0.4,0.2-0.6,0.2c-0.2,0-0.5,0-0.7,0
	c-0.2-0.1-0.4-0.2-0.6-0.3c-0.2-0.1-0.3-0.3-0.4-0.5c-0.1-0.2-0.2-0.4-0.2-0.6c0-0.2,0-0.5,0-0.7c0.1-0.2,0.2-0.4,0.3-0.6
	c0.1-0.2,0.3-0.3,0.5-0.4l0.3-0.1l0,0c0.2-0.1,0.4-0.2,0.6-0.2c0.2,0,0.5,0,0.7,0c0.2,0.1,0.4,0.2,0.6,0.3c0.2,0.1,0.3,0.3,0.4,0.5
	c0.1,0.2,0.2,0.4,0.2,0.6c0,0.2,0,0.5,0,0.7c-0.1,0.2-0.2,0.4-0.3,0.6C162.5,367,162.3,367.1,162.1,367.2z M171.4,361.1l-0.3,0.2
	c-0.2,0.1-0.4,0.2-0.6,0.3c-0.2,0.1-0.5,0.1-0.7,0s-0.4-0.1-0.6-0.2c-0.2-0.1-0.4-0.3-0.5-0.5c-0.1-0.2-0.2-0.4-0.3-0.6
	c-0.1-0.2-0.1-0.5,0-0.7c0-0.2,0.1-0.4,0.2-0.6c0.1-0.2,0.3-0.4,0.5-0.5l0.3-0.2c0.2-0.1,0.4-0.2,0.6-0.3c0.2-0.1,0.5-0.1,0.7,0
	c0.2,0,0.4,0.1,0.6,0.2c0.2,0.1,0.4,0.3,0.5,0.5c0.1,0.2,0.2,0.4,0.3,0.6c0.1,0.2,0.1,0.5,0,0.7c0,0.2-0.1,0.4-0.2,0.6
	S171.5,360.9,171.4,361.1z M179.7,353.7l-0.2,0.2c-0.2,0.2-0.4,0.3-0.6,0.4c-0.2,0.1-0.4,0.1-0.7,0.1c-0.2,0-0.5,0-0.7-0.1
	c-0.2-0.1-0.4-0.2-0.6-0.4s-0.3-0.4-0.4-0.6c-0.1-0.2-0.1-0.4-0.1-0.7c0-0.2,0-0.5,0.1-0.7c0.1-0.2,0.2-0.4,0.4-0.6l0.2-0.2
	c0.2-0.2,0.4-0.3,0.6-0.4c0.2-0.1,0.4-0.1,0.7-0.1c0.2,0,0.5,0,0.7,0.1c0.2,0.1,0.4,0.2,0.6,0.4c0.2,0.2,0.3,0.4,0.4,0.6
	c0.1,0.2,0.1,0.4,0.1,0.7c0,0.2,0,0.5-0.1,0.7C180,353.4,179.9,353.6,179.7,353.7z M187.1,345.4l-0.2,0.3c-0.1,0.2-0.3,0.3-0.5,0.4
	c-0.2,0.1-0.4,0.2-0.6,0.2c-0.2,0-0.5,0-0.7,0c-0.2-0.1-0.4-0.2-0.6-0.3c-0.2-0.1-0.3-0.3-0.4-0.5c-0.1-0.2-0.2-0.4-0.2-0.6
	c0-0.2,0-0.5,0-0.7c0.1-0.2,0.2-0.4,0.3-0.6l0.2-0.3c0.1-0.2,0.3-0.3,0.5-0.4c0.2-0.1,0.4-0.2,0.6-0.2c0.2,0,0.5,0,0.7,0
	c0.2,0.1,0.4,0.2,0.6,0.3c0.2,0.1,0.3,0.3,0.4,0.5c0.1,0.2,0.2,0.4,0.2,0.6c0,0.2,0,0.5,0,0.7C187.3,345,187.2,345.2,187.1,345.4z
	 M193.3,336.1l-0.2,0.3c-0.1,0.2-0.3,0.4-0.5,0.5c-0.2,0.1-0.4,0.2-0.6,0.3c-0.2,0.1-0.5,0.1-0.7,0c-0.2,0-0.4-0.1-0.6-0.2
	c-0.2-0.1-0.4-0.3-0.5-0.5c-0.1-0.2-0.2-0.4-0.3-0.6c-0.1-0.2-0.1-0.5,0-0.7c0-0.2,0.1-0.4,0.2-0.6l0.2-0.3c0.1-0.2,0.3-0.4,0.5-0.5
	c0.2-0.1,0.4-0.2,0.6-0.3c0.2-0.1,0.5-0.1,0.7,0c0.2,0,0.4,0.1,0.6,0.2c0.2,0.1,0.4,0.3,0.5,0.5c0.1,0.2,0.2,0.4,0.3,0.6
	c0.1,0.2,0.1,0.5,0,0.7C193.5,335.7,193.4,335.9,193.3,336.1z M198.2,326.2l-0.1,0.3c-0.1,0.2-0.2,0.4-0.4,0.6
	c-0.2,0.2-0.4,0.3-0.6,0.4c-0.2,0.1-0.4,0.1-0.7,0.1c-0.2,0-0.5,0-0.7-0.1c-0.2-0.1-0.4-0.2-0.6-0.4c-0.2-0.2-0.3-0.4-0.4-0.6
	c-0.1-0.2-0.1-0.4-0.1-0.7c0-0.2,0-0.5,0.1-0.7l0.1-0.3c0.1-0.2,0.2-0.4,0.4-0.6c0.2-0.2,0.4-0.3,0.6-0.4s0.4-0.1,0.7-0.1
	c0.2,0,0.5,0,0.7,0.1c0.2,0.1,0.4,0.2,0.6,0.4s0.3,0.4,0.4,0.6c0.1,0.2,0.1,0.4,0.1,0.7C198.3,325.7,198.3,326,198.2,326.2z
	 M201.8,315.6l-0.1,0.3c-0.1,0.2-0.2,0.4-0.3,0.6c-0.1,0.2-0.3,0.3-0.5,0.4c-0.2,0.1-0.4,0.2-0.6,0.2c-0.2,0-0.5,0-0.7,0
	c-0.2-0.1-0.4-0.2-0.6-0.3c-0.2-0.1-0.3-0.3-0.4-0.5c-0.1-0.2-0.2-0.4-0.2-0.6c0-0.2,0-0.5,0-0.7l0.1-0.3c0.1-0.2,0.2-0.4,0.3-0.6
	c0.1-0.2,0.3-0.3,0.5-0.4c0.2-0.1,0.4-0.2,0.6-0.2c0.2,0,0.5,0,0.7,0c0.2,0.1,0.4,0.2,0.6,0.3c0.2,0.1,0.3,0.3,0.4,0.5
	c0.1,0.2,0.2,0.4,0.2,0.6C201.9,315.2,201.8,315.4,201.8,315.6z M204,304.7l0,0.3c0,0.2-0.1,0.4-0.2,0.6c-0.1,0.2-0.3,0.4-0.5,0.5
	c-0.2,0.1-0.4,0.2-0.6,0.3c-0.2,0.1-0.5,0.1-0.7,0c-0.2,0-0.4-0.1-0.6-0.2s-0.4-0.3-0.5-0.5c-0.1-0.2-0.2-0.4-0.3-0.6
	c-0.1-0.2-0.1-0.5,0-0.7l0-0.3c0-0.2,0.1-0.4,0.2-0.6c0.1-0.2,0.3-0.4,0.5-0.5c0.2-0.1,0.4-0.2,0.6-0.3s0.5-0.1,0.7,0
	c0.2,0,0.4,0.1,0.6,0.2c0.2,0.1,0.4,0.3,0.5,0.5c0.1,0.2,0.2,0.4,0.3,0.6C204,304.3,204,304.5,204,304.7z M204.7,293.7l0,0.3
	c0,0.2,0,0.5-0.1,0.7c-0.1,0.2-0.2,0.4-0.4,0.6c-0.2,0.2-0.4,0.3-0.6,0.4c-0.2,0.1-0.4,0.1-0.7,0.1c-0.2,0-0.5,0-0.7-0.1
	c-0.2-0.1-0.4-0.2-0.6-0.4c-0.2-0.2-0.3-0.4-0.4-0.6c-0.1-0.2-0.1-0.4-0.1-0.7l0-0.3c0-0.2,0-0.5,0.1-0.7c0.1-0.2,0.2-0.4,0.4-0.6
	c0.2-0.2,0.4-0.3,0.6-0.4s0.4-0.1,0.7-0.1c0.2,0,0.5,0,0.7,0.1c0.2,0.1,0.4,0.2,0.6,0.4c0.2,0.2,0.3,0.4,0.4,0.6
	C204.6,293.2,204.7,293.4,204.7,293.7z M204,282.6l0,0.3c0,0.2,0,0.5,0,0.7c-0.1,0.2-0.2,0.4-0.3,0.6c-0.1,0.2-0.3,0.3-0.5,0.4
	c-0.2,0.1-0.4,0.2-0.6,0.2c-0.2,0-0.5,0-0.7,0c-0.2-0.1-0.4-0.2-0.6-0.3c-0.2-0.1-0.3-0.3-0.4-0.5c-0.1-0.2-0.2-0.4-0.2-0.6l0-0.3
	c0-0.2,0-0.5,0-0.7c0.1-0.2,0.2-0.4,0.3-0.6c0.1-0.2,0.3-0.3,0.5-0.4c0.2-0.1,0.4-0.2,0.6-0.2s0.5,0,0.7,0c0.2,0.1,0.4,0.2,0.6,0.3
	c0.2,0.1,0.3,0.3,0.4,0.5C203.9,282.2,203.9,282.4,204,282.6z M201.8,271.7l0.1,0.3c0.1,0.2,0.1,0.5,0,0.7c0,0.2-0.1,0.4-0.2,0.6
	c-0.1,0.2-0.3,0.4-0.5,0.5c-0.2,0.1-0.4,0.2-0.6,0.3c-0.2,0.1-0.5,0.1-0.7,0c-0.2,0-0.4-0.1-0.6-0.2c-0.2-0.1-0.4-0.3-0.5-0.5
	c-0.1-0.2-0.2-0.4-0.3-0.6l-0.1-0.3c-0.1-0.2-0.1-0.5,0-0.7c0-0.2,0.1-0.4,0.2-0.6c0.1-0.2,0.3-0.4,0.5-0.5c0.2-0.1,0.4-0.2,0.6-0.3
	c0.2-0.1,0.5-0.1,0.7,0c0.2,0,0.4,0.1,0.6,0.2c0.2,0.1,0.4,0.3,0.5,0.5C201.7,271.2,201.8,271.5,201.8,271.7z M198.2,261.1l0.1,0.3
	c0.1,0.2,0.1,0.4,0.1,0.7c0,0.2,0,0.5-0.1,0.7c-0.1,0.2-0.2,0.4-0.4,0.6c-0.2,0.2-0.4,0.3-0.6,0.4c-0.2,0.1-0.4,0.1-0.7,0.1
	c-0.2,0-0.5,0-0.7-0.1c-0.2-0.1-0.4-0.2-0.6-0.4c-0.2-0.2-0.3-0.4-0.4-0.6l-0.1-0.3c-0.1-0.2-0.1-0.4-0.1-0.7c0-0.2,0-0.5,0.1-0.7
	c0.1-0.2,0.2-0.4,0.4-0.6c0.2-0.2,0.4-0.3,0.6-0.4c0.2-0.1,0.4-0.1,0.7-0.1c0.2,0,0.5,0,0.7,0.1c0.2,0.1,0.4,0.2,0.6,0.4
	C198,260.7,198.2,260.9,198.2,261.1z M193.3,251.2l0.2,0.3c0.1,0.2,0.2,0.4,0.2,0.6c0,0.2,0,0.5,0,0.7c-0.1,0.2-0.2,0.4-0.3,0.6
	c-0.1,0.2-0.3,0.3-0.5,0.4c-0.2,0.1-0.4,0.2-0.6,0.2c-0.2,0-0.5,0-0.7,0c-0.2-0.1-0.4-0.2-0.6-0.3c-0.2-0.1-0.3-0.3-0.4-0.5
	l-0.2-0.3c-0.1-0.2-0.2-0.4-0.2-0.6c0-0.2,0-0.5,0-0.7c0.1-0.2,0.2-0.4,0.3-0.6c0.1-0.2,0.3-0.3,0.5-0.4c0.2-0.1,0.4-0.2,0.6-0.2
	c0.2,0,0.5,0,0.7,0c0.2,0.1,0.4,0.2,0.6,0.3C193.1,250.8,193.2,251,193.3,251.2z M187,244.6c-0.2,0.1-0.4,0.2-0.6,0.3
	c-0.2,0.1-0.5,0.1-0.7,0c-0.2,0-0.4-0.1-0.6-0.2c-0.2-0.1-0.4-0.3-0.5-0.5l-0.2-0.3c-0.1-0.2-0.2-0.4-0.3-0.6
	c-0.1-0.2-0.1-0.5,0-0.7c0-0.2,0.1-0.4,0.2-0.6c0.1-0.2,0.3-0.4,0.5-0.5c0.2-0.1,0.4-0.2,0.6-0.3c0.2-0.1,0.5-0.1,0.7,0
	c0.2,0,0.4,0.1,0.6,0.2c0.2,0.1,0.4,0.3,0.5,0.5l0.2,0.3c0.1,0.2,0.2,0.4,0.3,0.6c0.1,0.2,0.1,0.5,0,0.7c0,0.2-0.1,0.4-0.2,0.6
	C187.4,244.3,187.2,244.5,187,244.6 M179.8,233.5l0.2,0.2c0.2,0.2,0.3,0.4,0.4,0.6c0.1,0.2,0.1,0.4,0.1,0.7c0,0.2,0,0.5-0.1,0.7
	c-0.1,0.2-0.2,0.4-0.4,0.6c-0.2,0.2-0.4,0.3-0.6,0.4c-0.2,0.1-0.4,0.1-0.7,0.1c-0.2,0-0.5,0-0.7-0.1c-0.2-0.1-0.4-0.2-0.6-0.4
	l-0.2-0.2c-0.2-0.2-0.3-0.4-0.4-0.6c-0.1-0.2-0.1-0.4-0.1-0.7c0-0.2,0-0.5,0.1-0.7s0.2-0.4,0.4-0.6c0.2-0.2,0.4-0.3,0.6-0.4
	c0.2-0.1,0.4-0.1,0.7-0.1c0.2,0,0.5,0,0.7,0.1C179.5,233.3,179.7,233.4,179.8,233.5z M171.5,226.2l0.3,0.2c0.2,0.1,0.3,0.3,0.4,0.5
	c0.1,0.2,0.2,0.4,0.2,0.6c0,0.2,0,0.5,0,0.7c-0.1,0.2-0.2,0.4-0.3,0.6c-0.1,0.2-0.3,0.3-0.5,0.4c-0.2,0.1-0.4,0.2-0.6,0.2
	c-0.2,0-0.5,0-0.7,0s-0.4-0.2-0.6-0.3l-0.3-0.2c-0.2-0.1-0.3-0.3-0.4-0.5c-0.1-0.2-0.2-0.4-0.2-0.6c0-0.2,0-0.5,0-0.7
	c0.1-0.2,0.2-0.4,0.3-0.6c0.1-0.2,0.3-0.3,0.5-0.4c0.2-0.1,0.4-0.2,0.6-0.2c0.2,0,0.5,0,0.7,0C171.1,226,171.3,226.1,171.5,226.2z
	 M162.2,220l0.3,0.2c0.2,0.1,0.4,0.3,0.5,0.4c0.1,0.2,0.2,0.4,0.3,0.6c0.1,0.2,0.1,0.5,0,0.7c0,0.2-0.1,0.4-0.2,0.6
	c-0.1,0.2-0.3,0.4-0.5,0.5c-0.2,0.1-0.4,0.2-0.6,0.3c-0.2,0.1-0.5,0.1-0.7,0c-0.2,0-0.4-0.1-0.6-0.2l-0.3-0.2
	c-0.2-0.1-0.4-0.3-0.5-0.4s-0.2-0.4-0.3-0.6c-0.1-0.2-0.1-0.5,0-0.7c0-0.2,0.1-0.4,0.2-0.6c0.1-0.2,0.3-0.4,0.4-0.5
	c0.2-0.1,0.4-0.2,0.6-0.3c0.2-0.1,0.5-0.1,0.7,0C161.8,219.8,162,219.9,162.2,220z M152.3,215.1l0.3,0.1c0.2,0.1,0.4,0.2,0.6,0.4
	c0.2,0.2,0.3,0.4,0.4,0.6c0.1,0.2,0.1,0.4,0.1,0.7c0,0.2,0,0.5-0.1,0.7c-0.1,0.2-0.2,0.4-0.4,0.6c-0.2,0.2-0.4,0.3-0.6,0.4
	c-0.2,0.1-0.4,0.1-0.7,0.1c-0.2,0-0.5,0-0.7-0.1l-0.3-0.1c-0.2-0.1-0.4-0.2-0.6-0.4c-0.2-0.2-0.3-0.4-0.4-0.6
	c-0.1-0.2-0.1-0.4-0.1-0.7c0-0.2,0-0.5,0.1-0.7c0.1-0.2,0.2-0.4,0.4-0.6c0.2-0.2,0.4-0.3,0.6-0.4c0.2-0.1,0.4-0.1,0.7-0.1
	C151.8,215,152,215,152.3,215.1z M141.7,211.5l0.3,0.1c0.2,0.1,0.4,0.2,0.6,0.3c0.2,0.1,0.3,0.3,0.4,0.5c0.1,0.2,0.2,0.4,0.2,0.6
	c0,0.2,0,0.5,0,0.7c-0.1,0.2-0.2,0.4-0.3,0.6c-0.1,0.2-0.3,0.3-0.5,0.4c-0.2,0.1-0.4,0.2-0.6,0.2c-0.2,0-0.5,0-0.7,0l-0.3-0.1
	c-0.2-0.1-0.4-0.2-0.6-0.3c-0.2-0.1-0.3-0.3-0.4-0.5c-0.1-0.2-0.2-0.4-0.2-0.6c0-0.2,0-0.5,0-0.7c0.1-0.2,0.2-0.4,0.3-0.6
	c0.1-0.2,0.3-0.3,0.5-0.4c0.2-0.1,0.4-0.2,0.6-0.2C141.3,211.5,141.5,211.5,141.7,211.5z M130.8,209.4l0.3,0c0.2,0,0.4,0.1,0.6,0.2
	c0.2,0.1,0.4,0.3,0.5,0.4c0.1,0.2,0.2,0.4,0.3,0.6c0.1,0.2,0.1,0.5,0,0.7c0,0.2-0.1,0.4-0.2,0.6c-0.1,0.2-0.3,0.4-0.4,0.5
	c-0.2,0.1-0.4,0.2-0.6,0.3c-0.2,0.1-0.5,0.1-0.7,0l-0.3,0c-0.2,0-0.4-0.1-0.6-0.2c-0.2-0.1-0.4-0.3-0.5-0.4
	c-0.1-0.2-0.2-0.4-0.3-0.6c-0.1-0.2-0.1-0.5,0-0.7c0-0.2,0.1-0.4,0.2-0.6c0.1-0.2,0.3-0.4,0.4-0.5c0.2-0.1,0.4-0.2,0.6-0.3
	C130.3,209.3,130.6,209.3,130.8,209.4z"/>
<path class="st3" d="M202.3,127.5c0-23.1,18.7-41.8,41.8-41.8c23.1,0,41.8,18.7,41.8,41.8s-18.7,41.8-41.8,41.8
	C221,169.4,202.3,150.7,202.3,127.5z M193.5,127.5c0,27.9,22.7,50.6,50.6,50.6c27.9,0,50.6-22.7,50.6-50.6
	c0-27.9-22.7-50.6-50.6-50.6C216.2,76.9,193.5,99.6,193.5,127.5z"/>
<g>
	<path class="st4" d="M203.4,642.7c0,26.9,21.7,48.6,48.6,48.6s48.6-21.7,48.6-48.6c0-26.9-21.7-48.6-48.6-48.6
		S203.4,616,203.4,642.7L203.4,642.7z M303.8,642.7c0,28.6-23.3,51.8-51.8,51.8c-28.5,0-51.8-23.2-51.8-51.8
		c0-28.6,23.2-51.8,51.8-51.8S303.8,614.3,303.8,642.7z"/>
	<path class="st5" d="M300.4,590.9c-0.6,0-1.3,0-1.9,0.1c-0.6,0.1-1.3,0.2-1.9,0.3c-0.6,0.1-1.2,0.3-1.8,0.5
		c-0.6,0.2-1.2,0.4-1.8,0.6c-0.6,0.2-1.2,0.5-1.7,0.8s-1.1,0.6-1.6,1s-1,0.7-1.5,1.1c-0.5,0.4-1,0.8-1.4,1.3
		c-0.4,0.4-0.9,0.9-1.3,1.4c-0.4,0.5-0.8,1-1.1,1.5c-0.4,0.5-0.7,1.1-1,1.6c-0.3,0.6-0.6,1.1-0.8,1.7s-0.5,1.2-0.6,1.8
		c-0.2,0.6-0.3,1.2-0.5,1.8c-0.1,0.6-0.2,1.2-0.3,1.9c-0.1,0.6-0.1,1.3-0.1,1.9c0,0.6,0,1.3,0.1,1.9c0.1,0.6,0.2,1.3,0.3,1.9
		c0.1,0.6,0.3,1.2,0.5,1.8c0.2,0.6,0.4,1.2,0.6,1.8c0.2,0.6,0.5,1.2,0.8,1.7c0.3,0.6,0.6,1.1,1,1.6c0.4,0.5,0.7,1,1.1,1.5
		c0.4,0.5,0.8,1,1.3,1.4c0.4,0.4,0.9,0.9,1.4,1.3c0.5,0.4,1,0.8,1.5,1.1s1.1,0.7,1.6,1c0.6,0.3,1.1,0.6,1.7,0.8
		c0.6,0.2,1.2,0.5,1.8,0.6c0.6,0.2,1.2,0.3,1.8,0.5c0.6,0.1,1.2,0.2,1.9,0.3c0.6,0.1,1.3,0.1,1.9,0.1s1.3,0,1.9-0.1
		c0.6-0.1,1.3-0.2,1.9-0.3c0.6-0.1,1.2-0.3,1.8-0.5c0.6-0.2,1.2-0.4,1.8-0.6c0.6-0.2,1.2-0.5,1.7-0.8c0.6-0.3,1.1-0.6,1.6-1
		s1-0.7,1.5-1.1c0.5-0.4,1-0.8,1.4-1.3c0.4-0.4,0.9-0.9,1.3-1.4c0.4-0.5,0.8-1,1.1-1.5c0.4-0.5,0.7-1.1,1-1.6
		c0.3-0.6,0.6-1.1,0.8-1.7c0.2-0.6,0.5-1.2,0.6-1.8c0.2-0.6,0.3-1.2,0.5-1.8c0.1-0.6,0.2-1.2,0.3-1.9c0.1-0.6,0.1-1.3,0.1-1.9
		c0-0.6,0-1.3-0.1-1.9c-0.1-0.6-0.2-1.3-0.3-1.9c-0.1-0.6-0.3-1.2-0.5-1.8s-0.4-1.2-0.6-1.8c-0.2-0.6-0.5-1.2-0.8-1.7
		c-0.3-0.6-0.6-1.1-1-1.6c-0.4-0.5-0.7-1-1.1-1.5c-0.4-0.5-0.8-1-1.3-1.4s-0.9-0.9-1.4-1.3c-0.5-0.4-1-0.8-1.5-1.1s-1.1-0.7-1.6-1
		s-1.1-0.6-1.7-0.8c-0.6-0.2-1.2-0.5-1.8-0.6c-0.6-0.2-1.2-0.3-1.8-0.5c-0.6-0.1-1.2-0.2-1.9-0.3
		C301.7,590.9,301.1,590.9,300.4,590.9z"/>
</g>
</svg>
