<?xml version="1.0" encoding="utf-8"?>
<!-- Generator: Adobe Illustrator 25.1.0, SVG Export Plug-In . SVG Version: 6.00 Build 0)  -->
<svg version="1.1" id="Layer_1" xmlns="http://www.w3.org/2000/svg" xmlns:xlink="http://www.w3.org/1999/xlink" x="0px" y="0px"
	 viewBox="0 0 285.39 114.16" style="enable-background:new 0 0 285.39 114.16;" xml:space="preserve">
<style type="text/css">
	.st0{fill:#8F113C;}
	.st1{fill:#FFFFFF;}
</style>
<g>
	<g>
		<rect class="st0" width="285.39" height="114.16"/>
		<polyline class="st1" points="22.18,47.41 22.18,21.76 36.45,21.76 36.45,27.41 28.7,27.41 28.7,31.68 36.04,31.68 36.04,37.33 
			28.7,37.33 28.7,41.75 36.45,41.75 36.45,47.41 		"/>
		<polyline class="st1" points="64.48,47.41 62.64,32.64 56.58,47.41 53.98,47.41 48.18,32.64 46.04,47.41 39.57,47.41 43.82,21.76 
			50.26,21.76 55.34,35.45 60.72,21.76 67.23,21.76 71,47.41 		"/>
		<path class="st1" d="M85.61,38.91h-4.1v8.5H75V21.76h10.39c2.45,0,4.4,0.35,6.25,2.15c1.77,1.73,2.45,3.92,2.45,6.38
			C94.08,35.87,91.07,38.91,85.61,38.91 M83.73,27.14h-2.22v6.38h2.18c2.14,0,3.57-0.77,3.57-3.15
			C87.27,28.03,85.88,27.14,83.73,27.14"/>
		<polyline class="st1" points="97.32,47.41 97.32,21.76 103.83,21.76 103.83,41.75 111.66,41.75 111.66,47.41 		"/>
		<path class="st1" d="M127.03,48.33c-7.72,0-13.89-5.61-13.89-13.65s6.17-13.69,13.89-13.69s13.89,5.65,13.89,13.69
			C140.92,42.71,134.74,48.33,127.03,48.33 M127.03,27.45c-3.91,0-7.08,3.23-7.08,7.23c0,3.96,3.2,7.19,7.08,7.19
			s7.08-3.19,7.08-7.19C134.1,30.68,130.94,27.45,127.03,27.45"/>
		<polyline class="st1" points="155.55,35.1 155.55,47.41 149.01,47.41 149.01,35.1 139.94,21.76 147.73,21.76 152.47,28.76 
			157.03,21.76 164.93,21.76 		"/>
		<polyline class="st1" points="189.44,47.41 187.59,32.64 181.53,47.41 178.93,47.41 173.14,32.64 170.99,47.41 164.52,47.41 
			168.77,21.76 175.21,21.76 180.29,35.45 185.67,21.76 192.18,21.76 195.95,47.41 		"/>
		<polyline class="st1" points="199.95,47.41 199.95,21.76 214.21,21.76 214.21,27.41 206.46,27.41 206.46,31.68 213.8,31.68 
			213.8,37.33 206.46,37.33 206.46,41.75 214.21,41.75 214.21,47.41 		"/>
		<polyline class="st1" points="237.4,47.41 225.39,31.72 225.39,47.41 218.87,47.41 218.87,21.76 225.39,21.76 237.4,37.45 
			237.4,21.76 243.91,21.76 243.91,47.41 		"/>
		<polyline class="st1" points="258.38,27.41 258.38,47.41 251.87,47.41 251.87,27.41 246.56,27.41 246.56,21.76 263.8,21.76 
			263.8,27.41 		"/>
		<path class="st1" d="M42.42,93.79c-11.58,0-20.84-8.42-20.84-20.48c0-12.05,9.26-20.53,20.84-20.53s20.84,8.48,20.84,20.53
			C63.26,85.37,54,93.79,42.42,93.79 M42.42,62.47c-5.87,0-10.62,4.85-10.62,10.84c0,5.94,4.8,10.79,10.62,10.79
			s10.62-4.79,10.62-10.79S48.3,62.47,42.42,62.47"/>
		<polyline class="st1" points="96.12,92.41 78.11,68.87 78.11,92.41 68.34,92.41 68.34,53.93 78.11,53.93 96.12,77.47 96.12,53.93 
			105.89,53.93 105.89,92.41 		"/>
		<polyline class="st1" points="127.28,62.41 127.28,92.41 117.51,92.41 117.51,62.41 109.55,62.41 109.55,53.93 135.41,53.93 
			135.41,62.41 		"/>
		<path class="st1" d="M159.35,92.41l-2.43-6.69h-13.49l-2.6,6.69H130.5l14.45-38.47h10.67l14.17,38.47 M150.2,65.87l-4.07,12.23
			h8.13"/>
		<path class="st1" d="M192.6,92.41l-9.38-14.77v14.77h-9.77V53.93h15.25c3.56,0,6.66,0.69,9.2,3.4c2.14,2.25,3.22,5.42,3.22,8.54
			c0,2.42-0.73,5.13-2.15,7.09c-1.52,2.13-3.56,3.12-6.04,3.69l11.8,15.75 M185.09,61.66h-1.86v9.52h1.86
			c3.05,0,5.99-1.21,5.99-4.79C191.07,62.82,188.08,61.66,185.09,61.66"/>
		<rect x="208.29" y="53.93" class="st1" width="9.77" height="38.47"/>
		<path class="st1" d="M242.84,93.79c-11.58,0-20.84-8.42-20.84-20.48c0-12.05,9.26-20.53,20.84-20.53s20.84,8.48,20.84,20.53
			C263.68,85.37,254.42,93.79,242.84,93.79 M242.84,62.47c-5.87,0-10.61,4.85-10.61,10.84c0,5.94,4.8,10.79,10.61,10.79
			s10.62-4.79,10.62-10.79S248.72,62.47,242.84,62.47"/>
	</g>
</g>
</svg>
