<?xml version="1.0" encoding="utf-8"?>
<!-- Generator: Adobe Illustrator 25.2.2, SVG Export Plug-In . SVG Version: 6.00 Build 0)  -->
<svg version="1.1" id="Layer_1" xmlns="http://www.w3.org/2000/svg" xmlns:xlink="http://www.w3.org/1999/xlink" x="0px" y="0px"
	 viewBox="0 0 4928 1552" style="enable-background:new 0 0 4928 1552;" xml:space="preserve">
<style type="text/css">
	.st0{clip-path:url(#SVGID_2_);}
	.st1{clip-path:url(#SVGID_4_);}
	.st2{clip-path:url(#SVGID_6_);}
	.st3{clip-path:url(#SVGID_8_);}
	.st4{clip-path:url(#SVGID_12_);fill:#D0112B;}
	.st5{clip-path:url(#SVGID_14_);fill:#FFC33C;}
	.st6{fill:#FF7338;}
	.st7{fill:#4AB513;}
	.st8{clip-path:url(#SVGID_16_);fill:#0E83CD;}
	.st9{fill:#57CBF5;}
</style>
<g>
	<defs>
		<rect id="SVGID_1_" width="4928" height="1552"/>
	</defs>
	<clipPath id="SVGID_2_">
		<use xlink:href="#SVGID_1_"  style="overflow:visible;"/>
	</clipPath>
	<g class="st0">
		<g>
			<g>
				<g>
					<g>
						<defs>
							<rect id="SVGID_3_" x="3806.9" y="-128.2" width="1245.2" height="1245.2"/>
						</defs>
						<clipPath id="SVGID_4_">
							<use xlink:href="#SVGID_3_"  style="overflow:visible;"/>
						</clipPath>
						<g class="st1">
							<defs>
								<path id="SVGID_5_" d="M5052.1,494.4c0,343.8-278.8,622.6-622.6,622.6c-343.9,0-622.6-278.8-622.6-622.6
									c0-343.9,278.7-622.6,622.6-622.6C4773.3-128.2,5052.1,150.5,5052.1,494.4z"/>
							</defs>
							<clipPath id="SVGID_6_">
								<use xlink:href="#SVGID_5_"  style="overflow:visible;"/>
							</clipPath>
							<g class="st2">
								<defs>
									<rect id="SVGID_7_" x="3806.9" y="-128.2" width="1245.2" height="1245.2"/>
								</defs>
								<clipPath id="SVGID_8_">
									<use xlink:href="#SVGID_7_"  style="overflow:visible;"/>
								</clipPath>
								<g class="st3">
									<defs>
										<rect id="SVGID_9_" x="3308.7" y="-128.2" width="1867.8" height="1245.2"/>
									</defs>
									<clipPath id="SVGID_10_">
										<use xlink:href="#SVGID_9_"  style="overflow:visible;"/>
									</clipPath>
									<g style="clip-path:url(#SVGID_10_);">
										
											<image style="overflow:visible;" width="2244" height="1496" xlink:href="D16B93B0.jpg"  transform="matrix(0.8324 0 0 0.8324 3308.6624 -128.2222)">
										</image>
									</g>
								</g>
							</g>
						</g>
					</g>
				</g>
			</g>
			<g>
				<defs>
					<rect id="SVGID_11_" x="3735.6" y="-7" width="1198" height="1196.9"/>
				</defs>
				<clipPath id="SVGID_12_">
					<use xlink:href="#SVGID_11_"  style="overflow:visible;"/>
				</clipPath>
				<path class="st4" d="M5115.1,502.8c0.9-0.9,1.4-2.1,1.4-3.4c0-1.2-0.5-2.5-1.4-3.3c-1.8-1.8-4.9-1.8-6.8,0
					c-0.8,0.8-1.4,2.1-1.4,3.3c0,1.2,0.5,2.5,1.4,3.3c0.9,0.9,2.1,1.4,3.4,1.4C5113.1,504.1,5114.3,503.6,5115.1,502.8z M4429.4-183
					c0.9-0.8,1.4-2.1,1.4-3.3c0-1.3-0.5-2.5-1.4-3.4c-1.7-1.7-4.9-1.7-6.7,0c-0.8,0.9-1.4,2.1-1.4,3.4c0,1.2,0.5,2.5,1.4,3.3
					c0.9,0.9,2.1,1.4,3.4,1.4C4427.3-181.6,4428.5-182.1,4429.4-183z M3743.7,502.8c0.8-0.9,1.4-2.1,1.4-3.4c0-1.2-0.5-2.5-1.4-3.3
					c-1.8-1.8-4.9-1.8-6.7,0c-0.9,0.8-1.4,2.1-1.4,3.3c0,1.2,0.5,2.4,1.4,3.4c0.8,0.8,2.1,1.4,3.3,1.4
					C3741.6,504.1,3742.8,503.6,3743.7,502.8z M4429.4,1188.5c0.8-0.9,1.4-2.1,1.4-3.3c0-1.2-0.5-2.5-1.4-3.4
					c-1.7-1.7-4.9-1.8-6.6,0c-0.9,0.9-1.4,2.1-1.4,3.4c0,1.2,0.5,2.4,1.4,3.4c0.9,0.8,2.1,1.4,3.3,1.4
					C4427.3,1189.9,4428.5,1189.4,4429.4,1188.5z M3736.2,528c-0.1-2.6,2-4.8,4.5-4.9c2.6-0.1,4.8,2,4.9,4.5c0,0,0,0,0.1,0
					c0.1,2.6-1.9,4.8-4.5,4.9c-0.1,0-0.1,0-0.2,0C3738.4,532.4,3736.3,530.5,3736.2,528z M3737.9,556.4c-0.2-2.6,1.7-4.9,4.4-5.1
					c2.6-0.3,4.9,1.7,5.1,4.3c0.2,2.6-1.8,4.9-4.4,5.1c-0.1,0-0.3,0-0.4,0C3740.2,560.7,3738.1,558.9,3737.9,556.4z M3740.8,584.8
					c-0.3-2.6,1.5-4.9,4.1-5.3c2.6-0.3,4.9,1.6,5.3,4.2c0.3,2.5-1.5,4.9-4.1,5.3c-0.2,0-0.4,0-0.6,0
					C3743.2,588.9,3741.1,587.2,3740.8,584.8z M3744.9,613c-0.5-2.5,1.3-5,3.9-5.4c2.5-0.5,5,1.3,5.4,3.9c0.5,2.5-1.3,5-3.9,5.4
					c-0.3,0.1-0.5,0.1-0.8,0.1C3747.3,617,3745.2,615.3,3744.9,613z M3750.1,641.1c-0.5-2.6,1.1-5.1,3.7-5.6
					c2.5-0.5,5.1,1.1,5.6,3.7c0.5,2.5-1.1,5-3.7,5.6c-0.3,0.1-0.7,0.1-0.9,0.1C3752.6,644.8,3750.6,643.3,3750.1,641.1z
					 M3756.5,668.9c-0.7-2.5,0.9-5.1,3.4-5.7c2.5-0.7,5.1,0.8,5.7,3.4c0.6,2.5-0.9,5.1-3.4,5.8c-0.4,0.1-0.8,0.1-1.2,0.1
					C3759,672.5,3757.1,671,3756.5,668.9z M3764.1,696.4c-0.7-2.5,0.7-5.1,3.2-5.9c2.5-0.7,5.1,0.7,5.9,3.2c0.7,2.5-0.7,5.1-3.2,5.9
					c-0.4,0.1-0.9,0.2-1.4,0.2C3766.6,699.8,3764.7,698.4,3764.1,696.4z M3772.8,723.7c-0.8-2.5,0.5-5.2,2.9-6
					c2.5-0.8,5.1,0.4,6,2.9c0.9,2.5-0.5,5.2-2.9,6c-0.5,0.2-1,0.3-1.5,0.3C3775.3,726.8,3773.5,725.6,3772.8,723.7z M3782.7,750.5
					L3782.7,750.5c-1-2.4,0.2-5.1,2.7-6.1c2.4-1,5.1,0.3,6.1,2.7c1,2.5-0.3,5.2-2.7,6.2c-0.6,0.2-1.2,0.3-1.7,0.3
					C3785.2,753.5,3783.4,752.4,3782.7,750.5z M3793.6,776.9c-1-2.3,0.1-5.2,2.5-6.2c2.3-1,5.1,0.1,6.2,2.5c1,2.3-0.1,5.1-2.5,6.2
					c-0.6,0.3-1.2,0.4-1.9,0.4C3796.1,779.8,3794.4,778.7,3793.6,776.9z M3805.7,802.9c-1.2-2.3-0.2-5.2,2.1-6.4
					c2.3-1.1,5.2-0.2,6.3,2.2c1.2,2.3,0.2,5.1-2.1,6.3c-0.7,0.3-1.4,0.4-2.1,0.4C3808.2,805.5,3806.5,804.5,3805.7,802.9z
					 M3818.8,828.3c-1.3-2.3-0.4-5.1,1.9-6.4c2.3-1.2,5.1-0.4,6.4,1.9c0,0,0,0,0,0.1c1.2,2.3,0.4,5.1-2,6.4
					c-0.7,0.4-1.4,0.6-2.2,0.6C3821.3,830.7,3819.6,829.8,3818.8,828.3z M3832.9,853c-1.4-2.2-0.6-5.1,1.6-6.4
					c2.2-1.4,5.1-0.7,6.5,1.6c1.3,2.2,0.6,5.1-1.7,6.4c-0.7,0.5-1.6,0.7-2.4,0.7C3835.3,855.4,3833.8,854.5,3832.9,853z
					 M3848.1,877.3c-1.4-2.1-0.8-5.1,1.4-6.5c2.2-1.4,5.1-0.8,6.6,1.3c1.4,2.2,0.8,5.1-1.4,6.6c-0.8,0.5-1.7,0.8-2.6,0.8
					C3850.5,879.4,3849,878.7,3848.1,877.3z M3864.2,900.8c-1.6-2.1-1-5.1,1.1-6.6c2.1-1.6,5.1-1,6.6,1.1c1.5,2.1,1,5.1-1.1,6.6
					c-0.8,0.6-1.8,0.9-2.7,0.9C3866.6,902.8,3865.1,902.1,3864.2,900.8z M3881.3,923.7c-1.6-2.1-1.2-5.1,0.8-6.6
					c2-1.6,5-1.3,6.6,0.8c1.6,2.1,1.2,5-0.8,6.6c-0.8,0.7-1.9,1-2.8,1C3883.6,925.6,3882.2,924.9,3881.3,923.7z M3899.4,945.9
					c-1.7-2-1.5-5,0.5-6.7c2-1.7,5-1.4,6.7,0.6c1.7,1.9,1.4,4.9-0.6,6.6c-0.8,0.8-1.9,1.1-3,1.1
					C3901.6,947.5,3900.3,947,3899.4,945.9z M3918.2,967.2c-1.8-1.9-1.6-4.9,0.3-6.7c1.9-1.8,4.9-1.6,6.7,0.3
					c1.8,1.9,1.6,4.9-0.3,6.7c-0.9,0.8-2.1,1.3-3.2,1.3C3920.5,968.8,3919.2,968.3,3918.2,967.2z M3938,987.8
					c-1.8-1.8-1.8-4.8,0-6.7c1.9-1.8,4.9-1.8,6.7,0c1.9,1.9,1.9,4.9,0,6.7c-0.9,0.9-2.1,1.4-3.3,1.4
					C3940.1,989.2,3938.9,988.7,3938,987.8z M3958.6,1007.5c-1.9-1.8-2.1-4.7-0.3-6.7c1.8-1.9,4.8-2,6.7-0.3c2,1.8,2.1,4.7,0.3,6.7
					c-0.9,1-2.1,1.6-3.4,1.6C3960.6,1008.8,3959.5,1008.4,3958.6,1007.5z M3980,1026.4c-2-1.7-2.2-4.7-0.5-6.6
					c1.7-2,4.7-2.3,6.6-0.6c2,1.7,2.2,4.7,0.6,6.7c-1,1.1-2.3,1.6-3.6,1.6C3981.9,1027.5,3980.9,1027.2,3980,1026.4z M4002.1,1044.4
					c-2.1-1.6-2.4-4.5-0.8-6.6c1.6-2.1,4.6-2.4,6.6-0.8c2.1,1.6,2.5,4.6,0.8,6.7c-0.9,1.2-2.3,1.8-3.7,1.8
					C4004,1045.5,4003,1045.1,4002.1,1044.4z M4025,1061.5c-2.1-1.6-2.6-4.5-1.1-6.6c1.5-2.1,4.5-2.6,6.6-1c2.1,1.5,2.6,4.4,1,6.6
					c-0.9,1.3-2.3,2-3.8,2C4026.8,1062.4,4025.8,1062.1,4025,1061.5z M4048.5,1077.6c-2.1-1.4-2.8-4.4-1.4-6.6
					c1.4-2.1,4.4-2.8,6.6-1.4c2.2,1.4,2.8,4.4,1.4,6.6c-0.9,1.4-2.4,2.1-4,2.1C4050.2,1078.4,4049.3,1078.1,4048.5,1077.6z
					 M4072.7,1092.7c-2.3-1.4-3-4.3-1.6-6.5c1.3-2.2,4.2-3,6.4-1.6c2.3,1.3,3,4.2,1.6,6.5c-0.8,1.4-2.4,2.3-4,2.3
					C4074.2,1093.4,4073.4,1093.2,4072.7,1092.7z M4097.4,1106.8c-2.3-1.2-3.1-4.2-1.9-6.4c1.2-2.3,4.1-3.1,6.4-1.9
					c2.3,1.2,3.2,4.1,1.9,6.4c-0.8,1.6-2.5,2.5-4.2,2.5C4098.9,1107.4,4098.1,1107.2,4097.4,1106.8z M4122.7,1119.8
					c-2.3-1.2-3.3-4-2.1-6.3c1.1-2.3,4-3.3,6.3-2.2c2.3,1.2,3.3,4,2.2,6.4c-0.8,1.6-2.5,2.6-4.3,2.6
					C4124.1,1120.3,4123.4,1120.2,4122.7,1119.8z M4148.6,1131.8c-2.4-1-3.4-3.8-2.4-6.2c1-2.4,3.8-3.5,6.2-2.4
					c2.3,1,3.4,3.8,2.4,6.2c-0.8,1.8-2.5,2.9-4.4,2.9C4149.8,1132.2,4149.1,1132.1,4148.6,1131.8z M4174.8,1142.8
					c-2.4-1-3.6-3.7-2.7-6.2c0.9-2.4,3.7-3.6,6.1-2.7c2.4,1,3.6,3.7,2.7,6.1c-0.7,1.9-2.5,3.1-4.4,3.1
					C4176,1143.1,4175.4,1142.9,4174.8,1142.8z M4201.7,1152.6c-2.5-0.8-3.8-3.5-3-6c0.9-2.5,3.6-3.8,6-2.9c2.5,0.8,3.8,3.5,2.9,6
					c-0.6,1.9-2.5,3.2-4.5,3.2C4202.6,1152.8,4202.1,1152.8,4201.7,1152.6z M4228.8,1161.3c-2.5-0.7-3.9-3.4-3.2-5.8
					c0.8-2.5,3.4-3.9,5.9-3.2c2.5,0.7,3.9,3.4,3.2,5.8c-0.7,2.1-2.5,3.4-4.5,3.4C4229.7,1161.5,4229.2,1161.4,4228.8,1161.3z
					 M4256.3,1168.8c-2.5-0.6-4-3.2-3.4-5.8c0.6-2.5,3.2-4,5.7-3.4c2.5,0.6,4,3.2,3.4,5.7c-0.5,2.1-2.4,3.6-4.5,3.6
					C4257.1,1169,4256.7,1168.9,4256.3,1168.8z M4284.1,1175.3c-2.5-0.6-4.2-3.1-3.6-5.6c0.5-2.6,3-4.2,5.6-3.7
					c2.5,0.6,4.2,3.1,3.7,5.6c-0.5,2.3-2.5,3.8-4.7,3.8C4284.7,1175.3,4284.4,1175.3,4284.1,1175.3z M4312.1,1180.5
					c-2.5-0.4-4.3-2.9-3.9-5.5c0.5-2.6,2.9-4.3,5.5-3.9c2.6,0.4,4.4,2.8,3.9,5.5c-0.4,2.3-2.4,4-4.7,4
					C4312.7,1180.6,4312.4,1180.5,4312.1,1180.5z M4340.4,1184.6c-2.5-0.3-4.4-2.7-4.1-5.3c0.3-2.6,2.7-4.5,5.3-4.2
					c2.6,0.3,4.5,2.7,4.1,5.3c-0.3,2.4-2.3,4.2-4.7,4.2C4340.8,1184.6,4340.6,1184.6,4340.4,1184.6z M4368.8,1187.5
					c-2.6-0.3-4.5-2.5-4.4-5.1c0.2-2.6,2.5-4.5,5.1-4.3c2.7,0.2,4.6,2.5,4.4,5.1c-0.2,2.5-2.3,4.4-4.7,4.4
					C4369,1187.5,4368.9,1187.5,4368.8,1187.5z M4392.8,1184.4c0.1-2.6,2.3-4.6,4.9-4.5c2.6,0.1,4.7,2.3,4.5,4.9
					c-0.1,2.6-2.3,4.6-4.9,4.5C4394.6,1189.2,4392.6,1187,4392.8,1184.4z M4393-185.6c-0.1-2.6,1.9-4.8,4.5-4.9h0.1
					c2.6-0.1,4.7,2,4.9,4.5c0.1,2.6-1.9,4.8-4.5,4.9c-0.1,0.1-0.1,0.1-0.2,0.1C4395.2-181,4393.1-183,4393-185.6z M4364.7-183.7
					c-0.2-2.6,1.8-4.9,4.3-5.1c2.6-0.2,4.9,1.7,5.1,4.4c0.2,2.6-1.7,4.9-4.3,5.1c-0.2,0-0.3,0-0.4,0
					C4367-179.3,4364.9-181.2,4364.7-183.7z M4336.5-180.6c-0.3-2.6,1.6-4.9,4.2-5.3h-0.1c2.6-0.3,5,1.5,5.3,4.1
					c0.3,2.6-1.6,4.9-4.2,5.3c-0.2,0.1-0.4,0.1-0.6,0.1C4338.9-176.4,4336.9-178.2,4336.5-180.6z M4308.6-176.4
					c-0.5-2.5,1.3-5,3.9-5.4c2.5-0.5,5,1.3,5.4,3.8c0.5,2.6-1.3,5-3.9,5.5c-0.3,0.1-0.5,0.1-0.8,0.1
					C4310.9-172.4,4308.9-174,4308.6-176.4z M4280.7-171c-0.5-2.5,1.1-5,3.6-5.6c2.6-0.5,5.1,1.1,5.6,3.7c0.6,2.5-1.1,5.1-3.6,5.6
					c-0.3,0.1-0.6,0.1-1,0.1C4283.1-167.2,4281.2-168.7,4280.7-171z M4253.1-164.4c-0.7-2.5,0.9-5.1,3.4-5.7
					c2.5-0.7,5.1,0.9,5.7,3.4c0.6,2.5-0.8,5.1-3.4,5.7c-0.4,0.1-0.8,0.1-1.2,0.1C4255.6-160.8,4253.7-162.3,4253.1-164.4z
					 M4225.9-156.7c-0.7-2.5,0.7-5.1,3.2-5.9c2.5-0.7,5.1,0.7,5.9,3.2c0.7,2.5-0.7,5.2-3.2,5.9c-0.5,0.1-0.9,0.2-1.4,0.2
					C4228.3-153.3,4226.5-154.7,4225.9-156.7z M4198.9-147.9c-0.8-2.5,0.5-5.1,2.9-6c2.5-0.8,5.2,0.5,6,2.9c0.8,2.5-0.5,5.1-3,6
					c-0.5,0.2-1,0.3-1.5,0.3C4201.4-144.7,4199.5-145.9,4198.9-147.9z M4172.3-137.9c-0.9-2.5,0.3-5.2,2.7-6.1
					c2.4-1,5.1,0.2,6.1,2.7c0.9,2.4-0.3,5.1-2.7,6.1c-0.6,0.3-1.2,0.3-1.8,0.3C4174.8-134.9,4173-136,4172.3-137.9z M4146.1-126.8
					c-1-2.4,0.1-5.2,2.5-6.2c2.3-1,5.1,0.1,6.2,2.5c1.1,2.3,0,5.1-2.4,6.2c-0.6,0.3-1.2,0.4-1.9,0.4
					C4148.6-124,4146.9-125.1,4146.1-126.8z M4120.4-114.7c-1.2-2.3-0.2-5.2,2.1-6.3c2.3-1.2,5.2-0.2,6.4,2.1
					c1.1,2.3,0.1,5.2-2.2,6.3c-0.6,0.4-1.4,0.5-2.1,0.5C4122.9-112,4121.3-113,4120.4-114.7z M4095.3-101.5
					c-1.2-2.3-0.4-5.1,1.9-6.4c2.3-1.3,5.1-0.4,6.4,1.9c1.2,2.3,0.4,5.2-1.9,6.4c-0.7,0.4-1.4,0.5-2.2,0.5
					C4097.8-99.1,4096.2-99.9,4095.3-101.5z M4070.7-87.3c-1.3-2.2-0.6-5.1,1.7-6.4c2.2-1.4,5.1-0.6,6.4,1.6
					c1.4,2.2,0.7,5.1-1.6,6.5c-0.7,0.5-1.6,0.7-2.4,0.7C4073.2-85,4071.6-85.8,4070.7-87.3z M4046.8-72.1c-1.5-2.2-0.8-5.1,1.4-6.6
					c2.1-1.4,5.1-0.8,6.5,1.4c1.4,2.2,0.8,5.1-1.4,6.6c-0.8,0.5-1.7,0.8-2.5,0.8C4049.2-69.9,4047.7-70.7,4046.8-72.1z M4023.5-55.9
					c-1.6-2.1-1-5.1,1.1-6.6h-0.1c2.1-1.6,5.1-1,6.6,1.1c1.5,2.1,1,5.1-1.1,6.6c-0.8,0.6-1.8,0.9-2.7,0.9
					C4025.9-53.9,4024.4-54.6,4023.5-55.9z M4000.9-38.8c-1.6-2.1-1.2-5,0.8-6.6c2.1-1.6,5.1-1.2,6.6,0.8c1.6,2,1.2,5-0.8,6.6
					c-0.9,0.6-1.9,1-2.9,1C4003.2-36.9,4001.9-37.5,4000.9-38.8z M3979.1-20.7c-1.7-2-1.4-4.9,0.5-6.6c2-1.7,5-1.5,6.7,0.5
					c1.7,2,1.4,5-0.6,6.7c-0.8,0.7-1.9,1.1-3,1.1C3981.3-19,3980-19.6,3979.1-20.7z M3958-1.7c-1.8-1.9-1.7-4.9,0.3-6.7
					c1.9-1.8,4.9-1.6,6.7,0.3c1.8,2,1.6,4.9-0.3,6.7c-0.9,0.8-2,1.2-3.2,1.2C3960.2-0.3,3958.9-0.8,3958-1.7z M3937.6,18
					c-1.9-1.8-1.9-4.8,0-6.7c1.8-1.8,4.8-1.8,6.7,0c1.8,1.9,1.8,4.9,0,6.7c-0.9,0.9-2.1,1.4-3.4,1.4
					C3939.8,19.4,3938.6,18.9,3937.6,18z M3918.2,38.6c-1.9-1.7-2.1-4.7-0.3-6.6c1.8-1.9,4.7-2.1,6.6-0.3c1.9,1.8,2.1,4.8,0.3,6.7
					c-1,1-2.2,1.6-3.5,1.6C3920.2,39.9,3919.1,39.4,3918.2,38.6z M3899.5,59.9c-2-1.6-2.2-4.6-0.5-6.6c1.7-2,4.7-2.2,6.6-0.5
					c2,1.6,2.3,4.6,0.6,6.6c-1,1.1-2.3,1.7-3.6,1.7C3901.6,61.1,3900.5,60.7,3899.5,59.9z M3881.8,82.1c-2-1.6-2.4-4.5-0.8-6.6
					c1.6-2.1,4.5-2.4,6.6-0.8c2,1.6,2.4,4.6,0.8,6.6c-1,1.2-2.3,1.8-3.8,1.8C3883.7,83,3882.7,82.7,3881.8,82.1z M3865.1,104.8
					c-2.1-1.5-2.6-4.4-1.1-6.6c1.5-2.1,4.5-2.6,6.6-1.1c2.1,1.5,2.7,4.5,1.1,6.6c-0.9,1.2-2.3,2-3.8,2
					C3866.8,105.8,3865.9,105.5,3865.1,104.8z M3849.2,128.3c-2.2-1.4-2.8-4.4-1.4-6.6c1.4-2.1,4.3-2.8,6.6-1.4
					c2.1,1.4,2.8,4.3,1.4,6.6c-0.9,1.4-2.4,2.1-4,2.1C3850.9,129.1,3850,128.9,3849.2,128.3z M3834.4,152.4
					c-2.2-1.3-2.9-4.2-1.6-6.4c1.4-2.3,4.2-3,6.5-1.7c2.2,1.4,3,4.3,1.6,6.5c-0.8,1.5-2.5,2.3-4,2.3
					C3836,153.1,3835.1,152.9,3834.4,152.4z M3820.5,177.2c-2.3-1.2-3.1-4.2-1.9-6.4c1.2-2.3,4.1-3.1,6.4-1.9
					c2.3,1.2,3.1,4.1,1.9,6.4c-0.8,1.6-2.5,2.5-4.2,2.5C3822,177.7,3821.3,177.5,3820.5,177.2z M3807.8,202.3
					c-2.3-1.1-3.3-4-2.1-6.3c1.1-2.3,4-3.3,6.3-2.1c2.3,1.1,3.3,4,2.2,6.3c-0.8,1.7-2.5,2.7-4.3,2.7
					C3809.1,202.9,3808.4,202.7,3807.8,202.3z M3796,228.1c-2.3-1-3.4-3.8-2.4-6.2c1-2.4,3.8-3.5,6.2-2.4c2.4,1,3.4,3.8,2.4,6.2
					c-0.8,1.8-2.5,2.9-4.3,2.9C3797.3,228.5,3796.7,228.4,3796,228.1z M3785.4,254.3c-2.4-0.9-3.6-3.7-2.7-6.1
					c1-2.4,3.7-3.6,6.1-2.7c2.5,0.9,3.6,3.7,2.7,6.1c-0.8,1.9-2.5,3-4.4,3C3786.5,254.6,3785.9,254.5,3785.4,254.3z M3775.8,281
					c-2.5-0.8-3.8-3.5-2.9-6c0.8-2.5,3.5-3.8,6-2.9c2.5,0.8,3.8,3.5,2.9,6c-0.6,1.9-2.5,3.2-4.4,3.2
					C3776.9,281.2,3776.3,281.1,3775.8,281z M3767.4,308c-2.5-0.8-4-3.4-3.2-5.9c0.7-2.5,3.4-3.9,5.8-3.2c2.5,0.8,4,3.4,3.2,5.9
					c-0.6,2-2.5,3.4-4.5,3.4C3768.2,308.2,3767.8,308.2,3767.4,308z M3760,335.4c-2.5-0.6-4.1-3.2-3.4-5.7c0.6-2.5,3.2-4,5.7-3.4
					c2.5,0.6,4.1,3.2,3.4,5.8c-0.5,2.1-2.5,3.6-4.5,3.6C3760.8,335.5,3760.4,335.5,3760,335.4z M3753.8,363.1
					c-2.5-0.6-4.2-3-3.6-5.6c0.5-2.5,3-4.2,5.6-3.6c2.6,0.5,4.2,3,3.7,5.6c-0.5,2.3-2.5,3.8-4.7,3.8
					C3754.5,363.1,3754.1,363.1,3753.8,363.1z M3748.8,390.9c-2.5-0.5-4.3-2.9-3.9-5.5c0.4-2.5,2.9-4.3,5.5-3.8
					c2.6,0.4,4.3,2.9,3.9,5.4c-0.4,2.3-2.4,4-4.7,4C3749.3,391,3749.1,391,3748.8,390.9z M3745,419c-2.6-0.4-4.5-2.7-4.2-5.3
					c0.3-2.5,2.7-4.4,5.3-4.1c2.6,0.3,4.5,2.7,4.2,5.3c-0.3,2.4-2.3,4.2-4.7,4.2C3745.4,419,3745.2,419,3745,419z M3742.3,447.2
					c-2.6-0.2-4.5-2.5-4.4-5.1c0.3-2.7,2.5-4.5,5.1-4.4c2.6,0.2,4.5,2.5,4.3,5.1c-0.2,2.5-2.3,4.4-4.7,4.4
					C3742.5,447.2,3742.4,447.2,3742.3,447.2z M3740.7,475.5c-2.6-0.1-4.6-2.3-4.5-4.9c0.1-2.6,2.3-4.6,4.9-4.5
					c2.6,0.1,4.6,2.3,4.5,4.9c-0.1,2.5-2.2,4.5-4.7,4.5C3740.8,475.5,3740.8,475.5,3740.7,475.5z M4454.5-181
					c-2.7-0.1-4.7-2.3-4.5-4.9c0.1-2.6,2.3-4.7,4.9-4.5c2.6,0.1,4.6,2.3,4.5,4.9c-0.1,2.5-2.2,4.5-4.7,4.5
					C4454.6-181,4454.6-181,4454.5-181z M4482.5-179.3c-2.6-0.2-4.5-2.5-4.3-5.1c0.2-2.6,2.5-4.5,5.1-4.4c2.6,0.3,4.5,2.5,4.4,5.1
					c-0.2,2.5-2.3,4.3-4.7,4.3C4482.8-179.3,4482.7-179.3,4482.5-179.3z M4510.6-176.4c-2.6-0.3-4.5-2.7-4.2-5.3
					c0.3-2.6,2.7-4.5,5.3-4.2h0.1c2.5,0.3,4.4,2.7,4.1,5.3c-0.3,2.4-2.3,4.2-4.7,4.2C4511-176.4,4510.8-176.4,4510.6-176.4z
					 M4538.4-172.4c-2.6-0.4-4.4-2.9-3.9-5.5c0.4-2.6,2.9-4.3,5.5-3.9c2.5,0.4,4.3,2.9,3.8,5.5c-0.4,2.3-2.4,4-4.6,4
					C4538.9-172.3,4538.7-172.4,4538.4-172.4z M4566.1-167.2c-2.6-0.6-4.2-3-3.7-5.6c0.6-2.6,3-4.2,5.6-3.7c2.5,0.5,4.2,3,3.6,5.6
					c-0.5,2.3-2.4,3.8-4.6,3.8C4566.7-167.1,4566.4-167.1,4566.1-167.2z M4593.5-160.9c-2.5-0.7-4-3.2-3.4-5.7
					c0.6-2.5,3.2-4.1,5.7-3.4c2.5,0.6,4,3.2,3.4,5.8c-0.6,2.1-2.5,3.5-4.6,3.5C4594.3-160.8,4593.9-160.8,4593.5-160.9z
					 M4620.6-153.5c-2.5-0.7-3.9-3.4-3.2-5.8c0.8-2.5,3.4-4,5.9-3.2c2.5,0.7,3.9,3.4,3.2,5.8c-0.6,2.1-2.5,3.4-4.5,3.4
					C4621.5-153.3,4621.1-153.3,4620.6-153.5z M4647.4-144.9c-2.5-0.8-3.8-3.5-2.9-6c0.8-2.5,3.5-3.8,6-2.9c2.5,0.8,3.8,3.5,2.9,6
					c-0.7,1.9-2.5,3.2-4.4,3.2C4648.5-144.6,4647.9-144.7,4647.4-144.9z M4673.8-135.1c-2.4-1-3.6-3.7-2.7-6.1
					c0.9-2.5,3.7-3.6,6.1-2.7c2.5,1,3.6,3.7,2.7,6.1c-0.7,1.9-2.5,3-4.4,3C4675-134.8,4674.4-134.9,4673.8-135.1z M4699.7-124.4
					c-2.3-1-3.4-3.8-2.4-6.2c1-2.3,3.8-3.4,6.2-2.4c2.4,1,3.4,3.8,2.4,6.2c-0.8,1.7-2.5,2.9-4.3,2.9
					C4701-124,4700.4-124.1,4699.7-124.4z M4725.3-112.5c-2.3-1.2-3.3-4-2.2-6.4c1.2-2.3,4-3.3,6.4-2.1c2.3,1.2,3.3,4,2.1,6.3
					c-0.8,1.7-2.5,2.7-4.2,2.7C4726.6-112.1,4725.9-112.2,4725.3-112.5z M4750.2-99.7c-2.3-1.2-3.1-4.1-1.9-6.4
					c1.2-2.3,4.1-3.1,6.4-1.9c2.3,1.2,3.1,4.1,1.9,6.4c-0.8,1.6-2.5,2.5-4.2,2.5C4751.7-99.1,4750.9-99.3,4750.2-99.7z M4774.7-85.8
					c-2.3-1.3-3-4.2-1.7-6.5c1.4-2.2,4.3-2.9,6.5-1.6c2.3,1.4,3,4.2,1.7,6.5c-0.9,1.5-2.5,2.3-4.1,2.3
					C4776.2-85.2,4775.4-85.4,4774.7-85.8z M4798.5-70.9c-2.2-1.4-2.8-4.3-1.4-6.6c1.4-2.2,4.4-2.8,6.6-1.4c2.1,1.4,2.8,4.3,1.3,6.6
					c-0.9,1.4-2.4,2.1-3.9,2.1C4800.2-70.1,4799.3-70.4,4798.5-70.9z M4821.6-55c-2.1-1.5-2.6-4.5-1.1-6.6c1.6-2.1,4.5-2.6,6.6-1.1
					c2.1,1.5,2.6,4.5,1.1,6.6c-1,1.3-2.4,2-3.9,2C4823.5-54.1,4822.5-54.5,4821.6-55z M4844.2-38.2c-2.1-1.6-2.5-4.5-0.8-6.6
					c1.6-2,4.6-2.4,6.6-0.8c2.1,1.6,2.4,4.5,0.8,6.6c-1,1.2-2.3,1.8-3.8,1.8C4846.1-37.2,4845.1-37.5,4844.2-38.2z M4866-20.4
					c-2-1.7-2.3-4.7-0.6-6.7c1.7-1.9,4.7-2.2,6.7-0.5c2,1.7,2.2,4.7,0.5,6.6c-0.9,1.1-2.3,1.7-3.6,1.7
					C4868-19.3,4867-19.7,4866-20.4z M4887.1-1.8c-2-1.8-2.1-4.8-0.3-6.7c1.7-1.9,4.7-2.1,6.6-0.3c2,1.8,2.1,4.7,0.3,6.7
					c-1,1-2.2,1.5-3.5,1.5C4889.2-0.6,4888.1-1,4887.1-1.8z M4907.5,17.7c-1.9-1.9-1.9-4.9,0-6.7c1.8-1.9,4.8-1.9,6.6,0h0.1
					c1.8,1.8,1.8,4.8,0,6.7c-1,0.9-2.1,1.4-3.4,1.4C4909.5,19,4908.4,18.6,4907.5,17.7z M4926.9,38c-1.8-1.9-1.6-4.9,0.3-6.7
					c1.9-1.8,4.9-1.7,6.7,0.3c1.8,1.9,1.6,4.9-0.3,6.7c-0.9,0.8-2.1,1.2-3.2,1.2C4929.1,39.5,4927.8,39,4926.9,38z M4945.6,59
					c-1.7-1.9-1.4-4.9,0.6-6.6c1.9-1.7,4.9-1.5,6.6,0.5c1.7,2,1.4,5-0.5,6.7c-0.9,0.7-2,1.1-3.1,1.1
					C4947.8,60.7,4946.5,60.1,4945.6,59z M4963.4,80.9c-1.6-2.1-1.2-5.1,0.8-6.6c2-1.6,5-1.2,6.6,0.8c1.6,2.1,1.2,5.1-0.8,6.6
					c-0.8,0.7-1.9,1-2.9,1C4965.7,82.7,4964.3,82.1,4963.4,80.9z M4980.2,103.4c-1.6-2.1-1-5.1,1.1-6.6c2.1-1.6,5.1-1,6.6,1.1
					c1.6,2.1,1,5.1-1.1,6.6c-0.8,0.6-1.8,0.9-2.7,0.9C4982.6,105.4,4981.1,104.7,4980.2,103.4z M4996.1,126.7
					c-1.4-2.1-0.8-5.1,1.4-6.5c2.2-1.4,5.1-0.8,6.6,1.4c1.4,2.1,0.8,5.1-1.4,6.5c-0.8,0.5-1.7,0.8-2.6,0.8
					C4998.5,128.8,4997,128.1,4996.1,126.7z M5011.1,150.5c-1.3-2.2-0.6-5.1,1.7-6.5c2.2-1.3,5.1-0.6,6.4,1.7
					c1.4,2.2,0.6,5.1-1.6,6.4c-0.8,0.5-1.6,0.7-2.4,0.7C5013.5,152.9,5012,152,5011.1,150.5z M5025,175c-1.2-2.3-0.4-5.1,1.9-6.4
					c2.3-1.2,5.1-0.4,6.4,1.9c1.2,2.3,0.4,5.2-1.9,6.4c-0.7,0.4-1.5,0.6-2.3,0.6C5027.5,177.5,5025.9,176.6,5025,175z M5038,200.1
					c-1.2-2.3-0.2-5.1,2.1-6.3c2.3-1.2,5.1-0.2,6.3,2.1c1.2,2.3,0.2,5.2-2.1,6.4c-0.7,0.3-1.4,0.4-2.1,0.4
					C5040.5,202.7,5038.8,201.8,5038,200.1z M5049.8,225.6c-1-2.4,0.1-5.2,2.5-6.2c2.4-1,5.1,0.1,6.2,2.5c1,2.3-0.1,5.1-2.5,6.2
					c-0.6,0.3-1.2,0.4-1.9,0.4C5052.4,228.5,5050.6,227.4,5049.8,225.6z M5060.7,251.7c-1-2.5,0.3-5.2,2.7-6.2
					c2.4-0.9,5.2,0.3,6.1,2.7c1,2.4-0.2,5.1-2.7,6.1c-0.6,0.2-1.2,0.3-1.7,0.3C5063.2,254.7,5061.4,253.6,5060.7,251.7z
					 M5070.4,278.2c-0.9-2.4,0.5-5.1,2.9-6c2.5-0.8,5.1,0.5,6,2.9c0.8,2.5-0.4,5.2-2.9,6c-0.5,0.1-1,0.3-1.6,0.3
					C5072.9,281.4,5071,280.2,5070.4,278.2z M5079,305C5079,305,5079,305,5079,305c-0.7-2.5,0.6-5.1,3.2-5.8
					c2.5-0.7,5.1,0.7,5.9,3.2c0.7,2.5-0.7,5.1-3.2,5.9c-0.4,0.1-0.8,0.2-1.3,0.2C5081.4,308.5,5079.6,307.1,5079,305z M5086.4,332.2
					c-0.7-2.6,0.8-5.1,3.4-5.8c2.5-0.7,5.1,0.9,5.7,3.4c0.7,2.5-0.9,5.1-3.4,5.7c-0.4,0.1-0.8,0.2-1.2,0.2
					C5088.9,335.8,5086.9,334.4,5086.4,332.2z M5092.7,359.6c-0.5-2.5,1.1-5.1,3.6-5.6c2.6-0.5,5.1,1.1,5.6,3.6
					c0.5,2.6-1.1,5.1-3.7,5.6c-0.3,0.1-0.7,0.1-1,0.1C5095.2,363.4,5093.2,361.9,5092.7,359.6z M5097.9,387.3
					c-0.5-2.6,1.3-5,3.9-5.4c2.5-0.5,5,1.3,5.4,3.9c0.5,2.5-1.3,5-3.9,5.4c-0.3,0.1-0.5,0.1-0.7,0.1
					C5100.3,391.2,5098.3,389.6,5097.9,387.3z M5101.9,415.1c-0.3-2.6,1.5-4.9,4.1-5.3c2.6-0.3,4.9,1.6,5.3,4.2
					c0.3,2.5-1.5,4.9-4.1,5.3c-0.2,0-0.4,0-0.6,0C5104.3,419.3,5102.2,417.5,5101.9,415.1z M5104.8,443.2c-0.2-2.6,1.8-4.9,4.4-5.1
					c2.6-0.2,4.9,1.8,5.1,4.4c0.2,2.6-1.7,4.9-4.3,5.1c-0.1,0-0.3,0-0.4,0C5107.1,447.5,5105,445.6,5104.8,443.2z M5106.5,471.2
					C5106.5,471.2,5106.5,471.2,5106.5,471.2c-0.1-2.6,2-4.8,4.5-4.9c2.6-0.1,4.8,1.9,4.9,4.5c0.1,2.7-2,4.9-4.5,4.9
					c-0.1,0-0.1,0-0.2,0C5108.7,475.8,5106.6,473.8,5106.5,471.2z M5111,532.7c-2.6-0.1-4.7-2.3-4.5-4.9c0.1-2.7,2.3-4.7,4.9-4.5
					c2.6,0.1,4.6,2.3,4.5,4.9c-0.1,2.5-2.2,4.5-4.7,4.5C5111.2,532.8,5111.1,532.8,5111,532.7z M5109.1,561
					c-2.6-0.2-4.5-2.5-4.3-5.1c0.2-2.6,2.5-4.5,5.1-4.3c2.6,0.2,4.5,2.5,4.3,5.1c-0.3,2.5-2.3,4.4-4.7,4.4
					C5109.3,561,5109.2,561,5109.1,561z M5106,589.2c-2.6-0.3-4.5-2.7-4.2-5.3c0,0,0,0,0-0.1c0.3-2.5,2.7-4.4,5.3-4.1
					c2.6,0.3,4.5,2.7,4.2,5.3V585c-0.3,2.4-2.3,4.2-4.7,4.2C5106.4,589.2,5106.2,589.2,5106,589.2z M5101.8,617.1
					c-2.6-0.4-4.3-2.8-3.9-5.4c0.4-2.6,2.8-4.4,5.5-3.9c2.6,0.4,4.3,2.8,3.9,5.4c-0.4,2.3-2.4,4-4.7,4
					C5102.3,617.2,5102,617.2,5101.8,617.1z M5096.4,645c-2.6-0.5-4.2-3-3.7-5.6c0.6-2.5,3.1-4.2,5.6-3.6c2.6,0.5,4.2,3,3.7,5.5
					c-0.5,2.3-2.5,3.8-4.7,3.8C5097,645.1,5096.7,645.1,5096.4,645z M5089.7,672.6c-2.5-0.6-4-3.2-3.4-5.8c0.6-2.5,3.2-4,5.7-3.4
					c2.5,0.6,4.1,3.2,3.4,5.7c-0.6,2.1-2.5,3.6-4.6,3.6C5090.5,672.7,5090.1,672.6,5089.7,672.6z M5082.1,699.8
					c-2.5-0.8-4-3.4-3.2-5.9c0.7-2.5,3.4-3.9,5.8-3.2c2.5,0.8,4,3.4,3.2,5.9c-0.6,2-2.5,3.4-4.5,3.4
					C5083,700,5082.5,700,5082.1,699.8z M5073.3,726.7c-2.5-0.8-3.8-3.5-2.9-6c0.8-2.5,3.5-3.8,6-2.9c2.5,0.8,3.8,3.5,2.9,6
					c-0.7,2-2.5,3.2-4.5,3.2C5074.2,727,5073.7,726.9,5073.3,726.7z M5063.3,753.3c-2.4-1-3.6-3.7-2.7-6.1c1-2.5,3.7-3.6,6.2-2.7
					c2.4,0.9,3.6,3.6,2.7,6.1c-0.8,1.9-2.5,3-4.4,3C5064.4,753.6,5063.8,753.5,5063.3,753.3z M5052.3,779.3c-2.4-1-3.5-3.8-2.4-6.2
					c1-2.4,3.8-3.5,6.2-2.5c2.3,1,3.4,3.8,2.4,6.2c-0.8,1.8-2.5,2.8-4.4,2.8C5053.5,779.7,5052.9,779.6,5052.3,779.3z M5040.2,804.9
					c-2.3-1.2-3.3-3.9-2.2-6.3c1.2-2.3,4-3.3,6.4-2.1c2.3,1.1,3.3,4,2.1,6.3c-0.8,1.6-2.5,2.7-4.2,2.7
					C5041.6,805.4,5040.9,805.2,5040.2,804.9z M5027,829.9c-2.3-1.2-3.1-4.1-1.9-6.4c1.2-2.3,4.1-3.2,6.4-2c2.3,1.2,3.2,4.1,1.9,6.4
					c-0.8,1.6-2.5,2.5-4.2,2.5C5028.5,830.5,5027.7,830.3,5027,829.9z M5012.9,854.5c-2.3-1.4-3-4.3-1.6-6.5c1.3-2.3,4.2-3,6.5-1.6
					c2.2,1.3,2.9,4.2,1.6,6.4c-0.9,1.5-2.5,2.3-4.1,2.3C5014.5,855.1,5013.7,854.9,5012.9,854.5z M4997.7,878.4
					c-2.1-1.5-2.8-4.4-1.4-6.6c1.4-2.2,4.4-2.8,6.6-1.4c2.2,1.4,2.8,4.3,1.4,6.5c-0.9,1.4-2.4,2.1-4,2.1
					C4999.4,879.1,4998.5,878.8,4997.7,878.4z M4981.5,901.6c-2.1-1.6-2.6-4.5-1-6.6c1.5-2.1,4.4-2.6,6.6-1.1
					c2.1,1.6,2.6,4.5,1.1,6.6c-0.9,1.3-2.4,1.9-3.9,1.9C4983.3,902.4,4982.4,902.2,4981.5,901.6z M4964.5,924.2
					c-2.1-1.6-2.4-4.6-0.8-6.7c1.6-2,4.6-2.4,6.7-0.8c2,1.6,2.4,4.5,0.8,6.6c-0.9,1.2-2.3,1.8-3.7,1.8
					C4966.3,925.2,4965.3,924.8,4964.5,924.2z M4946.5,946c-2-1.7-2.3-4.6-0.6-6.6c1.7-2,4.7-2.3,6.7-0.6c2,1.7,2.2,4.7,0.5,6.7
					c-0.9,1.1-2.3,1.7-3.6,1.7C4948.4,947.2,4947.3,946.8,4946.5,946z M4927.5,967.2c-1.9-1.8-2-4.8-0.3-6.7c1.8-2,4.7-2.1,6.7-0.3
					c1.9,1.8,2,4.8,0.3,6.7c-0.9,1-2.2,1.6-3.4,1.6C4929.6,968.4,4928.5,967.9,4927.5,967.2z M4907.8,987.5c-1.8-1.9-1.8-4.9,0-6.7
					c1.9-1.9,4.9-1.9,6.7,0c1.8,1.8,1.8,4.8,0,6.7c-0.9,0.9-2.1,1.4-3.3,1.4C4909.9,988.8,4908.7,988.4,4907.8,987.5z M4887.2,1007
					c-1.8-2-1.6-4.9,0.3-6.7c1.9-1.8,4.9-1.6,6.7,0.3c1.8,1.9,1.7,4.9-0.3,6.7c-0.9,0.8-2.1,1.2-3.2,1.2
					C4889.4,1008.4,4888.2,1007.9,4887.2,1007z M4865.9,1025.6c-1.7-2-1.4-5,0.6-6.7c1.9-1.7,4.9-1.4,6.6,0.6
					c1.7,1.9,1.4,4.9-0.5,6.6c-0.9,0.8-2,1.1-3.1,1.1C4868.1,1027.2,4866.8,1026.7,4865.9,1025.6z M4843.8,1043.3
					c-1.6-2-1.3-5,0.8-6.6c2.1-1.6,5.1-1.2,6.6,0.8c1.6,2,1.2,5-0.8,6.6c-0.9,0.7-1.9,1-2.9,1
					C4846.1,1045.1,4844.7,1044.5,4843.8,1043.3z M4820.9,1060.1c-1.6-2.1-1-5.1,1.1-6.6c2.1-1.5,5.1-1,6.6,1.1
					c1.5,2.1,1,5.1-1.1,6.6c-0.8,0.6-1.8,0.9-2.7,0.9C4823.3,1062.1,4821.8,1061.4,4820.9,1060.1z M4797.4,1076
					c-1.4-2.2-0.8-5.1,1.3-6.6c0,0,0,0,0.1,0c2.1-1.4,5.1-0.8,6.5,1.4c1.4,2.2,0.8,5.1-1.4,6.6c-0.8,0.5-1.7,0.8-2.6,0.8
					C4799.8,1078.2,4798.3,1077.4,4797.4,1076z M4773.3,1090.9c-1.4-2.2-0.7-5.1,1.6-6.5c2.2-1.3,5.1-0.6,6.4,1.7
					c1.4,2.2,0.7,5.1-1.6,6.4c-0.7,0.4-1.6,0.7-2.4,0.7C4775.7,1093.2,4774.1,1092.4,4773.3,1090.9z M4748.5,1104.8
					c-1.2-2.3-0.4-5.1,1.9-6.4c2.3-1.2,5.1-0.4,6.4,1.9c1.2,2.3,0.4,5.1-1.9,6.4c-0.7,0.4-1.5,0.6-2.3,0.6
					C4751,1107.2,4749.3,1106.3,4748.5,1104.8z M4723.2,1117.6c-1.1-2.3-0.2-5.2,2.2-6.4c2.3-1.1,5.1-0.1,6.3,2.2
					c1.2,2.3,0.2,5.1-2.1,6.3c-0.7,0.3-1.4,0.5-2.1,0.5C4725.7,1120.3,4724,1119.3,4723.2,1117.6z M4697.3,1129.4
					c-1-2.4,0.1-5.1,2.5-6.2c2.3-1.1,5.1,0,6.2,2.4c1,2.3-0.1,5.2-2.5,6.2c-0.6,0.3-1.2,0.4-1.9,0.4
					C4699.9,1132.2,4698.1,1131.2,4697.3,1129.4z M4671,1140.1c-1-2.4,0.3-5.2,2.7-6.1c2.5-1,5.2,0.3,6.2,2.7
					c0.9,2.5-0.3,5.2-2.7,6.1c-0.5,0.3-1.1,0.3-1.7,0.3C4673.6,1143.1,4671.8,1142,4671,1140.1z M4644.3,1149.7
					c-0.8-2.5,0.4-5.1,2.9-6c2.5-0.8,5.2,0.5,6,3c0.8,2.5-0.5,5.1-2.9,6c-0.5,0.2-1,0.3-1.6,0.3
					C4646.8,1152.9,4645,1151.6,4644.3,1149.7z M4617.2,1158.1c-0.7-2.5,0.7-5.1,3.2-5.8c0,0,0,0,0.1,0c2.5-0.8,5.1,0.7,5.8,3.2
					c0.7,2.5-0.7,5.1-3.2,5.8c-0.4,0.1-0.9,0.2-1.4,0.2C4619.7,1161.5,4617.8,1160.2,4617.2,1158.1z M4589.8,1165.5
					c-0.7-2.5,0.8-5.1,3.4-5.7c2.5-0.7,5.1,0.9,5.8,3.4c0.7,2.6-0.9,5.1-3.4,5.8c-0.4,0.1-0.8,0.1-1.2,0.1
					C4592.2,1169,4590.4,1167.6,4589.8,1165.5z M4562.1,1171.6c-0.5-2.5,1.1-5,3.7-5.6c2.5-0.5,5.1,1.1,5.6,3.7
					c0.5,2.5-1.1,5-3.6,5.6c-0.3,0.1-0.7,0.1-1,0.1C4564.6,1175.4,4562.6,1173.9,4562.1,1171.6z M4534.3,1176.6
					c-0.5-2.5,1.3-5,3.9-5.4c2.5-0.5,5,1.3,5.4,3.9c0.5,2.5-1.3,5-3.9,5.4c-0.3,0.1-0.5,0.1-0.7,0.1
					C4536.6,1180.6,4534.7,1179,4534.3,1176.6z M4506.2,1180.5c-0.3-2.6,1.6-4.9,4.2-5.3c2.5-0.3,4.9,1.5,5.3,4.1
					c0.3,2.6-1.6,4.9-4.2,5.3c-0.2,0-0.3,0.1-0.5,0.1C4508.5,1184.7,4506.5,1182.9,4506.2,1180.5z M4478,1183.3
					c-0.3-2.7,1.7-4.9,4.3-5.1c2.6-0.2,4.9,1.7,5.1,4.4c0.2,2.5-1.8,4.9-4.3,5.1c-0.1,0-0.3,0-0.3,0
					C4480.3,1187.5,4478.2,1185.7,4478,1183.3z M4449.7,1184.8c-0.1-2.6,1.9-4.8,4.5-4.9c2.6-0.1,4.8,2,4.9,4.5
					c0.1,2.6-1.9,4.8-4.5,4.9c-0.1,0-0.1,0-0.2,0C4451.9,1189.3,4449.8,1187.3,4449.7,1184.8z"/>
			</g>
			<g>
				<defs>
					<rect id="SVGID_13_" x="3446.1" y="-7" width="626" height="313"/>
				</defs>
				<clipPath id="SVGID_14_">
					<use xlink:href="#SVGID_13_"  style="overflow:visible;"/>
				</clipPath>
				<path class="st5" d="M3759.1-320c-172.9,0-313,140.1-313,313s140.1,313,313,313s313-140.1,313-313S3932-320,3759.1-320z
					 M3759.1-288.7c155.3,0,281.7,126.4,281.7,281.7s-126.4,281.7-281.7,281.7S3477.4,148.3,3477.4-7S3603.8-288.7,3759.1-288.7"/>
			</g>
			<g>
				<path class="st6" d="M4856.3,775.5c-4.2,0-8.4,0.1-12.6,0.3c-4.2,0.2-8.4,0.5-12.6,0.9c-4.2,0.4-8.4,0.9-12.5,1.5
					c-4.2,0.6-8.3,1.3-12.4,2.2c-4.1,0.8-8.2,1.7-12.3,2.8c-4.1,1-8.1,2.1-12.2,3.4c-4,1.2-8,2.5-12,4c-4,1.4-7.9,2.9-11.8,4.5
					c-3.9,1.6-7.7,3.3-11.5,5.1s-7.6,3.7-11.3,5.7c-3.7,2-7.4,4.1-11,6.2c-3.6,2.2-7.2,4.4-10.7,6.7c-3.5,2.3-6.9,4.8-10.3,7.3
					c-3.4,2.5-6.7,5.1-9.9,7.8s-6.4,5.4-9.5,8.2c-3.1,2.8-6.2,5.7-9.1,8.7c-3,3-5.9,6-8.7,9.1c-2.8,3.1-5.6,6.3-8.2,9.5
					c-2.7,3.2-5.3,6.6-7.8,9.9c-2.5,3.4-4.9,6.8-7.3,10.3c-2.3,3.5-4.6,7-6.7,10.7c-2.2,3.6-4.2,7.3-6.2,11c-2,3.7-3.9,7.5-5.7,11.3
					c-1.8,3.8-3.5,7.6-5.1,11.5s-3.1,7.8-4.5,11.8s-2.7,7.9-4,12c-1.2,4-2.3,8.1-3.4,12.2c-1,4.1-1.9,8.2-2.8,12.3
					c-0.8,4.1-1.5,8.3-2.2,12.4c-0.6,4.2-1.1,8.3-1.5,12.5c-0.4,4.2-0.7,8.4-0.9,12.6c-0.2,4.2-0.3,8.4-0.3,12.6
					c0,4.2,0.1,8.4,0.3,12.6c0.2,4.2,0.5,8.4,0.9,12.6c0.4,4.2,0.9,8.4,1.5,12.5c0.6,4.2,1.3,8.3,2.2,12.4c0.8,4.1,1.7,8.2,2.8,12.3
					c1,4.1,2.1,8.1,3.4,12.2c1.2,4,2.5,8,4,12c1.4,4,2.9,7.9,4.5,11.8c1.6,3.9,3.3,7.7,5.1,11.5c1.8,3.8,3.7,7.6,5.7,11.3
					c2,3.7,4.1,7.4,6.2,11c2.2,3.6,4.4,7.2,6.7,10.7c2.3,3.5,4.8,6.9,7.3,10.3c2.5,3.4,5.1,6.7,7.8,9.9c2.7,3.2,5.4,6.4,8.2,9.5
					c2.8,3.1,5.7,6.2,8.7,9.1s6,5.9,9.1,8.7c3.1,2.8,6.3,5.6,9.5,8.2s6.6,5.3,9.9,7.8c3.4,2.5,6.8,4.9,10.3,7.3s7,4.6,10.7,6.7
					c3.6,2.2,7.3,4.2,11,6.2c3.7,2,7.5,3.9,11.3,5.7c3.8,1.8,7.6,3.5,11.5,5.1c3.9,1.6,7.8,3.1,11.8,4.5c4,1.4,7.9,2.7,12,4
					c4,1.2,8.1,2.3,12.2,3.4c4.1,1,8.2,1.9,12.3,2.8c4.1,0.8,8.3,1.5,12.4,2.2c4.2,0.6,8.3,1.1,12.5,1.5c4.2,0.4,8.4,0.7,12.6,0.9
					s8.4,0.3,12.6,0.3c4.2,0,8.4-0.1,12.6-0.3s8.4-0.5,12.6-0.9c4.2-0.4,8.4-0.9,12.5-1.5c4.2-0.6,8.3-1.3,12.4-2.2
					c4.1-0.8,8.2-1.7,12.3-2.8c4.1-1,8.1-2.1,12.2-3.4c4-1.2,8-2.5,12-4s7.9-2.9,11.8-4.5c3.9-1.6,7.7-3.3,11.5-5.1
					c3.8-1.8,7.6-3.7,11.3-5.7c3.7-2,7.4-4.1,11-6.2c3.6-2.2,7.2-4.4,10.7-6.7c3.5-2.3,6.9-4.8,10.3-7.3c3.4-2.5,6.7-5.1,9.9-7.8
					c3.2-2.7,6.4-5.4,9.5-8.2s6.2-5.7,9.1-8.7c3-3,5.9-6,8.7-9.1c2.8-3.1,5.6-6.3,8.2-9.5c2.7-3.2,5.3-6.6,7.8-9.9s4.9-6.8,7.3-10.3
					c2.3-3.5,4.6-7,6.7-10.7c2.2-3.6,4.2-7.3,6.2-11s3.9-7.5,5.7-11.3c1.8-3.8,3.5-7.6,5.1-11.5c1.6-3.9,3.1-7.8,4.5-11.8
					c1.4-4,2.7-7.9,4-12c1.2-4,2.3-8.1,3.4-12.2c1-4.1,1.9-8.2,2.8-12.3c0.8-4.1,1.5-8.3,2.2-12.4c0.6-4.2,1.1-8.3,1.5-12.5
					c0.4-4.2,0.7-8.4,0.9-12.6c0.2-4.2,0.3-8.4,0.3-12.6c0-4.2-0.1-8.4-0.3-12.6s-0.5-8.4-0.9-12.6c-0.4-4.2-0.9-8.4-1.5-12.5
					c-0.6-4.2-1.3-8.3-2.2-12.4c-0.8-4.1-1.7-8.2-2.8-12.3c-1-4.1-2.1-8.1-3.4-12.2c-1.2-4-2.5-8-4-12c-1.4-4-2.9-7.9-4.5-11.8
					s-3.3-7.7-5.1-11.5c-1.8-3.8-3.7-7.6-5.7-11.3c-2-3.7-4.1-7.4-6.2-11c-2.2-3.6-4.4-7.2-6.7-10.7c-2.3-3.5-4.8-6.9-7.3-10.3
					c-2.5-3.4-5.1-6.7-7.8-9.9c-2.7-3.2-5.4-6.4-8.2-9.5s-5.7-6.2-8.7-9.1c-3-3-6-5.9-9.1-8.7c-3.1-2.8-6.3-5.6-9.5-8.2
					c-3.2-2.7-6.6-5.3-9.9-7.8c-3.4-2.5-6.8-4.9-10.3-7.3c-3.5-2.3-7-4.6-10.7-6.7c-3.6-2.2-7.3-4.2-11-6.2c-3.7-2-7.5-3.9-11.3-5.7
					s-7.6-3.5-11.5-5.1c-3.9-1.6-7.8-3.1-11.8-4.5c-4-1.4-7.9-2.7-12-4c-4-1.2-8.1-2.3-12.2-3.4s-8.2-1.9-12.3-2.8
					c-4.1-0.8-8.3-1.5-12.4-2.2c-4.2-0.6-8.3-1.1-12.5-1.5s-8.4-0.7-12.6-0.9C4864.7,775.6,4860.5,775.5,4856.3,775.5z"/>
				<path class="st7" d="M3662.8,149.5c-3.2,0-6.3,0.1-9.4,0.4c-3.1,0.3-6.3,0.7-9.4,1.3c-3.1,0.6-6.2,1.3-9.2,2.2s-6,1.9-8.9,3.1
					c-2.9,1.2-5.8,2.5-8.5,3.9c-2.8,1.4-5.5,3-8.1,4.7s-5.2,3.5-7.6,5.4c-2.4,1.9-4.8,4-7,6.1c-2.2,2.2-4.3,4.4-6.3,6.8
					c-2,2.4-3.9,4.8-5.6,7.3c-1.8,2.5-3.4,5.2-4.9,7.8s-2.8,5.4-4,8.3c-1.2,2.8-2.3,5.7-3.2,8.6c-0.9,2.9-1.7,5.9-2.3,8.9
					c-0.6,3-1.1,6-1.4,9c-0.3,3-0.5,6.1-0.5,9.1c0,3.1,0.2,6.1,0.5,9.1c0.3,3,0.8,6.1,1.4,9c0.6,3,1.4,6,2.3,8.9
					c0.9,2.9,2,5.8,3.2,8.6c1.2,2.8,2.6,5.6,4,8.3c1.5,2.7,3.1,5.3,4.9,7.8s3.6,5,5.6,7.3c2,2.4,4.1,4.6,6.3,6.8
					c2.2,2.2,4.6,4.2,7,6.1c2.4,1.9,5,3.8,7.6,5.4c2.6,1.7,5.3,3.3,8.1,4.7c2.8,1.4,5.6,2.7,8.5,3.9c2.9,1.2,5.9,2.2,8.9,3.1
					s6.1,1.6,9.2,2.2c3.1,0.6,6.2,1,9.4,1.3c3.1,0.3,6.3,0.4,9.4,0.4c3.2,0,6.3-0.1,9.4-0.4c3.1-0.3,6.3-0.7,9.4-1.3
					c3.1-0.6,6.2-1.3,9.2-2.2c3-0.9,6-1.9,8.9-3.1c2.9-1.2,5.8-2.5,8.5-3.9c2.8-1.4,5.5-3,8.1-4.7c2.6-1.7,5.2-3.5,7.6-5.4
					c2.4-1.9,4.8-4,7-6.1c2.2-2.2,4.3-4.4,6.3-6.8c2-2.4,3.9-4.8,5.6-7.3c1.8-2.5,3.4-5.2,4.9-7.8c1.5-2.7,2.8-5.4,4-8.3
					c1.2-2.8,2.3-5.7,3.2-8.6c0.9-2.9,1.7-5.9,2.3-8.9c0.6-3,1.1-6,1.4-9c0.3-3,0.5-6.1,0.5-9.1c0-3.1-0.2-6.1-0.5-9.1
					c-0.3-3-0.8-6.1-1.4-9c-0.6-3-1.4-6-2.3-8.9s-2-5.8-3.2-8.6c-1.2-2.8-2.6-5.6-4-8.3s-3.1-5.3-4.9-7.8c-1.8-2.5-3.6-5-5.6-7.3
					c-2-2.4-4.1-4.6-6.3-6.8c-2.2-2.2-4.6-4.2-7-6.1c-2.4-1.9-5-3.8-7.6-5.4c-2.6-1.7-5.3-3.3-8.1-4.7c-2.8-1.4-5.6-2.7-8.5-3.9
					c-2.9-1.2-5.9-2.2-8.9-3.1c-3-0.9-6.1-1.6-9.2-2.2c-3.1-0.6-6.2-1-9.4-1.3C3669.1,149.6,3666,149.5,3662.8,149.5z"/>
			</g>
			<g>
				<defs>
					<rect id="SVGID_15_" x="4335.2" y="1117" width="598.4" height="441"/>
				</defs>
				<clipPath id="SVGID_16_">
					<use xlink:href="#SVGID_15_"  style="overflow:visible;"/>
				</clipPath>
				<path class="st8" d="M4777.2,1144.3c-229.2,0-414.7,185.5-414.7,414.7s185.5,414.7,414.7,414.7c229.2,0,414.7-185.5,414.7-414.7
					S5005,1144.3,4777.2,1144.3L4777.2,1144.3z M4777.2,2000.9c-244.2,0-442-199.2-442-442s197.8-442,442-442s442,197.8,442,442
					S5020,2000.9,4777.2,2000.9z"/>
			</g>
			<g>
				<path class="st9" d="M4496.4,1153c-2.3,0-4.6,0.1-6.9,0.3s-4.6,0.5-6.8,1c-2.3,0.4-4.5,1-6.7,1.6c-2.2,0.6-4.4,1.4-6.5,2.3
					c-2.1,0.9-4.2,1.8-6.2,2.9s-4,2.2-5.9,3.4c-1.9,1.2-3.8,2.6-5.6,4c-1.8,1.4-3.5,2.9-5.1,4.5c-1.6,1.6-3.2,3.2-4.6,5
					c-1.5,1.7-2.8,3.5-4.1,5.4c-1.3,1.9-2.5,3.8-3.6,5.7c-1.1,2-2.1,4-3,6c-0.9,2.1-1.7,4.2-2.3,6.3c-0.7,2.1-1.2,4.3-1.7,6.5
					c-0.4,2.2-0.8,4.4-1,6.6c-0.2,2.2-0.3,4.4-0.3,6.7c0,2.2,0.1,4.5,0.3,6.7c0.2,2.2,0.6,4.4,1,6.6c0.5,2.2,1,4.4,1.7,6.5
					c0.7,2.1,1.4,4.2,2.3,6.3c0.9,2.1,1.9,4.1,3,6c1.1,2,2.3,3.9,3.6,5.7c1.3,1.9,2.7,3.6,4.1,5.4c1.5,1.7,3,3.4,4.6,5
					c1.6,1.6,3.3,3.1,5.1,4.5c1.8,1.4,3.6,2.7,5.6,4c1.9,1.2,3.9,2.4,5.9,3.4c2,1.1,4.1,2,6.2,2.9c2.1,0.9,4.3,1.6,6.5,2.3
					c2.2,0.6,4.4,1.2,6.7,1.6c2.3,0.4,4.5,0.8,6.8,1c2.3,0.2,4.6,0.3,6.9,0.3s4.6-0.1,6.9-0.3c2.3-0.2,4.6-0.5,6.8-1
					c2.3-0.4,4.5-1,6.7-1.6c2.2-0.6,4.4-1.4,6.5-2.3c2.1-0.9,4.2-1.8,6.2-2.9c2-1.1,4-2.2,5.9-3.4c1.9-1.2,3.8-2.6,5.6-4
					c1.8-1.4,3.5-2.9,5.1-4.5c1.6-1.6,3.2-3.2,4.6-5c1.5-1.7,2.8-3.5,4.1-5.4c1.3-1.9,2.5-3.8,3.6-5.7c1.1-2,2.1-4,3-6
					c0.9-2.1,1.7-4.2,2.3-6.3c0.7-2.1,1.2-4.3,1.7-6.5c0.4-2.2,0.8-4.4,1-6.6s0.3-4.4,0.3-6.7c0-2.2-0.1-4.5-0.3-6.7
					c-0.2-2.2-0.6-4.4-1-6.6c-0.5-2.2-1-4.4-1.7-6.5c-0.7-2.1-1.4-4.2-2.3-6.3c-0.9-2.1-1.9-4.1-3-6c-1.1-2-2.3-3.9-3.6-5.7
					c-1.3-1.9-2.7-3.6-4.1-5.4c-1.5-1.7-3-3.4-4.6-5c-1.6-1.6-3.3-3.1-5.1-4.5c-1.8-1.4-3.6-2.7-5.6-4c-1.9-1.2-3.9-2.4-5.9-3.4
					s-4.1-2-6.2-2.9c-2.1-0.9-4.3-1.6-6.5-2.3c-2.2-0.6-4.4-1.2-6.7-1.6c-2.3-0.4-4.5-0.8-6.8-1
					C4501,1153.1,4498.7,1153,4496.4,1153z"/>
			</g>
		</g>
	</g>
</g>
</svg>
