<?xml version="1.0" encoding="utf-8"?>
<!-- Generator: Adobe Illustrator 25.2.2, SVG Export Plug-In . SVG Version: 6.00 Build 0)  -->
<svg version="1.1" id="Layer_1" xmlns="http://www.w3.org/2000/svg" xmlns:xlink="http://www.w3.org/1999/xlink" x="0px" y="0px"
	 viewBox="0 0 4928 1552" style="enable-background:new 0 0 4928 1552;" xml:space="preserve">
<style type="text/css">
	.st0{clip-path:url(#SVGID_2_);}
	.st1{clip-path:url(#SVGID_4_);}
	.st2{clip-path:url(#SVGID_6_);fill:#D0112B;}
	.st3{clip-path:url(#SVGID_8_);}
	.st4{clip-path:url(#SVGID_10_);}
	.st5{clip-path:url(#SVGID_12_);}
	.st6{clip-path:url(#SVGID_16_);}
	.st7{clip-path:url(#SVGID_18_);fill:#FFC33C;}
	.st8{fill:#FF7338;}
	.st9{fill:#4AB513;}
	.st10{clip-path:url(#SVGID_20_);}
	.st11{clip-path:url(#SVGID_22_);fill:#0E83CD;}
	.st12{fill:#57CBF5;}
</style>
<g>
	<defs>
		<rect id="SVGID_1_" width="4928" height="1552"/>
	</defs>
	<clipPath id="SVGID_2_">
		<use xlink:href="#SVGID_1_"  style="overflow:visible;"/>
	</clipPath>
	<g class="st0">
		<g>
			<g>
				<g>
					<g>
						<defs>
							<rect id="SVGID_3_" x="107.4" y="292.4" width="1278.9" height="1278.9"/>
						</defs>
						<clipPath id="SVGID_4_">
							<use xlink:href="#SVGID_3_"  style="overflow:visible;"/>
						</clipPath>
						<g class="st1">
							<defs>
								<rect id="SVGID_5_" x="107.4" y="292.4" width="1278.9" height="1278.9"/>
							</defs>
							<clipPath id="SVGID_6_">
								<use xlink:href="#SVGID_5_"  style="overflow:visible;"/>
							</clipPath>
							<path class="st2" d="M108.8,928.7c-0.8,0.8-1.3,1.9-1.3,3.1c0,1.1,0.5,2.3,1.3,3.1c1.6,1.7,4.6,1.7,6.3,0
								c0.8-0.8,1.3-1.9,1.3-3.1c0-1.1-0.5-2.3-1.3-3.1c-0.8-0.8-1.9-1.3-3.1-1.3C110.6,927.5,109.6,928,108.8,928.7z M743.8,1563.9
								c-0.8,0.8-1.3,1.9-1.3,3.1c0,1.2,0.5,2.3,1.3,3.1c1.6,1.6,4.5,1.6,6.2,0c0.8-0.8,1.3-2,1.3-3.1c0-1.1-0.5-2.3-1.3-3.1
								c-0.8-0.8-1.9-1.3-3.1-1.3C745.7,1562.5,744.7,1563,743.8,1563.9z M1378.8,928.7c-0.8,0.8-1.3,1.9-1.3,3.1
								c0,1.1,0.5,2.3,1.3,3.1c1.7,1.7,4.5,1.7,6.2,0c0.8-0.8,1.3-1.9,1.3-3.1c0-1.1-0.5-2.2-1.3-3.1c-0.8-0.8-1.9-1.3-3.1-1.3
								C1380.7,927.5,1379.6,928,1378.8,928.7z M743.8,293.8c-0.8,0.8-1.3,1.9-1.3,3.1c0,1.1,0.5,2.3,1.3,3.1c1.6,1.6,4.5,1.6,6.1,0
								c0.8-0.8,1.3-2,1.3-3.1c0-1.1-0.5-2.2-1.3-3.1c-0.8-0.8-1.9-1.3-3.1-1.3C745.7,292.4,744.7,292.9,743.8,293.8z M1385.8,905.4
								c0.1,2.4-1.8,4.4-4.2,4.6c-2.4,0.1-4.5-1.8-4.5-4.2c0,0,0,0-0.1,0c-0.1-2.4,1.8-4.5,4.2-4.5c0.1,0,0.1,0,0.2,0
								C1383.7,901.3,1385.7,903.1,1385.8,905.4z M1384.2,879.1c0.2,2.4-1.6,4.5-4,4.7c-2.4,0.2-4.5-1.6-4.7-4
								c-0.2-2.4,1.6-4.5,4-4.8c0.1,0,0.2,0,0.4,0C1382.1,875.1,1384,876.8,1384.2,879.1z M1381.4,852.8c0.3,2.4-1.4,4.6-3.8,4.9
								c-2.4,0.3-4.6-1.4-4.9-3.9c-0.3-2.4,1.4-4.6,3.8-4.9c0.2,0,0.4,0,0.5,0C1379.3,849,1381.2,850.6,1381.4,852.8z M1377.7,826.7
								c0.4,2.3-1.2,4.6-3.6,5c-2.3,0.4-4.6-1.2-5-3.6c-0.4-2.4,1.2-4.6,3.6-5c0.2-0.1,0.5-0.1,0.7-0.1
								C1375.5,823,1377.4,824.5,1377.7,826.7z M1372.9,800.6c0.5,2.4-1,4.7-3.4,5.2c-2.3,0.5-4.7-1-5.2-3.4c-0.5-2.3,1-4.7,3.4-5.2
								c0.3-0.1,0.6-0.1,0.8-0.1C1370.6,797.2,1372.4,798.6,1372.9,800.6z M1366.9,774.9c0.6,2.4-0.8,4.8-3.2,5.3
								c-2.4,0.6-4.7-0.8-5.3-3.1c-0.6-2.3,0.8-4.8,3.2-5.3c0.4-0.1,0.7-0.1,1.1-0.1C1364.6,771.6,1366.4,772.9,1366.9,774.9z
								 M1359.9,749.4c0.7,2.3-0.7,4.8-2.9,5.5c-2.3,0.7-4.8-0.7-5.5-2.9c-0.7-2.3,0.7-4.8,2.9-5.5c0.4-0.1,0.8-0.2,1.3-0.2
								C1357.6,746.3,1359.3,747.6,1359.9,749.4z M1351.8,724.2c0.8,2.3-0.4,4.8-2.7,5.6c-2.3,0.8-4.8-0.4-5.5-2.7
								c-0.8-2.3,0.4-4.8,2.7-5.6c0.5-0.2,0.9-0.2,1.4-0.2C1349.5,721.2,1351.2,722.4,1351.8,724.2z M1342.7,699.4L1342.7,699.4
								c0.9,2.2-0.2,4.8-2.5,5.6c-2.2,0.9-4.7-0.2-5.7-2.5c-0.9-2.3,0.2-4.8,2.5-5.7c0.5-0.2,1.1-0.3,1.6-0.3
								C1340.4,696.5,1342,697.6,1342.7,699.4z M1332.6,674.9c1,2.2-0.1,4.8-2.3,5.8c-2.2,1-4.7-0.1-5.8-2.3c-1-2.2,0.1-4.8,2.3-5.8
								c0.5-0.2,1.1-0.4,1.7-0.4C1330.2,672.2,1331.9,673.3,1332.6,674.9z M1321.4,650.8c1.1,2.2,0.2,4.8-2,5.9
								c-2.2,1-4.8,0.2-5.8-2c-1.1-2.2-0.2-4.8,2-5.8c0.6-0.3,1.3-0.4,1.9-0.4C1319.1,648.4,1320.6,649.3,1321.4,650.8z
								 M1309.3,627.3c1.2,2.1,0.4,4.8-1.7,6c-2.1,1.1-4.8,0.4-6-1.7c0,0,0,0,0-0.1c-1.1-2.1-0.4-4.8,1.8-5.9c0.7-0.4,1.3-0.5,2-0.5
								C1307,625.1,1308.5,625.9,1309.3,627.3z M1296.1,604.4c1.3,2.1,0.6,4.8-1.5,5.9c-2,1.3-4.7,0.6-6-1.5c-1.2-2-0.5-4.8,1.6-5.9
								c0.7-0.5,1.4-0.7,2.2-0.7C1293.9,602.2,1295.4,603,1296.1,604.4z M1282.1,582c1.3,2,0.8,4.7-1.3,6c-2,1.3-4.8,0.8-6.1-1.2
								c-1.3-2-0.7-4.7,1.3-6.1c0.7-0.5,1.6-0.7,2.4-0.7C1279.9,580,1281.3,580.6,1282.1,582z M1267.2,560.1c1.4,1.9,1,4.7-1,6.1
								c-1.9,1.4-4.7,1-6.1-1c-1.4-1.9-1-4.7,1-6.1c0.8-0.5,1.6-0.8,2.5-0.8C1265,558.3,1266.3,558.9,1267.2,560.1z M1251.4,538.9
								c1.5,1.9,1.1,4.7-0.8,6.1c-1.9,1.5-4.6,1.2-6.1-0.7c-1.5-1.9-1.1-4.6,0.8-6.1c0.8-0.7,1.7-1,2.6-1
								C1249.2,537.2,1250.5,537.8,1251.4,538.9z M1234.7,518.4c1.6,1.9,1.4,4.6-0.5,6.2c-1.9,1.6-4.6,1.3-6.2-0.5
								c-1.6-1.8-1.3-4.6,0.5-6.1c0.8-0.7,1.8-1,2.8-1C1232.5,516.9,1233.8,517.4,1234.7,518.4z M1217.2,498.6
								c1.6,1.7,1.5,4.6-0.2,6.2c-1.8,1.6-4.6,1.5-6.2-0.2c-1.6-1.8-1.5-4.6,0.2-6.2c0.8-0.8,1.9-1.2,3-1.2
								C1215.1,497.2,1216.3,497.7,1217.2,498.6z M1198.9,479.6c1.7,1.7,1.7,4.5,0,6.2c-1.7,1.7-4.5,1.7-6.2,0
								c-1.7-1.7-1.7-4.5,0-6.2c0.8-0.8,1.9-1.3,3.1-1.3C1196.9,478.3,1198,478.7,1198.9,479.6z M1179.8,461.3
								c1.8,1.6,1.9,4.4,0.3,6.2c-1.7,1.7-4.4,1.9-6.2,0.2c-1.8-1.6-1.9-4.4-0.2-6.2c0.8-1,2-1.4,3.2-1.4
								C1177.9,460.1,1178.9,460.5,1179.8,461.3z M1160,443.8c1.9,1.6,2,4.3,0.5,6.1c-1.6,1.9-4.3,2.1-6.1,0.5
								c-1.9-1.6-2-4.3-0.5-6.2c0.9-1,2.1-1.5,3.4-1.5C1158.2,442.8,1159.2,443.1,1160,443.8z M1139.5,427.2
								c1.9,1.4,2.2,4.2,0.8,6.1c-1.5,1.9-4.3,2.2-6.1,0.8c-1.9-1.5-2.3-4.3-0.8-6.2c0.8-1.1,2.2-1.7,3.4-1.7
								C1137.7,426.2,1138.7,426.6,1139.5,427.2z M1118.3,411.4c2,1.4,2.4,4.1,1,6.1c-1.4,1.9-4.1,2.4-6.1,1c-1.9-1.4-2.4-4.1-1-6.1
								c0.8-1.2,2.2-1.9,3.5-1.9C1116.6,410.5,1117.6,410.8,1118.3,411.4z M1096.6,396.4c2,1.3,2.6,4,1.3,6.1c-1.3,2-4,2.6-6.1,1.3
								c-2-1.3-2.6-4-1.3-6.1c0.8-1.3,2.2-2,3.7-2C1094.9,395.7,1095.8,396,1096.6,396.4z M1074.1,382.4c2.1,1.3,2.8,4,1.5,6
								c-1.2,2-3.9,2.8-5.9,1.5c-2.1-1.2-2.8-3.9-1.5-6c0.8-1.3,2.2-2.1,3.7-2.1C1072.7,381.8,1073.5,382,1074.1,382.4z
								 M1051.2,369.4c2.1,1.1,2.9,3.9,1.7,5.9c-1.1,2.1-3.8,2.9-5.9,1.7c-2.2-1.1-2.9-3.8-1.8-5.9c0.8-1.5,2.4-2.3,3.9-2.3
								C1049.9,368.8,1050.6,369,1051.2,369.4z M1027.8,357.3c2.2,1.1,3.1,3.7,2,5.8c-1,2.2-3.7,3.1-5.8,2c-2.2-1.1-3.1-3.7-2-5.9
								c0.8-1.5,2.3-2.4,4-2.4C1026.5,356.9,1027.2,357,1027.8,357.3z M1003.9,346.2c2.2,1,3.2,3.5,2.2,5.8c-1,2.2-3.5,3.2-5.8,2.2
								c-2.2-1-3.2-3.5-2.2-5.7c0.7-1.7,2.3-2.6,4-2.6C1002.7,345.8,1003.3,345.9,1003.9,346.2z M979.5,336.1
								c2.2,0.9,3.4,3.4,2.5,5.7c-0.8,2.2-3.4,3.3-5.7,2.5c-2.2-0.9-3.4-3.4-2.5-5.6c0.7-1.7,2.4-2.8,4.1-2.8
								C978.4,335.8,979,335.9,979.5,336.1z M954.7,327c2.3,0.8,3.5,3.2,2.8,5.5c-0.8,2.3-3.3,3.6-5.6,2.7c-2.3-0.7-3.5-3.2-2.7-5.5
								c0.6-1.8,2.3-2.9,4.1-2.9C953.8,326.8,954.3,326.8,954.7,327z M929.6,319c2.3,0.7,3.6,3.1,3,5.4c-0.7,2.3-3.1,3.7-5.5,2.9
								c-2.3-0.7-3.6-3.1-2.9-5.4c0.6-1.9,2.3-3.1,4.2-3.1C928.7,318.8,929.2,318.8,929.6,319z M904.1,311.9c2.3,0.6,3.7,3,3.1,5.3
								c-0.5,2.4-2.9,3.7-5.3,3.1c-2.3-0.5-3.7-2.9-3.1-5.3c0.5-2,2.2-3.3,4.2-3.3C903.4,311.8,903.7,311.9,904.1,311.9z M878.4,306
								c2.3,0.5,3.8,2.8,3.4,5.2c-0.5,2.4-2.8,3.9-5.2,3.4c-2.3-0.5-3.9-2.8-3.4-5.2c0.5-2.1,2.3-3.5,4.3-3.5
								C877.8,305.9,878.1,305.9,878.4,306z M852.4,301.1c2.3,0.4,4,2.7,3.6,5c-0.4,2.4-2.7,4-5.1,3.6c-2.4-0.4-4-2.6-3.6-5
								c0.4-2.2,2.2-3.7,4.3-3.7C851.9,301,852.1,301.1,852.4,301.1z M826.2,297.3c2.3,0.3,4.1,2.5,3.8,4.9
								c-0.3,2.4-2.5,4.1-4.9,3.9c-2.4-0.3-4.1-2.5-3.8-4.9c0.2-2.2,2.2-3.8,4.3-3.8C825.9,297.3,826.1,297.3,826.2,297.3z
								 M799.9,294.6c2.4,0.2,4.2,2.3,4,4.8c-0.2,2.4-2.4,4.2-4.7,4c-2.5-0.2-4.2-2.3-4-4.7c0.2-2.3,2.1-4,4.4-4
								C799.7,294.6,799.8,294.6,799.9,294.6z M777.7,297.5c-0.1,2.4-2.1,4.3-4.5,4.2c-2.4-0.1-4.3-2.2-4.2-4.6
								c0.1-2.4,2.2-4.3,4.6-4.2C776,293.1,777.8,295.1,777.7,297.5z M777.5,1566.2c0.1,2.4-1.7,4.5-4.1,4.6h-0.1
								c-2.4,0.1-4.4-1.8-4.5-4.2c-0.1-2.4,1.8-4.5,4.2-4.5c0.1-0.1,0.1-0.1,0.2-0.1C775.4,1562,777.4,1563.9,777.5,1566.2z
								 M803.7,1564.5c0.2,2.4-1.6,4.5-4,4.7c-2.4,0.2-4.5-1.6-4.7-4c-0.2-2.4,1.6-4.5,4-4.7c0.2,0,0.3,0,0.4,0
								C801.6,1560.4,803.5,1562.2,803.7,1564.5z M829.8,1561.6c0.3,2.4-1.4,4.6-3.8,4.9h0.1c-2.4,0.3-4.6-1.4-4.9-3.8
								c-0.2-2.4,1.4-4.6,3.8-4.9c0.2-0.1,0.4-0.1,0.5-0.1C827.6,1557.7,829.5,1559.4,829.8,1561.6z M855.7,1557.7
								c0.4,2.3-1.2,4.6-3.6,5c-2.3,0.4-4.6-1.2-5-3.5c-0.4-2.4,1.2-4.6,3.6-5c0.2-0.1,0.5-0.1,0.7-0.1
								C853.5,1554,855.4,1555.5,855.7,1557.7z M881.5,1552.7c0.5,2.3-1,4.6-3.4,5.2c-2.4,0.5-4.7-1-5.2-3.4c-0.5-2.3,1-4.7,3.4-5.2
								c0.3-0.1,0.6-0.1,0.9-0.1C879.3,1549.2,881.1,1550.6,881.5,1552.7z M907,1546.6c0.6,2.3-0.8,4.7-3.2,5.3
								c-2.4,0.6-4.7-0.8-5.3-3.2c-0.6-2.3,0.8-4.7,3.1-5.3c0.4-0.1,0.7-0.1,1.1-0.1C904.7,1543.3,906.5,1544.6,907,1546.6z
								 M932.3,1539.5c0.7,2.3-0.7,4.7-2.9,5.5c-2.3,0.7-4.8-0.7-5.5-2.9c-0.7-2.3,0.7-4.8,2.9-5.5c0.4-0.1,0.8-0.2,1.3-0.2
								C930,1536.3,931.7,1537.6,932.3,1539.5z M957.3,1531.3c0.8,2.3-0.4,4.7-2.7,5.5c-2.3,0.8-4.8-0.4-5.6-2.7
								c-0.8-2.3,0.5-4.7,2.8-5.5c0.4-0.2,0.9-0.2,1.4-0.2C954.9,1528.3,956.7,1529.5,957.3,1531.3z M981.9,1522
								c0.8,2.3-0.2,4.8-2.5,5.7c-2.2,0.9-4.8-0.2-5.6-2.5c-0.8-2.2,0.2-4.7,2.5-5.7c0.5-0.2,1.1-0.3,1.6-0.3
								C979.6,1519.3,981.3,1520.3,981.9,1522z M1006.2,1511.8c1,2.2-0.1,4.8-2.3,5.8c-2.2,1-4.7-0.1-5.7-2.3c-1-2.2,0-4.7,2.2-5.7
								c0.5-0.3,1.1-0.4,1.7-0.4C1003.8,1509.2,1005.4,1510.2,1006.2,1511.8z M1029.9,1500.6c1.1,2.2,0.2,4.8-2,5.8
								c-2.2,1.1-4.8,0.2-5.9-2c-1-2.2-0.1-4.8,2-5.8c0.6-0.4,1.3-0.5,1.9-0.5C1027.6,1498.1,1029.1,1499,1029.9,1500.6z
								 M1053.2,1488.4c1.1,2.1,0.4,4.7-1.7,5.9c-2.1,1.2-4.8,0.4-6-1.7c-1.1-2.1-0.4-4.8,1.8-6c0.7-0.4,1.3-0.5,2-0.5
								C1050.9,1486.1,1052.4,1486.9,1053.2,1488.4z M1076,1475.2c1.2,2,0.5,4.7-1.6,6c-2,1.3-4.8,0.6-5.9-1.5c-1.3-2-0.6-4.7,1.5-6
								c0.7-0.4,1.4-0.6,2.2-0.6C1073.7,1473,1075.1,1473.8,1076,1475.2z M1098.1,1461.1c1.4,2,0.8,4.7-1.3,6.1
								c-2,1.3-4.7,0.7-6-1.3c-1.3-2-0.8-4.7,1.3-6.1c0.7-0.5,1.6-0.7,2.3-0.7C1095.8,1459.1,1097.3,1459.8,1098.1,1461.1z
								 M1119.7,1446.1c1.4,1.9,1,4.7-1,6.1h0.1c-2,1.4-4.8,1-6.1-1c-1.4-1.9-1-4.7,1-6.1c0.8-0.5,1.6-0.8,2.5-0.8
								C1117.5,1444.2,1118.8,1444.9,1119.7,1446.1z M1140.6,1430.2c1.5,1.9,1.1,4.6-0.7,6.1c-1.9,1.5-4.7,1.1-6.1-0.8
								c-1.5-1.9-1.1-4.6,0.7-6.1c0.8-0.6,1.7-0.9,2.7-0.9C1138.5,1428.5,1139.7,1429.1,1140.6,1430.2z M1160.8,1413.5
								c1.6,1.9,1.3,4.6-0.5,6.1c-1.9,1.6-4.6,1.4-6.2-0.5c-1.6-1.9-1.3-4.6,0.5-6.2c0.8-0.7,1.8-1,2.8-1
								C1158.8,1412,1160,1412.5,1160.8,1413.5z M1180.4,1396c1.7,1.8,1.6,4.6-0.2,6.2c-1.7,1.6-4.5,1.5-6.2-0.2
								c-1.6-1.8-1.5-4.6,0.3-6.2c0.8-0.8,1.9-1.1,2.9-1.1C1178.3,1394.6,1179.5,1395.1,1180.4,1396z M1199.2,1377.7
								c1.7,1.7,1.7,4.4,0,6.2c-1.7,1.7-4.5,1.7-6.2,0c-1.7-1.7-1.7-4.5,0-6.2c0.8-0.8,2-1.3,3.1-1.3
								C1197.2,1376.4,1198.3,1376.8,1199.2,1377.7z M1217.2,1358.6c1.8,1.6,1.9,4.4,0.2,6.1c-1.6,1.8-4.4,1.9-6.1,0.3
								c-1.8-1.7-1.9-4.4-0.3-6.2c0.9-1,2-1.4,3.2-1.4C1215.4,1357.4,1216.4,1357.9,1217.2,1358.6z M1234.5,1338.9
								c1.9,1.5,2,4.3,0.5,6.1c-1.6,1.9-4.3,2-6.1,0.5c-1.9-1.5-2.1-4.3-0.5-6.1c0.9-1,2.1-1.6,3.4-1.6
								C1232.6,1337.8,1233.6,1338.1,1234.5,1338.9z M1250.9,1318.4c1.9,1.5,2.2,4.2,0.7,6.1c-1.4,1.9-4.2,2.2-6.1,0.8
								c-1.9-1.5-2.2-4.3-0.8-6.1c0.9-1.1,2.2-1.7,3.5-1.7C1249.1,1317.5,1250,1317.8,1250.9,1318.4z M1266.4,1297.3
								c2,1.4,2.4,4.1,1,6.1c-1.4,2-4.1,2.4-6.1,1c-2-1.4-2.5-4.1-1-6.1c0.8-1.1,2.2-1.8,3.5-1.8
								C1264.8,1296.4,1265.6,1296.7,1266.4,1297.3z M1281.1,1275.5c2,1.3,2.6,4,1.3,6.1c-1.3,2-4,2.6-6.1,1.3c-2-1.3-2.6-4-1.3-6.1
								c0.8-1.3,2.2-2,3.7-2C1279.5,1274.8,1280.3,1275,1281.1,1275.5z M1294.8,1253.2c2,1.2,2.7,3.9,1.5,6c-1.3,2.1-3.9,2.8-6,1.6
								c-2-1.3-2.8-4-1.5-6c0.8-1.4,2.3-2.2,3.7-2.2C1293.3,1252.5,1294.1,1252.8,1294.8,1253.2z M1307.6,1230.3
								c2.1,1.1,2.9,3.9,1.7,6c-1.1,2.1-3.8,2.9-6,1.7c-2.1-1.1-2.9-3.8-1.7-5.9c0.8-1.5,2.3-2.3,3.8-2.3
								C1306.2,1229.8,1307,1229.9,1307.6,1230.3z M1319.5,1207c2.2,1,3.1,3.7,2,5.8c-1,2.2-3.7,3.1-5.8,2c-2.2-1-3.1-3.7-2-5.8
								c0.8-1.6,2.4-2.5,4-2.5C1318.2,1206.5,1318.9,1206.7,1319.5,1207z M1330.4,1183.1c2.2,1,3.2,3.5,2.2,5.8
								c-1,2.2-3.5,3.2-5.8,2.2c-2.2-1-3.2-3.5-2.2-5.7c0.7-1.7,2.3-2.6,4-2.6C1329.2,1182.7,1329.8,1182.9,1330.4,1183.1z
								 M1340.2,1158.9c2.2,0.8,3.3,3.4,2.5,5.7c-0.9,2.2-3.4,3.4-5.7,2.5c-2.3-0.8-3.4-3.4-2.5-5.7c0.7-1.7,2.3-2.8,4.1-2.8
								C1339.1,1158.6,1339.7,1158.6,1340.2,1158.9z M1349,1134.2c2.3,0.8,3.5,3.2,2.7,5.5c-0.8,2.3-3.2,3.5-5.5,2.7
								c-2.3-0.7-3.5-3.2-2.7-5.5c0.6-1.8,2.3-2.9,4.1-2.9C1348.1,1133.9,1348.6,1134,1349,1134.2z M1356.9,1109.1
								c2.3,0.7,3.7,3.1,2.9,5.5c-0.7,2.3-3.1,3.6-5.4,2.9c-2.3-0.7-3.7-3.1-2.9-5.5c0.5-1.9,2.3-3.1,4.2-3.1
								C1356.1,1108.9,1356.5,1109,1356.9,1109.1z M1363.7,1083.8c2.4,0.5,3.8,2.9,3.2,5.3c-0.6,2.3-2.9,3.7-5.3,3.2
								c-2.3-0.6-3.8-3-3.2-5.3c0.5-2,2.3-3.3,4.2-3.3C1362.9,1083.6,1363.3,1083.7,1363.7,1083.8z M1369.4,1058.1
								c2.3,0.5,3.9,2.8,3.4,5.2c-0.5,2.3-2.8,3.8-5.2,3.4c-2.4-0.5-3.9-2.8-3.4-5.2c0.5-2.1,2.3-3.5,4.3-3.5
								C1368.8,1058.1,1369.1,1058.1,1369.4,1058.1z M1374.1,1032.3c2.3,0.4,4,2.6,3.6,5c-0.4,2.3-2.6,4-5,3.5c-2.4-0.4-4-2.6-3.6-5
								c0.4-2.2,2.2-3.7,4.3-3.7C1373.6,1032.3,1373.8,1032.3,1374.1,1032.3z M1377.6,1006.3c2.4,0.4,4.1,2.5,3.8,4.9
								c-0.3,2.3-2.5,4.1-4.9,3.8c-2.4-0.3-4.1-2.5-3.8-4.9c0.3-2.2,2.2-3.8,4.3-3.8C1377.2,1006.3,1377.4,1006.3,1377.6,1006.3z
								 M1380.1,980.2c2.4,0.2,4.2,2.3,4,4.7c-0.2,2.5-2.3,4.2-4.8,4c-2.4-0.2-4.2-2.3-4-4.7c0.2-2.3,2.1-4,4.3-4
								C1379.9,980.2,1380,980.2,1380.1,980.2z M1381.6,954c2.4,0.1,4.3,2.1,4.2,4.6c-0.1,2.4-2.2,4.3-4.6,4.1
								c-2.4-0.1-4.3-2.1-4.2-4.5c0.1-2.3,2-4.2,4.4-4.2C1381.4,954,1381.5,954,1381.6,954z M720.6,1562c2.5,0.1,4.3,2.2,4.2,4.6
								c-0.1,2.4-2.1,4.3-4.6,4.2c-2.4-0.1-4.3-2.2-4.1-4.6c0.1-2.3,2-4.2,4.3-4.2C720.4,1562,720.5,1562,720.6,1562z M694.6,1560.4
								c2.4,0.2,4.1,2.3,4,4.7c-0.2,2.4-2.3,4.2-4.7,4c-2.4-0.2-4.2-2.3-4-4.8c0.2-2.3,2.1-4,4.4-4
								C694.3,1560.4,694.5,1560.4,694.6,1560.4z M668.6,1557.7c2.4,0.3,4.1,2.5,3.9,4.9c-0.3,2.4-2.5,4.1-4.9,3.8h-0.1
								c-2.3-0.3-4.1-2.5-3.8-4.9c0.3-2.2,2.2-3.8,4.3-3.8C668.3,1557.7,668.4,1557.7,668.6,1557.7z M642.8,1554
								c2.4,0.4,4,2.6,3.6,5c-0.4,2.4-2.6,4-5,3.6c-2.4-0.4-4-2.6-3.5-5c0.4-2.2,2.2-3.7,4.3-3.7
								C642.3,1553.9,642.6,1554,642.8,1554z M617.2,1549.2c2.4,0.5,3.9,2.8,3.4,5.2c-0.5,2.4-2.8,3.9-5.2,3.4
								c-2.3-0.5-3.8-2.8-3.4-5.2c0.4-2.1,2.2-3.5,4.3-3.5C616.6,1549.1,616.9,1549.1,617.2,1549.2z M591.8,1543.4
								c2.3,0.6,3.7,2.9,3.1,5.3c-0.5,2.3-2.9,3.8-5.3,3.2c-2.4-0.6-3.7-3-3.2-5.3c0.5-1.9,2.3-3.2,4.3-3.2
								C591.1,1543.2,591.5,1543.2,591.8,1543.4z M566.7,1536.5c2.3,0.7,3.6,3.1,2.9,5.4c-0.7,2.3-3.1,3.7-5.5,2.9
								c-2.3-0.7-3.6-3.1-2.9-5.4c0.6-1.9,2.3-3.1,4.2-3.1C565.9,1536.3,566.3,1536.3,566.7,1536.5z M541.9,1528.5
								c2.3,0.8,3.5,3.2,2.7,5.5c-0.8,2.3-3.2,3.5-5.5,2.7c-2.3-0.8-3.5-3.2-2.7-5.5c0.6-1.8,2.3-2.9,4.1-2.9
								C540.9,1528.3,541.4,1528.3,541.9,1528.5z M517.4,1519.5c2.2,0.9,3.4,3.4,2.5,5.7c-0.8,2.3-3.4,3.4-5.7,2.5
								c-2.3-0.9-3.4-3.4-2.5-5.7c0.7-1.7,2.3-2.8,4-2.8C516.3,1519.2,516.9,1519.3,517.4,1519.5z M493.4,1509.6
								c2.2,1,3.2,3.6,2.2,5.8c-1,2.2-3.5,3.2-5.8,2.2c-2.2-1-3.2-3.5-2.2-5.8c0.7-1.6,2.3-2.6,4-2.6
								C492.2,1509.2,492.8,1509.3,493.4,1509.6z M469.8,1498.6c2.2,1.1,3.1,3.7,2,5.9c-1.1,2.2-3.7,3.1-5.9,2
								c-2.2-1.1-3.1-3.7-2-5.8c0.7-1.6,2.3-2.5,3.9-2.5C468.6,1498.2,469.2,1498.3,469.8,1498.6z M446.7,1486.7
								c2.1,1.1,2.9,3.8,1.7,6c-1.1,2.1-3.8,2.9-6,1.7c-2.1-1.1-2.9-3.8-1.7-6c0.8-1.4,2.3-2.3,3.8-2.3
								C445.3,1486.1,446.1,1486.3,446.7,1486.7z M424.1,1473.8c2.1,1.2,2.8,3.9,1.6,6c-1.3,2-4,2.7-6,1.5c-2.1-1.3-2.8-3.9-1.6-6
								c0.9-1.4,2.3-2.1,3.8-2.1C422.6,1473.2,423.4,1473.4,424.1,1473.8z M402,1460c2,1.3,2.6,4,1.3,6.1c-1.3,2-4,2.6-6.1,1.3
								c-2-1.3-2.6-4-1.2-6.1c0.8-1.3,2.2-2,3.6-2C400.4,1459.3,401.3,1459.5,402,1460z M380.6,1445.3c1.9,1.4,2.4,4.1,1,6.1
								c-1.4,2-4.1,2.4-6.1,1c-2-1.4-2.4-4.1-1-6.1c0.9-1.2,2.2-1.9,3.6-1.9C378.9,1444.5,379.8,1444.8,380.6,1445.3z M359.6,1429.7
								c1.9,1.4,2.3,4.2,0.8,6.1c-1.5,1.9-4.2,2.2-6.1,0.7c-1.9-1.4-2.2-4.2-0.8-6.1c0.9-1.1,2.2-1.7,3.5-1.7
								C357.9,1428.8,358.8,1429.1,359.6,1429.7z M339.4,1413.3c1.9,1.6,2.1,4.3,0.5,6.2c-1.6,1.8-4.3,2-6.2,0.5
								c-1.9-1.6-2-4.3-0.5-6.1c0.8-1,2.1-1.6,3.3-1.6C337.6,1412.3,338.6,1412.6,339.4,1413.3z M319.9,1396
								c1.8,1.7,1.9,4.5,0.2,6.2c-1.6,1.8-4.4,1.9-6.1,0.2c-1.8-1.6-1.9-4.4-0.3-6.2c0.9-0.9,2-1.4,3.2-1.4
								C318,1394.9,319.1,1395.2,319.9,1396z M301.1,1378c1.7,1.7,1.7,4.5,0,6.2c-1.7,1.7-4.4,1.7-6.1,0h-0.1
								c-1.7-1.7-1.7-4.5,0-6.2c0.9-0.8,2-1.3,3.1-1.3C299.2,1376.7,300.2,1377.1,301.1,1378z M283,1359.2c1.6,1.8,1.5,4.6-0.2,6.2
								c-1.8,1.7-4.6,1.6-6.2-0.2c-1.6-1.7-1.5-4.5,0.2-6.2c0.8-0.8,1.9-1.1,3-1.1C281,1357.8,282.2,1358.3,283,1359.2z
								 M265.8,1339.7c1.6,1.8,1.3,4.6-0.5,6.1c-1.8,1.6-4.6,1.4-6.1-0.5c-1.6-1.9-1.3-4.6,0.5-6.2c0.8-0.7,1.9-1,2.8-1
								C263.7,1338.1,264.9,1338.7,265.8,1339.7z M249.3,1319.4c1.5,1.9,1.1,4.7-0.8,6.1c-1.9,1.5-4.6,1.1-6.1-0.7
								c-1.5-1.9-1.1-4.7,0.8-6.1c0.8-0.7,1.7-1,2.6-1C247.2,1317.8,248.5,1318.4,249.3,1319.4z M233.7,1298.6c1.4,1.9,1,4.7-1,6.1
								c-1.9,1.4-4.7,1-6.1-1c-1.4-1.9-1-4.7,1-6.1c0.7-0.5,1.6-0.8,2.5-0.8C231.5,1296.7,232.8,1297.4,233.7,1298.6z M219,1277.1
								c1.3,2,0.8,4.7-1.3,6c-2,1.3-4.7,0.8-6.1-1.3c-1.3-2-0.7-4.7,1.3-6c0.7-0.5,1.6-0.7,2.4-0.7
								C216.7,1275.1,218.1,1275.7,219,1277.1z M205.1,1254.9c1.2,2,0.5,4.8-1.6,6c-2,1.2-4.8,0.5-6-1.6c-1.3-2-0.5-4.7,1.5-5.9
								c0.7-0.4,1.4-0.7,2.2-0.7C202.8,1252.8,204.3,1253.5,205.1,1254.9z M192.2,1232.3c1.1,2.1,0.4,4.7-1.8,5.9
								c-2.1,1.1-4.8,0.4-5.9-1.7c-1.1-2.1-0.4-4.8,1.7-6c0.7-0.4,1.4-0.5,2.1-0.5C189.9,1229.9,191.4,1230.8,192.2,1232.3z
								 M180.2,1209.1c1.1,2.2,0.2,4.7-2,5.8c-2.2,1.1-4.7,0.2-5.8-2c-1.1-2.2-0.2-4.8,2-5.9c0.6-0.3,1.3-0.4,1.9-0.4
								C177.9,1206.6,179.5,1207.5,180.2,1209.1z M169.2,1185.4c1,2.2-0.1,4.8-2.3,5.8c-2.2,1-4.8-0.1-5.8-2.3
								c-1-2.2,0.1-4.8,2.3-5.8c0.5-0.2,1.1-0.4,1.7-0.4C166.9,1182.7,168.5,1183.8,169.2,1185.4z M159.2,1161.2
								c0.9,2.3-0.2,4.8-2.5,5.7c-2.2,0.8-4.8-0.2-5.6-2.5c-0.9-2.2,0.2-4.8,2.5-5.6c0.5-0.2,1.1-0.3,1.6-0.3
								C156.9,1158.5,158.5,1159.5,159.2,1161.2z M150.2,1136.8c0.8,2.2-0.4,4.7-2.7,5.5c-2.3,0.8-4.8-0.4-5.5-2.7
								c-0.8-2.3,0.4-4.8,2.7-5.6c0.5-0.1,1-0.2,1.4-0.2C147.9,1133.7,149.6,1134.9,150.2,1136.8z M142.3,1111.9
								C142.3,1111.9,142.3,1111.9,142.3,1111.9c0.7,2.3-0.6,4.7-2.9,5.4c-2.3,0.7-4.8-0.7-5.5-2.9c-0.7-2.3,0.7-4.8,3-5.5
								c0.4-0.1,0.8-0.2,1.2-0.2C140,1108.7,141.7,1109.9,142.3,1111.9z M135.3,1086.7c0.6,2.4-0.8,4.8-3.2,5.3
								c-2.4,0.6-4.7-0.8-5.3-3.2c-0.6-2.3,0.8-4.8,3.2-5.3c0.4-0.1,0.7-0.2,1.1-0.2C133.1,1083.4,134.9,1084.7,135.3,1086.7z
								 M129.5,1061.3c0.5,2.3-1,4.7-3.4,5.2c-2.4,0.5-4.7-1-5.2-3.4c-0.5-2.4,1-4.7,3.4-5.2c0.3-0.1,0.6-0.1,0.9-0.1
								C127.2,1057.8,129.1,1059.2,129.5,1061.3z M124.7,1035.7c0.4,2.4-1.2,4.6-3.6,5c-2.4,0.4-4.6-1.2-5-3.6
								c-0.4-2.3,1.2-4.6,3.6-5c0.2-0.1,0.4-0.1,0.7-0.1C122.5,1032,124.3,1033.5,124.7,1035.7z M121,1009.9
								c0.3,2.4-1.4,4.6-3.8,4.9c-2.4,0.3-4.6-1.4-4.9-3.8c-0.3-2.3,1.4-4.6,3.8-4.9c0.2,0,0.4,0,0.5,0
								C118.8,1006.1,120.7,1007.7,121,1009.9z M118.3,983.9c0.2,2.4-1.6,4.6-4,4.8c-2.4,0.2-4.5-1.6-4.7-4c-0.2-2.4,1.6-4.5,4-4.7
								c0.1,0,0.2,0,0.4,0C116.2,980,118.1,981.7,118.3,983.9z M116.8,958C116.8,958,116.8,958,116.8,958c0.1,2.4-1.8,4.5-4.2,4.5
								c-2.4,0.1-4.4-1.7-4.6-4.1c-0.1-2.5,1.8-4.5,4.2-4.6c0.1,0,0.1,0,0.2,0C114.7,953.8,116.6,955.6,116.8,958z M112.6,901
								c2.4,0.1,4.3,2.1,4.2,4.5c-0.1,2.5-2.2,4.3-4.6,4.2c-2.4-0.1-4.3-2.1-4.2-4.6c0.1-2.4,2.1-4.2,4.4-4.2
								C112.4,901,112.5,901,112.6,901z M114.4,874.8c2.4,0.2,4.2,2.4,4,4.8c-0.2,2.4-2.3,4.2-4.7,4c-2.4-0.2-4.2-2.3-4-4.7
								c0.2-2.3,2.2-4,4.4-4C114.1,874.8,114.2,874.8,114.4,874.8z M117.2,848.7c2.4,0.3,4.1,2.5,3.9,4.9c0,0,0,0,0,0.1
								c-0.3,2.3-2.5,4.1-4.9,3.8c-2.4-0.3-4.1-2.5-3.9-4.9v0.1c0.3-2.2,2.2-3.9,4.4-3.9C116.9,848.7,117.1,848.7,117.2,848.7z
								 M121.2,822.8c2.4,0.4,4,2.6,3.6,5c-0.4,2.4-2.6,4-5,3.6c-2.4-0.4-4-2.6-3.6-5c0.4-2.2,2.2-3.7,4.3-3.7
								C120.7,822.8,120.9,822.8,121.2,822.8z M126.1,797c2.4,0.5,3.9,2.8,3.4,5.2c-0.5,2.3-2.8,3.9-5.2,3.4
								c-2.4-0.5-3.9-2.8-3.4-5.1c0.4-2.1,2.3-3.5,4.3-3.5C125.5,797,125.8,797,126.1,797z M132.3,771.5c2.4,0.6,3.7,3,3.1,5.3
								c-0.6,2.4-2.9,3.7-5.3,3.1c-2.4-0.5-3.8-2.9-3.2-5.3c0.5-2,2.3-3.3,4.3-3.3C131.6,771.4,131.9,771.4,132.3,771.5z
								 M139.4,746.2c2.3,0.7,3.7,3.1,2.9,5.5c-0.7,2.3-3.1,3.6-5.4,2.9c-2.3-0.7-3.7-3.1-2.9-5.5c0.5-1.9,2.3-3.1,4.1-3.1
								C138.5,746.1,138.9,746.1,139.4,746.2z M147.5,721.4c2.3,0.8,3.6,3.2,2.7,5.5c-0.7,2.3-3.2,3.5-5.5,2.7
								c-2.3-0.8-3.5-3.2-2.7-5.5c0.6-1.8,2.3-2.9,4.1-2.9C146.6,721.1,147.1,721.2,147.5,721.4z M156.8,696.8
								c2.2,0.9,3.3,3.4,2.5,5.6c-0.9,2.3-3.4,3.4-5.7,2.5c-2.2-0.8-3.3-3.4-2.5-5.7c0.7-1.7,2.3-2.8,4.1-2.8
								C155.7,696.5,156.3,696.5,156.8,696.8z M167,672.7c2.2,1,3.2,3.5,2.2,5.7c-1,2.2-3.6,3.2-5.8,2.3c-2.2-1-3.2-3.5-2.2-5.8
								c0.7-1.6,2.3-2.6,4-2.6C165.8,672.3,166.4,672.4,167,672.7z M178.1,649c2.2,1.1,3.1,3.7,2,5.8c-1.1,2.2-3.7,3.1-5.9,2
								c-2.2-1-3.1-3.7-2-5.8c0.8-1.5,2.3-2.5,3.9-2.5C176.9,648.5,177.5,648.7,178.1,649z M190.3,625.8c2.1,1.1,2.9,3.8,1.7,5.9
								c-1.1,2.2-3.8,2.9-5.9,1.8c-2.2-1.1-2.9-3.8-1.8-6c0.8-1.4,2.3-2.3,3.9-2.3C189,625.2,189.7,625.4,190.3,625.8z M203.5,603
								c2.1,1.3,2.8,4,1.5,6c-1.2,2.1-3.9,2.8-6,1.5c-2-1.2-2.7-3.9-1.5-5.9c0.8-1.4,2.3-2.2,3.8-2.2
								C202,602.5,202.7,602.7,203.5,603z M217.5,580.9c2,1.4,2.6,4.1,1.3,6.1c-1.3,2-4,2.6-6.1,1.3c-2.1-1.3-2.6-4-1.3-6
								c0.8-1.3,2.2-2,3.7-2C216,580.3,216.7,580.5,217.5,580.9z M232.5,559.4c1.9,1.4,2.4,4.1,1,6.1c-1.4,1.9-4.1,2.4-6.1,1
								c-2-1.4-2.4-4.1-1-6.1c0.8-1.2,2.2-1.8,3.6-1.8C230.8,558.6,231.7,558.9,232.5,559.4z M248.3,538.5c1.9,1.5,2.2,4.3,0.8,6.2
								c-1.5,1.9-4.3,2.2-6.2,0.7c-1.9-1.4-2.2-4.2-0.7-6.1c0.8-1.1,2.2-1.7,3.4-1.7C246.6,537.6,247.5,537.9,248.3,538.5z
								 M264.9,518.3c1.9,1.6,2.1,4.3,0.5,6.1c-1.6,1.9-4.3,2.1-6.2,0.5c-1.8-1.6-2.1-4.3-0.5-6.2c0.8-1,2.1-1.6,3.3-1.6
								C263.1,517.2,264.2,517.6,264.9,518.3z M282.5,498.7c1.7,1.7,1.9,4.4,0.2,6.2c-1.6,1.8-4.4,1.9-6.2,0.3
								c-1.8-1.7-1.9-4.4-0.2-6.2c0.8-1,2.1-1.4,3.2-1.4C280.6,497.6,281.6,498,282.5,498.7z M300.8,479.9c1.7,1.7,1.7,4.5,0,6.2
								c-1.7,1.7-4.5,1.7-6.2,0c-1.7-1.7-1.7-4.4,0-6.2c0.8-0.8,2-1.3,3.1-1.3C298.8,478.6,299.9,479,300.8,479.9z M319.8,461.8
								c1.6,1.8,1.5,4.6-0.2,6.2c-1.8,1.6-4.6,1.5-6.2-0.2c-1.6-1.8-1.6-4.6,0.2-6.2c0.8-0.8,1.9-1.1,2.9-1.1
								C317.8,460.5,318.9,460.9,319.8,461.8z M339.6,444.6c1.6,1.9,1.3,4.6-0.5,6.2c-1.8,1.6-4.6,1.3-6.1-0.5
								c-1.6-1.8-1.3-4.6,0.5-6.1c0.8-0.7,1.9-1,2.8-1C337.5,443.1,338.7,443.6,339.6,444.6z M360,428.2c1.5,1.9,1.2,4.6-0.7,6.1
								c-1.9,1.5-4.7,1.1-6.1-0.8c-1.5-1.9-1.1-4.6,0.7-6.1c0.8-0.6,1.7-0.9,2.7-0.9C357.9,426.5,359.2,427,360,428.2z M381.2,412.6
								c1.4,1.9,1,4.7-1,6.1c-1.9,1.4-4.7,1-6.1-1c-1.4-1.9-1-4.7,1-6.1c0.7-0.5,1.6-0.8,2.5-0.8C379,410.7,380.4,411.4,381.2,412.6
								z M403,397.9c1.3,2,0.8,4.7-1.2,6.1c0,0,0,0-0.1,0c-2,1.3-4.7,0.8-6-1.3c-1.3-2-0.8-4.7,1.3-6.1c0.7-0.5,1.6-0.7,2.4-0.7
								C400.7,395.9,402.1,396.6,403,397.9z M425.3,384.1c1.3,2,0.6,4.8-1.5,6c-2,1.2-4.8,0.5-5.9-1.6c-1.3-2-0.6-4.8,1.5-6
								c0.7-0.4,1.4-0.7,2.2-0.7C423.1,381.9,424.6,382.7,425.3,384.1z M448.3,371.3c1.1,2.1,0.4,4.7-1.8,5.9
								c-2.1,1.1-4.8,0.4-5.9-1.8c-1.1-2.1-0.4-4.8,1.7-5.9c0.7-0.4,1.4-0.5,2.1-0.5C446,369,447.5,369.8,448.3,371.3z M471.7,359.3
								c1,2.2,0.2,4.8-2,5.9c-2.2,1-4.8,0.1-5.8-2c-1.1-2.2-0.2-4.7,2-5.8c0.7-0.3,1.3-0.5,1.9-0.5
								C469.4,356.9,471,357.8,471.7,359.3z M495.7,348.5c1,2.2-0.1,4.8-2.3,5.7c-2.2,1-4.8,0-5.8-2.2c-1-2.2,0.1-4.8,2.3-5.8
								c0.5-0.2,1.1-0.4,1.7-0.4C493.3,345.8,494.9,346.8,495.7,348.5z M520,338.5c0.9,2.2-0.2,4.8-2.5,5.7
								c-2.3,0.9-4.8-0.2-5.7-2.5c-0.9-2.3,0.2-4.8,2.5-5.6c0.5-0.2,1-0.3,1.6-0.3C517.7,335.8,519.4,336.8,520,338.5z M544.8,329.7
								c0.8,2.3-0.4,4.8-2.7,5.6c-2.3,0.8-4.8-0.5-5.6-2.8c-0.8-2.3,0.4-4.7,2.7-5.5c0.5-0.2,1-0.2,1.4-0.2
								C542.4,326.7,544.1,327.8,544.8,329.7z M569.9,321.8c0.7,2.3-0.7,4.8-2.9,5.4c0,0,0,0-0.1,0c-2.3,0.7-4.7-0.7-5.4-2.9
								c-0.7-2.4,0.7-4.8,2.9-5.4c0.4-0.1,0.8-0.2,1.3-0.2C567.6,318.7,569.3,319.9,569.9,321.8z M595.2,315
								c0.6,2.3-0.8,4.7-3.1,5.3c-2.3,0.6-4.8-0.8-5.4-3.1c-0.6-2.4,0.8-4.8,3.2-5.3c0.4-0.1,0.7-0.1,1.1-0.1
								C593,311.7,594.7,313.1,595.2,315z M620.9,309.3c0.5,2.3-1,4.7-3.4,5.2c-2.3,0.5-4.7-1-5.2-3.4c-0.5-2.3,1-4.6,3.4-5.2
								c0.3-0.1,0.6-0.1,0.9-0.1C618.6,305.9,620.5,307.2,620.9,309.3z M646.7,304.7c0.4,2.4-1.2,4.6-3.6,5c-2.4,0.4-4.6-1.2-5-3.6
								c-0.4-2.4,1.2-4.6,3.6-5c0.2-0.1,0.4-0.1,0.7-0.1C644.5,301,646.3,302.5,646.7,304.7z M672.7,301.1c0.3,2.4-1.4,4.6-3.9,4.9
								c-2.4,0.3-4.6-1.4-4.9-3.8c-0.3-2.4,1.4-4.6,3.9-4.9c0.2,0,0.3-0.1,0.5-0.1C670.5,297.2,672.4,298.9,672.7,301.1z
								 M698.8,298.6c0.2,2.5-1.6,4.6-4,4.8c-2.4,0.2-4.5-1.6-4.7-4c-0.2-2.4,1.6-4.5,4-4.7c0.1,0,0.2,0,0.3,0
								C696.7,294.6,698.6,296.3,698.8,298.6z M725,297.2c0.1,2.4-1.7,4.5-4.2,4.6c-2.4,0.1-4.4-1.8-4.5-4.2
								c-0.1-2.4,1.7-4.5,4.1-4.6c0.1,0,0.1,0,0.2,0C723,293,724.9,294.8,725,297.2z"/>
						</g>
					</g>
				</g>
			</g>
			<g>
				<g>
					<g>
						<defs>
							<rect id="SVGID_7_" x="172.6" y="351.9" width="1153.1" height="1153.1"/>
						</defs>
						<clipPath id="SVGID_8_">
							<use xlink:href="#SVGID_7_"  style="overflow:visible;"/>
						</clipPath>
						<g class="st3">
							<defs>
								<path id="SVGID_9_" d="M1325.7,928.5c0,318.4-258.1,576.6-576.6,576.6c-318.4,0-576.6-258.1-576.6-576.6
									c0-318.4,258.1-576.6,576.6-576.6S1325.7,610.1,1325.7,928.5z"/>
							</defs>
							<clipPath id="SVGID_10_">
								<use xlink:href="#SVGID_9_"  style="overflow:visible;"/>
							</clipPath>
							<g class="st4">
								<defs>
									<rect id="SVGID_11_" x="172.6" y="351.9" width="1153.1" height="1153.1"/>
								</defs>
								<clipPath id="SVGID_12_">
									<use xlink:href="#SVGID_11_"  style="overflow:visible;"/>
								</clipPath>
								<g class="st5">
									<defs>
										<rect id="SVGID_13_" x="-276.1" y="185.5" width="1976.5" height="1319.2"/>
									</defs>
									<clipPath id="SVGID_14_">
										<use xlink:href="#SVGID_13_"  style="overflow:visible;"/>
									</clipPath>
									<g style="clip-path:url(#SVGID_14_);">
										
											<image style="overflow:visible;" width="2407" height="1607" xlink:href="ACC5AF15.jpg"  transform="matrix(0.8211 0 0 0.8209 -276.0967 185.5299)">
										</image>
									</g>
								</g>
							</g>
						</g>
					</g>
				</g>
			</g>
			<g>
				<g>
					<g>
						<defs>
							<rect id="SVGID_15_" x="1080" y="1102.9" width="579.7" height="579.7"/>
						</defs>
						<clipPath id="SVGID_16_">
							<use xlink:href="#SVGID_15_"  style="overflow:visible;"/>
						</clipPath>
						<g class="st6">
							<defs>
								<rect id="SVGID_17_" x="1080" y="1102.9" width="579.7" height="579.7"/>
							</defs>
							<clipPath id="SVGID_18_">
								<use xlink:href="#SVGID_17_"  style="overflow:visible;"/>
							</clipPath>
							<path class="st7" d="M1369.9,1682.7c160.1,0,289.9-129.8,289.9-289.9s-129.8-289.9-289.9-289.9S1080,1232.7,1080,1392.8
								S1209.8,1682.7,1369.9,1682.7z M1369.9,1653.7c-143.9,0-260.9-117-260.9-260.9s117-260.9,260.9-260.9s260.9,117,260.9,260.9
								S1513.7,1653.7,1369.9,1653.7"/>
						</g>
					</g>
				</g>
			</g>
			<g>
				<path class="st8" d="M345.5,639.7c3.9,0,7.8-0.1,11.7-0.3c3.9-0.2,7.8-0.5,11.6-0.9c3.9-0.4,7.7-0.9,11.6-1.4
					c3.9-0.6,7.7-1.2,11.5-2c3.8-0.8,7.6-1.6,11.4-2.6c3.8-0.9,7.5-2,11.3-3.1c3.7-1.1,7.4-2.4,11.1-3.7s7.3-2.7,10.9-4.2
					c3.6-1.5,7.2-3.1,10.7-4.7c3.5-1.7,7-3.4,10.4-5.3c3.4-1.8,6.8-3.8,10.2-5.8c3.3-2,6.6-4.1,9.9-6.2c3.2-2.2,6.4-4.4,9.5-6.7
					c3.1-2.3,6.2-4.7,9.2-7.2c3-2.5,6-5,8.8-7.6c2.9-2.6,5.7-5.3,8.5-8.1s5.4-5.6,8.1-8.5c2.6-2.9,5.2-5.8,7.6-8.8
					c2.5-3,4.9-6.1,7.2-9.2c2.3-3.1,4.6-6.3,6.7-9.5c2.2-3.2,4.2-6.5,6.2-9.9c2-3.3,3.9-6.7,5.8-10.2s3.6-6.9,5.2-10.4
					c1.7-3.5,3.2-7.1,4.7-10.7c1.5-3.6,2.9-7.2,4.2-10.9c1.3-3.7,2.5-7.4,3.7-11.1c1.1-3.7,2.2-7.5,3.1-11.3s1.8-7.6,2.6-11.4
					c0.8-3.8,1.4-7.7,2-11.5c0.6-3.9,1-7.7,1.4-11.6c0.4-3.9,0.7-7.8,0.9-11.6c0.2-3.9,0.3-7.8,0.3-11.7c0-3.9-0.1-7.8-0.3-11.7
					c-0.2-3.9-0.5-7.8-0.9-11.6c-0.4-3.9-0.9-7.7-1.4-11.6c-0.6-3.9-1.2-7.7-2-11.5c-0.8-3.8-1.6-7.6-2.6-11.4s-2-7.5-3.1-11.3
					s-2.4-7.4-3.7-11.1c-1.3-3.7-2.7-7.3-4.2-10.9c-1.5-3.6-3.1-7.2-4.7-10.7c-1.7-3.5-3.4-7-5.2-10.4s-3.8-6.8-5.8-10.2
					c-2-3.3-4.1-6.6-6.2-9.9c-2.2-3.2-4.4-6.4-6.7-9.5c-2.3-3.1-4.7-6.2-7.2-9.2s-5-6-7.6-8.8c-2.6-2.9-5.3-5.7-8.1-8.5
					c-2.8-2.8-5.6-5.4-8.5-8.1c-2.9-2.6-5.8-5.2-8.8-7.6c-3-2.5-6.1-4.9-9.2-7.2c-3.1-2.3-6.3-4.6-9.5-6.7c-3.2-2.2-6.5-4.2-9.9-6.2
					c-3.3-2-6.7-3.9-10.2-5.8c-3.4-1.8-6.9-3.6-10.4-5.3c-3.5-1.7-7.1-3.2-10.7-4.7c-3.6-1.5-7.2-2.9-10.9-4.2
					c-3.7-1.3-7.4-2.5-11.1-3.7c-3.7-1.1-7.5-2.2-11.3-3.1c-3.8-0.9-7.6-1.8-11.4-2.6c-3.8-0.8-7.7-1.4-11.5-2
					c-3.9-0.6-7.7-1-11.6-1.4c-3.9-0.4-7.8-0.7-11.6-0.9c-3.9-0.2-7.8-0.3-11.7-0.3c-3.9,0-7.8,0.1-11.7,0.3
					c-3.9,0.2-7.8,0.5-11.6,0.9c-3.9,0.4-7.7,0.9-11.6,1.4c-3.9,0.6-7.7,1.2-11.5,2c-3.8,0.8-7.6,1.6-11.4,2.6
					c-3.8,0.9-7.5,2-11.3,3.1c-3.7,1.1-7.4,2.4-11.1,3.7c-3.7,1.3-7.3,2.7-10.9,4.2c-3.6,1.5-7.2,3.1-10.7,4.7
					c-3.5,1.7-7,3.4-10.4,5.2c-3.4,1.8-6.8,3.8-10.2,5.8c-3.3,2-6.6,4.1-9.9,6.2c-3.2,2.2-6.4,4.4-9.5,6.7s-6.2,4.7-9.2,7.2
					c-3,2.5-6,5-8.8,7.6c-2.9,2.6-5.7,5.3-8.5,8.1c-2.8,2.8-5.4,5.6-8.1,8.5c-2.6,2.9-5.2,5.8-7.6,8.8c-2.5,3-4.9,6.1-7.2,9.2
					c-2.3,3.1-4.6,6.3-6.7,9.5c-2.2,3.2-4.2,6.5-6.2,9.9c-2,3.3-3.9,6.7-5.8,10.2s-3.6,6.9-5.2,10.4c-1.7,3.5-3.2,7.1-4.7,10.7
					c-1.5,3.6-2.9,7.2-4.2,10.9c-1.3,3.7-2.5,7.4-3.7,11.1c-1.1,3.7-2.2,7.5-3.1,11.3c-0.9,3.8-1.8,7.6-2.6,11.4
					c-0.8,3.8-1.4,7.7-2,11.5c-0.6,3.9-1,7.7-1.4,11.6c-0.4,3.9-0.7,7.8-0.9,11.6c-0.2,3.9-0.3,7.8-0.3,11.7c0,3.9,0.1,7.8,0.3,11.7
					c0.2,3.9,0.5,7.8,0.9,11.6c0.4,3.9,0.9,7.7,1.4,11.6c0.6,3.9,1.2,7.7,2,11.5c0.8,3.8,1.6,7.6,2.6,11.4c0.9,3.8,2,7.5,3.1,11.3
					c1.1,3.7,2.4,7.4,3.7,11.1c1.3,3.7,2.7,7.3,4.2,10.9c1.5,3.6,3.1,7.2,4.7,10.7c1.7,3.5,3.4,7,5.2,10.4c1.8,3.4,3.8,6.8,5.8,10.2
					c2,3.3,4.1,6.6,6.2,9.9c2.2,3.2,4.4,6.4,6.7,9.5c2.3,3.1,4.7,6.2,7.2,9.2c2.5,3,5,6,7.6,8.8c2.6,2.9,5.3,5.7,8.1,8.5
					s5.6,5.4,8.5,8.1c2.9,2.6,5.8,5.2,8.8,7.6s6.1,4.9,9.2,7.2c3.1,2.3,6.3,4.6,9.5,6.7c3.2,2.2,6.5,4.2,9.9,6.2
					c3.3,2,6.7,3.9,10.2,5.8c3.4,1.8,6.9,3.6,10.4,5.3c3.5,1.7,7.1,3.2,10.7,4.7c3.6,1.5,7.2,2.9,10.9,4.2c3.7,1.3,7.4,2.5,11.1,3.7
					c3.7,1.1,7.5,2.2,11.3,3.1c3.8,0.9,7.6,1.8,11.4,2.6c3.8,0.8,7.7,1.4,11.5,2c3.9,0.6,7.7,1,11.6,1.4c3.9,0.4,7.8,0.7,11.6,0.9
					S341.6,639.7,345.5,639.7z"/>
				<path class="st9" d="M1459.1,1247.9c2.9,0,5.8-0.1,8.7-0.4c2.9-0.3,5.8-0.7,8.7-1.2c2.9-0.6,5.7-1.2,8.5-2.1
					c2.8-0.8,5.5-1.8,8.2-2.9c2.7-1.1,5.3-2.3,7.9-3.6c2.6-1.3,5.1-2.8,7.5-4.4c2.4-1.6,4.8-3.3,7-5c2.3-1.8,4.4-3.7,6.5-5.7
					c2.1-2,4-4.1,5.9-6.3c1.9-2.2,3.6-4.5,5.2-6.8c1.6-2.4,3.1-4.8,4.5-7.3c1.4-2.5,2.6-5,3.7-7.7c1.1-2.6,2.1-5.3,2.9-8
					c0.8-2.7,1.6-5.4,2.1-8.2c0.6-2.8,1-5.6,1.3-8.4c0.3-2.8,0.4-5.6,0.4-8.5c0-2.8-0.1-5.6-0.4-8.5c-0.3-2.8-0.7-5.6-1.3-8.4
					c-0.6-2.8-1.3-5.5-2.1-8.2c-0.8-2.7-1.8-5.4-2.9-8c-1.1-2.6-2.4-5.2-3.7-7.7c-1.4-2.5-2.9-4.9-4.5-7.3c-1.6-2.4-3.4-4.6-5.2-6.8
					c-1.9-2.2-3.8-4.3-5.9-6.3c-2.1-2-4.2-3.9-6.5-5.7c-2.3-1.8-4.6-3.5-7-5c-2.4-1.6-4.9-3-7.5-4.4c-2.6-1.3-5.2-2.5-7.9-3.6
					c-2.7-1.1-5.4-2-8.2-2.9c-2.8-0.8-5.6-1.5-8.5-2.1c-2.9-0.6-5.8-1-8.7-1.2c-2.9-0.3-5.8-0.4-8.7-0.4c-2.9,0-5.8,0.1-8.7,0.4
					c-2.9,0.3-5.8,0.7-8.7,1.2s-5.7,1.2-8.5,2.1c-2.8,0.8-5.5,1.8-8.2,2.9s-5.3,2.3-7.9,3.6c-2.6,1.3-5.1,2.8-7.5,4.4
					c-2.4,1.6-4.8,3.3-7,5c-2.3,1.8-4.4,3.7-6.5,5.7c-2.1,2-4,4.1-5.9,6.3c-1.9,2.2-3.6,4.5-5.2,6.8c-1.6,2.3-3.1,4.8-4.5,7.3
					c-1.4,2.5-2.6,5-3.7,7.7c-1.1,2.6-2.1,5.3-2.9,8c-0.8,2.7-1.6,5.4-2.1,8.2c-0.6,2.8-1,5.6-1.3,8.4c-0.3,2.8-0.4,5.6-0.4,8.5
					c0,2.8,0.1,5.6,0.4,8.5c0.3,2.8,0.7,5.6,1.3,8.4c0.6,2.8,1.3,5.5,2.1,8.2c0.8,2.7,1.8,5.4,2.9,8c1.1,2.6,2.4,5.2,3.7,7.7
					c1.4,2.5,2.9,4.9,4.5,7.3c1.6,2.3,3.4,4.6,5.2,6.8c1.9,2.2,3.8,4.3,5.9,6.3c2.1,2,4.2,3.9,6.5,5.7c2.3,1.8,4.6,3.5,7,5
					c2.4,1.6,4.9,3,7.5,4.4c2.6,1.3,5.2,2.5,7.9,3.6c2.7,1.1,5.4,2,8.2,2.9c2.8,0.8,5.6,1.5,8.5,2.1c2.9,0.6,5.8,1,8.7,1.2
					C1453.2,1247.7,1456.2,1247.9,1459.1,1247.9z"/>
			</g>
			<g>
				<g>
					<g>
						<defs>
							<rect id="SVGID_19_" x="17.8" y="-466.7" width="818.6" height="818.6"/>
						</defs>
						<clipPath id="SVGID_20_">
							<use xlink:href="#SVGID_19_"  style="overflow:visible;"/>
						</clipPath>
						<g class="st10">
							<defs>
								<rect id="SVGID_21_" x="17.8" y="-466.7" width="818.6" height="818.6"/>
							</defs>
							<clipPath id="SVGID_22_">
								<use xlink:href="#SVGID_21_"  style="overflow:visible;"/>
							</clipPath>
							<path class="st11" d="M427.1,326.7c212.2,0,384-171.8,384-384s-171.8-384-384-384s-384,171.8-384,384
								C43.1,154.9,216.1,326.7,427.1,326.7L427.1,326.7z M427.1-466.7c226.1,0,409.3,184.4,409.3,409.3S653.2,351.9,427.1,351.9
								S17.8,168.7,17.8-57.4S202.2-466.7,427.1-466.7z"/>
						</g>
					</g>
				</g>
			</g>
			<g>
				<path class="st12" d="M687.1,318.6c2.1,0,4.3-0.1,6.4-0.3c2.1-0.2,4.2-0.5,6.3-0.9c2.1-0.4,4.2-0.9,6.2-1.5c2-0.6,4.1-1.3,6-2.1
					c2-0.8,3.9-1.7,5.8-2.6c1.9-1,3.7-2,5.5-3.2c1.8-1.1,3.5-2.4,5.1-3.7s3.2-2.7,4.7-4.2c1.5-1.5,2.9-3,4.3-4.6
					c1.4-1.6,2.6-3.3,3.8-5c1.2-1.7,2.3-3.5,3.3-5.3c1-1.8,1.9-3.7,2.7-5.6c0.8-1.9,1.5-3.9,2.2-5.8s1.1-4,1.6-6
					c0.4-2,0.7-4.1,0.9-6.1s0.3-4.1,0.3-6.2c0-2.1-0.1-4.1-0.3-6.2c-0.2-2.1-0.5-4.1-0.9-6.1c-0.4-2-0.9-4-1.6-6
					c-0.6-2-1.3-3.9-2.2-5.8c-0.8-1.9-1.7-3.8-2.7-5.6c-1-1.8-2.1-3.6-3.3-5.3c-1.2-1.7-2.5-3.4-3.8-5c-1.4-1.6-2.8-3.1-4.3-4.6
					s-3.1-2.8-4.7-4.2c-1.7-1.3-3.4-2.5-5.1-3.7c-1.8-1.1-3.6-2.2-5.5-3.2c-1.9-1-3.8-1.9-5.8-2.6c-2-0.8-4-1.5-6-2.1
					c-2-0.6-4.1-1.1-6.2-1.5c-2.1-0.4-4.2-0.7-6.3-0.9c-2.1-0.2-4.3-0.3-6.4-0.3c-2.1,0-4.3,0.1-6.4,0.3c-2.1,0.2-4.2,0.5-6.3,0.9
					c-2.1,0.4-4.2,0.9-6.2,1.5c-2,0.6-4.1,1.3-6,2.1c-2,0.8-3.9,1.7-5.8,2.6s-3.7,2-5.5,3.2c-1.8,1.1-3.5,2.4-5.1,3.7
					c-1.7,1.3-3.2,2.7-4.7,4.2c-1.5,1.5-2.9,3-4.3,4.6s-2.6,3.3-3.8,5c-1.2,1.7-2.3,3.5-3.3,5.3c-1,1.8-1.9,3.7-2.7,5.6
					c-0.8,1.9-1.5,3.9-2.2,5.8c-0.6,2-1.1,4-1.6,6c-0.4,2-0.7,4.1-0.9,6.1c-0.2,2.1-0.3,4.1-0.3,6.2c0,2.1,0.1,4.1,0.3,6.2
					c0.2,2.1,0.5,4.1,0.9,6.1c0.4,2,0.9,4,1.6,6s1.3,3.9,2.2,5.8c0.8,1.9,1.7,3.8,2.7,5.6c1,1.8,2.1,3.6,3.3,5.3
					c1.2,1.7,2.5,3.4,3.8,5c1.4,1.6,2.8,3.1,4.3,4.6c1.5,1.5,3.1,2.8,4.7,4.2c1.7,1.3,3.4,2.5,5.1,3.7c1.8,1.1,3.6,2.2,5.5,3.2
					c1.9,1,3.8,1.9,5.8,2.6c2,0.8,4,1.5,6,2.1c2,0.6,4.1,1.1,6.2,1.5c2.1,0.4,4.2,0.7,6.3,0.9C682.8,318.5,685,318.6,687.1,318.6z"
					/>
			</g>
		</g>
	</g>
</g>
</svg>
