<svg id="Layer_1" data-name="Layer 1" xmlns="http://www.w3.org/2000/svg" xmlns:xlink="http://www.w3.org/1999/xlink" viewBox="0 0 1494 366.22"><defs><style>.cls-1,.cls-10,.cls-5{fill:none;}.cls-2{clip-path:url(#clip-path);}.cls-3{fill:#0e83cd;}.cls-4{fill:#cf202f;}.cls-5{stroke:#aa1a27;stroke-width:36.66px;}.cls-10,.cls-5{stroke-miterlimit:10;}.cls-6{fill:#f0ad4e;}.cls-7{fill:#cbdb2c;}.cls-8{fill:#ffc62f;}.cls-9{fill:#5bcbf5;}.cls-10{stroke:#5bcbf5;stroke-width:20px;}</style><clipPath id="clip-path"><rect class="cls-1" width="1494" height="366.22"/></clipPath></defs><g class="cls-2"><polygon class="cls-3" points="-90 100.12 1547 63.12 1547 335.18 -40 259.18 -90 100.12"/><circle class="cls-4" cx="69.73" cy="490.44" r="186.4"/><path class="cls-5" d="M890.64,53.42a45.1,45.1,0,0,1,0-90.2,45.17,45.17,0,0,1,45.1,45.1A45.17,45.17,0,0,1,890.64,53.42Z"/><path class="cls-6" d="M-63.19-69.56c-73.4,0-133.1,59.8-133.1,133.2s59.7,133.2,133.1,133.2S70,137.14,70,63.64A133.28,133.28,0,0,0-63.19-69.56Z"/><circle class="cls-7" cx="466.41" cy="324.89" r="66.37"/><circle class="cls-8" cx="1508.3" cy="-10.39" r="121.3"/><path class="cls-9" d="M1650.6-10.39v.6a1.27,1.27,0,0,1-.1.6.76.76,0,0,1-.2.5c-.1.2-.2.3-.3.5a.78.78,0,0,1-.4.4l-.4.4c-.2.1-.3.2-.5.3s-.4.1-.5.2-.4.1-.6.1a1.27,1.27,0,0,1-.6-.1.76.76,0,0,1-.5-.2c-.2-.1-.3-.2-.5-.3a.78.78,0,0,1-.4-.4l-.4-.4a2.19,2.19,0,0,1-.3-.5c-.1-.2-.1-.4-.2-.5s-.1-.4-.1-.6v-.6a1.27,1.27,0,0,1,.1-.6.76.76,0,0,1,.2-.5c.1-.2.2-.3.3-.5a.78.78,0,0,1,.4-.4l.4-.4c.2-.1.3-.2.5-.3s.4-.1.5-.2.4-.1.6-.1a1.27,1.27,0,0,1,.6.1.76.76,0,0,1,.5.2c.2.1.3.2.5.3a.78.78,0,0,1,.4.4l.4.4c.1.2.2.3.3.5s.1.4.2.5A1.27,1.27,0,0,1,1650.6-10.39Zm-1.2-18.1v1.2a1.27,1.27,0,0,1-.1.6c-.1.2-.1.4-.2.5s-.2.3-.3.5a.78.78,0,0,1-.4.4c-.2.1-.3.2-.5.3s-.3.2-.5.2a1.27,1.27,0,0,1-.6.1h-.6a1.27,1.27,0,0,1-.6-.1c-.2-.1-.4-.1-.5-.2s-.3-.2-.5-.3a.78.78,0,0,1-.4-.4,2.19,2.19,0,0,1-.3-.5c-.1-.2-.2-.3-.2-.5a1.27,1.27,0,0,1-.1-.6v-1.1a1.27,1.27,0,0,1,.1-.6c.1-.2.1-.4.2-.5s.2-.3.3-.5a.78.78,0,0,1,.4-.4,2.19,2.19,0,0,1,.5-.3c.2-.1.3-.2.5-.2a1.27,1.27,0,0,1,.6-.1h.6a1.27,1.27,0,0,1,.6.1c.2.1.4.1.5.2s.3.2.5.3a.78.78,0,0,1,.4.4,2.19,2.19,0,0,1,.3.5c.1.2.2.3.2.5S1649.4-28.69,1649.4-28.49Zm-3.6-18.3.2.6c0,.2.1.4.1.6v.6c0,.2-.1.4-.1.6s-.1.4-.2.5-.2.3-.3.5-.3.3-.4.4-.3.2-.5.3a1.69,1.69,0,0,1-.5.2c-.2,0-.4.1-.6.1h-.6c-.2,0-.4-.1-.6-.1s-.4-.1-.5-.2-.3-.2-.5-.3l-.4-.4c-.1-.2-.2-.3-.3-.5a1.69,1.69,0,0,1-.2-.5l-.2-.6c0-.2-.1-.4-.1-.6v-.6c0-.2.1-.4.1-.6s.1-.4.2-.5.2-.3.3-.5l.4-.4c.2-.1.3-.2.5-.3a1.69,1.69,0,0,1,.5-.2c.2,0,.4-.1.6-.1h.6c.2,0,.4.1.6.1s.4.1.5.2.3.2.5.3l.4.4c.1.2.2.3.3.5S1645.8-47,1645.8-46.79Zm-5.9-17.7.2.5c.1.2.1.4.2.5s.1.4.1.6a1.27,1.27,0,0,1-.1.6.76.76,0,0,1-.2.5c-.1.2-.2.3-.3.5a.78.78,0,0,1-.4.4l-.4.4a2.19,2.19,0,0,1-.5.3c-.2.1-.4.1-.5.2s-.4.1-.6.1a1.27,1.27,0,0,1-.6-.1.76.76,0,0,1-.5-.2c-.2-.1-.3-.2-.5-.3a.78.78,0,0,1-.4-.4c-.1-.2-.3-.3-.4-.4s-.2-.3-.3-.5l-.2-.5c-.1-.2-.1-.4-.2-.5s-.1-.4-.1-.6a1.27,1.27,0,0,1,.1-.6.76.76,0,0,1,.2-.5c.1-.2.2-.3.3-.5a.78.78,0,0,1,.4-.4l.4-.4c.2-.1.3-.2.5-.3s.4-.1.5-.2.4-.1.6-.1a1.27,1.27,0,0,1,.6.1.76.76,0,0,1,.5.2,2.19,2.19,0,0,0,.5.3.78.78,0,0,1,.4.4c.1.2.3.3.4.4A2.19,2.19,0,0,0,1639.9-64.49Zm-8.2-16.7.3.5c.1.2.2.3.2.5a1.27,1.27,0,0,1,.1.6v.6a1.27,1.27,0,0,1-.1.6c-.1.2-.1.4-.2.5s-.2.3-.3.5a.78.78,0,0,1-.4.4,2.19,2.19,0,0,1-.5.3c-.2.1-.3.2-.5.2a1.27,1.27,0,0,1-.6.1h-.6a1.27,1.27,0,0,1-.6-.1c-.2-.1-.4-.1-.5-.2s-.3-.2-.5-.3a.78.78,0,0,1-.4-.4,2.19,2.19,0,0,1-.3-.5l-.3-.5c-.1-.2-.2-.3-.2-.5a1.27,1.27,0,0,1-.1-.6v-.6a1.27,1.27,0,0,1,.1-.6c.1-.2.1-.4.2-.5s.2-.3.3-.5a.78.78,0,0,1,.4-.4,2.19,2.19,0,0,1,.5-.3c.2-.1.3-.2.5-.2s.4-.1.6-.1h.6a1.27,1.27,0,0,1,.6.1c.2.1.4.1.5.2s.3.2.5.3a.78.78,0,0,1,.4.4C1631.5-81.49,1631.6-81.39,1631.7-81.19Zm-10.3-15.5.4.5c.1.2.2.3.3.5a1.69,1.69,0,0,1,.2.5c0,.2.1.4.1.6v.6c0,.2-.1.4-.1.6s-.1.4-.2.5-.2.3-.3.5l-.4.4c-.2.1-.3.2-.5.3a1.69,1.69,0,0,1-.5.2c-.2,0-.4.1-.6.1h-.6c-.2,0-.4-.1-.6-.1s-.4-.1-.5-.2-.3-.2-.5-.3l-.4-.4-.4-.5c-.1-.2-.2-.3-.3-.5a1.69,1.69,0,0,1-.2-.5c0-.2-.1-.4-.1-.6v-.6c0-.2.1-.4.1-.6s.1-.4.2-.5.2-.3.3-.5l.4-.4c.2-.1.3-.2.5-.3a1.69,1.69,0,0,1,.5-.2c.2,0,.4-.1.6-.1h.6c.2,0,.4.1.6.1s.4.1.5.2.3.2.5.3A.78.78,0,0,1,1621.4-96.69Zm-12.2-14,.4.4.4.4c.1.2.2.3.3.5s.1.4.2.5.1.4.1.6a1.27,1.27,0,0,1-.1.6.76.76,0,0,1-.2.5c-.1.2-.2.3-.3.5a.78.78,0,0,1-.4.4l-.4.4c-.2.1-.3.2-.5.3s-.4.1-.5.2-.4.1-.6.1a1.27,1.27,0,0,1-.6-.1.76.76,0,0,1-.5-.2c-.2-.1-.3-.2-.5-.3a.78.78,0,0,1-.4-.4l-.4-.4-.4-.4c-.1-.2-.2-.3-.3-.5s-.1-.4-.2-.5-.1-.4-.1-.6a1.27,1.27,0,0,1,.1-.6.76.76,0,0,1,.2-.5c.1-.2.2-.3.3-.5a.78.78,0,0,1,.4-.4l.4-.4c.2-.1.3-.2.5-.3s.4-.1.5-.2.4-.1.6-.1a1.27,1.27,0,0,1,.6.1.76.76,0,0,1,.5.2,2.19,2.19,0,0,0,.5.3Zm-14-12.4.5.4a.78.78,0,0,1,.4.4,2.19,2.19,0,0,1,.3.5c.1.2.2.3.2.5a1.27,1.27,0,0,1,.1.6v.6a1.27,1.27,0,0,1-.1.6c-.1.2-.1.4-.2.5s-.2.3-.3.5a.78.78,0,0,1-.4.4,2.19,2.19,0,0,1-.5.3c-.2.1-.3.2-.5.2a1.27,1.27,0,0,1-.6.1h-.6a1.27,1.27,0,0,1-.6-.1c-.2-.1-.4-.1-.5-.2s-.3-.2-.5-.3l-.5-.4a.78.78,0,0,1-.4-.4,2.19,2.19,0,0,1-.3-.5c-.1-.2-.2-.3-.2-.5a1.27,1.27,0,0,1-.1-.6v-.6a1.27,1.27,0,0,1,.1-.6c.1-.2.1-.4.2-.5s.2-.3.3-.5a.78.78,0,0,1,.4-.4c.2-.1.3-.2.5-.3s.3-.2.5-.2a1.27,1.27,0,0,1,.6-.1h.6a1.27,1.27,0,0,1,.6.1c.2.1.4.1.5.2S1595-123.19,1595.2-123.09Zm-15.5-10.4h0l.5.3c.2.1.3.2.5.3l.4.4c.1.2.2.3.3.5a1.69,1.69,0,0,1,.2.5c0,.2.1.4.1.6v.6c0,.2-.1.4-.1.6s-.1.4-.2.5-.2.3-.3.5l-.4.4c-.2.1-.3.2-.5.3a1.69,1.69,0,0,1-.5.2c-.2,0-.4.1-.6.1h-.6c-.2,0-.4-.1-.6-.1s-.4-.1-.5-.2l-.5-.3h0c-.2-.1-.3-.2-.5-.3l-.4-.4c-.1-.2-.2-.3-.3-.5a1.69,1.69,0,0,1-.2-.5c0-.1-.1-.4-.1-.6v-.6c0-.2.1-.4.1-.6s.1-.4.2-.5a2.19,2.19,0,0,0,.3-.5l.4-.4c.2-.1.3-.2.5-.3a1.69,1.69,0,0,1,.5-.2c.2,0,.4-.1.6-.1h.6c.2,0,.4.1.6.1A1.69,1.69,0,0,0,1579.7-133.49Zm-16.6-8.2.5.2c.2.1.3.2.5.3a.78.78,0,0,1,.4.4l.4.4c.1.2.2.3.3.5s.1.4.2.5.1.4.1.6a1.27,1.27,0,0,1-.1.6.76.76,0,0,1-.2.5,2.19,2.19,0,0,0-.3.5.78.78,0,0,1-.4.4l-.4.4c-.2.1-.3.2-.5.3s-.4.1-.5.2-.4.1-.6.1a1.27,1.27,0,0,1-.6-.1.76.76,0,0,1-.5-.2l-.5-.2c-.2-.1-.3-.2-.5-.3a.78.78,0,0,1-.4-.4l-.4-.4a2.19,2.19,0,0,1-.3-.5c-.1-.2-.1-.4-.2-.5s-.1-.4-.1-.6a1.27,1.27,0,0,1,.1-.6.76.76,0,0,1,.2-.5c.1-.2.2-.3.3-.5a.78.78,0,0,1,.4-.4l.4-.4a2.19,2.19,0,0,1,.5-.3c.2-.1.4-.1.5-.2s.4-.1.6-.1a1.27,1.27,0,0,1,.6.1C1562.7-141.79,1562.9-141.79,1563.1-141.69Zm-17.7-6,.6.2c.2.1.4.1.5.2s.3.2.5.3a.78.78,0,0,1,.4.4,2.19,2.19,0,0,1,.3.5c.1.2.2.3.2.5a1.27,1.27,0,0,1,.1.6v.6a1.27,1.27,0,0,1-.1.6c-.1.2-.1.4-.2.5s-.2.3-.3.5a.78.78,0,0,1-.4.4,2.19,2.19,0,0,1-.5.3c-.2.1-.3.2-.5.2a1.27,1.27,0,0,1-.6.1h-.6a1.27,1.27,0,0,1-.6-.1l-.6-.2c-.2-.1-.4-.1-.5-.2s-.3-.2-.5-.3a.78.78,0,0,1-.4-.4,2.19,2.19,0,0,1-.3-.5c-.1-.2-.2-.3-.2-.5a1.27,1.27,0,0,1-.1-.6v-.6a1.27,1.27,0,0,1,.1-.6c.1-.2.1-.4.2-.5s.2-.3.3-.5a.78.78,0,0,1,.4-.4,2.19,2.19,0,0,1,.5-.3c.2-.1.3-.2.5-.2a1.27,1.27,0,0,1,.6-.1h.6C1545.1-147.79,1545.3-147.79,1545.4-147.69Zm-18.2-3.7.6.1c.2,0,.4.1.6.1a.76.76,0,0,1,.5.2c.2.1.3.2.5.3l.4.4c.1.2.2.3.3.5a1.69,1.69,0,0,1,.2.5c0,.2.1.4.1.6v.6c0,.2-.1.4-.1.6s-.1.4-.2.5-.2.3-.3.5l-.4.4c-.2.1-.3.2-.5.3a1.69,1.69,0,0,1-.5.2c-.2,0-.4.1-.6.1h-.6l-.6-.1c-.2,0-.4-.1-.6-.1s-.4-.1-.5-.2-.3-.2-.5-.3l-.4-.4c-.1-.2-.2-.3-.3-.5a1.69,1.69,0,0,1-.2-.5c0-.2-.1-.4-.1-.6v-.6c0-.2.1-.4.1-.6s.1-.4.2-.5.2-.3.3-.5l.4-.4c.2-.1.3-.2.5-.3a1.69,1.69,0,0,1,.5-.2c.2,0,.4-.1.6-.1S1527-151.39,1527.2-151.39Zm-18.6-1.3h.6a1.27,1.27,0,0,1,.6.1.76.76,0,0,1,.5.2c.2.1.3.2.5.3a.78.78,0,0,1,.4.4l.4.4c.1.2.2.3.3.5s.1.4.2.5.1.4.1.6a1.27,1.27,0,0,1-.1.6.76.76,0,0,1-.2.5,2.19,2.19,0,0,0-.3.5.78.78,0,0,1-.4.4l-.4.4c-.2.1-.3.2-.5.3s-.4.1-.5.2-.4.1-.6.1h-.6a1.27,1.27,0,0,1-.6-.1c-.2-.1-.4-.1-.5-.2s-.3-.2-.5-.3a.78.78,0,0,1-.4-.4l-.4-.4c-.1-.2-.2-.3-.3-.5s-.1-.4-.2-.5-.1-.4-.1-.6a1.27,1.27,0,0,1,.1-.6.76.76,0,0,1,.2-.5c.1-.2.2-.3.3-.5a.78.78,0,0,1,.4-.4l.4-.4c.2-.1.3-.2.5-.3s.4-.1.5-.2A1.49,1.49,0,0,1,1508.6-152.69Zm-18.5,1.2.6-.1h.6a1.27,1.27,0,0,1,.6.1c.2.1.4.1.5.2s.3.2.5.3a.78.78,0,0,1,.4.4,2.19,2.19,0,0,1,.3.5c.1.2.2.3.2.5a1.27,1.27,0,0,1,.1.6v.6a1.27,1.27,0,0,1-.1.6c-.1.2-.1.4-.2.5s-.2.3-.3.5a.78.78,0,0,1-.4.4,2.19,2.19,0,0,1-.5.3c-.2.1-.3.2-.5.2a1.27,1.27,0,0,1-.6.1l-.6.1h-.6a1.27,1.27,0,0,1-.6-.1c-.2-.1-.4-.1-.5-.2s-.3-.2-.5-.3a.78.78,0,0,1-.4-.4,2.19,2.19,0,0,1-.3-.5c-.1-.2-.2-.3-.2-.5a1.27,1.27,0,0,1-.1-.6v-.6a1.27,1.27,0,0,1,.1-.6c.1-.2.1-.4.2-.5s.2-.3.3-.5a.78.78,0,0,1,.4-.4,2.19,2.19,0,0,1,.5-.3c.2-.1.3-.2.5-.2S1489.9-151.49,1490.1-151.49Zm-18.3,3.6.6-.2c.2,0,.4-.1.6-.1h.6c.2,0,.4.1.6.1s.4.1.5.2.3.2.5.3l.4.4a2.19,2.19,0,0,1,.3.5,1.69,1.69,0,0,1,.2.5c0,.2.1.4.1.6v.6c0,.2-.1.4-.1.6s-.1.4-.2.5-.2.3-.3.5-.3.3-.4.4-.3.2-.5.3a1.69,1.69,0,0,1-.5.2l-.6.2c-.2,0-.4.1-.6.1h-.6c-.2,0-.4-.1-.6-.1s-.4-.1-.5-.2-.3-.2-.5-.3l-.4-.4c-.1-.2-.2-.3-.3-.5a1.69,1.69,0,0,1-.2-.5c0-.2-.1-.4-.1-.6v-.6c0-.2.1-.4.1-.6s.1-.4.2-.5a2.19,2.19,0,0,0,.3-.5l.4-.4c.2-.1.3-.2.5-.3S1471.6-147.89,1471.8-147.89Zm-17.6,5.9.5-.2c.2-.1.4-.1.5-.2s.4-.1.6-.1a1.27,1.27,0,0,1,.6.1.76.76,0,0,1,.5.2c.2.1.3.2.5.3a.78.78,0,0,1,.4.4l.4.4c.1.2.2.3.3.5s.1.4.2.5.1.4.1.6a1.27,1.27,0,0,1-.1.6.76.76,0,0,1-.2.5,2.19,2.19,0,0,0-.3.5.78.78,0,0,1-.4.4l-.4.4c-.2.1-.3.2-.5.3l-.5.2c-.2.1-.4.1-.5.2s-.4.1-.6.1a1.27,1.27,0,0,1-.6-.1.76.76,0,0,1-.5-.2c-.2-.1-.3-.2-.5-.3a.78.78,0,0,1-.4-.4l-.4-.4c-.1-.2-.2-.3-.3-.5s-.1-.4-.2-.5-.1-.4-.1-.6a1.27,1.27,0,0,1,.1-.6.76.76,0,0,1,.2-.5c.1-.2.2-.3.3-.5a.78.78,0,0,1,.4-.4l.4-.4A2.19,2.19,0,0,1,1454.2-142Zm-16.7,8.2.5-.3c.2-.1.3-.2.5-.2a1.27,1.27,0,0,1,.6-.1h.6a1.27,1.27,0,0,1,.6.1c.2.1.4.1.5.2s.3.2.5.3a.78.78,0,0,1,.4.4,2.19,2.19,0,0,1,.3.5c.1.2.2.3.2.5a1.27,1.27,0,0,1,.1.6v.6a1.27,1.27,0,0,1-.1.6c-.1.2-.1.4-.2.5s-.2.3-.3.5a.78.78,0,0,1-.4.4,2.19,2.19,0,0,1-.5.3l-.5.3c-.2.1-.3.2-.5.2a1.27,1.27,0,0,1-.6.1h-.6a1.27,1.27,0,0,1-.6-.1c-.2-.1-.4-.1-.5-.2s-.3-.2-.5-.3a.78.78,0,0,1-.4-.4,2.19,2.19,0,0,1-.3-.5c-.1-.2-.2-.3-.2-.5a1.27,1.27,0,0,1-.1-.6v-.6a1.27,1.27,0,0,1,.1-.6c.1-.2.1-.4.2-.5s.2-.3.3-.5a.78.78,0,0,1,.4-.4A2.19,2.19,0,0,1,1437.5-133.79Zm-15.6,10.4.5-.4c.2-.1.3-.2.5-.3a1.69,1.69,0,0,1,.5-.2c.2,0,.4-.1.6-.1h.6c.2,0,.4.1.6.1a.76.76,0,0,1,.5.2c.2.1.3.2.5.3l.4.4c.1.2.2.3.3.5a1.69,1.69,0,0,1,.2.5c0,.2.1.4.1.6v.6c0,.2-.1.4-.1.6s-.1.4-.2.5-.2.3-.3.5-.3.3-.4.4l-.5.4c-.2.1-.3.2-.5.3a1.69,1.69,0,0,1-.5.2c-.2,0-.4.1-.6.1h-.6c-.2,0-.4-.1-.6-.1s-.4-.1-.5-.2-.3-.2-.5-.3l-.4-.4c-.1-.2-.2-.3-.3-.5a1.69,1.69,0,0,1-.2-.5c0-.2-.1-.4-.1-.6v-.6c0-.2.1-.4.1-.6s.1-.4.2-.5.2-.3.3-.5Zm-14,12.2.4-.4.4-.4c.2-.1.3-.2.5-.3s.4-.1.5-.2.4-.1.6-.1a1.27,1.27,0,0,1,.6.1.76.76,0,0,1,.5.2c.2.1.3.2.5.3a.78.78,0,0,1,.4.4l.4.4c.1.2.2.3.3.5s.1.4.2.5.1.4.1.6a1.27,1.27,0,0,1-.1.6.76.76,0,0,1-.2.5c-.1.2-.2.3-.3.5a.78.78,0,0,1-.4.4l-.4.4-.4.4c-.2.1-.3.2-.5.3s-.4.1-.5.2-.4.1-.6.1a1.27,1.27,0,0,1-.6-.1.76.76,0,0,1-.5-.2c-.2-.1-.3-.2-.5-.3a.78.78,0,0,1-.4-.4l-.4-.4c-.1-.2-.2-.3-.3-.5s-.1-.4-.2-.5-.1-.4-.1-.6a1.27,1.27,0,0,1,.1-.6.76.76,0,0,1,.2-.5c.1-.2.2-.3.3-.5S1407.8-111.09,1407.9-111.19Zm-12.3,14,.4-.5a.78.78,0,0,1,.4-.4,2.19,2.19,0,0,1,.5-.3c.2-.1.3-.2.5-.2s.4-.1.6-.1h.6a1.27,1.27,0,0,1,.6.1c.2.1.4.1.5.2s.3.2.5.3a.78.78,0,0,1,.4.4,2.19,2.19,0,0,1,.3.5c.1.2.2.3.2.5a1.27,1.27,0,0,1,.1.6v.6a1.27,1.27,0,0,1-.1.6c-.1.2-.1.4-.2.5s-.2.3-.3.5l-.4.5a.78.78,0,0,1-.4.4,2.19,2.19,0,0,1-.5.3c-.2.1-.3.2-.5.2s-.4.1-.6.1h-.6a1.27,1.27,0,0,1-.6-.1c-.2-.1-.4-.1-.5-.2a2.19,2.19,0,0,0-.5-.3.78.78,0,0,1-.4-.4,2.19,2.19,0,0,1-.3-.5c-.1-.2-.2-.3-.2-.5a1.27,1.27,0,0,1-.1-.6v-.6a1.27,1.27,0,0,1,.1-.6c.1-.2.1-.4.2-.5A2.19,2.19,0,0,1,1395.6-97.19Zm-10.4,15.5.3-.5c.1-.2.2-.3.3-.5l.4-.4c.2-.1.3-.2.5-.3a1.69,1.69,0,0,1,.5-.2c.2,0,.4-.1.6-.1h.6c.2,0,.4.1.6.1s.4.1.5.2.3.2.5.3l.4.4c.1.2.2.3.3.5a1.69,1.69,0,0,1,.2.5c0,.2.1.4.1.6v.6c0,.2-.1.4-.1.6s-.1.4-.2.5l-.3.5c-.1.2-.2.3-.3.5l-.4.4c-.2.1-.3.2-.5.3a1.69,1.69,0,0,1-.5.2c-.2,0-.4.1-.6.1h-.6c-.2,0-.4-.1-.6-.1s-.4-.1-.5-.2-.3-.2-.5-.3l-.4-.4a2.19,2.19,0,0,1-.3-.5,1.69,1.69,0,0,1-.2-.5c0-.2-.1-.4-.1-.6v-.6c0-.2.1-.4.1-.6S1385.1-81.59,1385.2-81.69Zm-8.2,16.6.2-.5c.1-.2.2-.3.3-.5a.78.78,0,0,1,.4-.4l.4-.4c.2-.1.3-.2.5-.3s.4-.1.5-.2.4-.1.6-.1a1.27,1.27,0,0,1,.6.1.76.76,0,0,1,.5.2c.2.1.3.2.5.3a.78.78,0,0,1,.4.4l.4.4c.1.2.2.3.3.5s.1.4.2.5.1.4.1.6a1.27,1.27,0,0,1-.1.6.76.76,0,0,1-.2.5l-.2.5c-.1.2-.2.3-.3.5a.78.78,0,0,1-.4.4l-.4.4c-.2.1-.3.2-.5.3s-.4.1-.5.2-.4.1-.6.1a1.27,1.27,0,0,1-.6-.1.76.76,0,0,1-.5-.2c-.2-.1-.3-.2-.5-.3a.78.78,0,0,1-.4-.4l-.4-.4a2.19,2.19,0,0,1-.3-.5c-.1-.2-.1-.4-.2-.5s-.1-.4-.1-.6a1.27,1.27,0,0,1,.1-.6A1.69,1.69,0,0,1,1377-65.09Zm-6,17.7.2-.6c.1-.2.1-.4.2-.5a2.19,2.19,0,0,0,.3-.5.78.78,0,0,1,.4-.4,2.19,2.19,0,0,1,.5-.3c.2-.1.3-.2.5-.2a1.27,1.27,0,0,1,.6-.1h.6a1.27,1.27,0,0,1,.6.1c.2.1.4.1.5.2s.3.2.5.3a.78.78,0,0,1,.4.4,2.19,2.19,0,0,1,.3.5c.1.2.2.3.2.5a1.27,1.27,0,0,1,.1.6v.6a1.27,1.27,0,0,1-.1.6l-.2.6c-.1.2-.1.4-.2.5a2.19,2.19,0,0,0-.3.5.78.78,0,0,1-.4.4,2.19,2.19,0,0,1-.5.3c-.2.1-.3.2-.5.2a1.27,1.27,0,0,1-.6.1h-.6a1.27,1.27,0,0,1-.6-.1c-.2-.1-.4-.1-.5-.2s-.3-.2-.5-.3a.78.78,0,0,1-.4-.4,2.19,2.19,0,0,1-.3-.5c-.1-.2-.2-.3-.2-.5a1.27,1.27,0,0,1-.1-.6v-.6A1.08,1.08,0,0,1,1371-47.39Zm-3.7,18.3.1-.6c0-.2.1-.4.1-.6s.1-.4.2-.5.2-.3.3-.5l.4-.4c.2-.1.3-.2.5-.3a1.69,1.69,0,0,1,.5-.2c.2,0,.4-.1.6-.1h.6c.2,0,.4.1.6.1s.4.1.5.2.3.2.5.3l.4.4c.1.2.2.3.3.5a1.69,1.69,0,0,1,.2.5c0,.1.1.4.1.6v.6l-.1.6c0,.2-.1.4-.1.6s-.1.4-.2.5-.2.3-.3.5l-.4.4c-.2.1-.3.2-.5.3a1.69,1.69,0,0,1-.5.2c-.2,0-.4.1-.6.1h-.6c-.2,0-.4-.1-.6-.1s-.4-.1-.5-.2-.3-.2-.5-.3l-.4-.4c-.1-.2-.2-.3-.3-.5a1.69,1.69,0,0,1-.2-.5c0-.2-.1-.4-.1-.6Zm-1.2,18.5v-.6a1.27,1.27,0,0,1,.1-.6c.1-.2.1-.4.2-.5s.2-.3.3-.5a.78.78,0,0,1,.4-.4c.2-.1.3-.3.4-.4s.3-.2.5-.3.4-.1.5-.2.4-.1.6-.1a1.27,1.27,0,0,1,.6.1.76.76,0,0,1,.5.2c.2.1.3.2.5.3a.78.78,0,0,1,.4.4l.4.4c.1.2.2.3.3.5s.1.4.2.5.1.4.1.6v.6a1.27,1.27,0,0,1-.1.6.76.76,0,0,1-.2.5c-.1.2-.2.3-.3.5a.78.78,0,0,1-.4.4l-.4.4c-.2.1-.3.2-.5.3s-.4.1-.5.2-.4.1-.6.1a1.27,1.27,0,0,1-.6-.1.76.76,0,0,1-.5-.2c-.2-.1-.3-.2-.5-.3a.78.78,0,0,1-.4-.4l-.4-.4c-.1-.2-.2-.3-.3-.5s-.1-.4-.2-.5A1.27,1.27,0,0,1,1366.1-10.59Zm1.1,18.5-.1-.6v-.6a1.27,1.27,0,0,1,.1-.6c.1-.2.1-.4.2-.5s.2-.3.3-.5a.78.78,0,0,1,.4-.4c.2-.1.3-.2.5-.3s.3-.2.5-.2a1.27,1.27,0,0,1,.6-.1h.6a1.27,1.27,0,0,1,.6.1c.2.1.4.1.5.2s.3.2.5.3a.78.78,0,0,1,.4.4,2.19,2.19,0,0,1,.3.5c.1.2.2.3.2.5a1.27,1.27,0,0,1,.1.6l.1.6v.6a1.27,1.27,0,0,1-.1.6c-.1.2-.1.4-.2.5s-.2.3-.3.5a.78.78,0,0,1-.4.4,2.19,2.19,0,0,1-.5.3c-.2.1-.3.2-.5.2a1.27,1.27,0,0,1-.6.1h-.6a1.27,1.27,0,0,1-.6-.1c-.2-.1-.4-.1-.5-.2s-.3-.2-.5-.3a.78.78,0,0,1-.4-.4,2.19,2.19,0,0,1-.3-.5c-.1-.2-.2-.3-.2-.5A1.27,1.27,0,0,0,1367.2,7.91Zm3.6,18.3-.2-.6c0-.2-.1-.4-.1-.6v-.6c0-.2.1-.4.1-.6s.1-.4.2-.5.2-.3.3-.5l.4-.4c.2-.1.3-.2.5-.3a1.69,1.69,0,0,1,.5-.2c.2,0,.4-.1.6-.1h.6c.2,0,.4.1.6.1s.4.1.5.2a2.19,2.19,0,0,0,.5.3l.4.4c.1.2.2.3.3.5a1.69,1.69,0,0,1,.2.5l.2.6c0,.2.1.4.1.6v.6c0,.2-.1.4-.1.6s-.1.4-.2.5-.2.3-.3.5l-.4.4c-.2.1-.3.2-.5.3a1.69,1.69,0,0,1-.5.2c-.2,0-.4.1-.6.1h-.6c-.2,0-.4-.1-.6-.1a.76.76,0,0,1-.5-.2c-.2-.1-.3-.2-.5-.3l-.4-.4c-.1-.2-.2-.3-.3-.5A1.69,1.69,0,0,0,1370.8,26.21Zm6,17.6-.2-.5c-.1-.2-.1-.4-.2-.5s-.1-.4-.1-.6a1.27,1.27,0,0,1,.1-.6.76.76,0,0,1,.2-.5c.1-.2.2-.3.3-.5a.78.78,0,0,1,.4-.4l.4-.4c.2-.1.3-.2.5-.3s.4-.1.5-.2.4-.1.6-.1a1.27,1.27,0,0,1,.6.1.76.76,0,0,1,.5.2c.2.1.3.2.5.3a.78.78,0,0,1,.4.4l.4.4c.1.2.2.3.3.5l.2.5c.1.2.1.4.2.5s.1.4.1.6a1.27,1.27,0,0,1-.1.6.76.76,0,0,1-.2.5c-.1.2-.2.3-.3.5a.78.78,0,0,1-.4.4l-.4.4c-.2.1-.3.2-.5.3s-.4.1-.5.2-.4.1-.6.1a1.27,1.27,0,0,1-.6-.1.76.76,0,0,1-.5-.2c-.2-.1-.3-.2-.5-.3a.78.78,0,0,1-.4-.4l-.4-.4A2.19,2.19,0,0,1,1376.8,43.81Zm8.2,16.8h0l-.3-.5c-.1-.2-.2-.3-.2-.5s-.1-.4-.1-.6v-.6a1.27,1.27,0,0,1,.1-.6c.1-.2.1-.4.2-.5s.2-.3.3-.5a.78.78,0,0,1,.4-.4,2.19,2.19,0,0,1,.5-.3c.2-.1.3-.2.5-.2a1.27,1.27,0,0,1,.6-.1h.6a1.27,1.27,0,0,1,.6.1c.2.1.4.1.5.2s.3.2.5.3a.78.78,0,0,1,.4.4,2.19,2.19,0,0,1,.3.5l.3.4v.1c.1.2.2.3.2.5a1.27,1.27,0,0,1,.1.6v.6a1.27,1.27,0,0,1-.1.6.76.76,0,0,1-.2.5c-.1.2-.2.3-.3.5a.78.78,0,0,1-.4.4c-.2.1-.3.2-.5.3s-.3.2-.5.2a1.27,1.27,0,0,1-.6.1h-.6a1.27,1.27,0,0,1-.6-.1.76.76,0,0,1-.5-.2c-.2-.1-.3-.2-.5-.3a.78.78,0,0,1-.4-.4A2.19,2.19,0,0,0,1385,60.61Zm10.3,15.5-.4-.5c-.1-.2-.2-.3-.3-.5a1.69,1.69,0,0,1-.2-.5c0-.1-.1-.4-.1-.6v-.6c0-.2.1-.4.1-.6s.1-.4.2-.5.2-.3.3-.5l.4-.4c.2-.1.3-.2.5-.3a1.69,1.69,0,0,1,.5-.2c.1,0,.4-.1.6-.1h.6c.2,0,.4.1.6.1s.4.1.5.2.3.2.5.3l.4.4.4.5c.1.2.2.3.3.5a1.69,1.69,0,0,1,.2.5c0,.2.1.4.1.6v.6c0,.2-.1.4-.1.6s-.1.4-.2.5-.2.3-.3.5l-.4.4c-.2.1-.3.2-.5.3a1.69,1.69,0,0,1-.5.2c-.2,0-.4.1-.6.1h-.6c-.2,0-.4-.1-.6-.1s-.4-.1-.5-.2-.3-.2-.5-.3A.78.78,0,0,0,1395.3,76.11Zm12.3,14-.4-.4-.4-.4c-.1-.2-.2-.3-.3-.5s-.1-.4-.2-.5-.1-.4-.1-.6a1.27,1.27,0,0,1,.1-.6.76.76,0,0,1,.2-.5c.1-.2.2-.3.3-.5a.78.78,0,0,1,.4-.4l.4-.4c.2-.1.3-.2.5-.3s.4-.1.5-.2.4-.1.6-.1a1.27,1.27,0,0,1,.6.1.76.76,0,0,1,.5.2c.2.1.3.2.5.3a.78.78,0,0,1,.4.4l.4.4.4.4c.1.2.2.3.3.5s.1.4.2.5.1.4.1.6a1.27,1.27,0,0,1-.1.6.76.76,0,0,1-.2.5c-.1.2-.2.3-.3.5a.78.78,0,0,1-.4.4l-.4.4c-.2.1-.3.2-.5.3s-.4.1-.5.2-.4.1-.6.1a1.27,1.27,0,0,1-.6-.1.76.76,0,0,1-.5-.2c-.2-.1-.3-.2-.5-.3S1407.7,90.21,1407.6,90.11Zm14,12.3-.5-.4a.78.78,0,0,1-.4-.4,2.19,2.19,0,0,1-.3-.5c-.1-.2-.2-.3-.2-.5a1.27,1.27,0,0,1-.1-.6v-.6a1.27,1.27,0,0,1,.1-.6c.1-.2.1-.4.2-.5s.2-.3.3-.5a.78.78,0,0,1,.4-.4,2.19,2.19,0,0,1,.5-.3c.2-.1.3-.2.5-.2a1.27,1.27,0,0,1,.6-.1h.6a1.27,1.27,0,0,1,.6.1c.2.1.4.1.5.2s.3.2.5.3l.5.4a.78.78,0,0,1,.4.4,2.19,2.19,0,0,1,.3.5c.1.2.2.3.2.5a1.27,1.27,0,0,1,.1.6v.6a1.27,1.27,0,0,1-.1.6c-.1.2-.1.4-.2.5s-.2.3-.3.5a.78.78,0,0,1-.4.4c-.2.1-.3.2-.5.3s-.3.2-.5.2a1.27,1.27,0,0,1-.6.1h-.6a1.27,1.27,0,0,1-.6-.1c-.2-.1-.4-.1-.5-.2S1421.8,102.51,1421.6,102.41Zm15.5,10.3-.5-.3c-.2-.1-.3-.2-.5-.3l-.4-.4c-.1-.2-.2-.3-.3-.5a1.69,1.69,0,0,1-.2-.5c0-.2-.1-.4-.1-.6v-.6c0-.2.1-.4.1-.6s.1-.4.2-.5.2-.3.3-.5l.4-.4c.2-.1.3-.2.5-.3a1.69,1.69,0,0,1,.5-.2c.1,0,.4-.1.6-.1h.6c.2,0,.4.1.6.1s.4.1.5.2l.5.3c.2.1.3.2.5.3l.4.4c.1.2.2.3.3.5a1.69,1.69,0,0,1,.2.5c0,.2.1.4.1.6v.6c0,.2-.1.4-.1.6s-.1.4-.2.5-.2.3-.3.5l-.4.4c-.2.1-.3.2-.5.3a1.69,1.69,0,0,1-.5.2c-.2,0-.4.1-.6.1h-.6c-.2,0-.4-.1-.6-.1S1437.3,112.81,1437.1,112.71Zm16.7,8.3-.5-.2c-.2-.1-.3-.2-.5-.3a.78.78,0,0,1-.4-.4l-.4-.4c-.1-.2-.2-.3-.3-.5s-.1-.4-.2-.5-.1-.4-.1-.6a1.27,1.27,0,0,1,.1-.6.76.76,0,0,1,.2-.5c.1-.2.2-.3.3-.5a.78.78,0,0,1,.4-.4l.4-.4c.2-.1.3-.2.5-.3s.4-.1.5-.2.4-.1.6-.1a1.27,1.27,0,0,1,.6.1c.2.1.4.1.5.2l.5.2c.2.1.3.2.5.3a.78.78,0,0,1,.4.4l.4.4c.1.2.2.3.3.5s.1.4.2.5.1.4.1.6a1.27,1.27,0,0,1-.1.6.76.76,0,0,1-.2.5c-.1.2-.2.3-.3.5a.78.78,0,0,1-.4.4l-.4.4c-.2.1-.3.2-.5.3s-.4.1-.5.2-.4.1-.6.1a1.27,1.27,0,0,1-.6-.1C1454.1,121.11,1454,121.11,1453.8,121Zm17.6,6-.6-.2c-.2-.1-.4-.1-.5-.2s-.3-.2-.5-.3a.78.78,0,0,1-.4-.4,2.19,2.19,0,0,1-.3-.5c-.1-.2-.2-.3-.2-.5a1.27,1.27,0,0,1-.1-.6v-.6a1.27,1.27,0,0,1,.1-.6c.1-.2.1-.4.2-.5s.2-.3.3-.5a.78.78,0,0,1,.4-.4,2.19,2.19,0,0,1,.5-.3c.2-.1.3-.2.5-.2a1.27,1.27,0,0,1,.6-.1h.6a1.27,1.27,0,0,1,.6.1l.6.2c.2.1.4.1.5.2s.3.2.5.3a.78.78,0,0,1,.4.4,2.19,2.19,0,0,1,.3.5c.1.2.2.3.2.5a1.27,1.27,0,0,1,.1.6v.6a1.27,1.27,0,0,1-.1.6c-.1.2-.1.4-.2.5s-.2.3-.3.5a.78.78,0,0,1-.4.4,2.19,2.19,0,0,1-.5.3c-.2.1-.3.2-.5.2a1.27,1.27,0,0,1-.6.1h-.6C1471.8,127.11,1471.6,127,1471.4,127Zm18.3,3.6-.6-.1c-.2,0-.4-.1-.6-.1s-.4-.1-.5-.2-.3-.2-.5-.3l-.4-.4c-.1-.2-.2-.3-.3-.5a1.69,1.69,0,0,1-.2-.5c0-.2-.1-.4-.1-.6v-.6c0-.2.1-.4.1-.6s.1-.4.2-.5.2-.3.3-.5l.4-.4c.2-.1.3-.2.5-.3a1.69,1.69,0,0,1,.5-.2c.2,0,.4-.1.6-.1h.6l.6.1c.2,0,.4.1.6.1s.4.1.5.2.3.2.5.3l.4.4c.1.2.2.3.3.5a1.69,1.69,0,0,1,.2.5c0,.2.1.4.1.6v.6c0,.2-.1.4-.1.6s-.1.4-.2.5-.2.3-.3.5l-.4.4a2.19,2.19,0,0,1-.5.3,1.69,1.69,0,0,1-.5.2c-.1,0-.4.1-.6.1A.64.64,0,0,1,1489.7,130.61Zm18.5,1.3h-.6a1.27,1.27,0,0,1-.6-.1.76.76,0,0,1-.5-.2c-.2-.1-.3-.2-.5-.3a.78.78,0,0,1-.4-.4l-.4-.4c-.1-.2-.2-.3-.3-.5s-.1-.4-.2-.5-.1-.4-.1-.6a1.27,1.27,0,0,1,.1-.6.76.76,0,0,1,.2-.5c.1-.2.2-.3.3-.5a.78.78,0,0,1,.4-.4l.4-.4c.2-.1.3-.2.5-.3s.4-.1.5-.2.4-.1.6-.1h.6a1.27,1.27,0,0,1,.6.1.76.76,0,0,1,.5.2c.2.1.3.2.5.3a.78.78,0,0,1,.4.4l.4.4c.1.2.2.3.3.5s.1.4.2.5.1.4.1.6a1.27,1.27,0,0,1-.1.6.76.76,0,0,1-.2.5c-.1.2-.2.3-.3.5a.78.78,0,0,1-.4.4l-.4.4c-.2.1-.3.2-.5.3s-.4.1-.5.2S1508.4,131.91,1508.2,131.91Zm18.5-1.2-.6.1h-.6a1.27,1.27,0,0,1-.6-.1c-.2-.1-.4-.1-.5-.2s-.3-.2-.5-.3a.78.78,0,0,1-.4-.4,2.19,2.19,0,0,1-.3-.5c-.1-.2-.2-.3-.2-.5a1.27,1.27,0,0,1-.1-.6v-.6a1.27,1.27,0,0,1,.1-.6c.1-.2.1-.4.2-.5s.2-.3.3-.5a.78.78,0,0,1,.4-.4,2.19,2.19,0,0,1,.5-.3c.2-.1.3-.2.5-.2a1.27,1.27,0,0,1,.6-.1l.6-.1h.6a1.27,1.27,0,0,1,.6.1c.2.1.4.1.5.2s.3.2.5.3a.78.78,0,0,1,.4.4,2.19,2.19,0,0,1,.3.5c.1.2.2.3.2.5a1.27,1.27,0,0,1,.1.6v.6a1.27,1.27,0,0,1-.1.6c-.1.2-.1.4-.2.5s-.2.3-.3.5a.78.78,0,0,1-.4.4,2.19,2.19,0,0,1-.5.3c-.2.1-.3.2-.5.2A1.27,1.27,0,0,0,1526.7,130.71ZM1545,127l-.6.2c-.2,0-.4.1-.6.1h-.6c-.2,0-.4-.1-.6-.1s-.4-.1-.5-.2-.3-.2-.5-.3l-.4-.4a2.19,2.19,0,0,1-.3-.5,1.69,1.69,0,0,1-.2-.5c0-.2-.1-.4-.1-.6v-.6c0-.2.1-.4.1-.6s.1-.4.2-.5a2.19,2.19,0,0,0,.3-.5l.4-.4c.2-.1.3-.2.5-.3a1.69,1.69,0,0,1,.5-.2l.6-.2c.2,0,.4-.1.6-.1h.6c.2,0,.4.1.6.1s.4.1.5.2.3.2.5.3l.4.4a2.19,2.19,0,0,1,.3.5,1.69,1.69,0,0,1,.2.5c0,.2.1.4.1.6v.6c0,.2-.1.4-.1.6s-.1.4-.2.5-.2.3-.3.5l-.4.4c-.2.1-.3.2-.5.3A.76.76,0,0,1,1545,127Zm17.7-5.9-.5.2c-.2.1-.4.1-.5.2s-.4.1-.6.1a1.27,1.27,0,0,1-.6-.1.76.76,0,0,1-.5-.2c-.2-.1-.3-.2-.5-.3a.78.78,0,0,1-.4-.4l-.4-.4c-.1-.2-.2-.3-.3-.5s-.1-.4-.2-.5-.1-.4-.1-.6a1.27,1.27,0,0,1,.1-.6.76.76,0,0,1,.2-.5c.1-.2.2-.3.3-.5a.78.78,0,0,1,.4-.4l.4-.4c.2-.1.3-.2.5-.3l.5-.2c.2-.1.4-.1.5-.2s.4-.1.6-.1a1.27,1.27,0,0,1,.6.1.76.76,0,0,1,.5.2c.2.1.3.2.5.3a.78.78,0,0,1,.4.4l.4.4c.1.2.2.3.3.5s.1.4.2.5.1.4.1.6a1.27,1.27,0,0,1-.1.6c-.1.2-.1.4-.2.5s-.2.3-.3.5a.78.78,0,0,1-.4.4l-.4.4A2.19,2.19,0,0,0,1562.7,121.11Zm16.7-8.3-.5.3c-.2.1-.3.2-.5.2s-.4.1-.6.1h-.6a1.27,1.27,0,0,1-.6-.1c-.2-.1-.4-.1-.5-.2s-.3-.2-.5-.3a.78.78,0,0,1-.4-.4,2.19,2.19,0,0,1-.3-.5c-.1-.2-.2-.3-.2-.5s-.1-.4-.1-.6v-.6a1.27,1.27,0,0,1,.1-.6c.1-.2.1-.4.2-.5s.2-.3.3-.5a.78.78,0,0,1,.4-.4,2.19,2.19,0,0,1,.5-.3l.5-.3c.2-.1.3-.2.5-.2s.4-.1.6-.1h.6a1.27,1.27,0,0,1,.6.1c.2.1.4.1.5.2s.3.2.5.3a.78.78,0,0,1,.4.4c.1.2.2.3.3.5s.2.3.2.5a1.27,1.27,0,0,1,.1.6v.6a1.27,1.27,0,0,1-.1.6c-.1.2-.1.4-.2.5s-.2.3-.3.5a.78.78,0,0,1-.4.4A2.19,2.19,0,0,0,1579.4,112.81Zm15.5-10.3-.5.4c-.2.1-.3.2-.5.3a1.69,1.69,0,0,1-.5.2c-.2,0-.4.1-.6.1h-.6c-.2,0-.4-.1-.6-.1s-.4-.1-.5-.2-.3-.2-.5-.3l-.4-.4c-.1-.2-.2-.3-.3-.5a1.69,1.69,0,0,1-.2-.5c0-.2-.1-.4-.1-.6v-.6c0-.2.1-.4.1-.6s.1-.4.2-.5.2-.3.3-.5.3-.3.4-.4l.5-.4c.2-.1.3-.2.5-.3a1.69,1.69,0,0,1,.5-.2c.2,0,.4-.1.6-.1h.6c.2,0,.4.1.6.1s.4.1.5.2.3.2.5.3l.4.4c.1.2.2.3.3.5a1.69,1.69,0,0,1,.2.5c0,.2.1.4.1.6v.6c0,.2-.1.4-.1.6s-.1.4-.2.5a2.19,2.19,0,0,0-.3.5C1595.2,102.31,1595,102.41,1594.9,102.51Zm14-12.3-.4.4-.4.4c-.2.1-.3.2-.5.3s-.4.1-.5.2-.4.1-.6.1a1.27,1.27,0,0,1-.6-.1.76.76,0,0,1-.5-.2c-.2-.1-.3-.2-.5-.3a.78.78,0,0,1-.4-.4l-.4-.4c-.1-.2-.2-.3-.3-.5s-.1-.4-.2-.5-.1-.4-.1-.6a1.27,1.27,0,0,1,.1-.6.76.76,0,0,1,.2-.5c.1-.2.2-.3.3-.5a.78.78,0,0,1,.4-.4l.4-.4.4-.4a2.19,2.19,0,0,1,.5-.3c.2-.1.4-.1.5-.2s.4-.1.6-.1a1.27,1.27,0,0,1,.6.1.76.76,0,0,1,.5.2c.2.1.3.2.5.3a.78.78,0,0,1,.4.4l.4.4c.1.2.2.3.3.5s.1.4.2.5.1.4.1.6a1.27,1.27,0,0,1-.1.6.76.76,0,0,1-.2.5c-.1.2-.2.3-.3.5S1609,90.11,1608.9,90.21Zm12.3-14-.4.5a.78.78,0,0,1-.4.4,2.19,2.19,0,0,1-.5.3c-.2.1-.3.2-.5.2a1.27,1.27,0,0,1-.6.1h-.6a1.27,1.27,0,0,1-.6-.1c-.2-.1-.4-.1-.5-.2s-.3-.2-.5-.3a.78.78,0,0,1-.4-.4,2.19,2.19,0,0,1-.3-.5c-.1-.2-.2-.3-.2-.5a1.27,1.27,0,0,1-.1-.6v-.6a1.27,1.27,0,0,1,.1-.6c.1-.2.1-.4.2-.5s.2-.3.3-.5l.4-.5a.78.78,0,0,1,.4-.4,2.19,2.19,0,0,1,.5-.3c.2-.1.3-.2.5-.2a1.27,1.27,0,0,1,.6-.1h.6a1.27,1.27,0,0,1,.6.1c.2.1.4.1.5.2s.3.2.5.3a.78.78,0,0,1,.4.4,2.19,2.19,0,0,1,.3.5c.1.2.2.3.2.5a1.27,1.27,0,0,1,.1.6v.6a1.27,1.27,0,0,1-.1.6.76.76,0,0,1-.2.5C1621.4,75.81,1621.3,76.11,1621.2,76.21Zm10.3-15.5-.3.5c-.1.2-.2.3-.3.5l-.4.4c-.2.1-.3.2-.5.3a1.69,1.69,0,0,1-.5.2c-.2,0-.4.1-.6.1h-.6c-.2,0-.4-.1-.6-.1a.76.76,0,0,1-.5-.2,2.19,2.19,0,0,0-.5-.3l-.4-.4c-.1-.2-.2-.3-.3-.5a1.69,1.69,0,0,1-.2-.5c0-.2-.1-.4-.1-.6v-.6c0-.2.1-.4.1-.6s.1-.4.2-.5l.3-.5c.1-.2.2-.3.3-.5l.4-.4c.2-.1.3-.2.5-.3a1.69,1.69,0,0,1,.5-.2c.2,0,.4-.1.6-.1h.6c.2,0,.4.1.6.1s.4.1.5.2.3.2.5.3l.4.4c.1.2.2.3.3.5a1.69,1.69,0,0,1,.2.5c0,.2.1.4.1.6v.6c0,.2-.1.4-.1.6A.76.76,0,0,1,1631.5,60.71Zm8.2-16.7-.2.5c-.1.2-.2.3-.3.5a.78.78,0,0,1-.4.4l-.4.4c-.2.1-.3.2-.5.3s-.4.1-.5.2-.4.1-.6.1a1.27,1.27,0,0,1-.6-.1.76.76,0,0,1-.5-.2c-.2-.1-.3-.2-.5-.3a.78.78,0,0,1-.4-.4l-.4-.4c-.1-.2-.2-.3-.3-.5s-.1-.4-.2-.5-.1-.4-.1-.6a1.27,1.27,0,0,1,.1-.6.76.76,0,0,1,.2-.5l.2-.5c.1-.2.2-.3.3-.5a.78.78,0,0,1,.4-.4l.4-.4c.2-.1.3-.2.5-.3s.4-.1.5-.2.4-.1.6-.1a1.27,1.27,0,0,1,.6.1.76.76,0,0,1,.5.2c.2.1.3.2.5.3a.78.78,0,0,1,.4.4c.1.2.3.3.4.4s.2.3.3.5.1.4.2.5.1.4.1.6a1.27,1.27,0,0,1-.1.6A.76.76,0,0,1,1639.7,44Zm6-17.6-.2.6c-.1.2-.1.4-.2.5s-.2.3-.3.5a.78.78,0,0,1-.4.4,2.19,2.19,0,0,1-.5.3c-.2.1-.3.2-.5.2a1.27,1.27,0,0,1-.6.1h-.6a1.27,1.27,0,0,1-.6-.1c-.2-.1-.4-.1-.5-.2s-.3-.2-.5-.3a.78.78,0,0,1-.4-.4c-.1-.2-.2-.3-.3-.5s-.2-.3-.2-.5a1.27,1.27,0,0,1-.1-.6v-.6a1.27,1.27,0,0,1,.1-.6l.2-.6a.76.76,0,0,1,.2-.5c.1-.2.2-.3.3-.5a.78.78,0,0,1,.4-.4,2.19,2.19,0,0,1,.5-.3c.2-.1.3-.2.5-.2s.4-.1.6-.1h.6a1.27,1.27,0,0,1,.6.1c.2.1.4.1.5.2s.3.2.5.3a.78.78,0,0,1,.4.4,2.19,2.19,0,0,1,.3.5c.1.2.2.3.2.5a1.27,1.27,0,0,1,.1.6v.6A1.27,1.27,0,0,1,1645.7,26.41Zm3.7-18.3-.1.6c0,.2-.1.4-.1.6s-.1.4-.2.5-.2.3-.3.5l-.4.4c-.2.1-.3.2-.5.3a1.69,1.69,0,0,1-.5.2c-.2,0-.4.1-.6.1h-.6c-.2,0-.4-.1-.6-.1s-.4-.1-.5-.2-.3-.2-.5-.3-.3-.3-.4-.4-.2-.3-.3-.5a1.69,1.69,0,0,1-.2-.5c0-.2-.1-.4-.1-.6v-.6l.1-.6c0-.2.1-.4.1-.6s.1-.4.2-.5.2-.3.3-.5l.4-.4c.2-.1.3-.2.5-.3a1.69,1.69,0,0,1,.5-.2c.2,0,.4-.1.6-.1h.6c.2,0,.4.1.6.1s.4.1.5.2.3.2.5.3l.4.4c.1.2.2.3.3.5a1.69,1.69,0,0,1,.2.5c0,.2.1.4.1.6Z"/><path class="cls-10" d="M246.81,354.94a44.4,44.4,0,1,1-44.4-44.4A44.43,44.43,0,0,1,246.81,354.94Z"/><path class="cls-7" d="M1479.85,249a62.22,62.22,0,1,1-64.06,60.33A62.34,62.34,0,0,1,1479.85,249Zm-4.15,133.88A71.77,71.77,0,1,0,1406.16,309,71.92,71.92,0,0,0,1475.7,382.91Z"/><circle class="cls-9" cx="1445.55" cy="253.87" r="26.17" transform="translate(485.23 1363.76) rotate(-59.09)"/><circle class="cls-4" cx="81.07" cy="65.22" r="42"/></g></svg>