<?xml version="1.0" encoding="utf-8"?>
<!-- Generator: Adobe Illustrator 25.2.2, SVG Export Plug-In . SVG Version: 6.00 Build 0)  -->
<svg version="1.1" id="Layer_1" xmlns="http://www.w3.org/2000/svg" xmlns:xlink="http://www.w3.org/1999/xlink" x="0px" y="0px"
	 viewBox="0 0 1494 366.2" style="enable-background:new 0 0 1494 366.2;" xml:space="preserve">
<style type="text/css">
	.st0{clip-path:url(#SVGID_2_);}
	.st1{opacity:0.92;fill:#FDFCF9;enable-background:new    ;}
	.st2{fill:#CF202F;}
	.st3{fill:none;stroke:#AA1A27;stroke-width:36.66;stroke-miterlimit:10;}
	.st4{fill:#F0AD4E;}
	.st5{fill:#CBDB2C;}
	.st6{fill:#FFC62F;}
	.st7{fill:#5BCBF5;}
	.st8{fill:none;stroke:#5BCBF5;stroke-width:20;stroke-miterlimit:10;}
</style>
<g>
	<g>
		<g>
			<g>
				<defs>
					<rect id="SVGID_1_" width="1494" height="366.2"/>
				</defs>
				<clipPath id="SVGID_2_">
					<use xlink:href="#SVGID_1_"  style="overflow:visible;"/>
				</clipPath>
				<g class="st0">
					<polygon class="st1" points="-90,100.1 1547,63.1 1547,335.2 -40,259.2 					"/>
					<circle class="st2" cx="69.7" cy="490.4" r="186.4"/>
					<path class="st3" d="M890.6,53.4c-24.9,0-45.1-20.2-45.1-45.1s20.2-45.1,45.1-45.1c24.9,0,45.1,20.2,45.1,45.1
						C935.7,33.2,915.5,53.4,890.6,53.4z"/>
					<path class="st4" d="M-63.2-69.6c-73.4,0-133.1,59.8-133.1,133.2s59.7,133.2,133.1,133.2S70,137.1,70,63.6S10.4-69.5-63.2-69.6
						z"/>
					<circle class="st5" cx="466.4" cy="324.9" r="66.4"/>
					<circle class="st6" cx="1508.3" cy="-10.4" r="121.3"/>
					<path class="st7" d="M1650.6-10.4v0.6c0,0.2,0,0.4-0.1,0.6c0,0.2-0.1,0.4-0.2,0.5c-0.1,0.2-0.2,0.3-0.3,0.5
						c-0.1,0.2-0.2,0.3-0.4,0.4l-0.4,0.4c-0.2,0.1-0.3,0.2-0.5,0.3s-0.4,0.1-0.5,0.2s-0.4,0.1-0.6,0.1s-0.4,0-0.6-0.1
						c-0.2,0-0.4-0.1-0.5-0.2c-0.2-0.1-0.3-0.2-0.5-0.3c-0.2-0.1-0.3-0.2-0.4-0.4l-0.4-0.4c-0.1-0.2-0.2-0.3-0.3-0.5
						c-0.1-0.2-0.1-0.4-0.2-0.5s-0.1-0.4-0.1-0.6v-0.6c0-0.2,0-0.4,0.1-0.6c0-0.2,0.1-0.4,0.2-0.5c0.1-0.2,0.2-0.3,0.3-0.5
						c0.1-0.2,0.2-0.3,0.4-0.4l0.4-0.4c0.2-0.1,0.3-0.2,0.5-0.3s0.4-0.1,0.5-0.2s0.4-0.1,0.6-0.1s0.4,0,0.6,0.1
						c0.2,0,0.4,0.1,0.5,0.2c0.2,0.1,0.3,0.2,0.5,0.3s0.3,0.2,0.4,0.4l0.4,0.4c0.1,0.2,0.2,0.3,0.3,0.5s0.1,0.4,0.2,0.5
						C1650.6-10.8,1650.6-10.6,1650.6-10.4z M1649.4-28.5v1.2c0,0.2,0,0.4-0.1,0.6s-0.1,0.4-0.2,0.5s-0.2,0.3-0.3,0.5
						c-0.1,0.2-0.2,0.3-0.4,0.4c-0.2,0.1-0.3,0.2-0.5,0.3s-0.3,0.2-0.5,0.2c-0.2,0.1-0.4,0.1-0.6,0.1h-0.6c-0.2,0-0.4,0-0.6-0.1
						s-0.4-0.1-0.5-0.2s-0.3-0.2-0.5-0.3c-0.2-0.1-0.3-0.2-0.4-0.4c-0.1-0.2-0.2-0.3-0.3-0.5c-0.1-0.2-0.2-0.3-0.2-0.5
						c-0.1-0.2-0.1-0.4-0.1-0.6v-1.1c0-0.2,0-0.4,0.1-0.6s0.1-0.4,0.2-0.5s0.2-0.3,0.3-0.5c0.1-0.2,0.2-0.3,0.4-0.4
						c0.2-0.1,0.3-0.2,0.5-0.3c0.2-0.1,0.3-0.2,0.5-0.2c0.2-0.1,0.4-0.1,0.6-0.1h0.6c0.2,0,0.4,0,0.6,0.1s0.4,0.1,0.5,0.2
						s0.3,0.2,0.5,0.3c0.2,0.1,0.3,0.2,0.4,0.4c0.1,0.2,0.2,0.3,0.3,0.5c0.1,0.2,0.2,0.3,0.2,0.5S1649.4-28.7,1649.4-28.5z
						 M1645.8-46.8l0.2,0.6c0,0.2,0.1,0.4,0.1,0.6v0.6c0,0.2-0.1,0.4-0.1,0.6s-0.1,0.4-0.2,0.5s-0.2,0.3-0.3,0.5s-0.3,0.3-0.4,0.4
						s-0.3,0.2-0.5,0.3s-0.3,0.2-0.5,0.2s-0.4,0.1-0.6,0.1h-0.6c-0.2,0-0.4-0.1-0.6-0.1s-0.4-0.1-0.5-0.2s-0.3-0.2-0.5-0.3l-0.4-0.4
						c-0.1-0.2-0.2-0.3-0.3-0.5c-0.1-0.2-0.2-0.3-0.2-0.5l-0.2-0.6c0-0.2-0.1-0.4-0.1-0.6v-0.6c0-0.2,0.1-0.4,0.1-0.6
						s0.1-0.4,0.2-0.5s0.2-0.3,0.3-0.5l0.4-0.4c0.2-0.1,0.3-0.2,0.5-0.3s0.3-0.2,0.5-0.2s0.4-0.1,0.6-0.1h0.6c0.2,0,0.4,0.1,0.6,0.1
						s0.4,0.1,0.5,0.2s0.3,0.2,0.5,0.3l0.4,0.4c0.1,0.2,0.2,0.3,0.3,0.5S1645.8-47,1645.8-46.8z M1639.9-64.5l0.2,0.5
						c0.1,0.2,0.1,0.4,0.2,0.5s0.1,0.4,0.1,0.6c0,0.2,0,0.4-0.1,0.6c0,0.2-0.1,0.4-0.2,0.5c-0.1,0.2-0.2,0.3-0.3,0.5
						c-0.1,0.2-0.2,0.3-0.4,0.4l-0.4,0.4c-0.2,0.1-0.3,0.2-0.5,0.3s-0.4,0.1-0.5,0.2s-0.4,0.1-0.6,0.1s-0.4,0-0.6-0.1
						c-0.2,0-0.4-0.1-0.5-0.2c-0.2-0.1-0.3-0.2-0.5-0.3s-0.3-0.2-0.4-0.4s-0.3-0.3-0.4-0.4s-0.2-0.3-0.3-0.5l-0.2-0.5
						c-0.1-0.2-0.1-0.4-0.2-0.5s-0.1-0.4-0.1-0.6c0-0.2,0-0.4,0.1-0.6c0-0.2,0.1-0.4,0.2-0.5c0.1-0.2,0.2-0.3,0.3-0.5
						c0.1-0.2,0.2-0.3,0.4-0.4l0.4-0.4c0.2-0.1,0.3-0.2,0.5-0.3s0.4-0.1,0.5-0.2s0.4-0.1,0.6-0.1s0.4,0,0.6,0.1
						c0.2,0,0.4,0.1,0.5,0.2c0.2,0.1,0.3,0.2,0.5,0.3c0.2,0.1,0.3,0.2,0.4,0.4c0.1,0.2,0.3,0.3,0.4,0.4
						C1639.7-64.8,1639.8-64.6,1639.9-64.5z M1631.7-81.2l0.3,0.5c0.1,0.2,0.2,0.3,0.2,0.5c0.1,0.2,0.1,0.4,0.1,0.6v0.6
						c0,0.2,0,0.4-0.1,0.6s-0.1,0.4-0.2,0.5s-0.2,0.3-0.3,0.5c-0.1,0.2-0.2,0.3-0.4,0.4c-0.2,0.1-0.3,0.2-0.5,0.3
						c-0.2,0.1-0.3,0.2-0.5,0.2c-0.2,0.1-0.4,0.1-0.6,0.1h-0.6c-0.2,0-0.4,0-0.6-0.1s-0.4-0.1-0.5-0.2s-0.3-0.2-0.5-0.3
						c-0.2-0.1-0.3-0.2-0.4-0.4c-0.1-0.2-0.2-0.3-0.3-0.5l-0.3-0.5c-0.1-0.2-0.2-0.3-0.2-0.5c-0.1-0.2-0.1-0.4-0.1-0.6v-0.6
						c0-0.2,0-0.4,0.1-0.6s0.1-0.4,0.2-0.5s0.2-0.3,0.3-0.5c0.1-0.2,0.2-0.3,0.4-0.4c0.2-0.1,0.3-0.2,0.5-0.3
						c0.2-0.1,0.3-0.2,0.5-0.2s0.4-0.1,0.6-0.1h0.6c0.2,0,0.4,0,0.6,0.1s0.4,0.1,0.5,0.2s0.3,0.2,0.5,0.3c0.2,0.1,0.3,0.2,0.4,0.4
						C1631.5-81.5,1631.6-81.4,1631.7-81.2L1631.7-81.2z M1621.4-96.7l0.4,0.5c0.1,0.2,0.2,0.3,0.3,0.5c0.1,0.2,0.2,0.3,0.2,0.5
						s0.1,0.4,0.1,0.6v0.6c0,0.2-0.1,0.4-0.1,0.6s-0.1,0.4-0.2,0.5s-0.2,0.3-0.3,0.5l-0.4,0.4c-0.2,0.1-0.3,0.2-0.5,0.3
						c-0.2,0.1-0.3,0.2-0.5,0.2s-0.4,0.1-0.6,0.1h-0.6c-0.2,0-0.4-0.1-0.6-0.1s-0.4-0.1-0.5-0.2s-0.3-0.2-0.5-0.3l-0.4-0.4l-0.4-0.5
						c-0.1-0.2-0.2-0.3-0.3-0.5c-0.1-0.2-0.2-0.3-0.2-0.5s-0.1-0.4-0.1-0.6v-0.6c0-0.2,0.1-0.4,0.1-0.6s0.1-0.4,0.2-0.5
						s0.2-0.3,0.3-0.5l0.4-0.4c0.2-0.1,0.3-0.2,0.5-0.3c0.2-0.1,0.3-0.2,0.5-0.2s0.4-0.1,0.6-0.1h0.6c0.2,0,0.4,0.1,0.6,0.1
						s0.4,0.1,0.5,0.2s0.3,0.2,0.5,0.3C1621.2-97,1621.3-96.9,1621.4-96.7z M1609.2-110.7l0.4,0.4l0.4,0.4c0.1,0.2,0.2,0.3,0.3,0.5
						s0.1,0.4,0.2,0.5s0.1,0.4,0.1,0.6s0,0.4-0.1,0.6c0,0.2-0.1,0.4-0.2,0.5c-0.1,0.2-0.2,0.3-0.3,0.5c-0.1,0.2-0.2,0.3-0.4,0.4
						l-0.4,0.4c-0.2,0.1-0.3,0.2-0.5,0.3s-0.4,0.1-0.5,0.2s-0.4,0.1-0.6,0.1s-0.4,0-0.6-0.1c-0.2,0-0.4-0.1-0.5-0.2
						c-0.2-0.1-0.3-0.2-0.5-0.3c-0.2-0.1-0.3-0.2-0.4-0.4l-0.4-0.4l-0.4-0.4c-0.1-0.2-0.2-0.3-0.3-0.5s-0.1-0.4-0.2-0.5
						s-0.1-0.4-0.1-0.6s0-0.4,0.1-0.6c0-0.2,0.1-0.4,0.2-0.5c0.1-0.2,0.2-0.3,0.3-0.5c0.1-0.2,0.2-0.3,0.4-0.4l0.4-0.4
						c0.2-0.1,0.3-0.2,0.5-0.3s0.4-0.1,0.5-0.2s0.4-0.1,0.6-0.1s0.4,0,0.6,0.1c0.2,0,0.4,0.1,0.5,0.2c0.2,0.1,0.3,0.2,0.5,0.3
						L1609.2-110.7z M1595.2-123.1l0.5,0.4c0.2,0.1,0.3,0.2,0.4,0.4c0.1,0.2,0.2,0.3,0.3,0.5c0.1,0.2,0.2,0.3,0.2,0.5
						c0.1,0.2,0.1,0.4,0.1,0.6v0.6c0,0.2,0,0.4-0.1,0.6s-0.1,0.4-0.2,0.5s-0.2,0.3-0.3,0.5c-0.1,0.2-0.2,0.3-0.4,0.4
						c-0.2,0.1-0.3,0.2-0.5,0.3c-0.2,0.1-0.3,0.2-0.5,0.2c-0.2,0.1-0.4,0.1-0.6,0.1h-0.6c-0.2,0-0.4,0-0.6-0.1s-0.4-0.1-0.5-0.2
						s-0.3-0.2-0.5-0.3l-0.5-0.4c-0.2-0.1-0.3-0.2-0.4-0.4c-0.1-0.2-0.2-0.3-0.3-0.5c-0.1-0.2-0.2-0.3-0.2-0.5
						c-0.1-0.2-0.1-0.4-0.1-0.6v-0.6c0-0.2,0-0.4,0.1-0.6s0.1-0.4,0.2-0.5s0.2-0.3,0.3-0.5c0.1-0.2,0.2-0.3,0.4-0.4
						c0.2-0.1,0.3-0.2,0.5-0.3s0.3-0.2,0.5-0.2c0.2-0.1,0.4-0.1,0.6-0.1h0.6c0.2,0,0.4,0,0.6,0.1s0.4,0.1,0.5,0.2
						S1595-123.2,1595.2-123.1L1595.2-123.1z M1579.7-133.5L1579.7-133.5l0.5,0.3c0.2,0.1,0.3,0.2,0.5,0.3l0.4,0.4
						c0.1,0.2,0.2,0.3,0.3,0.5c0.1,0.2,0.2,0.3,0.2,0.5s0.1,0.4,0.1,0.6v0.6c0,0.2-0.1,0.4-0.1,0.6s-0.1,0.4-0.2,0.5
						s-0.2,0.3-0.3,0.5l-0.4,0.4c-0.2,0.1-0.3,0.2-0.5,0.3c-0.2,0.1-0.3,0.2-0.5,0.2s-0.4,0.1-0.6,0.1h-0.6c-0.2,0-0.4-0.1-0.6-0.1
						s-0.4-0.1-0.5-0.2l-0.5-0.3l0,0c-0.2-0.1-0.3-0.2-0.5-0.3l-0.4-0.4c-0.1-0.2-0.2-0.3-0.3-0.5c-0.1-0.2-0.2-0.3-0.2-0.5
						c0-0.1-0.1-0.4-0.1-0.6v-0.6c0-0.2,0.1-0.4,0.1-0.6s0.1-0.4,0.2-0.5c0.1-0.2,0.2-0.3,0.3-0.5l0.4-0.4c0.2-0.1,0.3-0.2,0.5-0.3
						s0.3-0.2,0.5-0.2s0.4-0.1,0.6-0.1h0.6c0.2,0,0.4,0.1,0.6,0.1C1579.4-133.6,1579.5-133.5,1579.7-133.5L1579.7-133.5z
						 M1563.1-141.7l0.5,0.2c0.2,0.1,0.3,0.2,0.5,0.3s0.3,0.2,0.4,0.4l0.4,0.4c0.1,0.2,0.2,0.3,0.3,0.5s0.1,0.4,0.2,0.5
						s0.1,0.4,0.1,0.6c0,0.2,0,0.4-0.1,0.6c0,0.2-0.1,0.4-0.2,0.5c-0.1,0.2-0.2,0.3-0.3,0.5c-0.1,0.2-0.2,0.3-0.4,0.4l-0.4,0.4
						c-0.2,0.1-0.3,0.2-0.5,0.3s-0.4,0.1-0.5,0.2s-0.4,0.1-0.6,0.1s-0.4,0-0.6-0.1c-0.2,0-0.4-0.1-0.5-0.2l-0.5-0.2
						c-0.2-0.1-0.3-0.2-0.5-0.3s-0.3-0.2-0.4-0.4l-0.4-0.4c-0.1-0.2-0.2-0.3-0.3-0.5c-0.1-0.2-0.1-0.4-0.2-0.5s-0.1-0.4-0.1-0.6
						c0-0.2,0-0.4,0.1-0.6c0-0.2,0.1-0.4,0.2-0.5c0.1-0.2,0.2-0.3,0.3-0.5c0.1-0.2,0.2-0.3,0.4-0.4l0.4-0.4c0.2-0.1,0.3-0.2,0.5-0.3
						s0.4-0.1,0.5-0.2s0.4-0.1,0.6-0.1s0.4,0,0.6,0.1C1562.7-141.8,1562.9-141.8,1563.1-141.7L1563.1-141.7z M1545.4-147.7l0.6,0.2
						c0.2,0.1,0.4,0.1,0.5,0.2s0.3,0.2,0.5,0.3s0.3,0.2,0.4,0.4s0.2,0.3,0.3,0.5c0.1,0.2,0.2,0.3,0.2,0.5c0.1,0.2,0.1,0.4,0.1,0.6
						v0.6c0,0.2,0,0.4-0.1,0.6c-0.1,0.2-0.1,0.4-0.2,0.5s-0.2,0.3-0.3,0.5c-0.1,0.2-0.2,0.3-0.4,0.4c-0.2,0.1-0.3,0.2-0.5,0.3
						s-0.3,0.2-0.5,0.2c-0.2,0.1-0.4,0.1-0.6,0.1h-0.6c-0.2,0-0.4,0-0.6-0.1l-0.6-0.2c-0.2-0.1-0.4-0.1-0.5-0.2s-0.3-0.2-0.5-0.3
						s-0.3-0.2-0.4-0.4s-0.2-0.3-0.3-0.5c-0.1-0.2-0.2-0.3-0.2-0.5c-0.1-0.2-0.1-0.4-0.1-0.6v-0.6c0-0.2,0-0.4,0.1-0.6
						c0.1-0.2,0.1-0.4,0.2-0.5s0.2-0.3,0.3-0.5c0.1-0.2,0.2-0.3,0.4-0.4c0.2-0.1,0.3-0.2,0.5-0.3s0.3-0.2,0.5-0.2
						c0.2-0.1,0.4-0.1,0.6-0.1h0.6C1545.1-147.8,1545.3-147.8,1545.4-147.7L1545.4-147.7z M1527.2-151.4l0.6,0.1
						c0.2,0,0.4,0.1,0.6,0.1s0.4,0.1,0.5,0.2c0.2,0.1,0.3,0.2,0.5,0.3l0.4,0.4c0.1,0.2,0.2,0.3,0.3,0.5c0.1,0.2,0.2,0.3,0.2,0.5
						s0.1,0.4,0.1,0.6v0.6c0,0.2-0.1,0.4-0.1,0.6s-0.1,0.4-0.2,0.5s-0.2,0.3-0.3,0.5l-0.4,0.4c-0.2,0.1-0.3,0.2-0.5,0.3
						s-0.3,0.2-0.5,0.2s-0.4,0.1-0.6,0.1h-0.6l-0.6-0.1c-0.2,0-0.4-0.1-0.6-0.1s-0.4-0.1-0.5-0.2s-0.3-0.2-0.5-0.3l-0.4-0.4
						c-0.1-0.2-0.2-0.3-0.3-0.5c-0.1-0.2-0.2-0.3-0.2-0.5s-0.1-0.4-0.1-0.6v-0.6c0-0.2,0.1-0.4,0.1-0.6s0.1-0.4,0.2-0.5
						s0.2-0.3,0.3-0.5l0.4-0.4c0.2-0.1,0.3-0.2,0.5-0.3s0.3-0.2,0.5-0.2s0.4-0.1,0.6-0.1S1527-151.4,1527.2-151.4L1527.2-151.4z
						 M1508.6-152.7h0.6c0.2,0,0.4,0,0.6,0.1c0.2,0,0.4,0.1,0.5,0.2c0.2,0.1,0.3,0.2,0.5,0.3s0.3,0.2,0.4,0.4l0.4,0.4
						c0.1,0.2,0.2,0.3,0.3,0.5s0.1,0.4,0.2,0.5s0.1,0.4,0.1,0.6c0,0.2,0,0.4-0.1,0.6c0,0.2-0.1,0.4-0.2,0.5
						c-0.1,0.2-0.2,0.3-0.3,0.5c-0.1,0.2-0.2,0.3-0.4,0.4l-0.4,0.4c-0.2,0.1-0.3,0.2-0.5,0.3s-0.4,0.1-0.5,0.2s-0.4,0.1-0.6,0.1
						h-0.6c-0.2,0-0.4,0-0.6-0.1s-0.4-0.1-0.5-0.2s-0.3-0.2-0.5-0.3s-0.3-0.2-0.4-0.4l-0.4-0.4c-0.1-0.2-0.2-0.3-0.3-0.5
						s-0.1-0.4-0.2-0.5s-0.1-0.4-0.1-0.6c0-0.2,0-0.4,0.1-0.6c0-0.2,0.1-0.4,0.2-0.5c0.1-0.2,0.2-0.3,0.3-0.5
						c0.1-0.2,0.2-0.3,0.4-0.4l0.4-0.4c0.2-0.1,0.3-0.2,0.5-0.3s0.4-0.1,0.5-0.2C1508.2-152.7,1508.4-152.7,1508.6-152.7
						L1508.6-152.7z M1490.1-151.5l0.6-0.1h0.6c0.2,0,0.4,0,0.6,0.1s0.4,0.1,0.5,0.2s0.3,0.2,0.5,0.3s0.3,0.2,0.4,0.4
						s0.2,0.3,0.3,0.5c0.1,0.2,0.2,0.3,0.2,0.5c0.1,0.2,0.1,0.4,0.1,0.6v0.6c0,0.2,0,0.4-0.1,0.6c-0.1,0.2-0.1,0.4-0.2,0.5
						s-0.2,0.3-0.3,0.5c-0.1,0.2-0.2,0.3-0.4,0.4c-0.2,0.1-0.3,0.2-0.5,0.3s-0.3,0.2-0.5,0.2c-0.2,0.1-0.4,0.1-0.6,0.1l-0.6,0.1
						h-0.6c-0.2,0-0.4,0-0.6-0.1s-0.4-0.1-0.5-0.2s-0.3-0.2-0.5-0.3s-0.3-0.2-0.4-0.4s-0.2-0.3-0.3-0.5c-0.1-0.2-0.2-0.3-0.2-0.5
						c-0.1-0.2-0.1-0.4-0.1-0.6v-0.6c0-0.2,0-0.4,0.1-0.6c0.1-0.2,0.1-0.4,0.2-0.5s0.2-0.3,0.3-0.5c0.1-0.2,0.2-0.3,0.4-0.4
						c0.2-0.1,0.3-0.2,0.5-0.3s0.3-0.2,0.5-0.2S1489.9-151.5,1490.1-151.5L1490.1-151.5z M1471.8-147.9l0.6-0.2
						c0.2,0,0.4-0.1,0.6-0.1h0.6c0.2,0,0.4,0.1,0.6,0.1s0.4,0.1,0.5,0.2s0.3,0.2,0.5,0.3l0.4,0.4c0.1,0.2,0.2,0.3,0.3,0.5
						c0.1,0.2,0.2,0.3,0.2,0.5s0.1,0.4,0.1,0.6v0.6c0,0.2-0.1,0.4-0.1,0.6s-0.1,0.4-0.2,0.5s-0.2,0.3-0.3,0.5s-0.3,0.3-0.4,0.4
						s-0.3,0.2-0.5,0.3s-0.3,0.2-0.5,0.2l-0.6,0.2c-0.2,0-0.4,0.1-0.6,0.1h-0.6c-0.2,0-0.4-0.1-0.6-0.1s-0.4-0.1-0.5-0.2
						s-0.3-0.2-0.5-0.3l-0.4-0.4c-0.1-0.2-0.2-0.3-0.3-0.5c-0.1-0.2-0.2-0.3-0.2-0.5s-0.1-0.4-0.1-0.6v-0.6c0-0.2,0.1-0.4,0.1-0.6
						s0.1-0.4,0.2-0.5c0.1-0.2,0.2-0.3,0.3-0.5l0.4-0.4c0.2-0.1,0.3-0.2,0.5-0.3S1471.6-147.9,1471.8-147.9L1471.8-147.9z
						 M1454.2-142l0.5-0.2c0.2-0.1,0.4-0.1,0.5-0.2s0.4-0.1,0.6-0.1s0.4,0,0.6,0.1c0.2,0,0.4,0.1,0.5,0.2c0.2,0.1,0.3,0.2,0.5,0.3
						s0.3,0.2,0.4,0.4l0.4,0.4c0.1,0.2,0.2,0.3,0.3,0.5s0.1,0.4,0.2,0.5s0.1,0.4,0.1,0.6c0,0.2,0,0.4-0.1,0.6c0,0.2-0.1,0.4-0.2,0.5
						c-0.1,0.2-0.2,0.3-0.3,0.5c-0.1,0.2-0.2,0.3-0.4,0.4l-0.4,0.4c-0.2,0.1-0.3,0.2-0.5,0.3l-0.5,0.2c-0.2,0.1-0.4,0.1-0.5,0.2
						s-0.4,0.1-0.6,0.1s-0.4,0-0.6-0.1c-0.2,0-0.4-0.1-0.5-0.2c-0.2-0.1-0.3-0.2-0.5-0.3s-0.3-0.2-0.4-0.4l-0.4-0.4
						c-0.1-0.2-0.2-0.3-0.3-0.5s-0.1-0.4-0.2-0.5s-0.1-0.4-0.1-0.6c0-0.2,0-0.4,0.1-0.6c0-0.2,0.1-0.4,0.2-0.5
						c0.1-0.2,0.2-0.3,0.3-0.5c0.1-0.2,0.2-0.3,0.4-0.4l0.4-0.4C1453.9-141.8,1454-141.9,1454.2-142L1454.2-142z M1437.5-133.8
						l0.5-0.3c0.2-0.1,0.3-0.2,0.5-0.2c0.2-0.1,0.4-0.1,0.6-0.1h0.6c0.2,0,0.4,0,0.6,0.1s0.4,0.1,0.5,0.2s0.3,0.2,0.5,0.3
						s0.3,0.2,0.4,0.4s0.2,0.3,0.3,0.5c0.1,0.2,0.2,0.3,0.2,0.5c0.1,0.2,0.1,0.4,0.1,0.6v0.6c0,0.2,0,0.4-0.1,0.6
						c-0.1,0.2-0.1,0.4-0.2,0.5s-0.2,0.3-0.3,0.5c-0.1,0.2-0.2,0.3-0.4,0.4c-0.2,0.1-0.3,0.2-0.5,0.3l-0.5,0.3
						c-0.2,0.1-0.3,0.2-0.5,0.2c-0.2,0.1-0.4,0.1-0.6,0.1h-0.6c-0.2,0-0.4,0-0.6-0.1s-0.4-0.1-0.5-0.2s-0.3-0.2-0.5-0.3
						s-0.3-0.2-0.4-0.4s-0.2-0.3-0.3-0.5c-0.1-0.2-0.2-0.3-0.2-0.5c-0.1-0.2-0.1-0.4-0.1-0.6v-0.6c0-0.2,0-0.4,0.1-0.6
						c0.1-0.2,0.1-0.4,0.2-0.5s0.2-0.3,0.3-0.5c0.1-0.2,0.2-0.3,0.4-0.4C1437.2-133.6,1437.3-133.7,1437.5-133.8L1437.5-133.8z
						 M1421.9-123.4l0.5-0.4c0.2-0.1,0.3-0.2,0.5-0.3c0.2-0.1,0.3-0.2,0.5-0.2s0.4-0.1,0.6-0.1h0.6c0.2,0,0.4,0.1,0.6,0.1
						s0.4,0.1,0.5,0.2c0.2,0.1,0.3,0.2,0.5,0.3l0.4,0.4c0.1,0.2,0.2,0.3,0.3,0.5c0.1,0.2,0.2,0.3,0.2,0.5s0.1,0.4,0.1,0.6v0.6
						c0,0.2-0.1,0.4-0.1,0.6s-0.1,0.4-0.2,0.5s-0.2,0.3-0.3,0.5s-0.3,0.3-0.4,0.4l-0.5,0.4c-0.2,0.1-0.3,0.2-0.5,0.3
						c-0.2,0.1-0.3,0.2-0.5,0.2s-0.4,0.1-0.6,0.1h-0.6c-0.2,0-0.4-0.1-0.6-0.1s-0.4-0.1-0.5-0.2s-0.3-0.2-0.5-0.3l-0.4-0.4
						c-0.1-0.2-0.2-0.3-0.3-0.5c-0.1-0.2-0.2-0.3-0.2-0.5s-0.1-0.4-0.1-0.6v-0.6c0-0.2,0.1-0.4,0.1-0.6s0.1-0.4,0.2-0.5
						s0.2-0.3,0.3-0.5L1421.9-123.4z M1407.9-111.2l0.4-0.4l0.4-0.4c0.2-0.1,0.3-0.2,0.5-0.3s0.4-0.1,0.5-0.2s0.4-0.1,0.6-0.1
						s0.4,0,0.6,0.1c0.2,0,0.4,0.1,0.5,0.2c0.2,0.1,0.3,0.2,0.5,0.3c0.2,0.1,0.3,0.2,0.4,0.4l0.4,0.4c0.1,0.2,0.2,0.3,0.3,0.5
						s0.1,0.4,0.2,0.5s0.1,0.4,0.1,0.6s0,0.4-0.1,0.6c0,0.2-0.1,0.4-0.2,0.5c-0.1,0.2-0.2,0.3-0.3,0.5c-0.1,0.2-0.2,0.3-0.4,0.4
						l-0.4,0.4l-0.4,0.4c-0.2,0.1-0.3,0.2-0.5,0.3s-0.4,0.1-0.5,0.2s-0.4,0.1-0.6,0.1s-0.4,0-0.6-0.1c-0.2,0-0.4-0.1-0.5-0.2
						c-0.2-0.1-0.3-0.2-0.5-0.3c-0.2-0.1-0.3-0.2-0.4-0.4l-0.4-0.4c-0.1-0.2-0.2-0.3-0.3-0.5s-0.1-0.4-0.2-0.5s-0.1-0.4-0.1-0.6
						s0-0.4,0.1-0.6c0-0.2,0.1-0.4,0.2-0.5c0.1-0.2,0.2-0.3,0.3-0.5S1407.8-111.1,1407.9-111.2L1407.9-111.2z M1395.6-97.2l0.4-0.5
						c0.1-0.2,0.2-0.3,0.4-0.4c0.2-0.1,0.3-0.2,0.5-0.3c0.2-0.1,0.3-0.2,0.5-0.2s0.4-0.1,0.6-0.1h0.6c0.2,0,0.4,0,0.6,0.1
						s0.4,0.1,0.5,0.2s0.3,0.2,0.5,0.3c0.2,0.1,0.3,0.2,0.4,0.4c0.1,0.2,0.2,0.3,0.3,0.5c0.1,0.2,0.2,0.3,0.2,0.5
						c0.1,0.2,0.1,0.4,0.1,0.6v0.6c0,0.2,0,0.4-0.1,0.6s-0.1,0.4-0.2,0.5s-0.2,0.3-0.3,0.5l-0.4,0.5c-0.1,0.2-0.2,0.3-0.4,0.4
						c-0.2,0.1-0.3,0.2-0.5,0.3c-0.2,0.1-0.3,0.2-0.5,0.2s-0.4,0.1-0.6,0.1h-0.6c-0.2,0-0.4,0-0.6-0.1s-0.4-0.1-0.5-0.2
						c-0.2-0.1-0.3-0.2-0.5-0.3c-0.2-0.1-0.3-0.2-0.4-0.4c-0.1-0.2-0.2-0.3-0.3-0.5c-0.1-0.2-0.2-0.3-0.2-0.5
						c-0.1-0.2-0.1-0.4-0.1-0.6v-0.6c0-0.2,0-0.4,0.1-0.6s0.1-0.4,0.2-0.5C1395.4-96.9,1395.5-97,1395.6-97.2L1395.6-97.2z
						 M1385.2-81.7l0.3-0.5c0.1-0.2,0.2-0.3,0.3-0.5l0.4-0.4c0.2-0.1,0.3-0.2,0.5-0.3c0.2-0.1,0.3-0.2,0.5-0.2s0.4-0.1,0.6-0.1h0.6
						c0.2,0,0.4,0.1,0.6,0.1s0.4,0.1,0.5,0.2s0.3,0.2,0.5,0.3l0.4,0.4c0.1,0.2,0.2,0.3,0.3,0.5c0.1,0.2,0.2,0.3,0.2,0.5
						s0.1,0.4,0.1,0.6v0.6c0,0.2-0.1,0.4-0.1,0.6s-0.1,0.4-0.2,0.5l-0.3,0.5c-0.1,0.2-0.2,0.3-0.3,0.5l-0.4,0.4
						c-0.2,0.1-0.3,0.2-0.5,0.3c-0.2,0.1-0.3,0.2-0.5,0.2s-0.4,0.1-0.6,0.1h-0.6c-0.2,0-0.4-0.1-0.6-0.1s-0.4-0.1-0.5-0.2
						s-0.3-0.2-0.5-0.3l-0.4-0.4c-0.1-0.2-0.2-0.3-0.3-0.5c-0.1-0.2-0.2-0.3-0.2-0.5s-0.1-0.4-0.1-0.6v-0.6c0-0.2,0.1-0.4,0.1-0.6
						S1385.1-81.6,1385.2-81.7L1385.2-81.7z M1377-65.1l0.2-0.5c0.1-0.2,0.2-0.3,0.3-0.5c0.1-0.2,0.2-0.3,0.4-0.4l0.4-0.4
						c0.2-0.1,0.3-0.2,0.5-0.3s0.4-0.1,0.5-0.2s0.4-0.1,0.6-0.1s0.4,0,0.6,0.1c0.2,0,0.4,0.1,0.5,0.2c0.2,0.1,0.3,0.2,0.5,0.3
						c0.2,0.1,0.3,0.2,0.4,0.4l0.4,0.4c0.1,0.2,0.2,0.3,0.3,0.5s0.1,0.4,0.2,0.5s0.1,0.4,0.1,0.6s0,0.4-0.1,0.6
						c0,0.2-0.1,0.4-0.2,0.5l-0.2,0.5c-0.1,0.2-0.2,0.3-0.3,0.5c-0.1,0.2-0.2,0.3-0.4,0.4l-0.4,0.4c-0.2,0.1-0.3,0.2-0.5,0.3
						s-0.4,0.1-0.5,0.2s-0.4,0.1-0.6,0.1s-0.4,0-0.6-0.1c-0.2,0-0.4-0.1-0.5-0.2c-0.2-0.1-0.3-0.2-0.5-0.3s-0.3-0.2-0.4-0.4
						l-0.4-0.4c-0.1-0.2-0.2-0.3-0.3-0.5c-0.1-0.2-0.1-0.4-0.2-0.5s-0.1-0.4-0.1-0.6s0-0.4,0.1-0.6
						C1376.8-64.8,1376.9-64.9,1377-65.1L1377-65.1z M1371-47.4l0.2-0.6c0.1-0.2,0.1-0.4,0.2-0.5c0.1-0.2,0.2-0.3,0.3-0.5
						c0.1-0.2,0.2-0.3,0.4-0.4c0.2-0.1,0.3-0.2,0.5-0.3s0.3-0.2,0.5-0.2c0.2-0.1,0.4-0.1,0.6-0.1h0.6c0.2,0,0.4,0,0.6,0.1
						s0.4,0.1,0.5,0.2s0.3,0.2,0.5,0.3s0.3,0.2,0.4,0.4s0.2,0.3,0.3,0.5c0.1,0.2,0.2,0.3,0.2,0.5c0.1,0.2,0.1,0.4,0.1,0.6v0.6
						c0,0.2,0,0.4-0.1,0.6l-0.2,0.6c-0.1,0.2-0.1,0.4-0.2,0.5c-0.1,0.2-0.2,0.3-0.3,0.5c-0.1,0.2-0.2,0.3-0.4,0.4
						c-0.2,0.1-0.3,0.2-0.5,0.3s-0.3,0.2-0.5,0.2c-0.2,0.1-0.4,0.1-0.6,0.1h-0.6c-0.2,0-0.4,0-0.6-0.1s-0.4-0.1-0.5-0.2
						s-0.3-0.2-0.5-0.3s-0.3-0.2-0.4-0.4s-0.2-0.3-0.3-0.5c-0.1-0.2-0.2-0.3-0.2-0.5c-0.1-0.2-0.1-0.4-0.1-0.6v-0.6
						C1370.9-47,1370.9-47.2,1371-47.4L1371-47.4z M1367.3-29.1l0.1-0.6c0-0.2,0.1-0.4,0.1-0.6s0.1-0.4,0.2-0.5s0.2-0.3,0.3-0.5
						l0.4-0.4c0.2-0.1,0.3-0.2,0.5-0.3s0.3-0.2,0.5-0.2s0.4-0.1,0.6-0.1h0.6c0.2,0,0.4,0.1,0.6,0.1s0.4,0.1,0.5,0.2s0.3,0.2,0.5,0.3
						l0.4,0.4c0.1,0.2,0.2,0.3,0.3,0.5c0.1,0.2,0.2,0.3,0.2,0.5c0,0.1,0.1,0.4,0.1,0.6v0.6l-0.1,0.6c0,0.2-0.1,0.4-0.1,0.6
						s-0.1,0.4-0.2,0.5s-0.2,0.3-0.3,0.5l-0.4,0.4c-0.2,0.1-0.3,0.2-0.5,0.3c-0.2,0.1-0.3,0.2-0.5,0.2s-0.4,0.1-0.6,0.1h-0.6
						c-0.2,0-0.4-0.1-0.6-0.1s-0.4-0.1-0.5-0.2s-0.3-0.2-0.5-0.3l-0.4-0.4c-0.1-0.2-0.2-0.3-0.3-0.5c-0.1-0.2-0.2-0.3-0.2-0.5
						s-0.1-0.4-0.1-0.6V-29.1z M1366.1-10.6v-0.6c0-0.2,0-0.4,0.1-0.6c0.1-0.2,0.1-0.4,0.2-0.5s0.2-0.3,0.3-0.5
						c0.1-0.2,0.2-0.3,0.4-0.4c0.2-0.1,0.3-0.3,0.4-0.4s0.3-0.2,0.5-0.3s0.4-0.1,0.5-0.2s0.4-0.1,0.6-0.1s0.4,0,0.6,0.1
						c0.2,0,0.4,0.1,0.5,0.2c0.2,0.1,0.3,0.2,0.5,0.3s0.3,0.2,0.4,0.4l0.4,0.4c0.1,0.2,0.2,0.3,0.3,0.5s0.1,0.4,0.2,0.5
						s0.1,0.4,0.1,0.6v0.6c0,0.2,0,0.4-0.1,0.6c0,0.2-0.1,0.4-0.2,0.5c-0.1,0.2-0.2,0.3-0.3,0.5c-0.1,0.2-0.2,0.3-0.4,0.4l-0.4,0.4
						c-0.2,0.1-0.3,0.2-0.5,0.3s-0.4,0.1-0.5,0.2s-0.4,0.1-0.6,0.1s-0.4,0-0.6-0.1c-0.2,0-0.4-0.1-0.5-0.2c-0.2-0.1-0.3-0.2-0.5-0.3
						s-0.3-0.2-0.4-0.4l-0.4-0.4c-0.1-0.2-0.2-0.3-0.3-0.5s-0.1-0.4-0.2-0.5C1366.1-10.2,1366.1-10.4,1366.1-10.6L1366.1-10.6z
						 M1367.2,7.9l-0.1-0.6V6.7c0-0.2,0-0.4,0.1-0.6s0.1-0.4,0.2-0.5s0.2-0.3,0.3-0.5c0.1-0.2,0.2-0.3,0.4-0.4
						c0.2-0.1,0.3-0.2,0.5-0.3s0.3-0.2,0.5-0.2c0.2-0.1,0.4-0.1,0.6-0.1h0.6c0.2,0,0.4,0,0.6,0.1s0.4,0.1,0.5,0.2s0.3,0.2,0.5,0.3
						c0.2,0.1,0.3,0.2,0.4,0.4c0.1,0.2,0.2,0.3,0.3,0.5c0.1,0.2,0.2,0.3,0.2,0.5c0.1,0.2,0.1,0.4,0.1,0.6l0.1,0.6v0.6
						c0,0.2,0,0.4-0.1,0.6c-0.1,0.2-0.1,0.4-0.2,0.5s-0.2,0.3-0.3,0.5c-0.1,0.2-0.2,0.3-0.4,0.4c-0.2,0.1-0.3,0.2-0.5,0.3
						s-0.3,0.2-0.5,0.2c-0.2,0.1-0.4,0.1-0.6,0.1h-0.6c-0.2,0-0.4,0-0.6-0.1s-0.4-0.1-0.5-0.2s-0.3-0.2-0.5-0.3s-0.3-0.2-0.4-0.4
						s-0.2-0.3-0.3-0.5c-0.1-0.2-0.2-0.3-0.2-0.5C1367.3,8.3,1367.3,8.1,1367.2,7.9L1367.2,7.9z M1370.8,26.2l-0.2-0.6
						c0-0.2-0.1-0.4-0.1-0.6v-0.6c0-0.2,0.1-0.4,0.1-0.6s0.1-0.4,0.2-0.5s0.2-0.3,0.3-0.5l0.4-0.4c0.2-0.1,0.3-0.2,0.5-0.3
						c0.2-0.1,0.3-0.2,0.5-0.2s0.4-0.1,0.6-0.1h0.6c0.2,0,0.4,0.1,0.6,0.1s0.4,0.1,0.5,0.2c0.2,0.1,0.3,0.2,0.5,0.3l0.4,0.4
						c0.1,0.2,0.2,0.3,0.3,0.5c0.1,0.2,0.2,0.3,0.2,0.5l0.2,0.6c0,0.2,0.1,0.4,0.1,0.6v0.6c0,0.2-0.1,0.4-0.1,0.6s-0.1,0.4-0.2,0.5
						s-0.2,0.3-0.3,0.5l-0.4,0.4c-0.2,0.1-0.3,0.2-0.5,0.3c-0.2,0.1-0.3,0.2-0.5,0.2s-0.4,0.1-0.6,0.1h-0.6c-0.2,0-0.4-0.1-0.6-0.1
						s-0.4-0.1-0.5-0.2c-0.2-0.1-0.3-0.2-0.5-0.3l-0.4-0.4c-0.1-0.2-0.2-0.3-0.3-0.5C1371,26.5,1370.9,26.4,1370.8,26.2L1370.8,26.2
						z M1376.8,43.8l-0.2-0.5c-0.1-0.2-0.1-0.4-0.2-0.5s-0.1-0.4-0.1-0.6c0-0.2,0-0.4,0.1-0.6c0-0.2,0.1-0.4,0.2-0.5
						c0.1-0.2,0.2-0.3,0.3-0.5c0.1-0.2,0.2-0.3,0.4-0.4l0.4-0.4c0.2-0.1,0.3-0.2,0.5-0.3s0.4-0.1,0.5-0.2s0.4-0.1,0.6-0.1
						s0.4,0,0.6,0.1c0.2,0,0.4,0.1,0.5,0.2c0.2,0.1,0.3,0.2,0.5,0.3s0.3,0.2,0.4,0.4l0.4,0.4c0.1,0.2,0.2,0.3,0.3,0.5l0.2,0.5
						c0.1,0.2,0.1,0.4,0.2,0.5s0.1,0.4,0.1,0.6c0,0.2,0,0.4-0.1,0.6c0,0.2-0.1,0.4-0.2,0.5c-0.1,0.2-0.2,0.3-0.3,0.5
						c-0.1,0.2-0.2,0.3-0.4,0.4l-0.4,0.4c-0.2,0.1-0.3,0.2-0.5,0.3s-0.4,0.1-0.5,0.2s-0.4,0.1-0.6,0.1s-0.4,0-0.6-0.1
						c-0.2,0-0.4-0.1-0.5-0.2c-0.2-0.1-0.3-0.2-0.5-0.3s-0.3-0.2-0.4-0.4l-0.4-0.4C1377,44.2,1376.9,44,1376.8,43.8L1376.8,43.8z
						 M1385,60.6L1385,60.6l-0.3-0.5c-0.1-0.2-0.2-0.3-0.2-0.5s-0.1-0.4-0.1-0.6v-0.6c0-0.2,0-0.4,0.1-0.6c0.1-0.2,0.1-0.4,0.2-0.5
						s0.2-0.3,0.3-0.5c0.1-0.2,0.2-0.3,0.4-0.4c0.2-0.1,0.3-0.2,0.5-0.3s0.3-0.2,0.5-0.2c0.2-0.1,0.4-0.1,0.6-0.1h0.6
						c0.2,0,0.4,0,0.6,0.1s0.4,0.1,0.5,0.2s0.3,0.2,0.5,0.3s0.3,0.2,0.4,0.4s0.2,0.3,0.3,0.5l0.3,0.4v0.1c0.1,0.2,0.2,0.3,0.2,0.5
						c0.1,0.2,0.1,0.4,0.1,0.6v0.6c0,0.2,0,0.4-0.1,0.6c0,0.2-0.1,0.4-0.2,0.5c-0.1,0.2-0.2,0.3-0.3,0.5c-0.1,0.2-0.2,0.3-0.4,0.4
						c-0.2,0.1-0.3,0.2-0.5,0.3s-0.3,0.2-0.5,0.2c-0.2,0.1-0.4,0.1-0.6,0.1h-0.6c-0.2,0-0.4,0-0.6-0.1c-0.2,0-0.4-0.1-0.5-0.2
						c-0.2-0.1-0.3-0.2-0.5-0.3s-0.3-0.2-0.4-0.4C1385.2,60.9,1385.1,60.8,1385,60.6L1385,60.6z M1395.3,76.1l-0.4-0.5
						c-0.1-0.2-0.2-0.3-0.3-0.5c-0.1-0.2-0.2-0.3-0.2-0.5c0-0.1-0.1-0.4-0.1-0.6v-0.6c0-0.2,0.1-0.4,0.1-0.6s0.1-0.4,0.2-0.5
						s0.2-0.3,0.3-0.5l0.4-0.4c0.2-0.1,0.3-0.2,0.5-0.3c0.2-0.1,0.3-0.2,0.5-0.2c0.1,0,0.4-0.1,0.6-0.1h0.6c0.2,0,0.4,0.1,0.6,0.1
						s0.4,0.1,0.5,0.2s0.3,0.2,0.5,0.3l0.4,0.4l0.4,0.5c0.1,0.2,0.2,0.3,0.3,0.5c0.1,0.2,0.2,0.3,0.2,0.5s0.1,0.4,0.1,0.6v0.6
						c0,0.2-0.1,0.4-0.1,0.6s-0.1,0.4-0.2,0.5s-0.2,0.3-0.3,0.5l-0.4,0.4c-0.2,0.1-0.3,0.2-0.5,0.3c-0.2,0.1-0.3,0.2-0.5,0.2
						s-0.4,0.1-0.6,0.1h-0.6c-0.2,0-0.4-0.1-0.6-0.1s-0.4-0.1-0.5-0.2s-0.3-0.2-0.5-0.3C1395.6,76.3,1395.5,76.2,1395.3,76.1
						L1395.3,76.1z M1407.6,90.1l-0.4-0.4l-0.4-0.4c-0.1-0.2-0.2-0.3-0.3-0.5s-0.1-0.4-0.2-0.5s-0.1-0.4-0.1-0.6s0-0.4,0.1-0.6
						c0-0.2,0.1-0.4,0.2-0.5c0.1-0.2,0.2-0.3,0.3-0.5c0.1-0.2,0.2-0.3,0.4-0.4l0.4-0.4c0.2-0.1,0.3-0.2,0.5-0.3s0.4-0.1,0.5-0.2
						s0.4-0.1,0.6-0.1s0.4,0,0.6,0.1c0.2,0,0.4,0.1,0.5,0.2c0.2,0.1,0.3,0.2,0.5,0.3c0.2,0.1,0.3,0.2,0.4,0.4l0.4,0.4l0.4,0.4
						c0.1,0.2,0.2,0.3,0.3,0.5s0.1,0.4,0.2,0.5s0.1,0.4,0.1,0.6s0,0.4-0.1,0.6c0,0.2-0.1,0.4-0.2,0.5c-0.1,0.2-0.2,0.3-0.3,0.5
						c-0.1,0.2-0.2,0.3-0.4,0.4l-0.4,0.4c-0.2,0.1-0.3,0.2-0.5,0.3s-0.4,0.1-0.5,0.2s-0.4,0.1-0.6,0.1s-0.4,0-0.6-0.1
						c-0.2,0-0.4-0.1-0.5-0.2c-0.2-0.1-0.3-0.2-0.5-0.3S1407.7,90.2,1407.6,90.1L1407.6,90.1z M1421.6,102.4l-0.5-0.4
						c-0.2-0.1-0.3-0.2-0.4-0.4c-0.1-0.2-0.2-0.3-0.3-0.5c-0.1-0.2-0.2-0.3-0.2-0.5c-0.1-0.2-0.1-0.4-0.1-0.6v-0.6
						c0-0.2,0-0.4,0.1-0.6s0.1-0.4,0.2-0.5s0.2-0.3,0.3-0.5c0.1-0.2,0.2-0.3,0.4-0.4c0.2-0.1,0.3-0.2,0.5-0.3
						c0.2-0.1,0.3-0.2,0.5-0.2c0.2-0.1,0.4-0.1,0.6-0.1h0.6c0.2,0,0.4,0,0.6,0.1s0.4,0.1,0.5,0.2s0.3,0.2,0.5,0.3l0.5,0.4
						c0.2,0.1,0.3,0.2,0.4,0.4c0.1,0.2,0.2,0.3,0.3,0.5c0.1,0.2,0.2,0.3,0.2,0.5c0.1,0.2,0.1,0.4,0.1,0.6v0.6c0,0.2,0,0.4-0.1,0.6
						s-0.1,0.4-0.2,0.5s-0.2,0.3-0.3,0.5c-0.1,0.2-0.2,0.3-0.4,0.4c-0.2,0.1-0.3,0.2-0.5,0.3s-0.3,0.2-0.5,0.2
						c-0.2,0.1-0.4,0.1-0.6,0.1h-0.6c-0.2,0-0.4,0-0.6-0.1s-0.4-0.1-0.5-0.2S1421.8,102.5,1421.6,102.4L1421.6,102.4z M1437.1,112.7
						l-0.5-0.3c-0.2-0.1-0.3-0.2-0.5-0.3l-0.4-0.4c-0.1-0.2-0.2-0.3-0.3-0.5c-0.1-0.2-0.2-0.3-0.2-0.5s-0.1-0.4-0.1-0.6v-0.6
						c0-0.2,0.1-0.4,0.1-0.6s0.1-0.4,0.2-0.5s0.2-0.3,0.3-0.5l0.4-0.4c0.2-0.1,0.3-0.2,0.5-0.3c0.2-0.1,0.3-0.2,0.5-0.2
						c0.1,0,0.4-0.1,0.6-0.1h0.6c0.2,0,0.4,0.1,0.6,0.1s0.4,0.1,0.5,0.2l0.5,0.3c0.2,0.1,0.3,0.2,0.5,0.3l0.4,0.4
						c0.1,0.2,0.2,0.3,0.3,0.5c0.1,0.2,0.2,0.3,0.2,0.5s0.1,0.4,0.1,0.6v0.6c0,0.2-0.1,0.4-0.1,0.6s-0.1,0.4-0.2,0.5
						s-0.2,0.3-0.3,0.5l-0.4,0.4c-0.2,0.1-0.3,0.2-0.5,0.3c-0.2,0.1-0.3,0.2-0.5,0.2s-0.4,0.1-0.6,0.1h-0.6c-0.2,0-0.4-0.1-0.6-0.1
						S1437.3,112.8,1437.1,112.7L1437.1,112.7z M1453.8,121l-0.5-0.2c-0.2-0.1-0.3-0.2-0.5-0.3c-0.2-0.1-0.3-0.2-0.4-0.4l-0.4-0.4
						c-0.1-0.2-0.2-0.3-0.3-0.5s-0.1-0.4-0.2-0.5s-0.1-0.4-0.1-0.6s0-0.4,0.1-0.6c0-0.2,0.1-0.4,0.2-0.5c0.1-0.2,0.2-0.3,0.3-0.5
						c0.1-0.2,0.2-0.3,0.4-0.4l0.4-0.4c0.2-0.1,0.3-0.2,0.5-0.3s0.4-0.1,0.5-0.2s0.4-0.1,0.6-0.1s0.4,0,0.6,0.1s0.4,0.1,0.5,0.2
						l0.5,0.2c0.2,0.1,0.3,0.2,0.5,0.3c0.2,0.1,0.3,0.2,0.4,0.4l0.4,0.4c0.1,0.2,0.2,0.3,0.3,0.5s0.1,0.4,0.2,0.5s0.1,0.4,0.1,0.6
						s0,0.4-0.1,0.6c0,0.2-0.1,0.4-0.2,0.5c-0.1,0.2-0.2,0.3-0.3,0.5c-0.1,0.2-0.2,0.3-0.4,0.4l-0.4,0.4c-0.2,0.1-0.3,0.2-0.5,0.3
						s-0.4,0.1-0.5,0.2s-0.4,0.1-0.6,0.1s-0.4,0-0.6-0.1C1454.1,121.1,1454,121.1,1453.8,121L1453.8,121z M1471.4,127l-0.6-0.2
						c-0.2-0.1-0.4-0.1-0.5-0.2s-0.3-0.2-0.5-0.3c-0.2-0.1-0.3-0.2-0.4-0.4c-0.1-0.2-0.2-0.3-0.3-0.5c-0.1-0.2-0.2-0.3-0.2-0.5
						c-0.1-0.2-0.1-0.4-0.1-0.6v-0.6c0-0.2,0-0.4,0.1-0.6s0.1-0.4,0.2-0.5s0.2-0.3,0.3-0.5c0.1-0.2,0.2-0.3,0.4-0.4
						c0.2-0.1,0.3-0.2,0.5-0.3c0.2-0.1,0.3-0.2,0.5-0.2c0.2-0.1,0.4-0.1,0.6-0.1h0.6c0.2,0,0.4,0,0.6,0.1l0.6,0.2
						c0.2,0.1,0.4,0.1,0.5,0.2s0.3,0.2,0.5,0.3c0.2,0.1,0.3,0.2,0.4,0.4c0.1,0.2,0.2,0.3,0.3,0.5c0.1,0.2,0.2,0.3,0.2,0.5
						c0.1,0.2,0.1,0.4,0.1,0.6v0.6c0,0.2,0,0.4-0.1,0.6s-0.1,0.4-0.2,0.5s-0.2,0.3-0.3,0.5c-0.1,0.2-0.2,0.3-0.4,0.4
						c-0.2,0.1-0.3,0.2-0.5,0.3c-0.2,0.1-0.3,0.2-0.5,0.2c-0.2,0.1-0.4,0.1-0.6,0.1h-0.6C1471.8,127.1,1471.6,127,1471.4,127
						L1471.4,127z M1489.7,130.6l-0.6-0.1c-0.2,0-0.4-0.1-0.6-0.1s-0.4-0.1-0.5-0.2s-0.3-0.2-0.5-0.3l-0.4-0.4
						c-0.1-0.2-0.2-0.3-0.3-0.5c-0.1-0.2-0.2-0.3-0.2-0.5s-0.1-0.4-0.1-0.6v-0.6c0-0.2,0.1-0.4,0.1-0.6s0.1-0.4,0.2-0.5
						s0.2-0.3,0.3-0.5l0.4-0.4c0.2-0.1,0.3-0.2,0.5-0.3c0.2-0.1,0.3-0.2,0.5-0.2s0.4-0.1,0.6-0.1h0.6l0.6,0.1c0.2,0,0.4,0.1,0.6,0.1
						s0.4,0.1,0.5,0.2s0.3,0.2,0.5,0.3l0.4,0.4c0.1,0.2,0.2,0.3,0.3,0.5c0.1,0.2,0.2,0.3,0.2,0.5s0.1,0.4,0.1,0.6v0.6
						c0,0.2-0.1,0.4-0.1,0.6s-0.1,0.4-0.2,0.5s-0.2,0.3-0.3,0.5l-0.4,0.4c-0.2,0.1-0.3,0.2-0.5,0.3s-0.3,0.2-0.5,0.2
						c-0.1,0-0.4,0.1-0.6,0.1C1490.1,130.7,1489.9,130.7,1489.7,130.6L1489.7,130.6z M1508.2,131.9h-0.6c-0.2,0-0.4,0-0.6-0.1
						c-0.2,0-0.4-0.1-0.5-0.2c-0.2-0.1-0.3-0.2-0.5-0.3s-0.3-0.2-0.4-0.4l-0.4-0.4c-0.1-0.2-0.2-0.3-0.3-0.5s-0.1-0.4-0.2-0.5
						s-0.1-0.4-0.1-0.6c0-0.2,0-0.4,0.1-0.6c0-0.2,0.1-0.4,0.2-0.5c0.1-0.2,0.2-0.3,0.3-0.5c0.1-0.2,0.2-0.3,0.4-0.4l0.4-0.4
						c0.2-0.1,0.3-0.2,0.5-0.3s0.4-0.1,0.5-0.2s0.4-0.1,0.6-0.1h0.6c0.2,0,0.4,0,0.6,0.1c0.2,0,0.4,0.1,0.5,0.2
						c0.2,0.1,0.3,0.2,0.5,0.3c0.2,0.1,0.3,0.2,0.4,0.4l0.4,0.4c0.1,0.2,0.2,0.3,0.3,0.5s0.1,0.4,0.2,0.5s0.1,0.4,0.1,0.6
						c0,0.2,0,0.4-0.1,0.6c0,0.2-0.1,0.4-0.2,0.5c-0.1,0.2-0.2,0.3-0.3,0.5c-0.1,0.2-0.2,0.3-0.4,0.4l-0.4,0.4
						c-0.2,0.1-0.3,0.2-0.5,0.3s-0.4,0.1-0.5,0.2S1508.4,131.9,1508.2,131.9L1508.2,131.9z M1526.7,130.7l-0.6,0.1h-0.6
						c-0.2,0-0.4,0-0.6-0.1s-0.4-0.1-0.5-0.2s-0.3-0.2-0.5-0.3s-0.3-0.2-0.4-0.4s-0.2-0.3-0.3-0.5c-0.1-0.2-0.2-0.3-0.2-0.5
						c-0.1-0.2-0.1-0.4-0.1-0.6v-0.6c0-0.2,0-0.4,0.1-0.6s0.1-0.4,0.2-0.5s0.2-0.3,0.3-0.5c0.1-0.2,0.2-0.3,0.4-0.4
						c0.2-0.1,0.3-0.2,0.5-0.3c0.2-0.1,0.3-0.2,0.5-0.2c0.2-0.1,0.4-0.1,0.6-0.1l0.6-0.1h0.6c0.2,0,0.4,0,0.6,0.1s0.4,0.1,0.5,0.2
						s0.3,0.2,0.5,0.3c0.2,0.1,0.3,0.2,0.4,0.4c0.1,0.2,0.2,0.3,0.3,0.5c0.1,0.2,0.2,0.3,0.2,0.5c0.1,0.2,0.1,0.4,0.1,0.6v0.6
						c0,0.2,0,0.4-0.1,0.6c-0.1,0.2-0.1,0.4-0.2,0.5s-0.2,0.3-0.3,0.5c-0.1,0.2-0.2,0.3-0.4,0.4c-0.2,0.1-0.3,0.2-0.5,0.3
						s-0.3,0.2-0.5,0.2S1526.9,130.6,1526.7,130.7L1526.7,130.7z M1545,127l-0.6,0.2c-0.2,0-0.4,0.1-0.6,0.1h-0.6
						c-0.2,0-0.4-0.1-0.6-0.1s-0.4-0.1-0.5-0.2s-0.3-0.2-0.5-0.3l-0.4-0.4c-0.1-0.2-0.2-0.3-0.3-0.5c-0.1-0.2-0.2-0.3-0.2-0.5
						s-0.1-0.4-0.1-0.6v-0.6c0-0.2,0.1-0.4,0.1-0.6s0.1-0.4,0.2-0.5c0.1-0.2,0.2-0.3,0.3-0.5l0.4-0.4c0.2-0.1,0.3-0.2,0.5-0.3
						c0.2-0.1,0.3-0.2,0.5-0.2l0.6-0.2c0.2,0,0.4-0.1,0.6-0.1h0.6c0.2,0,0.4,0.1,0.6,0.1s0.4,0.1,0.5,0.2s0.3,0.2,0.5,0.3l0.4,0.4
						c0.1,0.2,0.2,0.3,0.3,0.5c0.1,0.2,0.2,0.3,0.2,0.5s0.1,0.4,0.1,0.6v0.6c0,0.2-0.1,0.4-0.1,0.6s-0.1,0.4-0.2,0.5
						s-0.2,0.3-0.3,0.5l-0.4,0.4c-0.2,0.1-0.3,0.2-0.5,0.3C1545.4,126.9,1545.2,127,1545,127z M1562.7,121.1l-0.5,0.2
						c-0.2,0.1-0.4,0.1-0.5,0.2s-0.4,0.1-0.6,0.1s-0.4,0-0.6-0.1c-0.2,0-0.4-0.1-0.5-0.2c-0.2-0.1-0.3-0.2-0.5-0.3
						c-0.2-0.1-0.3-0.2-0.4-0.4l-0.4-0.4c-0.1-0.2-0.2-0.3-0.3-0.5s-0.1-0.4-0.2-0.5s-0.1-0.4-0.1-0.6s0-0.4,0.1-0.6
						c0-0.2,0.1-0.4,0.2-0.5c0.1-0.2,0.2-0.3,0.3-0.5c0.1-0.2,0.2-0.3,0.4-0.4l0.4-0.4c0.2-0.1,0.3-0.2,0.5-0.3l0.5-0.2
						c0.2-0.1,0.4-0.1,0.5-0.2s0.4-0.1,0.6-0.1s0.4,0,0.6,0.1c0.2,0,0.4,0.1,0.5,0.2c0.2,0.1,0.3,0.2,0.5,0.3
						c0.2,0.1,0.3,0.2,0.4,0.4l0.4,0.4c0.1,0.2,0.2,0.3,0.3,0.5s0.1,0.4,0.2,0.5s0.1,0.4,0.1,0.6s0,0.4-0.1,0.6s-0.1,0.4-0.2,0.5
						s-0.2,0.3-0.3,0.5c-0.1,0.2-0.2,0.3-0.4,0.4l-0.4,0.4C1563,120.9,1562.9,121,1562.7,121.1L1562.7,121.1z M1579.4,112.8
						l-0.5,0.3c-0.2,0.1-0.3,0.2-0.5,0.2s-0.4,0.1-0.6,0.1h-0.6c-0.2,0-0.4,0-0.6-0.1s-0.4-0.1-0.5-0.2s-0.3-0.2-0.5-0.3
						c-0.2-0.1-0.3-0.2-0.4-0.4c-0.1-0.2-0.2-0.3-0.3-0.5c-0.1-0.2-0.2-0.3-0.2-0.5s-0.1-0.4-0.1-0.6v-0.6c0-0.2,0-0.4,0.1-0.6
						s0.1-0.4,0.2-0.5s0.2-0.3,0.3-0.5c0.1-0.2,0.2-0.3,0.4-0.4c0.2-0.1,0.3-0.2,0.5-0.3l0.5-0.3c0.2-0.1,0.3-0.2,0.5-0.2
						s0.4-0.1,0.6-0.1h0.6c0.2,0,0.4,0,0.6,0.1s0.4,0.1,0.5,0.2s0.3,0.2,0.5,0.3c0.2,0.1,0.3,0.2,0.4,0.4c0.1,0.2,0.2,0.3,0.3,0.5
						s0.2,0.3,0.2,0.5c0.1,0.2,0.1,0.4,0.1,0.6v0.6c0,0.2,0,0.4-0.1,0.6s-0.1,0.4-0.2,0.5s-0.2,0.3-0.3,0.5
						c-0.1,0.2-0.2,0.3-0.4,0.4S1579.6,112.7,1579.4,112.8L1579.4,112.8z M1594.9,102.5l-0.5,0.4c-0.2,0.1-0.3,0.2-0.5,0.3
						c-0.2,0.1-0.3,0.2-0.5,0.2s-0.4,0.1-0.6,0.1h-0.6c-0.2,0-0.4-0.1-0.6-0.1s-0.4-0.1-0.5-0.2s-0.3-0.2-0.5-0.3l-0.4-0.4
						c-0.1-0.2-0.2-0.3-0.3-0.5c-0.1-0.2-0.2-0.3-0.2-0.5s-0.1-0.4-0.1-0.6v-0.6c0-0.2,0.1-0.4,0.1-0.6s0.1-0.4,0.2-0.5
						s0.2-0.3,0.3-0.5s0.3-0.3,0.4-0.4l0.5-0.4c0.2-0.1,0.3-0.2,0.5-0.3c0.2-0.1,0.3-0.2,0.5-0.2s0.4-0.1,0.6-0.1h0.6
						c0.2,0,0.4,0.1,0.6,0.1s0.4,0.1,0.5,0.2s0.3,0.2,0.5,0.3l0.4,0.4c0.1,0.2,0.2,0.3,0.3,0.5c0.1,0.2,0.2,0.3,0.2,0.5
						s0.1,0.4,0.1,0.6v0.6c0,0.2-0.1,0.4-0.1,0.6s-0.1,0.4-0.2,0.5c-0.1,0.2-0.2,0.3-0.3,0.5C1595.2,102.3,1595,102.4,1594.9,102.5
						L1594.9,102.5z M1608.9,90.2l-0.4,0.4l-0.4,0.4c-0.2,0.1-0.3,0.2-0.5,0.3s-0.4,0.1-0.5,0.2s-0.4,0.1-0.6,0.1s-0.4,0-0.6-0.1
						c-0.2,0-0.4-0.1-0.5-0.2c-0.2-0.1-0.3-0.2-0.5-0.3c-0.2-0.1-0.3-0.2-0.4-0.4l-0.4-0.4c-0.1-0.2-0.2-0.3-0.3-0.5
						s-0.1-0.4-0.2-0.5s-0.1-0.4-0.1-0.6s0-0.4,0.1-0.6c0-0.2,0.1-0.4,0.2-0.5c0.1-0.2,0.2-0.3,0.3-0.5c0.1-0.2,0.2-0.3,0.4-0.4
						l0.4-0.4l0.4-0.4c0.2-0.1,0.3-0.2,0.5-0.3c0.2-0.1,0.4-0.1,0.5-0.2s0.4-0.1,0.6-0.1s0.4,0,0.6,0.1c0.2,0,0.4,0.1,0.5,0.2
						c0.2,0.1,0.3,0.2,0.5,0.3c0.2,0.1,0.3,0.2,0.4,0.4l0.4,0.4c0.1,0.2,0.2,0.3,0.3,0.5s0.1,0.4,0.2,0.5s0.1,0.4,0.1,0.6
						s0,0.4-0.1,0.6c0,0.2-0.1,0.4-0.2,0.5c-0.1,0.2-0.2,0.3-0.3,0.5S1609,90.1,1608.9,90.2L1608.9,90.2z M1621.2,76.2l-0.4,0.5
						c-0.1,0.2-0.2,0.3-0.4,0.4c-0.2,0.1-0.3,0.2-0.5,0.3c-0.2,0.1-0.3,0.2-0.5,0.2c-0.2,0.1-0.4,0.1-0.6,0.1h-0.6
						c-0.2,0-0.4,0-0.6-0.1s-0.4-0.1-0.5-0.2s-0.3-0.2-0.5-0.3c-0.2-0.1-0.3-0.2-0.4-0.4c-0.1-0.2-0.2-0.3-0.3-0.5
						c-0.1-0.2-0.2-0.3-0.2-0.5c-0.1-0.2-0.1-0.4-0.1-0.6v-0.6c0-0.2,0-0.4,0.1-0.6s0.1-0.4,0.2-0.5s0.2-0.3,0.3-0.5l0.4-0.5
						c0.1-0.2,0.2-0.3,0.4-0.4c0.2-0.1,0.3-0.2,0.5-0.3c0.2-0.1,0.3-0.2,0.5-0.2c0.2-0.1,0.4-0.1,0.6-0.1h0.6c0.2,0,0.4,0,0.6,0.1
						s0.4,0.1,0.5,0.2s0.3,0.2,0.5,0.3c0.2,0.1,0.3,0.2,0.4,0.4c0.1,0.2,0.2,0.3,0.3,0.5c0.1,0.2,0.2,0.3,0.2,0.5
						c0.1,0.2,0.1,0.4,0.1,0.6v0.6c0,0.2,0,0.4-0.1,0.6c0,0.2-0.1,0.4-0.2,0.5C1621.4,75.8,1621.3,76.1,1621.2,76.2L1621.2,76.2z
						 M1631.5,60.7l-0.3,0.5c-0.1,0.2-0.2,0.3-0.3,0.5l-0.4,0.4c-0.2,0.1-0.3,0.2-0.5,0.3s-0.3,0.2-0.5,0.2s-0.4,0.1-0.6,0.1h-0.6
						c-0.2,0-0.4-0.1-0.6-0.1s-0.4-0.1-0.5-0.2c-0.2-0.1-0.3-0.2-0.5-0.3l-0.4-0.4c-0.1-0.2-0.2-0.3-0.3-0.5
						c-0.1-0.2-0.2-0.3-0.2-0.5s-0.1-0.4-0.1-0.6v-0.6c0-0.2,0.1-0.4,0.1-0.6s0.1-0.4,0.2-0.5l0.3-0.5c0.1-0.2,0.2-0.3,0.3-0.5
						l0.4-0.4c0.2-0.1,0.3-0.2,0.5-0.3s0.3-0.2,0.5-0.2s0.4-0.1,0.6-0.1h0.6c0.2,0,0.4,0.1,0.6,0.1s0.4,0.1,0.5,0.2s0.3,0.2,0.5,0.3
						l0.4,0.4c0.1,0.2,0.2,0.3,0.3,0.5c0.1,0.2,0.2,0.3,0.2,0.5s0.1,0.4,0.1,0.6v0.6c0,0.2-0.1,0.4-0.1,0.6
						C1631.7,60.4,1631.6,60.6,1631.5,60.7L1631.5,60.7z M1639.7,44l-0.2,0.5c-0.1,0.2-0.2,0.3-0.3,0.5c-0.1,0.2-0.2,0.3-0.4,0.4
						l-0.4,0.4c-0.2,0.1-0.3,0.2-0.5,0.3s-0.4,0.1-0.5,0.2s-0.4,0.1-0.6,0.1s-0.4,0-0.6-0.1c-0.2,0-0.4-0.1-0.5-0.2
						c-0.2-0.1-0.3-0.2-0.5-0.3s-0.3-0.2-0.4-0.4l-0.4-0.4c-0.1-0.2-0.2-0.3-0.3-0.5s-0.1-0.4-0.2-0.5s-0.1-0.4-0.1-0.6
						c0-0.2,0-0.4,0.1-0.6c0-0.2,0.1-0.4,0.2-0.5l0.2-0.5c0.1-0.2,0.2-0.3,0.3-0.5c0.1-0.2,0.2-0.3,0.4-0.4l0.4-0.4
						c0.2-0.1,0.3-0.2,0.5-0.3s0.4-0.1,0.5-0.2s0.4-0.1,0.6-0.1s0.4,0,0.6,0.1c0.2,0,0.4,0.1,0.5,0.2c0.2,0.1,0.3,0.2,0.5,0.3
						s0.3,0.2,0.4,0.4s0.3,0.3,0.4,0.4s0.2,0.3,0.3,0.5s0.1,0.4,0.2,0.5s0.1,0.4,0.1,0.6c0,0.2,0,0.4-0.1,0.6
						C1639.9,43.7,1639.8,43.9,1639.7,44L1639.7,44z M1645.7,26.4l-0.2,0.6c-0.1,0.2-0.1,0.4-0.2,0.5s-0.2,0.3-0.3,0.5
						c-0.1,0.2-0.2,0.3-0.4,0.4c-0.2,0.1-0.3,0.2-0.5,0.3c-0.2,0.1-0.3,0.2-0.5,0.2c-0.2,0.1-0.4,0.1-0.6,0.1h-0.6
						c-0.2,0-0.4,0-0.6-0.1s-0.4-0.1-0.5-0.2s-0.3-0.2-0.5-0.3c-0.2-0.1-0.3-0.2-0.4-0.4c-0.1-0.2-0.2-0.3-0.3-0.5s-0.2-0.3-0.2-0.5
						c-0.1-0.2-0.1-0.4-0.1-0.6v-0.6c0-0.2,0-0.4,0.1-0.6l0.2-0.6c0-0.2,0.1-0.4,0.2-0.5c0.1-0.2,0.2-0.3,0.3-0.5
						c0.1-0.2,0.2-0.3,0.4-0.4c0.2-0.1,0.3-0.2,0.5-0.3c0.2-0.1,0.3-0.2,0.5-0.2s0.4-0.1,0.6-0.1h0.6c0.2,0,0.4,0,0.6,0.1
						s0.4,0.1,0.5,0.2s0.3,0.2,0.5,0.3c0.2,0.1,0.3,0.2,0.4,0.4c0.1,0.2,0.2,0.3,0.3,0.5c0.1,0.2,0.2,0.3,0.2,0.5
						c0.1,0.2,0.1,0.4,0.1,0.6v0.6C1645.8,26,1645.8,26.2,1645.7,26.4L1645.7,26.4z M1649.4,8.1l-0.1,0.6c0,0.2-0.1,0.4-0.1,0.6
						s-0.1,0.4-0.2,0.5s-0.2,0.3-0.3,0.5l-0.4,0.4c-0.2,0.1-0.3,0.2-0.5,0.3s-0.3,0.2-0.5,0.2s-0.4,0.1-0.6,0.1h-0.6
						c-0.2,0-0.4-0.1-0.6-0.1s-0.4-0.1-0.5-0.2s-0.3-0.2-0.5-0.3s-0.3-0.3-0.4-0.4s-0.2-0.3-0.3-0.5c-0.1-0.2-0.2-0.3-0.2-0.5
						s-0.1-0.4-0.1-0.6V8.1l0.1-0.6c0-0.2,0.1-0.4,0.1-0.6s0.1-0.4,0.2-0.5s0.2-0.3,0.3-0.5l0.4-0.4c0.2-0.1,0.3-0.2,0.5-0.3
						c0.2-0.1,0.3-0.2,0.5-0.2s0.4-0.1,0.6-0.1h0.6c0.2,0,0.4,0.1,0.6,0.1s0.4,0.1,0.5,0.2s0.3,0.2,0.5,0.3l0.4,0.4
						c0.1,0.2,0.2,0.3,0.3,0.5c0.1,0.2,0.2,0.3,0.2,0.5s0.1,0.4,0.1,0.6V8.1z"/>
					<path class="st8" d="M246.8,354.9c0,24.5-19.9,44.4-44.4,44.4S158,379.4,158,354.9s19.9-44.4,44.4-44.4l0,0
						C226.9,310.6,246.8,330.4,246.8,354.9z"/>
					<path class="st5" d="M1479.8,249c34.3,1,61.4,29.7,60.3,64.1c-1,34.3-29.7,61.4-64.1,60.3c-34.3-1-61.4-29.7-60.3-64.1
						C1416.9,275,1445.5,248,1479.8,249z M1475.7,382.9c39.6,1.2,72.7-29.9,73.9-69.5c1.2-39.6-29.9-72.7-69.5-73.9
						s-72.7,29.9-73.9,69.5c0,0,0,0,0,0.1C1405,348.6,1436.1,381.6,1475.7,382.9L1475.7,382.9z"/>
					
						<ellipse transform="matrix(0.5137 -0.858 0.858 0.5137 485.2188 1363.8221)" class="st7" cx="1445.7" cy="253.9" rx="26.2" ry="26.2"/>
					<circle class="st2" cx="81.1" cy="65.2" r="42"/>
				</g>
			</g>
		</g>
	</g>
</g>
</svg>
