<?xml version="1.0" encoding="utf-8"?>
<!-- Generator: Adobe Illustrator 25.2.2, SVG Export Plug-In . SVG Version: 6.00 Build 0)  -->
<svg version="1.1" id="Layer_1" xmlns="http://www.w3.org/2000/svg" xmlns:xlink="http://www.w3.org/1999/xlink" x="0px" y="0px"
	 viewBox="0 0 1326 199" style="enable-background:new 0 0 1326 199;" xml:space="preserve">
<style type="text/css">
	.st0{fill:#231F20;}
	.st1{fill:#EF3E42;}
	.st2{fill:#8F113C;}
	.st3{fill:#FFFFFF;}
</style>
<g>
	<g>
		<path class="st0" d="M526.6,85.5c0.1-0.2,0.2-0.3,0.2-0.5c0-0.3-0.1-0.6-0.4-1c-0.7-0.8-2-1.5-3-1.4c-1.5,0.2-2.9,1.4-3.1,2.9
			c-0.2,1.5,0.8,2.6,2.3,2.5C523.9,87.9,525.9,86.6,526.6,85.5"/>
		<path class="st0" d="M541.5,83.5c0.1-0.9-0.9-1.7-3.1-2.5c-6.6-2.4-10.5-8.4-11.8-17.6c0,0,0,0,0-0.1l0,0
			c-0.3-0.3-0.7-0.6-1.1-0.2c-0.9,0.7-0.3,3.9,1.8,12.9l0.8,3.5c0.4,2,0.5,3.6,0.3,5.2s-0.8,3.3-1.8,5.5l-1.9,4
			c-5.1,10.5-6.8,14.4-6.1,15.1c0.3,0.3,0.9-0.1,1.3-0.5c0,0,0,0,0.1-0.1c0-0.1,0-0.1,0-0.1c1.4-3.4,2.9-6.4,4.5-9.1
			c3.7-5.9,8-10.2,13.2-12.8c1.9-1,3.1-1.8,3.5-2.5C541.4,83.8,541.4,83.7,541.5,83.5"/>
		<path class="st0" d="M586.9,65.2L586.9,65.2c0.2,0,0.2-0.1,0.2-0.1c0.5-0.2,1.1-0.5,1.3-0.9c0.1-0.1,0.1-0.3,0.1-0.4
			c-0.1-1.3-4.7-1.4-17-1.2l-4.4,0.1c-2.4,0-4-0.2-5.4-0.8c-1.3-0.6-2.5-1.6-3.8-3.2l-2.2-2.8c-5.5-7.1-7.5-9.4-8.5-8.8
			c-0.1,0.1-0.2,0.2-0.3,0.3c-0.2,0.3-0.2,0.8-0.2,1.1c0,0,0,0,0,0.1v0.1c6,6.2,8.2,13.9,6.2,22.5c-0.7,2.8-0.6,4.3,0.1,4.6
			c0.7,0.4,2.1-0.4,4.4-2.4C565,67.1,574.6,64.3,586.9,65.2"/>
		<path class="st0" d="M567.1,52.7c-1.3-0.5-3.2,0.5-4.3,2.2c-1,1.6-1.2,4.8-0.2,5.2c0.9,0.4,4-1.5,5-3.2
			C568.6,55.1,568.4,53.2,567.1,52.7"/>
		<path class="st0" d="M550.2,111.9l3.1-3.9c1.7-2.2,3.2-3.5,4.8-4.5s3.5-1.6,6-2.1l4.8-0.8c13.2-2.2,18.2-3.2,18.3-4.7
			c0.1-0.7-0.7-1-1.4-1.2h-0.1c-0.1,0-0.1,0-0.1,0c-13.1,3.4-23,2.1-29.7-3.5c-2-1.7-3.4-2.2-4.2-1.7c-0.2,0.1-0.3,0.3-0.4,0.5
			c-0.5,0.8-0.7,2.2-0.6,4.6c0.2,6.4-1.7,13.1-5.8,19.6c-1.8,3-4,5.9-6.7,8.8c0,0,0,0.1-0.1,0.1c0,0.1,0,0.1,0,0.1
			c-0.2,0.7-0.3,1.5,0.1,1.8C539.2,125.6,542.2,122.1,550.2,111.9"/>
		<path class="st0" d="M558.3,111.4c0.5,1,1.2,1.8,2.2,2.1c0.8,0.2,1.5,0.1,2.2-0.2c0.7-0.4,1.2-1.1,1.5-1.9
			c0.3-1.1,0.3-2.2-0.2-3.2c-0.8-1.8-3.8-3.5-4.9-2.9c-0.2,0.1-0.3,0.2-0.4,0.5c-0.1,0.2-0.2,0.5-0.3,0.8
			C557.8,107.9,557.8,110.2,558.3,111.4"/>
		<path class="st0" d="M615.2,77.6c0.1-0.1,0.2-0.2,0.2-0.3s-0.1-0.2-0.2-0.3c-0.9-0.6-20.2-12.5-36.4-8.2c-0.1,0-0.2,0.1-0.3,0.2
			c0,0.1-0.1,0.1-0.1,0.2c0,0.2,0.1,0.3,0.3,0.3c10.7,0.8,21.2,6.7,24.3,8.5l0.5,0.3l-0.5,0.4c-3.1,2.4-14,10.3-25.2,13.2
			c-0.2,0.1-0.4,0.2-0.4,0.4c0,0.2,0.1,0.4,0.3,0.4C594.5,94.3,614.3,78.3,615.2,77.6"/>
		<path class="st0" d="M547.3,54.8c0.1-0.1,0.2-0.3,0.2-0.4c-3.2-10.4-16.7-12.8-17.2-12.9c-0.1,0-0.2,0-0.2,0.1
			c-0.1,0.1-0.1,0.1-0.2,0.2c-0.2,0.7-4.9,16.8,0.6,25.1c0.1,0.1,0.2,0.1,0.4,0c0.1-0.1,0.2-0.3,0.2-0.4c-1.3-7.6,0.8-16.6,1.4-19.2
			l0.1-0.4l0.3,0.1c2,0.5,9.4,2.6,14,7.8C547,54.9,547.2,54.9,547.3,54.8"/>
		<path class="st0" d="M540.4,114.9c0.1-0.2,0-0.4-0.1-0.5s-0.3-0.1-0.5,0.1c-6.9,7.8-16.2,12.2-18.8,13.4l-0.4,0.2v-0.5
			c0.1-3.2,0.9-14.2,4.7-23.5c0.1-0.2,0-0.4-0.1-0.4c-0.1-0.1-0.3,0-0.4,0.1c-8.7,11.1-9.2,31.3-9.2,32.2c0,0.1,0,0.2,0.1,0.3
			s0.2,0.1,0.2,0.1C516.7,135.9,533.9,129.4,540.4,114.9"/>
		<path class="st0" d="M656.3,103h5.4v5.2h0.1c1.7-3.7,5.7-5.9,9.9-5.9c7.8,0,11.3,5.2,11.3,13.9v19.3h-5.6v-16.8
			c0-7.6-1.5-11.2-6.4-11.6c-6.3,0-9.2,5.5-9.2,13.3v15h-5.6"/>
		<path class="st0" d="M708.9,105.3c2.8-1.8,6.1-3.1,10-3.1c8.6,0,12.1,4.6,12.1,13.4V129c0,3.7,0.1,5.4,0.3,6.4H726v-4.2h-0.1
			c-1.3,2-4.3,5-9.4,5c-6.5,0-11.1-3.1-11.1-10.1c0-8.2,8.3-10.7,14-10.7c2.2,0,3.7,0,5.9,0.2c0-5.6-1.9-8.5-7.5-8.5
			c-3.2,0-6.5,1.3-8.8,3.3L708.9,105.3 M725.4,120c-1.2,0-2.3-0.1-3.6-0.1c-3,0-10.5,0.5-10.5,6.2c0,3.4,3.1,5.3,5.6,5.3
			c5.5,0,8.4-3.7,8.4-8.5"/>
		<path class="st0" d="M752.9,108.3c-0.8-0.2-1.6-0.2-2.3-0.2c-5.2,0-8.7,5.1-8.7,13.2v14.2H736v-32.2h5.5v5.3h0.1
			c1.6-3.4,4.9-5.8,8.3-5.8c1.3,0,2.1,0.1,2.9,0.2"/>
		<path class="st0" d="M782.2,102.3c9.2,0,15.3,7.1,15.3,17c0,9.3-6.3,17-15.3,17c-9.1,0-15.4-7.7-15.4-17
			C766.8,109.4,772.9,102.3,782.2,102.3 M782.2,131.4c6.5,0,9.4-6.4,9.4-12.2c0-6.2-3.5-12.2-9.4-12.2c-6,0-9.5,6-9.5,12.2
			C772.7,125.1,775.6,131.4,782.2,131.4"/>
		<path class="st0" d="M703.2,103H695v-9.4l-5.8,1.9v7.5l-4.8,4.9h4.8v18.9c0,6.5,3.7,9.4,9.8,9.4c1.7,0,3.5-0.4,4.7-0.8v-5
			c-0.9,0.5-2.1,1-3.7,1c-2.7,0-5-2-5-5.8v-17.8h8.2"/>
		<rect x="756.5" y="103" class="st0" width="5.9" height="32.5"/>
		<path class="st0" d="M759.4,98.7c2,0,3.6-1.6,3.6-3.7c0-2-1.6-3.7-3.6-3.7s-3.6,1.6-3.6,3.7C755.8,97.1,757.4,98.7,759.4,98.7"/>
		<path class="st0" d="M632,90.3c12.6,0,19.9,9.8,19.9,22.9c0,13.5-7.3,23-19.9,23c-12.6,0-19.9-9.5-19.9-23
			C612.1,100.1,619.5,90.3,632,90.3 M632,130.7c9.5,0,13.6-8.5,13.6-17.4c0-9-4.5-17.4-13.6-17.4c-9.1-0.1-13.6,8.3-13.6,17.4
			C618.4,122.1,622.5,130.7,632,130.7"/>
	</g>
	<g>
		<path class="st0" d="M1036.8,87.8l-1.5-23.6c-0.2-0.6-1.1-0.6-1.1,0c-0.1,5.1-9.1,0.8-12.3,0.1c-27.7-6.3-46.4,15.9-46.4,34.4
			c0,23.9,15.8,37,36.2,37c16.2,0,24.4-10.4,27.1-21.6c0.3-1.4-1.2-1.1-1.6,0c-4.9,15.7-17.1,19.6-23.1,19.5
			c-13.1-0.2-25.3-10.8-25.8-34.9c-0.6-30.8,34.2-50.9,47.3-11.3C1036,88.2,1036.6,88.4,1036.8,87.8"/>
		<path class="st0" d="M1048.1,91.5c7.2-3,26.6-2.1,26.6,6.8v27.3c0,7.4,7.4,10,9.4,5c0.7-0.7,1.8-0.2,1.2,0.9
			c-1.3,5.3-14.3,6.1-18.9-0.9c-25,18.2-40.9-17.6-11-18.2c9.3-1.4,10.4-6.8,10.4-10.6c0-9.3-4.9-10.2-7.8-10.2
			c-3.1,0-5.7,0.9-7.4,5.8C1048,107,1033.6,98.4,1048.1,91.5L1048.1,91.5z M1054.5,133.5c5.9,0.8,11.2-4.6,11.2-9.9v-12.8
			C1040.4,120.1,1048.3,133.1,1054.5,133.5"/>
		<path class="st0" d="M1098.6,90.6l-12.2,1.6c-0.8,0.2-0.8,0.6,0.7,0.9c2.6,0.1,4.3,1.9,4.3,5.8v28.4c0,3.4-4.8,6.4-5.8,6.8
			c-2.3,0.9,1.1,0.8,1.1,0.8h19.9c0.7,0,2.7,0.2,0.1-1c-3-1.1-6.3-3.6-6.3-6.5c0-2.9,0-21.3,0-21.3c0-9,5.8-13.9,11.6-13.9
			c6,0,11,1.3,11,13.8v21.4c0,3.1-4.1,5.9-6.2,6.7c-1.4,0.4-2,0.9-0.8,0.9h21.2c1.1,0.1,1.6-0.3,0.6-0.6c-5.1-2-5.8-5.8-5.8-7v-24.9
			c0-14.2-13.7-12.3-18.5-12.3c-6,0.1-12.4,3.9-13.1,5.6C1100.4,91,1099.8,90.5,1098.6,90.6"/>
		<path class="st0" d="M1217.4,131.3c-2.1,3.6-7.2,4.4-13.5,4.4c-12,0-21.8-9.2-21.8-21.9c0-11.2,6.3-23.9,22.4-23.9
			c14.5,0,14.4,9.7,14.4,1.6V77.4c0-7.4-2.9-9.5-5.2-10.2c-3.3-1.1-7.6-1.3-0.8-1.3l12.6-0.3c-0.8,0.2,0.8,0.2,0.8,1.3v55.6
			c0,3.9,1.4,9.8,7.6,11.5c0.6,0.1,1.2,0.5,0.6,0.7l-13.8,1.5c-2,0.2-2.8-0.8-3.7-4.6 M1205.2,133.5c7.5,0,12.5-2.9,12.5-20.5
			c0-16.7-5-20.8-12.5-20.8s-13.6,9.7-13.6,20.9C1191.6,124.4,1197.6,133.5,1205.2,133.5"/>
		<path class="st0" d="M1147.7,91.5c7.2-3,26.6-2.1,26.6,6.8v27.3c0,7.5,7.4,10,9.4,5c0.7-0.7,1.8-0.2,1.2,0.9
			c-1.3,5.3-14.3,6.1-18.9-0.9c-25,18.2-40.9-17.6-11-18.2c9.3-1.4,10.4-6.8,10.4-10.6c0-9.3-4.9-10.2-7.8-10.2
			c-3.1,0-5.7,0.9-7.3,5.8C1147.6,106.9,1133.2,98.4,1147.7,91.5L1147.7,91.5z M1154.1,133.4c5.9,0.8,11.2-4.6,11.2-9.9v-12.8
			C1140,120.1,1147.9,133.1,1154.1,133.4"/>
		<path class="st0" d="M1243.5,91.6c7.2-3,26.6-2.1,26.6,6.8v27.3c0,7.4,7.4,10,9.4,5c0.7-0.7,1.8-0.2,1.2,0.9
			c-1.3,5.3-14.3,6.1-18.9-0.9c-25,18.2-40.9-17.6-11-18.2c9.3-1.4,10.4-6.8,10.4-10.6c0-9.3-4.9-10.2-7.8-10.2
			c-3.1,0-5.7,0.9-7.4,5.8C1243.4,107.1,1229,98.5,1243.5,91.6L1243.5,91.6z M1250,133.6c5.9,0.8,11.2-4.6,11.2-9.9v-12.8
			C1235.8,120.2,1243.7,133.2,1250,133.6"/>
		<polyline class="st1" points="1232.5,86.7 1232.5,65.6 1242.9,65.6 1242.9,86.7 1232.5,86.7 		"/>
		<polyline class="st1" points="1265.9,86.7 1265.9,65.6 1276.3,65.6 1276.3,86.7 1265.9,86.7 		"/>
		<path class="st1" d="M1252.9,70l1.5-3l1.5,2.9c0.2,0.3,0.3,0.3,0.6,0.1l1.3-0.6l-0.8,4.1c-0.2,0.8,0.3,1,0.8,0.5l1.8-1.9l0.5,1.1
			c0.2,0.3,0.4,0.3,0.7,0.2l1.9-0.4l-0.6,2.3v0.1c-0.1,0.3-0.2,0.6,0.1,0.7l0.7,0.3l-3.8,3.2c-0.4,0.4-0.3,0.5-0.1,1l0.4,1.1
			l-3.6-0.7c-0.4-0.1-0.8-0.1-0.8,0.2l0.2,4.1h-1.1l0.2-4.1c0-0.4-0.3-0.4-1-0.2l-3.3,0.6l0.4-1.1c0.2-0.4,0.2-0.7-0.1-1l-3.9-3.2
			l0.7-0.4c0.2-0.2,0.2-0.3,0.1-0.7l-0.7-2.4l1.9,0.4c0.5,0.1,0.7,0,0.8-0.3l0.5-1.1l1.9,2.1c0.3,0.4,0.8,0.1,0.7-0.4l-0.9-4.4
			l1.4,0.8C1252.6,70.1,1252.8,70.2,1252.9,70"/>
	</g>
	<g>
		<rect x="45.2" y="42.6" class="st2" width="285.4" height="114.2"/>
		<polyline class="st3" points="67.3,90.1 67.3,64.4 81.6,64.4 81.6,70.1 73.9,70.1 73.9,74.3 81.2,74.3 81.2,80 73.9,80 73.9,84.4 
			81.6,84.4 81.6,90.1 		"/>
		<polyline class="st3" points="109.7,90.1 107.8,75.3 101.8,90.1 99.2,90.1 93.3,75.3 91.2,90.1 84.7,90.1 89,64.4 95.4,64.4 
			100.5,78.1 105.9,64.4 112.4,64.4 116.2,90.1 		"/>
		<path class="st3" d="M130.8,81.6h-4.1v8.5h-6.5V64.4h10.4c2.4,0,4.4,0.3,6.2,2.2c1.8,1.7,2.4,3.9,2.4,6.4
			C139.2,78.5,136.2,81.6,130.8,81.6 M128.9,69.8h-2.2v6.4h2.2c2.1,0,3.6-0.8,3.6-3.2C132.4,70.7,131.1,69.8,128.9,69.8"/>
		<polyline class="st3" points="142.5,90.1 142.5,64.4 149,64.4 149,84.4 156.8,84.4 156.8,90.1 		"/>
		<path class="st3" d="M172.2,91c-7.7,0-13.9-5.6-13.9-13.7s6.2-13.7,13.9-13.7s13.9,5.6,13.9,13.7C186.1,85.3,179.9,91,172.2,91
			 M172.2,70.1c-3.9,0-7.1,3.2-7.1,7.2s3.2,7.2,7.1,7.2s7.1-3.2,7.1-7.2C179.3,73.3,176.1,70.1,172.2,70.1"/>
		<polyline class="st3" points="200.7,77.7 200.7,90.1 194.2,90.1 194.2,77.7 185.1,64.4 192.9,64.4 197.6,71.4 202.2,64.4 
			210.1,64.4 		"/>
		<polyline class="st3" points="234.6,90.1 232.8,75.3 226.7,90.1 224.1,90.1 218.3,75.3 216.2,90.1 209.7,90.1 213.9,64.4 
			220.4,64.4 225.5,78.1 230.8,64.4 237.4,64.4 241.1,90.1 		"/>
		<polyline class="st3" points="245.1,90.1 245.1,64.4 259.4,64.4 259.4,70.1 251.6,70.1 251.6,74.3 259,74.3 259,80 251.6,80 
			251.6,84.4 259.4,84.4 259.4,90.1 		"/>
		<polyline class="st3" points="282.6,90.1 270.6,74.4 270.6,90.1 264,90.1 264,64.4 270.6,64.4 282.6,80.1 282.6,64.4 289.1,64.4 
			289.1,90.1 		"/>
		<polyline class="st3" points="303.5,70.1 303.5,90.1 297,90.1 297,70.1 291.7,70.1 291.7,64.4 309,64.4 309,70.1 		"/>
		<path class="st3" d="M87.6,136.4c-11.6,0-20.8-8.4-20.8-20.5s9.3-20.5,20.8-20.5s20.8,8.5,20.8,20.5
			C108.4,128,99.2,136.4,87.6,136.4 M87.6,105.1c-5.9,0-10.6,4.8-10.6,10.8c0,5.9,4.8,10.8,10.6,10.8s10.6-4.8,10.6-10.8
			S93.5,105.1,87.6,105.1"/>
		<polyline class="st3" points="141.3,135.1 123.3,111.5 123.3,135.1 113.5,135.1 113.5,96.6 123.3,96.6 141.3,120.1 141.3,96.6 
			151.1,96.6 151.1,135.1 		"/>
		<polyline class="st3" points="172.4,105.1 172.4,135.1 162.7,135.1 162.7,105.1 154.7,105.1 154.7,96.6 180.6,96.6 180.6,105.1 		
			"/>
		<path class="st3" d="M204.5,135.1l-2.4-6.7h-13.5l-2.6,6.7h-10.3l14.4-38.5h10.7l14.2,38.5 M195.4,108.5l-4.1,12.2h8.1"/>
		<path class="st3" d="M237.8,135.1l-9.4-14.8v14.8h-9.8V96.6h15.2c3.6,0,6.7,0.7,9.2,3.4c2.1,2.2,3.2,5.4,3.2,8.5
			c0,2.4-0.7,5.1-2.1,7.1c-1.5,2.1-3.6,3.1-6,3.7l11.8,15.8 M230.3,104.3h-1.9v9.5h1.9c3.1,0,6-1.2,6-4.8
			C236.2,105.5,233.2,104.3,230.3,104.3"/>
		<rect x="253.5" y="96.6" class="st3" width="9.8" height="38.5"/>
		<path class="st3" d="M288,136.4c-11.6,0-20.8-8.4-20.8-20.5s9.3-20.5,20.8-20.5s20.8,8.5,20.8,20.5
			C308.9,128,299.6,136.4,288,136.4 M288,105.1c-5.9,0-10.6,4.8-10.6,10.8c0,5.9,4.8,10.8,10.6,10.8s10.6-4.8,10.6-10.8
			S293.9,105.1,288,105.1"/>
	</g>
</g>
</svg>
