<?xml version="1.0" encoding="utf-8"?>
<!-- Generator: Adobe Illustrator 25.1.0, SVG Export Plug-In . SVG Version: 6.00 Build 0)  -->
<svg version="1.1" id="Layer_1" xmlns="http://www.w3.org/2000/svg" xmlns:xlink="http://www.w3.org/1999/xlink" x="0px" y="0px"
	 viewBox="0 0 1326 199" style="enable-background:new 0 0 1326 199;" xml:space="preserve">
<style type="text/css">
	.st0{fill:#FFFFFF;}
	.st1{fill:#231F20;}
	.st2{fill:#EF3E42;}
	.st3{fill:#8F113C;}
</style>
<rect x="-0.06" y="-0.44" class="st0" width="1326.22" height="199.11"/>
<g>
	<g>
		<path class="st1" d="M526.59,85.51c0.11-0.18,0.18-0.35,0.2-0.51c0.04-0.29-0.09-0.64-0.36-0.98c-0.67-0.85-2.02-1.47-2.95-1.38
			c-1.49,0.15-2.87,1.45-3.1,2.92c-0.22,1.48,0.8,2.59,2.3,2.47C523.92,87.94,525.94,86.58,526.59,85.51"/>
		<path class="st1" d="M541.46,83.48c0.11-0.88-0.88-1.67-3.08-2.47c-6.59-2.42-10.47-8.43-11.76-17.6c0,0,0-0.05-0.01-0.09
			c-0.03-0.02-0.05-0.05-0.05-0.05c-0.31-0.29-0.71-0.58-1.11-0.23c-0.86,0.74-0.31,3.93,1.76,12.89c0,0,0.81,3.53,0.81,3.53
			c0.44,2.01,0.54,3.61,0.32,5.18c-0.22,1.58-0.79,3.27-1.84,5.47l-1.91,3.96c-5.1,10.52-6.79,14.4-6.1,15.12
			c0.33,0.34,0.88-0.09,1.31-0.5c0,0,0.04-0.04,0.08-0.07c0.02-0.05,0.04-0.1,0.04-0.1c1.37-3.4,2.88-6.44,4.53-9.12
			c3.65-5.93,8.05-10.2,13.24-12.81c1.94-0.97,3.1-1.8,3.55-2.53C541.37,83.85,541.44,83.66,541.46,83.48"/>
		<path class="st1" d="M586.87,65.2c0,0,0.06,0.01,0.12,0.01c0.06-0.03,0.12-0.05,0.12-0.05c0.51-0.23,1.07-0.52,1.31-0.9
			c0.08-0.14,0.12-0.28,0.11-0.43c-0.09-1.29-4.71-1.44-16.99-1.23c0,0-4.4,0.06-4.41,0.06c-2.39,0.01-4.05-0.25-5.41-0.85
			c-1.34-0.6-2.5-1.58-3.76-3.16c0,0-2.19-2.81-2.19-2.81c-5.49-7.1-7.52-9.39-8.55-8.75c-0.12,0.08-0.21,0.17-0.28,0.28
			c-0.2,0.32-0.2,0.76-0.17,1.13c0,0,0.01,0.05,0.01,0.09c0.02,0.03,0.05,0.06,0.05,0.06c6.02,6.23,8.24,13.87,6.24,22.48
			c-0.65,2.8-0.63,4.28,0.06,4.64c0.69,0.37,2.1-0.39,4.43-2.38C564.98,67.07,574.63,64.26,586.87,65.2"/>
		<path class="st1" d="M567.09,52.69c-1.32-0.52-3.23,0.45-4.29,2.17c-1.01,1.64-1.16,4.78-0.24,5.18c0.93,0.41,3.97-1.55,5-3.22
			C568.64,55.06,568.42,53.21,567.09,52.69"/>
		<path class="st1" d="M550.18,111.89c0,0,3.06-3.88,3.07-3.88c1.72-2.15,3.19-3.54,4.77-4.51c1.59-0.97,3.45-1.6,6.04-2.05
			l4.76-0.8c13.19-2.16,18.15-3.23,18.35-4.71c0.09-0.69-0.69-1.01-1.39-1.21c0,0-0.06-0.02-0.12-0.03
			c-0.07,0.01-0.13,0.03-0.13,0.03c-13.14,3.43-23.04,2.11-29.71-3.46c-2.05-1.71-3.36-2.25-4.16-1.74
			c-0.16,0.11-0.31,0.27-0.44,0.47c-0.47,0.77-0.67,2.25-0.59,4.58c0.19,6.44-1.74,13.05-5.77,19.6c-1.82,2.96-4.05,5.88-6.69,8.75
			c0,0-0.04,0.05-0.08,0.09c-0.02,0.06-0.04,0.11-0.04,0.11c-0.19,0.68-0.35,1.49,0.12,1.79
			C539.18,125.56,542.18,122.08,550.18,111.89"/>
		<path class="st1" d="M558.32,111.37c0.45,1.01,1.25,1.77,2.19,2.06c0.76,0.23,1.55,0.14,2.23-0.25c0.68-0.4,1.2-1.08,1.48-1.92
			c0.34-1.05,0.27-2.24-0.21-3.25c-0.85-1.81-3.84-3.52-4.93-2.86c-0.15,0.09-0.29,0.25-0.43,0.47c-0.13,0.21-0.24,0.47-0.34,0.78
			C557.78,107.91,557.79,110.2,558.32,111.37"/>
		<path class="st1" d="M615.18,77.63c0.12-0.09,0.18-0.22,0.18-0.35c0-0.13-0.07-0.24-0.19-0.31c-0.88-0.55-20.15-12.49-36.36-8.19
			c-0.13,0.04-0.25,0.12-0.31,0.23c-0.03,0.06-0.06,0.12-0.06,0.19c-0.02,0.18,0.12,0.33,0.31,0.34
			c10.72,0.78,21.17,6.65,24.26,8.52l0.52,0.31l-0.52,0.4c-3.13,2.41-14.01,10.33-25.21,13.22c-0.21,0.06-0.37,0.24-0.37,0.44
			c-0.01,0.2,0.14,0.36,0.35,0.38C594.45,94.31,614.32,78.33,615.18,77.63"/>
		<path class="st1" d="M547.32,54.77c0.14-0.11,0.21-0.29,0.16-0.43c-3.16-10.44-16.68-12.82-17.22-12.91
			c-0.07-0.01-0.15,0.01-0.23,0.07c-0.08,0.06-0.14,0.14-0.16,0.23c-0.2,0.67-4.91,16.78,0.57,25.15c0.07,0.11,0.23,0.13,0.36,0.03
			c0.13-0.09,0.21-0.27,0.19-0.41c-1.32-7.56,0.77-16.63,1.43-19.2l0.11-0.42l0.34,0.08c2.05,0.5,9.36,2.58,14.05,7.81
			C547.02,54.87,547.18,54.87,547.32,54.77"/>
		<path class="st1" d="M540.41,114.93c0.09-0.2,0.05-0.4-0.08-0.51c-0.13-0.1-0.32-0.07-0.45,0.09
			c-6.88,7.81-16.2,12.24-18.82,13.38l-0.42,0.18l0.02-0.54c0.13-3.24,0.86-14.25,4.68-23.51c0.07-0.18,0.04-0.37-0.08-0.44
			c-0.11-0.08-0.28-0.03-0.4,0.11c-8.69,11.13-9.22,31.26-9.24,32.15c0,0.11,0.03,0.22,0.1,0.29c0.07,0.06,0.16,0.08,0.25,0.05
			C516.66,135.93,533.87,129.44,540.41,114.93"/>
		<path class="st1" d="M656.34,103.04h5.39v5.15h0.12c1.67-3.68,5.7-5.9,9.91-5.9c7.82,0,11.31,5.22,11.31,13.93v19.28h-5.58v-16.81
			c0-7.56-1.54-11.24-6.39-11.56c-6.34,0-9.18,5.47-9.18,13.35v15.02h-5.58"/>
		<path class="st1" d="M708.86,105.35c2.77-1.8,6.1-3.06,9.95-3.06c8.64,0,12.12,4.58,12.12,13.41v13.44c0,3.7,0.14,5.41,0.26,6.36
			h-5.22v-4.21h-0.1c-1.32,1.98-4.27,4.96-9.37,4.96c-6.51,0-11.07-3.05-11.07-10.12c0-8.15,8.29-10.69,14.04-10.69
			c2.19,0,3.72,0,5.91,0.15c0-5.61-1.89-8.47-7.45-8.47c-3.16,0-6.53,1.26-8.77,3.3L708.86,105.35 M725.37,120.04
			c-1.19,0-2.35-0.13-3.56-0.13c-3,0-10.48,0.51-10.48,6.24c0,3.44,3.08,5.29,5.63,5.29c5.51,0,8.41-3.7,8.41-8.54"/>
		<path class="st1" d="M752.86,108.27c-0.79-0.19-1.6-0.25-2.3-0.25c-5.25,0-8.67,5.09-8.67,13.25v14.23h-5.87v-32.2h5.5v5.3h0.11
			c1.56-3.38,4.93-5.8,8.3-5.8c1.28,0,2.1,0.1,2.94,0.25"/>
		<path class="st1" d="M782.15,102.29c9.17,0,15.34,7.12,15.34,16.99c0,9.28-6.28,16.97-15.34,16.97c-9.14,0-15.4-7.69-15.4-16.97
			C766.75,109.41,772.9,102.29,782.15,102.29 M782.15,131.44c6.5,0,9.42-6.36,9.42-12.15c0-6.18-3.5-12.15-9.42-12.15
			c-5.99,0-9.48,5.98-9.48,12.15C772.68,125.08,775.57,131.44,782.15,131.44"/>
		<path class="st1" d="M703.18,103.04h-8.16v-9.42l-5.84,1.91v7.47l-4.81,4.9h4.81v18.94c0,6.49,3.73,9.41,9.78,9.41
			c1.74,0,3.45-0.43,4.73-0.81v-5.02c-0.87,0.53-2.12,1.01-3.73,1.01c-2.69,0-4.95-2.04-4.95-5.8v-17.76h8.16"/>
		<rect x="756.49" y="103.04" class="st1" width="5.86" height="32.46"/>
		<path class="st1" d="M759.41,98.71c1.98,0,3.58-1.63,3.58-3.66c0-2.03-1.6-3.66-3.58-3.66c-1.99,0-3.6,1.63-3.6,3.66
			C755.82,97.08,757.42,98.71,759.41,98.71"/>
		<path class="st1" d="M632.01,90.33c12.58,0,19.93,9.79,19.93,22.95c0,13.49-7.3,22.97-19.93,22.97
			c-12.61,0-19.89-9.48-19.89-22.97C612.12,100.12,619.47,90.33,632.01,90.33 M632.01,130.67c9.55,0,13.64-8.54,13.64-17.38
			c0-9.02-4.5-17.42-13.64-17.36c-9.1-0.06-13.61,8.34-13.61,17.36C618.4,122.14,622.5,130.67,632.01,130.67"/>
	</g>
	<g>
		<path class="st1" d="M1036.81,87.76l-1.51-23.58c-0.19-0.57-1.12-0.57-1.13,0c-0.09,5.09-9.07,0.82-12.26,0.1
			c-27.73-6.32-46.4,15.94-46.4,34.42c0,23.95,15.84,36.97,36.21,36.97c16.22,0,24.43-10.37,27.07-21.6c0.33-1.4-1.25-1.11-1.6,0
			c-4.9,15.65-17.07,19.61-23.11,19.52c-13.11-0.19-25.3-10.75-25.75-34.89c-0.57-30.75,34.16-50.87,47.34-11.32
			C1035.96,88.23,1036.62,88.42,1036.81,87.76"/>
		<path class="st1" d="M1048.13,91.53c7.17-3.02,26.6-2.07,26.6,6.79v27.26c0,7.45,7.36,10,9.43,5c0.66-0.66,1.79-0.19,1.23,0.94
			c-1.32,5.28-14.34,6.13-18.86-0.94c-24.99,18.2-40.93-17.64-11.03-18.2c9.34-1.41,10.37-6.79,10.37-10.56
			c0-9.33-4.9-10.18-7.83-10.18c-3.11,0-5.66,0.94-7.36,5.75C1048.04,107,1033.61,98.42,1048.13,91.53L1048.13,91.53z
			 M1054.54,133.5c5.94,0.75,11.22-4.62,11.22-9.9v-12.82C1040.4,120.11,1048.32,133.12,1054.54,133.5"/>
		<path class="st1" d="M1098.59,90.59l-12.17,1.6c-0.75,0.19-0.75,0.56,0.66,0.94c2.64,0.09,4.34,1.88,4.34,5.75v28.39
			c0,3.4-4.76,6.38-5.75,6.79c-2.26,0.94,1.13,0.75,1.13,0.75h19.9c0.66,0,2.73,0.19,0.09-1.04c-3.02-1.13-6.32-3.58-6.32-6.51
			c0-2.92,0-21.32,0-21.32c0-8.96,5.85-13.86,11.6-13.86c6.04,0,11.04,1.32,11.04,13.77v21.41c0,3.11-4.06,5.94-6.22,6.7
			c-1.42,0.38-1.98,0.85-0.75,0.85h21.22c1.13,0.1,1.6-0.28,0.57-0.57c-5.09-1.98-5.75-5.75-5.75-6.98v-24.9
			c0-14.24-13.68-12.35-18.48-12.35c-6.04,0.09-12.45,3.87-13.11,5.56C1100.38,90.97,1099.81,90.49,1098.59,90.59"/>
		<path class="st1" d="M1217.42,131.33c-2.08,3.59-7.17,4.43-13.49,4.43c-11.98,0-21.79-9.24-21.79-21.88
			c0-11.22,6.32-23.86,22.45-23.86c14.52,0,14.43,9.71,14.43,1.6V77.39c0-7.36-2.93-9.52-5.19-10.18c-3.3-1.13-7.55-1.32-0.76-1.32
			l12.64-0.28c-0.75,0.19,0.85,0.19,0.85,1.32v55.64c0,3.87,1.41,9.81,7.64,11.51c0.56,0.09,1.23,0.47,0.56,0.66l-13.77,1.51
			c-1.98,0.19-2.83-0.75-3.68-4.62 M1205.16,133.5c7.51,0,12.54-2.92,12.54-20.46c0-16.69-5.03-20.75-12.54-20.75
			c-7.51,0-13.61,9.74-13.61,20.94C1191.55,124.42,1197.64,133.5,1205.16,133.5"/>
		<path class="st1" d="M1147.72,91.49c7.17-3.02,26.6-2.07,26.6,6.79v27.26c0,7.45,7.36,9.99,9.43,5c0.66-0.66,1.79-0.19,1.23,0.94
			c-1.32,5.28-14.34,6.13-18.86-0.94c-24.99,18.2-40.93-17.64-11.03-18.2c9.34-1.41,10.37-6.79,10.37-10.56
			c0-9.33-4.91-10.18-7.83-10.18c-3.11,0-5.65,0.94-7.35,5.75C1147.63,106.95,1133.2,98.37,1147.72,91.49L1147.72,91.49z
			 M1154.14,133.45c5.94,0.75,11.22-4.62,11.22-9.91v-12.82C1139.99,120.06,1147.91,133.08,1154.14,133.45"/>
		<path class="st1" d="M1243.54,91.58c7.17-3.02,26.59-2.07,26.59,6.79v27.26c0,7.45,7.36,10,9.43,5c0.66-0.66,1.79-0.19,1.22,0.94
			c-1.32,5.28-14.33,6.13-18.86-0.94c-24.99,18.2-40.93-17.64-11.03-18.2c9.33-1.42,10.37-6.79,10.37-10.57
			c0-9.33-4.91-10.18-7.83-10.18c-3.11,0-5.66,0.94-7.36,5.75C1243.45,107.05,1229.02,98.47,1243.54,91.58L1243.54,91.58z
			 M1249.96,133.55c5.94,0.75,11.22-4.62,11.22-9.9v-12.82C1235.81,120.16,1243.73,133.17,1249.96,133.55"/>
		<polyline class="st2" points="1232.5,86.72 1232.5,65.6 1242.88,65.6 1242.88,86.72 1232.5,86.72 		"/>
		<polyline class="st2" points="1265.89,86.72 1265.89,65.6 1276.26,65.6 1276.26,86.72 1265.89,86.72 		"/>
		<path class="st2" d="M1252.94,69.99l1.48-3.01l1.47,2.9c0.18,0.31,0.33,0.28,0.62,0.14l1.26-0.63l-0.82,4.06
			c-0.17,0.8,0.29,1.03,0.77,0.49l1.81-1.93l0.48,1.09c0.16,0.33,0.4,0.28,0.72,0.22l1.86-0.39l-0.62,2.35l-0.01,0.05
			c-0.08,0.31-0.22,0.56,0.12,0.71l0.66,0.33l-3.84,3.25c-0.4,0.41-0.26,0.53-0.11,0.98l0.36,1.09l-3.58-0.65
			c-0.44-0.11-0.75-0.11-0.76,0.24l0.15,4.11h-1.08l0.15-4.09c0-0.41-0.31-0.39-1.03-0.25l-3.31,0.64l0.43-1.09
			c0.15-0.42,0.18-0.7-0.14-0.98l-3.93-3.2l0.72-0.45c0.21-0.15,0.22-0.33,0.11-0.68l-0.74-2.39l1.89,0.41
			c0.53,0.12,0.67,0,0.81-0.29l0.53-1.08l1.86,2.11c0.33,0.39,0.8,0.13,0.65-0.43l-0.9-4.4l1.38,0.8c0.22,0.13,0.46,0.17,0.59-0.09"
			/>
	</g>
	<g>
		<rect x="45.17" y="42.64" class="st3" width="285.39" height="114.16"/>
		<polyline class="st0" points="67.35,90.05 67.35,64.4 81.62,64.4 81.62,70.05 73.87,70.05 73.87,74.32 81.21,74.32 81.21,79.97 
			73.87,79.97 73.87,84.39 81.62,84.39 81.62,90.05 		"/>
		<polyline class="st0" points="109.65,90.05 107.81,75.28 101.75,90.05 99.15,90.05 93.35,75.28 91.21,90.05 84.74,90.05 
			88.99,64.4 95.43,64.4 100.51,78.09 105.89,64.4 112.4,64.4 116.17,90.05 		"/>
		<path class="st0" d="M130.78,81.55h-4.1v8.5h-6.51V64.4h10.39c2.45,0,4.4,0.35,6.25,2.15c1.77,1.73,2.45,3.92,2.45,6.38
			C139.25,78.51,136.24,81.55,130.78,81.55 M128.9,69.78h-2.22v6.38h2.18c2.14,0,3.57-0.77,3.57-3.15
			C132.44,70.67,131.05,69.78,128.9,69.78"/>
		<polyline class="st0" points="142.49,90.05 142.49,64.4 149,64.4 149,84.39 156.83,84.39 156.83,90.05 		"/>
		<path class="st0" d="M172.2,90.97c-7.72,0-13.89-5.61-13.89-13.65c0-8.04,6.17-13.69,13.89-13.69s13.89,5.65,13.89,13.69
			C186.09,85.35,179.91,90.97,172.2,90.97 M172.2,70.09c-3.91,0-7.08,3.23-7.08,7.23c0,3.96,3.2,7.19,7.08,7.19s7.08-3.19,7.08-7.19
			C179.27,73.32,176.11,70.09,172.2,70.09"/>
		<polyline class="st0" points="200.72,77.74 200.72,90.05 194.18,90.05 194.18,77.74 185.11,64.4 192.9,64.4 197.64,71.4 
			202.2,64.4 210.1,64.4 		"/>
		<polyline class="st0" points="234.61,90.05 232.76,75.28 226.7,90.05 224.1,90.05 218.31,75.28 216.16,90.05 209.69,90.05 
			213.94,64.4 220.38,64.4 225.46,78.09 230.84,64.4 237.35,64.4 241.12,90.05 		"/>
		<polyline class="st0" points="245.12,90.05 245.12,64.4 259.38,64.4 259.38,70.05 251.63,70.05 251.63,74.32 258.97,74.32 
			258.97,79.97 251.63,79.97 251.63,84.39 259.38,84.39 259.38,90.05 		"/>
		<polyline class="st0" points="282.57,90.05 270.56,74.36 270.56,90.05 264.04,90.05 264.04,64.4 270.56,64.4 282.57,80.09 
			282.57,64.4 289.08,64.4 289.08,90.05 		"/>
		<polyline class="st0" points="303.55,70.05 303.55,90.05 297.04,90.05 297.04,70.05 291.73,70.05 291.73,64.4 308.97,64.4 
			308.97,70.05 		"/>
		<path class="st0" d="M87.59,136.43c-11.58,0-20.84-8.42-20.84-20.48c0-12.05,9.26-20.53,20.84-20.53
			c11.58,0,20.84,8.48,20.84,20.53C108.43,128.01,99.17,136.43,87.59,136.43 M87.59,105.11c-5.87,0-10.62,4.85-10.62,10.84
			c0,5.94,4.8,10.79,10.62,10.79c5.82,0,10.62-4.79,10.62-10.79S93.47,105.11,87.59,105.11"/>
		<polyline class="st0" points="141.29,135.05 123.28,111.51 123.28,135.05 113.51,135.05 113.51,96.57 123.28,96.57 141.29,120.11 
			141.29,96.57 151.06,96.57 151.06,135.05 		"/>
		<polyline class="st0" points="172.45,105.05 172.45,135.05 162.68,135.05 162.68,105.05 154.72,105.05 154.72,96.57 180.58,96.57 
			180.58,105.05 		"/>
		<path class="st0" d="M204.52,135.05l-2.43-6.69H188.6l-2.6,6.69h-10.33l14.45-38.47h10.67l14.17,38.47 M195.37,108.51l-4.07,12.23
			h8.13"/>
		<path class="st0" d="M237.77,135.05l-9.38-14.77v14.77h-9.77V96.57h15.25c3.56,0,6.66,0.69,9.2,3.4c2.14,2.25,3.22,5.42,3.22,8.54
			c0,2.42-0.73,5.13-2.15,7.09c-1.52,2.13-3.56,3.12-6.04,3.69l11.8,15.75 M230.26,104.3h-1.86v9.52h1.86
			c3.05,0,5.99-1.21,5.99-4.79C236.24,105.46,233.25,104.3,230.26,104.3"/>
		<rect x="253.46" y="96.57" class="st0" width="9.77" height="38.47"/>
		<path class="st0" d="M288.01,136.43c-11.58,0-20.84-8.42-20.84-20.48c0-12.05,9.26-20.53,20.84-20.53s20.84,8.48,20.84,20.53
			C308.85,128.01,299.59,136.43,288.01,136.43 M288.01,105.11c-5.87,0-10.61,4.85-10.61,10.84c0,5.94,4.8,10.79,10.61,10.79
			s10.62-4.79,10.62-10.79S293.89,105.11,288.01,105.11"/>
	</g>
</g>
</svg>
