<?xml version="1.0" encoding="UTF-8"?>
<svg id="Layer_1" xmlns="http://www.w3.org/2000/svg" version="1.1" viewBox="0 0 2037.4 128">
  <!-- Generator: Adobe Illustrator 30.5.1, SVG Export Plug-In . SVG Version: 2.1.4 Build 3)  -->
  <defs>
    <style>
      .st0 {
        fill: #ee3e42;
      }

      .st1 {
        fill: #fff;
      }

      .st2 {
        fill: #231f20;
      }

      .st3 {
        fill: #8e113d;
      }

      .st4 {
        fill: #fcaf17;
      }
    </style>
  </defs>
  <g>
    <g>
      <polygon class="st3" points="1255.1 0 1255.1 128 1574.9 128 1574.9 0 1255.1 0"/>
      <g>
        <polygon class="st1" points="1279.9 53.2 1279.9 24.4 1295.9 24.4 1295.9 30.8 1287.2 30.8 1287.2 35.5 1295.5 35.5 1295.5 41.9 1287.2 41.9 1287.2 46.8 1295.9 46.8 1295.9 53.2 1279.9 53.2"/>
        <polygon class="st1" points="1327.4 53.2 1325.3 36.6 1318.5 53.2 1315.6 53.2 1309.1 36.6 1306.7 53.2 1299.4 53.2 1304.2 24.4 1311.4 24.4 1317.1 39.8 1323.1 24.4 1330.4 24.4 1334.6 53.2 1327.4 53.2"/>
        <path class="st1" d="M1351,43.6h-4.6v9.5h-7.3v-28.7h11.7c2.7,0,4.9.4,7,2.4,2,1.9,2.7,4.4,2.7,7.2,0,6.2-3.4,9.6-9.5,9.6h0ZM1348.9,30.4h-2.5v7.2h2.4c2.4,0,4-.9,4-3.5,0-2.7-1.5-3.7-3.9-3.7h0Z"/>
        <polygon class="st1" points="1364.1 53.2 1364.1 24.4 1371.4 24.4 1371.4 46.8 1380.2 46.8 1380.2 53.2 1364.1 53.2"/>
        <path class="st1" d="M1397.4,54.2c-8.6,0-15.6-6.3-15.6-15.3s6.9-15.3,15.6-15.3,15.6,6.3,15.6,15.3c0,9-6.9,15.3-15.6,15.3h0ZM1397.4,30.8c-4.4,0-7.9,3.6-7.9,8.1s3.6,8.1,7.9,8.1,7.9-3.6,7.9-8.1c0-4.5-3.5-8.1-7.9-8.1h0Z"/>
        <polygon class="st1" points="1429.4 39.4 1429.4 53.2 1422.1 53.2 1422.1 39.4 1411.9 24.4 1420.6 24.4 1426 32.3 1431.1 24.4 1439.9 24.4 1429.4 39.4"/>
        <polygon class="st1" points="1467.4 53.2 1465.3 36.6 1458.5 53.2 1455.6 53.2 1449.1 36.6 1446.7 53.2 1439.5 53.2 1444.2 24.4 1451.4 24.4 1457.1 39.8 1463.2 24.4 1470.5 24.4 1474.7 53.2 1467.4 53.2"/>
        <polygon class="st1" points="1479.2 53.2 1479.2 24.4 1495.1 24.4 1495.1 30.8 1486.5 30.8 1486.5 35.5 1494.7 35.5 1494.7 41.9 1486.5 41.9 1486.5 46.8 1495.1 46.8 1495.1 53.2 1479.2 53.2"/>
        <polygon class="st1" points="1521.1 53.2 1507.7 35.6 1507.7 53.2 1500.4 53.2 1500.4 24.4 1507.7 24.4 1521.1 42 1521.1 24.4 1528.4 24.4 1528.4 53.2 1521.1 53.2"/>
        <polygon class="st1" points="1544.6 30.8 1544.6 53.2 1537.3 53.2 1537.3 30.8 1531.4 30.8 1531.4 24.4 1550.7 24.4 1550.7 30.8 1544.6 30.8"/>
        <path class="st1" d="M1302.6,105.1c-13,0-23.3-9.4-23.3-22.9s10.4-23,23.3-23,23.4,9.5,23.4,23-10.4,22.9-23.4,22.9h0ZM1302.6,70c-6.6,0-11.9,5.4-11.9,12.2s5.4,12.1,11.9,12.1,11.9-5.4,11.9-12.1-5.3-12.2-11.9-12.2h0Z"/>
        <polygon class="st1" points="1362.8 103.6 1342.6 77.2 1342.6 103.6 1331.7 103.6 1331.7 60.5 1342.6 60.5 1362.8 86.8 1362.8 60.5 1373.8 60.5 1373.8 103.6 1362.8 103.6"/>
        <polygon class="st1" points="1397.7 70 1397.7 103.6 1386.8 103.6 1386.8 70 1377.9 70 1377.9 60.5 1406.8 60.5 1406.8 70 1397.7 70"/>
        <path class="st1" d="M1433.7,103.6l-2.7-7.5h-15.2l-2.9,7.5h-11.6l16.2-43.1h12l15.9,43.1h-11.7ZM1423.4,73.9l-4.6,13.7h9.1l-4.5-13.7h0Z"/>
        <path class="st1" d="M1470.9,103.6l-10.5-16.5v16.5h-10.9v-43.1h17.1c4,0,7.5.8,10.3,3.8,2.4,2.5,3.6,6.1,3.6,9.6s-.8,5.8-2.4,8c-1.7,2.4-4,3.5-6.8,4.1l13.2,17.6h-13.6ZM1462.5,69.1h-2.1v10.7h2.1c3.4,0,6.7-1.4,6.7-5.4s-3.3-5.3-6.7-5.3h0Z"/>
        <polygon class="st1" points="1488.5 103.6 1488.5 60.5 1499.5 60.5 1499.5 103.6 1488.5 103.6"/>
        <path class="st1" d="M1527.2,105.1c-13,0-23.4-9.4-23.4-22.9s10.4-23,23.4-23,23.3,9.5,23.3,23c0,13.5-10.3,22.9-23.3,22.9h0ZM1527.2,70c-6.6,0-11.9,5.4-11.9,12.2s5.4,12.1,11.9,12.1,11.9-5.4,11.9-12.1c0-6.7-5.3-12.2-11.9-12.2h0Z"/>
      </g>
    </g>
    <g>
      <path class="st2" d="M877.1,50.2l-1.7-27.2c-.2-.7-1.3-.7-1.3,0,0,5.9-10.5.9-14.2,0-32.1-7.3-53.7,18.4-53.7,39.7s18.3,42.7,41.8,42.7,28.2-12,31.3-24.9c.4-1.6-1.4-1.3-1.9,0-5.6,18.1-19.6,22.6-26.6,22.5-15.1-.2-29.2-12.4-29.7-40.3-.7-35.5,39.5-58.8,54.7-13.1.3,1,1,1.2,1.3.5"/>
      <path class="st2" d="M890.1,54.5c8.3-3.5,30.7-2.4,30.7,7.8v31.5c0,8.6,8.5,11.6,10.9,5.8.8-.8,2.1-.2,1.4,1.1-1.5,6.1-16.6,7.1-21.8-1.1-28.9,21-47.3-20.4-12.7-21,10.8-1.6,12-7.8,12-12.2,0-10.8-5.7-11.8-9-11.8s-6.5,1.1-8.5,6.6c-3.1,11.2-19.7,1.3-3-6.7M897.5,103c6.9.9,13-5.3,13-11.4v-14.8c-29.3,10.8-20.1,25.8-13,26.2"/>
      <path class="st2" d="M948.4,53.5l-14.1,1.8c-.9.2-.9.7.8,1.1,3.1,0,5,2.2,5,6.6v32.8c0,3.9-5.5,7.4-6.6,7.8-2.6,1.1,1.3.9,1.3.9h23c.8,0,3.2.2.1-1.2-3.5-1.3-7.3-4.1-7.3-7.5v-24.6c0-10.3,6.8-16,13.4-16s12.8,1.5,12.8,15.9v24.7c0,3.6-4.7,6.9-7.2,7.7-1.6.4-2.3,1-.9,1h24.5c1.3.1,1.9-.3.7-.7-5.9-2.3-6.6-6.6-6.6-8.1v-28.8c0-16.4-15.8-14.3-21.4-14.3-7,0-14.4,4.5-15.1,6.4-.3-5.1-1-5.7-2.4-5.5"/>
      <path class="st2" d="M1088.2,100.5c-2.4,4.1-8.3,5.1-15.6,5.1-13.8,0-25.2-10.7-25.2-25.3s7.3-27.6,25.9-27.6,16.7,11.2,16.7,1.9v-16.4c0-8.5-3.4-11-6-11.8-3.8-1.3-8.7-1.5-.9-1.5l14.6-.3c-.9.2,1,.2,1,1.5v64.3c0,4.5,1.6,11.3,8.8,13.3.7.1,1.4.5.7.8l-15.9,1.7c-2.3.2-3.3-.9-4.2-5.3M1074,103c8.7,0,14.5-3.4,14.5-23.6s-5.8-24-14.5-24-15.7,11.2-15.7,24.2,7,23.4,15.7,23.4"/>
      <path class="st2" d="M1005.2,54.5c8.3-3.5,30.7-2.4,30.7,7.8v31.5c0,8.6,8.5,11.5,10.9,5.8.8-.8,2.1-.2,1.4,1.1-1.5,6.1-16.6,7.1-21.8-1.1-28.9,21-47.3-20.4-12.7-21,10.8-1.6,12-7.8,12-12.2,0-10.8-5.7-11.8-9-11.8s-6.5,1.1-8.5,6.6c-3.1,11.1-19.8,1.2-3-6.7M1012.6,103c6.9.9,13-5.3,13-11.4v-14.8c-29.4,10.7-20.2,25.7-13,26.2"/>
      <path class="st2" d="M1118.4,54.6c8.3-3.5,30.7-2.4,30.7,7.8v31.5c0,8.6,8.5,11.6,10.9,5.8.8-.8,2.1-.2,1.4,1.1-1.5,6.1-16.6,7.1-21.8-1.1-28.9,21-47.3-20.4-12.7-21,10.8-1.6,12-7.8,12-12.2,0-10.8-5.7-11.8-9-11.8s-6.5,1.1-8.5,6.6c-3.1,11.2-19.8,1.2-3-6.7M1125.8,103.1c6.9.9,13-5.3,13-11.4v-14.8c-29.4,10.7-20.2,25.7-13,26.2"/>
      <rect class="st0" x="1105.6" y="24.6" width="12" height="24.4"/>
      <rect class="st0" x="1144.2" y="24.6" width="12" height="24.4"/>
      <path class="st0" d="M1129.2,29.7l1.7-3.5,1.7,3.4c.2.4.4.3.7.2l1.5-.7-1,4.7c-.2.9.3,1.2.9.6l2.1-2.2.6,1.3c.2.4.5.3.8.3l2.2-.5-.7,2.7h0c-.1.5-.3.8.1.9l.8.4-4.4,3.7c-.5.5-.3.6-.1,1.1l.4,1.3-4.1-.7c-.5,0-.9,0-.9.3l.2,4.7h-1.2l.2-4.7c0-.5-.3-.5-1.2-.3l-3.8.7.5-1.3c.2-.5.2-.8-.2-1.1l-4.5-3.7.8-.5c.2-.2.3-.4.1-.8l-.8-2.8,2.2.5c.6,0,.8,0,.9-.3l.6-1.2,2.2,2.4c.4.5.9,0,.8-.5l-1-5.1,1.6.9c-.1,0,.2,0,.3-.2h0Z"/>
    </g>
    <g>
      <path d="M1694.5,44.9c-16.4,0-26,9.8-26,25.3s9.5,25.2,25.9,25.2,26-9.8,26-25.3c0-15.5-9.5-25.2-25.9-25.2ZM1694.5,85.5c-9.3,0-14.7-6-14.7-15.5s5.4-15.4,14.7-15.4,14.7,6,14.7,15.5-5.4,15.4-14.7,15.4Z"/>
      <path d="M1751.4,94.5v-21.6c0-5-2.4-7.6-6.4-7.6s-6.6,2.6-6.6,7.6v21.6h-10.6v-37.3h10.6v5.3c2.4-3.1,5.6-6,10.9-6,8,0,12.7,5.3,12.7,13.9v24.1h-10.6Z"/>
      <path d="M1782.4,82.2c0,2.4,1.1,3.6,3.6,3.6s3.9-.5,5.5-1.3v8.5c-2.2,1.3-4.8,2.2-8.4,2.2-6.5,0-10.9-2.6-10.9-11.2v-18.1h-4.5v-8.7h4.5v-9.5h10.1v9.5h9.1v8.7h-9.1v16.3h.1Z"/>
      <path d="M1814.1,56.7c-6.3,0-10.4,1.2-14.5,3l2.5,7.6c3.4-1.3,6.7-2.1,10.7-2.1s8.3,2.5,8.3,6.9v.5c-2.6-.7-5.8-1.1-9.5-1.1-8.8,0-15.1,3.9-15.1,12.3h0c0,7.5,5.8,11.3,12.8,11.3s8.9-1.8,11.6-4.4v3.7h10v-21.7c-.2-10-5.3-16-16.8-16ZM1820.9,81.2c0,3.8-3.4,6.6-8.4,6.6s-5.9-1.7-5.9-4.5h0c0-3.4,2.9-5.3,7.4-5.3s5,.5,6.9,1.2v2Z"/>
      <path d="M1860.7,66c-7,0-11.2,4.2-11.2,13.1v15.4h-10.4v-37.3h10.4v7.5c2.2-5.2,5.4-8.5,11.7-8.2v9.5h-.5Z"/>
      <path d="M1878.3,43.6v9.4h-11.1v-9.4h11.1l-.2.2.2-.2ZM1877.8,57.4l.2-.2h-10.6v37.3h10.6v-37.3l-.2.2Z"/>
      <path d="M1905.4,56.5c-12.7,0-20.2,7.5-20.2,19.5s7.5,19.4,20.2,19.4,20.3-7.5,20.3-19.5c0-12-7.6-19.4-20.3-19.4ZM1905.4,86.3c-6.2,0-9.8-4.1-9.8-10.4s3.4-10.4,9.7-10.4,9.8,4.1,9.8,10.4c.1,6.4-3.4,10.4-9.7,10.4Z"/>
    </g>
    <path d="M1990.7,17.5c-31.7,0-46.7,15-46.7,46.7s15,46.7,46.7,46.7,46.7-15,46.7-46.7-15-46.7-46.7-46.7"/>
    <path class="st1" d="M1990.6,45.2h0c-5.7-3.9-12-5.5-17.7-5.5s-9.5,1.1-13.5,3.1c.8,9.9,6.5,20.4,17.7,25.8-.6,6.9,1.2,13.1,4.1,18.1,2.4,4.2,5.7,7.6,9.5,10.2,8.2-5.6,14.5-15.8,13.5-28.3,6.3-3,10.8-7.6,13.6-12.6,2.4-4.2,3.7-8.8,4.1-13.3-9-4.3-20.9-4.6-31.3,2.5ZM2012.2,52.8c-3,5.3-7.7,9-13,10.9-2.7,1-6.1,1-8.4-1.4-.5,2.9-.2,5.6,1.4,7.2.7.7,1.7,1.2,2.6,1.4,1.1.2,1.9.2,2.9,0,0,7-2.7,13-7.1,17.5-1.4-1.5-2.7-3.1-3.8-5-3-5.2-3.9-11.2-2.9-16.7.5-2.8,2.2-5.8,5.4-6.5-2.3-1.9-4.8-3-7-2.3-.9.3-1.9.9-2.5,1.5-.7.9-1.2,1.5-1.5,2.5-6.1-3.5-9.9-8.8-11.6-14.9,2-.5,4.1-.8,6.2-.8,6.1,0,11.6,2.2,15.9,5.8,2.2,1.8,3.9,4.7,2.9,8,2.8-1,5-2.7,5.5-4.9.2-.9.2-2.1,0-2.9-.4-1.1-.7-1.8-1.4-2.6,6.1-3.5,12.6-4.2,18.7-2.6-.4,1.8-1.2,3.8-2.2,5.7Z"/>
  </g>
  <g>
    <g>
      <path d="M130.5,55.3c-2.5,0-4.7-.4-6.7-1.2-2-.8-3.8-1.9-5.2-3.4-1.5-1.4-2.6-3.2-3.4-5.1-.8-2-1.2-4.2-1.2-6.5h0c0-2.3.4-4.5,1.2-6.4.8-2,2-3.7,3.5-5.2,1.5-1.5,3.2-2.7,5.2-3.5,2-.9,4.2-1.3,6.6-1.3s2.7,0,3.9.3c1.2.2,2.2.5,3.2.8s1.9.8,2.8,1.4c.9.5,1.7,1.2,2.5,1.9l-4.4,5.3c-.6-.5-1.2-1-1.8-1.4s-1.2-.7-1.9-1c-.6-.3-1.3-.5-2.1-.6-.8-.1-1.6-.2-2.5-.2s-2.4.3-3.5.8c-1.1.5-2.1,1.2-2.9,2.1s-1.5,1.9-1.9,3.1c-.5,1.2-.7,2.5-.7,3.8h0c0,1.5.2,2.9.7,4.1.5,1.2,1.1,2.3,2,3.2.9.9,1.9,1.6,3,2.1,1.2.5,2.4.7,3.9.7,2.6,0,4.8-.6,6.5-1.9v-4.5h-7v-6h13.7v13.7c-1.6,1.4-3.6,2.6-5.8,3.5-2.2,1-4.8,1.5-7.7,1.5Z"/>
      <path d="M161.2,55.3c-1.8,0-3.5-.3-5-.9s-2.9-1.5-4-2.6-2-2.4-2.6-3.9c-.6-1.5-.9-3.2-.9-5.1h0c0-1.8.3-3.4.9-5,.6-1.5,1.4-2.9,2.5-4,1.1-1.1,2.3-2,3.8-2.7,1.5-.7,3.1-1,4.9-1s3.8.4,5.2,1.1c1.5.7,2.7,1.7,3.7,2.9s1.7,2.6,2.2,4.2.7,3.2.7,4.9,0,.6,0,.9c0,.3,0,.6,0,.9h-16.8c.3,1.6,1,2.7,2.1,3.5,1,.8,2.3,1.2,3.9,1.2s2.2-.2,3.1-.6c.9-.4,1.8-1,2.8-1.9l3.9,3.5c-1.1,1.4-2.5,2.5-4.2,3.3-1.6.8-3.5,1.2-5.7,1.2ZM165.7,40.8c-.2-1.5-.8-2.8-1.6-3.7-.9-.9-2-1.4-3.5-1.4s-2.6.5-3.5,1.4c-.9.9-1.5,2.2-1.7,3.7h10.3Z"/>
      <path d="M185.5,55.2c-1.1,0-2-.1-2.9-.3-.9-.2-1.6-.6-2.2-1.2-.6-.6-1.1-1.3-1.4-2.2-.3-.9-.5-2.1-.5-3.5v-11.5h-2.9v-5.9h2.9v-6.2h6.9v6.2h5.7v5.9h-5.7v10.4c0,1.6.7,2.4,2.2,2.4s2.3-.3,3.4-.9v5.5c-.7.4-1.5.8-2.4,1-.9.3-1.9.4-3,.4Z"/>
      <path d="M221.3,55.2c-2.4,0-4.8-.4-7.1-1.2-2.3-.8-4.4-2.1-6.3-3.8l4.1-4.9c1.4,1.2,2.9,2.1,4.4,2.8s3.2,1,5,1,2.6-.3,3.4-.8c.8-.5,1.2-1.3,1.2-2.2h0c0-.5,0-.9-.2-1.3-.2-.3-.5-.7-1-1-.5-.3-1.1-.6-1.9-.9-.8-.3-1.9-.6-3.2-.9-1.6-.4-3-.8-4.3-1.3s-2.4-1.1-3.3-1.8c-.9-.7-1.6-1.6-2.1-2.6-.5-1.1-.7-2.4-.7-3.9h0c0-1.5.3-2.8.8-4,.5-1.2,1.3-2.2,2.3-3,1-.8,2.1-1.5,3.5-1.9,1.3-.5,2.8-.7,4.5-.7,2.3,0,4.4.3,6.4,1,1.9.7,3.7,1.7,5.3,3l-3.6,5.2c-1.4-1-2.8-1.7-4.2-2.3-1.4-.6-2.7-.8-4.1-.8s-2.4.3-3,.8c-.7.5-1,1.2-1,2h0c0,.6,0,1,.3,1.4.2.4.6.7,1.1,1,.5.3,1.2.6,2.1.9.9.3,2,.6,3.4.9,1.6.4,3,.9,4.3,1.4,1.3.5,2.3,1.2,3.2,1.9.9.7,1.5,1.6,1.9,2.6.4,1,.7,2.2.7,3.6h0c0,1.7-.3,3-.9,4.3s-1.4,2.2-2.4,3.1c-1,.8-2.2,1.5-3.6,1.9-1.4.4-3,.7-4.7.7Z"/>
      <path d="M238.8,23.2h23.8v6.2h-16.9v6.4h14.9v6.2h-14.9v6.6h17.2v6.2h-24v-31.6Z"/>
      <path d="M276.2,29.6h-9.6v-6.4h26.2v6.4h-9.6v25.2h-7v-25.2Z"/>
      <path d="M125.5,74c-5.6,0-8.1,2.3-8.1,6s2.8,4.8,8.9,6.1c6.8,1.4,11.1,3.2,11.1,9s-4.8,8.7-11.6,8.7-9.3-1.6-12.9-4.6l1.6-2.6c2.3,2.4,6.5,4.4,11.4,4.4s8.1-1.9,8.1-5.6-3.3-5.2-9.7-6.6c-6.7-1.5-10.2-3.2-10.2-8.3s4.7-9.2,11.4-9.2,7.6,1.4,10.2,3.7l-1.5,2.5c-1.8-2-4.9-3.4-8.8-3.4Z"/>
      <path d="M150.2,91.5l-5,4.7v7.4h-3.1v-32.9h3.1v22.3l13.3-12.8h3.4l-9.6,9.6,10,13.9h-3.3l-8.7-12Z"/>
      <path d="M165.9,70.6h3.1v4.5h-3.1v-4.5ZM165.9,80h3.1v23.5h-3.1v-23.5Z"/>
      <path d="M178.8,70.6v27.6c0,2.3.9,2.8,2.2,2.8s2.3-.3,3-.5l.5,2.5c-1.1.5-3,.8-4.2.8-2.8,0-4.6-1.7-4.6-4.6v-28.7h3.1Z"/>
      <path d="M190.9,70.6v27.6c0,2.3.9,2.8,2.2,2.8s2.3-.3,3-.5l.5,2.5c-1.1.5-3,.8-4.2.8-2.8,0-4.6-1.7-4.6-4.6v-28.7h3.1Z"/>
      <path d="M197.9,100.1l1.3-2.2c2.6,2.5,5.3,3.5,8.3,3.5s6.2-1.5,6.2-4.3-2.6-3.2-6.9-4.4c-4.9-1.4-7.4-2.6-7.4-6.3s3.8-6.9,8.8-6.9,6.5,1.2,8.2,3.2l-1.5,2.1c-1.6-1.9-4.1-2.8-6.9-2.8s-5.7,1-5.7,4.1,1.9,3.1,5.6,4.2c5.4,1.4,8.8,2.4,8.8,6.7s-3.6,7-9,7-7.2-1.3-9.7-3.8Z"/>
      <path d="M222.8,103.4h-1v-4.3h3v4.3l-1.1,3.8h-1.6l.8-3.8Z"/>
      <path d="M265.1,103.5h-21.5v-32h21.1v2.8h-18v11.6h15.7v2.7h-15.7v12.2h18.4v2.8Z"/>
      <path d="M279.5,79.6c3.9,0,7.1,2.4,8.9,5.3v-14.4h3.1v29.2c0,.9.3,1.2,1.1,1.3v2.4c-.6,0-1,.1-1.4,0-1.3,0-2.4-1.2-2.4-2.3v-2.3c-1.9,3.1-5.3,5-8.8,5-6.5,0-11.2-5.8-11.2-12.1s4.5-12.2,10.7-12.2ZM288.3,88.2c-1.2-3.2-4.9-5.9-8.1-5.9-5.1,0-8.3,4.7-8.3,9.5s3.8,9.4,8.8,9.4,7.2-2.6,7.7-5.8v-7.3Z"/>
      <path d="M298,80h3.1v13.3c0,5.4,1.8,8,5.5,8s7.1-2.5,8.5-6.5v-14.8h3.1v19.8c0,.9.3,1.2,1.1,1.3v2.4c-.7,0-1,0-1.4,0-1.3,0-2.2-1-2.3-2.3v-3.2c-2.1,3.7-5.9,5.8-10,5.8s-7.5-3.5-7.5-10.2v-13.8Z"/>
      <path d="M323.3,91.7c0-6.7,4.8-12.1,11.8-12.1s7.9,2.2,9.6,5.6l-3,.9c-1.3-2.4-3.8-3.8-6.7-3.8-4.8,0-8.5,4-8.5,9.4s3.9,9.6,8.6,9.6,6.1-1.9,6.9-4l3,.9c-1.3,3.4-5.2,5.8-9.7,5.8-6.9,0-11.8-5.6-11.8-12.3Z"/>
      <path d="M357.6,89.6c2.3,0,4.9.4,6.9,1.1v-2c0-4-2.5-6.5-6.6-6.5s-4.9.9-7.5,2.8l-1.2-2.2c3-2.1,6-3.2,9-3.2,5.8,0,9.4,3.5,9.4,9.3v10.9c0,.9.4,1.2,1.1,1.3v2.4c-.7,0-1.1.1-1.4,0-1.5,0-2.3-1.2-2.3-2.2v-1.7c-2.2,2.7-5.8,4.2-9.3,4.2s-7.9-3.2-7.9-7.2,4.1-7.2,9.9-7.2ZM364.4,96.3v-3.4c-2-.8-4.3-1.2-6.5-1.2-4.4,0-7.4,1.9-7.4,4.9s2.1,5.1,5.7,5.1,5.7-1.3,7.1-3.1c.7-.8,1-1.7,1-2.3Z"/>
      <path d="M380,103.8c-2.7,0-5-1.5-5-4.5v-16.8h-3.2v-2.4h3.2v-7.9h3.1v7.9h5.4v2.4h-5.4v16c.1,1.7,1.4,2.5,2.8,2.5s3.2-.8,3.6-1l.8,2.5c-.7.3-2.8,1.4-5.3,1.4Z"/>
      <path d="M389,70.6h3.1v4.5h-3.1v-4.5ZM389,80h3.1v23.5h-3.1v-23.5Z"/>
      <path d="M408.7,79.6c6.8,0,11.7,5.6,11.7,12.2s-4.9,12.1-11.7,12.1-11.6-5.6-11.6-12.1,4.9-12.2,11.6-12.2ZM417.3,91.8c0-5.2-3.9-9.5-8.6-9.5s-8.5,4.3-8.5,9.6,3.8,9.4,8.5,9.4,8.6-4.2,8.6-9.5Z"/>
      <path d="M442.1,103.5v-13.1c0-5.6-1.6-8-5.1-8s-7.4,2.8-8.6,6.7v14.4h-3.1v-23.5h2.8v5.3c1.9-3.4,5.8-5.7,10-5.7s7,4,7,10.2v13.8h-3.1Z"/>
      <path d="M471,89.6c2.3,0,4.9.4,6.9,1.1v-2c0-4-2.5-6.5-6.6-6.5s-4.9.9-7.5,2.8l-1.2-2.2c3-2.1,6-3.2,9-3.2,5.8,0,9.4,3.5,9.4,9.3v10.9c0,.9.4,1.2,1.1,1.3v2.4c-.7,0-1.1.1-1.4,0-1.5,0-2.3-1.2-2.3-2.2v-1.7c-2.2,2.7-5.8,4.2-9.3,4.2s-7.9-3.2-7.9-7.2,4.1-7.2,9.9-7.2ZM477.9,96.3v-3.4c-2-.8-4.3-1.2-6.5-1.2-4.4,0-7.4,1.9-7.4,4.9s2.1,5.1,5.7,5.1,5.7-1.3,7.1-3.1c.7-.8,1-1.7,1-2.3Z"/>
      <path d="M504.1,103.5v-13.1c0-5.6-1.6-8-5.1-8s-7.4,2.8-8.6,6.7v14.4h-3.1v-23.5h2.8v5.3c1.9-3.4,5.8-5.7,10-5.7s7,4,7,10.2v13.8h-3.1Z"/>
      <path d="M522.8,79.6c3.9,0,7.1,2.4,8.9,5.3v-14.4h3.1v29.2c0,.9.3,1.2,1.1,1.3v2.4c-.6,0-1,.1-1.4,0-1.3,0-2.4-1.2-2.4-2.3v-2.3c-1.9,3.1-5.3,5-8.8,5-6.5,0-11.2-5.8-11.2-12.1s4.5-12.2,10.7-12.2ZM531.7,88.2c-1.2-3.2-4.9-5.9-8.1-5.9-5.1,0-8.3,4.7-8.3,9.5s3.8,9.4,8.8,9.4,7.2-2.6,7.7-5.8v-7.3Z"/>
      <path d="M564.9,74.3v29.2h-3.2v-29.2h-11.4v-2.8h26v2.8h-11.4Z"/>
      <path d="M583.4,88.9v14.6h-3.1v-23.5h2.9v5.6c1.6-3.3,4.5-5.5,7.5-5.7.6,0,1,0,1.4,0v2.8c-4.1.1-7.4,2.4-8.7,6.2Z"/>
      <path d="M604.1,89.6c2.3,0,4.9.4,6.9,1.1v-2c0-4-2.5-6.5-6.6-6.5s-4.9.9-7.5,2.8l-1.2-2.2c3-2.1,6-3.2,9-3.2,5.8,0,9.4,3.5,9.4,9.3v10.9c0,.9.4,1.2,1.1,1.3v2.4c-.7,0-1.1.1-1.4,0-1.5,0-2.3-1.2-2.3-2.2v-1.7c-2.2,2.7-5.8,4.2-9.3,4.2s-7.9-3.2-7.9-7.2,4.1-7.2,9.9-7.2ZM610.9,96.3v-3.4c-2-.8-4.3-1.2-6.5-1.2-4.4,0-7.4,1.9-7.4,4.9s2.1,5.1,5.7,5.1,5.7-1.3,7.1-3.1c.7-.8,1-1.7,1-2.3Z"/>
      <path d="M620.5,70.6h3.1v4.5h-3.1v-4.5ZM620.5,80h3.1v23.5h-3.1v-23.5Z"/>
      <path d="M646.9,103.5v-13.1c0-5.6-1.6-8-5.1-8s-7.4,2.8-8.6,6.7v14.4h-3.1v-23.5h2.8v5.3c1.9-3.4,5.8-5.7,10-5.7s7,4,7,10.2v13.8h-3.1Z"/>
      <path d="M656.4,70.6h3.1v4.5h-3.1v-4.5ZM656.4,80h3.1v23.5h-3.1v-23.5Z"/>
      <path d="M682.8,103.5v-13.1c0-5.6-1.6-8-5.1-8s-7.4,2.8-8.6,6.7v14.4h-3.1v-23.5h2.8v5.3c1.9-3.4,5.8-5.7,10-5.7s7,4,7,10.2v13.8h-3.1Z"/>
      <path d="M701.6,79.6c4,0,7,2.3,9,5.3v-4.9h2.8v23.6c0,6.5-5.2,10-11.5,10s-8.5-2.1-10.6-5.3l1.9-1.5c1.9,3,5.1,4.4,8.7,4.4s8.4-2.5,8.4-7.5v-4.6c-1.8,3-5.2,4.9-8.6,4.9-6.5,0-11-5.8-11-12s4.5-12.2,10.9-12.2ZM710.3,88.2c-1.3-3.4-4.7-5.9-8.1-5.9-5.2,0-8.4,4.9-8.4,9.6s3.9,9.4,8.8,9.4,7.2-2.9,7.8-5.8v-7.3Z"/>
    </g>
    <path class="st4" d="M44.6,18.5C14.3,18.5,0,32.8,0,63.1s14.3,44.6,44.6,44.6,44.6-14.3,44.6-44.6-14.3-44.6-44.6-44.6"/>
    <path class="st1" d="M44.6,44.9h0c-5.4-3.8-11.4-5.3-16.9-5.3s-9,1.1-12.9,3c.7,9.5,6.2,19.5,16.9,24.7-.5,6.6,1.2,12.6,3.9,17.3,2.3,4,5.5,7.3,9,9.7,7.8-5.4,13.8-15.1,12.9-27,6-2.8,10.3-7.3,13-12,2.3-4,3.6-8.4,3.9-12.7-8.6-4.1-20-4.4-29.8,2.3ZM65.1,52.2c-2.9,5-7.4,8.6-12.4,10.4-2.6.9-5.8,1-8-1.4-.5,2.8-.2,5.4,1.4,6.9.6.6,1.6,1.2,2.5,1.3,1.1.2,1.8.2,2.8,0,0,6.7-2.6,12.5-6.8,16.8-1.4-1.4-2.6-3-3.6-4.7-2.9-5-3.7-10.7-2.8-15.9.5-2.7,2.1-5.5,5.2-6.2-2.2-1.8-4.6-2.8-6.6-2.2-.9.2-1.8.8-2.4,1.5-.7.8-1.1,1.5-1.5,2.4-5.8-3.3-9.5-8.5-11.1-14.2,1.9-.5,3.9-.8,5.9-.8,5.8,0,11.1,2.1,15.2,5.6,2.1,1.8,3.7,4.5,2.8,7.6,2.6-1,4.7-2.6,5.3-4.6.2-.9.2-2,0-2.8-.4-1-.7-1.7-1.3-2.5,5.8-3.4,12.1-4,17.9-2.5-.5,1.9-1.3,3.8-2.3,5.5Z"/>
  </g>
</svg>