<?xml version="1.0" encoding="UTF-8"?>
<svg id="Layer_1" xmlns="http://www.w3.org/2000/svg" version="1.1" viewBox="0 0 2064 128">
  <!-- Generator: Adobe Illustrator 30.5.1, SVG Export Plug-In . SVG Version: 2.1.4 Build 3)  -->
  <defs>
    <style>
      .st0 {
        fill: #ee3e42;
      }

      .st1 {
        fill: #fff;
      }

      .st2 {
        fill: #231f20;
      }

      .st3 {
        fill: #8e113d;
      }

      .st4 {
        fill: #fcaf17;
      }
    </style>
  </defs>
  <g>
    <g>
      <polygon class="st3" points="1281.7 0 1281.7 128 1601.5 128 1601.5 0 1281.7 0"/>
      <g>
        <polygon class="st1" points="1306.5 53.2 1306.5 24.4 1322.5 24.4 1322.5 30.8 1313.8 30.8 1313.8 35.5 1322.1 35.5 1322.1 41.9 1313.8 41.9 1313.8 46.8 1322.5 46.8 1322.5 53.2 1306.5 53.2"/>
        <polygon class="st1" points="1354 53.2 1351.9 36.6 1345.1 53.2 1342.2 53.2 1335.7 36.6 1333.3 53.2 1326 53.2 1330.8 24.4 1338 24.4 1343.7 39.8 1349.7 24.4 1357 24.4 1361.2 53.2 1354 53.2"/>
        <path class="st1" d="M1377.6,43.6h-4.6v9.5h-7.3v-28.7h11.7c2.7,0,4.9.4,7,2.4,2,1.9,2.7,4.4,2.7,7.2,0,6.2-3.4,9.6-9.5,9.6h0ZM1375.5,30.4h-2.5v7.2h2.4c2.4,0,4-.9,4-3.5s-1.5-3.7-3.9-3.7h0Z"/>
        <polygon class="st1" points="1390.7 53.2 1390.7 24.4 1398 24.4 1398 46.8 1406.8 46.8 1406.8 53.2 1390.7 53.2"/>
        <path class="st1" d="M1424,54.2c-8.6,0-15.6-6.3-15.6-15.3s6.9-15.3,15.6-15.3,15.6,6.3,15.6,15.3-6.9,15.3-15.6,15.3h0ZM1424,30.8c-4.4,0-7.9,3.6-7.9,8.1s3.6,8.1,7.9,8.1,7.9-3.6,7.9-8.1-3.5-8.1-7.9-8.1h0Z"/>
        <polygon class="st1" points="1456 39.4 1456 53.2 1448.7 53.2 1448.7 39.4 1438.5 24.4 1447.2 24.4 1452.6 32.3 1457.7 24.4 1466.5 24.4 1456 39.4"/>
        <polygon class="st1" points="1494 53.2 1491.9 36.6 1485.1 53.2 1482.2 53.2 1475.7 36.6 1473.3 53.2 1466.1 53.2 1470.8 24.4 1478 24.4 1483.7 39.8 1489.8 24.4 1497.1 24.4 1501.3 53.2 1494 53.2"/>
        <polygon class="st1" points="1505.8 53.2 1505.8 24.4 1521.7 24.4 1521.7 30.8 1513.1 30.8 1513.1 35.5 1521.3 35.5 1521.3 41.9 1513.1 41.9 1513.1 46.8 1521.7 46.8 1521.7 53.2 1505.8 53.2"/>
        <polygon class="st1" points="1547.7 53.2 1534.3 35.6 1534.3 53.2 1527 53.2 1527 24.4 1534.3 24.4 1547.7 42 1547.7 24.4 1555 24.4 1555 53.2 1547.7 53.2"/>
        <polygon class="st1" points="1571.2 30.8 1571.2 53.2 1563.9 53.2 1563.9 30.8 1558 30.8 1558 24.4 1577.3 24.4 1577.3 30.8 1571.2 30.8"/>
        <path class="st1" d="M1329.2,105.1c-13,0-23.3-9.4-23.3-22.9s10.4-23,23.3-23,23.4,9.5,23.4,23-10.4,22.9-23.4,22.9h0ZM1329.2,70c-6.6,0-11.9,5.4-11.9,12.2s5.4,12.1,11.9,12.1,11.9-5.4,11.9-12.1-5.3-12.2-11.9-12.2h0Z"/>
        <polygon class="st1" points="1389.4 103.6 1369.2 77.2 1369.2 103.6 1358.3 103.6 1358.3 60.5 1369.2 60.5 1389.4 86.8 1389.4 60.5 1400.4 60.5 1400.4 103.6 1389.4 103.6"/>
        <polygon class="st1" points="1424.3 70 1424.3 103.6 1413.4 103.6 1413.4 70 1404.5 70 1404.5 60.5 1433.4 60.5 1433.4 70 1424.3 70"/>
        <path class="st1" d="M1460.3,103.6l-2.7-7.5h-15.2l-2.9,7.5h-11.6l16.2-43.1h12l15.9,43.1h-11.7ZM1450,73.9l-4.6,13.7h9.1l-4.5-13.7h0Z"/>
        <path class="st1" d="M1497.5,103.6l-10.5-16.5v16.5h-10.9v-43.1h17.1c4,0,7.5.8,10.3,3.8,2.4,2.5,3.6,6.1,3.6,9.6s-.8,5.8-2.4,8c-1.7,2.4-4,3.5-6.8,4.1l13.2,17.6h-13.6,0ZM1489.1,69.1h-2.1v10.7h2.1c3.4,0,6.7-1.4,6.7-5.4s-3.3-5.3-6.7-5.3h0Z"/>
        <polygon class="st1" points="1515.1 103.6 1515.1 60.5 1526.1 60.5 1526.1 103.6 1515.1 103.6"/>
        <path class="st1" d="M1553.8,105.1c-13,0-23.4-9.4-23.4-22.9s10.4-23,23.4-23,23.3,9.5,23.3,23-10.3,22.9-23.3,22.9h0ZM1553.8,70c-6.6,0-11.9,5.4-11.9,12.2s5.4,12.1,11.9,12.1,11.9-5.4,11.9-12.1-5.3-12.2-11.9-12.2h0Z"/>
      </g>
    </g>
    <g>
      <path class="st2" d="M903.7,50.2l-1.7-27.2c-.2-.7-1.3-.7-1.3,0,0,5.9-10.5.9-14.2,0-32.1-7.3-53.7,18.4-53.7,39.7s18.3,42.7,41.8,42.7,28.2-12,31.3-24.9c.4-1.6-1.4-1.3-1.9,0-5.6,18.1-19.6,22.6-26.6,22.5-15.1-.2-29.2-12.4-29.7-40.3-.7-35.5,39.5-58.8,54.7-13.1.3,1,1,1.2,1.3.5"/>
      <path class="st2" d="M916.7,54.5c8.3-3.5,30.7-2.4,30.7,7.8v31.5c0,8.6,8.5,11.6,10.9,5.8.8-.8,2.1-.2,1.4,1.1-1.5,6.1-16.6,7.1-21.8-1.1-28.9,21-47.3-20.4-12.7-21,10.8-1.6,12-7.8,12-12.2,0-10.8-5.7-11.8-9-11.8s-6.5,1.1-8.5,6.6c-3.1,11.2-19.7,1.3-3-6.7M924.1,103c6.9.9,13-5.3,13-11.4v-14.8c-29.3,10.8-20.1,25.8-13,26.2"/>
      <path class="st2" d="M975,53.5l-14.1,1.8c-.9.2-.9.7.8,1.1,3.1,0,5,2.2,5,6.6v32.8c0,3.9-5.5,7.4-6.6,7.8-2.6,1.1,1.3.9,1.3.9h23c.8,0,3.2.2,0-1.2-3.5-1.3-7.3-4.1-7.3-7.5v-24.6c0-10.3,6.8-16,13.4-16s12.8,1.5,12.8,15.9v24.7c0,3.6-4.7,6.9-7.2,7.7-1.6.4-2.3,1-.9,1h24.5c1.3,0,1.9-.3.7-.7-5.9-2.3-6.6-6.6-6.6-8.1v-28.8c0-16.4-15.8-14.3-21.4-14.3s-14.4,4.5-15.1,6.4c-.3-5.1-1-5.7-2.4-5.5"/>
      <path class="st2" d="M1114.8,100.5c-2.4,4.1-8.3,5.1-15.6,5.1-13.8,0-25.2-10.7-25.2-25.3s7.3-27.6,25.9-27.6,16.7,11.2,16.7,1.9v-16.4c0-8.5-3.4-11-6-11.8-3.8-1.3-8.7-1.5-.9-1.5l14.6-.3c-.9.2,1,.2,1,1.5v64.3c0,4.5,1.6,11.3,8.8,13.3.7,0,1.4.5.7.8l-15.9,1.7c-2.3.2-3.3-.9-4.2-5.3M1100.6,103c8.7,0,14.5-3.4,14.5-23.6s-5.8-24-14.5-24-15.7,11.2-15.7,24.2,7,23.4,15.7,23.4"/>
      <path class="st2" d="M1031.8,54.5c8.3-3.5,30.7-2.4,30.7,7.8v31.5c0,8.6,8.5,11.5,10.9,5.8.8-.8,2.1-.2,1.4,1.1-1.5,6.1-16.6,7.1-21.8-1.1-28.9,21-47.3-20.4-12.7-21,10.8-1.6,12-7.8,12-12.2,0-10.8-5.7-11.8-9-11.8s-6.5,1.1-8.5,6.6c-3.1,11.1-19.8,1.2-3-6.7M1039.2,103c6.9.9,13-5.3,13-11.4v-14.8c-29.4,10.7-20.2,25.7-13,26.2"/>
      <path class="st2" d="M1145,54.6c8.3-3.5,30.7-2.4,30.7,7.8v31.5c0,8.6,8.5,11.6,10.9,5.8.8-.8,2.1-.2,1.4,1.1-1.5,6.1-16.6,7.1-21.8-1.1-28.9,21-47.3-20.4-12.7-21,10.8-1.6,12-7.8,12-12.2,0-10.8-5.7-11.8-9-11.8s-6.5,1.1-8.5,6.6c-3.1,11.2-19.8,1.2-3-6.7M1152.4,103.1c6.9.9,13-5.3,13-11.4v-14.8c-29.4,10.7-20.2,25.7-13,26.2"/>
      <rect class="st0" x="1132.2" y="24.6" width="12" height="24.4"/>
      <rect class="st0" x="1170.8" y="24.6" width="12" height="24.4"/>
      <path class="st0" d="M1155.8,29.7l1.7-3.5,1.7,3.4c.2.4.4.3.7.2l1.5-.7-1,4.7c-.2.9.3,1.2.9.6l2.1-2.2.6,1.3c.2.4.5.3.8.3l2.2-.5-.7,2.7h0c0,.5-.3.8,0,.9l.8.4-4.4,3.7c-.5.5-.3.6,0,1.1l.4,1.3-4.1-.7c-.5,0-.9,0-.9.3l.2,4.7h-1.2l.2-4.7c0-.5-.3-.5-1.2-.3l-3.8.7.5-1.3c.2-.5.2-.8-.2-1.1l-4.5-3.7.8-.5c.2-.2.3-.4,0-.8l-.8-2.8,2.2.5c.6,0,.8,0,.9-.3l.6-1.2,2.2,2.4c.4.5.9,0,.8-.5l-1-5.1,1.6.9c0,0,.2,0,.3-.2h0Z"/>
    </g>
    <g>
      <path d="M1721.1,44.9c-16.4,0-26,9.8-26,25.3s9.5,25.2,25.9,25.2,26-9.8,26-25.3-9.5-25.2-25.9-25.2h0ZM1721.1,85.5c-9.3,0-14.7-6-14.7-15.5s5.4-15.4,14.7-15.4,14.7,6,14.7,15.5-5.4,15.4-14.7,15.4Z"/>
      <path d="M1778,94.5v-21.6c0-5-2.4-7.6-6.4-7.6s-6.6,2.6-6.6,7.6v21.6h-10.6v-37.3h10.6v5.3c2.4-3.1,5.6-6,10.9-6,8,0,12.7,5.3,12.7,13.9v24.1h-10.6Z"/>
      <path d="M1809,82.2c0,2.4,1.1,3.6,3.6,3.6s3.9-.5,5.5-1.3v8.5c-2.2,1.3-4.8,2.2-8.4,2.2-6.5,0-10.9-2.6-10.9-11.2v-18.1h-4.5v-8.7h4.5v-9.5h10.1v9.5h9.1v8.7h-9.1v16.3h.1Z"/>
      <path d="M1840.7,56.7c-6.3,0-10.4,1.2-14.5,3l2.5,7.6c3.4-1.3,6.7-2.1,10.7-2.1s8.3,2.5,8.3,6.9v.5c-2.6-.7-5.8-1.1-9.5-1.1-8.8,0-15.1,3.9-15.1,12.3h0c0,7.5,5.8,11.3,12.8,11.3s8.9-1.8,11.6-4.4v3.7h10v-21.7c-.2-10-5.3-16-16.8-16h0ZM1847.5,81.2c0,3.8-3.4,6.6-8.4,6.6s-5.9-1.7-5.9-4.5h0c0-3.4,2.9-5.3,7.4-5.3s5,.5,6.9,1.2v2Z"/>
      <path d="M1887.3,66c-7,0-11.2,4.2-11.2,13.1v15.4h-10.4v-37.3h10.4v7.5c2.2-5.2,5.4-8.5,11.7-8.2v9.5h-.5Z"/>
      <path d="M1904.9,43.6v9.4h-11.1v-9.4h11.1l-.2.2.2-.2ZM1904.4,57.4l.2-.2h-10.6v37.3h10.6v-37.3l-.2.2Z"/>
      <path d="M1932,56.5c-12.7,0-20.2,7.5-20.2,19.5s7.5,19.4,20.2,19.4,20.3-7.5,20.3-19.5-7.6-19.4-20.3-19.4ZM1932,86.3c-6.2,0-9.8-4.1-9.8-10.4s3.4-10.4,9.7-10.4,9.8,4.1,9.8,10.4c0,6.4-3.4,10.4-9.7,10.4Z"/>
    </g>
    <path d="M2017.3,17.5c-31.7,0-46.7,15-46.7,46.7s15,46.7,46.7,46.7,46.7-15,46.7-46.7-15-46.7-46.7-46.7"/>
    <path class="st1" d="M2017.2,45.2h0c-5.7-3.9-12-5.5-17.7-5.5s-9.5,1.1-13.5,3.1c.8,9.9,6.5,20.4,17.7,25.8-.6,6.9,1.2,13.1,4.1,18.1,2.4,4.2,5.7,7.6,9.5,10.2,8.2-5.6,14.5-15.8,13.5-28.3,6.3-3,10.8-7.6,13.6-12.6,2.4-4.2,3.7-8.8,4.1-13.3-9-4.3-20.9-4.6-31.3,2.5h0ZM2038.8,52.8c-3,5.3-7.7,9-13,10.9-2.7,1-6.1,1-8.4-1.4-.5,2.9-.2,5.6,1.4,7.2.7.7,1.7,1.2,2.6,1.4,1.1.2,1.9.2,2.9,0,0,7-2.7,13-7.1,17.5-1.4-1.5-2.7-3.1-3.8-5-3-5.2-3.9-11.2-2.9-16.7.5-2.8,2.2-5.8,5.4-6.5-2.3-1.9-4.8-3-7-2.3-.9.3-1.9.9-2.5,1.5-.7.9-1.2,1.5-1.5,2.5-6.1-3.5-9.9-8.8-11.6-14.9,2-.5,4.1-.8,6.2-.8,6.1,0,11.6,2.2,15.9,5.8,2.2,1.8,3.9,4.7,2.9,8,2.8-1,5-2.7,5.5-4.9.2-.9.2-2.1,0-2.9-.4-1.1-.7-1.8-1.4-2.6,6.1-3.5,12.6-4.2,18.7-2.6-.4,1.8-1.2,3.8-2.2,5.7h0Z"/>
  </g>
  <g>
    <g>
      <path d="M139.6,46.9c-2.7,0-5-.4-7.2-1.3s-4.1-2-5.6-3.6c-1.6-1.5-2.8-3.4-3.6-5.5-.9-2.1-1.3-4.5-1.3-7h0c0-2.5.4-4.8,1.3-6.8.9-2.1,2.1-4,3.7-5.6s3.4-2.9,5.6-3.7c2.1-1,4.5-1.4,7.1-1.4s2.9,0,4.2.3c1.3.2,2.4.5,3.4.9s2,.9,3,1.5c1,.5,1.8,1.3,2.7,2l-4.7,5.7c-.6-.5-1.3-1.1-1.9-1.5s-1.3-.7-2-1.1c-.6-.3-1.4-.5-2.2-.6s-1.7-.2-2.7-.2-2.6.3-3.7.9-2.2,1.3-3.1,2.2-1.6,2-2,3.3c-.5,1.3-.7,2.7-.7,4.1h0c0,1.6.2,3.1.7,4.4.5,1.3,1.2,2.5,2.1,3.4s2,1.7,3.2,2.2c1.3.5,2.6.7,4.2.7,2.8,0,5.1-.6,7-2v-4.8h-7.5v-6.4h14.7v14.7c-1.7,1.5-3.9,2.8-6.2,3.7-2.4,1.1-5.1,1.6-8.2,1.6h0Z"/>
      <path d="M172.4,46.9c-1.9,0-3.7-.3-5.3-1s-3.1-1.6-4.3-2.8-2.1-2.6-2.8-4.2-1-3.4-1-5.5h0c0-1.9.3-3.6,1-5.3.6-1.6,1.5-3.1,2.7-4.3s2.5-2.1,4.1-2.9,3.3-1.1,5.2-1.1,4.1.4,5.6,1.2c1.6.7,2.9,1.8,4,3.1s1.8,2.8,2.4,4.5.7,3.4.7,5.2,0,.6,0,1v1h-18c.3,1.7,1.1,2.9,2.2,3.7,1.1.9,2.5,1.3,4.2,1.3s2.4-.2,3.3-.6c1-.4,1.9-1.1,3-2l4.2,3.7c-1.2,1.5-2.7,2.7-4.5,3.5-1.7.9-3.7,1.3-6.1,1.3h-.5ZM177.2,31.3c-.2-1.6-.9-3-1.7-4-1-1-2.1-1.5-3.7-1.5s-2.8.5-3.7,1.5-1.6,2.4-1.8,4h11Z"/>
      <path d="M198.4,46.7c-1.2,0-2.1-.1-3.1-.3s-1.7-.6-2.4-1.3c-.6-.6-1.2-1.4-1.5-2.4-.3-1-.5-2.2-.5-3.7v-12.3h-3.1v-6.3h3.1v-6.6h7.4v6.6h6.1v6.3h-6.1v11.1c0,1.7.7,2.6,2.4,2.6s2.5-.3,3.6-1v5.9c-.7.4-1.6.9-2.6,1.1-1,.3-2,.4-3.2.4h-.1Z"/>
      <path d="M236.7,46.7c-2.6,0-5.1-.4-7.6-1.3s-4.7-2.2-6.7-4.1l4.4-5.2c1.5,1.3,3.1,2.2,4.7,3s3.4,1.1,5.3,1.1,2.8-.3,3.6-.9c.9-.5,1.3-1.4,1.3-2.4h0c0-.5,0-1-.2-1.4-.2-.3-.5-.7-1.1-1.1s-1.2-.6-2-1c-.9-.3-2-.6-3.4-1-1.7-.4-3.2-.9-4.6-1.4s-2.6-1.2-3.5-1.9c-1-.7-1.7-1.7-2.2-2.8-.5-1.2-.7-2.6-.7-4.2h0c0-1.6.3-3,.9-4.3s1.4-2.4,2.5-3.2,2.2-1.6,3.7-2c1.4-.5,3-.7,4.8-.7s4.7.3,6.8,1.1c2,.7,4,1.8,5.7,3.2l-3.9,5.6c-1.5-1.1-3-1.8-4.5-2.5-1.5-.6-2.9-.9-4.4-.9s-2.6.3-3.2.9c-.7.5-1.1,1.3-1.1,2.1h0c0,.6,0,1.1.3,1.5.2.4.6.7,1.2,1.1s1.3.6,2.2,1c1,.3,2.1.6,3.6,1,1.7.4,3.2,1,4.6,1.5s2.5,1.3,3.4,2,1.6,1.7,2,2.8.7,2.4.7,3.9h0c0,1.8-.3,3.2-1,4.6s-1.5,2.4-2.6,3.3c-1.1.9-2.4,1.6-3.9,2-1.5.4-3.2.7-5,.7l-.3-.2Z"/>
      <path d="M255.4,12.5h25.5v6.6h-18.1v6.8h15.9v6.6h-15.9v7.1h18.4v6.6h-25.7V12.5h-.1Z"/>
      <path d="M295.4,19.4h-10.3v-6.8h28v6.8h-10.3v27h-7.5v-27Z"/>
      <path d="M134.2,66.9c-6,0-8.7,2.5-8.7,6.4s3,5.1,9.5,6.5c7.3,1.5,11.9,3.4,11.9,9.6s-5.1,9.3-12.4,9.3-9.9-1.7-13.8-4.9l1.7-2.8c2.5,2.6,7,4.7,12.2,4.7s8.7-2,8.7-6-3.5-5.6-10.4-7.1c-7.2-1.6-10.9-3.4-10.9-8.9s5-9.8,12.2-9.8,8.1,1.5,10.9,4l-1.6,2.7c-1.9-2.1-5.2-3.6-9.4-3.6h.1Z"/>
      <path d="M160.6,85.6l-5.3,5v7.9h-3.3v-35.2h3.3v23.8l14.2-13.7h3.6l-10.3,10.3,10.7,14.9h-3.5l-9.3-12.8v-.2Z"/>
      <path d="M177.4,63.2h3.3v4.8h-3.3v-4.8ZM177.4,73.3h3.3v25.1h-3.3v-25.1Z"/>
      <path d="M191.2,63.2v29.5c0,2.5,1,3,2.4,3s2.5-.3,3.2-.5l.5,2.7c-1.2.5-3.2.9-4.5.9-3,0-4.9-1.8-4.9-4.9v-30.7h3.3Z"/>
      <path d="M204.2,63.2v29.5c0,2.5,1,3,2.4,3s2.5-.3,3.2-.5l.5,2.7c-1.2.5-3.2.9-4.5.9-3,0-4.9-1.8-4.9-4.9v-30.7h3.3Z"/>
      <path d="M211.6,94.8l1.4-2.4c2.8,2.7,5.7,3.7,8.9,3.7s6.6-1.6,6.6-4.6-2.8-3.4-7.4-4.7c-5.2-1.5-7.9-2.8-7.9-6.7s4.1-7.4,9.4-7.4,7,1.3,8.8,3.4l-1.6,2.2c-1.7-2-4.4-3-7.4-3s-6.1,1.1-6.1,4.4,2,3.3,6,4.5c5.8,1.5,9.4,2.6,9.4,7.2s-3.9,7.5-9.6,7.5-7.7-1.4-10.4-4.1h-.1Z"/>
      <path d="M238.3,98.3h-1.1v-4.6h3.2v4.6l-1.2,4.1h-1.7l.9-4.1h-.1Z"/>
      <path d="M283.5,98.4h-23v-34.2h22.6v3h-19.3v12.4h16.8v2.9h-16.8v13h19.7v3h0Z"/>
      <path d="M298.9,72.8c4.2,0,7.6,2.6,9.5,5.7v-15.4h3.3v31.2c0,1,.3,1.3,1.2,1.4v2.6c-.6,0-1.1.1-1.5,0-1.4,0-2.6-1.3-2.6-2.5v-2.5c-2,3.3-5.7,5.3-9.4,5.3-7,0-12-6.2-12-12.9s4.8-13,11.4-13h0ZM308.3,82c-1.3-3.4-5.2-6.3-8.7-6.3-5.5,0-8.9,5-8.9,10.2s4.1,10.1,9.4,10.1,7.7-2.8,8.2-6.2v-7.8h-.1Z"/>
      <path d="M318.7,73.3h3.3v14.2c0,5.8,1.9,8.6,5.9,8.6s7.6-2.7,9.1-7v-15.8h3.3v21.2c0,1,.3,1.3,1.2,1.4v2.6h-1.5c-1.4,0-2.4-1.1-2.5-2.5v-3.4c-2.2,4-6.3,6.2-10.7,6.2s-8-3.7-8-10.9v-14.8.2Z"/>
      <path d="M345.8,85.8c0-7.2,5.1-12.9,12.6-12.9s8.4,2.4,10.3,6l-3.2,1c-1.4-2.6-4.1-4.1-7.2-4.1-5.1,0-9.1,4.3-9.1,10.1s4.2,10.3,9.2,10.3,6.5-2,7.4-4.3l3.2,1c-1.4,3.6-5.6,6.2-10.4,6.2-7.4,0-12.6-6-12.6-13.2h-.2Z"/>
      <path d="M382.4,83.5c2.5,0,5.2.4,7.4,1.2v-2.1c0-4.3-2.7-7-7.1-7s-5.2,1-8,3l-1.3-2.4c3.2-2.2,6.4-3.4,9.6-3.4,6.2,0,10.1,3.7,10.1,9.9v11.7c0,1,.4,1.3,1.2,1.4v2.6c-.7,0-1.2.1-1.5,0-1.6,0-2.5-1.3-2.5-2.4v-1.8c-2.4,2.9-6.2,4.5-9.9,4.5s-8.4-3.4-8.4-7.7,4.4-7.7,10.6-7.7v.2ZM389.7,90.7v-3.6c-2.1-.9-4.6-1.3-7-1.3-4.7,0-7.9,2-7.9,5.2s2.2,5.5,6.1,5.5,6.1-1.4,7.6-3.3c.7-.9,1.1-1.8,1.1-2.5h.1Z"/>
      <path d="M406.4,98.7c-2.9,0-5.3-1.6-5.3-4.8v-18h-3.4v-2.6h3.4v-8.4h3.3v8.4h5.8v2.6h-5.8v17.1c.1,1.8,1.5,2.7,3,2.7s3.4-.9,3.9-1.1l.9,2.7c-.7.3-3,1.5-5.7,1.5h0Z"/>
      <path d="M416,63.2h3.3v4.8h-3.3v-4.8ZM416,73.3h3.3v25.1h-3.3v-25.1Z"/>
      <path d="M437.1,72.8c7.3,0,12.5,6,12.5,13s-5.2,12.9-12.5,12.9-12.4-6-12.4-12.9,5.2-13,12.4-13ZM446.3,85.9c0-5.6-4.2-10.2-9.2-10.2s-9.1,4.6-9.1,10.3,4.1,10.1,9.1,10.1,9.2-4.5,9.2-10.2Z"/>
      <path d="M472.8,98.4v-14c0-6-1.7-8.6-5.5-8.6s-7.9,3-9.2,7.2v15.4h-3.3v-25.1h3v5.7c2-3.6,6.2-6.1,10.7-6.1s7.5,4.3,7.5,10.9v14.8h-3.3.1Z"/>
      <path d="M503.7,83.5c2.5,0,5.2.4,7.4,1.2v-2.1c0-4.3-2.7-7-7.1-7s-5.2,1-8,3l-1.3-2.4c3.2-2.2,6.4-3.4,9.6-3.4,6.2,0,10.1,3.7,10.1,9.9v11.7c0,1,.4,1.3,1.2,1.4v2.6c-.7,0-1.2.1-1.5,0-1.6,0-2.5-1.3-2.5-2.4v-1.8c-2.4,2.9-6.2,4.5-9.9,4.5s-8.4-3.4-8.4-7.7,4.4-7.7,10.6-7.7v.2ZM511.1,90.7v-3.6c-2.1-.9-4.6-1.3-7-1.3-4.7,0-7.9,2-7.9,5.2s2.2,5.5,6.1,5.5,6.1-1.4,7.6-3.3c.7-.9,1.1-1.8,1.1-2.5h.1Z"/>
      <path d="M539.1,98.4v-14c0-6-1.7-8.6-5.5-8.6s-7.9,3-9.2,7.2v15.4h-3.3v-25.1h3v5.7c2-3.6,6.2-6.1,10.7-6.1s7.5,4.3,7.5,10.9v14.8h-3.3.1Z"/>
      <path d="M559.1,72.8c4.2,0,7.6,2.6,9.5,5.7v-15.4h3.3v31.2c0,1,.3,1.3,1.2,1.4v2.6c-.6,0-1.1.1-1.5,0-1.4,0-2.6-1.3-2.6-2.5v-2.5c-2,3.3-5.7,5.3-9.4,5.3-7,0-12-6.2-12-12.9s4.8-13,11.4-13h0ZM568.6,82c-1.3-3.4-5.2-6.3-8.7-6.3-5.5,0-8.9,5-8.9,10.2s4.1,10.1,9.4,10.1,7.7-2.8,8.2-6.2v-7.8h-.1Z"/>
      <path d="M604.1,67.2v31.2h-3.4v-31.2h-12.2v-3h27.8v3h-12.2,0Z"/>
      <path d="M623.9,82.8v15.6h-3.3v-25.1h3.1v6c1.7-3.5,4.8-5.9,8-6.1h1.5v3c-4.4.1-7.9,2.6-9.3,6.6h0Z"/>
      <path d="M646.1,83.5c2.5,0,5.2.4,7.4,1.2v-2.1c0-4.3-2.7-7-7.1-7s-5.2,1-8,3l-1.3-2.4c3.2-2.2,6.4-3.4,9.6-3.4,6.2,0,10.1,3.7,10.1,9.9v11.7c0,1,.4,1.3,1.2,1.4v2.6c-.7,0-1.2.1-1.5,0-1.6,0-2.5-1.3-2.5-2.4v-1.8c-2.4,2.9-6.2,4.5-9.9,4.5s-8.4-3.4-8.4-7.7,4.4-7.7,10.6-7.7v.2ZM653.3,90.7v-3.6c-2.1-.9-4.6-1.3-7-1.3-4.7,0-7.9,2-7.9,5.2s2.2,5.5,6.1,5.5,6.1-1.4,7.6-3.3c.7-.9,1.1-1.8,1.1-2.5h.1Z"/>
      <path d="M663.6,63.2h3.3v4.8h-3.3v-4.8ZM663.6,73.3h3.3v25.1h-3.3v-25.1Z"/>
      <path d="M691.8,98.4v-14c0-6-1.7-8.6-5.5-8.6s-7.9,3-9.2,7.2v15.4h-3.3v-25.1h3v5.7c2-3.6,6.2-6.1,10.7-6.1s7.5,4.3,7.5,10.9v14.8h-3.3.1Z"/>
      <path d="M702,63.2h3.3v4.8h-3.3v-4.8ZM702,73.3h3.3v25.1h-3.3v-25.1Z"/>
      <path d="M730.2,98.4v-14c0-6-1.7-8.6-5.5-8.6s-7.9,3-9.2,7.2v15.4h-3.3v-25.1h3v5.7c2-3.6,6.2-6.1,10.7-6.1s7.5,4.3,7.5,10.9v14.8h-3.3.1Z"/>
      <path d="M750.3,72.8c4.3,0,7.5,2.5,9.6,5.7v-5.2h3v25.2c0,7-5.6,10.7-12.3,10.7s-9.1-2.2-11.3-5.7l2-1.6c2,3.2,5.5,4.7,9.3,4.7s9-2.7,9-8v-4.9c-1.9,3.2-5.6,5.2-9.2,5.2-7,0-11.8-6.2-11.8-12.8s4.8-13,11.7-13v-.2ZM759.6,82c-1.4-3.6-5-6.3-8.7-6.3-5.6,0-9,5.2-9,10.3s4.2,10.1,9.4,10.1,7.7-3.1,8.3-6.2v-7.8h-.1Z"/>
    </g>
    <path class="st4" d="M47.7,7.5C15.3,7.5,0,22.8,0,55.2s15.3,47.7,47.7,47.7,47.7-15.3,47.7-47.7S80.1,7.5,47.7,7.5"/>
    <path class="st1" d="M47.7,35.7h0c-5.8-4.1-12.2-5.7-18.1-5.7s-9.6,1.2-13.8,3.2c.7,10.2,6.6,20.9,18.1,26.4-.5,7.1,1.3,13.5,4.2,18.5,2.5,4.3,5.9,7.8,9.6,10.4,8.3-5.8,14.8-16.1,13.8-28.9,6.4-3,11-7.8,13.9-12.8,2.5-4.3,3.9-9,4.2-13.6-9.2-4.4-21.4-4.7-31.9,2.5ZM69.6,43.5c-3.1,5.3-7.9,9.2-13.3,11.1-2.8,1-6.2,1.1-8.6-1.5-.5,3-.2,5.8,1.5,7.4.6.6,1.7,1.3,2.7,1.4,1.2.2,1.9.2,3,0,0,7.2-2.8,13.4-7.3,18-1.5-1.5-2.8-3.2-3.9-5-3.1-5.3-4-11.4-3-17,.5-2.9,2.2-5.9,5.6-6.6-2.4-1.9-4.9-3-7.1-2.4-1,.2-1.9.9-2.6,1.6-.7.9-1.2,1.6-1.6,2.6-6.2-3.5-10.2-9.1-11.9-15.2,2-.5,4.2-.9,6.3-.9,6.2,0,11.9,2.2,16.3,6,2.2,1.9,4,4.8,3,8.1,2.8-1.1,5-2.8,5.7-4.9.2-1,.2-2.1,0-3-.4-1.1-.7-1.8-1.4-2.7,6.2-3.6,12.9-4.3,19.1-2.7-.5,2-1.4,4.1-2.5,5.9l-.2-.2Z"/>
  </g>
</svg>