<?xml version="1.0" encoding="utf-8"?>
<!-- Generator: Adobe Illustrator 25.4.1, SVG Export Plug-In . SVG Version: 6.00 Build 0)  -->
<svg version="1.1" id="Layer_1" xmlns="http://www.w3.org/2000/svg" xmlns:xlink="http://www.w3.org/1999/xlink" x="0px" y="0px"
	 viewBox="0 0 1326 199" style="enable-background:new 0 0 1326 199;" xml:space="preserve">
<style type="text/css">
	.st0{fill:#8E113D;}
	.st1{fill:#FFFFFF;}
	.st2{fill:#231F20;}
	.st3{fill:#EE3E42;}
</style>
<g>
	<g>
		<polygon class="st0" points="496.3,35.5 496.3,163.5 816.1,163.5 816.1,35.5 496.3,35.5 		"/>
		<g>
			<polygon class="st1" points="521.1,88.7 521.1,59.9 537.1,59.9 537.1,66.3 528.4,66.3 528.4,71 536.7,71 536.7,77.4 528.4,77.4 
				528.4,82.3 537.1,82.3 537.1,88.7 521.1,88.7 			"/>
			<polygon class="st1" points="568.6,88.7 566.5,72.1 559.7,88.7 556.8,88.7 550.3,72.1 547.9,88.7 540.6,88.7 545.4,59.9 
				552.6,59.9 558.3,75.3 564.3,59.9 571.6,59.9 575.8,88.7 568.6,88.7 			"/>
			<path class="st1" d="M592.2,79.1h-4.6v9.5h-7.3V59.9H592c2.7,0,4.9,0.4,7,2.4c2,1.9,2.7,4.4,2.7,7.2
				C601.7,75.7,598.3,79.1,592.2,79.1L592.2,79.1z M590.1,65.9h-2.5v7.2h2.4c2.4,0,4-0.9,4-3.5C594.1,66.9,592.5,65.9,590.1,65.9
				L590.1,65.9z"/>
			<polygon class="st1" points="605.3,88.7 605.3,59.9 612.6,59.9 612.6,82.3 621.4,82.3 621.4,88.7 605.3,88.7 			"/>
			<path class="st1" d="M638.6,89.7c-8.6,0-15.6-6.3-15.6-15.3c0-9,6.9-15.3,15.6-15.3c8.7,0,15.6,6.3,15.6,15.3
				C654.2,83.4,647.3,89.7,638.6,89.7L638.6,89.7z M638.6,66.3c-4.4,0-7.9,3.6-7.9,8.1c0,4.4,3.6,8.1,7.9,8.1c4.3,0,7.9-3.6,7.9-8.1
				C646.6,69.9,643,66.3,638.6,66.3L638.6,66.3z"/>
			<polygon class="st1" points="670.6,74.9 670.6,88.7 663.3,88.7 663.3,74.9 653.1,59.9 661.8,59.9 667.2,67.8 672.3,59.9 
				681.1,59.9 670.6,74.9 			"/>
			<polygon class="st1" points="708.6,88.7 706.5,72.1 699.7,88.7 696.8,88.7 690.3,72.1 687.9,88.7 680.7,88.7 685.4,59.9 
				692.6,59.9 698.3,75.3 704.4,59.9 711.7,59.9 715.9,88.7 708.6,88.7 			"/>
			<polygon class="st1" points="720.4,88.7 720.4,59.9 736.3,59.9 736.3,66.3 727.7,66.3 727.7,71 735.9,71 735.9,77.4 727.7,77.4 
				727.7,82.3 736.3,82.3 736.3,88.7 720.4,88.7 			"/>
			<polygon class="st1" points="762.3,88.7 748.9,71.1 748.9,88.7 741.6,88.7 741.6,59.9 748.9,59.9 762.3,77.5 762.3,59.9 
				769.6,59.9 769.6,88.7 762.3,88.7 			"/>
			<polygon class="st1" points="785.8,66.3 785.8,88.7 778.5,88.7 778.5,66.3 772.6,66.3 772.6,59.9 791.9,59.9 791.9,66.3 
				785.8,66.3 			"/>
			<path class="st1" d="M543.8,140.6c-13,0-23.3-9.4-23.3-22.9c0-13.5,10.4-23,23.3-23c13,0,23.4,9.5,23.4,23
				C567.2,131.2,556.8,140.6,543.8,140.6L543.8,140.6z M543.8,105.5c-6.6,0-11.9,5.4-11.9,12.2c0,6.7,5.4,12.1,11.9,12.1
				s11.9-5.4,11.9-12.1C555.7,111,550.4,105.5,543.8,105.5L543.8,105.5z"/>
			<polygon class="st1" points="604,139.1 583.8,112.7 583.8,139.1 572.9,139.1 572.9,96 583.8,96 604,122.3 604,96 615,96 
				615,139.1 604,139.1 			"/>
			<polygon class="st1" points="638.9,105.5 638.9,139.1 628,139.1 628,105.5 619.1,105.5 619.1,96 648,96 648,105.5 638.9,105.5 
							"/>
			<path class="st1" d="M674.9,139.1l-2.7-7.5H657l-2.9,7.5h-11.6L658.7,96h12l15.9,43.1H674.9L674.9,139.1z M664.6,109.4l-4.6,13.7
				h9.1L664.6,109.4L664.6,109.4z"/>
			<path class="st1" d="M712.1,139.1l-10.5-16.5v16.5h-10.9V96h17.1c4,0,7.5,0.8,10.3,3.8c2.4,2.5,3.6,6.1,3.6,9.6
				c0,2.7-0.8,5.8-2.4,8c-1.7,2.4-4,3.5-6.8,4.1l13.2,17.6H712.1L712.1,139.1z M703.7,104.6h-2.1v10.7h2.1c3.4,0,6.7-1.4,6.7-5.4
				C710.4,105.9,707.1,104.6,703.7,104.6L703.7,104.6z"/>
			<polygon class="st1" points="729.7,139.1 729.7,96 740.7,96 740.7,139.1 729.7,139.1 			"/>
			<path class="st1" d="M768.4,140.6c-13,0-23.4-9.4-23.4-22.9c0-13.5,10.4-23,23.4-23c13,0,23.3,9.5,23.3,23
				C791.8,131.2,781.4,140.6,768.4,140.6L768.4,140.6z M768.4,105.5c-6.6,0-11.9,5.4-11.9,12.2c0,6.7,5.4,12.1,11.9,12.1
				c6.5,0,11.9-5.4,11.9-12.1C780.3,111,775,105.5,768.4,105.5L768.4,105.5z"/>
		</g>
	</g>
	<g>
		<path class="st2" d="M118.3,85.7l-1.7-27.2c-0.2-0.7-1.3-0.7-1.3,0c-0.1,5.9-10.5,0.9-14.2,0.1C69,51.3,47.4,77,47.4,98.3
			c0,27.7,18.3,42.7,41.8,42.7c18.7,0,28.2-12,31.3-24.9c0.4-1.6-1.4-1.3-1.9,0C113,134.2,99,138.7,92,138.6
			c-15.1-0.2-29.2-12.4-29.7-40.3c-0.7-35.5,39.5-58.8,54.7-13.1C117.3,86.2,118,86.4,118.3,85.7"/>
		<path class="st2" d="M131.3,90c8.3-3.5,30.7-2.4,30.7,7.8v31.5c0,8.6,8.5,11.6,10.9,5.8c0.8-0.8,2.1-0.2,1.4,1.1
			c-1.5,6.1-16.6,7.1-21.8-1.1c-28.9,21-47.3-20.4-12.7-21c10.8-1.6,12-7.8,12-12.2c0-10.8-5.7-11.8-9-11.8c-3.6,0-6.5,1.1-8.5,6.6
			C131.2,107.9,114.6,98,131.3,90 M138.7,138.5c6.9,0.9,13-5.3,13-11.4v-14.8C122.4,123.1,131.6,138.1,138.7,138.5"/>
		<path class="st2" d="M189.6,89l-14.1,1.8c-0.9,0.2-0.9,0.7,0.8,1.1c3.1,0.1,5,2.2,5,6.6v32.8c0,3.9-5.5,7.4-6.6,7.8
			c-2.6,1.1,1.3,0.9,1.3,0.9h23c0.8,0,3.2,0.2,0.1-1.2c-3.5-1.3-7.3-4.1-7.3-7.5v-24.6c0-10.3,6.8-16,13.4-16
			c7,0,12.8,1.5,12.8,15.9v24.7c0,3.6-4.7,6.9-7.2,7.7c-1.6,0.4-2.3,1-0.9,1h24.5c1.3,0.1,1.9-0.3,0.7-0.7c-5.9-2.3-6.6-6.6-6.6-8.1
			v-28.8c0-16.4-15.8-14.3-21.4-14.3c-7,0.1-14.4,4.5-15.1,6.4C191.7,89.4,191,88.8,189.6,89"/>
		<path class="st2" d="M329.4,136c-2.4,4.1-8.3,5.1-15.6,5.1c-13.8,0-25.2-10.7-25.2-25.3c0-13,7.3-27.6,25.9-27.6
			c16.8,0,16.7,11.2,16.7,1.9V73.7c0-8.5-3.4-11-6-11.8c-3.8-1.3-8.7-1.5-0.9-1.5l14.6-0.3c-0.9,0.2,1,0.2,1,1.5v64.3
			c0,4.5,1.6,11.3,8.8,13.3c0.7,0.1,1.4,0.5,0.7,0.8l-15.9,1.7c-2.3,0.2-3.3-0.9-4.2-5.3 M315.2,138.5c8.7,0,14.5-3.4,14.5-23.6
			c0-19.3-5.8-24-14.5-24c-8.7,0-15.7,11.2-15.7,24.2C299.5,128,306.5,138.5,315.2,138.5"/>
		<path class="st2" d="M246.4,90c8.3-3.5,30.7-2.4,30.7,7.8v31.5c0,8.6,8.5,11.5,10.9,5.8c0.8-0.8,2.1-0.2,1.4,1.1
			c-1.5,6.1-16.6,7.1-21.8-1.1c-28.9,21-47.3-20.4-12.7-21c10.8-1.6,12-7.8,12-12.2c0-10.8-5.7-11.8-9-11.8c-3.6,0-6.5,1.1-8.5,6.6
			C246.3,107.8,229.6,97.9,246.4,90 M253.8,138.5c6.9,0.9,13-5.3,13-11.4v-14.8C237.4,123,246.6,138,253.8,138.5"/>
		<path class="st2" d="M359.6,90.1c8.3-3.5,30.7-2.4,30.7,7.8v31.5c0,8.6,8.5,11.6,10.9,5.8c0.8-0.8,2.1-0.2,1.4,1.1
			c-1.5,6.1-16.6,7.1-21.8-1.1c-28.9,21-47.3-20.4-12.7-21c10.8-1.6,12-7.8,12-12.2c0-10.8-5.7-11.8-9-11.8c-3.6,0-6.5,1.1-8.5,6.6
			C359.5,108,342.8,98,359.6,90.1 M367,138.6c6.9,0.9,13-5.3,13-11.4v-14.8C350.6,123.1,359.8,138.1,367,138.6"/>
		<rect x="346.8" y="60.1" class="st3" width="12" height="24.4"/>
		<rect x="385.4" y="60.1" class="st3" width="12" height="24.4"/>
		<path class="st3" d="M370.4,65.2l1.7-3.5l1.7,3.4c0.2,0.4,0.4,0.3,0.7,0.2l1.5-0.7l-1,4.7c-0.2,0.9,0.3,1.2,0.9,0.6l2.1-2.2
			l0.6,1.3c0.2,0.4,0.5,0.3,0.8,0.3l2.2-0.5l-0.7,2.7l0,0.1c-0.1,0.4-0.3,0.7,0.1,0.8l0.8,0.4l-4.4,3.7c-0.5,0.5-0.3,0.6-0.1,1.1
			l0.4,1.3l-4.1-0.7c-0.5-0.1-0.9-0.1-0.9,0.3l0.2,4.7h-1.2l0.2-4.7c0-0.5-0.3-0.5-1.2-0.3l-3.8,0.7l0.5-1.3
			c0.2-0.5,0.2-0.8-0.2-1.1l-4.5-3.7l0.8-0.5c0.2-0.2,0.3-0.4,0.1-0.8l-0.8-2.8l2.2,0.5c0.6,0.1,0.8,0,0.9-0.3l0.6-1.2l2.2,2.4
			c0.4,0.5,0.9,0.1,0.8-0.5l-1-5.1l1.6,0.9C370,65.3,370.3,65.4,370.4,65.2L370.4,65.2z"/>
	</g>
	<g>
		<path d="M935.7,80.4c-16.4,0-26,9.8-26,25.3c0,15.5,9.5,25.2,25.9,25.2c16.4,0,26-9.8,26-25.3C961.6,90.1,952.1,80.4,935.7,80.4z
			 M935.7,121c-9.3,0-14.7-6-14.7-15.5s5.4-15.4,14.7-15.4c9.3,0,14.7,6,14.7,15.5C950.4,115.1,945,121,935.7,121z"/>
		<path d="M992.6,130v-21.6c0-5-2.4-7.6-6.4-7.6c-4,0-6.6,2.6-6.6,7.6V130H969V92.7h10.6V98c2.4-3.1,5.6-6,10.9-6
			c8,0,12.7,5.3,12.7,13.9V130H992.6z"/>
		<path d="M1023.6,117.7c0,2.4,1.1,3.6,3.6,3.6c2.1,0,3.9-0.5,5.5-1.3v8.5c-2.2,1.3-4.8,2.2-8.4,2.2c-6.5,0-10.9-2.6-10.9-11.2
			v-18.1h-4.5v-8.7h4.5v-9.5h10.1v9.5h9.1v8.7h-9.1V117.7z"/>
		<path d="M1055.3,92.2c-6.3,0-10.4,1.2-14.5,3l2.5,7.6c3.4-1.3,6.7-2.1,10.7-2.1c5.3,0,8.3,2.5,8.3,6.9v0.5
			c-2.6-0.7-5.8-1.1-9.5-1.1c-8.8,0-15.1,3.9-15.1,12.3v0.1c0,7.4,5.8,11.2,12.8,11.2c5.2,0,8.9-1.8,11.6-4.4v3.7h10v-21.7
			C1071.9,98.2,1066.8,92.2,1055.3,92.2z M1062.1,116.7c0,3.8-3.4,6.6-8.4,6.6c-3.4,0-5.9-1.7-5.9-4.5v-0.1c0-3.3,2.9-5.2,7.4-5.2
			c2.6,0,5,0.5,6.9,1.2V116.7z"/>
		<path d="M1101.9,101.5c-7,0-11.2,4.2-11.2,13.1V130h-10.4V92.7h10.4v7.5c2.2-5.2,5.4-8.5,11.7-8.2v9.5H1101.9z"/>
		<path d="M1119.5,79.1v9.4h-11.1v-9.4H1119.5l-0.2,0.2L1119.5,79.1z M1119,92.9l0.2-0.2h-10.6V130h10.6V92.7L1119,92.9z"/>
		<path d="M1146.6,92c-12.7,0-20.2,7.5-20.2,19.5c0,11.9,7.5,19.4,20.2,19.4c12.7,0,20.3-7.5,20.3-19.5
			C1166.8,99.4,1159.3,92,1146.6,92z M1146.6,121.8c-6.2,0-9.8-4.1-9.8-10.4c0-6.3,3.4-10.4,9.7-10.4c6.2,0,9.8,4.1,9.8,10.4
			C1156.4,117.8,1152.9,121.8,1146.6,121.8z"/>
	</g>
	<path d="M1231.9,53c-31.7,0-46.7,15-46.7,46.7c0,31.7,15,46.7,46.7,46.7c31.7,0,46.7-15,46.7-46.7C1278.6,67.9,1263.6,53,1231.9,53
		"/>
	<path class="st1" d="M1231.8,80.7C1231.8,80.7,1231.8,80.7,1231.8,80.7c-5.7-3.9-12-5.5-17.7-5.5c-4.8,0-9.5,1.1-13.5,3.1
		c0.8,9.9,6.5,20.4,17.7,25.8c-0.6,6.9,1.2,13.1,4.1,18.1c2.4,4.2,5.7,7.6,9.5,10.2c8.2-5.6,14.5-15.8,13.5-28.3
		c6.3-3,10.8-7.6,13.6-12.6c2.4-4.2,3.7-8.8,4.1-13.3C1254.1,73.9,1242.2,73.6,1231.8,80.7z M1253.4,88.3c-3,5.3-7.7,9-13,10.9
		c-2.7,1-6.1,1-8.4-1.4c-0.5,2.9-0.2,5.6,1.4,7.2c0.7,0.7,1.7,1.2,2.6,1.4c1.1,0.2,1.9,0.2,2.9,0.1c0,7-2.7,13-7.1,17.5
		c-1.4-1.5-2.7-3.1-3.8-5c-3-5.2-3.9-11.2-2.9-16.7c0.5-2.8,2.2-5.8,5.4-6.5c-2.3-1.9-4.8-3-7-2.3c-0.9,0.3-1.9,0.9-2.5,1.5
		c-0.7,0.9-1.2,1.5-1.5,2.5c-6.1-3.5-9.9-8.8-11.6-14.9c2-0.5,4.1-0.8,6.2-0.8c6.1,0,11.6,2.2,15.9,5.8c2.2,1.8,3.9,4.7,2.9,8
		c2.8-1,5-2.7,5.5-4.9c0.2-0.9,0.2-2.1-0.1-2.9c-0.4-1.1-0.7-1.8-1.4-2.6c6.1-3.5,12.6-4.2,18.7-2.6
		C1255.2,84.4,1254.4,86.4,1253.4,88.3z"/>
</g>
</svg>
