<?xml version="1.0" encoding="utf-8"?>
<!-- Generator: Adobe Illustrator 25.2.2, SVG Export Plug-In . SVG Version: 6.00 Build 0)  -->
<svg version="1.1" id="Layer_1" xmlns="http://www.w3.org/2000/svg" xmlns:xlink="http://www.w3.org/1999/xlink" x="0px" y="0px"
	 viewBox="0 0 300 109.81" style="enable-background:new 0 0 300 109.81;" xml:space="preserve">
<style type="text/css">
	.st0{fill:#44B749;}
	.st1{fill:#00734A;}
</style>
<g>
	<path class="st0" d="M100.52,54.91c0,26.37-21.39,47.76-47.76,47.76S5,81.28,5,54.91S26.39,7.14,52.76,7.14
		S100.52,28.53,100.52,54.91z"/>
	<path class="st1" d="M295,79.74c0,4.55-3.69,8.24-8.24,8.24c-4.55,0-8.24-3.69-8.24-8.24c0-4.55,3.69-8.24,8.24-8.24
		C291.31,71.5,295,75.19,295,79.74z"/>
	<g>
		<path d="M56.81,20.77c2.6,0,4.24,1.26,5.21,2.75l-2.22,1.21c-0.58-0.89-1.66-1.58-2.98-1.58c-2.28,0-3.94,1.75-3.94,4.13
			s1.66,4.13,3.94,4.13c1.15,0,2.17-0.47,2.72-0.96v-1.53h-3.36v-2.3h6v4.81c-1.28,1.43-3.07,2.38-5.36,2.38
			c-3.68,0-6.7-2.56-6.7-6.53C50.11,23.3,53.13,20.77,56.81,20.77z"/>
		<path d="M63.83,20.98h2.72v7.47c0,1.75,0.96,2.96,2.92,2.96c1.92,0,2.89-1.21,2.89-2.96v-7.47h2.72v7.55
			c0,3.13-1.79,5.26-5.6,5.26c-3.85,0-5.64-2.15-5.64-5.24L63.83,20.98L63.83,20.98z"/>
		<path d="M77.09,20.98H86v2.3h-6.23v2.73h6.09v2.3h-6.09v2.92H86v2.32h-8.91V20.98z"/>
		<path d="M87.9,20.98h2.68V31.2h5.32v2.36h-8L87.9,20.98L87.9,20.98z"/>
		<path d="M96.83,20.98h5.89c2.73,0,4.23,1.85,4.23,4.06c0,2.19-1.51,4.02-4.23,4.02H99.5v4.51h-2.68L96.83,20.98L96.83,20.98z
			 M102.35,23.28H99.5v3.47h2.85c1.06,0,1.85-0.68,1.85-1.73C104.2,23.98,103.41,23.28,102.35,23.28z"/>
		<path d="M116.75,28.28h-5.94v5.28h-2.68V20.98h2.68v4.94h5.94v-4.94h2.7v12.58h-2.7V28.28z"/>
		<path d="M136.84,24.5l-3.55,9.06h-1.17l-3.55-9.06v9.06h-2.68V20.98h3.75l3.06,7.85l3.06-7.85h3.77v12.58h-2.7L136.84,24.5
			L136.84,24.5z"/>
		<path d="M141.75,20.98h8.91v2.3h-6.23v2.73h6.09v2.3h-6.09v2.92h6.23v2.32h-8.91V20.98z"/>
		<path d="M157.2,29.05h-1.96v4.51h-2.68V20.98h5.89c2.62,0,4.23,1.72,4.23,4.06c0,2.22-1.4,3.41-2.75,3.73l2.83,4.79h-3.07
			L157.2,29.05z M158.05,23.28h-2.81v3.47h2.81c1.07,0,1.89-0.68,1.89-1.73C159.94,23.96,159.13,23.28,158.05,23.28z"/>
		<path d="M163.43,27.28c0-3.87,2.92-6.51,6.6-6.51c2.87,0,4.47,1.51,5.36,3.07l-2.3,1.13c-0.53-1.02-1.66-1.83-3.06-1.83
			c-2.19,0-3.85,1.75-3.85,4.13s1.66,4.13,3.85,4.13c1.4,0,2.53-0.79,3.06-1.83l2.3,1.11c-0.9,1.56-2.49,3.09-5.36,3.09
			C166.35,33.79,163.43,31.14,163.43,27.28z"/>
		<path d="M176.52,20.98h2.72v7.47c0,1.75,0.96,2.96,2.92,2.96c1.92,0,2.89-1.21,2.89-2.96v-7.47h2.72v7.55
			c0,3.13-1.79,5.26-5.6,5.26c-3.85,0-5.64-2.15-5.64-5.24L176.52,20.98L176.52,20.98z"/>
		<path d="M194.43,29.05h-1.96v4.51h-2.68V20.98h5.89c2.62,0,4.23,1.72,4.23,4.06c0,2.22-1.4,3.41-2.75,3.73l2.83,4.79h-3.07
			L194.43,29.05z M195.28,23.28h-2.81v3.47h2.81c1.07,0,1.89-0.68,1.89-1.73C197.17,23.96,196.36,23.28,195.28,23.28z"/>
		<path d="M204.43,28.41l-4.85-7.43h3.06l3.13,5.06l3.09-5.06h3.06l-4.81,7.43v5.15h-2.68L204.43,28.41L204.43,28.41z"/>
	</g>
	<g>
		<path d="M63.48,50.07h-13.4V39.31h39.06v10.75H75.81v37.05H63.48L63.48,50.07L63.48,50.07z"/>
		<path d="M86.55,52.5h11.04v4.37c2.29-2.8,6.66-5.23,10.82-5.23v10.68c-0.64-0.22-1.58-0.36-2.72-0.36c-2.87,0-6.66,1.22-8.1,3.22
			v21.93H86.55V52.5z"/>
		<path d="M109.06,41.82c0-3.51,2.8-6.31,6.31-6.31c3.51,0,6.31,2.8,6.31,6.31s-2.8,6.31-6.31,6.31
			C111.86,48.13,109.06,45.34,109.06,41.82z M109.85,52.5h11.04v34.62h-11.04V52.5z"/>
		<path d="M125.69,39.31h11.04v17.27c2.72-3.44,6.45-4.95,10.25-4.95c8.6,0,15.27,6.81,15.27,18.13c0,11.75-6.74,18.2-15.27,18.2
			c-3.87,0-7.38-1.58-10.25-4.87v4.01h-11.04V39.31z M143.32,78.23c4.37,0,7.67-3.22,7.67-8.46c0-5.16-3.3-8.39-7.67-8.39
			c-2.37,0-5.23,1.29-6.59,3.15v10.61C138.09,77.01,140.95,78.23,143.32,78.23z"/>
		<path d="M188.18,82.96c-2.15,2.44-6.16,5.02-11.97,5.02c-7.88,0-11.4-4.44-11.4-10.82V52.5h11.04v20.14
			c0,4.16,2.15,5.59,5.73,5.59c3.15,0,5.3-1.72,6.59-3.37V52.5h11.04v34.62h-11.04L188.18,82.96L188.18,82.96z"/>
		<path d="M227.1,67.12c0-4.23-2.22-5.73-5.66-5.73c-3.3,0-5.45,1.79-6.74,3.37v22.36h-11.04V52.5h11.04v4.23
			c2.08-2.44,6.16-5.09,11.97-5.09c7.88,0,11.47,4.59,11.47,10.96v24.51H227.1L227.1,67.12L227.1,67.12z"/>
		<path d="M259.06,51.64c10.25,0,17.7,7.52,17.7,19.28v2.37h-24.66c0.64,3.22,3.66,6.16,8.81,6.16c3.08,0,6.52-1.22,8.46-2.94
			l4.66,6.88c-3.44,3.08-9.17,4.59-14.48,4.59c-10.68,0-18.92-6.95-18.92-18.2C240.64,59.74,248.24,51.64,259.06,51.64z
			 M251.97,66.12h14.26c-0.29-2.44-2.08-5.95-7.17-5.95C254.26,60.17,252.39,63.61,251.97,66.12z"/>
	</g>
</g>
</svg>
