<?xml version="1.0" encoding="utf-8"?>
<!-- Generator: Adobe Illustrator 25.1.0, SVG Export Plug-In . SVG Version: 6.00 Build 0)  -->
<svg version="1.1" id="Layer_1" xmlns="http://www.w3.org/2000/svg" xmlns:xlink="http://www.w3.org/1999/xlink" x="0px" y="0px"
	 viewBox="0 0 4928 1552" style="enable-background:new 0 0 4928 1552;" xml:space="preserve">
<style type="text/css">
	.st0{clip-path:url(#SVGID_2_);}
	.st1{clip-path:url(#SVGID_4_);fill:#57CBF5;}
	.st2{clip-path:url(#SVGID_6_);}
	.st3{clip-path:url(#SVGID_8_);fill:#FFD02A;}
	.st4{clip-path:url(#SVGID_10_);fill:#57CBF5;}
	.st5{fill:#CF202F;}
	.st6{clip-path:url(#SVGID_12_);fill:#FFA322;}
	.st7{fill:#5CB85C;}
</style>
<g>
	<g>
		<g>
			<g>
				<g>
					<defs>
						<rect id="SVGID_1_" x="3948.6" y="572.2" width="979.4" height="979.4"/>
					</defs>
					<clipPath id="SVGID_2_">
						<use xlink:href="#SVGID_1_"  style="overflow:visible;"/>
					</clipPath>
					<g class="st0">
						<g>
							<g>
								<defs>
									<rect id="SVGID_3_" x="3948.6" y="572.2" width="979.4" height="979.4"/>
								</defs>
								<clipPath id="SVGID_4_">
									<use xlink:href="#SVGID_3_"  style="overflow:visible;"/>
								</clipPath>
								<path class="st1" d="M3948.6,1551.6c0-540.9,438.5-979.4,979.4-979.4v979.4H3948.6z"/>
							</g>
						</g>
					</g>
				</g>
			</g>
		</g>
	</g>
</g>
<g>
	<g>
		<g>
			<g>
				<g>
					<defs>
						<rect id="SVGID_5_" x="0.1" width="895.9" height="895.9"/>
					</defs>
					<clipPath id="SVGID_6_">
						<use xlink:href="#SVGID_5_"  style="overflow:visible;"/>
					</clipPath>
					<g class="st2">
						<g>
							<g>
								<defs>
									<rect id="SVGID_7_" x="0.1" width="895.9" height="895.9"/>
								</defs>
								<clipPath id="SVGID_8_">
									<use xlink:href="#SVGID_7_"  style="overflow:visible;"/>
								</clipPath>
								<path class="st3" d="M896,0c0,494.8-401.1,895.8-895.8,895.9V0H896z"/>
							</g>
						</g>
					</g>
				</g>
			</g>
		</g>
	</g>
</g>
<g>
	<g>
		<g>
			<defs>
				<rect id="SVGID_9_" x="293.6" y="0.5" width="994.4" height="497.1"/>
			</defs>
			<clipPath id="SVGID_10_">
				<use xlink:href="#SVGID_9_"  style="overflow:visible;"/>
			</clipPath>
			<path class="st4" d="M294.3-3.5c0.5-1.2,1.2-2.4,2.2-3.3s2.1-1.7,3.3-2.2s2.5-0.8,3.9-0.8s2.7,0.2,3.9,0.8
				c1.2,0.5,2.4,1.2,3.3,2.2c1,1,1.7,2.1,2.2,3.3s0.8,2.5,0.8,3.9v2c0,1.4-0.2,2.7-0.8,3.9s-1.2,2.4-2.2,3.3s-2.1,1.7-3.3,2.2
				c-1.2,0.5-2.5,0.8-3.9,0.8s-2.7-0.2-3.9-0.8s-2.4-1.2-3.3-2.2c-1-1-1.7-2.1-2.2-3.3s-0.8-2.5-0.8-3.9v-2
				C293.5-0.9,293.8-2.2,294.3-3.5z M298.8-66.7c0.7-1.2,1.5-2.2,2.6-3s2.3-1.4,3.6-1.8s2.6-0.4,4-0.3s2.6,0.6,3.8,1.3
				c1.2,0.7,2.2,1.5,3,2.6s1.4,2.3,1.8,3.6c0.4,1.3,0.5,2.6,0.3,4l-0.1,0.8l-0.1,1.2c-0.2,1.3-0.6,2.6-1.3,3.8s-1.5,2.2-2.6,3
				s-2.3,1.4-3.6,1.8c-1.3,0.4-2.6,0.5-4,0.3c-1.3-0.2-2.6-0.6-3.8-1.3s-2.2-1.5-3-2.6s-1.4-2.3-1.8-3.6s-0.5-2.6-0.3-4l0.2-1.3
				l0.1-0.8C297.7-64.2,298.1-65.5,298.8-66.7z M311.8-130.4c0.8-1.1,1.8-2,3-2.6s2.4-1.1,3.8-1.3c1.3-0.2,2.7-0.1,4,0.2
				s2.5,0.9,3.6,1.7s2,1.8,2.6,3c0.7,1.2,1.1,2.4,1.3,3.8c0.2,1.3,0.1,2.7-0.2,4l-0.5,2c-0.3,1.3-0.9,2.5-1.7,3.6
				c-0.8,1.1-1.8,2-3,2.6s-2.4,1.1-3.8,1.3c-1.3,0.2-2.7,0.1-4-0.2s-2.5-0.9-3.6-1.7c-1.1-0.8-2-1.8-2.6-3c-0.7-1.2-1.1-2.4-1.3-3.8
				c-0.2-1.3-0.1-2.7,0.2-4l0.5-2C310.4-128.1,311-129.3,311.8-130.4z M333-191.9c1-1,2-1.7,3.3-2.2c1.2-0.5,2.5-0.8,3.9-0.8
				s2.7,0.2,3.9,0.8s2.4,1.2,3.3,2.2c1,0.9,1.7,2.1,2.2,3.3s0.8,2.6,0.8,3.9c0,1.4-0.2,2.7-0.8,3.9l-0.8,1.9
				c-0.5,1.2-1.2,2.4-2.2,3.3c-1,1-2,1.7-3.3,2.2s-2.5,0.8-3.9,0.8s-2.7-0.2-3.9-0.8s-2.4-1.2-3.3-2.2c-1-0.9-1.7-2.1-2.2-3.3
				s-0.8-2.6-0.8-3.9c0-1.4,0.2-2.7,0.8-3.9l0.8-1.9C331.3-189.8,332-190.9,333-191.9z M362-250c1.1-0.8,2.3-1.4,3.6-1.8
				c1.3-0.4,2.6-0.4,4-0.3s2.6,0.6,3.8,1.3s2.2,1.5,3,2.6s1.4,2.3,1.8,3.6s0.5,2.6,0.3,4s-0.6,2.6-1.3,3.8l-1,1.8
				c-0.7,1.2-1.5,2.2-2.6,3s-2.3,1.4-3.6,1.8c-1.3,0.4-2.6,0.4-4,0.3s-2.6-0.6-3.8-1.3s-2.2-1.5-3-2.6s-1.4-2.3-1.8-3.6
				s-0.5-2.6-0.3-4s0.6-2.6,1.3-3.8l1-1.8C360.1-248.1,361-249.1,362-250z M398.4-303.9c1.2-0.7,2.4-1.1,3.8-1.3
				c1.3-0.2,2.7-0.1,4,0.2s2.5,0.9,3.6,1.8s2,1.8,2.6,3c0.7,1.2,1.1,2.4,1.3,3.8s0.1,2.7-0.2,4s-0.9,2.5-1.8,3.6l-1.2,1.6
				c-0.8,1.1-1.8,2-3,2.6c-1.2,0.7-2.4,1.1-3.8,1.3s-2.7,0.1-4-0.2s-2.5-0.9-3.6-1.8s-2-1.8-2.6-3c-0.7-1.2-1.1-2.4-1.3-3.8
				s-0.1-2.7,0.2-4s0.9-2.5,1.8-3.6l1.2-1.6C396.2-302.3,397.2-303.2,398.4-303.9z M441.5-352.5c1.2-0.5,2.5-0.8,3.9-0.8
				s2.7,0.2,3.9,0.8s2.4,1.2,3.3,2.2c1,1,1.7,2,2.2,3.3c0.5,1.2,0.8,2.5,0.8,3.9s-0.2,2.7-0.8,3.9s-1.2,2.4-2.2,3.3l-1.5,1.5
				c-1,1-2,1.7-3.3,2.2c-1.2,0.5-2.5,0.8-3.9,0.8s-2.7-0.2-3.9-0.8s-2.4-1.2-3.3-2.2c-1-1-1.7-2-2.2-3.3c-0.5-1.2-0.8-2.5-0.8-3.9
				s0.2-2.7,0.8-3.9s1.2-2.4,2.2-3.3l1.5-1.5C439.2-351.2,440.3-352,441.5-352.5z M490.6-395.1c1.3-0.4,2.6-0.5,4-0.3
				s2.6,0.6,3.8,1.3s2.2,1.5,3,2.6s1.4,2.3,1.8,3.6s0.5,2.6,0.3,4s-0.6,2.6-1.3,3.8s-1.5,2.2-2.6,3l-1.6,1.3
				c-1.1,0.8-2.3,1.4-3.6,1.8s-2.6,0.5-4,0.3s-2.6-0.6-3.8-1.3s-2.2-1.5-3-2.6s-1.4-2.3-1.8-3.6s-0.5-2.6-0.3-4s0.6-2.6,1.3-3.8
				s1.5-2.2,2.6-3l1.6-1.3C488.1-394.2,489.3-394.8,490.6-395.1z M544.9-431c1.3-0.2,2.7-0.1,4,0.2s2.5,0.9,3.6,1.8s2,1.8,2.6,3
				c0.7,1.2,1.1,2.4,1.3,3.8s0.1,2.7-0.2,4s-0.9,2.5-1.8,3.6s-1.8,2-3,2.6l-0.2,0.1l-1.6,0.9c-1.2,0.7-2.4,1.1-3.8,1.3
				s-2.7,0.1-4-0.2s-2.5-0.9-3.6-1.8s-2-1.8-2.6-3s-1.1-2.4-1.3-3.8s-0.1-2.7,0.2-4s0.9-2.5,1.8-3.6s1.8-2,3-2.6l1.6-1l0.2-0.1
				C542.3-430.3,543.6-430.8,544.9-431z M603.3-459.4c1.3,0,2.7,0.2,3.9,0.8s2.4,1.2,3.3,2.2s1.7,2,2.2,3.3c0.5,1.2,0.8,2.5,0.8,3.9
				s-0.2,2.7-0.8,3.9s-1.2,2.4-2.2,3.3c-1,1-2,1.7-3.3,2.2l-1.9,0.8c-1.2,0.5-2.5,0.8-3.9,0.8c-1.3,0-2.7-0.2-3.9-0.8
				s-2.4-1.2-3.3-2.2s-1.7-2-2.2-3.3c-0.5-1.2-0.8-2.5-0.8-3.9s0.2-2.7,0.8-3.9s1.2-2.4,2.2-3.3c1-1,2-1.7,3.3-2.2l1.9-0.8
				C600.7-459.1,602-459.3,603.3-459.4z M665-479.9c1.3,0.2,2.6,0.6,3.8,1.3c1.2,0.7,2.2,1.5,3,2.6s1.4,2.3,1.8,3.6
				c0.4,1.3,0.5,2.6,0.3,4s-0.6,2.6-1.3,3.8s-1.5,2.2-2.6,3s-2.3,1.4-3.6,1.8l-2,0.5c-1.3,0.4-2.6,0.5-4,0.3
				c-1.3-0.2-2.6-0.6-3.8-1.3c-1.2-0.7-2.2-1.5-3-2.6s-1.4-2.3-1.8-3.6c-0.4-1.3-0.5-2.6-0.3-4s0.6-2.6,1.3-3.8s1.5-2.2,2.6-3
				s2.3-1.4,3.6-1.8l2-0.5C662.3-480,663.7-480.1,665-479.9z M728.9-492.2c1.3,0.4,2.5,0.9,3.6,1.8s2,1.8,2.6,3
				c0.7,1.2,1.1,2.4,1.3,3.8c0.2,1.3,0.1,2.7-0.2,4s-0.9,2.5-1.8,3.6s-1.8,2-3,2.6c-1.2,0.7-2.4,1.1-3.8,1.3l-2,0.3
				c-1.3,0.2-2.7,0.1-4-0.2c-1.3-0.4-2.5-0.9-3.6-1.8s-2-1.8-2.6-3c-0.7-1.2-1.1-2.4-1.3-3.8c-0.2-1.3-0.1-2.7,0.2-4
				s0.9-2.5,1.8-3.6s1.8-2,3-2.6c1.2-0.7,2.4-1.1,3.8-1.3l2-0.3C726.2-492.6,727.6-492.6,728.9-492.2z M793.6-496.1
				c1.2,0.5,2.4,1.2,3.3,2.2s1.7,2,2.2,3.3c0.5,1.2,0.8,2.5,0.8,3.9s-0.2,2.7-0.8,3.9s-1.2,2.4-2.2,3.3c-1,1-2,1.7-3.3,2.2
				c-1.2,0.5-2.5,0.8-3.9,0.8h-2c-1.3,0-2.7-0.2-3.9-0.8s-2.4-1.2-3.3-2.2s-1.7-2-2.2-3.3c-0.5-1.2-0.8-2.5-0.8-3.9s0.2-2.7,0.8-3.9
				s1.2-2.4,2.2-3.3c1-1,2-1.7,3.3-2.2c1.2-0.5,2.5-0.8,3.9-0.8h2C791-496.8,792.3-496.6,793.6-496.1z M858.2-491.5
				c1.2,0.7,2.2,1.5,3,2.6s1.4,2.3,1.8,3.6c0.4,1.3,0.5,2.6,0.3,4s-0.6,2.6-1.3,3.8s-1.5,2.2-2.6,3s-2.3,1.4-3.6,1.8s-2.6,0.5-4,0.3
				l-2-0.3c-1.3-0.2-2.6-0.6-3.8-1.3c-1.2-0.7-2.2-1.5-3-2.6s-1.4-2.3-1.8-3.6c-0.4-1.3-0.5-2.6-0.3-4s0.6-2.6,1.3-3.8
				s1.5-2.2,2.6-3s2.3-1.4,3.6-1.8s2.6-0.5,4-0.3l2,0.3C855.8-492.6,857-492.2,858.2-491.5z M921.9-478.5c1.1,0.8,2,1.8,2.6,3
				s1.1,2.4,1.3,3.8c0.2,1.3,0.1,2.7-0.2,4s-0.9,2.5-1.8,3.6s-1.8,2-3,2.6c-1.2,0.7-2.4,1.1-3.8,1.3c-1.3,0.2-2.7,0.1-4-0.2l-2-0.5
				c-1.3-0.3-2.5-0.9-3.6-1.8s-2-1.8-2.6-3s-1.1-2.4-1.3-3.8c-0.2-1.3-0.1-2.7,0.2-4s0.9-2.5,1.8-3.6s1.8-2,3-2.6
				c1.2-0.7,2.4-1.1,3.8-1.3c1.3-0.2,2.7-0.1,4,0.2l2,0.5C919.7-479.9,920.8-479.3,921.9-478.5z M983.4-457.2c1,1,1.7,2,2.2,3.3
				c0.5,1.2,0.8,2.5,0.8,3.9s-0.2,2.7-0.8,3.9s-1.2,2.4-2.2,3.3c-1,1-2,1.7-3.3,2.2c-1.2,0.5-2.5,0.8-3.9,0.8
				c-1.3,0-2.7-0.2-3.9-0.8l-1.9-0.8c-1.2-0.5-2.4-1.2-3.3-2.2s-1.7-2-2.2-3.3c-0.5-1.2-0.8-2.5-0.8-3.9s0.2-2.7,0.8-3.9
				s1.2-2.4,2.2-3.3c1-1,2-1.7,3.3-2.2c1.2-0.5,2.5-0.8,3.9-0.8c1.3,0,2.7,0.2,3.9,0.8l1.9,0.8C981.3-458.9,982.4-458.1,983.4-457.2
				z M1041.5-428.1c0.8,1.1,1.4,2.3,1.8,3.6s0.4,2.6,0.3,4c-0.2,1.3-0.6,2.6-1.3,3.8s-1.5,2.2-2.6,3s-2.3,1.4-3.6,1.8
				c-1.3,0.4-2.6,0.5-4,0.3s-2.6-0.6-3.8-1.3l-1.8-1c-1.2-0.7-2.2-1.5-3-2.6c-0.8-1.1-1.4-2.3-1.8-3.6c-0.4-1.3-0.5-2.6-0.3-4
				s0.6-2.6,1.3-3.8s1.5-2.2,2.6-3c1.1-0.8,2.3-1.4,3.6-1.8c1.3-0.4,2.6-0.5,4-0.3c1.3,0.2,2.6,0.6,3.8,1.3l1.8,1
				C1039.6-430.1,1040.6-429.2,1041.5-428.1z M1095.3-391.7c0.7,1.2,1.1,2.4,1.3,3.8c0.2,1.3,0.1,2.7-0.2,4
				c-0.3,1.3-0.9,2.5-1.8,3.6s-1.8,2-3,2.6c-1.2,0.7-2.4,1.1-3.8,1.3s-2.7,0.1-4-0.2c-1.3-0.4-2.5-0.9-3.6-1.8l-1.6-1.2
				c-1.1-0.8-2-1.8-2.6-3c-0.7-1.2-1.1-2.4-1.3-3.8c-0.2-1.3-0.1-2.7,0.2-4s0.9-2.5,1.8-3.6s1.8-2,3-2.6c1.2-0.7,2.4-1.1,3.8-1.3
				c1.3-0.2,2.7-0.1,4,0.2c1.3,0.4,2.5,0.9,3.6,1.8l1.6,1.2C1093.8-393.9,1094.6-392.9,1095.3-391.7z M1143.9-348.5
				c0.5,1.2,0.8,2.5,0.8,3.9s-0.2,2.7-0.8,3.9s-1.2,2.4-2.2,3.3c-0.9,1-2.1,1.7-3.3,2.2s-2.6,0.8-3.9,0.8s-2.7-0.2-3.9-0.8
				s-2.4-1.2-3.3-2.2l-1.5-1.5c-1-1-1.7-2.1-2.2-3.3c-0.5-1.2-0.8-2.5-0.8-3.9s0.2-2.7,0.8-3.9s1.2-2.4,2.2-3.3
				c0.9-1,2.1-1.7,3.3-2.2c1.2-0.5,2.6-0.8,3.9-0.8s2.7,0.2,3.9,0.8s2.4,1.2,3.3,2.2l1.5,1.5
				C1142.7-350.9,1143.4-349.8,1143.9-348.5z M1186.5-299.4c0.4,1.3,0.4,2.6,0.3,4c-0.2,1.3-0.6,2.6-1.3,3.8c-0.7,1.2-1.5,2.2-2.6,3
				s-2.3,1.4-3.6,1.8c-1.3,0.4-2.6,0.5-4,0.3s-2.6-0.6-3.8-1.3c-1.2-0.7-2.2-1.5-3-2.6l-1.3-1.6c-0.8-1.1-1.4-2.3-1.8-3.6
				s-0.4-2.6-0.3-4c0.2-1.3,0.6-2.6,1.3-3.8c0.7-1.2,1.5-2.2,2.6-3s2.3-1.4,3.6-1.8c1.3-0.4,2.6-0.5,4-0.3s2.6,0.6,3.8,1.3
				c1.2,0.7,2.2,1.5,3,2.6l1.3,1.6C1185.6-301.9,1186.2-300.7,1186.5-299.4z M1222.3-245.1c0.2,1.3,0.1,2.7-0.2,4s-0.9,2.5-1.8,3.6
				s-1.8,2-3,2.6s-2.4,1.1-3.8,1.3s-2.7,0.1-4-0.2c-1.3-0.4-2.5-0.9-3.6-1.8s-2-1.8-2.6-3l-1-1.8c-0.7-1.2-1.1-2.4-1.3-3.8
				c-0.2-1.3-0.1-2.7,0.2-4s0.9-2.5,1.8-3.6s1.8-2,3-2.6s2.4-1.1,3.8-1.3s2.7-0.1,4,0.2c1.3,0.4,2.5,0.9,3.6,1.8s2,1.8,2.6,3l1,1.8
				C1221.7-247.7,1222.1-246.4,1222.3-245.1z M1250.7-186.7c0,1.4-0.2,2.7-0.8,3.9s-1.2,2.4-2.2,3.3s-2.1,1.7-3.3,2.2
				c-1.2,0.5-2.6,0.8-3.9,0.8s-2.7-0.2-3.9-0.8s-2.4-1.2-3.3-2.2s-1.7-2.1-2.2-3.3l-0.8-1.9c-0.5-1.2-0.8-2.6-0.8-3.9
				c0-1.4,0.2-2.7,0.8-3.9s1.2-2.4,2.2-3.3s2.1-1.7,3.3-2.2c1.2-0.5,2.6-0.8,3.9-0.8s2.7,0.2,3.9,0.8s2.4,1.2,3.3,2.2
				s1.7,2.1,2.2,3.3l0.8,1.9C1250.4-189.3,1250.7-188,1250.7-186.7z M1271.2-125c-0.2,1.3-0.6,2.6-1.3,3.8c-0.7,1.2-1.6,2.2-2.6,3
				c-1.1,0.8-2.3,1.4-3.6,1.8c-1.3,0.4-2.6,0.4-4,0.3c-1.3-0.2-2.6-0.6-3.8-1.3c-1.2-0.7-2.2-1.6-3-2.6c-0.8-1.1-1.4-2.3-1.8-3.6
				l-0.5-2c-0.4-1.3-0.4-2.6-0.3-4c0.2-1.3,0.6-2.6,1.3-3.8c0.7-1.2,1.6-2.2,2.6-3c1.1-0.8,2.3-1.4,3.6-1.8c1.3-0.4,2.6-0.4,4-0.3
				c1.3,0.2,2.6,0.6,3.8,1.3c1.2,0.7,2.2,1.6,3,2.6s1.4,2.3,1.8,3.6l0.5,2C1271.2-127.7,1271.3-126.3,1271.2-125z M1283.4-61.1
				c-0.3,1.3-0.9,2.5-1.8,3.6c-0.8,1.1-1.8,2-3,2.6s-2.4,1.1-3.8,1.3s-2.7,0.1-4-0.2s-2.5-0.9-3.6-1.8s-2-1.8-2.6-3
				c-0.7-1.2-1.1-2.4-1.3-3.8l-0.3-2c-0.2-1.3-0.1-2.7,0.2-4c0.3-1.3,0.9-2.5,1.8-3.6s1.8-2,3-2.6s2.4-1.1,3.8-1.3s2.7-0.1,4,0.2
				c1.3,0.3,2.5,0.9,3.6,1.8s2,1.8,2.6,3s1.1,2.4,1.3,3.8l0.3,2C1283.9-63.7,1283.8-62.4,1283.4-61.1z M1287.3,3.6
				c-0.5,1.2-1.2,2.4-2.2,3.3s-2.1,1.7-3.3,2.2c-1.2,0.5-2.6,0.8-3.9,0.8s-2.7-0.2-3.9-0.8s-2.4-1.2-3.3-2.2s-1.7-2.1-2.2-3.3
				s-0.8-2.5-0.8-3.9v-2c0-1.4,0.2-2.7,0.8-3.9s1.2-2.4,2.2-3.3s2.1-1.7,3.3-2.2c1.2-0.5,2.6-0.8,3.9-0.8s2.7,0.2,3.9,0.8
				s2.4,1.2,3.3,2.2s1.7,2.1,2.2,3.3s0.8,2.5,0.8,3.9v2C1288,1,1287.8,2.3,1287.3,3.6z M1282.6,68.2c-0.7,1.2-1.5,2.2-2.6,3
				s-2.3,1.4-3.6,1.8c-1.3,0.4-2.6,0.4-4,0.3c-1.3-0.2-2.6-0.6-3.8-1.3c-1.2-0.7-2.2-1.5-3-2.6s-1.4-2.3-1.8-3.6s-0.4-2.6-0.3-4
				l0.3-2c0.2-1.3,0.6-2.6,1.3-3.8c0.7-1.2,1.5-2.2,2.6-3s2.3-1.4,3.6-1.8c1.3-0.4,2.6-0.5,4-0.3c1.3,0.2,2.6,0.6,3.8,1.3
				c1.2,0.7,2.2,1.5,3,2.6s1.4,2.3,1.8,3.6s0.4,2.6,0.3,4l-0.3,2C1283.7,65.8,1283.3,67,1282.6,68.2z M1269.5,131.9
				c-0.8,1.1-1.8,2-3,2.6s-2.4,1.1-3.8,1.3s-2.7,0.1-4-0.2c-1.3-0.4-2.5-0.9-3.6-1.8s-2-1.8-2.6-3s-1.1-2.4-1.3-3.8
				c-0.2-1.3-0.1-2.7,0.2-4l0.5-2c0.3-1.3,0.9-2.5,1.8-3.6s1.8-2,3-2.6s2.4-1.1,3.8-1.3s2.7-0.1,4,0.2c1.3,0.3,2.5,0.9,3.6,1.8
				s2,1.8,2.6,3s1.1,2.4,1.3,3.8c0.2,1.3,0.1,2.7-0.2,4l-0.5,2C1270.9,129.7,1270.4,130.9,1269.5,131.9z M1248.2,193.4
				c-0.9,1-2.1,1.7-3.3,2.2c-1.2,0.5-2.6,0.8-3.9,0.8s-2.7-0.2-3.9-0.8s-2.4-1.2-3.3-2.2s-1.7-2.1-2.2-3.3s-0.8-2.6-0.8-3.9
				c0-1.4,0.2-2.7,0.8-3.9l0.8-1.9c0.5-1.2,1.2-2.4,2.2-3.3s2.1-1.7,3.3-2.2c1.2-0.5,2.6-0.8,3.9-0.8s2.7,0.2,3.9,0.8
				s2.4,1.2,3.3,2.2s1.7,2.1,2.2,3.3s0.8,2.6,0.8,3.9c0,1.4-0.2,2.7-0.8,3.9l-0.8,1.9C1249.9,191.3,1249.2,192.4,1248.2,193.4z
				 M1219.1,251.5c-1.1,0.8-2.3,1.4-3.6,1.8c-1.3,0.4-2.6,0.4-4,0.3c-1.3-0.2-2.6-0.6-3.8-1.3c-1.2-0.7-2.2-1.6-3-2.6
				c-0.8-1.1-1.4-2.3-1.8-3.6c-0.3-1.3-0.4-2.6-0.3-4c0.2-1.3,0.6-2.6,1.3-3.8l0.1-0.2l0.9-1.5c0.7-1.2,1.5-2.2,2.6-3
				s2.3-1.4,3.6-1.8c1.3-0.4,2.6-0.4,4-0.3c1.3,0.2,2.6,0.6,3.8,1.3c1.2,0.7,2.2,1.5,3,2.6s1.4,2.3,1.8,3.6s0.4,2.6,0.3,4
				c-0.2,1.3-0.6,2.6-1.3,3.8l-0.9,1.6l-0.1,0.2C1221.1,249.6,1220.2,250.6,1219.1,251.5z M1182.7,305.3c-1.2,0.7-2.4,1.1-3.8,1.3
				c-1.3,0.2-2.7,0.1-4-0.2c-1.3-0.4-2.5-0.9-3.6-1.8s-2-1.8-2.6-3c-0.7-1.2-1.1-2.4-1.3-3.8s-0.1-2.7,0.2-4s0.9-2.5,1.8-3.6
				l1.2-1.6c0.8-1.1,1.8-2,3-2.6c1.2-0.7,2.4-1.1,3.8-1.3c1.3-0.2,2.7-0.1,4,0.2c1.3,0.4,2.5,0.9,3.6,1.8s2,1.8,2.6,3
				c0.7,1.2,1.1,2.4,1.3,3.8s0.1,2.7-0.2,4s-0.9,2.5-1.8,3.6l-1.2,1.6C1184.8,303.7,1183.8,304.6,1182.7,305.3z M1139.5,353.9
				c-1.2,0.5-2.6,0.8-3.9,0.8s-2.7-0.2-3.9-0.8s-2.4-1.2-3.3-2.2s-1.7-2.1-2.2-3.3s-0.8-2.5-0.8-3.9s0.2-2.7,0.8-3.9
				s1.2-2.4,2.2-3.3l1.4-1.5c0.9-1,2.1-1.7,3.3-2.2s2.6-0.8,3.9-0.8s2.7,0.2,3.9,0.8s2.4,1.2,3.3,2.2s1.7,2.1,2.2,3.3
				s0.8,2.5,0.8,3.9s-0.2,2.7-0.8,3.9c-0.5,1.2-1.2,2.4-2.2,3.3l-1.4,1.5C1141.8,352.6,1140.7,353.3,1139.5,353.9z M1090.3,396.4
				c-1.3,0.4-2.6,0.5-4,0.3c-1.3-0.2-2.6-0.6-3.8-1.3c-1.2-0.7-2.2-1.5-3-2.6s-1.4-2.3-1.8-3.6s-0.4-2.6-0.3-4
				c0.2-1.3,0.6-2.6,1.3-3.8c0.7-1.2,1.6-2.2,2.6-3l1.6-1.3c1.1-0.8,2.3-1.4,3.6-1.8c1.3-0.4,2.6-0.5,4-0.3c1.3,0.2,2.6,0.6,3.8,1.3
				c1.2,0.7,2.2,1.5,3,2.6s1.4,2.3,1.8,3.6s0.4,2.6,0.3,4c-0.2,1.3-0.6,2.6-1.3,3.8c-0.7,1.2-1.6,2.2-2.6,3l-1.6,1.3
				C1092.8,395.5,1091.6,396,1090.3,396.4z M1036,432.1c-1.3,0.2-2.7,0.1-4-0.2c-1.3-0.4-2.5-0.9-3.6-1.8s-2-1.8-2.6-3
				c-0.7-1.2-1.1-2.4-1.3-3.8s-0.1-2.7,0.2-4s0.9-2.5,1.8-3.6s1.8-2,3-2.6l1.8-1c1.2-0.7,2.4-1.1,3.8-1.3c1.3-0.2,2.7-0.1,4,0.2
				c1.3,0.4,2.5,0.9,3.6,1.8s2,1.8,2.6,3c0.7,1.2,1.1,2.4,1.3,3.8s0.1,2.7-0.2,4s-0.9,2.5-1.8,3.6s-1.8,2-3,2.6l-1.8,1
				C1038.6,431.5,1037.3,432,1036,432.1z M977.5,460.5c-1.3,0-2.7-0.2-3.9-0.8c-1.2-0.5-2.4-1.2-3.3-2.2s-1.7-2.1-2.2-3.3
				c-0.5-1.2-0.8-2.5-0.8-3.9s0.2-2.7,0.8-3.9c0.5-1.2,1.2-2.4,2.2-3.3c1-1,2.1-1.7,3.3-2.2l1.9-0.8c1.2-0.5,2.5-0.8,3.9-0.8
				c1.3,0,2.7,0.2,3.9,0.8c1.2,0.5,2.4,1.2,3.3,2.2s1.7,2.1,2.2,3.3c0.5,1.2,0.8,2.5,0.8,3.9s-0.2,2.7-0.8,3.9
				c-0.5,1.2-1.2,2.4-2.2,3.3c-1,1-2.1,1.7-3.3,2.2l-1.9,0.8C980.2,460.2,978.9,460.5,977.5,460.5z M915.8,480.9
				c-1.3-0.2-2.6-0.6-3.8-1.3c-1.2-0.7-2.2-1.5-3-2.6s-1.4-2.3-1.8-3.6c-0.3-1.3-0.4-2.6-0.3-4c0.2-1.3,0.6-2.6,1.3-3.8
				c0.7-1.2,1.5-2.2,2.6-3s2.3-1.4,3.6-1.8l2-0.5c1.3-0.4,2.6-0.4,4-0.3c1.3,0.2,2.6,0.6,3.8,1.3c1.2,0.7,2.2,1.5,3,2.6
				s1.4,2.3,1.8,3.6c0.3,1.3,0.4,2.6,0.3,4c-0.2,1.3-0.6,2.6-1.3,3.8c-0.7,1.2-1.5,2.2-2.6,3s-2.3,1.4-3.6,1.8l-2,0.5
				C918.5,481,917.2,481.1,915.8,480.9z M851.9,493.1c-1.3-0.4-2.5-0.9-3.6-1.8s-2-1.8-2.6-3c-0.7-1.2-1.1-2.4-1.3-3.8
				s-0.1-2.7,0.2-4s0.9-2.5,1.8-3.6s1.8-2,3-2.6s2.4-1.1,3.8-1.3l2-0.3c1.3-0.2,2.7-0.1,4,0.2s2.5,0.9,3.6,1.8s2,1.8,2.6,3
				c0.7,1.2,1.1,2.4,1.3,3.8s0.1,2.7-0.2,4s-0.9,2.5-1.8,3.6s-1.8,2-3,2.6s-2.4,1.1-3.8,1.3l-2,0.3
				C854.6,493.6,853.2,493.5,851.9,493.1z M787.2,496.9c-1.2-0.5-2.4-1.2-3.3-2.2s-1.7-2.1-2.2-3.3c-0.5-1.2-0.8-2.5-0.8-3.9
				s0.2-2.7,0.8-3.9c0.5-1.2,1.2-2.4,2.2-3.3c1-1,2.1-1.7,3.3-2.2s2.5-0.8,3.9-0.8h2c1.3,0,2.7,0.2,3.9,0.8c1.2,0.5,2.4,1.2,3.3,2.2
				s1.7,2.1,2.2,3.3c0.5,1.2,0.8,2.5,0.8,3.9s-0.2,2.7-0.8,3.9c-0.5,1.2-1.2,2.4-2.2,3.3c-1,1-2.1,1.7-3.3,2.2s-2.5,0.8-3.9,0.8h-2
				C789.8,497.7,788.5,497.4,787.2,496.9z M722.6,492.2c-1.2-0.7-2.2-1.5-3-2.6s-1.4-2.3-1.8-3.6c-0.3-1.3-0.5-2.6-0.3-4
				c0.2-1.3,0.6-2.6,1.3-3.8c0.7-1.2,1.5-2.2,2.6-3s2.3-1.4,3.6-1.8s2.6-0.5,4-0.3l2,0.3c1.3,0.2,2.6,0.6,3.8,1.3
				c1.2,0.7,2.2,1.5,3,2.6s1.4,2.3,1.8,3.6c0.3,1.3,0.5,2.6,0.3,4c-0.2,1.3-0.6,2.6-1.3,3.8c-0.7,1.2-1.5,2.2-2.6,3
				s-2.3,1.4-3.6,1.8s-2.6,0.5-4,0.3l-2-0.3C725,493.3,723.8,492.9,722.6,492.2z M658.9,479.1c-1.1-0.8-2-1.8-2.6-3
				c-0.7-1.2-1.1-2.4-1.3-3.8s-0.1-2.7,0.2-4s0.9-2.5,1.8-3.6s1.8-2,3-2.6c1.2-0.7,2.4-1.1,3.8-1.3c1.3-0.2,2.7-0.1,4,0.2l2,0.5
				c1.3,0.4,2.5,0.9,3.6,1.8s2,1.8,2.6,3c0.7,1.2,1.1,2.4,1.3,3.8s0.1,2.7-0.2,4s-0.9,2.5-1.8,3.6s-1.8,2-3,2.6
				c-1.2,0.7-2.4,1.1-3.8,1.3c-1.3,0.2-2.7,0.1-4-0.2l-2-0.5C661.2,480.5,660,479.9,658.9,479.1z M597.5,457.8c-1-1-1.7-2.1-2.2-3.3
				c-0.5-1.2-0.8-2.5-0.8-3.9s0.2-2.7,0.8-3.9c0.5-1.2,1.2-2.4,2.2-3.3c1-1,2.1-1.7,3.3-2.2s2.5-0.8,3.9-0.8c1.3,0,2.7,0.2,3.9,0.8
				l1.9,0.8c1.2,0.5,2.4,1.2,3.3,2.2s1.7,2.1,2.2,3.3c0.5,1.2,0.8,2.5,0.8,3.9s-0.2,2.7-0.8,3.9c-0.5,1.2-1.2,2.4-2.2,3.3
				c-1,1-2.1,1.7-3.3,2.2s-2.5,0.8-3.9,0.8c-1.3,0-2.7-0.2-3.9-0.8l-1.9-0.8C599.5,459.5,598.4,458.7,597.5,457.8z M539.4,428.6
				c-0.8-1.1-1.4-2.3-1.8-3.6c-0.3-1.3-0.4-2.6-0.3-4c0.2-1.3,0.6-2.6,1.3-3.8c0.7-1.2,1.5-2.2,2.6-3s2.3-1.4,3.6-1.8s2.6-0.4,4-0.3
				c1.3,0.2,2.6,0.6,3.8,1.3l1.8,1c1.2,0.7,2.2,1.5,3,2.6s1.4,2.3,1.8,3.6c0.3,1.3,0.5,2.6,0.3,4c-0.2,1.3-0.6,2.6-1.3,3.8
				c-0.7,1.2-1.5,2.2-2.6,3s-2.3,1.4-3.6,1.8s-2.6,0.4-4,0.3c-1.3-0.2-2.6-0.6-3.8-1.3l-1.8-1C541.3,430.6,540.3,429.7,539.4,428.6z
				 M485.6,392.1c-0.7-1.2-1.1-2.4-1.3-3.8c-0.2-1.3-0.1-2.7,0.2-4s0.9-2.5,1.8-3.6s1.8-2,3-2.6c1.2-0.7,2.4-1.1,3.8-1.3
				c1.3-0.2,2.7-0.1,4,0.2s2.5,0.9,3.6,1.8l1.6,1.2c1.1,0.8,2,1.8,2.6,3c0.7,1.2,1.1,2.4,1.3,3.8c0.2,1.3,0.1,2.7-0.2,4
				s-0.9,2.5-1.8,3.6s-1.8,2-3,2.6c-1.2,0.7-2.4,1.1-3.8,1.3c-1.3,0.2-2.7,0.1-4-0.2s-2.5-0.9-3.6-1.8l-1.6-1.2
				C487.2,394.3,486.3,393.3,485.6,392.1z M437.1,348.9c-0.5-1.2-0.8-2.5-0.8-3.9s0.2-2.7,0.8-3.9s1.2-2.4,2.2-3.3
				c1-1,2.1-1.7,3.3-2.2s2.5-0.8,3.9-0.8s2.7,0.2,3.9,0.8s2.4,1.2,3.3,2.2l1.5,1.5c1,1,1.7,2.1,2.2,3.3s0.8,2.5,0.8,3.9
				s-0.2,2.7-0.8,3.9c-0.5,1.2-1.2,2.4-2.2,3.3c-1,1-2.1,1.7-3.3,2.2s-2.5,0.8-3.9,0.8s-2.7-0.2-3.9-0.8s-2.4-1.2-3.3-2.2l-1.5-1.5
				C438.3,351.2,437.6,350.1,437.1,348.9z M394.6,299.7c-0.4-1.3-0.4-2.6-0.3-4c0.2-1.3,0.6-2.6,1.3-3.8c0.7-1.2,1.5-2.2,2.6-3
				s2.3-1.4,3.6-1.8c1.3-0.4,2.6-0.4,4-0.3c1.3,0.2,2.6,0.6,3.8,1.3c1.2,0.7,2.2,1.5,3,2.6l1.3,1.6c0.8,1.1,1.4,2.3,1.8,3.6
				c0.4,1.3,0.4,2.6,0.3,4c-0.2,1.3-0.6,2.6-1.3,3.8c-0.7,1.2-1.5,2.2-2.6,3s-2.3,1.4-3.6,1.8c-1.3,0.4-2.6,0.4-4,0.3
				c-1.3-0.2-2.6-0.6-3.8-1.3c-1.2-0.7-2.2-1.5-3-2.6l-1.3-1.6C395.5,302.2,394.9,301,394.6,299.7z M358.9,245.3
				c-0.2-1.3-0.1-2.7,0.2-4s0.9-2.5,1.8-3.6s1.8-1.9,3-2.6c1.2-0.7,2.4-1.1,3.8-1.3s2.7-0.1,4,0.2s2.5,0.9,3.6,1.8s2,1.8,2.6,3
				l1,1.8c0.7,1.2,1.1,2.4,1.3,3.8c0.2,1.3,0.1,2.7-0.2,4s-0.9,2.5-1.8,3.6s-1.8,1.9-3,2.6c-1.2,0.7-2.4,1.1-3.8,1.3
				c-1.3,0.2-2.7,0.1-4-0.2s-2.5-0.9-3.6-1.8s-2-1.8-2.6-3l-1-1.8C359.5,247.9,359,246.7,358.9,245.3z M330.6,186.9
				c0-1.4,0.2-2.7,0.8-3.9s1.2-2.4,2.2-3.3s2.1-1.7,3.3-2.2s2.5-0.8,3.9-0.8s2.7,0.2,3.9,0.8s2.4,1.2,3.3,2.2s1.7,2.1,2.2,3.3
				l0.8,1.9c0.5,1.2,0.8,2.6,0.8,3.9c0,1.4-0.2,2.7-0.8,3.9s-1.2,2.4-2.2,3.3s-2.1,1.7-3.3,2.2s-2.5,0.8-3.9,0.8s-2.7-0.2-3.9-0.8
				s-2.4-1.2-3.3-2.2c-1-1-1.7-2.1-2.2-3.3l-0.8-1.9C330.9,189.5,330.6,188.2,330.6,186.9z M310.2,125.1c0.2-1.3,0.6-2.6,1.3-3.8
				c0.7-1.2,1.5-2.2,2.6-3s2.3-1.4,3.6-1.8s2.6-0.4,4-0.3s2.6,0.6,3.8,1.3c1.2,0.7,2.2,1.6,3,2.6s1.4,2.3,1.8,3.6l0.5,2
				c0.4,1.3,0.4,2.6,0.3,4c-0.2,1.3-0.6,2.6-1.3,3.8c-0.7,1.2-1.5,2.2-2.6,3s-2.3,1.4-3.6,1.8s-2.6,0.4-4,0.3
				c-1.3-0.2-2.6-0.6-3.8-1.3c-1.2-0.7-2.2-1.6-3-2.6c-0.8-1.1-1.4-2.3-1.8-3.6l-0.5-2C310.1,127.8,310,126.5,310.2,125.1z
				 M298,61.2c0.4-1.3,0.9-2.5,1.8-3.6c0.8-1.1,1.8-2,3-2.6c1.2-0.7,2.4-1.1,3.8-1.3s2.7-0.1,4,0.2s2.5,0.9,3.6,1.8
				c1.1,0.8,2,1.8,2.6,3c0.7,1.2,1.1,2.4,1.3,3.8l0.3,2c0.2,1.3,0.1,2.7-0.2,4c-0.4,1.3-0.9,2.5-1.8,3.6c-0.8,1.1-1.8,1.9-3,2.6
				s-2.4,1.1-3.8,1.3s-2.7,0.1-4-0.2c-1.3-0.3-2.5-0.9-3.6-1.8c-1.1-0.8-2-1.8-2.6-3s-1.1-2.4-1.3-3.8l-0.3-2
				C297.6,63.9,297.6,62.5,298,61.2z"/>
		</g>
	</g>
</g>
<g>
	<path class="st5" d="M1154,226.1c4.4,0,8.8,0.2,13.1,0.6s8.7,1.1,13,1.9c4.3,0.9,8.6,1.9,12.8,3.2c4.2,1.3,8.3,2.8,12.4,4.4
		s8,3.6,11.9,5.6c3.9,2.1,7.6,4.3,11.3,6.8s7.2,5.1,10.6,7.8c3.4,2.8,6.7,5.7,9.8,8.8c3.1,3.1,6.1,6.4,8.8,9.8
		c2.8,3.4,5.4,6.9,7.8,10.6s4.7,7.4,6.8,11.3c2.1,3.9,3.9,7.8,5.6,11.9s3.2,8.2,4.4,12.4s2.3,8.5,3.2,12.8s1.5,8.6,1.9,13
		s0.7,8.8,0.7,13.1s-0.2,8.8-0.7,13.1c-0.4,4.4-1.1,8.7-1.9,13c-0.9,4.3-1.9,8.6-3.2,12.8c-1.3,4.2-2.8,8.3-4.4,12.4
		c-1.7,4.1-3.6,8-5.6,11.9c-2.1,3.9-4.3,7.6-6.8,11.3c-2.4,3.6-5.1,7.2-7.8,10.6c-2.8,3.4-5.7,6.6-8.8,9.8c-3.1,3.1-6.4,6-9.8,8.8
		s-6.9,5.4-10.6,7.8s-7.4,4.7-11.3,6.8c-3.9,2.1-7.8,4-11.9,5.6s-8.2,3.2-12.4,4.4c-4.2,1.3-8.5,2.3-12.8,3.2
		c-4.3,0.9-8.7,1.5-13,1.9s-8.8,0.6-13.1,0.6s-8.8-0.2-13.1-0.6s-8.7-1.1-13-1.9s-8.6-1.9-12.8-3.2c-4.2-1.3-8.3-2.8-12.4-4.4
		s-8-3.6-11.9-5.6c-3.9-2.1-7.6-4.3-11.3-6.8s-7.2-5-10.6-7.8s-6.7-5.7-9.8-8.8c-3.1-3.1-6.1-6.4-8.8-9.8c-2.8-3.4-5.4-6.9-7.8-10.6
		s-4.7-7.4-6.8-11.3c-2.1-3.9-3.9-7.8-5.6-11.9s-3.2-8.2-4.4-12.4s-2.3-8.5-3.2-12.8s-1.5-8.6-1.9-13s-0.7-8.8-0.7-13.1
		s0.2-8.8,0.7-13.1c0.4-4.4,1.1-8.7,1.9-13s1.9-8.6,3.2-12.8c1.3-4.2,2.8-8.3,4.4-12.4c1.7-4.1,3.6-8,5.6-11.9
		c2.1-3.9,4.3-7.6,6.8-11.3c2.4-3.6,5.1-7.2,7.8-10.6c2.8-3.4,5.7-6.6,8.8-9.8c3.1-3.1,6.4-6,9.8-8.8c3.4-2.8,6.9-5.4,10.6-7.8
		c3.7-2.4,7.4-4.7,11.3-6.8s7.8-3.9,11.9-5.6c4.1-1.7,8.2-3.2,12.4-4.4c4.2-1.3,8.5-2.3,12.8-3.2s8.7-1.5,13-1.9
		C1145.2,226.4,1149.6,226.1,1154,226.1z"/>
</g>
<g>
	<g>
		<g>
			<defs>
				<rect id="SVGID_11_" x="3655.5" y="1276.6" width="735.1" height="275.5"/>
			</defs>
			<clipPath id="SVGID_12_">
				<use xlink:href="#SVGID_11_"  style="overflow:visible;"/>
			</clipPath>
			<path class="st6" d="M3655.5,1644.2c0,203,164.6,367.6,367.6,367.6s367.6-164.6,367.6-367.6s-164.6-367.6-367.6-367.6
				S3655.5,1441.2,3655.5,1644.2z M4023.1,1313.3c182.4,0,330.8,148.4,330.8,330.8s-148.4,330.8-330.8,330.8
				c-182.4,0-330.8-148.4-330.8-330.8S3840.6,1313.3,4023.1,1313.3"/>
		</g>
	</g>
</g>
<g>
	<path class="st7" d="M3907.8,975c2.9,0,5.7,0.1,8.5,0.4c2.8,0.3,5.7,0.7,8.4,1.2c2.8,0.6,5.6,1.2,8.3,2.1s5.4,1.8,8.1,2.9
		s5.2,2.3,7.7,3.7s5,2.8,7.3,4.4s4.7,3.3,6.9,5.1s4.3,3.7,6.3,5.7s3.9,4.1,5.7,6.3s3.5,4.5,5.1,6.9s3.1,4.8,4.4,7.3
		c1.3,2.5,2.6,5.1,3.6,7.7c1.1,2.6,2.1,5.3,2.9,8.1c0.8,2.7,1.5,5.5,2.1,8.3s1,5.6,1.2,8.4c0.3,2.8,0.4,5.7,0.4,8.5
		s-0.1,5.7-0.4,8.5c-0.3,2.8-0.7,5.7-1.2,8.4c-0.6,2.8-1.2,5.6-2.1,8.3s-1.8,5.4-2.9,8.1c-1.1,2.6-2.3,5.2-3.6,7.7s-2.8,5-4.4,7.3
		c-1.6,2.4-3.3,4.7-5.1,6.9s-3.7,4.3-5.7,6.3s-4.1,3.9-6.3,5.7c-2.2,1.8-4.5,3.5-6.9,5.1s-4.8,3.1-7.3,4.4s-5.1,2.6-7.7,3.7
		s-5.3,2.1-8.1,2.9s-5.5,1.5-8.3,2.1s-5.6,1-8.4,1.2c-2.8,0.3-5.7,0.4-8.5,0.4s-5.7-0.1-8.5-0.4s-5.7-0.7-8.4-1.2
		c-2.8-0.6-5.6-1.2-8.3-2.1s-5.4-1.8-8.1-2.9c-2.6-1.1-5.2-2.3-7.7-3.7s-5-2.8-7.3-4.4s-4.7-3.3-6.9-5.1c-2.2-1.8-4.3-3.7-6.3-5.7
		s-3.9-4.1-5.7-6.3c-1.8-2.2-3.5-4.5-5.1-6.9s-3.1-4.8-4.4-7.3c-1.3-2.5-2.6-5.1-3.6-7.7c-1.1-2.6-2.1-5.3-2.9-8.1
		c-0.8-2.7-1.5-5.5-2.1-8.3s-1-5.6-1.2-8.4c-0.3-2.8-0.4-5.7-0.4-8.5s0.1-5.7,0.4-8.5c0.3-2.8,0.7-5.7,1.2-8.4
		c0.6-2.8,1.2-5.6,2.1-8.3s1.8-5.4,2.9-8.1c1.1-2.6,2.3-5.2,3.6-7.7s2.8-5,4.4-7.3c1.6-2.4,3.3-4.7,5.1-6.9s3.7-4.3,5.7-6.3
		s4.1-3.9,6.3-5.7s4.5-3.5,6.9-5.1s4.8-3,7.3-4.4s5.1-2.6,7.7-3.7s5.3-2,8.1-2.9s5.5-1.5,8.3-2.1s5.6-1,8.4-1.2
		C3902.1,975.2,3905,975,3907.8,975z"/>
</g>
</svg>
