<?xml version="1.0" encoding="utf-8"?>
<!-- Generator: Adobe Illustrator 25.2.2, SVG Export Plug-In . SVG Version: 6.00 Build 0)  -->
<svg version="1.1" id="Layer_1" xmlns="http://www.w3.org/2000/svg" xmlns:xlink="http://www.w3.org/1999/xlink" x="0px" y="0px"
	 viewBox="0 0 4928 1552" style="enable-background:new 0 0 4928 1552;" xml:space="preserve">
<style type="text/css">
	.st0{clip-path:url(#SVGID_2_);}
	.st1{clip-path:url(#SVGID_4_);fill:#FFC62F;}
	.st2{fill:#5BCBF5;}
	.st3{clip-path:url(#SVGID_6_);fill:#CE202F;}
	.st4{clip-path:url(#SVGID_8_);fill:#5AB75B;}
	.st5{clip-path:url(#SVGID_10_);fill:#1D82C5;}
	.st6{fill:#CE202F;}
</style>
<g>
	<defs>
		<rect id="SVGID_1_" width="4928" height="1552"/>
	</defs>
	<clipPath id="SVGID_2_">
		<use xlink:href="#SVGID_1_"  style="overflow:visible;"/>
	</clipPath>
	<g class="st0">
		<g>
			<g>
				<defs>
					<rect id="SVGID_3_" x="1314.8" width="1896" height="421.8"/>
				</defs>
				<clipPath id="SVGID_4_">
					<use xlink:href="#SVGID_3_"  style="overflow:visible;"/>
				</clipPath>
				<path class="st1" d="M3210-526.2c0,523.7-424.4,948-948,948s-946.4-424.4-946.4-948H3210z"/>
			</g>
			<g>
				<path class="st2" d="M3581.2,299.1c0-5.2-0.3-10.5-0.8-15.7c-0.5-5.2-1.3-10.4-2.3-15.5c-1-5.1-2.3-10.2-3.8-15.2
					c-1.5-5-3.3-9.9-5.3-14.8c-2-4.8-4.2-9.6-6.7-14.2c-2.5-4.6-5.2-9.1-8.1-13.5c-2.9-4.4-6-8.6-9.4-12.6
					c-3.3-4.1-6.8-7.9-10.5-11.6c-3.7-3.7-7.6-7.2-11.6-10.5c-4.1-3.3-8.3-6.4-12.6-9.4c-4.4-2.9-8.8-5.6-13.5-8.1
					c-4.6-2.5-9.4-4.7-14.2-6.7c-4.8-2-9.8-3.8-14.8-5.3s-10.1-2.8-15.2-3.8c-5.1-1-10.3-1.8-15.5-2.3c-5.2-0.5-10.4-0.8-15.7-0.8
					c-5.2,0-10.5,0.3-15.7,0.8c-5.2,0.5-10.4,1.3-15.5,2.3c-5.1,1-10.2,2.3-15.2,3.8s-9.9,3.3-14.8,5.3c-4.8,2-9.6,4.2-14.2,6.7
					c-4.6,2.5-9.1,5.2-13.5,8.1c-4.4,2.9-8.6,6-12.6,9.4c-4.1,3.3-7.9,6.8-11.6,10.5c-3.7,3.7-7.2,7.6-10.5,11.6
					c-3.3,4.1-6.4,8.3-9.4,12.6c-2.9,4.4-5.6,8.8-8.1,13.5c-2.5,4.6-4.7,9.4-6.7,14.2c-2,4.8-3.8,9.8-5.3,14.8
					c-1.5,5-2.8,10.1-3.8,15.2c-1,5.1-1.8,10.3-2.3,15.5c-0.5,5.2-0.8,10.4-0.8,15.7s0.3,10.5,0.8,15.7c0.5,5.2,1.3,10.4,2.3,15.5
					c1,5.1,2.3,10.2,3.8,15.2s3.3,9.9,5.3,14.8c2,4.8,4.2,9.6,6.7,14.2c2.5,4.6,5.2,9.1,8.1,13.5c2.9,4.4,6,8.6,9.4,12.6
					c3.3,4.1,6.8,7.9,10.5,11.6c3.7,3.7,7.6,7.2,11.6,10.5c4.1,3.3,8.3,6.4,12.6,9.4c4.4,2.9,8.8,5.6,13.5,8.1
					c4.6,2.5,9.4,4.7,14.2,6.7c4.8,2,9.8,3.8,14.8,5.3c5,1.5,10.1,2.8,15.2,3.8c5.1,1,10.3,1.8,15.5,2.3c5.2,0.5,10.4,0.8,15.7,0.8
					c5.2,0,10.5-0.3,15.7-0.8c5.2-0.5,10.4-1.3,15.5-2.3c5.1-1,10.2-2.3,15.2-3.8s9.9-3.3,14.8-5.3c4.8-2,9.6-4.2,14.2-6.7
					c4.6-2.5,9.1-5.2,13.5-8.1c4.4-2.9,8.6-6,12.6-9.4c4.1-3.3,7.9-6.8,11.6-10.5c3.7-3.7,7.2-7.6,10.5-11.6
					c3.3-4.1,6.4-8.3,9.4-12.6c2.9-4.4,5.6-8.8,8.1-13.5c2.5-4.6,4.7-9.4,6.7-14.2c2-4.8,3.8-9.8,5.3-14.8c1.5-5,2.8-10.1,3.8-15.2
					c1-5.1,1.8-10.3,2.3-15.5C3581,309.5,3581.2,304.3,3581.2,299.1z"/>
			</g>
			<g>
				<defs>
					<rect id="SVGID_5_" x="2701.7" width="880.5" height="354.4"/>
				</defs>
				<clipPath id="SVGID_6_">
					<use xlink:href="#SVGID_5_"  style="overflow:visible;"/>
				</clipPath>
				<path class="st3" d="M3582.3-85.8l0,1.8c0,1.2-0.2,2.4-0.7,3.5c-0.5,1.1-1.1,2.1-2,2.9c-0.8,0.8-1.8,1.5-2.9,2
					c-1.1,0.5-2.3,0.7-3.5,0.7c-1.2,0-2.4-0.2-3.5-0.7s-2.1-1.1-2.9-2c-0.8-0.8-1.5-1.8-2-2.9c-0.5-1.1-0.7-2.3-0.7-3.5l0-1.8
					c0-1.2,0.2-2.4,0.7-3.5c0.5-1.1,1.1-2.1,2-2.9c0.8-0.8,1.8-1.5,2.9-2c1.1-0.5,2.3-0.7,3.5-0.7s2.4,0.2,3.5,0.7s2.1,1.1,2.9,2
					c0.8,0.8,1.5,1.8,2,2.9C3582.1-88.2,3582.3-87,3582.3-85.8z M3578.8-141.9l0.1,0.7l0.1,1.1c0.1,1.2,0.1,2.4-0.3,3.5
					c-0.3,1.2-0.8,2.2-1.6,3.2c-0.7,0.9-1.6,1.7-2.7,2.3c-1,0.6-2.2,1-3.3,1.1c-1.2,0.1-2.4,0.1-3.5-0.3c-1.2-0.3-2.2-0.8-3.2-1.6
					s-1.7-1.6-2.3-2.7c-0.6-1-1-2.2-1.1-3.3l-0.1-1.1l-0.1-0.7c-0.2-1.2-0.1-2.4,0.2-3.5c0.3-1.2,0.8-2.2,1.6-3.2
					c0.7-0.9,1.6-1.7,2.7-2.3c1-0.6,2.2-1,3.3-1.1c1.2-0.2,2.4-0.1,3.5,0.2c1.2,0.3,2.2,0.8,3.2,1.6c0.9,0.7,1.7,1.6,2.3,2.7
					C3578.2-144.2,3578.6-143.1,3578.8-141.9z M3567.7-198.5l0.5,1.8c0.3,1.2,0.4,2.3,0.2,3.5c-0.2,1.2-0.5,2.3-1.2,3.3
					c-0.6,1-1.4,1.9-2.3,2.6c-1,0.7-2,1.2-3.2,1.5s-2.3,0.4-3.5,0.2c-1.2-0.2-2.3-0.5-3.3-1.2c-1-0.6-1.9-1.4-2.6-2.3
					c-0.7-1-1.2-2-1.5-3.2l-0.5-1.8c-0.3-1.2-0.4-2.3-0.2-3.5c0.2-1.2,0.5-2.3,1.2-3.3c0.6-1,1.4-1.9,2.3-2.6s2-1.2,3.2-1.5
					s2.3-0.4,3.5-0.2c1.2,0.2,2.3,0.5,3.3,1.2c1,0.6,1.9,1.4,2.6,2.3C3566.9-200.7,3567.4-199.6,3567.7-198.5z M3549.3-253.1
					l0.7,1.7c0.5,1.1,0.7,2.3,0.7,3.5c0,1.2-0.2,2.4-0.7,3.5c-0.5,1.1-1.1,2.1-2,2.9c-0.9,0.8-1.8,1.5-2.9,1.9
					c-1.1,0.5-2.3,0.7-3.5,0.7c-1.2,0-2.4-0.2-3.5-0.7c-1.1-0.5-2.1-1.1-2.9-2c-0.8-0.9-1.5-1.8-1.9-2.9l-0.7-1.7
					c-0.5-1.1-0.7-2.3-0.7-3.5c0-1.2,0.2-2.4,0.7-3.5c0.5-1.1,1.1-2.1,2-2.9c0.9-0.8,1.8-1.5,2.9-1.9c1.1-0.5,2.3-0.7,3.5-0.7
					c1.2,0,2.4,0.2,3.5,0.7c1.1,0.5,2.1,1.1,2.9,2C3548.2-255.2,3548.9-254.2,3549.3-253.1z M3524-304.9l0.9,1.6
					c0.6,1,1,2.2,1.1,3.3c0.2,1.2,0.1,2.4-0.2,3.5c-0.3,1.2-0.8,2.2-1.6,3.2c-0.7,0.9-1.6,1.7-2.7,2.3c-1,0.6-2.2,1-3.3,1.1
					c-1.2,0.2-2.4,0.1-3.5-0.2c-1.2-0.3-2.2-0.8-3.2-1.6c-0.9-0.7-1.7-1.6-2.3-2.7l-0.9-1.6c-0.6-1-1-2.2-1.1-3.3
					c-0.2-1.2-0.1-2.4,0.2-3.5c0.3-1.2,0.8-2.2,1.6-3.2c0.7-0.9,1.6-1.7,2.7-2.3c1-0.6,2.2-1,3.3-1.1c1.2-0.2,2.4-0.1,3.5,0.2
					c1.2,0.3,2.2,0.8,3.2,1.6C3522.6-306.8,3523.4-305.9,3524-304.9z M3492.1-352.9l1.1,1.5c0.7,1,1.2,2,1.5,3.2
					c0.3,1.2,0.4,2.3,0.2,3.5c-0.2,1.2-0.5,2.3-1.2,3.3c-0.6,1-1.4,1.9-2.3,2.6c-1,0.7-2,1.2-3.2,1.5c-1.2,0.3-2.3,0.4-3.5,0.2
					s-2.3-0.5-3.3-1.2c-1-0.6-1.9-1.4-2.6-2.3l-1.1-1.5c-0.7-1-1.2-2-1.5-3.2c-0.3-1.2-0.4-2.3-0.2-3.5c0.2-1.2,0.5-2.3,1.2-3.3
					c0.6-1,1.4-1.9,2.3-2.6s2-1.2,3.2-1.5c1.2-0.3,2.3-0.4,3.5-0.2c1.2,0.2,2.3,0.5,3.3,1.2S3491.4-353.8,3492.1-352.9z
					 M3454.2-396.3l1.3,1.3c0.8,0.9,1.5,1.8,1.9,2.9s0.7,2.3,0.7,3.5c0,1.2-0.2,2.4-0.7,3.5c-0.5,1.1-1.1,2.1-2,2.9
					c-0.9,0.8-1.8,1.5-2.9,1.9c-1.1,0.5-2.3,0.7-3.5,0.7c-1.2,0-2.4-0.2-3.5-0.7c-1.1-0.5-2.1-1.1-2.9-2l-1.3-1.3
					c-0.8-0.9-1.5-1.8-1.9-2.9c-0.5-1.1-0.7-2.3-0.7-3.5c0-1.2,0.2-2.4,0.7-3.5c0.5-1.1,1.1-2.1,2-2.9c0.9-0.8,1.8-1.5,2.9-1.9
					c1.1-0.5,2.3-0.7,3.5-0.7c1.2,0,2.4,0.2,3.5,0.7C3452.4-397.9,3453.3-397.2,3454.2-396.3z M3410.9-434.5l1.4,1.1
					c0.9,0.7,1.7,1.6,2.3,2.7c0.6,1,1,2.2,1.1,3.3c0.2,1.2,0.1,2.4-0.2,3.5c-0.3,1.2-0.8,2.2-1.6,3.2s-1.6,1.7-2.7,2.3
					c-1,0.6-2.2,1-3.3,1.1c-1.2,0.2-2.4,0.1-3.5-0.2s-2.2-0.8-3.2-1.6l-1.4-1.1c-0.9-0.7-1.7-1.6-2.3-2.7c-0.6-1-1-2.2-1.1-3.3
					c-0.2-1.2-0.1-2.4,0.2-3.5c0.3-1.2,0.8-2.2,1.6-3.2c0.7-0.9,1.6-1.7,2.7-2.3c1-0.6,2.2-1,3.3-1.1c1.2-0.2,2.4-0.1,3.5,0.2
					C3408.9-435.7,3410-435.2,3410.9-434.5z M3363.1-466.6l0.2,0.1l1.4,0.8c1,0.6,1.9,1.4,2.6,2.3c0.7,1,1.2,2,1.5,3.2
					c0.3,1.2,0.4,2.3,0.2,3.5c-0.2,1.2-0.5,2.3-1.1,3.3c-0.6,1-1.4,1.9-2.3,2.6c-1,0.7-2,1.2-3.2,1.5c-1.2,0.3-2.3,0.4-3.5,0.2
					c-1.2-0.2-2.3-0.5-3.3-1.1l-1.4-0.8l-0.2-0.1c-1-0.6-1.9-1.4-2.6-2.3s-1.2-2-1.6-3.2c-0.3-1.2-0.4-2.3-0.2-3.5
					c0.2-1.2,0.5-2.3,1.1-3.3c0.6-1,1.4-1.9,2.3-2.6c1-0.7,2-1.2,3.2-1.6c1.2-0.3,2.3-0.4,3.5-0.2S3362-467.2,3363.1-466.6z
					 M3311.5-492.2l1.7,0.7c1.1,0.5,2.1,1.1,2.9,2c0.8,0.9,1.5,1.8,1.9,2.9c0.5,1.1,0.7,2.3,0.7,3.5c0,1.2-0.2,2.4-0.7,3.5
					s-1.1,2.1-2,2.9c-0.9,0.8-1.8,1.5-2.9,1.9c-1.1,0.5-2.3,0.7-3.5,0.7c-1.2,0-2.4-0.2-3.5-0.7l-1.7-0.7c-1.1-0.5-2.1-1.1-2.9-2
					c-0.8-0.9-1.5-1.8-1.9-2.9c-0.5-1.1-0.7-2.3-0.7-3.5c0-1.2,0.2-2.4,0.7-3.5c0.5-1.1,1.1-2.1,2-2.9s1.8-1.5,2.9-1.9
					c1.1-0.5,2.3-0.7,3.5-0.7C3309.2-492.9,3310.4-492.7,3311.5-492.2z M3256.9-510.9l1.8,0.5c1.2,0.3,2.2,0.8,3.2,1.6
					c0.9,0.7,1.7,1.6,2.3,2.7c0.6,1,1,2.2,1.1,3.3c0.2,1.2,0.1,2.4-0.2,3.5c-0.3,1.2-0.8,2.2-1.6,3.2c-0.7,0.9-1.6,1.7-2.7,2.3
					c-1,0.6-2.2,1-3.3,1.1c-1.2,0.2-2.4,0.1-3.5-0.2l-1.8-0.5c-1.2-0.3-2.2-0.8-3.2-1.6c-0.9-0.7-1.7-1.6-2.3-2.7
					c-0.6-1-1-2.2-1.1-3.3c-0.2-1.2-0.1-2.4,0.2-3.5c0.3-1.2,0.8-2.2,1.6-3.2c0.7-0.9,1.6-1.7,2.7-2.3c1-0.6,2.2-1,3.3-1.1
					C3254.6-511.3,3255.8-511.2,3256.9-510.9z M3200.4-522.2l1.8,0.2c1.2,0.2,2.3,0.5,3.3,1.1c1,0.6,1.9,1.4,2.6,2.3
					c0.7,1,1.2,2,1.5,3.2c0.3,1.2,0.4,2.3,0.2,3.5s-0.5,2.3-1.1,3.3c-0.6,1-1.4,1.9-2.3,2.6c-1,0.7-2,1.2-3.2,1.5
					c-1.2,0.3-2.3,0.4-3.5,0.2l-1.8-0.2c-1.2-0.2-2.3-0.5-3.3-1.1c-1-0.6-1.9-1.4-2.6-2.3c-0.7-1-1.2-2-1.5-3.2
					c-0.3-1.2-0.4-2.3-0.2-3.5c0.2-1.2,0.5-2.3,1.1-3.3c0.6-1,1.4-1.9,2.3-2.6c1-0.7,2-1.2,3.2-1.5
					C3198-522.3,3199.2-522.4,3200.4-522.2z M3143-526.1l1.8,0c1.2,0,2.4,0.2,3.5,0.7c1.1,0.5,2.1,1.1,2.9,2
					c0.8,0.9,1.5,1.8,1.9,2.9c0.5,1.1,0.7,2.3,0.7,3.5c0,1.2-0.2,2.4-0.7,3.5s-1.1,2.1-2,2.9c-0.9,0.8-1.8,1.5-2.9,1.9
					c-1.1,0.5-2.3,0.7-3.5,0.7l-1.8,0c-1.2,0-2.4-0.2-3.5-0.7c-1.1-0.5-2.1-1.1-2.9-2c-0.8-0.9-1.5-1.8-1.9-2.9
					c-0.5-1.1-0.7-2.3-0.7-3.5c0-1.2,0.2-2.4,0.7-3.5c0.5-1.1,1.1-2.1,2-2.9c0.9-0.8,1.8-1.5,2.9-1.9S3141.8-526.1,3143-526.1z
					 M3085.7-522.5l1.8-0.2c1.2-0.2,2.4-0.1,3.5,0.2c1.2,0.3,2.2,0.8,3.2,1.6c0.9,0.7,1.7,1.6,2.3,2.7c0.6,1,1,2.2,1.1,3.3
					c0.2,1.2,0.1,2.4-0.2,3.5c-0.3,1.2-0.8,2.2-1.6,3.2c-0.7,0.9-1.6,1.7-2.7,2.3c-1,0.6-2.2,1-3.3,1.1l-1.8,0.2
					c-1.2,0.2-2.4,0.1-3.5-0.2c-1.2-0.3-2.2-0.8-3.2-1.6c-0.9-0.7-1.7-1.6-2.3-2.7c-0.6-1-1-2.2-1.1-3.3c-0.2-1.2-0.1-2.4,0.2-3.5
					c0.3-1.2,0.8-2.2,1.6-3.2c0.7-0.9,1.6-1.7,2.7-2.3C3083.4-522,3084.5-522.3,3085.7-522.5z M3029.1-511.4l1.8-0.5
					c1.2-0.3,2.3-0.4,3.5-0.2c1.2,0.2,2.3,0.5,3.3,1.1c1,0.6,1.9,1.4,2.6,2.3s1.2,2,1.5,3.2c0.3,1.2,0.4,2.3,0.2,3.5
					c-0.2,1.2-0.5,2.3-1.1,3.3c-0.6,1-1.4,1.9-2.3,2.6s-2,1.2-3.2,1.5l-1.8,0.5c-1.2,0.3-2.3,0.4-3.5,0.2c-1.2-0.2-2.3-0.5-3.3-1.1
					c-1-0.6-1.9-1.4-2.6-2.3c-0.7-1-1.2-2-1.5-3.2c-0.3-1.2-0.4-2.3-0.2-3.5c0.2-1.2,0.5-2.3,1.1-3.3c0.6-1,1.4-1.9,2.3-2.6
					C3026.9-510.6,3027.9-511.1,3029.1-511.4z M2974.4-493l1.7-0.7c1.1-0.5,2.3-0.7,3.5-0.7c1.2,0,2.4,0.2,3.5,0.7
					c1.1,0.5,2.1,1.1,2.9,2c0.8,0.9,1.5,1.8,1.9,2.9c0.5,1.1,0.7,2.3,0.7,3.5c0,1.2-0.2,2.4-0.7,3.5c-0.5,1.1-1.1,2.1-2,2.9
					c-0.9,0.8-1.8,1.5-2.9,1.9l-1.7,0.7c-1.1,0.5-2.3,0.7-3.5,0.7c-1.2,0-2.4-0.2-3.5-0.7c-1.1-0.5-2.1-1.1-2.9-2
					c-0.8-0.9-1.5-1.8-1.9-2.9c-0.5-1.1-0.7-2.3-0.7-3.5c0-1.2,0.2-2.4,0.7-3.5c0.5-1.1,1.1-2.1,2-2.9
					C2972.3-491.9,2973.3-492.5,2974.4-493z M2922.7-467.6l1.6-0.9c1-0.6,2.2-1,3.3-1.1c1.2-0.2,2.4-0.1,3.5,0.2
					c1.2,0.3,2.2,0.8,3.2,1.6c0.9,0.7,1.7,1.6,2.3,2.7s1,2.2,1.1,3.3c0.2,1.2,0.1,2.4-0.2,3.5c-0.3,1.2-0.8,2.2-1.6,3.2
					c-0.7,0.9-1.6,1.7-2.7,2.3l-1.6,0.9c-1,0.6-2.2,1-3.3,1.1s-2.4,0.1-3.5-0.2c-1.2-0.3-2.2-0.8-3.2-1.6c-0.9-0.7-1.7-1.6-2.3-2.7
					c-0.6-1-1-2.2-1.1-3.3c-0.2-1.2-0.1-2.4,0.2-3.5c0.3-1.2,0.8-2.2,1.6-3.2C2920.8-466.2,2921.7-467,2922.7-467.6z M2874.7-435.7
					l1.5-1.1c1-0.7,2-1.2,3.2-1.5c1.2-0.3,2.3-0.4,3.5-0.2c1.2,0.2,2.3,0.5,3.3,1.1c1,0.6,1.9,1.4,2.6,2.3c0.7,1,1.2,2,1.5,3.2
					c0.3,1.2,0.4,2.3,0.2,3.5c-0.2,1.2-0.5,2.3-1.1,3.3c-0.6,1-1.4,1.9-2.3,2.6l-1.5,1.1c-1,0.7-2,1.2-3.2,1.5s-2.3,0.4-3.5,0.2
					c-1.2-0.2-2.3-0.5-3.3-1.1c-1-0.6-1.9-1.4-2.6-2.3s-1.2-2-1.5-3.2c-0.3-1.2-0.4-2.3-0.2-3.5c0.2-1.2,0.5-2.3,1.1-3.3
					C2873-434.1,2873.8-434.9,2874.7-435.7z M2831.3-397.7l1.3-1.3c0.9-0.8,1.8-1.5,2.9-1.9s2.3-0.7,3.5-0.7c1.2,0,2.4,0.2,3.5,0.7
					c1.1,0.5,2.1,1.1,2.9,2c0.8,0.9,1.5,1.8,1.9,2.9s0.7,2.3,0.7,3.5c0,1.2-0.2,2.4-0.7,3.5c-0.5,1.1-1.1,2.1-2,2.9l-1.3,1.3
					c-0.9,0.8-1.8,1.5-2.9,1.9c-1.1,0.5-2.3,0.7-3.5,0.7c-1.2,0-2.4-0.2-3.5-0.7c-1.1-0.5-2.1-1.1-2.9-2c-0.8-0.9-1.5-1.8-1.9-2.9
					c-0.5-1.1-0.7-2.3-0.7-3.5c0-1.2,0.2-2.4,0.7-3.5C2829.8-395.9,2830.4-396.9,2831.3-397.7z M2793.2-354.5l1.1-1.4
					c0.7-0.9,1.6-1.7,2.7-2.3c1-0.6,2.2-1,3.3-1.1c1.2-0.2,2.4-0.1,3.5,0.2c1.2,0.3,2.2,0.8,3.2,1.6c0.9,0.7,1.7,1.6,2.3,2.7
					c0.6,1,1,2.2,1.1,3.3c0.2,1.2,0.1,2.4-0.2,3.5c-0.3,1.2-0.8,2.2-1.6,3.2l-1.1,1.4c-0.7,0.9-1.6,1.7-2.7,2.3
					c-1,0.6-2.2,1-3.3,1.1c-1.2,0.2-2.4,0.1-3.5-0.2c-1.2-0.3-2.2-0.8-3.2-1.6c-0.9-0.7-1.7-1.6-2.3-2.7c-0.6-1-1-2.2-1.1-3.3
					c-0.2-1.2-0.1-2.4,0.2-3.5C2791.9-352.5,2792.5-353.5,2793.2-354.5z M2761.1-306.6l0.9-1.6c0.6-1,1.4-1.9,2.3-2.6
					c1-0.7,2-1.2,3.2-1.5c1.2-0.3,2.3-0.4,3.5-0.2s2.3,0.5,3.3,1.1c1,0.6,1.9,1.4,2.6,2.3c0.7,1,1.2,2,1.5,3.2
					c0.3,1.2,0.4,2.3,0.2,3.5c-0.2,1.2-0.5,2.3-1.1,3.3l-0.9,1.6c-0.6,1-1.4,1.9-2.3,2.6c-1,0.7-2,1.2-3.2,1.5
					c-1.2,0.3-2.3,0.4-3.5,0.2s-2.3-0.5-3.3-1.1c-1-0.6-1.9-1.4-2.6-2.3c-0.7-1-1.2-2-1.5-3.2c-0.3-1.2-0.4-2.3-0.2-3.5
					C2760.1-304.4,2760.5-305.5,2761.1-306.6z M2735.5-254.9l0.7-1.7c0.5-1.1,1.1-2.1,2-2.9c0.9-0.8,1.8-1.5,2.9-1.9
					c1.1-0.5,2.3-0.7,3.5-0.7c1.2,0,2.4,0.2,3.5,0.7c1.1,0.5,2.1,1.1,2.9,2c0.8,0.9,1.5,1.8,1.9,2.9c0.5,1.1,0.7,2.3,0.7,3.5
					c0,1.2-0.2,2.4-0.7,3.5l-0.7,1.7c-0.5,1.1-1.1,2.1-2,2.9c-0.9,0.8-1.8,1.5-2.9,1.9c-1.1,0.5-2.3,0.7-3.5,0.7
					c-1.2,0-2.4-0.2-3.5-0.7c-1.1-0.5-2.1-1.1-2.9-2c-0.8-0.9-1.5-1.8-1.9-2.9c-0.5-1.1-0.7-2.3-0.7-3.5
					C2734.8-252.7,2735.1-253.8,2735.5-254.9z M2716.9-200.4l0.5-1.8c0.3-1.2,0.8-2.2,1.6-3.2c0.7-0.9,1.6-1.7,2.7-2.3
					c1-0.6,2.2-1,3.3-1.1c1.2-0.2,2.4-0.1,3.5,0.2c1.2,0.3,2.2,0.8,3.2,1.6c0.9,0.7,1.7,1.6,2.3,2.7c0.6,1,1,2.2,1.1,3.3
					c0.2,1.2,0.1,2.4-0.2,3.5l-0.5,1.8c-0.3,1.2-0.8,2.2-1.6,3.2c-0.7,0.9-1.6,1.7-2.7,2.3c-1,0.6-2.2,1-3.3,1.1
					c-1.2,0.2-2.4,0.1-3.5-0.2c-1.2-0.3-2.2-0.8-3.2-1.6c-0.9-0.7-1.7-1.6-2.3-2.7c-0.6-1-1-2.2-1.1-3.3
					C2716.5-198.1,2716.6-199.2,2716.9-200.4z M2705.6-143.8l0.2-1.8c0.2-1.2,0.5-2.3,1.1-3.3c0.6-1,1.4-1.9,2.3-2.6
					c1-0.7,2-1.2,3.2-1.5c1.2-0.3,2.3-0.4,3.5-0.2c1.2,0.2,2.3,0.5,3.3,1.1c1,0.6,1.9,1.4,2.6,2.3c0.7,1,1.2,2,1.6,3.2
					c0.3,1.2,0.4,2.3,0.2,3.5l-0.2,1.8c-0.2,1.2-0.5,2.3-1.1,3.3c-0.6,1-1.4,1.9-2.3,2.6c-1,0.7-2,1.2-3.2,1.5
					c-1.2,0.3-2.3,0.4-3.5,0.2c-1.2-0.2-2.3-0.5-3.3-1.1s-1.9-1.4-2.6-2.3c-0.7-1-1.2-2-1.6-3.2
					C2705.5-141.4,2705.4-142.6,2705.6-143.8z M2701.8-86.5l0-1.8c0-1.2,0.2-2.4,0.7-3.5c0.5-1.1,1.1-2.1,2-2.9
					c0.9-0.8,1.8-1.5,2.9-1.9c1.1-0.5,2.3-0.7,3.5-0.7c1.2,0,2.4,0.2,3.5,0.7c1.1,0.5,2.1,1.1,2.9,2c0.8,0.9,1.5,1.8,1.9,2.9
					c0.5,1.1,0.7,2.3,0.7,3.5l0,1.8c0,1.2-0.2,2.4-0.7,3.5c-0.5,1.1-1.1,2.1-2,2.9c-0.9,0.8-1.8,1.5-2.9,1.9
					c-1.1,0.5-2.3,0.7-3.5,0.7c-1.2,0-2.4-0.2-3.5-0.7c-1.1-0.5-2.1-1.1-2.9-2c-0.8-0.9-1.5-1.8-1.9-2.9
					C2702-84.1,2701.7-85.3,2701.8-86.5z M2705.4-29.1l-0.2-1.8c-0.2-1.2-0.1-2.4,0.2-3.5c0.3-1.2,0.8-2.2,1.6-3.2
					c0.7-0.9,1.6-1.7,2.7-2.3c1-0.6,2.2-1,3.3-1.1c1.2-0.2,2.4-0.1,3.5,0.2c1.2,0.3,2.2,0.8,3.2,1.6c0.9,0.7,1.7,1.6,2.3,2.7
					c0.6,1,1,2.2,1.1,3.3l0.2,1.8c0.2,1.2,0.1,2.4-0.2,3.5c-0.3,1.2-0.8,2.2-1.6,3.2c-0.7,0.9-1.6,1.7-2.7,2.3c-1,0.6-2.2,1-3.3,1.1
					c-1.2,0.2-2.4,0.1-3.5-0.2c-1.2-0.3-2.2-0.8-3.2-1.6c-0.9-0.7-1.7-1.6-2.3-2.7C2705.9-26.8,2705.6-27.9,2705.4-29.1z
					 M2716.6,27.5l-0.5-1.8c-0.3-1.2-0.4-2.3-0.2-3.5c0.2-1.2,0.5-2.3,1.1-3.3c0.6-1,1.4-1.9,2.3-2.6c1-0.7,2-1.2,3.2-1.5
					c1.2-0.3,2.3-0.4,3.5-0.2c1.2,0.2,2.3,0.5,3.3,1.1c1,0.6,1.9,1.4,2.6,2.3c0.7,1,1.2,2,1.5,3.2l0.5,1.8c0.3,1.2,0.4,2.3,0.2,3.5
					c-0.2,1.2-0.5,2.3-1.1,3.3c-0.6,1-1.4,1.9-2.3,2.6c-1,0.7-2,1.2-3.2,1.5c-1.2,0.3-2.3,0.4-3.5,0.2c-1.2-0.2-2.3-0.5-3.3-1.1
					c-1-0.6-1.9-1.4-2.6-2.3C2717.4,29.7,2716.9,28.6,2716.6,27.5z M2735,82.1l-0.7-1.7c-0.5-1.1-0.7-2.3-0.7-3.5
					c0-1.2,0.2-2.4,0.7-3.5c0.5-1.1,1.1-2.1,2-2.9c0.9-0.8,1.8-1.5,2.9-1.9c1.1-0.5,2.3-0.7,3.5-0.7c1.2,0,2.4,0.2,3.5,0.7
					c1.1,0.5,2.1,1.1,2.9,2c0.8,0.9,1.5,1.8,1.9,2.9l0.7,1.7c0.5,1.1,0.7,2.3,0.7,3.5c0,1.2-0.2,2.4-0.7,3.5c-0.5,1.1-1.1,2.1-2,2.9
					c-0.9,0.8-1.8,1.5-2.9,1.9c-1.1,0.5-2.3,0.7-3.5,0.7c-1.2,0-2.4-0.2-3.5-0.7c-1.1-0.5-2.1-1.1-2.9-2
					C2736.1,84.2,2735.5,83.2,2735,82.1z M2760.4,133.8l-0.1-0.2l-0.8-1.4c-0.6-1-1-2.2-1.1-3.3c-0.2-1.2-0.1-2.4,0.2-3.5
					c0.3-1.2,0.8-2.2,1.6-3.2c0.7-0.9,1.6-1.7,2.7-2.3c1-0.6,2.2-1,3.3-1.1c1.2-0.2,2.4-0.1,3.5,0.2c1.2,0.3,2.2,0.8,3.2,1.6
					c0.9,0.7,1.7,1.6,2.3,2.7l0.8,1.4l0.1,0.2c0.6,1,1,2.2,1.1,3.3c0.2,1.2,0.1,2.4-0.2,3.5s-0.8,2.2-1.6,3.2
					c-0.7,1-1.6,1.7-2.7,2.3c-1,0.6-2.2,1-3.3,1.1c-1.2,0.2-2.4,0.1-3.5-0.2c-1.2-0.3-2.2-0.8-3.2-1.6
					C2761.8,135.7,2761,134.8,2760.4,133.8z M2792.4,181.8l-1.1-1.5c-0.7-1-1.2-2-1.5-3.2c-0.3-1.2-0.4-2.3-0.2-3.5
					c0.2-1.2,0.5-2.3,1.1-3.3c0.6-1,1.4-1.9,2.3-2.6c1-0.7,2-1.2,3.2-1.5c1.2-0.3,2.3-0.4,3.5-0.2c1.2,0.2,2.3,0.5,3.3,1.1
					s1.9,1.4,2.6,2.3l1.1,1.5c0.7,1,1.2,2,1.5,3.2c0.3,1.2,0.4,2.3,0.2,3.5c-0.2,1.2-0.5,2.3-1.1,3.3c-0.6,1-1.4,1.9-2.3,2.6
					c-1,0.7-2,1.2-3.2,1.5c-1.2,0.3-2.3,0.4-3.5,0.2c-1.2-0.2-2.3-0.5-3.3-1.1C2794,183.5,2793.1,182.7,2792.4,181.8z M2830.4,225.2
					l-1.3-1.3c-0.8-0.9-1.5-1.8-2-2.9s-0.7-2.3-0.7-3.5c0-1.2,0.2-2.4,0.7-3.5c0.5-1.1,1.1-2.1,2-2.9c0.9-0.8,1.8-1.5,2.9-2
					c1.1-0.5,2.3-0.7,3.5-0.7c1.2,0,2.4,0.2,3.5,0.7s2.1,1.1,2.9,2l1.3,1.3c0.8,0.9,1.5,1.8,2,2.9c0.5,1.1,0.7,2.3,0.7,3.5
					c0,1.2-0.2,2.4-0.7,3.5c-0.5,1.1-1.1,2.1-2,2.9c-0.9,0.8-1.8,1.5-2.9,2c-1.1,0.5-2.3,0.7-3.5,0.7c-1.2,0-2.4-0.2-3.5-0.7
					C2832.2,226.7,2831.2,226,2830.4,225.2z M2873.7,263.2l-1.4-1.1c-0.9-0.7-1.7-1.6-2.3-2.7c-0.6-1-1-2.2-1.1-3.3
					c-0.2-1.2-0.1-2.4,0.2-3.5c0.3-1.2,0.8-2.2,1.6-3.2c0.7-0.9,1.6-1.7,2.7-2.3c1-0.6,2.2-1,3.3-1.1s2.4-0.1,3.5,0.2
					c1.2,0.3,2.2,0.8,3.2,1.6l1.4,1.1c0.9,0.7,1.7,1.6,2.3,2.7c0.6,1,1,2.2,1.1,3.3c0.2,1.2,0.1,2.4-0.2,3.5
					c-0.3,1.2-0.8,2.2-1.6,3.2c-0.7,0.9-1.6,1.7-2.7,2.3c-1,0.6-2.2,1-3.3,1.1c-1.2,0.2-2.4,0.1-3.5-0.2
					C2875.7,264.5,2874.6,264,2873.7,263.2z M2921.6,295.3l-1.6-0.9c-1-0.6-1.9-1.4-2.6-2.3c-0.7-1-1.2-2-1.6-3.2
					c-0.3-1.2-0.4-2.3-0.2-3.5c0.2-1.2,0.5-2.3,1.1-3.3c0.6-1,1.4-1.9,2.3-2.6c1-0.7,2-1.2,3.2-1.6c1.2-0.3,2.3-0.4,3.5-0.2
					c1.2,0.2,2.3,0.5,3.3,1.1l1.6,0.9c1,0.6,1.9,1.4,2.6,2.3c0.7,1,1.2,2,1.6,3.2c0.3,1.2,0.4,2.3,0.2,3.5c-0.2,1.2-0.5,2.3-1.1,3.3
					c-0.6,1-1.4,1.9-2.3,2.6c-1,0.7-2,1.2-3.2,1.6c-1.2,0.3-2.3,0.4-3.5,0.2C2923.7,296.3,2922.6,295.9,2921.6,295.3z M2973.2,320.8
					l-1.7-0.7c-1.1-0.5-2.1-1.1-2.9-2c-0.8-0.9-1.5-1.8-2-2.9c-0.5-1.1-0.7-2.3-0.7-3.5c0-1.2,0.2-2.4,0.7-3.5
					c0.5-1.1,1.1-2.1,2-2.9c0.9-0.8,1.8-1.5,2.9-2c1.1-0.5,2.3-0.7,3.5-0.7c1.2,0,2.4,0.2,3.5,0.7l1.7,0.7c1.1,0.5,2.1,1.1,2.9,2
					c0.8,0.9,1.5,1.8,2,2.9s0.7,2.3,0.7,3.5s-0.2,2.4-0.7,3.5c-0.5,1.1-1.1,2.1-2,2.9c-0.9,0.8-1.8,1.5-2.9,2
					c-1.1,0.5-2.3,0.7-3.5,0.7C2975.5,321.5,2974.3,321.3,2973.2,320.8z M3027.8,339.4l-1.8-0.5c-1.2-0.3-2.2-0.8-3.2-1.6
					c-0.9-0.7-1.7-1.6-2.3-2.7c-0.6-1-1-2.2-1.1-3.3c-0.2-1.2-0.1-2.4,0.2-3.5c0.3-1.2,0.8-2.2,1.6-3.2c0.7-0.9,1.6-1.7,2.7-2.3
					c1-0.6,2.2-1,3.3-1.1c1.2-0.2,2.4-0.1,3.5,0.2l1.8,0.5c1.2,0.3,2.2,0.8,3.2,1.6c0.9,0.7,1.7,1.6,2.3,2.7c0.6,1,1,2.2,1.1,3.3
					c0.2,1.2,0.1,2.4-0.2,3.5c-0.3,1.2-0.8,2.2-1.6,3.2c-0.7,0.9-1.6,1.7-2.7,2.3c-1,0.6-2.2,1-3.3,1.1
					C3030.1,339.8,3028.9,339.7,3027.8,339.4z M3084.4,350.7l-1.8-0.2c-1.2-0.2-2.3-0.5-3.3-1.1c-1-0.6-1.9-1.4-2.6-2.3
					c-0.7-1-1.2-2-1.6-3.2c-0.3-1.2-0.4-2.3-0.2-3.5c0.2-1.2,0.5-2.3,1.1-3.3c0.6-1,1.4-1.9,2.3-2.6c1-0.7,2-1.2,3.2-1.6
					c1.2-0.3,2.3-0.4,3.5-0.2l1.8,0.2c1.2,0.2,2.3,0.5,3.3,1.1c1,0.6,1.9,1.4,2.6,2.3c0.7,1,1.2,2,1.6,3.2c0.3,1.2,0.4,2.3,0.2,3.5
					c-0.2,1.2-0.5,2.3-1.1,3.3c-0.6,1-1.4,1.9-2.3,2.6c-1,0.7-2,1.2-3.2,1.6C3086.7,350.8,3085.6,350.8,3084.4,350.7z M3141.7,354.5
					l-1.8,0c-1.2,0-2.4-0.2-3.5-0.7c-1.1-0.5-2.1-1.1-2.9-2c-0.8-0.9-1.5-1.8-2-2.9c-0.5-1.1-0.7-2.3-0.7-3.5c0-1.2,0.2-2.4,0.7-3.5
					c0.5-1.1,1.1-2.1,2-2.9c0.9-0.8,1.8-1.5,2.9-2c1.1-0.5,2.3-0.7,3.5-0.7l1.8,0c1.2,0,2.4,0.2,3.5,0.7c1.1,0.5,2.1,1.1,2.9,2
					c0.8,0.9,1.5,1.8,2,2.9c0.5,1.1,0.7,2.3,0.7,3.5c0,1.2-0.2,2.4-0.7,3.5c-0.5,1.1-1.1,2.1-2,2.9s-1.8,1.5-2.9,2
					C3144.1,354.3,3142.9,354.5,3141.7,354.5z M3199,350.8l-1.8,0.2c-1.2,0.2-2.4,0.1-3.5-0.2c-1.2-0.3-2.2-0.8-3.2-1.6
					c-0.9-0.7-1.7-1.6-2.3-2.7c-0.6-1-1-2.2-1.1-3.3c-0.2-1.2-0.1-2.4,0.2-3.5c0.3-1.2,0.8-2.2,1.6-3.2c0.7-0.9,1.6-1.7,2.7-2.3
					c1-0.6,2.2-1,3.3-1.1l1.8-0.2c1.2-0.2,2.4-0.1,3.5,0.2c1.2,0.3,2.2,0.8,3.2,1.6c0.9,0.7,1.7,1.6,2.3,2.7c0.6,1,1,2.2,1.1,3.3
					s0.1,2.4-0.2,3.5c-0.3,1.2-0.8,2.2-1.6,3.2c-0.7,0.9-1.6,1.7-2.7,2.3C3201.4,350.2,3200.2,350.6,3199,350.8z M3255.6,339.6
					l-1.8,0.5c-1.2,0.3-2.3,0.4-3.5,0.2c-1.2-0.2-2.3-0.5-3.3-1.1c-1-0.6-1.9-1.4-2.6-2.3c-0.7-1-1.2-2-1.6-3.2
					c-0.3-1.2-0.4-2.3-0.2-3.5c0.2-1.2,0.5-2.3,1.1-3.3c0.6-1,1.4-1.9,2.3-2.6c1-0.7,2-1.2,3.2-1.6l1.8-0.5c1.2-0.3,2.3-0.4,3.5-0.2
					c1.2,0.2,2.3,0.5,3.3,1.1c1,0.6,1.9,1.4,2.6,2.3c0.7,1,1.2,2,1.6,3.2c0.3,1.2,0.4,2.3,0.2,3.5c-0.2,1.2-0.5,2.3-1.1,3.3
					c-0.6,1-1.4,1.9-2.3,2.6C3257.9,338.7,3256.8,339.3,3255.6,339.6z M3310.2,321.1l-1.7,0.7c-1.1,0.5-2.3,0.7-3.5,0.7
					c-1.2,0-2.4-0.2-3.5-0.7c-1.1-0.5-2.1-1.1-2.9-2c-0.8-0.9-1.5-1.8-2-2.9c-0.5-1.1-0.7-2.3-0.7-3.5s0.2-2.4,0.7-3.5
					c0.5-1.1,1.1-2.1,2-2.9c0.9-0.8,1.8-1.5,2.9-2l1.7-0.7c1.1-0.5,2.3-0.7,3.5-0.7c1.2,0,2.4,0.2,3.5,0.7c1.1,0.5,2.1,1.1,2.9,2
					c0.8,0.9,1.5,1.8,2,2.9c0.5,1.1,0.7,2.3,0.7,3.5c0,1.2-0.2,2.4-0.7,3.5c-0.5,1.1-1.1,2.1-2,2.9
					C3312.3,320,3311.4,320.6,3310.2,321.1z M3361.9,295.6l-1.6,0.9c-1,0.6-2.2,1-3.3,1.1c-1.2,0.2-2.4,0.1-3.5-0.2
					s-2.2-0.8-3.2-1.6s-1.7-1.6-2.3-2.7c-0.6-1-1-2.2-1.1-3.3c-0.2-1.2-0.1-2.4,0.2-3.5c0.3-1.2,0.8-2.2,1.6-3.2
					c0.7-0.9,1.6-1.7,2.7-2.3l1.6-0.9c1-0.6,2.2-1,3.3-1.1c1.2-0.2,2.4-0.1,3.5,0.2c1.2,0.3,2.2,0.8,3.2,1.6
					c0.9,0.7,1.7,1.6,2.3,2.7c0.6,1,1,2.2,1.1,3.3c0.2,1.2,0.1,2.4-0.2,3.5c-0.3,1.2-0.8,2.2-1.6,3.2
					C3363.9,294.3,3363,295,3361.9,295.6z M3395.8,263c-0.7-1-1.2-2-1.6-3.2s-0.4-2.3-0.2-3.5c0.2-1.2,0.5-2.3,1.1-3.3
					c0.6-1,1.4-1.9,2.3-2.6l1.5-1.1c1-0.7,2-1.2,3.2-1.6c1.2-0.3,2.3-0.4,3.5-0.2c1.2,0.2,2.3,0.5,3.3,1.1c1,0.6,1.9,1.4,2.6,2.3
					c0.7,1,1.2,2,1.6,3.2c0.3,1.2,0.4,2.3,0.2,3.5c-0.2,1.2-0.5,2.3-1.1,3.3c-0.6,1-1.4,1.9-2.3,2.6l-1.5,1.1c-1,0.7-2,1.2-3.2,1.6
					c-1.2,0.3-2.3,0.4-3.5,0.2c-1.2-0.2-2.3-0.5-3.3-1.1C3397.4,264.8,3396.5,264,3395.8,263 M3453.3,225.6l-1.3,1.3
					c-0.8,0.8-1.8,1.5-2.9,2c-1.1,0.5-2.3,0.7-3.5,0.7c-1.2,0-2.4-0.2-3.5-0.7c-1.1-0.5-2.1-1.1-2.9-2c-0.8-0.8-1.5-1.8-2-2.9
					c-0.5-1.1-0.7-2.3-0.7-3.5c0-1.2,0.2-2.4,0.7-3.5s1.1-2.1,2-2.9l1.3-1.3c0.8-0.8,1.8-1.5,2.9-2c1.1-0.5,2.3-0.7,3.5-0.7
					c1.2,0,2.4,0.2,3.5,0.7c1.1,0.5,2.1,1.1,2.9,2c0.8,0.8,1.5,1.8,2,2.9c0.5,1.1,0.7,2.3,0.7,3.5c0,1.2-0.2,2.4-0.7,3.5
					C3454.8,223.8,3454.1,224.8,3453.3,225.6z M3491.3,182.3l-1.1,1.4c-0.7,0.9-1.6,1.7-2.7,2.3c-1,0.6-2.2,1-3.3,1.1
					c-1.2,0.2-2.4,0.1-3.5-0.2c-1.2-0.3-2.2-0.8-3.2-1.6s-1.7-1.6-2.3-2.7c-0.6-1-1-2.2-1.1-3.3c-0.2-1.2-0.1-2.4,0.2-3.5
					c0.3-1.2,0.8-2.2,1.6-3.2l1.1-1.4c0.7-0.9,1.6-1.7,2.7-2.3c1-0.6,2.2-1,3.3-1.1c1.2-0.2,2.4-0.1,3.5,0.2
					c1.2,0.3,2.2,0.8,3.2,1.6c0.9,0.7,1.7,1.6,2.3,2.7c0.6,1,1,2.2,1.1,3.3c0.2,1.2,0.1,2.4-0.2,3.5
					C3492.5,180.3,3492,181.4,3491.3,182.3z M3523.3,134.4l-0.9,1.6c-0.6,1-1.4,1.9-2.3,2.6c-1,0.7-2,1.2-3.2,1.6
					c-1.2,0.3-2.3,0.4-3.5,0.2c-1.2-0.2-2.3-0.5-3.3-1.1c-1-0.6-1.9-1.4-2.6-2.3c-0.7-1-1.2-2-1.6-3.2c-0.3-1.2-0.4-2.3-0.2-3.5
					c0.2-1.2,0.5-2.3,1.1-3.3l0.9-1.6c0.6-1,1.4-1.9,2.3-2.6c1-0.7,2-1.2,3.2-1.6c1.2-0.3,2.3-0.4,3.5-0.2c1.2,0.2,2.3,0.5,3.3,1.1
					c1,0.6,1.9,1.4,2.6,2.3s1.2,2,1.6,3.2c0.3,1.2,0.4,2.3,0.2,3.5C3524.3,132.2,3523.9,133.3,3523.3,134.4z M3548.8,82.7l-0.7,1.7
					c-0.5,1.1-1.1,2.1-2,2.9c-0.8,0.8-1.8,1.5-2.9,2c-1.1,0.5-2.3,0.7-3.5,0.7c-1.2,0-2.4-0.2-3.5-0.7c-1.1-0.5-2.1-1.1-2.9-2
					s-1.5-1.8-2-2.9c-0.5-1.1-0.7-2.3-0.7-3.5c0-1.2,0.2-2.4,0.7-3.5l0.7-1.7c0.5-1.1,1.1-2.1,2-2.9c0.8-0.8,1.8-1.5,2.9-2
					c1.1-0.5,2.3-0.7,3.5-0.7c1.2,0,2.4,0.2,3.5,0.7c1.1,0.5,2.1,1.1,2.9,2s1.5,1.8,2,2.9s0.7,2.3,0.7,3.5
					C3549.5,80.5,3549.3,81.6,3548.8,82.7z M3567.3,28.1l-0.5,1.8c-0.3,1.2-0.8,2.2-1.6,3.2c-0.7,0.9-1.6,1.7-2.7,2.3
					c-1,0.6-2.2,1-3.3,1.1c-1.2,0.2-2.4,0.1-3.5-0.2c-1.2-0.3-2.2-0.8-3.2-1.6c-0.9-0.7-1.7-1.6-2.3-2.7s-1-2.2-1.1-3.3
					c-0.2-1.2-0.1-2.4,0.2-3.5l0.5-1.8c0.3-1.2,0.8-2.2,1.6-3.2c0.7-0.9,1.6-1.7,2.7-2.3s2.2-1,3.3-1.1c1.2-0.2,2.4-0.1,3.5,0.2
					c1.2,0.3,2.2,0.8,3.2,1.6c0.9,0.7,1.7,1.6,2.3,2.7c0.6,1,1,2.2,1.1,3.3C3567.7,25.8,3567.7,27,3567.3,28.1z M3578.6-28.5
					l-0.2,1.8c-0.2,1.2-0.5,2.3-1.1,3.3c-0.6,1-1.4,1.9-2.3,2.6c-1,0.7-2,1.2-3.2,1.6c-1.2,0.3-2.3,0.4-3.5,0.2
					c-1.2-0.2-2.3-0.5-3.3-1.1c-1-0.6-1.9-1.4-2.6-2.3c-0.7-1-1.2-2-1.6-3.2c-0.3-1.2-0.4-2.3-0.2-3.5l0.2-1.8
					c0.2-1.2,0.5-2.3,1.1-3.3c0.6-1,1.4-1.9,2.3-2.6c1-0.7,2-1.2,3.2-1.6c1.2-0.3,2.3-0.4,3.5-0.2c1.2,0.2,2.3,0.5,3.3,1.1
					c1,0.6,1.9,1.4,2.6,2.3c0.7,1,1.2,2,1.6,3.2C3578.7-30.8,3578.7-29.7,3578.6-28.5z"/>
			</g>
			<g>
				<defs>
					<rect id="SVGID_7_" x="3718.5" width="524.6" height="299.4"/>
				</defs>
				<clipPath id="SVGID_8_">
					<use xlink:href="#SVGID_7_"  style="overflow:visible;"/>
				</clipPath>
				<path class="st4" d="M3980.9-179.6c119.9,0,216.7,96.7,216.7,216.7c0,119.9-96.7,216.7-216.7,216.7s-216.7-96.7-216.7-216.7
					C3764.2-82.8,3860.9-179.6,3980.9-179.6z M3980.9-225.2c-144.6,0-262.3,117.7-262.3,262.3c0,144.6,117.7,262.3,262.3,262.3
					c144.6,0,262.3-117.7,262.3-262.3C4243.2-107.5,4125.5-225.2,3980.9-225.2z"/>
			</g>
			<g>
				<defs>
					<rect id="SVGID_9_" x="868.8" width="536.9" height="216.4"/>
				</defs>
				<clipPath id="SVGID_10_">
					<use xlink:href="#SVGID_9_"  style="overflow:visible;"/>
				</clipPath>
				<path class="st5" d="M1137.3-303.9c-139.2,0-251.9,112.7-251.9,251.9s112.7,251.9,251.9,251.9S1389.2,87.2,1389.2-52
					S1275.6-303.9,1137.3-303.9L1137.3-303.9z M1137.3,216.4C989,216.4,868.8,95.4,868.8-52c0-147.5,120.1-268.5,268.5-268.5
					S1405.7-200.3,1405.7-52S1284.8,216.4,1137.3,216.4z"/>
			</g>
			<g>
				<path class="st6" d="M1405.8,198.8c0-3.3-0.2-6.6-0.5-9.8c-0.3-3.3-0.8-6.5-1.4-9.7c-0.6-3.2-1.4-6.4-2.4-9.5
					c-1-3.1-2.1-6.2-3.3-9.3c-1.3-3-2.7-6-4.2-8.9c-1.5-2.9-3.2-5.7-5.1-8.4c-1.8-2.7-3.8-5.4-5.9-7.9c-2.1-2.5-4.3-5-6.6-7.3
					c-2.3-2.3-4.8-4.5-7.3-6.6c-2.5-2.1-5.2-4-7.9-5.9c-2.7-1.8-5.5-3.5-8.4-5.1c-2.9-1.5-5.9-3-8.9-4.2c-3-1.3-6.1-2.4-9.3-3.3
					c-3.1-1-6.3-1.8-9.5-2.4c-3.2-0.6-6.5-1.1-9.7-1.4c-3.3-0.3-6.5-0.5-9.8-0.5c-3.3,0-6.6,0.2-9.8,0.5c-3.3,0.3-6.5,0.8-9.7,1.4
					c-3.2,0.6-6.4,1.4-9.5,2.4c-3.1,1-6.2,2.1-9.3,3.3c-3,1.3-6,2.7-8.9,4.2c-2.9,1.5-5.7,3.2-8.4,5.1c-2.7,1.8-5.4,3.8-7.9,5.9
					c-2.5,2.1-5,4.3-7.3,6.6c-2.3,2.3-4.5,4.8-6.6,7.3c-2.1,2.5-4,5.2-5.9,7.9c-1.8,2.7-3.5,5.5-5.1,8.4c-1.5,2.9-3,5.9-4.2,8.9
					c-1.3,3-2.4,6.1-3.3,9.3c-1,3.1-1.8,6.3-2.4,9.5c-0.6,3.2-1.1,6.5-1.4,9.7c-0.3,3.3-0.5,6.5-0.5,9.8s0.2,6.6,0.5,9.8
					c0.3,3.3,0.8,6.5,1.4,9.7c0.6,3.2,1.4,6.4,2.4,9.5c1,3.1,2.1,6.2,3.3,9.3s2.7,6,4.2,8.9c1.5,2.9,3.2,5.7,5.1,8.4
					c1.8,2.7,3.8,5.4,5.9,7.9c2.1,2.5,4.3,5,6.6,7.3c2.3,2.3,4.8,4.5,7.3,6.6c2.5,2.1,5.2,4,7.9,5.9c2.7,1.8,5.5,3.5,8.4,5.1
					c2.9,1.5,5.9,3,8.9,4.2c3,1.3,6.1,2.4,9.3,3.3c3.1,1,6.3,1.8,9.5,2.4c3.2,0.6,6.5,1.1,9.7,1.4c3.3,0.3,6.5,0.5,9.8,0.5
					c3.3,0,6.6-0.2,9.8-0.5c3.3-0.3,6.5-0.8,9.7-1.4c3.2-0.6,6.4-1.4,9.5-2.4c3.1-1,6.2-2.1,9.3-3.3c3-1.3,6-2.7,8.9-4.2
					c2.9-1.5,5.7-3.2,8.4-5.1c2.7-1.8,5.4-3.8,7.9-5.9c2.5-2.1,5-4.3,7.3-6.6c2.3-2.3,4.5-4.8,6.6-7.3c2.1-2.5,4-5.2,5.9-7.9
					c1.8-2.7,3.5-5.5,5.1-8.4c1.5-2.9,3-5.9,4.2-8.9s2.4-6.1,3.3-9.3c1-3.1,1.8-6.3,2.4-9.5c0.6-3.2,1.1-6.5,1.4-9.7
					C1405.7,205.4,1405.8,202.1,1405.8,198.8z"/>
			</g>
		</g>
	</g>
</g>
</svg>
