<?xml version="1.0" encoding="utf-8"?>
<!-- Generator: Adobe Illustrator 25.2.2, SVG Export Plug-In . SVG Version: 6.00 Build 0)  -->
<svg version="1.1" id="Layer_1" xmlns="http://www.w3.org/2000/svg" xmlns:xlink="http://www.w3.org/1999/xlink" x="0px" y="0px"
	 viewBox="0 0 300 129" style="enable-background:new 0 0 300 129;" xml:space="preserve">
<style type="text/css">
	.st0{fill:#009AA6;}
	.st1{fill:#77777A;}
</style>
<g>
	<g>
		<path class="st0" d="M31.05,100l-2.26,12.23h10.04c3.92,0,6.9-2.39,7.58-6.11c0.33-1.79,0.02-3.31-0.89-4.4
			c-0.94-1.13-2.51-1.73-4.53-1.73H31.05 M41.94,92.11c3.94,0,6.79-2.19,7.44-5.71c0.3-1.65,0.02-3.06-0.83-4.08
			c-0.94-1.12-2.52-1.72-4.58-1.72h-9.34l-2.12,11.5L41.94,92.11L41.94,92.11z M122.06,64.51c0-23.69-14.11-44.09-34.39-53.27
			l12.95,45h-9.98l-2.5-10.11H71.09l4.74-7.5H86.3l-4.76-19.27L58.28,56.23H47.51L79.15,8.15c-4.97-1.37-10.21-2.11-15.62-2.11
			c-5.19,0-10.23,0.68-15.02,1.95L39.6,56.23h-9.59l8.21-44.46C18.56,21.21,5,41.27,5,64.5c0,15.6,6.12,29.77,16.09,40.25
			l5.95-32.22h19.21c9.33,0,13.81,5.23,12.3,13.41c-0.98,5.3-5.1,8.72-7.73,9.86c2.64,1.34,5.78,4.36,4.6,10.73
			c-1.27,6.89-5.73,11.33-11.63,13c6.17,2.21,12.82,3.42,19.75,3.42c6.09,0,11.97-0.93,17.49-2.65c-1.66-0.29-3.23-0.73-4.69-1.33
			c-2.85-1.16-5.23-2.83-7.1-4.95s-3.22-4.7-4.03-7.68c-0.81-2.97-0.95-6.31-0.43-9.93c0.53-3.7,1.62-7.11,3.25-10.14
			c1.63-3.03,3.71-5.65,6.18-7.78c2.47-2.14,5.32-3.81,8.48-4.96c3.17-1.15,6.58-1.74,10.15-1.74c3.14,0,6.02,0.56,8.54,1.68
			l0.14,0.06l-1.77,9.59c-1.14-1.06-2.27-1.59-3.36-2.04c-1.44-0.59-2.97-0.89-4.53-0.89c-2.34,0-4.56,0.42-6.58,1.25
			c-2.02,0.83-3.85,2-5.43,3.46c-1.58,1.47-2.9,3.21-3.92,5.17c-1.01,1.93-1.69,3.58-1.99,5.87c-0.34,2.43-0.29,4.7,0.16,6.75
			c0.45,2.04,1.26,3.82,2.4,5.3c1.14,1.48,2.63,2.66,4.41,3.51c1.42,0.68,3.05,1.09,4.83,1.22c0.45,0.03,0.91,0.05,1.38,0.05
			c9.79,0,16.81-5.94,19.95-9.23C116.38,93.23,122.06,79.53,122.06,64.51z"/>
	</g>
	<g>
		<path class="st1" d="M153.4,79.55l-6.89-29.19h3.85l3.16,14.55c0.78,3.68,1.47,7.19,1.95,10.22h0.09c0.48-3.12,1.3-6.5,2.21-10.26
			l3.55-14.51h3.59l3.29,14.46c0.78,3.51,1.52,6.89,1.95,10.26h0.09c0.56-3.51,1.3-6.71,2.08-10.26l3.42-14.46h3.72l-7.53,29.19
			h-3.72l-3.42-14.9c-0.82-3.55-1.39-6.54-1.78-9.57h-0.09c-0.48,3.07-1.08,5.98-2.08,9.61l-3.72,14.85L153.4,79.55L153.4,79.55z"/>
		<path class="st1" d="M191.98,79.55l-0.3-2.51h-0.13c-1.08,1.65-3.12,2.94-5.76,2.94c-3.81,0-5.98-2.81-5.98-6.02
			c0-5.11,4.42-7.75,11.52-7.71v-0.52c0-2.04-0.56-4.85-4.37-4.81c-1.73,0-3.51,0.52-4.85,1.43l-0.82-2.51
			c1.47-0.95,3.85-1.69,6.32-1.69c5.76,0,7.36,3.9,7.36,8.27v8.18c0,1.73,0.09,3.51,0.3,4.94L191.98,79.55L191.98,79.55z
			 M191.38,68.81c-3.38-0.04-7.88,0.56-7.88,4.76c0,2.55,1.56,3.64,3.25,3.64c2.38,0,3.94-1.52,4.5-3.38
			c0.13-0.39,0.13-0.82,0.13-1.21V68.81z"/>
		<path class="st1" d="M204.89,52.71v5.89h5.02v2.81h-5.02v11.6c0,2.64,0.78,3.9,2.64,3.9c0.87,0,1.47-0.09,1.95-0.22l0.17,2.77
			c-0.69,0.3-1.73,0.48-3.12,0.48c-1.6,0-2.99-0.52-3.85-1.52c-1-1.08-1.43-2.81-1.43-5.37V61.41h-3.03v-2.81h3.03V53.7
			L204.89,52.71z"/>
		<path class="st1" d="M215.67,69.64c0.09,5.54,3.12,7.45,6.5,7.45c2.34,0,3.9-0.48,5.11-1l0.65,2.64c-1.3,0.61-3.46,1.21-6.28,1.21
			c-6.02,0-9.53-4.24-9.53-10.57c0-6.45,3.51-11.22,9.05-11.22c6.06,0,7.79,5.54,7.79,9.66c0,0.82-0.04,1.39-0.09,1.82H215.67z
			 M225.46,67c0.04-2.94-1.17-6.15-4.63-6.15c-3.38,0-4.85,3.42-5.11,6.15H225.46z"/>
		<path class="st1" d="M233.38,64.79c0-2.25-0.09-4.33-0.17-6.19h3.25l0.13,3.85h0.13c0.91-2.55,3.03-4.29,5.41-4.29
			c0.35,0,0.65,0.04,0.95,0.09v3.55c-0.35-0.09-0.69-0.09-1.13-0.09c-2.51,0-4.33,1.99-4.76,4.72c-0.13,0.52-0.17,1.17-0.17,1.82
			v11.3h-3.64V64.79z"/>
		<path class="st1" d="M246.63,49.02h3.68v30.53h-3.68L246.63,49.02L246.63,49.02z"/>
		<path class="st1" d="M273.39,68.94c0,7.84-4.89,11.04-9.4,11.04c-5.11,0-9.09-3.94-9.09-10.78c0-7.19,4.29-11.04,9.4-11.04
			C269.62,58.16,273.39,62.28,273.39,68.94z M258.63,69.12c0,4.24,2.04,8.1,5.54,8.1c3.42,0,5.5-3.9,5.5-8.18
			c0-3.46-1.43-8.05-5.5-8.05C260.19,60.98,258.63,65.35,258.63,69.12z"/>
		<path class="st1" d="M295,68.94c0,7.84-4.89,11.04-9.4,11.04c-5.11,0-9.09-3.94-9.09-10.78c0-7.19,4.29-11.04,9.4-11.04
			C291.23,58.16,295,62.28,295,68.94z M280.23,69.12c0,4.24,2.04,8.1,5.54,8.1c3.42,0,5.5-3.9,5.5-8.18c0-3.46-1.43-8.05-5.5-8.05
			C281.79,60.98,280.23,65.35,280.23,69.12z"/>
	</g>
</g>
</svg>
