<?xml version="1.0" encoding="utf-8"?>
<!-- Generator: Adobe Illustrator 25.2.2, SVG Export Plug-In . SVG Version: 6.00 Build 0)  -->
<svg version="1.1" id="Layer_1" xmlns="http://www.w3.org/2000/svg" xmlns:xlink="http://www.w3.org/1999/xlink" x="0px" y="0px"
	 viewBox="0 0 300 130" style="enable-background:new 0 0 300 130;" xml:space="preserve">
<style type="text/css">
	.st0{fill:#0093B1;}
	.st1{fill:#FDB913;}
	.st2{fill:#EE3780;}
	.st3{fill:#F7921E;}
	.st4{fill:#65BD60;}
	.st5{fill:#877B77;}
	.st6{fill:#0077BE;}
	.st7{fill:#00B5AF;}
	.st8{fill:#F04E23;}
</style>
<g>
	<g>
		<path class="st0" d="M63.56,82.02c-9.5,0-17.24-7.64-17.24-17.02s7.73-17.03,17.24-17.03c2.18,0,4.3,0.4,6.31,1.18
			c1.78,0.69,2.65,2.67,1.95,4.43c-0.7,1.76-2.7,2.63-4.49,1.92c-1.2-0.47-2.47-0.7-3.77-0.7c-5.69,0-10.32,4.57-10.32,10.19
			s4.63,10.19,10.32,10.19c1.3,0,2.57-0.23,3.77-0.7c1.78-0.69,3.79,0.18,4.49,1.93c0.7,1.76-0.18,3.74-1.95,4.43
			C67.85,81.63,65.73,82.02,63.56,82.02"/>
		<path class="st1" d="M89.41,59c-1.41,0-2.73-0.85-3.25-2.24c-3.47-9.31-12.56-15.57-22.61-15.57c-4.88,0-9.57,1.43-13.57,4.14
			c-1.58,1.06-3.73,0.67-4.81-0.89c-1.08-1.56-0.67-3.68,0.9-4.75c5.16-3.49,11.21-5.33,17.48-5.33c12.93,0,24.63,8.05,29.1,20.04
			c0.66,1.77-0.26,3.74-2.05,4.39C90.21,58.93,89.81,59,89.41,59"/>
		<path class="st2" d="M63.56,95.63c-17.1,0-31.01-13.75-31.01-30.63c0-3.86,0.72-7.62,2.13-11.19c0.7-1.76,2.7-2.63,4.49-1.94
			c1.78,0.69,2.66,2.67,1.95,4.43c-1.1,2.77-1.66,5.69-1.66,8.69c0,13.13,10.81,23.8,24.09,23.8c2.69,0,5.33-0.44,7.84-1.29
			c4.17-1.41,6.98-5.29,6.98-9.65c0-5.62-4.62-10.19-10.32-10.19c-1.16,0-2.29,0.19-3.38,0.56c-1.81,0.61-3.77-0.33-4.4-2.11
			s0.33-3.73,2.14-4.35c1.81-0.62,3.71-0.93,5.64-0.93c9.5,0,17.23,7.64,17.23,17.03c0,7.28-4.68,13.75-11.65,16.11
			C70.41,95.07,67.02,95.63,63.56,95.63"/>
		<path class="st3" d="M87.33,101.8c-1.09,0-2.16-0.5-2.83-1.45c-1.1-1.54-0.73-3.68,0.84-4.76c10.07-7.01,16.08-18.45,16.08-30.6
			c0-18.53-13.42-34.07-31.92-36.95c-1.89-0.3-3.18-2.04-2.88-3.91c0.3-1.86,2.07-3.14,3.96-2.85c21.88,3.41,37.76,21.79,37.76,43.7
			c0,14.37-7.11,27.9-19.01,36.19C88.72,101.61,88.02,101.8,87.33,101.8"/>
		<path class="st4" d="M22.8,75.21c-1.66,0-3.12-1.19-3.41-2.85c-0.41-2.42-0.62-4.89-0.62-7.36c0-16.45,9.15-31.44,23.88-39.14
			c1.69-0.88,3.78-0.25,4.67,1.43c0.9,1.67,0.25,3.74-1.44,4.62C33.43,38.41,25.69,51.09,25.69,65c0,2.09,0.18,4.19,0.52,6.23
			c0.31,1.86-0.96,3.63-2.84,3.93C23.18,75.2,22.99,75.21,22.8,75.21"/>
		<path class="st5" d="M63.56,109.24c-13.41,0-26-5.86-34.56-16.09c-1.22-1.46-1.01-3.61,0.47-4.81c1.48-1.2,3.65-1,4.87,0.46
			c7.23,8.65,17.88,13.61,29.22,13.61c3.97,0,7.88-0.6,11.62-1.8c1.81-0.58,3.77,0.41,4.35,2.21c0.58,1.8-0.41,3.73-2.24,4.3
			C72.87,108.52,68.24,109.24,63.56,109.24"/>
		<path class="st5" d="M118.46,63.93c-1.78,0-3.3-1.35-3.44-3.14c-2.16-26.25-24.77-46.81-51.47-46.81
			c-11.11,0-21.69,3.43-30.6,9.92c-1.54,1.12-3.71,0.8-4.84-0.73c-1.13-1.52-0.81-3.66,0.73-4.78C38.95,11.04,50.95,7.15,63.55,7.15
			c14.8,0,28.93,5.47,39.78,15.4c10.8,9.87,17.39,23.26,18.58,37.69c0.15,1.88-1.27,3.53-3.17,3.68
			C118.65,63.93,118.56,63.93,118.46,63.93"/>
		<path class="st6" d="M11.1,85.14c-1.46,0-2.82-0.92-3.29-2.37C5.95,77.05,5,71.07,5,65c0-12.28,3.84-24,11.11-33.91
			c1.12-1.53,3.29-1.88,4.83-0.76c1.55,1.11,1.89,3.25,0.77,4.77c-6.41,8.74-9.79,19.08-9.79,29.9c0,5.35,0.84,10.63,2.48,15.68
			c0.58,1.8-0.41,3.72-2.23,4.3C11.81,85.08,11.46,85.14,11.1,85.14"/>
		<path class="st7" d="M63.56,122.85c-20.45,0-39.09-10.27-49.85-27.49c-1-1.6-0.5-3.71,1.13-4.7c1.62-0.99,3.76-0.5,4.76,1.11
			c9.49,15.18,25.93,24.24,43.97,24.24c19.73,0,37.46-10.84,46.26-28.31c0.85-1.69,2.93-2.38,4.64-1.54c1.71,0.84,2.4,2.9,1.56,4.59
			C106.03,110.55,85.93,122.85,63.56,122.85"/>
		<path class="st8" d="M63.56,24.37c0,1.88-1.54,3.4-3.44,3.4c-1.9,0-3.44-1.52-3.44-3.4c0-1.88,1.54-3.4,3.44-3.4
			C62.01,20.97,63.56,22.5,63.56,24.37"/>
		<path class="st6" d="M29.12,81.28c0,1.88-1.54,3.4-3.44,3.4s-3.44-1.52-3.44-3.4c0-1.88,1.54-3.4,3.44-3.4S29.12,79.4,29.12,81.28
			"/>
		<path class="st7" d="M94.41,65c0,1.88-1.54,3.4-3.44,3.4c-1.9,0-3.44-1.52-3.44-3.4c0-1.88,1.54-3.4,3.44-3.4
			C92.86,61.59,94.41,63.12,94.41,65"/>
		<path class="st5" d="M139.02,46.55h2.45c0.32,0,0.6,0.21,0.69,0.5l3.36,10.84l3.64-10.9c0.1-0.3,0.38-0.49,0.69-0.49h2.15
			c0.31,0,0.59,0.2,0.69,0.49l3.64,10.9l3.36-10.84c0.09-0.3,0.38-0.5,0.69-0.5h2.35c0.5,0,0.85,0.48,0.69,0.95l-5.3,15.44
			c-0.1,0.29-0.38,0.49-0.69,0.49h-2.21c-0.31,0-0.58-0.2-0.69-0.49l-3.66-10.48l-3.66,10.48c-0.1,0.29-0.38,0.49-0.69,0.49h-2.21
			c-0.31,0-0.59-0.2-0.69-0.49l-5.3-15.44C138.17,47.03,138.52,46.55,139.02,46.55"/>
		<path class="st5" d="M172.65,56.42l-2.26-5.43l-2.26,5.43H172.65z M169.2,46.55h2.48c0.29,0,0.55,0.17,0.67,0.44L179,62.43
			c0.2,0.47-0.15,1-0.67,1h-2.32c-0.3,0-0.56-0.18-0.67-0.45l-1.36-3.31h-7.17l-1.36,3.31c-0.11,0.27-0.38,0.45-0.67,0.45h-2.22
			c-0.52,0-0.87-0.52-0.67-1l6.65-15.44C168.65,46.72,168.91,46.55,169.2,46.55"/>
		<path class="st5" d="M182.44,49.97h-4.47c-0.41,0-0.73-0.33-0.73-0.73v-1.98c0-0.4,0.33-0.73,0.73-0.73h12.7
			c0.41,0,0.73,0.33,0.73,0.73v1.98c0,0.4-0.33,0.73-0.73,0.73h-4.47v12.74c0,0.4-0.33,0.73-0.73,0.73h-2.3
			c-0.41,0-0.73-0.33-0.73-0.73L182.44,49.97L182.44,49.97z"/>
		<path class="st5" d="M194.56,46.55h11.43c0.41,0,0.73,0.33,0.73,0.73v1.86c0,0.4-0.33,0.73-0.73,0.73h-8.42v3.42h7.33
			c0.41,0,0.73,0.32,0.73,0.72v1.86c0,0.4-0.33,0.72-0.73,0.72h-7.33v3.55h8.55c0.41,0,0.73,0.33,0.73,0.73v1.86
			c0,0.4-0.33,0.72-0.73,0.72h-11.55c-0.41,0-0.73-0.33-0.73-0.72V47.27C193.83,46.87,194.15,46.55,194.56,46.55"/>
		<path class="st5" d="M217.27,54.75c1.83,0,2.88-0.97,2.88-2.39v-0.05c0-1.59-1.13-2.42-2.96-2.42h-3.74v4.85H217.27z M209.7,47.27
			c0-0.4,0.33-0.73,0.73-0.73h7.08c2.18,0,3.86,0.6,4.98,1.72c0.95,0.94,1.46,2.27,1.46,3.86v0.05c0,2.73-1.49,4.44-3.66,5.24
			l3.39,4.9c0.33,0.48-0.02,1.13-0.6,1.13h-2.62c-0.25,0-0.47-0.12-0.61-0.32l-3.45-5.08h-2.96v4.68c0,0.4-0.33,0.73-0.73,0.73h-2.3
			c-0.41,0-0.73-0.33-0.73-0.73V47.27H209.7z"/>
		<path class="st5" d="M227.4,46.55h2.3c0.41,0,0.73,0.33,0.73,0.73v12.79h7.8c0.41,0,0.73,0.33,0.73,0.73v1.94
			c0,0.4-0.33,0.72-0.73,0.72h-10.82c-0.41,0-0.73-0.33-0.73-0.72V47.27C226.67,46.87,226.99,46.55,227.4,46.55"/>
		<path class="st5" d="M253.56,55.04v-0.05c0-2.9-2.15-5.31-5.18-5.31c-3.02,0-5.13,2.37-5.13,5.26v0.05c0,2.9,2.15,5.31,5.18,5.31
			C251.46,60.3,253.56,57.93,253.56,55.04 M239.33,55.04v-0.05c0-4.8,3.84-8.73,9.1-8.73c5.27,0,9.06,3.89,9.06,8.68v0.05
			c0,4.8-3.84,8.74-9.11,8.74C243.11,63.73,239.33,59.84,239.33,55.04"/>
		<path class="st5" d="M273.47,55.04v-0.05c0-2.9-2.15-5.31-5.18-5.31c-3.02,0-5.13,2.37-5.13,5.26v0.05c0,2.9,2.15,5.31,5.18,5.31
			C271.37,60.3,273.47,57.93,273.47,55.04 M259.23,55.04v-0.05c0-4.8,3.84-8.73,9.1-8.73c5.27,0,9.06,3.89,9.06,8.68v0.05
			c0,4.8-3.84,8.74-9.11,8.74C263.02,63.73,259.23,59.84,259.23,55.04"/>
		<path class="st5" d="M138.93,79.16v-0.05c0-4.78,3.61-8.73,8.64-8.73c3.1,0,4.96,1.09,6.66,2.67l-1.32,1.4
			c-1.44-1.35-3.06-2.32-5.37-2.32c-3.79,0-6.62,3.04-6.62,6.92v0.05c0,3.91,2.86,6.97,6.62,6.97c2.34,0,3.89-0.89,5.52-2.43
			l1.27,1.23c-1.78,1.78-3.74,2.97-6.84,2.97C142.57,87.84,138.93,84.01,138.93,79.16"/>
		<path class="st5" d="M171.41,79.16v-0.05c0-3.84-2.83-6.97-6.74-6.97c-3.9,0-6.69,3.09-6.69,6.92v0.05c0,3.84,2.83,6.97,6.74,6.97
			C168.63,86.08,171.41,82.99,171.41,79.16 M155.98,79.16v-0.05c0-4.65,3.54-8.73,8.74-8.73s8.69,4.03,8.69,8.68v0.05
			c0,4.66-3.54,8.74-8.74,8.74C159.47,87.84,155.98,83.81,155.98,79.16"/>
	</g>
	<polygon class="st5" points="175.91,70.66 177.86,70.66 184.09,79.88 190.32,70.66 192.27,70.66 192.27,87.55 190.34,87.55 
		190.34,73.87 184.11,82.92 184.02,82.92 177.79,73.89 177.79,87.55 175.91,87.55 	"/>
	<polygon class="st5" points="195.63,70.66 197.58,70.66 203.81,79.88 210.04,70.66 211.99,70.66 211.99,87.55 210.06,87.55 
		210.06,73.87 203.84,82.92 203.74,82.92 197.51,73.89 197.51,87.55 195.63,87.55 	"/>
	<g>
		<path class="st5" d="M215.34,80.48v-9.82h1.93v9.7c0,3.64,1.98,5.69,5.23,5.69c3.15,0,5.15-1.88,5.15-5.58v-9.82h1.93v9.68
			c0,4.92-2.86,7.48-7.13,7.48C218.22,87.81,215.34,85.26,215.34,80.48"/>
	</g>
	<polygon class="st5" points="232.81,70.66 234.62,70.66 245.38,84.2 245.38,70.66 247.26,70.66 247.26,87.55 245.73,87.55 
		234.69,73.7 234.69,87.55 232.81,87.55 	"/>
	<rect x="250.8" y="70.67" class="st5" width="1.93" height="16.89"/>
	<polygon class="st5" points="260.88,72.42 255.14,72.42 255.14,70.67 268.58,70.67 268.58,72.42 262.84,72.42 262.84,87.55 
		260.88,87.55 	"/>
	<polygon class="st5" points="277.05,80.87 269.94,70.66 272.29,70.66 278.05,79.11 283.86,70.66 286.11,70.66 279,80.84 279,87.55 
		277.05,87.55 	"/>
	<polygon class="st5" points="139.69,94.79 151.97,94.79 151.97,96.55 141.61,96.55 141.61,102.58 150.87,102.58 150.87,104.32 
		141.61,104.32 141.61,111.68 139.69,111.68 	"/>
	<g>
		<path class="st5" d="M169.17,103.28v-0.05c0-3.84-2.83-6.97-6.74-6.97c-3.9,0-6.69,3.09-6.69,6.92v0.05
			c0,3.84,2.83,6.97,6.74,6.97C166.38,110.2,169.17,107.12,169.17,103.28 M153.73,103.28v-0.05c0-4.65,3.54-8.74,8.74-8.74
			s8.69,4.03,8.69,8.69v0.05c0,4.65-3.54,8.73-8.74,8.73C157.22,111.97,153.73,107.94,153.73,103.28"/>
		<path class="st5" d="M174,104.61v-9.82h1.93v9.69c0,3.64,1.98,5.69,5.23,5.69c3.15,0,5.15-1.88,5.15-5.58v-9.82h1.93v9.67
			c0,4.92-2.86,7.48-7.13,7.48C176.88,111.94,174,109.38,174,104.61"/>
	</g>
	<polygon class="st5" points="191.58,94.79 193.38,94.79 204.16,108.32 204.16,94.79 206.04,94.79 206.04,111.68 204.5,111.68 
		193.46,97.83 193.46,111.68 191.58,111.68 	"/>
	<g>
		<path class="st5" d="M211.25,96.55v13.37h4c4.32,0,7.08-2.9,7.08-6.63v-0.05c0-3.74-2.76-6.68-7.08-6.68L211.25,96.55
			L211.25,96.55z M209.33,94.79h5.93c5.37,0,9.09,3.65,9.09,8.39v0.05c0,4.75-3.71,8.45-9.09,8.45h-5.93V94.79z"/>
	</g>
	<path class="st5" d="M236.82,105.47l-3.88-8.59l-3.9,8.59H236.82z M232.07,94.67h1.81l7.79,17.01h-2.08l-2-4.46h-9.3l-2.03,4.46
		h-1.98L232.07,94.67z"/>
	<polygon class="st5" points="245.22,96.55 239.48,96.55 239.48,94.79 252.91,94.79 252.91,96.55 247.17,96.55 247.17,111.68 
		245.22,111.68 	"/>
	<rect x="255.61" y="94.79" class="st5" width="1.93" height="16.89"/>
	<g>
		<path class="st5" d="M275.88,103.28v-0.05c0-3.84-2.83-6.97-6.74-6.97s-6.69,3.09-6.69,6.92v0.05c0,3.84,2.83,6.97,6.74,6.97
			C273.1,110.2,275.88,107.12,275.88,103.28 M260.44,103.28v-0.05c0-4.65,3.54-8.74,8.74-8.74s8.69,4.03,8.69,8.69v0.05
			c0,4.65-3.54,8.73-8.74,8.73C263.94,111.97,260.44,107.94,260.44,103.28"/>
	</g>
	<polygon class="st5" points="280.54,94.79 282.35,94.79 293.12,108.32 293.12,94.79 295,94.79 295,111.68 293.46,111.68 
		282.42,97.83 282.42,111.68 280.54,111.68 	"/>
	<g>
		<path class="st5" d="M209.59,22.54h-2.3c-0.41,0-0.73,0.32-0.73,0.72v5.96h-6.93v-5.96c0-0.4-0.33-0.72-0.73-0.72h-2.3
			c-0.41,0-0.73,0.32-0.73,0.72v15.44c0,0.4,0.33,0.72,0.73,0.72h2.3c0.41,0,0.73-0.32,0.73-0.72v-6.06h6.93v6.06
			c0,0.4,0.33,0.72,0.73,0.72h2.3c0.41,0,0.73-0.32,0.73-0.72V23.26C210.32,22.86,209.99,22.54,209.59,22.54"/>
		<path class="st5" d="M176.1,22.54h-12.7c-0.41,0-0.73,0.33-0.73,0.73v1.98c0,0.4,0.33,0.73,0.73,0.73h4.47V38.7
			c0,0.4,0.33,0.72,0.73,0.72h2.3c0.41,0,0.73-0.33,0.73-0.72V25.97h4.47c0.41,0,0.73-0.33,0.73-0.73v-1.98
			C176.83,22.86,176.5,22.54,176.1,22.54"/>
		<path class="st5" d="M260.33,36.12h-8.55v-3.55h7.33c0.41,0,0.73-0.33,0.73-0.73v-1.86c0-0.4-0.33-0.73-0.73-0.73h-7.33v-3.42
			h8.42c0.41,0,0.73-0.33,0.73-0.73v-1.86c0-0.4-0.33-0.72-0.73-0.72h-11.43c-0.41,0-0.73,0.33-0.73,0.72V38.7
			c0,0.4,0.33,0.72,0.73,0.72h11.56c0.41,0,0.73-0.33,0.73-0.72v-1.86C261.06,36.44,260.74,36.12,260.33,36.12"/>
		<path class="st5" d="M225.76,36.12h-8.55v-3.55h7.33c0.41,0,0.73-0.33,0.73-0.73v-1.86c0-0.4-0.33-0.73-0.73-0.73h-7.33v-3.42
			h8.42c0.41,0,0.73-0.33,0.73-0.73v-1.86c0-0.4-0.33-0.72-0.73-0.72h-11.43c-0.41,0-0.73,0.33-0.73,0.72V38.7
			c0,0.4,0.33,0.72,0.73,0.72h11.56c0.41,0,0.73-0.33,0.73-0.72v-1.86C226.5,36.44,226.16,36.12,225.76,36.12"/>
		<path class="st5" d="M274.37,28.35c0,1.42-1.05,2.39-2.88,2.39h-3.81v-4.85h3.74c1.83,0,2.96,0.82,2.96,2.41L274.37,28.35
			L274.37,28.35z M278.19,28.16v-0.05c0-1.59-0.51-2.92-1.46-3.86c-1.13-1.11-2.81-1.72-4.98-1.72h-7.08
			c-0.41,0-0.73,0.33-0.73,0.73V38.7c0,0.4,0.33,0.72,0.73,0.72h2.3c0.41,0,0.73-0.33,0.73-0.72v-4.68h2.96l3.45,5.08
			c0.14,0.2,0.36,0.32,0.61,0.32h2.62c0.59,0,0.93-0.65,0.6-1.13l-3.39-4.9C276.7,32.6,278.19,30.88,278.19,28.16"/>
		<path class="st5" d="M159.47,22.54h-2.31c-0.4,0-0.73,0.32-0.73,0.71V38.7c0,0.39,0.33,0.71,0.73,0.71h2.31
			c0.4,0,0.73-0.32,0.73-0.71V23.25C160.19,22.86,159.87,22.54,159.47,22.54"/>
		<path class="st5" d="M191.37,34.79c-0.26-0.26-0.69-0.3-0.98-0.06c-1.14,0.94-2.25,1.53-3.92,1.55c-2.77,0.03-5.03-2.35-5.03-5.08
			v-0.27c0-2.9,2.08-5.26,4.96-5.26c1.49,0,2.7,0.55,3.85,1.47c0.3,0.24,0.74,0.18,0.99-0.1l1.46-1.67c0.26-0.3,0.22-0.76-0.09-1.01
			c-1.49-1.27-3.33-2.11-6.19-2.11c-5.25,0-8.91,3.93-8.91,8.73v0.05c0,4.84,3.73,8.68,8.76,8.68c2.99,0,4.87-0.95,6.51-2.51
			c0.28-0.27,0.28-0.73,0-1L191.37,34.79z"/>
		<path class="st5" d="M243.99,22.63h-2.25c-0.41,0-0.73,0.33-0.73,0.72v9.67l-7.79-10.11c-0.14-0.18-0.35-0.28-0.58-0.28h-2.37
			c-0.41,0-0.73,0.33-0.73,0.72v15.44c0,0.4,0.33,0.72,0.73,0.72h2.25c0.41,0,0.73-0.32,0.73-0.72V28.78l8.05,10.44
			c0.14,0.18,0.35,0.28,0.58,0.28h2.1c0.41,0,0.73-0.32,0.73-0.72V23.35C244.72,22.95,244.39,22.63,243.99,22.63"/>
		<path class="st5" d="M147.59,29.7l5.78-5.95c0.44-0.45,0.12-1.21-0.52-1.21h-2.53c-0.2,0-0.39,0.08-0.53,0.23l-6.72,7.15v-6.66
			c0-0.39-0.33-0.71-0.73-0.71h-2.31c-0.4,0-0.73,0.32-0.73,0.71V38.7c0,0.39,0.33,0.71,0.73,0.71h2.31c0.4,0,0.73-0.32,0.73-0.71
			v-4.44l1.98-2.02l5.08,6.89c0.14,0.18,0.35,0.3,0.58,0.3h2.71c0.6,0,0.93-0.67,0.58-1.14L147.59,29.7z"/>
	</g>
</g>
</svg>
