<?xml version="1.0" encoding="utf-8"?>
<!-- Generator: Adobe Illustrator 25.2.2, SVG Export Plug-In . SVG Version: 6.00 Build 0)  -->
<svg version="1.1" id="Layer_1" xmlns="http://www.w3.org/2000/svg" xmlns:xlink="http://www.w3.org/1999/xlink" x="0px" y="0px"
	 viewBox="0 0 1494 500" style="enable-background:new 0 0 1494 500;" xml:space="preserve">
<style type="text/css">
	.st0{clip-path:url(#SVGID_2_);}
	.st1{opacity:0.92;fill:#FDFCF9;enable-background:new    ;}
	.st2{fill:#CF202F;}
	.st3{fill:none;stroke:#AA1A27;stroke-width:36.66;stroke-miterlimit:10;}
	.st4{fill:#F0AD4E;}
	.st5{fill:#CBDB2C;}
	.st6{fill:#FFC62F;}
	.st7{fill:#5BCBF5;}
	.st8{fill:none;stroke:#5BCBF5;stroke-width:20;stroke-miterlimit:10;}
</style>
<g>
	<g>
		<g>
			<g>
				<defs>
					<rect id="SVGID_1_" width="1494" height="500"/>
				</defs>
				<clipPath id="SVGID_2_">
					<use xlink:href="#SVGID_1_"  style="overflow:visible;"/>
				</clipPath>
				<g class="st0">
					<polygon class="st1" points="-90,117 1547,80 1547,422 -40,346 					"/>
					<circle class="st2" cx="69.7" cy="620" r="186.4"/>
					<path class="st3" d="M899.6,52.5c-24.9,0-45.1-20.2-45.1-45.1s20.2-45.1,45.1-45.1c24.9,0,45.1,20.2,45.1,45.1
						C944.7,32.3,924.5,52.5,899.6,52.5z"/>
					<path class="st4" d="M-37.9-105.3c-73.4,0-133.1,59.8-133.1,133.2s59.7,133.2,133.1,133.2S95.3,101.4,95.3,27.9
						C95.3-45.7,35.7-105.3-37.9-105.3z"/>
					
						<ellipse transform="matrix(0.7071 -0.7071 0.7071 0.7071 -168.3726 502.5126)" class="st5" cx="522.4" cy="454.5" rx="66.4" ry="66.4"/>
					<circle class="st6" cx="1508.3" cy="56.5" r="121.3"/>
					<path class="st7" d="M1650.6,56.5v0.6c0,0.2,0,0.4-0.1,0.6c0,0.2-0.1,0.4-0.2,0.5c-0.1,0.2-0.2,0.3-0.3,0.5
						c-0.1,0.2-0.2,0.3-0.4,0.4l-0.4,0.4c-0.2,0.1-0.3,0.2-0.5,0.3s-0.4,0.1-0.5,0.2s-0.4,0.1-0.6,0.1s-0.4,0-0.6-0.1
						c-0.2,0-0.4-0.1-0.5-0.2c-0.2-0.1-0.3-0.2-0.5-0.3s-0.3-0.2-0.4-0.4l-0.4-0.4c-0.1-0.2-0.2-0.3-0.3-0.5
						c-0.1-0.2-0.1-0.4-0.2-0.5s-0.1-0.4-0.1-0.6v-0.6c0-0.2,0-0.4,0.1-0.6c0-0.2,0.1-0.4,0.2-0.5c0.1-0.2,0.2-0.3,0.3-0.5
						c0.1-0.2,0.2-0.3,0.4-0.4l0.4-0.4c0.2-0.1,0.3-0.2,0.5-0.3s0.4-0.1,0.5-0.2s0.4-0.1,0.6-0.1s0.4,0,0.6,0.1
						c0.2,0,0.4,0.1,0.5,0.2c0.2,0.1,0.3,0.2,0.5,0.3s0.3,0.2,0.4,0.4l0.4,0.4c0.1,0.2,0.2,0.3,0.3,0.5s0.1,0.4,0.2,0.5
						C1650.6,56.1,1650.6,56.3,1650.6,56.5z M1649.4,38.4v1.2c0,0.2,0,0.4-0.1,0.6c-0.1,0.2-0.1,0.4-0.2,0.5s-0.2,0.3-0.3,0.5
						c-0.1,0.2-0.2,0.3-0.4,0.4c-0.2,0.1-0.3,0.2-0.5,0.3s-0.3,0.2-0.5,0.2c-0.2,0.1-0.4,0.1-0.6,0.1h-0.6c-0.2,0-0.4,0-0.6-0.1
						s-0.4-0.1-0.5-0.2s-0.3-0.2-0.5-0.3s-0.3-0.2-0.4-0.4s-0.2-0.3-0.3-0.5c-0.1-0.2-0.2-0.3-0.2-0.5c-0.1-0.2-0.1-0.4-0.1-0.6
						v-1.1c0-0.2,0-0.4,0.1-0.6c0.1-0.2,0.1-0.4,0.2-0.5s0.2-0.3,0.3-0.5c0.1-0.2,0.2-0.3,0.4-0.4c0.2-0.1,0.3-0.2,0.5-0.3
						s0.3-0.2,0.5-0.2c0.2-0.1,0.4-0.1,0.6-0.1h0.6c0.2,0,0.4,0,0.6,0.1s0.4,0.1,0.5,0.2s0.3,0.2,0.5,0.3s0.3,0.2,0.4,0.4
						s0.2,0.3,0.3,0.5c0.1,0.2,0.2,0.3,0.2,0.5S1649.4,38.2,1649.4,38.4z M1645.8,20.1l0.2,0.6c0,0.2,0.1,0.4,0.1,0.6v0.6
						c0,0.2-0.1,0.4-0.1,0.6s-0.1,0.4-0.2,0.5s-0.2,0.3-0.3,0.5s-0.3,0.3-0.4,0.4s-0.3,0.2-0.5,0.3c-0.2,0.1-0.3,0.2-0.5,0.2
						s-0.4,0.1-0.6,0.1h-0.6c-0.2,0-0.4-0.1-0.6-0.1s-0.4-0.1-0.5-0.2s-0.3-0.2-0.5-0.3l-0.4-0.4c-0.1-0.2-0.2-0.3-0.3-0.5
						c-0.1-0.2-0.2-0.3-0.2-0.5l-0.2-0.6c0-0.2-0.1-0.4-0.1-0.6v-0.6c0-0.2,0.1-0.4,0.1-0.6s0.1-0.4,0.2-0.5s0.2-0.3,0.3-0.5
						l0.4-0.4c0.2-0.1,0.3-0.2,0.5-0.3c0.2-0.1,0.3-0.2,0.5-0.2s0.4-0.1,0.6-0.1h0.6c0.2,0,0.4,0.1,0.6,0.1s0.4,0.1,0.5,0.2
						s0.3,0.2,0.5,0.3l0.4,0.4c0.1,0.2,0.2,0.3,0.3,0.5S1645.8,19.9,1645.8,20.1z M1639.9,2.4l0.2,0.5c0.1,0.2,0.1,0.4,0.2,0.5
						s0.1,0.4,0.1,0.6s0,0.4-0.1,0.6c0,0.2-0.1,0.4-0.2,0.5c-0.1,0.2-0.2,0.3-0.3,0.5c-0.1,0.2-0.2,0.3-0.4,0.4l-0.4,0.4
						c-0.2,0.1-0.3,0.2-0.5,0.3c-0.2,0.1-0.4,0.1-0.5,0.2s-0.4,0.1-0.6,0.1s-0.4,0-0.6-0.1c-0.2,0-0.4-0.1-0.5-0.2
						c-0.2-0.1-0.3-0.2-0.5-0.3c-0.2-0.1-0.3-0.2-0.4-0.4c-0.1-0.2-0.3-0.3-0.4-0.4s-0.2-0.3-0.3-0.5l-0.2-0.5
						c-0.1-0.2-0.1-0.4-0.2-0.5s-0.1-0.4-0.1-0.6c0-0.2,0-0.4,0.1-0.6c0-0.2,0.1-0.4,0.2-0.5c0.1-0.2,0.2-0.3,0.3-0.5
						c0.1-0.2,0.2-0.3,0.4-0.4l0.4-0.4c0.2-0.1,0.3-0.2,0.5-0.3s0.4-0.1,0.5-0.2s0.4-0.1,0.6-0.1s0.4,0,0.6,0.1
						c0.2,0,0.4,0.1,0.5,0.2c0.2,0.1,0.3,0.2,0.5,0.3s0.3,0.2,0.4,0.4s0.3,0.3,0.4,0.4C1639.7,2.1,1639.8,2.2,1639.9,2.4z
						 M1631.7-14.3l0.3,0.5c0.1,0.2,0.2,0.3,0.2,0.5c0.1,0.2,0.1,0.4,0.1,0.6v0.6c0,0.2,0,0.4-0.1,0.6c-0.1,0.2-0.1,0.4-0.2,0.5
						s-0.2,0.3-0.3,0.5c-0.1,0.2-0.2,0.3-0.4,0.4c-0.2,0.1-0.3,0.2-0.5,0.3s-0.3,0.2-0.5,0.2c-0.2,0.1-0.4,0.1-0.6,0.1h-0.6
						c-0.2,0-0.4,0-0.6-0.1s-0.4-0.1-0.5-0.2s-0.3-0.2-0.5-0.3s-0.3-0.2-0.4-0.4s-0.2-0.3-0.3-0.5l-0.3-0.5
						c-0.1-0.2-0.2-0.3-0.2-0.5c-0.1-0.2-0.1-0.4-0.1-0.6v-0.6c0-0.2,0-0.4,0.1-0.6c0.1-0.2,0.1-0.4,0.2-0.5s0.2-0.3,0.3-0.5
						c0.1-0.2,0.2-0.3,0.4-0.4c0.2-0.1,0.3-0.2,0.5-0.3s0.3-0.2,0.5-0.2s0.4-0.1,0.6-0.1h0.6c0.2,0,0.4,0,0.6,0.1s0.4,0.1,0.5,0.2
						s0.3,0.2,0.5,0.3s0.3,0.2,0.4,0.4C1631.5-14.6,1631.6-14.5,1631.7-14.3L1631.7-14.3z M1621.4-29.8l0.4,0.5
						c0.1,0.2,0.2,0.3,0.3,0.5c0.1,0.2,0.2,0.3,0.2,0.5s0.1,0.4,0.1,0.6v0.6c0,0.2-0.1,0.4-0.1,0.6s-0.1,0.4-0.2,0.5
						s-0.2,0.3-0.3,0.5l-0.4,0.4c-0.2,0.1-0.3,0.2-0.5,0.3c-0.2,0.1-0.3,0.2-0.5,0.2s-0.4,0.1-0.6,0.1h-0.6c-0.2,0-0.4-0.1-0.6-0.1
						s-0.4-0.1-0.5-0.2s-0.3-0.2-0.5-0.3l-0.4-0.4l-0.4-0.5c-0.1-0.2-0.2-0.3-0.3-0.5c-0.1-0.2-0.2-0.3-0.2-0.5s-0.1-0.4-0.1-0.6
						v-0.6c0-0.2,0.1-0.4,0.1-0.6s0.1-0.4,0.2-0.5s0.2-0.3,0.3-0.5l0.4-0.4c0.2-0.1,0.3-0.2,0.5-0.3c0.2-0.1,0.3-0.2,0.5-0.2
						s0.4-0.1,0.6-0.1h0.6c0.2,0,0.4,0.1,0.6,0.1s0.4,0.1,0.5,0.2s0.3,0.2,0.5,0.3S1621.3-30,1621.4-29.8z M1609.2-43.8l0.4,0.4
						l0.4,0.4c0.1,0.2,0.2,0.3,0.3,0.5s0.1,0.4,0.2,0.5s0.1,0.4,0.1,0.6c0,0.2,0,0.4-0.1,0.6c0,0.2-0.1,0.4-0.2,0.5
						c-0.1,0.2-0.2,0.3-0.3,0.5c-0.1,0.2-0.2,0.3-0.4,0.4l-0.4,0.4c-0.2,0.1-0.3,0.2-0.5,0.3s-0.4,0.1-0.5,0.2s-0.4,0.1-0.6,0.1
						s-0.4,0-0.6-0.1c-0.2,0-0.4-0.1-0.5-0.2c-0.2-0.1-0.3-0.2-0.5-0.3s-0.3-0.2-0.4-0.4l-0.4-0.4l-0.4-0.4
						c-0.1-0.2-0.2-0.3-0.3-0.5s-0.1-0.4-0.2-0.5s-0.1-0.4-0.1-0.6c0-0.2,0-0.4,0.1-0.6c0-0.2,0.1-0.4,0.2-0.5
						c0.1-0.2,0.2-0.3,0.3-0.5c0.1-0.2,0.2-0.3,0.4-0.4l0.4-0.4c0.2-0.1,0.3-0.2,0.5-0.3s0.4-0.1,0.5-0.2s0.4-0.1,0.6-0.1
						s0.4,0,0.6,0.1c0.2,0,0.4,0.1,0.5,0.2c0.2,0.1,0.3,0.2,0.5,0.3L1609.2-43.8z M1595.2-56.2l0.5,0.4c0.2,0.1,0.3,0.2,0.4,0.4
						s0.2,0.3,0.3,0.5c0.1,0.2,0.2,0.3,0.2,0.5c0.1,0.2,0.1,0.4,0.1,0.6v0.6c0,0.2,0,0.4-0.1,0.6c-0.1,0.2-0.1,0.4-0.2,0.5
						s-0.2,0.3-0.3,0.5c-0.1,0.2-0.2,0.3-0.4,0.4c-0.2,0.1-0.3,0.2-0.5,0.3s-0.3,0.2-0.5,0.2c-0.2,0.1-0.4,0.1-0.6,0.1h-0.6
						c-0.2,0-0.4,0-0.6-0.1s-0.4-0.1-0.5-0.2s-0.3-0.2-0.5-0.3l-0.5-0.4c-0.2-0.1-0.3-0.2-0.4-0.4s-0.2-0.3-0.3-0.5
						c-0.1-0.2-0.2-0.3-0.2-0.5c-0.1-0.2-0.1-0.4-0.1-0.6v-0.6c0-0.2,0-0.4,0.1-0.6c0.1-0.2,0.1-0.4,0.2-0.5s0.2-0.3,0.3-0.5
						c0.1-0.2,0.2-0.3,0.4-0.4c0.2-0.1,0.3-0.2,0.5-0.3s0.3-0.2,0.5-0.2c0.2-0.1,0.4-0.1,0.6-0.1h0.6c0.2,0,0.4,0,0.6,0.1
						s0.4,0.1,0.5,0.2S1595-56.3,1595.2-56.2L1595.2-56.2z M1579.7-66.6L1579.7-66.6l0.5,0.3c0.2,0.1,0.3,0.2,0.5,0.3l0.4,0.4
						c0.1,0.2,0.2,0.3,0.3,0.5c0.1,0.2,0.2,0.3,0.2,0.5s0.1,0.4,0.1,0.6v0.6c0,0.2-0.1,0.4-0.1,0.6s-0.1,0.4-0.2,0.5
						s-0.2,0.3-0.3,0.5l-0.4,0.4c-0.2,0.1-0.3,0.2-0.5,0.3s-0.3,0.2-0.5,0.2s-0.4,0.1-0.6,0.1h-0.6c-0.2,0-0.4-0.1-0.6-0.1
						s-0.4-0.1-0.5-0.2l-0.5-0.3l0,0c-0.2-0.1-0.3-0.2-0.5-0.3l-0.4-0.4c-0.1-0.2-0.2-0.3-0.3-0.5c-0.1-0.2-0.2-0.3-0.2-0.5
						c0-0.1-0.1-0.4-0.1-0.6v-0.6c0-0.2,0.1-0.4,0.1-0.6s0.1-0.4,0.2-0.5c0.1-0.2,0.2-0.3,0.3-0.5l0.4-0.4c0.2-0.1,0.3-0.2,0.5-0.3
						c0.2-0.1,0.3-0.2,0.5-0.2s0.4-0.1,0.6-0.1h0.6c0.2,0,0.4,0.1,0.6,0.1C1579.4-66.7,1579.5-66.6,1579.7-66.6L1579.7-66.6z
						 M1563.1-74.8l0.5,0.2c0.2,0.1,0.3,0.2,0.5,0.3c0.2,0.1,0.3,0.2,0.4,0.4l0.4,0.4c0.1,0.2,0.2,0.3,0.3,0.5s0.1,0.4,0.2,0.5
						s0.1,0.4,0.1,0.6s0,0.4-0.1,0.6c0,0.2-0.1,0.4-0.2,0.5c-0.1,0.2-0.2,0.3-0.3,0.5c-0.1,0.2-0.2,0.3-0.4,0.4l-0.4,0.4
						c-0.2,0.1-0.3,0.2-0.5,0.3s-0.4,0.1-0.5,0.2s-0.4,0.1-0.6,0.1s-0.4,0-0.6-0.1c-0.2,0-0.4-0.1-0.5-0.2l-0.5-0.2
						c-0.2-0.1-0.3-0.2-0.5-0.3c-0.2-0.1-0.3-0.2-0.4-0.4l-0.4-0.4c-0.1-0.2-0.2-0.3-0.3-0.5c-0.1-0.2-0.1-0.4-0.2-0.5
						s-0.1-0.4-0.1-0.6s0-0.4,0.1-0.6c0-0.2,0.1-0.4,0.2-0.5c0.1-0.2,0.2-0.3,0.3-0.5c0.1-0.2,0.2-0.3,0.4-0.4l0.4-0.4
						c0.2-0.1,0.3-0.2,0.5-0.3c0.2-0.1,0.4-0.1,0.5-0.2s0.4-0.1,0.6-0.1s0.4,0,0.6,0.1C1562.7-74.9,1562.9-74.9,1563.1-74.8
						L1563.1-74.8z M1545.4-80.8l0.6,0.2c0.2,0.1,0.4,0.1,0.5,0.2s0.3,0.2,0.5,0.3c0.2,0.1,0.3,0.2,0.4,0.4c0.1,0.2,0.2,0.3,0.3,0.5
						c0.1,0.2,0.2,0.3,0.2,0.5c0.1,0.2,0.1,0.4,0.1,0.6v0.6c0,0.2,0,0.4-0.1,0.6s-0.1,0.4-0.2,0.5s-0.2,0.3-0.3,0.5
						c-0.1,0.2-0.2,0.3-0.4,0.4c-0.2,0.1-0.3,0.2-0.5,0.3c-0.2,0.1-0.3,0.2-0.5,0.2c-0.2,0.1-0.4,0.1-0.6,0.1h-0.6
						c-0.2,0-0.4,0-0.6-0.1l-0.6-0.2c-0.2-0.1-0.4-0.1-0.5-0.2s-0.3-0.2-0.5-0.3c-0.2-0.1-0.3-0.2-0.4-0.4c-0.1-0.2-0.2-0.3-0.3-0.5
						c-0.1-0.2-0.2-0.3-0.2-0.5c-0.1-0.2-0.1-0.4-0.1-0.6v-0.6c0-0.2,0-0.4,0.1-0.6s0.1-0.4,0.2-0.5s0.2-0.3,0.3-0.5
						c0.1-0.2,0.2-0.3,0.4-0.4c0.2-0.1,0.3-0.2,0.5-0.3c0.2-0.1,0.3-0.2,0.5-0.2c0.2-0.1,0.4-0.1,0.6-0.1h0.6
						C1545.1-80.9,1545.3-80.9,1545.4-80.8L1545.4-80.8z M1527.2-84.5l0.6,0.1c0.2,0,0.4,0.1,0.6,0.1s0.4,0.1,0.5,0.2
						c0.2,0.1,0.3,0.2,0.5,0.3l0.4,0.4c0.1,0.2,0.2,0.3,0.3,0.5c0.1,0.2,0.2,0.3,0.2,0.5s0.1,0.4,0.1,0.6v0.6c0,0.2-0.1,0.4-0.1,0.6
						s-0.1,0.4-0.2,0.5s-0.2,0.3-0.3,0.5l-0.4,0.4c-0.2,0.1-0.3,0.2-0.5,0.3c-0.2,0.1-0.3,0.2-0.5,0.2s-0.4,0.1-0.6,0.1h-0.6
						l-0.6-0.1c-0.2,0-0.4-0.1-0.6-0.1s-0.4-0.1-0.5-0.2s-0.3-0.2-0.5-0.3l-0.4-0.4c-0.1-0.2-0.2-0.3-0.3-0.5
						c-0.1-0.2-0.2-0.3-0.2-0.5s-0.1-0.4-0.1-0.6v-0.6c0-0.2,0.1-0.4,0.1-0.6s0.1-0.4,0.2-0.5s0.2-0.3,0.3-0.5l0.4-0.4
						c0.2-0.1,0.3-0.2,0.5-0.3c0.2-0.1,0.3-0.2,0.5-0.2s0.4-0.1,0.6-0.1S1527-84.5,1527.2-84.5L1527.2-84.5z M1508.6-85.8h0.6
						c0.2,0,0.4,0,0.6,0.1c0.2,0,0.4,0.1,0.5,0.2c0.2,0.1,0.3,0.2,0.5,0.3c0.2,0.1,0.3,0.2,0.4,0.4l0.4,0.4c0.1,0.2,0.2,0.3,0.3,0.5
						s0.1,0.4,0.2,0.5s0.1,0.4,0.1,0.6s0,0.4-0.1,0.6c0,0.2-0.1,0.4-0.2,0.5c-0.1,0.2-0.2,0.3-0.3,0.5c-0.1,0.2-0.2,0.3-0.4,0.4
						l-0.4,0.4c-0.2,0.1-0.3,0.2-0.5,0.3s-0.4,0.1-0.5,0.2s-0.4,0.1-0.6,0.1h-0.6c-0.2,0-0.4,0-0.6-0.1s-0.4-0.1-0.5-0.2
						s-0.3-0.2-0.5-0.3c-0.2-0.1-0.3-0.2-0.4-0.4l-0.4-0.4c-0.1-0.2-0.2-0.3-0.3-0.5s-0.1-0.4-0.2-0.5s-0.1-0.4-0.1-0.6
						s0-0.4,0.1-0.6c0-0.2,0.1-0.4,0.2-0.5c0.1-0.2,0.2-0.3,0.3-0.5c0.1-0.2,0.2-0.3,0.4-0.4l0.4-0.4c0.2-0.1,0.3-0.2,0.5-0.3
						s0.4-0.1,0.5-0.2C1508.2-85.8,1508.4-85.8,1508.6-85.8L1508.6-85.8z M1490.1-84.6l0.6-0.1h0.6c0.2,0,0.4,0,0.6,0.1
						s0.4,0.1,0.5,0.2s0.3,0.2,0.5,0.3c0.2,0.1,0.3,0.2,0.4,0.4c0.1,0.2,0.2,0.3,0.3,0.5c0.1,0.2,0.2,0.3,0.2,0.5
						c0.1,0.2,0.1,0.4,0.1,0.6v0.6c0,0.2,0,0.4-0.1,0.6s-0.1,0.4-0.2,0.5s-0.2,0.3-0.3,0.5c-0.1,0.2-0.2,0.3-0.4,0.4
						c-0.2,0.1-0.3,0.2-0.5,0.3c-0.2,0.1-0.3,0.2-0.5,0.2c-0.2,0.1-0.4,0.1-0.6,0.1l-0.6,0.1h-0.6c-0.2,0-0.4,0-0.6-0.1
						s-0.4-0.1-0.5-0.2s-0.3-0.2-0.5-0.3c-0.2-0.1-0.3-0.2-0.4-0.4c-0.1-0.2-0.2-0.3-0.3-0.5c-0.1-0.2-0.2-0.3-0.2-0.5
						c-0.1-0.2-0.1-0.4-0.1-0.6V-82c0-0.2,0-0.4,0.1-0.6s0.1-0.4,0.2-0.5s0.2-0.3,0.3-0.5c0.1-0.2,0.2-0.3,0.4-0.4
						c0.2-0.1,0.3-0.2,0.5-0.3c0.2-0.1,0.3-0.2,0.5-0.2S1489.9-84.6,1490.1-84.6L1490.1-84.6z M1471.8-81l0.6-0.2
						c0.2,0,0.4-0.1,0.6-0.1h0.6c0.2,0,0.4,0.1,0.6,0.1s0.4,0.1,0.5,0.2s0.3,0.2,0.5,0.3l0.4,0.4c0.1,0.2,0.2,0.3,0.3,0.5
						c0.1,0.2,0.2,0.3,0.2,0.5s0.1,0.4,0.1,0.6v0.6c0,0.2-0.1,0.4-0.1,0.6s-0.1,0.4-0.2,0.5s-0.2,0.3-0.3,0.5s-0.3,0.3-0.4,0.4
						s-0.3,0.2-0.5,0.3c-0.2,0.1-0.3,0.2-0.5,0.2l-0.6,0.2c-0.2,0-0.4,0.1-0.6,0.1h-0.6c-0.2,0-0.4-0.1-0.6-0.1s-0.4-0.1-0.5-0.2
						s-0.3-0.2-0.5-0.3l-0.4-0.4c-0.1-0.2-0.2-0.3-0.3-0.5c-0.1-0.2-0.2-0.3-0.2-0.5s-0.1-0.4-0.1-0.6v-0.6c0-0.2,0.1-0.4,0.1-0.6
						s0.1-0.4,0.2-0.5c0.1-0.2,0.2-0.3,0.3-0.5l0.4-0.4c0.2-0.1,0.3-0.2,0.5-0.3S1471.6-81,1471.8-81z M1454.2-75.1l0.5-0.2
						c0.2-0.1,0.4-0.1,0.5-0.2s0.4-0.1,0.6-0.1s0.4,0,0.6,0.1c0.2,0,0.4,0.1,0.5,0.2c0.2,0.1,0.3,0.2,0.5,0.3
						c0.2,0.1,0.3,0.2,0.4,0.4l0.4,0.4c0.1,0.2,0.2,0.3,0.3,0.5s0.1,0.4,0.2,0.5s0.1,0.4,0.1,0.6s0,0.4-0.1,0.6
						c0,0.2-0.1,0.4-0.2,0.5c-0.1,0.2-0.2,0.3-0.3,0.5c-0.1,0.2-0.2,0.3-0.4,0.4l-0.4,0.4c-0.2,0.1-0.3,0.2-0.5,0.3l-0.5,0.2
						c-0.2,0.1-0.4,0.1-0.5,0.2s-0.4,0.1-0.6,0.1s-0.4,0-0.6-0.1c-0.2,0-0.4-0.1-0.5-0.2c-0.2-0.1-0.3-0.2-0.5-0.3
						c-0.2-0.1-0.3-0.2-0.4-0.4l-0.4-0.4c-0.1-0.2-0.2-0.3-0.3-0.5s-0.1-0.4-0.2-0.5s-0.1-0.4-0.1-0.6s0-0.4,0.1-0.6
						c0-0.2,0.1-0.4,0.2-0.5c0.1-0.2,0.2-0.3,0.3-0.5c0.1-0.2,0.2-0.3,0.4-0.4l0.4-0.4C1453.9-74.9,1454-75,1454.2-75.1L1454.2-75.1
						z M1437.5-66.9l0.5-0.3c0.2-0.1,0.3-0.2,0.5-0.2c0.2-0.1,0.4-0.1,0.6-0.1h0.6c0.2,0,0.4,0,0.6,0.1s0.4,0.1,0.5,0.2
						s0.3,0.2,0.5,0.3c0.2,0.1,0.3,0.2,0.4,0.4c0.1,0.2,0.2,0.3,0.3,0.5c0.1,0.2,0.2,0.3,0.2,0.5c0.1,0.2,0.1,0.4,0.1,0.6v0.6
						c0,0.2,0,0.4-0.1,0.6c-0.1,0.2-0.1,0.4-0.2,0.5s-0.2,0.3-0.3,0.5c-0.1,0.2-0.2,0.3-0.4,0.4c-0.2,0.1-0.3,0.2-0.5,0.3l-0.5,0.3
						c-0.2,0.1-0.3,0.2-0.5,0.2c-0.2,0.1-0.4,0.1-0.6,0.1h-0.6c-0.2,0-0.4,0-0.6-0.1s-0.4-0.1-0.5-0.2s-0.3-0.2-0.5-0.3
						s-0.3-0.2-0.4-0.4s-0.2-0.3-0.3-0.5c-0.1-0.2-0.2-0.3-0.2-0.5c-0.1-0.2-0.1-0.4-0.1-0.6v-0.6c0-0.2,0-0.4,0.1-0.6
						s0.1-0.4,0.2-0.5s0.2-0.3,0.3-0.5c0.1-0.2,0.2-0.3,0.4-0.4C1437.2-66.7,1437.3-66.8,1437.5-66.9L1437.5-66.9z M1421.9-56.5
						l0.5-0.4c0.2-0.1,0.3-0.2,0.5-0.3s0.3-0.2,0.5-0.2s0.4-0.1,0.6-0.1h0.6c0.2,0,0.4,0.1,0.6,0.1s0.4,0.1,0.5,0.2
						c0.2,0.1,0.3,0.2,0.5,0.3l0.4,0.4c0.1,0.2,0.2,0.3,0.3,0.5c0.1,0.2,0.2,0.3,0.2,0.5s0.1,0.4,0.1,0.6v0.6c0,0.2-0.1,0.4-0.1,0.6
						s-0.1,0.4-0.2,0.5s-0.2,0.3-0.3,0.5s-0.3,0.3-0.4,0.4l-0.5,0.4c-0.2,0.1-0.3,0.2-0.5,0.3s-0.3,0.2-0.5,0.2s-0.4,0.1-0.6,0.1
						h-0.6c-0.2,0-0.4-0.1-0.6-0.1s-0.4-0.1-0.5-0.2s-0.3-0.2-0.5-0.3l-0.4-0.4c-0.1-0.2-0.2-0.3-0.3-0.5c-0.1-0.2-0.2-0.3-0.2-0.5
						s-0.1-0.4-0.1-0.6v-0.6c0-0.2,0.1-0.4,0.1-0.6s0.1-0.4,0.2-0.5s0.2-0.3,0.3-0.5L1421.9-56.5z M1407.9-44.3l0.4-0.4l0.4-0.4
						c0.2-0.1,0.3-0.2,0.5-0.3s0.4-0.1,0.5-0.2s0.4-0.1,0.6-0.1s0.4,0,0.6,0.1c0.2,0,0.4,0.1,0.5,0.2c0.2,0.1,0.3,0.2,0.5,0.3
						s0.3,0.2,0.4,0.4l0.4,0.4c0.1,0.2,0.2,0.3,0.3,0.5s0.1,0.4,0.2,0.5s0.1,0.4,0.1,0.6c0,0.2,0,0.4-0.1,0.6c0,0.2-0.1,0.4-0.2,0.5
						c-0.1,0.2-0.2,0.3-0.3,0.5c-0.1,0.2-0.2,0.3-0.4,0.4l-0.4,0.4l-0.4,0.4c-0.2,0.1-0.3,0.2-0.5,0.3s-0.4,0.1-0.5,0.2
						s-0.4,0.1-0.6,0.1s-0.4,0-0.6-0.1c-0.2,0-0.4-0.1-0.5-0.2c-0.2-0.1-0.3-0.2-0.5-0.3s-0.3-0.2-0.4-0.4l-0.4-0.4
						c-0.1-0.2-0.2-0.3-0.3-0.5s-0.1-0.4-0.2-0.5s-0.1-0.4-0.1-0.6c0-0.2,0-0.4,0.1-0.6c0-0.2,0.1-0.4,0.2-0.5
						c0.1-0.2,0.2-0.3,0.3-0.5S1407.8-44.2,1407.9-44.3L1407.9-44.3z M1395.6-30.3l0.4-0.5c0.1-0.2,0.2-0.3,0.4-0.4
						c0.2-0.1,0.3-0.2,0.5-0.3c0.2-0.1,0.3-0.2,0.5-0.2s0.4-0.1,0.6-0.1h0.6c0.2,0,0.4,0,0.6,0.1s0.4,0.1,0.5,0.2s0.3,0.2,0.5,0.3
						c0.2,0.1,0.3,0.2,0.4,0.4c0.1,0.2,0.2,0.3,0.3,0.5c0.1,0.2,0.2,0.3,0.2,0.5c0.1,0.2,0.1,0.4,0.1,0.6v0.6c0,0.2,0,0.4-0.1,0.6
						s-0.1,0.4-0.2,0.5s-0.2,0.3-0.3,0.5l-0.4,0.5c-0.1,0.2-0.2,0.3-0.4,0.4c-0.2,0.1-0.3,0.2-0.5,0.3c-0.2,0.1-0.3,0.2-0.5,0.2
						s-0.4,0.1-0.6,0.1h-0.6c-0.2,0-0.4,0-0.6-0.1s-0.4-0.1-0.5-0.2c-0.2-0.1-0.3-0.2-0.5-0.3c-0.2-0.1-0.3-0.2-0.4-0.4
						c-0.1-0.2-0.2-0.3-0.3-0.5c-0.1-0.2-0.2-0.3-0.2-0.5c-0.1-0.2-0.1-0.4-0.1-0.6v-0.6c0-0.2,0-0.4,0.1-0.6s0.1-0.4,0.2-0.5
						C1395.4-30,1395.5-30.1,1395.6-30.3L1395.6-30.3z M1385.2-14.8l0.3-0.5c0.1-0.2,0.2-0.3,0.3-0.5l0.4-0.4
						c0.2-0.1,0.3-0.2,0.5-0.3c0.2-0.1,0.3-0.2,0.5-0.2s0.4-0.1,0.6-0.1h0.6c0.2,0,0.4,0.1,0.6,0.1s0.4,0.1,0.5,0.2s0.3,0.2,0.5,0.3
						l0.4,0.4c0.1,0.2,0.2,0.3,0.3,0.5c0.1,0.2,0.2,0.3,0.2,0.5s0.1,0.4,0.1,0.6v0.6c0,0.2-0.1,0.4-0.1,0.6s-0.1,0.4-0.2,0.5
						l-0.3,0.5c-0.1,0.2-0.2,0.3-0.3,0.5l-0.4,0.4c-0.2,0.1-0.3,0.2-0.5,0.3s-0.3,0.2-0.5,0.2s-0.4,0.1-0.6,0.1h-0.6
						c-0.2,0-0.4-0.1-0.6-0.1s-0.4-0.1-0.5-0.2s-0.3-0.2-0.5-0.3l-0.4-0.4c-0.1-0.2-0.2-0.3-0.3-0.5c-0.1-0.2-0.2-0.3-0.2-0.5
						s-0.1-0.4-0.1-0.6v-0.6c0-0.2,0.1-0.4,0.1-0.6S1385.1-14.7,1385.2-14.8L1385.2-14.8z M1377,1.8l0.2-0.5
						c0.1-0.2,0.2-0.3,0.3-0.5c0.1-0.2,0.2-0.3,0.4-0.4l0.4-0.4c0.2-0.1,0.3-0.2,0.5-0.3s0.4-0.1,0.5-0.2s0.4-0.1,0.6-0.1
						s0.4,0,0.6,0.1c0.2,0,0.4,0.1,0.5,0.2c0.2,0.1,0.3,0.2,0.5,0.3s0.3,0.2,0.4,0.4l0.4,0.4c0.1,0.2,0.2,0.3,0.3,0.5
						s0.1,0.4,0.2,0.5s0.1,0.4,0.1,0.6s0,0.4-0.1,0.6c0,0.2-0.1,0.4-0.2,0.5l-0.2,0.5c-0.1,0.2-0.2,0.3-0.3,0.5
						c-0.1,0.2-0.2,0.3-0.4,0.4l-0.4,0.4c-0.2,0.1-0.3,0.2-0.5,0.3s-0.4,0.1-0.5,0.2s-0.4,0.1-0.6,0.1s-0.4,0-0.6-0.1
						c-0.2,0-0.4-0.1-0.5-0.2c-0.2-0.1-0.3-0.2-0.5-0.3c-0.2-0.1-0.3-0.2-0.4-0.4l-0.4-0.4c-0.1-0.2-0.2-0.3-0.3-0.5
						c-0.1-0.2-0.1-0.4-0.2-0.5s-0.1-0.4-0.1-0.6c0-0.2,0-0.4,0.1-0.6C1376.8,2.1,1376.9,2,1377,1.8z M1371,19.5l0.2-0.6
						c0.1-0.2,0.1-0.4,0.2-0.5c0.1-0.2,0.2-0.3,0.3-0.5c0.1-0.2,0.2-0.3,0.4-0.4c0.2-0.1,0.3-0.2,0.5-0.3c0.2-0.1,0.3-0.2,0.5-0.2
						c0.2-0.1,0.4-0.1,0.6-0.1h0.6c0.2,0,0.4,0,0.6,0.1s0.4,0.1,0.5,0.2s0.3,0.2,0.5,0.3c0.2,0.1,0.3,0.2,0.4,0.4
						c0.1,0.2,0.2,0.3,0.3,0.5c0.1,0.2,0.2,0.3,0.2,0.5c0.1,0.2,0.1,0.4,0.1,0.6v0.6c0,0.2,0,0.4-0.1,0.6l-0.2,0.6
						c-0.1,0.2-0.1,0.4-0.2,0.5c-0.1,0.2-0.2,0.3-0.3,0.5c-0.1,0.2-0.2,0.3-0.4,0.4c-0.2,0.1-0.3,0.2-0.5,0.3
						c-0.2,0.1-0.3,0.2-0.5,0.2c-0.2,0.1-0.4,0.1-0.6,0.1h-0.6c-0.2,0-0.4,0-0.6-0.1s-0.4-0.1-0.5-0.2s-0.3-0.2-0.5-0.3
						c-0.2-0.1-0.3-0.2-0.4-0.4c-0.1-0.2-0.2-0.3-0.3-0.5c-0.1-0.2-0.2-0.3-0.2-0.5c-0.1-0.2-0.1-0.4-0.1-0.6v-0.6
						C1370.9,19.9,1370.9,19.7,1371,19.5z M1367.3,37.8l0.1-0.6c0-0.2,0.1-0.4,0.1-0.6s0.1-0.4,0.2-0.5s0.2-0.3,0.3-0.5l0.4-0.4
						c0.2-0.1,0.3-0.2,0.5-0.3s0.3-0.2,0.5-0.2s0.4-0.1,0.6-0.1h0.6c0.2,0,0.4,0.1,0.6,0.1s0.4,0.1,0.5,0.2s0.3,0.2,0.5,0.3l0.4,0.4
						c0.1,0.2,0.2,0.3,0.3,0.5c0.1,0.2,0.2,0.3,0.2,0.5c0,0.1,0.1,0.4,0.1,0.6v0.6l-0.1,0.6c0,0.2-0.1,0.4-0.1,0.6s-0.1,0.4-0.2,0.5
						s-0.2,0.3-0.3,0.5l-0.4,0.4c-0.2,0.1-0.3,0.2-0.5,0.3s-0.3,0.2-0.5,0.2s-0.4,0.1-0.6,0.1h-0.6c-0.2,0-0.4-0.1-0.6-0.1
						s-0.4-0.1-0.5-0.2s-0.3-0.2-0.5-0.3l-0.4-0.4c-0.1-0.2-0.2-0.3-0.3-0.5c-0.1-0.2-0.2-0.3-0.2-0.5s-0.1-0.4-0.1-0.6V37.8z
						 M1366.1,56.3v-0.6c0-0.2,0-0.4,0.1-0.6c0.1-0.2,0.1-0.4,0.2-0.5s0.2-0.3,0.3-0.5c0.1-0.2,0.2-0.3,0.4-0.4
						c0.2-0.1,0.3-0.3,0.4-0.4s0.3-0.2,0.5-0.3s0.4-0.1,0.5-0.2s0.4-0.1,0.6-0.1s0.4,0,0.6,0.1c0.2,0,0.4,0.1,0.5,0.2
						c0.2,0.1,0.3,0.2,0.5,0.3s0.3,0.2,0.4,0.4l0.4,0.4c0.1,0.2,0.2,0.3,0.3,0.5s0.1,0.4,0.2,0.5s0.1,0.4,0.1,0.6v0.6
						c0,0.2,0,0.4-0.1,0.6c0,0.2-0.1,0.4-0.2,0.5c-0.1,0.2-0.2,0.3-0.3,0.5c-0.1,0.2-0.2,0.3-0.4,0.4l-0.4,0.4
						c-0.2,0.1-0.3,0.2-0.5,0.3s-0.4,0.1-0.5,0.2s-0.4,0.1-0.6,0.1s-0.4,0-0.6-0.1c-0.2,0-0.4-0.1-0.5-0.2c-0.2-0.1-0.3-0.2-0.5-0.3
						s-0.3-0.2-0.4-0.4l-0.4-0.4c-0.1-0.2-0.2-0.3-0.3-0.5s-0.1-0.4-0.2-0.5C1366.1,56.7,1366.1,56.5,1366.1,56.3L1366.1,56.3z
						 M1367.2,74.8l-0.1-0.6v-0.6c0-0.2,0-0.4,0.1-0.6s0.1-0.4,0.2-0.5s0.2-0.3,0.3-0.5c0.1-0.2,0.2-0.3,0.4-0.4
						c0.2-0.1,0.3-0.2,0.5-0.3s0.3-0.2,0.5-0.2c0.2-0.1,0.4-0.1,0.6-0.1h0.6c0.2,0,0.4,0,0.6,0.1s0.4,0.1,0.5,0.2s0.3,0.2,0.5,0.3
						c0.2,0.1,0.3,0.2,0.4,0.4c0.1,0.2,0.2,0.3,0.3,0.5c0.1,0.2,0.2,0.3,0.2,0.5c0.1,0.2,0.1,0.4,0.1,0.6l0.1,0.6v0.6
						c0,0.2,0,0.4-0.1,0.6s-0.1,0.4-0.2,0.5s-0.2,0.3-0.3,0.5c-0.1,0.2-0.2,0.3-0.4,0.4c-0.2,0.1-0.3,0.2-0.5,0.3
						c-0.2,0.1-0.3,0.2-0.5,0.2c-0.2,0.1-0.4,0.1-0.6,0.1h-0.6c-0.2,0-0.4,0-0.6-0.1s-0.4-0.1-0.5-0.2s-0.3-0.2-0.5-0.3
						c-0.2-0.1-0.3-0.2-0.4-0.4c-0.1-0.2-0.2-0.3-0.3-0.5c-0.1-0.2-0.2-0.3-0.2-0.5C1367.3,75.2,1367.3,75,1367.2,74.8L1367.2,74.8z
						 M1370.8,93.1l-0.2-0.6c0-0.2-0.1-0.4-0.1-0.6v-0.6c0-0.2,0.1-0.4,0.1-0.6s0.1-0.4,0.2-0.5s0.2-0.3,0.3-0.5l0.4-0.4
						c0.2-0.1,0.3-0.2,0.5-0.3c0.2-0.1,0.3-0.2,0.5-0.2s0.4-0.1,0.6-0.1h0.6c0.2,0,0.4,0.1,0.6,0.1s0.4,0.1,0.5,0.2
						c0.2,0.1,0.3,0.2,0.5,0.3l0.4,0.4c0.1,0.2,0.2,0.3,0.3,0.5c0.1,0.2,0.2,0.3,0.2,0.5l0.2,0.6c0,0.2,0.1,0.4,0.1,0.6v0.6
						c0,0.2-0.1,0.4-0.1,0.6s-0.1,0.4-0.2,0.5s-0.2,0.3-0.3,0.5l-0.4,0.4c-0.2,0.1-0.3,0.2-0.5,0.3c-0.2,0.1-0.3,0.2-0.5,0.2
						s-0.4,0.1-0.6,0.1h-0.6c-0.2,0-0.4-0.1-0.6-0.1s-0.4-0.1-0.5-0.2c-0.2-0.1-0.3-0.2-0.5-0.3l-0.4-0.4c-0.1-0.2-0.2-0.3-0.3-0.5
						C1371,93.4,1370.9,93.3,1370.8,93.1z M1376.8,110.7l-0.2-0.5c-0.1-0.2-0.1-0.4-0.2-0.5s-0.1-0.4-0.1-0.6s0-0.4,0.1-0.6
						c0-0.2,0.1-0.4,0.2-0.5c0.1-0.2,0.2-0.3,0.3-0.5c0.1-0.2,0.2-0.3,0.4-0.4l0.4-0.4c0.2-0.1,0.3-0.2,0.5-0.3s0.4-0.1,0.5-0.2
						s0.4-0.1,0.6-0.1s0.4,0,0.6,0.1c0.2,0,0.4,0.1,0.5,0.2c0.2,0.1,0.3,0.2,0.5,0.3c0.2,0.1,0.3,0.2,0.4,0.4l0.4,0.4
						c0.1,0.2,0.2,0.3,0.3,0.5l0.2,0.5c0.1,0.2,0.1,0.4,0.2,0.5s0.1,0.4,0.1,0.6s0,0.4-0.1,0.6c0,0.2-0.1,0.4-0.2,0.5
						c-0.1,0.2-0.2,0.3-0.3,0.5c-0.1,0.2-0.2,0.3-0.4,0.4l-0.4,0.4c-0.2,0.1-0.3,0.2-0.5,0.3s-0.4,0.1-0.5,0.2s-0.4,0.1-0.6,0.1
						s-0.4,0-0.6-0.1c-0.2,0-0.4-0.1-0.5-0.2c-0.2-0.1-0.3-0.2-0.5-0.3c-0.2-0.1-0.3-0.2-0.4-0.4l-0.4-0.4
						C1377,111,1376.9,110.9,1376.8,110.7z M1385,127.5L1385,127.5l-0.3-0.5c-0.1-0.2-0.2-0.3-0.2-0.5s-0.1-0.4-0.1-0.6v-0.6
						c0-0.2,0-0.4,0.1-0.6s0.1-0.4,0.2-0.5s0.2-0.3,0.3-0.5c0.1-0.2,0.2-0.3,0.4-0.4c0.2-0.1,0.3-0.2,0.5-0.3
						c0.2-0.1,0.3-0.2,0.5-0.2c0.2-0.1,0.4-0.1,0.6-0.1h0.6c0.2,0,0.4,0,0.6,0.1s0.4,0.1,0.5,0.2s0.3,0.2,0.5,0.3
						c0.2,0.1,0.3,0.2,0.4,0.4c0.1,0.2,0.2,0.3,0.3,0.5l0.3,0.4v0.1c0.1,0.2,0.2,0.3,0.2,0.5c0.1,0.2,0.1,0.4,0.1,0.6v0.6
						c0,0.2,0,0.4-0.1,0.6c0,0.2-0.1,0.4-0.2,0.5c-0.1,0.2-0.2,0.3-0.3,0.5c-0.1,0.2-0.2,0.3-0.4,0.4c-0.2,0.1-0.3,0.2-0.5,0.3
						s-0.3,0.2-0.5,0.2c-0.2,0.1-0.4,0.1-0.6,0.1h-0.6c-0.2,0-0.4,0-0.6-0.1c-0.2,0-0.4-0.1-0.5-0.2c-0.2-0.1-0.3-0.2-0.5-0.3
						s-0.3-0.2-0.4-0.4C1385.2,127.8,1385.1,127.7,1385,127.5z M1395.3,143l-0.4-0.5c-0.1-0.2-0.2-0.3-0.3-0.5
						c-0.1-0.2-0.2-0.3-0.2-0.5c0-0.1-0.1-0.4-0.1-0.6v-0.6c0-0.2,0.1-0.4,0.1-0.6s0.1-0.4,0.2-0.5s0.2-0.3,0.3-0.5l0.4-0.4
						c0.2-0.1,0.3-0.2,0.5-0.3s0.3-0.2,0.5-0.2c0.1,0,0.4-0.1,0.6-0.1h0.6c0.2,0,0.4,0.1,0.6,0.1s0.4,0.1,0.5,0.2s0.3,0.2,0.5,0.3
						l0.4,0.4l0.4,0.5c0.1,0.2,0.2,0.3,0.3,0.5c0.1,0.2,0.2,0.3,0.2,0.5s0.1,0.4,0.1,0.6v0.6c0,0.2-0.1,0.4-0.1,0.6
						s-0.1,0.4-0.2,0.5s-0.2,0.3-0.3,0.5l-0.4,0.4c-0.2,0.1-0.3,0.2-0.5,0.3s-0.3,0.2-0.5,0.2s-0.4,0.1-0.6,0.1h-0.6
						c-0.2,0-0.4-0.1-0.6-0.1s-0.4-0.1-0.5-0.2s-0.3-0.2-0.5-0.3C1395.6,143.2,1395.5,143.1,1395.3,143z M1407.6,157l-0.4-0.4
						l-0.4-0.4c-0.1-0.2-0.2-0.3-0.3-0.5s-0.1-0.4-0.2-0.5s-0.1-0.4-0.1-0.6c0-0.2,0-0.4,0.1-0.6c0-0.2,0.1-0.4,0.2-0.5
						c0.1-0.2,0.2-0.3,0.3-0.5c0.1-0.2,0.2-0.3,0.4-0.4l0.4-0.4c0.2-0.1,0.3-0.2,0.5-0.3s0.4-0.1,0.5-0.2s0.4-0.1,0.6-0.1
						s0.4,0,0.6,0.1c0.2,0,0.4,0.1,0.5,0.2c0.2,0.1,0.3,0.2,0.5,0.3s0.3,0.2,0.4,0.4l0.4,0.4l0.4,0.4c0.1,0.2,0.2,0.3,0.3,0.5
						s0.1,0.4,0.2,0.5s0.1,0.4,0.1,0.6c0,0.2,0,0.4-0.1,0.6c0,0.2-0.1,0.4-0.2,0.5c-0.1,0.2-0.2,0.3-0.3,0.5
						c-0.1,0.2-0.2,0.3-0.4,0.4l-0.4,0.4c-0.2,0.1-0.3,0.2-0.5,0.3s-0.4,0.1-0.5,0.2s-0.4,0.1-0.6,0.1s-0.4,0-0.6-0.1
						c-0.2,0-0.4-0.1-0.5-0.2c-0.2-0.1-0.3-0.2-0.5-0.3S1407.7,157.1,1407.6,157L1407.6,157z M1421.6,169.3l-0.5-0.4
						c-0.2-0.1-0.3-0.2-0.4-0.4s-0.2-0.3-0.3-0.5c-0.1-0.2-0.2-0.3-0.2-0.5c-0.1-0.2-0.1-0.4-0.1-0.6v-0.6c0-0.2,0-0.4,0.1-0.6
						c0.1-0.2,0.1-0.4,0.2-0.5s0.2-0.3,0.3-0.5c0.1-0.2,0.2-0.3,0.4-0.4c0.2-0.1,0.3-0.2,0.5-0.3s0.3-0.2,0.5-0.2
						c0.2-0.1,0.4-0.1,0.6-0.1h0.6c0.2,0,0.4,0,0.6,0.1s0.4,0.1,0.5,0.2s0.3,0.2,0.5,0.3l0.5,0.4c0.2,0.1,0.3,0.2,0.4,0.4
						s0.2,0.3,0.3,0.5c0.1,0.2,0.2,0.3,0.2,0.5c0.1,0.2,0.1,0.4,0.1,0.6v0.6c0,0.2,0,0.4-0.1,0.6c-0.1,0.2-0.1,0.4-0.2,0.5
						s-0.2,0.3-0.3,0.5c-0.1,0.2-0.2,0.3-0.4,0.4c-0.2,0.1-0.3,0.2-0.5,0.3s-0.3,0.2-0.5,0.2c-0.2,0.1-0.4,0.1-0.6,0.1h-0.6
						c-0.2,0-0.4,0-0.6-0.1s-0.4-0.1-0.5-0.2S1421.8,169.4,1421.6,169.3L1421.6,169.3z M1437.1,179.6l-0.5-0.3
						c-0.2-0.1-0.3-0.2-0.5-0.3l-0.4-0.4c-0.1-0.2-0.2-0.3-0.3-0.5c-0.1-0.2-0.2-0.3-0.2-0.5s-0.1-0.4-0.1-0.6v-0.6
						c0-0.2,0.1-0.4,0.1-0.6s0.1-0.4,0.2-0.5s0.2-0.3,0.3-0.5l0.4-0.4c0.2-0.1,0.3-0.2,0.5-0.3s0.3-0.2,0.5-0.2
						c0.1,0,0.4-0.1,0.6-0.1h0.6c0.2,0,0.4,0.1,0.6,0.1s0.4,0.1,0.5,0.2l0.5,0.3c0.2,0.1,0.3,0.2,0.5,0.3l0.4,0.4
						c0.1,0.2,0.2,0.3,0.3,0.5c0.1,0.2,0.2,0.3,0.2,0.5s0.1,0.4,0.1,0.6v0.6c0,0.2-0.1,0.4-0.1,0.6s-0.1,0.4-0.2,0.5
						s-0.2,0.3-0.3,0.5l-0.4,0.4c-0.2,0.1-0.3,0.2-0.5,0.3s-0.3,0.2-0.5,0.2s-0.4,0.1-0.6,0.1h-0.6c-0.2,0-0.4-0.1-0.6-0.1
						S1437.3,179.7,1437.1,179.6L1437.1,179.6z M1453.8,187.9l-0.5-0.2c-0.2-0.1-0.3-0.2-0.5-0.3s-0.3-0.2-0.4-0.4l-0.4-0.4
						c-0.1-0.2-0.2-0.3-0.3-0.5s-0.1-0.4-0.2-0.5s-0.1-0.4-0.1-0.6c0-0.2,0-0.4,0.1-0.6c0-0.2,0.1-0.4,0.2-0.5
						c0.1-0.2,0.2-0.3,0.3-0.5c0.1-0.2,0.2-0.3,0.4-0.4l0.4-0.4c0.2-0.1,0.3-0.2,0.5-0.3s0.4-0.1,0.5-0.2s0.4-0.1,0.6-0.1
						s0.4,0,0.6,0.1s0.4,0.1,0.5,0.2l0.5,0.2c0.2,0.1,0.3,0.2,0.5,0.3s0.3,0.2,0.4,0.4l0.4,0.4c0.1,0.2,0.2,0.3,0.3,0.5
						s0.1,0.4,0.2,0.5s0.1,0.4,0.1,0.6c0,0.2,0,0.4-0.1,0.6c0,0.2-0.1,0.4-0.2,0.5c-0.1,0.2-0.2,0.3-0.3,0.5
						c-0.1,0.2-0.2,0.3-0.4,0.4l-0.4,0.4c-0.2,0.1-0.3,0.2-0.5,0.3s-0.4,0.1-0.5,0.2s-0.4,0.1-0.6,0.1s-0.4,0-0.6-0.1
						C1454.1,188,1454,188,1453.8,187.9L1453.8,187.9z M1471.4,193.9l-0.6-0.2c-0.2-0.1-0.4-0.1-0.5-0.2s-0.3-0.2-0.5-0.3
						s-0.3-0.2-0.4-0.4s-0.2-0.3-0.3-0.5c-0.1-0.2-0.2-0.3-0.2-0.5c-0.1-0.2-0.1-0.4-0.1-0.6v-0.6c0-0.2,0-0.4,0.1-0.6
						c0.1-0.2,0.1-0.4,0.2-0.5s0.2-0.3,0.3-0.5c0.1-0.2,0.2-0.3,0.4-0.4c0.2-0.1,0.3-0.2,0.5-0.3s0.3-0.2,0.5-0.2
						c0.2-0.1,0.4-0.1,0.6-0.1h0.6c0.2,0,0.4,0,0.6,0.1l0.6,0.2c0.2,0.1,0.4,0.1,0.5,0.2s0.3,0.2,0.5,0.3s0.3,0.2,0.4,0.4
						s0.2,0.3,0.3,0.5c0.1,0.2,0.2,0.3,0.2,0.5c0.1,0.2,0.1,0.4,0.1,0.6v0.6c0,0.2,0,0.4-0.1,0.6c-0.1,0.2-0.1,0.4-0.2,0.5
						s-0.2,0.3-0.3,0.5c-0.1,0.2-0.2,0.3-0.4,0.4c-0.2,0.1-0.3,0.2-0.5,0.3s-0.3,0.2-0.5,0.2c-0.2,0.1-0.4,0.1-0.6,0.1h-0.6
						C1471.8,194,1471.6,193.9,1471.4,193.9L1471.4,193.9z M1489.7,197.5l-0.6-0.1c-0.2,0-0.4-0.1-0.6-0.1s-0.4-0.1-0.5-0.2
						s-0.3-0.2-0.5-0.3l-0.4-0.4c-0.1-0.2-0.2-0.3-0.3-0.5c-0.1-0.2-0.2-0.3-0.2-0.5s-0.1-0.4-0.1-0.6v-0.6c0-0.2,0.1-0.4,0.1-0.6
						s0.1-0.4,0.2-0.5s0.2-0.3,0.3-0.5l0.4-0.4c0.2-0.1,0.3-0.2,0.5-0.3s0.3-0.2,0.5-0.2s0.4-0.1,0.6-0.1h0.6l0.6,0.1
						c0.2,0,0.4,0.1,0.6,0.1s0.4,0.1,0.5,0.2s0.3,0.2,0.5,0.3l0.4,0.4c0.1,0.2,0.2,0.3,0.3,0.5c0.1,0.2,0.2,0.3,0.2,0.5
						s0.1,0.4,0.1,0.6v0.6c0,0.2-0.1,0.4-0.1,0.6s-0.1,0.4-0.2,0.5s-0.2,0.3-0.3,0.5l-0.4,0.4c-0.2,0.1-0.3,0.2-0.5,0.3
						s-0.3,0.2-0.5,0.2c-0.1,0-0.4,0.1-0.6,0.1C1490.1,197.6,1489.9,197.6,1489.7,197.5L1489.7,197.5z M1508.2,198.8h-0.6
						c-0.2,0-0.4,0-0.6-0.1c-0.2,0-0.4-0.1-0.5-0.2c-0.2-0.1-0.3-0.2-0.5-0.3s-0.3-0.2-0.4-0.4l-0.4-0.4c-0.1-0.2-0.2-0.3-0.3-0.5
						s-0.1-0.4-0.2-0.5s-0.1-0.4-0.1-0.6c0-0.2,0-0.4,0.1-0.6c0-0.2,0.1-0.4,0.2-0.5c0.1-0.2,0.2-0.3,0.3-0.5
						c0.1-0.2,0.2-0.3,0.4-0.4l0.4-0.4c0.2-0.1,0.3-0.2,0.5-0.3s0.4-0.1,0.5-0.2s0.4-0.1,0.6-0.1h0.6c0.2,0,0.4,0,0.6,0.1
						c0.2,0,0.4,0.1,0.5,0.2c0.2,0.1,0.3,0.2,0.5,0.3s0.3,0.2,0.4,0.4l0.4,0.4c0.1,0.2,0.2,0.3,0.3,0.5s0.1,0.4,0.2,0.5
						s0.1,0.4,0.1,0.6c0,0.2,0,0.4-0.1,0.6c0,0.2-0.1,0.4-0.2,0.5c-0.1,0.2-0.2,0.3-0.3,0.5c-0.1,0.2-0.2,0.3-0.4,0.4l-0.4,0.4
						c-0.2,0.1-0.3,0.2-0.5,0.3s-0.4,0.1-0.5,0.2S1508.4,198.8,1508.2,198.8L1508.2,198.8z M1526.7,197.6l-0.6,0.1h-0.6
						c-0.2,0-0.4,0-0.6-0.1s-0.4-0.1-0.5-0.2s-0.3-0.2-0.5-0.3s-0.3-0.2-0.4-0.4s-0.2-0.3-0.3-0.5c-0.1-0.2-0.2-0.3-0.2-0.5
						c-0.1-0.2-0.1-0.4-0.1-0.6v-0.6c0-0.2,0-0.4,0.1-0.6c0.1-0.2,0.1-0.4,0.2-0.5s0.2-0.3,0.3-0.5c0.1-0.2,0.2-0.3,0.4-0.4
						c0.2-0.1,0.3-0.2,0.5-0.3s0.3-0.2,0.5-0.2c0.2-0.1,0.4-0.1,0.6-0.1l0.6-0.1h0.6c0.2,0,0.4,0,0.6,0.1s0.4,0.1,0.5,0.2
						s0.3,0.2,0.5,0.3s0.3,0.2,0.4,0.4s0.2,0.3,0.3,0.5c0.1,0.2,0.2,0.3,0.2,0.5c0.1,0.2,0.1,0.4,0.1,0.6v0.6c0,0.2,0,0.4-0.1,0.6
						c-0.1,0.2-0.1,0.4-0.2,0.5s-0.2,0.3-0.3,0.5c-0.1,0.2-0.2,0.3-0.4,0.4c-0.2,0.1-0.3,0.2-0.5,0.3s-0.3,0.2-0.5,0.2
						S1526.9,197.5,1526.7,197.6L1526.7,197.6z M1545,193.9l-0.6,0.2c-0.2,0-0.4,0.1-0.6,0.1h-0.6c-0.2,0-0.4-0.1-0.6-0.1
						s-0.4-0.1-0.5-0.2s-0.3-0.2-0.5-0.3l-0.4-0.4c-0.1-0.2-0.2-0.3-0.3-0.5c-0.1-0.2-0.2-0.3-0.2-0.5s-0.1-0.4-0.1-0.6V191
						c0-0.2,0.1-0.4,0.1-0.6s0.1-0.4,0.2-0.5c0.1-0.2,0.2-0.3,0.3-0.5l0.4-0.4c0.2-0.1,0.3-0.2,0.5-0.3s0.3-0.2,0.5-0.2l0.6-0.2
						c0.2,0,0.4-0.1,0.6-0.1h0.6c0.2,0,0.4,0.1,0.6,0.1s0.4,0.1,0.5,0.2s0.3,0.2,0.5,0.3l0.4,0.4c0.1,0.2,0.2,0.3,0.3,0.5
						c0.1,0.2,0.2,0.3,0.2,0.5s0.1,0.4,0.1,0.6v0.6c0,0.2-0.1,0.4-0.1,0.6s-0.1,0.4-0.2,0.5s-0.2,0.3-0.3,0.5l-0.4,0.4
						c-0.2,0.1-0.3,0.2-0.5,0.3C1545.4,193.8,1545.2,193.9,1545,193.9L1545,193.9z M1562.7,188l-0.5,0.2c-0.2,0.1-0.4,0.1-0.5,0.2
						s-0.4,0.1-0.6,0.1s-0.4,0-0.6-0.1c-0.2,0-0.4-0.1-0.5-0.2c-0.2-0.1-0.3-0.2-0.5-0.3s-0.3-0.2-0.4-0.4l-0.4-0.4
						c-0.1-0.2-0.2-0.3-0.3-0.5s-0.1-0.4-0.2-0.5s-0.1-0.4-0.1-0.6c0-0.2,0-0.4,0.1-0.6c0-0.2,0.1-0.4,0.2-0.5
						c0.1-0.2,0.2-0.3,0.3-0.5c0.1-0.2,0.2-0.3,0.4-0.4l0.4-0.4c0.2-0.1,0.3-0.2,0.5-0.3l0.5-0.2c0.2-0.1,0.4-0.1,0.5-0.2
						s0.4-0.1,0.6-0.1s0.4,0,0.6,0.1c0.2,0,0.4,0.1,0.5,0.2c0.2,0.1,0.3,0.2,0.5,0.3s0.3,0.2,0.4,0.4l0.4,0.4
						c0.1,0.2,0.2,0.3,0.3,0.5s0.1,0.4,0.2,0.5s0.1,0.4,0.1,0.6c0,0.2,0,0.4-0.1,0.6c-0.1,0.2-0.1,0.4-0.2,0.5s-0.2,0.3-0.3,0.5
						c-0.1,0.2-0.2,0.3-0.4,0.4l-0.4,0.4C1563,187.8,1562.9,187.9,1562.7,188L1562.7,188z M1579.4,179.7l-0.5,0.3
						c-0.2,0.1-0.3,0.2-0.5,0.2s-0.4,0.1-0.6,0.1h-0.6c-0.2,0-0.4,0-0.6-0.1s-0.4-0.1-0.5-0.2s-0.3-0.2-0.5-0.3s-0.3-0.2-0.4-0.4
						s-0.2-0.3-0.3-0.5c-0.1-0.2-0.2-0.3-0.2-0.5s-0.1-0.4-0.1-0.6v-0.6c0-0.2,0-0.4,0.1-0.6c0.1-0.2,0.1-0.4,0.2-0.5
						s0.2-0.3,0.3-0.5c0.1-0.2,0.2-0.3,0.4-0.4c0.2-0.1,0.3-0.2,0.5-0.3l0.5-0.3c0.2-0.1,0.3-0.2,0.5-0.2s0.4-0.1,0.6-0.1h0.6
						c0.2,0,0.4,0,0.6,0.1s0.4,0.1,0.5,0.2s0.3,0.2,0.5,0.3s0.3,0.2,0.4,0.4s0.2,0.3,0.3,0.5s0.2,0.3,0.2,0.5
						c0.1,0.2,0.1,0.4,0.1,0.6v0.6c0,0.2,0,0.4-0.1,0.6c-0.1,0.2-0.1,0.4-0.2,0.5s-0.2,0.3-0.3,0.5c-0.1,0.2-0.2,0.3-0.4,0.4
						C1579.7,179.5,1579.6,179.6,1579.4,179.7L1579.4,179.7z M1594.9,169.4l-0.5,0.4c-0.2,0.1-0.3,0.2-0.5,0.3s-0.3,0.2-0.5,0.2
						s-0.4,0.1-0.6,0.1h-0.6c-0.2,0-0.4-0.1-0.6-0.1s-0.4-0.1-0.5-0.2s-0.3-0.2-0.5-0.3l-0.4-0.4c-0.1-0.2-0.2-0.3-0.3-0.5
						c-0.1-0.2-0.2-0.3-0.2-0.5s-0.1-0.4-0.1-0.6v-0.6c0-0.2,0.1-0.4,0.1-0.6s0.1-0.4,0.2-0.5s0.2-0.3,0.3-0.5s0.3-0.3,0.4-0.4
						l0.5-0.4c0.2-0.1,0.3-0.2,0.5-0.3s0.3-0.2,0.5-0.2s0.4-0.1,0.6-0.1h0.6c0.2,0,0.4,0.1,0.6,0.1s0.4,0.1,0.5,0.2s0.3,0.2,0.5,0.3
						l0.4,0.4c0.1,0.2,0.2,0.3,0.3,0.5c0.1,0.2,0.2,0.3,0.2,0.5s0.1,0.4,0.1,0.6v0.6c0,0.2-0.1,0.4-0.1,0.6s-0.1,0.4-0.2,0.5
						c-0.1,0.2-0.2,0.3-0.3,0.5S1595,169.3,1594.9,169.4L1594.9,169.4z M1608.9,157.1l-0.4,0.4l-0.4,0.4c-0.2,0.1-0.3,0.2-0.5,0.3
						s-0.4,0.1-0.5,0.2s-0.4,0.1-0.6,0.1s-0.4,0-0.6-0.1c-0.2,0-0.4-0.1-0.5-0.2c-0.2-0.1-0.3-0.2-0.5-0.3s-0.3-0.2-0.4-0.4
						l-0.4-0.4c-0.1-0.2-0.2-0.3-0.3-0.5s-0.1-0.4-0.2-0.5s-0.1-0.4-0.1-0.6c0-0.2,0-0.4,0.1-0.6c0-0.2,0.1-0.4,0.2-0.5
						c0.1-0.2,0.2-0.3,0.3-0.5c0.1-0.2,0.2-0.3,0.4-0.4l0.4-0.4l0.4-0.4c0.2-0.1,0.3-0.2,0.5-0.3s0.4-0.1,0.5-0.2s0.4-0.1,0.6-0.1
						s0.4,0,0.6,0.1c0.2,0,0.4,0.1,0.5,0.2c0.2,0.1,0.3,0.2,0.5,0.3s0.3,0.2,0.4,0.4l0.4,0.4c0.1,0.2,0.2,0.3,0.3,0.5
						s0.1,0.4,0.2,0.5s0.1,0.4,0.1,0.6c0,0.2,0,0.4-0.1,0.6c0,0.2-0.1,0.4-0.2,0.5c-0.1,0.2-0.2,0.3-0.3,0.5S1609,157,1608.9,157.1
						L1608.9,157.1z M1621.2,143.1l-0.4,0.5c-0.1,0.2-0.2,0.3-0.4,0.4c-0.2,0.1-0.3,0.2-0.5,0.3s-0.3,0.2-0.5,0.2
						c-0.2,0.1-0.4,0.1-0.6,0.1h-0.6c-0.2,0-0.4,0-0.6-0.1s-0.4-0.1-0.5-0.2s-0.3-0.2-0.5-0.3s-0.3-0.2-0.4-0.4s-0.2-0.3-0.3-0.5
						c-0.1-0.2-0.2-0.3-0.2-0.5c-0.1-0.2-0.1-0.4-0.1-0.6v-0.6c0-0.2,0-0.4,0.1-0.6c0.1-0.2,0.1-0.4,0.2-0.5s0.2-0.3,0.3-0.5
						l0.4-0.5c0.1-0.2,0.2-0.3,0.4-0.4c0.2-0.1,0.3-0.2,0.5-0.3s0.3-0.2,0.5-0.2c0.2-0.1,0.4-0.1,0.6-0.1h0.6c0.2,0,0.4,0,0.6,0.1
						s0.4,0.1,0.5,0.2s0.3,0.2,0.5,0.3s0.3,0.2,0.4,0.4s0.2,0.3,0.3,0.5c0.1,0.2,0.2,0.3,0.2,0.5c0.1,0.2,0.1,0.4,0.1,0.6v0.6
						c0,0.2,0,0.4-0.1,0.6c0,0.2-0.1,0.4-0.2,0.5C1621.4,142.7,1621.3,143,1621.2,143.1L1621.2,143.1z M1631.5,127.6l-0.3,0.5
						c-0.1,0.2-0.2,0.3-0.3,0.5l-0.4,0.4c-0.2,0.1-0.3,0.2-0.5,0.3s-0.3,0.2-0.5,0.2s-0.4,0.1-0.6,0.1h-0.6c-0.2,0-0.4-0.1-0.6-0.1
						s-0.4-0.1-0.5-0.2c-0.2-0.1-0.3-0.2-0.5-0.3l-0.4-0.4c-0.1-0.2-0.2-0.3-0.3-0.5c-0.1-0.2-0.2-0.3-0.2-0.5s-0.1-0.4-0.1-0.6
						v-0.6c0-0.2,0.1-0.4,0.1-0.6s0.1-0.4,0.2-0.5l0.3-0.5c0.1-0.2,0.2-0.3,0.3-0.5l0.4-0.4c0.2-0.1,0.3-0.2,0.5-0.3
						c0.2-0.1,0.3-0.2,0.5-0.2s0.4-0.1,0.6-0.1h0.6c0.2,0,0.4,0.1,0.6,0.1s0.4,0.1,0.5,0.2s0.3,0.2,0.5,0.3l0.4,0.4
						c0.1,0.2,0.2,0.3,0.3,0.5c0.1,0.2,0.2,0.3,0.2,0.5s0.1,0.4,0.1,0.6v0.6c0,0.2-0.1,0.4-0.1,0.6S1631.6,127.5,1631.5,127.6
						L1631.5,127.6z M1639.7,110.9l-0.2,0.5c-0.1,0.2-0.2,0.3-0.3,0.5c-0.1,0.2-0.2,0.3-0.4,0.4l-0.4,0.4c-0.2,0.1-0.3,0.2-0.5,0.3
						s-0.4,0.1-0.5,0.2s-0.4,0.1-0.6,0.1s-0.4,0-0.6-0.1c-0.2,0-0.4-0.1-0.5-0.2c-0.2-0.1-0.3-0.2-0.5-0.3c-0.2-0.1-0.3-0.2-0.4-0.4
						l-0.4-0.4c-0.1-0.2-0.2-0.3-0.3-0.5s-0.1-0.4-0.2-0.5s-0.1-0.4-0.1-0.6s0-0.4,0.1-0.6c0-0.2,0.1-0.4,0.2-0.5l0.2-0.5
						c0.1-0.2,0.2-0.3,0.3-0.5c0.1-0.2,0.2-0.3,0.4-0.4l0.4-0.4c0.2-0.1,0.3-0.2,0.5-0.3s0.4-0.1,0.5-0.2s0.4-0.1,0.6-0.1
						s0.4,0,0.6,0.1c0.2,0,0.4,0.1,0.5,0.2c0.2,0.1,0.3,0.2,0.5,0.3c0.2,0.1,0.3,0.2,0.4,0.4c0.1,0.2,0.3,0.3,0.4,0.4
						s0.2,0.3,0.3,0.5s0.1,0.4,0.2,0.5s0.1,0.4,0.1,0.6s0,0.4-0.1,0.6C1639.9,110.6,1639.8,110.8,1639.7,110.9L1639.7,110.9z
						 M1645.7,93.3l-0.2,0.6c-0.1,0.2-0.1,0.4-0.2,0.5s-0.2,0.3-0.3,0.5c-0.1,0.2-0.2,0.3-0.4,0.4c-0.2,0.1-0.3,0.2-0.5,0.3
						c-0.2,0.1-0.3,0.2-0.5,0.2c-0.2,0.1-0.4,0.1-0.6,0.1h-0.6c-0.2,0-0.4,0-0.6-0.1s-0.4-0.1-0.5-0.2s-0.3-0.2-0.5-0.3
						c-0.2-0.1-0.3-0.2-0.4-0.4c-0.1-0.2-0.2-0.3-0.3-0.5s-0.2-0.3-0.2-0.5c-0.1-0.2-0.1-0.4-0.1-0.6v-0.6c0-0.2,0-0.4,0.1-0.6
						l0.2-0.6c0-0.2,0.1-0.4,0.2-0.5c0.1-0.2,0.2-0.3,0.3-0.5c0.1-0.2,0.2-0.3,0.4-0.4c0.2-0.1,0.3-0.2,0.5-0.3
						c0.2-0.1,0.3-0.2,0.5-0.2s0.4-0.1,0.6-0.1h0.6c0.2,0,0.4,0,0.6,0.1s0.4,0.1,0.5,0.2s0.3,0.2,0.5,0.3c0.2,0.1,0.3,0.2,0.4,0.4
						c0.1,0.2,0.2,0.3,0.3,0.5c0.1,0.2,0.2,0.3,0.2,0.5c0.1,0.2,0.1,0.4,0.1,0.6v0.6C1645.8,92.9,1645.8,93.1,1645.7,93.3
						L1645.7,93.3z M1649.4,75l-0.1,0.6c0,0.2-0.1,0.4-0.1,0.6s-0.1,0.4-0.2,0.5s-0.2,0.3-0.3,0.5l-0.4,0.4
						c-0.2,0.1-0.3,0.2-0.5,0.3c-0.2,0.1-0.3,0.2-0.5,0.2s-0.4,0.1-0.6,0.1h-0.6c-0.2,0-0.4-0.1-0.6-0.1s-0.4-0.1-0.5-0.2
						s-0.3-0.2-0.5-0.3s-0.3-0.3-0.4-0.4s-0.2-0.3-0.3-0.5c-0.1-0.2-0.2-0.3-0.2-0.5s-0.1-0.4-0.1-0.6V75l0.1-0.6
						c0-0.2,0.1-0.4,0.1-0.6s0.1-0.4,0.2-0.5s0.2-0.3,0.3-0.5l0.4-0.4c0.2-0.1,0.3-0.2,0.5-0.3c0.2-0.1,0.3-0.2,0.5-0.2
						s0.4-0.1,0.6-0.1h0.6c0.2,0,0.4,0.1,0.6,0.1s0.4,0.1,0.5,0.2s0.3,0.2,0.5,0.3l0.4,0.4c0.1,0.2,0.2,0.3,0.3,0.5
						c0.1,0.2,0.2,0.3,0.2,0.5s0.1,0.4,0.1,0.6V75z"/>
					<path class="st8" d="M246.8,484.5c0,24.5-19.9,44.4-44.4,44.4S158,509,158,484.5s19.9-44.4,44.4-44.4l0,0
						C226.9,440.1,246.8,460,246.8,484.5z"/>
					<path class="st5" d="M1479.8,315.9c34.3,1,61.4,29.7,60.3,64.1c-1,34.3-29.7,61.4-64.1,60.3c-34.3-1-61.4-29.7-60.3-64.1
						C1416.9,341.9,1445.5,315,1479.8,315.9z M1475.7,449.8c39.6,1.2,72.7-29.9,73.9-69.5s-29.9-72.7-69.5-73.9
						s-72.7,29.9-73.9,69.5l0,0C1405,415.5,1436.1,448.5,1475.7,449.8z"/>
					
						<ellipse transform="matrix(0.5137 -0.858 0.858 0.5137 427.8094 1396.3624)" class="st7" cx="1445.7" cy="320.8" rx="26.2" ry="26.2"/>
					<circle class="st2" cx="95.7" cy="84.1" r="42"/>
				</g>
			</g>
		</g>
	</g>
</g>
</svg>
