<svg id="Layer_1" data-name="Layer 1" xmlns="http://www.w3.org/2000/svg" xmlns:xlink="http://www.w3.org/1999/xlink" viewBox="0 0 1494 500"><defs><style>.cls-1,.cls-10,.cls-5{fill:none;}.cls-2{clip-path:url(#clip-path);}.cls-3{fill:#0e83cd;}.cls-4{fill:#cf202f;}.cls-5{stroke:#aa1a27;stroke-width:36.66px;}.cls-10,.cls-5{stroke-miterlimit:10;}.cls-6{fill:#f0ad4e;}.cls-7{fill:#cbdb2c;}.cls-8{fill:#ffc62f;}.cls-9{fill:#5bcbf5;}.cls-10{stroke:#5bcbf5;stroke-width:20px;}</style><clipPath id="clip-path"><rect class="cls-1" width="1494" height="500"/></clipPath></defs><g class="cls-2"><polygon class="cls-3" points="-90 117.03 1547 80.03 1547 421.99 -40 345.99 -90 117.03"/><circle class="cls-4" cx="69.73" cy="619.97" r="186.4"/><path class="cls-5" d="M899.61,52.49a45.1,45.1,0,0,1,0-90.2,45.17,45.17,0,0,1,45.1,45.1A45.17,45.17,0,0,1,899.61,52.49Z"/><path class="cls-6" d="M-37.86-105.33c-73.4,0-133.1,59.8-133.1,133.2s59.7,133.2,133.1,133.2,133.2-59.7,133.2-133.2A133.28,133.28,0,0,0-37.86-105.33Z"/><circle class="cls-7" cx="522.41" cy="454.45" r="66.37"/><circle class="cls-8" cx="1508.3" cy="56.5" r="121.3"/><path class="cls-9" d="M1650.6,56.5v.6a1.27,1.27,0,0,1-.1.6.76.76,0,0,1-.2.5c-.1.2-.2.3-.3.5a.78.78,0,0,1-.4.4l-.4.4c-.2.1-.3.2-.5.3s-.4.1-.5.2-.4.1-.6.1a1.27,1.27,0,0,1-.6-.1.76.76,0,0,1-.5-.2c-.2-.1-.3-.2-.5-.3a.78.78,0,0,1-.4-.4l-.4-.4a2.19,2.19,0,0,1-.3-.5c-.1-.2-.1-.4-.2-.5s-.1-.4-.1-.6v-.6a1.27,1.27,0,0,1,.1-.6.76.76,0,0,1,.2-.5c.1-.2.2-.3.3-.5a.78.78,0,0,1,.4-.4l.4-.4c.2-.1.3-.2.5-.3s.4-.1.5-.2.4-.1.6-.1a1.27,1.27,0,0,1,.6.1.76.76,0,0,1,.5.2c.2.1.3.2.5.3a.78.78,0,0,1,.4.4l.4.4c.1.2.2.3.3.5s.1.4.2.5A1.27,1.27,0,0,1,1650.6,56.5Zm-1.2-18.1v1.2a1.27,1.27,0,0,1-.1.6c-.1.2-.1.4-.2.5s-.2.3-.3.5a.78.78,0,0,1-.4.4c-.2.1-.3.2-.5.3s-.3.2-.5.2a1.27,1.27,0,0,1-.6.1h-.6a1.27,1.27,0,0,1-.6-.1c-.2-.1-.4-.1-.5-.2s-.3-.2-.5-.3a.78.78,0,0,1-.4-.4,2.19,2.19,0,0,1-.3-.5c-.1-.2-.2-.3-.2-.5a1.27,1.27,0,0,1-.1-.6V38.5a1.27,1.27,0,0,1,.1-.6c.1-.2.1-.4.2-.5s.2-.3.3-.5a.78.78,0,0,1,.4-.4,2.19,2.19,0,0,1,.5-.3c.2-.1.3-.2.5-.2a1.27,1.27,0,0,1,.6-.1h.6a1.27,1.27,0,0,1,.6.1c.2.1.4.1.5.2s.3.2.5.3a.78.78,0,0,1,.4.4,2.19,2.19,0,0,1,.3.5c.1.2.2.3.2.5S1649.4,38.2,1649.4,38.4Zm-3.6-18.3.2.6c0,.2.1.4.1.6v.6c0,.2-.1.4-.1.6s-.1.4-.2.5-.2.3-.3.5-.3.3-.4.4-.3.2-.5.3a1.69,1.69,0,0,1-.5.2c-.2,0-.4.1-.6.1h-.6c-.2,0-.4-.1-.6-.1s-.4-.1-.5-.2-.3-.2-.5-.3l-.4-.4c-.1-.2-.2-.3-.3-.5a1.69,1.69,0,0,1-.2-.5l-.2-.6c0-.2-.1-.4-.1-.6v-.6c0-.2.1-.4.1-.6s.1-.4.2-.5.2-.3.3-.5l.4-.4c.2-.1.3-.2.5-.3a1.69,1.69,0,0,1,.5-.2c.2,0,.4-.1.6-.1h.6c.2,0,.4.1.6.1s.4.1.5.2.3.2.5.3l.4.4c.1.2.2.3.3.5S1645.8,19.9,1645.8,20.1Zm-5.9-17.7.2.5c.1.2.1.4.2.5s.1.4.1.6a1.27,1.27,0,0,1-.1.6.76.76,0,0,1-.2.5c-.1.2-.2.3-.3.5a.78.78,0,0,1-.4.4l-.4.4a2.19,2.19,0,0,1-.5.3c-.2.1-.4.1-.5.2s-.4.1-.6.1a1.27,1.27,0,0,1-.6-.1.76.76,0,0,1-.5-.2c-.2-.1-.3-.2-.5-.3a.78.78,0,0,1-.4-.4c-.1-.2-.3-.3-.4-.4s-.2-.3-.3-.5l-.2-.5c-.1-.2-.1-.4-.2-.5s-.1-.4-.1-.6a1.27,1.27,0,0,1,.1-.6.76.76,0,0,1,.2-.5c.1-.2.2-.3.3-.5a.78.78,0,0,1,.4-.4l.4-.4c.2-.1.3-.2.5-.3s.4-.1.5-.2.4-.1.6-.1a1.27,1.27,0,0,1,.6.1.76.76,0,0,1,.5.2,2.19,2.19,0,0,0,.5.3.78.78,0,0,1,.4.4c.1.2.3.3.4.4A2.19,2.19,0,0,0,1639.9,2.4Zm-8.2-16.7.3.5c.1.2.2.3.2.5a1.27,1.27,0,0,1,.1.6v.6a1.27,1.27,0,0,1-.1.6c-.1.2-.1.4-.2.5s-.2.3-.3.5a.78.78,0,0,1-.4.4,2.19,2.19,0,0,1-.5.3c-.2.1-.3.2-.5.2a1.27,1.27,0,0,1-.6.1h-.6a1.27,1.27,0,0,1-.6-.1c-.2-.1-.4-.1-.5-.2s-.3-.2-.5-.3a.78.78,0,0,1-.4-.4,2.19,2.19,0,0,1-.3-.5l-.3-.5c-.1-.2-.2-.3-.2-.5a1.27,1.27,0,0,1-.1-.6v-.6a1.27,1.27,0,0,1,.1-.6c.1-.2.1-.4.2-.5s.2-.3.3-.5a.78.78,0,0,1,.4-.4,2.19,2.19,0,0,1,.5-.3c.2-.1.3-.2.5-.2s.4-.1.6-.1h.6a1.27,1.27,0,0,1,.6.1c.2.1.4.1.5.2s.3.2.5.3a.78.78,0,0,1,.4.4C1631.5-14.6,1631.6-14.5,1631.7-14.3Zm-10.3-15.5.4.5c.1.2.2.3.3.5a1.69,1.69,0,0,1,.2.5c0,.2.1.4.1.6v.6c0,.2-.1.4-.1.6s-.1.4-.2.5-.2.3-.3.5l-.4.4c-.2.1-.3.2-.5.3a1.69,1.69,0,0,1-.5.2c-.2,0-.4.1-.6.1h-.6c-.2,0-.4-.1-.6-.1s-.4-.1-.5-.2-.3-.2-.5-.3l-.4-.4-.4-.5c-.1-.2-.2-.3-.3-.5a1.69,1.69,0,0,1-.2-.5c0-.2-.1-.4-.1-.6v-.6c0-.2.1-.4.1-.6s.1-.4.2-.5.2-.3.3-.5l.4-.4c.2-.1.3-.2.5-.3a1.69,1.69,0,0,1,.5-.2c.2,0,.4-.1.6-.1h.6c.2,0,.4.1.6.1s.4.1.5.2.3.2.5.3A.78.78,0,0,1,1621.4-29.8Zm-12.2-14,.4.4.4.4c.1.2.2.3.3.5s.1.4.2.5.1.4.1.6a1.27,1.27,0,0,1-.1.6.76.76,0,0,1-.2.5c-.1.2-.2.3-.3.5a.78.78,0,0,1-.4.4l-.4.4c-.2.1-.3.2-.5.3s-.4.1-.5.2-.4.1-.6.1a1.27,1.27,0,0,1-.6-.1.76.76,0,0,1-.5-.2c-.2-.1-.3-.2-.5-.3a.78.78,0,0,1-.4-.4l-.4-.4-.4-.4c-.1-.2-.2-.3-.3-.5s-.1-.4-.2-.5-.1-.4-.1-.6a1.27,1.27,0,0,1,.1-.6.76.76,0,0,1,.2-.5c.1-.2.2-.3.3-.5a.78.78,0,0,1,.4-.4l.4-.4c.2-.1.3-.2.5-.3s.4-.1.5-.2.4-.1.6-.1a1.27,1.27,0,0,1,.6.1.76.76,0,0,1,.5.2,2.19,2.19,0,0,0,.5.3Zm-14-12.4.5.4a.78.78,0,0,1,.4.4,2.19,2.19,0,0,1,.3.5c.1.2.2.3.2.5a1.27,1.27,0,0,1,.1.6v.6a1.27,1.27,0,0,1-.1.6c-.1.2-.1.4-.2.5s-.2.3-.3.5a.78.78,0,0,1-.4.4,2.19,2.19,0,0,1-.5.3c-.2.1-.3.2-.5.2a1.27,1.27,0,0,1-.6.1h-.6a1.27,1.27,0,0,1-.6-.1c-.2-.1-.4-.1-.5-.2s-.3-.2-.5-.3l-.5-.4a.78.78,0,0,1-.4-.4,2.19,2.19,0,0,1-.3-.5c-.1-.2-.2-.3-.2-.5a1.27,1.27,0,0,1-.1-.6v-.6a1.27,1.27,0,0,1,.1-.6c.1-.2.1-.4.2-.5s.2-.3.3-.5a.78.78,0,0,1,.4-.4c.2-.1.3-.2.5-.3s.3-.2.5-.2a1.27,1.27,0,0,1,.6-.1h.6a1.27,1.27,0,0,1,.6.1c.2.1.4.1.5.2S1595-56.3,1595.2-56.2Zm-15.5-10.4h0l.5.3c.2.1.3.2.5.3l.4.4c.1.2.2.3.3.5a1.69,1.69,0,0,1,.2.5c0,.2.1.4.1.6v.6c0,.2-.1.4-.1.6s-.1.4-.2.5-.2.3-.3.5l-.4.4c-.2.1-.3.2-.5.3a1.69,1.69,0,0,1-.5.2c-.2,0-.4.1-.6.1h-.6c-.2,0-.4-.1-.6-.1s-.4-.1-.5-.2l-.5-.3h0c-.2-.1-.3-.2-.5-.3l-.4-.4c-.1-.2-.2-.3-.3-.5a1.69,1.69,0,0,1-.2-.5c0-.1-.1-.4-.1-.6v-.6c0-.2.1-.4.1-.6s.1-.4.2-.5a2.19,2.19,0,0,0,.3-.5l.4-.4c.2-.1.3-.2.5-.3a1.69,1.69,0,0,1,.5-.2c.2,0,.4-.1.6-.1h.6c.2,0,.4.1.6.1A1.69,1.69,0,0,0,1579.7-66.6Zm-16.6-8.2.5.2c.2.1.3.2.5.3a.78.78,0,0,1,.4.4l.4.4c.1.2.2.3.3.5s.1.4.2.5.1.4.1.6a1.27,1.27,0,0,1-.1.6.76.76,0,0,1-.2.5,2.19,2.19,0,0,0-.3.5.78.78,0,0,1-.4.4l-.4.4c-.2.1-.3.2-.5.3s-.4.1-.5.2-.4.1-.6.1a1.27,1.27,0,0,1-.6-.1.76.76,0,0,1-.5-.2l-.5-.2c-.2-.1-.3-.2-.5-.3a.78.78,0,0,1-.4-.4l-.4-.4a2.19,2.19,0,0,1-.3-.5c-.1-.2-.1-.4-.2-.5s-.1-.4-.1-.6a1.27,1.27,0,0,1,.1-.6.76.76,0,0,1,.2-.5c.1-.2.2-.3.3-.5a.78.78,0,0,1,.4-.4l.4-.4a2.19,2.19,0,0,1,.5-.3c.2-.1.4-.1.5-.2s.4-.1.6-.1a1.27,1.27,0,0,1,.6.1C1562.7-74.9,1562.9-74.9,1563.1-74.8Zm-17.7-6,.6.2c.2.1.4.1.5.2s.3.2.5.3a.78.78,0,0,1,.4.4,2.19,2.19,0,0,1,.3.5c.1.2.2.3.2.5a1.27,1.27,0,0,1,.1.6v.6a1.27,1.27,0,0,1-.1.6c-.1.2-.1.4-.2.5s-.2.3-.3.5a.78.78,0,0,1-.4.4,2.19,2.19,0,0,1-.5.3c-.2.1-.3.2-.5.2a1.27,1.27,0,0,1-.6.1h-.6a1.27,1.27,0,0,1-.6-.1l-.6-.2c-.2-.1-.4-.1-.5-.2s-.3-.2-.5-.3a.78.78,0,0,1-.4-.4,2.19,2.19,0,0,1-.3-.5c-.1-.2-.2-.3-.2-.5a1.27,1.27,0,0,1-.1-.6v-.6a1.27,1.27,0,0,1,.1-.6c.1-.2.1-.4.2-.5s.2-.3.3-.5a.78.78,0,0,1,.4-.4,2.19,2.19,0,0,1,.5-.3c.2-.1.3-.2.5-.2a1.27,1.27,0,0,1,.6-.1h.6C1545.1-80.9,1545.3-80.9,1545.4-80.8Zm-18.2-3.7.6.1c.2,0,.4.1.6.1a.76.76,0,0,1,.5.2c.2.1.3.2.5.3l.4.4c.1.2.2.3.3.5a1.69,1.69,0,0,1,.2.5c0,.2.1.4.1.6v.6c0,.2-.1.4-.1.6s-.1.4-.2.5-.2.3-.3.5l-.4.4c-.2.1-.3.2-.5.3a1.69,1.69,0,0,1-.5.2c-.2,0-.4.1-.6.1h-.6l-.6-.1c-.2,0-.4-.1-.6-.1s-.4-.1-.5-.2-.3-.2-.5-.3l-.4-.4c-.1-.2-.2-.3-.3-.5a1.69,1.69,0,0,1-.2-.5c0-.2-.1-.4-.1-.6v-.6c0-.2.1-.4.1-.6s.1-.4.2-.5.2-.3.3-.5l.4-.4c.2-.1.3-.2.5-.3a1.69,1.69,0,0,1,.5-.2c.2,0,.4-.1.6-.1S1527-84.5,1527.2-84.5Zm-18.6-1.3h.6a1.27,1.27,0,0,1,.6.1.76.76,0,0,1,.5.2c.2.1.3.2.5.3a.78.78,0,0,1,.4.4l.4.4c.1.2.2.3.3.5s.1.4.2.5.1.4.1.6a1.27,1.27,0,0,1-.1.6.76.76,0,0,1-.2.5,2.19,2.19,0,0,0-.3.5.78.78,0,0,1-.4.4l-.4.4c-.2.1-.3.2-.5.3s-.4.1-.5.2-.4.1-.6.1h-.6a1.27,1.27,0,0,1-.6-.1c-.2-.1-.4-.1-.5-.2s-.3-.2-.5-.3a.78.78,0,0,1-.4-.4l-.4-.4c-.1-.2-.2-.3-.3-.5s-.1-.4-.2-.5-.1-.4-.1-.6a1.27,1.27,0,0,1,.1-.6.76.76,0,0,1,.2-.5c.1-.2.2-.3.3-.5a.78.78,0,0,1,.4-.4l.4-.4c.2-.1.3-.2.5-.3s.4-.1.5-.2A1.49,1.49,0,0,1,1508.6-85.8Zm-18.5,1.2.6-.1h.6a1.27,1.27,0,0,1,.6.1c.2.1.4.1.5.2s.3.2.5.3a.78.78,0,0,1,.4.4,2.19,2.19,0,0,1,.3.5c.1.2.2.3.2.5a1.27,1.27,0,0,1,.1.6v.6a1.27,1.27,0,0,1-.1.6c-.1.2-.1.4-.2.5s-.2.3-.3.5a.78.78,0,0,1-.4.4,2.19,2.19,0,0,1-.5.3c-.2.1-.3.2-.5.2a1.27,1.27,0,0,1-.6.1l-.6.1h-.6a1.27,1.27,0,0,1-.6-.1c-.2-.1-.4-.1-.5-.2s-.3-.2-.5-.3a.78.78,0,0,1-.4-.4,2.19,2.19,0,0,1-.3-.5c-.1-.2-.2-.3-.2-.5a1.27,1.27,0,0,1-.1-.6V-82a1.27,1.27,0,0,1,.1-.6c.1-.2.1-.4.2-.5s.2-.3.3-.5a.78.78,0,0,1,.4-.4,2.19,2.19,0,0,1,.5-.3c.2-.1.3-.2.5-.2S1489.9-84.6,1490.1-84.6ZM1471.8-81l.6-.2c.2,0,.4-.1.6-.1h.6c.2,0,.4.1.6.1s.4.1.5.2.3.2.5.3l.4.4a2.19,2.19,0,0,1,.3.5,1.69,1.69,0,0,1,.2.5c0,.2.1.4.1.6v.6c0,.2-.1.4-.1.6s-.1.4-.2.5-.2.3-.3.5-.3.3-.4.4-.3.2-.5.3a1.69,1.69,0,0,1-.5.2l-.6.2c-.2,0-.4.1-.6.1h-.6c-.2,0-.4-.1-.6-.1s-.4-.1-.5-.2-.3-.2-.5-.3l-.4-.4c-.1-.2-.2-.3-.3-.5a1.69,1.69,0,0,1-.2-.5c0-.2-.1-.4-.1-.6v-.6c0-.2.1-.4.1-.6s.1-.4.2-.5a2.19,2.19,0,0,0,.3-.5l.4-.4c.2-.1.3-.2.5-.3S1471.6-81,1471.8-81Zm-17.6,5.9.5-.2c.2-.1.4-.1.5-.2s.4-.1.6-.1a1.27,1.27,0,0,1,.6.1.76.76,0,0,1,.5.2c.2.1.3.2.5.3a.78.78,0,0,1,.4.4l.4.4c.1.2.2.3.3.5s.1.4.2.5.1.4.1.6a1.27,1.27,0,0,1-.1.6.76.76,0,0,1-.2.5,2.19,2.19,0,0,0-.3.5.78.78,0,0,1-.4.4l-.4.4c-.2.1-.3.2-.5.3l-.5.2c-.2.1-.4.1-.5.2s-.4.1-.6.1a1.27,1.27,0,0,1-.6-.1.76.76,0,0,1-.5-.2c-.2-.1-.3-.2-.5-.3a.78.78,0,0,1-.4-.4l-.4-.4c-.1-.2-.2-.3-.3-.5s-.1-.4-.2-.5-.1-.4-.1-.6a1.27,1.27,0,0,1,.1-.6.76.76,0,0,1,.2-.5c.1-.2.2-.3.3-.5a.78.78,0,0,1,.4-.4l.4-.4A2.19,2.19,0,0,1,1454.2-75.1Zm-16.7,8.2.5-.3c.2-.1.3-.2.5-.2a1.27,1.27,0,0,1,.6-.1h.6a1.27,1.27,0,0,1,.6.1c.2.1.4.1.5.2s.3.2.5.3a.78.78,0,0,1,.4.4,2.19,2.19,0,0,1,.3.5c.1.2.2.3.2.5a1.27,1.27,0,0,1,.1.6v.6a1.27,1.27,0,0,1-.1.6c-.1.2-.1.4-.2.5s-.2.3-.3.5a.78.78,0,0,1-.4.4,2.19,2.19,0,0,1-.5.3l-.5.3c-.2.1-.3.2-.5.2a1.27,1.27,0,0,1-.6.1h-.6a1.27,1.27,0,0,1-.6-.1c-.2-.1-.4-.1-.5-.2s-.3-.2-.5-.3a.78.78,0,0,1-.4-.4,2.19,2.19,0,0,1-.3-.5c-.1-.2-.2-.3-.2-.5a1.27,1.27,0,0,1-.1-.6v-.6a1.27,1.27,0,0,1,.1-.6c.1-.2.1-.4.2-.5s.2-.3.3-.5a.78.78,0,0,1,.4-.4A2.19,2.19,0,0,1,1437.5-66.9Zm-15.6,10.4.5-.4c.2-.1.3-.2.5-.3a1.69,1.69,0,0,1,.5-.2c.2,0,.4-.1.6-.1h.6c.2,0,.4.1.6.1a.76.76,0,0,1,.5.2c.2.1.3.2.5.3l.4.4c.1.2.2.3.3.5a1.69,1.69,0,0,1,.2.5c0,.2.1.4.1.6v.6c0,.2-.1.4-.1.6s-.1.4-.2.5-.2.3-.3.5-.3.3-.4.4l-.5.4c-.2.1-.3.2-.5.3a1.69,1.69,0,0,1-.5.2c-.2,0-.4.1-.6.1h-.6c-.2,0-.4-.1-.6-.1s-.4-.1-.5-.2-.3-.2-.5-.3l-.4-.4c-.1-.2-.2-.3-.3-.5a1.69,1.69,0,0,1-.2-.5c0-.2-.1-.4-.1-.6v-.6c0-.2.1-.4.1-.6s.1-.4.2-.5.2-.3.3-.5Zm-14,12.2.4-.4.4-.4c.2-.1.3-.2.5-.3s.4-.1.5-.2.4-.1.6-.1a1.27,1.27,0,0,1,.6.1.76.76,0,0,1,.5.2c.2.1.3.2.5.3a.78.78,0,0,1,.4.4l.4.4c.1.2.2.3.3.5s.1.4.2.5.1.4.1.6a1.27,1.27,0,0,1-.1.6.76.76,0,0,1-.2.5c-.1.2-.2.3-.3.5a.78.78,0,0,1-.4.4l-.4.4-.4.4c-.2.1-.3.2-.5.3s-.4.1-.5.2-.4.1-.6.1a1.27,1.27,0,0,1-.6-.1.76.76,0,0,1-.5-.2c-.2-.1-.3-.2-.5-.3a.78.78,0,0,1-.4-.4l-.4-.4c-.1-.2-.2-.3-.3-.5s-.1-.4-.2-.5-.1-.4-.1-.6a1.27,1.27,0,0,1,.1-.6.76.76,0,0,1,.2-.5c.1-.2.2-.3.3-.5S1407.8-44.2,1407.9-44.3Zm-12.3,14,.4-.5a.78.78,0,0,1,.4-.4,2.19,2.19,0,0,1,.5-.3c.2-.1.3-.2.5-.2s.4-.1.6-.1h.6a1.27,1.27,0,0,1,.6.1c.2.1.4.1.5.2s.3.2.5.3a.78.78,0,0,1,.4.4,2.19,2.19,0,0,1,.3.5c.1.2.2.3.2.5a1.27,1.27,0,0,1,.1.6v.6a1.27,1.27,0,0,1-.1.6c-.1.2-.1.4-.2.5s-.2.3-.3.5l-.4.5a.78.78,0,0,1-.4.4,2.19,2.19,0,0,1-.5.3c-.2.1-.3.2-.5.2s-.4.1-.6.1h-.6a1.27,1.27,0,0,1-.6-.1c-.2-.1-.4-.1-.5-.2a2.19,2.19,0,0,0-.5-.3.78.78,0,0,1-.4-.4,2.19,2.19,0,0,1-.3-.5c-.1-.2-.2-.3-.2-.5a1.27,1.27,0,0,1-.1-.6v-.6a1.27,1.27,0,0,1,.1-.6c.1-.2.1-.4.2-.5A2.19,2.19,0,0,1,1395.6-30.3Zm-10.4,15.5.3-.5c.1-.2.2-.3.3-.5l.4-.4c.2-.1.3-.2.5-.3a1.69,1.69,0,0,1,.5-.2c.2,0,.4-.1.6-.1h.6c.2,0,.4.1.6.1s.4.1.5.2.3.2.5.3l.4.4c.1.2.2.3.3.5a1.69,1.69,0,0,1,.2.5c0,.2.1.4.1.6v.6c0,.2-.1.4-.1.6s-.1.4-.2.5l-.3.5c-.1.2-.2.3-.3.5l-.4.4c-.2.1-.3.2-.5.3a1.69,1.69,0,0,1-.5.2c-.2,0-.4.1-.6.1h-.6c-.2,0-.4-.1-.6-.1s-.4-.1-.5-.2-.3-.2-.5-.3l-.4-.4a2.19,2.19,0,0,1-.3-.5,1.69,1.69,0,0,1-.2-.5c0-.2-.1-.4-.1-.6v-.6c0-.2.1-.4.1-.6S1385.1-14.7,1385.2-14.8ZM1377,1.8l.2-.5c.1-.2.2-.3.3-.5a.78.78,0,0,1,.4-.4l.4-.4c.2-.1.3-.2.5-.3s.4-.1.5-.2.4-.1.6-.1a1.27,1.27,0,0,1,.6.1.76.76,0,0,1,.5.2c.2.1.3.2.5.3a.78.78,0,0,1,.4.4l.4.4c.1.2.2.3.3.5s.1.4.2.5.1.4.1.6a1.27,1.27,0,0,1-.1.6.76.76,0,0,1-.2.5l-.2.5c-.1.2-.2.3-.3.5a.78.78,0,0,1-.4.4l-.4.4c-.2.1-.3.2-.5.3s-.4.1-.5.2-.4.1-.6.1a1.27,1.27,0,0,1-.6-.1.76.76,0,0,1-.5-.2c-.2-.1-.3-.2-.5-.3a.78.78,0,0,1-.4-.4l-.4-.4a2.19,2.19,0,0,1-.3-.5c-.1-.2-.1-.4-.2-.5s-.1-.4-.1-.6a1.27,1.27,0,0,1,.1-.6A1.69,1.69,0,0,1,1377,1.8Zm-6,17.7.2-.6c.1-.2.1-.4.2-.5a2.19,2.19,0,0,0,.3-.5.78.78,0,0,1,.4-.4,2.19,2.19,0,0,1,.5-.3c.2-.1.3-.2.5-.2a1.27,1.27,0,0,1,.6-.1h.6a1.27,1.27,0,0,1,.6.1c.2.1.4.1.5.2s.3.2.5.3a.78.78,0,0,1,.4.4,2.19,2.19,0,0,1,.3.5c.1.2.2.3.2.5a1.27,1.27,0,0,1,.1.6v.6a1.27,1.27,0,0,1-.1.6l-.2.6c-.1.2-.1.4-.2.5a2.19,2.19,0,0,0-.3.5.78.78,0,0,1-.4.4,2.19,2.19,0,0,1-.5.3c-.2.1-.3.2-.5.2a1.27,1.27,0,0,1-.6.1h-.6a1.27,1.27,0,0,1-.6-.1c-.2-.1-.4-.1-.5-.2s-.3-.2-.5-.3a.78.78,0,0,1-.4-.4,2.19,2.19,0,0,1-.3-.5c-.1-.2-.2-.3-.2-.5a1.27,1.27,0,0,1-.1-.6v-.6A1.08,1.08,0,0,1,1371,19.5Zm-3.7,18.3.1-.6c0-.2.1-.4.1-.6s.1-.4.2-.5.2-.3.3-.5l.4-.4c.2-.1.3-.2.5-.3a1.69,1.69,0,0,1,.5-.2c.2,0,.4-.1.6-.1h.6c.2,0,.4.1.6.1s.4.1.5.2.3.2.5.3l.4.4c.1.2.2.3.3.5a1.69,1.69,0,0,1,.2.5c0,.1.1.4.1.6v.6l-.1.6c0,.2-.1.4-.1.6s-.1.4-.2.5-.2.3-.3.5l-.4.4c-.2.1-.3.2-.5.3a1.69,1.69,0,0,1-.5.2c-.2,0-.4.1-.6.1h-.6c-.2,0-.4-.1-.6-.1s-.4-.1-.5-.2-.3-.2-.5-.3l-.4-.4c-.1-.2-.2-.3-.3-.5a1.69,1.69,0,0,1-.2-.5c0-.2-.1-.4-.1-.6Zm-1.2,18.5v-.6a1.27,1.27,0,0,1,.1-.6c.1-.2.1-.4.2-.5s.2-.3.3-.5a.78.78,0,0,1,.4-.4c.2-.1.3-.3.4-.4s.3-.2.5-.3.4-.1.5-.2.4-.1.6-.1a1.27,1.27,0,0,1,.6.1.76.76,0,0,1,.5.2c.2.1.3.2.5.3a.78.78,0,0,1,.4.4l.4.4c.1.2.2.3.3.5s.1.4.2.5.1.4.1.6v.6a1.27,1.27,0,0,1-.1.6.76.76,0,0,1-.2.5c-.1.2-.2.3-.3.5a.78.78,0,0,1-.4.4l-.4.4c-.2.1-.3.2-.5.3s-.4.1-.5.2-.4.1-.6.1a1.27,1.27,0,0,1-.6-.1.76.76,0,0,1-.5-.2c-.2-.1-.3-.2-.5-.3a.78.78,0,0,1-.4-.4l-.4-.4c-.1-.2-.2-.3-.3-.5s-.1-.4-.2-.5A1.27,1.27,0,0,1,1366.1,56.3Zm1.1,18.5-.1-.6v-.6a1.27,1.27,0,0,1,.1-.6c.1-.2.1-.4.2-.5s.2-.3.3-.5a.78.78,0,0,1,.4-.4c.2-.1.3-.2.5-.3s.3-.2.5-.2a1.27,1.27,0,0,1,.6-.1h.6a1.27,1.27,0,0,1,.6.1c.2.1.4.1.5.2s.3.2.5.3a.78.78,0,0,1,.4.4,2.19,2.19,0,0,1,.3.5c.1.2.2.3.2.5a1.27,1.27,0,0,1,.1.6l.1.6v.6a1.27,1.27,0,0,1-.1.6c-.1.2-.1.4-.2.5s-.2.3-.3.5a.78.78,0,0,1-.4.4,2.19,2.19,0,0,1-.5.3c-.2.1-.3.2-.5.2a1.27,1.27,0,0,1-.6.1h-.6a1.27,1.27,0,0,1-.6-.1c-.2-.1-.4-.1-.5-.2s-.3-.2-.5-.3a.78.78,0,0,1-.4-.4,2.19,2.19,0,0,1-.3-.5c-.1-.2-.2-.3-.2-.5A1.27,1.27,0,0,0,1367.2,74.8Zm3.6,18.3-.2-.6c0-.2-.1-.4-.1-.6v-.6c0-.2.1-.4.1-.6s.1-.4.2-.5.2-.3.3-.5l.4-.4c.2-.1.3-.2.5-.3a1.69,1.69,0,0,1,.5-.2c.2,0,.4-.1.6-.1h.6c.2,0,.4.1.6.1s.4.1.5.2a2.19,2.19,0,0,0,.5.3l.4.4c.1.2.2.3.3.5a1.69,1.69,0,0,1,.2.5l.2.6c0,.2.1.4.1.6v.6c0,.2-.1.4-.1.6s-.1.4-.2.5-.2.3-.3.5l-.4.4c-.2.1-.3.2-.5.3a1.69,1.69,0,0,1-.5.2c-.2,0-.4.1-.6.1h-.6c-.2,0-.4-.1-.6-.1a.76.76,0,0,1-.5-.2c-.2-.1-.3-.2-.5-.3l-.4-.4c-.1-.2-.2-.3-.3-.5A1.69,1.69,0,0,0,1370.8,93.1Zm6,17.6-.2-.5c-.1-.2-.1-.4-.2-.5s-.1-.4-.1-.6a1.27,1.27,0,0,1,.1-.6.76.76,0,0,1,.2-.5c.1-.2.2-.3.3-.5a.78.78,0,0,1,.4-.4l.4-.4c.2-.1.3-.2.5-.3s.4-.1.5-.2.4-.1.6-.1a1.27,1.27,0,0,1,.6.1.76.76,0,0,1,.5.2c.2.1.3.2.5.3a.78.78,0,0,1,.4.4l.4.4c.1.2.2.3.3.5l.2.5c.1.2.1.4.2.5s.1.4.1.6a1.27,1.27,0,0,1-.1.6.76.76,0,0,1-.2.5c-.1.2-.2.3-.3.5a.78.78,0,0,1-.4.4l-.4.4c-.2.1-.3.2-.5.3s-.4.1-.5.2-.4.1-.6.1a1.27,1.27,0,0,1-.6-.1.76.76,0,0,1-.5-.2c-.2-.1-.3-.2-.5-.3a.78.78,0,0,1-.4-.4l-.4-.4A2.19,2.19,0,0,1,1376.8,110.7Zm8.2,16.8h0l-.3-.5c-.1-.2-.2-.3-.2-.5s-.1-.4-.1-.6v-.6a1.27,1.27,0,0,1,.1-.6c.1-.2.1-.4.2-.5s.2-.3.3-.5a.78.78,0,0,1,.4-.4,2.19,2.19,0,0,1,.5-.3c.2-.1.3-.2.5-.2a1.27,1.27,0,0,1,.6-.1h.6a1.27,1.27,0,0,1,.6.1c.2.1.4.1.5.2s.3.2.5.3a.78.78,0,0,1,.4.4,2.19,2.19,0,0,1,.3.5l.3.4v.1c.1.2.2.3.2.5a1.27,1.27,0,0,1,.1.6v.6a1.27,1.27,0,0,1-.1.6.76.76,0,0,1-.2.5c-.1.2-.2.3-.3.5a.78.78,0,0,1-.4.4c-.2.1-.3.2-.5.3s-.3.2-.5.2a1.27,1.27,0,0,1-.6.1h-.6a1.27,1.27,0,0,1-.6-.1.76.76,0,0,1-.5-.2c-.2-.1-.3-.2-.5-.3a.78.78,0,0,1-.4-.4A2.19,2.19,0,0,0,1385,127.5Zm10.3,15.5-.4-.5c-.1-.2-.2-.3-.3-.5a1.69,1.69,0,0,1-.2-.5c0-.1-.1-.4-.1-.6v-.6c0-.2.1-.4.1-.6s.1-.4.2-.5.2-.3.3-.5l.4-.4c.2-.1.3-.2.5-.3a1.69,1.69,0,0,1,.5-.2c.1,0,.4-.1.6-.1h.6c.2,0,.4.1.6.1s.4.1.5.2.3.2.5.3l.4.4.4.5c.1.2.2.3.3.5a1.69,1.69,0,0,1,.2.5c0,.2.1.4.1.6v.6c0,.2-.1.4-.1.6s-.1.4-.2.5-.2.3-.3.5l-.4.4c-.2.1-.3.2-.5.3a1.69,1.69,0,0,1-.5.2c-.2,0-.4.1-.6.1h-.6c-.2,0-.4-.1-.6-.1s-.4-.1-.5-.2-.3-.2-.5-.3A.78.78,0,0,0,1395.3,143Zm12.3,14-.4-.4-.4-.4c-.1-.2-.2-.3-.3-.5s-.1-.4-.2-.5-.1-.4-.1-.6a1.27,1.27,0,0,1,.1-.6.76.76,0,0,1,.2-.5c.1-.2.2-.3.3-.5a.78.78,0,0,1,.4-.4l.4-.4c.2-.1.3-.2.5-.3s.4-.1.5-.2.4-.1.6-.1a1.27,1.27,0,0,1,.6.1.76.76,0,0,1,.5.2c.2.1.3.2.5.3a.78.78,0,0,1,.4.4l.4.4.4.4c.1.2.2.3.3.5s.1.4.2.5.1.4.1.6a1.27,1.27,0,0,1-.1.6.76.76,0,0,1-.2.5c-.1.2-.2.3-.3.5a.78.78,0,0,1-.4.4l-.4.4c-.2.1-.3.2-.5.3s-.4.1-.5.2-.4.1-.6.1a1.27,1.27,0,0,1-.6-.1.76.76,0,0,1-.5-.2c-.2-.1-.3-.2-.5-.3S1407.7,157.1,1407.6,157Zm14,12.3-.5-.4a.78.78,0,0,1-.4-.4,2.19,2.19,0,0,1-.3-.5c-.1-.2-.2-.3-.2-.5a1.27,1.27,0,0,1-.1-.6v-.6a1.27,1.27,0,0,1,.1-.6c.1-.2.1-.4.2-.5s.2-.3.3-.5a.78.78,0,0,1,.4-.4,2.19,2.19,0,0,1,.5-.3c.2-.1.3-.2.5-.2a1.27,1.27,0,0,1,.6-.1h.6a1.27,1.27,0,0,1,.6.1c.2.1.4.1.5.2s.3.2.5.3l.5.4a.78.78,0,0,1,.4.4,2.19,2.19,0,0,1,.3.5c.1.2.2.3.2.5a1.27,1.27,0,0,1,.1.6v.6a1.27,1.27,0,0,1-.1.6c-.1.2-.1.4-.2.5s-.2.3-.3.5a.78.78,0,0,1-.4.4c-.2.1-.3.2-.5.3s-.3.2-.5.2a1.27,1.27,0,0,1-.6.1h-.6a1.27,1.27,0,0,1-.6-.1c-.2-.1-.4-.1-.5-.2S1421.8,169.4,1421.6,169.3Zm15.5,10.3-.5-.3c-.2-.1-.3-.2-.5-.3l-.4-.4c-.1-.2-.2-.3-.3-.5a1.69,1.69,0,0,1-.2-.5c0-.2-.1-.4-.1-.6v-.6c0-.2.1-.4.1-.6s.1-.4.2-.5.2-.3.3-.5l.4-.4c.2-.1.3-.2.5-.3a1.69,1.69,0,0,1,.5-.2c.1,0,.4-.1.6-.1h.6c.2,0,.4.1.6.1s.4.1.5.2l.5.3c.2.1.3.2.5.3l.4.4c.1.2.2.3.3.5a1.69,1.69,0,0,1,.2.5c0,.2.1.4.1.6v.6c0,.2-.1.4-.1.6s-.1.4-.2.5-.2.3-.3.5l-.4.4c-.2.1-.3.2-.5.3a1.69,1.69,0,0,1-.5.2c-.2,0-.4.1-.6.1h-.6c-.2,0-.4-.1-.6-.1S1437.3,179.7,1437.1,179.6Zm16.7,8.3-.5-.2c-.2-.1-.3-.2-.5-.3a.78.78,0,0,1-.4-.4l-.4-.4c-.1-.2-.2-.3-.3-.5s-.1-.4-.2-.5-.1-.4-.1-.6a1.27,1.27,0,0,1,.1-.6.76.76,0,0,1,.2-.5c.1-.2.2-.3.3-.5a.78.78,0,0,1,.4-.4l.4-.4c.2-.1.3-.2.5-.3s.4-.1.5-.2.4-.1.6-.1a1.27,1.27,0,0,1,.6.1c.2.1.4.1.5.2l.5.2c.2.1.3.2.5.3a.78.78,0,0,1,.4.4l.4.4c.1.2.2.3.3.5s.1.4.2.5.1.4.1.6a1.27,1.27,0,0,1-.1.6.76.76,0,0,1-.2.5c-.1.2-.2.3-.3.5a.78.78,0,0,1-.4.4l-.4.4c-.2.1-.3.2-.5.3s-.4.1-.5.2-.4.1-.6.1a1.27,1.27,0,0,1-.6-.1C1454.1,188,1454,188,1453.8,187.9Zm17.6,6-.6-.2c-.2-.1-.4-.1-.5-.2s-.3-.2-.5-.3a.78.78,0,0,1-.4-.4,2.19,2.19,0,0,1-.3-.5c-.1-.2-.2-.3-.2-.5a1.27,1.27,0,0,1-.1-.6v-.6a1.27,1.27,0,0,1,.1-.6c.1-.2.1-.4.2-.5s.2-.3.3-.5a.78.78,0,0,1,.4-.4,2.19,2.19,0,0,1,.5-.3c.2-.1.3-.2.5-.2a1.27,1.27,0,0,1,.6-.1h.6a1.27,1.27,0,0,1,.6.1l.6.2c.2.1.4.1.5.2s.3.2.5.3a.78.78,0,0,1,.4.4,2.19,2.19,0,0,1,.3.5c.1.2.2.3.2.5a1.27,1.27,0,0,1,.1.6v.6a1.27,1.27,0,0,1-.1.6c-.1.2-.1.4-.2.5s-.2.3-.3.5a.78.78,0,0,1-.4.4,2.19,2.19,0,0,1-.5.3c-.2.1-.3.2-.5.2a1.27,1.27,0,0,1-.6.1h-.6C1471.8,194,1471.6,193.9,1471.4,193.9Zm18.3,3.6-.6-.1c-.2,0-.4-.1-.6-.1s-.4-.1-.5-.2-.3-.2-.5-.3l-.4-.4c-.1-.2-.2-.3-.3-.5a1.69,1.69,0,0,1-.2-.5c0-.2-.1-.4-.1-.6v-.6c0-.2.1-.4.1-.6s.1-.4.2-.5.2-.3.3-.5l.4-.4c.2-.1.3-.2.5-.3a1.69,1.69,0,0,1,.5-.2c.2,0,.4-.1.6-.1h.6l.6.1c.2,0,.4.1.6.1s.4.1.5.2.3.2.5.3l.4.4c.1.2.2.3.3.5a1.69,1.69,0,0,1,.2.5c0,.2.1.4.1.6v.6c0,.2-.1.4-.1.6s-.1.4-.2.5-.2.3-.3.5l-.4.4a2.19,2.19,0,0,1-.5.3,1.69,1.69,0,0,1-.5.2c-.1,0-.4.1-.6.1A.64.64,0,0,1,1489.7,197.5Zm18.5,1.3h-.6a1.27,1.27,0,0,1-.6-.1.76.76,0,0,1-.5-.2c-.2-.1-.3-.2-.5-.3a.78.78,0,0,1-.4-.4l-.4-.4c-.1-.2-.2-.3-.3-.5s-.1-.4-.2-.5-.1-.4-.1-.6a1.27,1.27,0,0,1,.1-.6.76.76,0,0,1,.2-.5c.1-.2.2-.3.3-.5a.78.78,0,0,1,.4-.4l.4-.4c.2-.1.3-.2.5-.3s.4-.1.5-.2.4-.1.6-.1h.6a1.27,1.27,0,0,1,.6.1.76.76,0,0,1,.5.2c.2.1.3.2.5.3a.78.78,0,0,1,.4.4l.4.4c.1.2.2.3.3.5s.1.4.2.5.1.4.1.6a1.27,1.27,0,0,1-.1.6.76.76,0,0,1-.2.5c-.1.2-.2.3-.3.5a.78.78,0,0,1-.4.4l-.4.4c-.2.1-.3.2-.5.3s-.4.1-.5.2S1508.4,198.8,1508.2,198.8Zm18.5-1.2-.6.1h-.6a1.27,1.27,0,0,1-.6-.1c-.2-.1-.4-.1-.5-.2s-.3-.2-.5-.3a.78.78,0,0,1-.4-.4,2.19,2.19,0,0,1-.3-.5c-.1-.2-.2-.3-.2-.5a1.27,1.27,0,0,1-.1-.6v-.6a1.27,1.27,0,0,1,.1-.6c.1-.2.1-.4.2-.5s.2-.3.3-.5a.78.78,0,0,1,.4-.4,2.19,2.19,0,0,1,.5-.3c.2-.1.3-.2.5-.2a1.27,1.27,0,0,1,.6-.1l.6-.1h.6a1.27,1.27,0,0,1,.6.1c.2.1.4.1.5.2s.3.2.5.3a.78.78,0,0,1,.4.4,2.19,2.19,0,0,1,.3.5c.1.2.2.3.2.5a1.27,1.27,0,0,1,.1.6v.6a1.27,1.27,0,0,1-.1.6c-.1.2-.1.4-.2.5s-.2.3-.3.5a.78.78,0,0,1-.4.4,2.19,2.19,0,0,1-.5.3c-.2.1-.3.2-.5.2A1.27,1.27,0,0,0,1526.7,197.6Zm18.3-3.7-.6.2c-.2,0-.4.1-.6.1h-.6c-.2,0-.4-.1-.6-.1s-.4-.1-.5-.2-.3-.2-.5-.3l-.4-.4a2.19,2.19,0,0,1-.3-.5,1.69,1.69,0,0,1-.2-.5c0-.2-.1-.4-.1-.6V191c0-.2.1-.4.1-.6s.1-.4.2-.5a2.19,2.19,0,0,0,.3-.5l.4-.4c.2-.1.3-.2.5-.3a1.69,1.69,0,0,1,.5-.2l.6-.2c.2,0,.4-.1.6-.1h.6c.2,0,.4.1.6.1s.4.1.5.2.3.2.5.3l.4.4a2.19,2.19,0,0,1,.3.5,1.69,1.69,0,0,1,.2.5c0,.2.1.4.1.6v.6c0,.2-.1.4-.1.6s-.1.4-.2.5-.2.3-.3.5l-.4.4c-.2.1-.3.2-.5.3A.76.76,0,0,1,1545,193.9Zm17.7-5.9-.5.2c-.2.1-.4.1-.5.2s-.4.1-.6.1a1.27,1.27,0,0,1-.6-.1.76.76,0,0,1-.5-.2c-.2-.1-.3-.2-.5-.3a.78.78,0,0,1-.4-.4l-.4-.4c-.1-.2-.2-.3-.3-.5s-.1-.4-.2-.5-.1-.4-.1-.6a1.27,1.27,0,0,1,.1-.6.76.76,0,0,1,.2-.5c.1-.2.2-.3.3-.5a.78.78,0,0,1,.4-.4l.4-.4c.2-.1.3-.2.5-.3l.5-.2c.2-.1.4-.1.5-.2s.4-.1.6-.1a1.27,1.27,0,0,1,.6.1.76.76,0,0,1,.5.2c.2.1.3.2.5.3a.78.78,0,0,1,.4.4l.4.4c.1.2.2.3.3.5s.1.4.2.5.1.4.1.6a1.27,1.27,0,0,1-.1.6c-.1.2-.1.4-.2.5s-.2.3-.3.5a.78.78,0,0,1-.4.4l-.4.4A2.19,2.19,0,0,0,1562.7,188Zm16.7-8.3-.5.3c-.2.1-.3.2-.5.2s-.4.1-.6.1h-.6a1.27,1.27,0,0,1-.6-.1c-.2-.1-.4-.1-.5-.2s-.3-.2-.5-.3a.78.78,0,0,1-.4-.4,2.19,2.19,0,0,1-.3-.5c-.1-.2-.2-.3-.2-.5s-.1-.4-.1-.6v-.6a1.27,1.27,0,0,1,.1-.6c.1-.2.1-.4.2-.5s.2-.3.3-.5a.78.78,0,0,1,.4-.4,2.19,2.19,0,0,1,.5-.3l.5-.3c.2-.1.3-.2.5-.2s.4-.1.6-.1h.6a1.27,1.27,0,0,1,.6.1c.2.1.4.1.5.2s.3.2.5.3a.78.78,0,0,1,.4.4c.1.2.2.3.3.5s.2.3.2.5a1.27,1.27,0,0,1,.1.6v.6a1.27,1.27,0,0,1-.1.6c-.1.2-.1.4-.2.5s-.2.3-.3.5a.78.78,0,0,1-.4.4A2.19,2.19,0,0,0,1579.4,179.7Zm15.5-10.3-.5.4c-.2.1-.3.2-.5.3a1.69,1.69,0,0,1-.5.2c-.2,0-.4.1-.6.1h-.6c-.2,0-.4-.1-.6-.1s-.4-.1-.5-.2-.3-.2-.5-.3l-.4-.4c-.1-.2-.2-.3-.3-.5a1.69,1.69,0,0,1-.2-.5c0-.2-.1-.4-.1-.6v-.6c0-.2.1-.4.1-.6s.1-.4.2-.5.2-.3.3-.5.3-.3.4-.4l.5-.4c.2-.1.3-.2.5-.3a1.69,1.69,0,0,1,.5-.2c.2,0,.4-.1.6-.1h.6c.2,0,.4.1.6.1s.4.1.5.2.3.2.5.3l.4.4c.1.2.2.3.3.5a1.69,1.69,0,0,1,.2.5c0,.2.1.4.1.6v.6c0,.2-.1.4-.1.6s-.1.4-.2.5a2.19,2.19,0,0,0-.3.5C1595.2,169.2,1595,169.3,1594.9,169.4Zm14-12.3-.4.4-.4.4c-.2.1-.3.2-.5.3s-.4.1-.5.2-.4.1-.6.1a1.27,1.27,0,0,1-.6-.1.76.76,0,0,1-.5-.2c-.2-.1-.3-.2-.5-.3a.78.78,0,0,1-.4-.4l-.4-.4c-.1-.2-.2-.3-.3-.5s-.1-.4-.2-.5-.1-.4-.1-.6a1.27,1.27,0,0,1,.1-.6.76.76,0,0,1,.2-.5c.1-.2.2-.3.3-.5a.78.78,0,0,1,.4-.4l.4-.4.4-.4a2.19,2.19,0,0,1,.5-.3c.2-.1.4-.1.5-.2s.4-.1.6-.1a1.27,1.27,0,0,1,.6.1.76.76,0,0,1,.5.2c.2.1.3.2.5.3a.78.78,0,0,1,.4.4l.4.4c.1.2.2.3.3.5s.1.4.2.5.1.4.1.6a1.27,1.27,0,0,1-.1.6.76.76,0,0,1-.2.5c-.1.2-.2.3-.3.5S1609,157,1608.9,157.1Zm12.3-14-.4.5a.78.78,0,0,1-.4.4,2.19,2.19,0,0,1-.5.3c-.2.1-.3.2-.5.2a1.27,1.27,0,0,1-.6.1h-.6a1.27,1.27,0,0,1-.6-.1c-.2-.1-.4-.1-.5-.2s-.3-.2-.5-.3a.78.78,0,0,1-.4-.4,2.19,2.19,0,0,1-.3-.5c-.1-.2-.2-.3-.2-.5a1.27,1.27,0,0,1-.1-.6v-.6a1.27,1.27,0,0,1,.1-.6c.1-.2.1-.4.2-.5s.2-.3.3-.5l.4-.5a.78.78,0,0,1,.4-.4,2.19,2.19,0,0,1,.5-.3c.2-.1.3-.2.5-.2a1.27,1.27,0,0,1,.6-.1h.6a1.27,1.27,0,0,1,.6.1c.2.1.4.1.5.2s.3.2.5.3a.78.78,0,0,1,.4.4,2.19,2.19,0,0,1,.3.5c.1.2.2.3.2.5a1.27,1.27,0,0,1,.1.6v.6a1.27,1.27,0,0,1-.1.6.76.76,0,0,1-.2.5C1621.4,142.7,1621.3,143,1621.2,143.1Zm10.3-15.5-.3.5c-.1.2-.2.3-.3.5l-.4.4c-.2.1-.3.2-.5.3a1.69,1.69,0,0,1-.5.2c-.2,0-.4.1-.6.1h-.6c-.2,0-.4-.1-.6-.1a.76.76,0,0,1-.5-.2,2.19,2.19,0,0,0-.5-.3l-.4-.4c-.1-.2-.2-.3-.3-.5a1.69,1.69,0,0,1-.2-.5c0-.2-.1-.4-.1-.6v-.6c0-.2.1-.4.1-.6s.1-.4.2-.5l.3-.5c.1-.2.2-.3.3-.5l.4-.4c.2-.1.3-.2.5-.3a1.69,1.69,0,0,1,.5-.2c.2,0,.4-.1.6-.1h.6c.2,0,.4.1.6.1s.4.1.5.2.3.2.5.3l.4.4c.1.2.2.3.3.5a1.69,1.69,0,0,1,.2.5c0,.2.1.4.1.6v.6c0,.2-.1.4-.1.6A.76.76,0,0,1,1631.5,127.6Zm8.2-16.7-.2.5c-.1.2-.2.3-.3.5a.78.78,0,0,1-.4.4l-.4.4c-.2.1-.3.2-.5.3s-.4.1-.5.2-.4.1-.6.1a1.27,1.27,0,0,1-.6-.1.76.76,0,0,1-.5-.2c-.2-.1-.3-.2-.5-.3a.78.78,0,0,1-.4-.4l-.4-.4c-.1-.2-.2-.3-.3-.5s-.1-.4-.2-.5-.1-.4-.1-.6a1.27,1.27,0,0,1,.1-.6.76.76,0,0,1,.2-.5l.2-.5c.1-.2.2-.3.3-.5a.78.78,0,0,1,.4-.4l.4-.4c.2-.1.3-.2.5-.3s.4-.1.5-.2.4-.1.6-.1a1.27,1.27,0,0,1,.6.1.76.76,0,0,1,.5.2c.2.1.3.2.5.3a.78.78,0,0,1,.4.4c.1.2.3.3.4.4s.2.3.3.5.1.4.2.5.1.4.1.6a1.27,1.27,0,0,1-.1.6A.76.76,0,0,1,1639.7,110.9Zm6-17.6-.2.6c-.1.2-.1.4-.2.5s-.2.3-.3.5a.78.78,0,0,1-.4.4,2.19,2.19,0,0,1-.5.3c-.2.1-.3.2-.5.2a1.27,1.27,0,0,1-.6.1h-.6a1.27,1.27,0,0,1-.6-.1c-.2-.1-.4-.1-.5-.2s-.3-.2-.5-.3a.78.78,0,0,1-.4-.4c-.1-.2-.2-.3-.3-.5s-.2-.3-.2-.5a1.27,1.27,0,0,1-.1-.6v-.6a1.27,1.27,0,0,1,.1-.6l.2-.6a.76.76,0,0,1,.2-.5c.1-.2.2-.3.3-.5a.78.78,0,0,1,.4-.4,2.19,2.19,0,0,1,.5-.3c.2-.1.3-.2.5-.2s.4-.1.6-.1h.6a1.27,1.27,0,0,1,.6.1c.2.1.4.1.5.2s.3.2.5.3a.78.78,0,0,1,.4.4,2.19,2.19,0,0,1,.3.5c.1.2.2.3.2.5a1.27,1.27,0,0,1,.1.6v.6A1.27,1.27,0,0,1,1645.7,93.3Zm3.7-18.3-.1.6c0,.2-.1.4-.1.6s-.1.4-.2.5-.2.3-.3.5l-.4.4c-.2.1-.3.2-.5.3a1.69,1.69,0,0,1-.5.2c-.2,0-.4.1-.6.1h-.6c-.2,0-.4-.1-.6-.1s-.4-.1-.5-.2-.3-.2-.5-.3-.3-.3-.4-.4-.2-.3-.3-.5a1.69,1.69,0,0,1-.2-.5c0-.2-.1-.4-.1-.6V75l.1-.6c0-.2.1-.4.1-.6s.1-.4.2-.5.2-.3.3-.5l.4-.4c.2-.1.3-.2.5-.3a1.69,1.69,0,0,1,.5-.2c.2,0,.4-.1.6-.1h.6c.2,0,.4.1.6.1s.4.1.5.2.3.2.5.3l.4.4c.1.2.2.3.3.5a1.69,1.69,0,0,1,.2.5c0,.2.1.4.1.6Z"/><path class="cls-10" d="M246.81,484.48a44.4,44.4,0,1,1-44.4-44.4A44.43,44.43,0,0,1,246.81,484.48Z"/><path class="cls-7" d="M1479.85,315.92a62.22,62.22,0,1,1-64.06,60.33A62.34,62.34,0,0,1,1479.85,315.92Zm-4.15,133.87a71.77,71.77,0,1,0-69.54-73.92A71.9,71.9,0,0,0,1475.7,449.79Z"/><circle class="cls-9" cx="1445.55" cy="320.76" r="26.17" transform="translate(427.84 1396.29) rotate(-59.09)"/><circle class="cls-4" cx="95.73" cy="84.11" r="42"/></g></svg>