<?xml version="1.0" encoding="utf-8"?>
<!-- Generator: Adobe Illustrator 25.1.0, SVG Export Plug-In . SVG Version: 6.00 Build 0)  -->
<svg version="1.1" id="Layer_1" xmlns="http://www.w3.org/2000/svg" xmlns:xlink="http://www.w3.org/1999/xlink" x="0px" y="0px"
	 viewBox="0 0 418.96 362.97" style="enable-background:new 0 0 418.96 362.97;" xml:space="preserve">
<style type="text/css">
	.st0{fill:#696A6C;}
	.st1{fill:#D7C402;}
	.st2{fill:#FFFFFF;}
</style>
<g>
	<rect x="130.52" y="8.15" class="st0" width="154.85" height="193.78"/>
	<g>
		<path class="st0" d="M8.32,304.57v-28.43h3.76v25.07h14v3.35H8.32z"/>
		<path class="st0" d="M40.39,304.57v-12.04l-10.96-16.38h4.58l5.6,8.57c1.03,1.6,2,3.21,2.89,4.81c0.85-1.49,1.89-3.16,3.1-5.02
			l5.51-8.36h4.38l-11.34,16.38v12.04H40.39z"/>
		<path class="st0" d="M64.47,304.57v-28.43h3.76v25.07h14v3.35H64.47z"/>
		<path class="st0" d="M92.15,304.57v-28.43h20.55v3.35H95.91v8.71h15.73v3.34H95.91v9.68h17.45v3.35H92.15z"/>
		<path class="st0" d="M136.85,295.43h3.55c0.17,1.42,0.56,2.28,1.17,3.19c0.61,0.91,1.57,1.65,2.86,2.21
			c1.29,0.56,2.75,0.84,4.36,0.84c1.44,0,2.7-0.21,3.8-0.64s1.92-1.01,2.45-1.75c0.54-0.74,0.8-1.55,0.8-2.43
			c0-0.89-0.26-1.67-0.78-2.34c-0.52-0.67-1.37-1.22-2.56-1.68c-0.76-0.3-2.45-0.76-5.06-1.39c-2.61-0.63-4.44-1.22-5.49-1.77
			c-1.36-0.71-2.37-1.59-3.04-2.65s-1-2.23-1-3.54c0-1.43,0.41-2.78,1.22-4.02c0.81-1.25,2-2.19,3.57-2.84
			c1.56-0.65,3.3-0.97,5.22-0.97c2.11,0,3.97,0.34,5.58,1.02s2.85,1.68,3.71,3c0.87,1.32,1.33,2.81,1.4,4.48h-3.61
			c-0.19-1.8-0.85-2.88-1.97-3.8c-1.12-0.92-2.77-1.38-4.96-1.38c-2.28,0-3.93,0.42-4.97,1.25c-1.04,0.83-1.56,1.84-1.56,3.01
			c0,1.02,0.37,1.86,1.11,2.52c0.72,0.66,2.61,1.33,5.67,2.03c3.06,0.69,5.15,1.3,6.29,1.81c1.65,0.76,2.88,1.73,3.67,2.9
			c0.79,1.17,1.18,2.52,1.18,4.04c0,1.51-0.43,2.94-1.3,4.28c-0.87,1.34-2.11,2.38-3.73,3.12s-3.45,1.11-5.48,1.11
			c-2.57,0-4.73-0.38-6.47-1.12c-1.74-0.75-3.1-1.88-4.09-3.38C137.42,299.04,136.9,297.33,136.85,295.43z"/>
		<path class="st0" d="M167.55,304.57v-3.98h3.98v3.98H167.55z"/>
		<path class="st0" d="M193.36,304.57v-28.43h3.76v11.67h14.78v-11.67h3.76v28.43h-3.76v-13.4h-14.78v13.4H193.36z"/>
		<path class="st0" d="M224.55,304.57l10.92-28.43h4.05l11.63,28.43h-4.29l-3.32-8.61h-11.89l-3.12,8.61H224.55z M232.76,292.89
			h9.64l-2.97-7.87c-0.91-2.39-1.58-4.36-2.02-5.89c-0.36,1.82-0.87,3.63-1.53,5.43L232.76,292.89z"/>
		<path class="st0" d="M260.56,304.57v-28.43h3.76v25.07h14v3.35H260.56z"/>
		<path class="st0" d="M288.6,304.57v-28.43h3.76v25.07h14v3.35H288.6z"/>
		<path class="st0" d="M317.48,304.57v-28.43h5.66l6.73,20.13c0.62,1.87,1.07,3.28,1.36,4.21c0.32-1.03,0.83-2.55,1.51-4.56
			l6.81-19.78h5.06v28.43h-3.63v-23.79l-8.26,23.79h-3.39l-8.22-24.2v24.2H317.48z"/>
		<path class="st0" d="M353.71,304.57l10.92-28.43h4.05l11.63,28.43h-4.29l-3.32-8.61h-11.89l-3.12,8.61H353.71z M361.91,292.89
			h9.64l-2.97-7.87c-0.91-2.39-1.58-4.36-2.02-5.89c-0.36,1.82-0.87,3.63-1.53,5.43L361.91,292.89z"/>
		<path class="st0" d="M388.25,304.57v-28.43h3.86l14.93,22.32v-22.32h3.61v28.43h-3.86l-14.93-22.34v22.34H388.25z"/>
	</g>
	<g>
		<path class="st0" d="M71.31,354.34v-21.15h12.71v1.78H73.37v7.2h9.04v1.71h-9.04v10.46H71.31z"/>
		<path class="st0" d="M114.98,343.91c0,3.04-0.79,5.74-2.22,7.74c-1.55,2.12-3.61,3.17-6.31,3.17c-5.17,0-8.53-4.34-8.53-11.07
			c0-6.69,3.36-11.03,8.5-11.03C111.68,332.72,114.98,337.03,114.98,343.91z M100.01,343.75c0,5.77,2.47,9.35,6.44,9.35
			c4,0,6.44-3.58,6.44-9.45c0-5.61-2.5-9.23-6.44-9.23C102.49,334.43,100.01,338.01,100.01,343.75z"/>
		<path class="st0" d="M132.58,333.19v13.92c0,2.09,0.16,3.08,0.6,3.9c0.73,1.33,2.38,2.09,4.57,2.09c2.31,0,4-0.73,4.76-2.03
			c0.51-0.86,0.67-1.87,0.67-3.96v-13.92h1.84v13.92c0,2.73-0.29,4.03-1.14,5.23c-1.17,1.62-3.3,2.47-6.15,2.47
			c-3.17,0-5.45-1.08-6.47-3.08c-0.54-1.08-0.73-2.25-0.73-4.76v-13.79H132.58z"/>
		<path class="st0" d="M164.51,336.02v18.33h-1.93v-21.15h2.73l10.69,18.33v-18.33h1.93v21.15h-2.73L164.51,336.02z"/>
		<path class="st0" d="M201.78,333.19c3.3,0,5.2,0.7,6.91,2.57c1.71,1.87,2.63,4.66,2.63,7.99c0,3.74-1.14,6.75-3.23,8.59
			c-1.65,1.46-3.33,2-6.31,2h-6.66v-21.15H201.78z M197.18,352.57h4.6c4.95,0,7.45-2.98,7.45-8.82c0-5.8-2.5-8.78-7.45-8.78h-4.6
			V352.57z"/>
		<path class="st0" d="M238.15,354.34l-2.09-6.63h-7.61l-2.09,6.63h-1.81l6.79-21.15h2.19l6.79,21.15H238.15z M232.22,335.73
			l-3.23,10.27h6.5L232.22,335.73z"/>
		<path class="st0" d="M265.64,334.97h-6.18v19.37h-2.06v-19.37h-6.21v-1.78h14.46V334.97z"/>
		<path class="st0" d="M280.93,354.34v-21.15h2.06v21.15H280.93z"/>
		<path class="st0" d="M316.29,343.91c0,3.04-0.79,5.74-2.22,7.74c-1.55,2.12-3.62,3.17-6.31,3.17c-5.17,0-8.53-4.34-8.53-11.07
			c0-6.69,3.36-11.03,8.5-11.03C312.99,332.72,316.29,337.03,316.29,343.91z M301.32,343.75c0,5.77,2.47,9.35,6.44,9.35
			c4,0,6.44-3.58,6.44-9.45c0-5.61-2.5-9.23-6.44-9.23C303.8,334.43,301.32,338.01,301.32,343.75z"/>
		<path class="st0" d="M333.64,336.02v18.33h-1.93v-21.15h2.73l10.69,18.33v-18.33h1.93v21.15h-2.73L333.64,336.02z"/>
	</g>
	<path class="st1" d="M197.97,166.19v-6.75c3.85,0,15-9.64,15-28.03c0-9.65-3.07-17.12-6.33-25.03c-3.18-7.73-6.47-15.73-7-26.06
		c-0.83-16.07,6.93-26.06,10.3-29.61c3.71-3.91,7.82-6.24,11-6.24v6.75c-0.68,0-3.17,1.04-6.11,4.14
		c-2.77,2.92-9.14,11.16-8.45,24.61c0.47,9.18,3.4,16.3,6.5,23.84c3.36,8.17,6.83,16.61,6.83,27.6
		C219.71,152.32,206.62,166.19,197.97,166.19z"/>
	<polygon class="st2" points="164.61,118.66 164.61,88.28 160.63,88.28 160.63,122.19 180.52,122.19 180.52,118.66 	"/>
	<polygon class="st2" points="257.69,88.28 257.69,102.15 241.69,102.15 241.69,88.28 237.71,88.28 237.71,122.19 241.69,122.19 
		241.69,105.68 257.69,105.68 257.69,122.19 261.67,122.19 261.67,88.28 	"/>
</g>
</svg>
