<?xml version="1.0" encoding="utf-8"?>
<!-- Generator: Adobe Illustrator 25.2.2, SVG Export Plug-In . SVG Version: 6.00 Build 0)  -->
<svg version="1.1" id="Layer_1" xmlns="http://www.w3.org/2000/svg" xmlns:xlink="http://www.w3.org/1999/xlink" x="0px" y="0px"
	 viewBox="0 0 300 300" style="enable-background:new 0 0 300 300;" xml:space="preserve">
<style type="text/css">
	.st0{clip-path:url(#SVGID_2_);fill:#6D9E40;}
	.st1{clip-path:url(#SVGID_4_);fill:#29ABE2;}
	.st2{clip-path:url(#SVGID_6_);fill:#F26623;}
</style>
<g>
	<defs>
		<rect id="SVGID_5_" x="36.8" y="36.8" width="226.4" height="226.4"/>
	</defs>
	<clipPath id="SVGID_2_">
		<use xlink:href="#SVGID_5_"  style="overflow:visible;"/>
	</clipPath>
	<path style="clip-path:url(#SVGID_2_);fill:#F26623;" d="M184,119.5v-2.3c0-6.7-3.3-12.9-8.9-16.6c-2.6-1.7-5.5-2.8-8.6-3.2
		c5.6-4.8,10-11.6,10-19.1c0-25-14.4-30.2-26.4-30.2s-26.4,5.2-26.4,30.2c0,7.4,4.4,14.2,10,19.1c-3.1,0.4-6,1.4-8.6,3.2
		c-5.6,3.7-8.9,9.9-8.9,16.6v2.3c-7-8-11.3-18.4-11.3-29.9c0-25,20.3-45.3,45.3-45.3s45.3,20.3,45.3,45.3
		C195.3,101.1,191,111.5,184,119.5z M255.7,210.4c0,11.4-4.3,21.9-11.3,29.9v-2.3c0-6.7-3.3-12.9-8.9-16.6c-2.6-1.7-5.5-2.8-8.6-3.2
		c5.6-4.8,10-11.6,10-19.1c0-25-14.4-30.2-26.4-30.2c-12,0-26.4,5.2-26.4,30.2c0,7.4,4.4,14.2,10,19.1c-3.1,0.4-6,1.4-8.6,3.2
		c-5.6,3.7-8.9,9.9-8.9,16.6v2.3c-7-8-11.3-18.4-11.3-29.9c0-25,20.3-45.3,45.3-45.3C235.3,165.1,255.7,185.4,255.7,210.4z
		 M210.4,231.9l3.1,7.8l-3.1,3.1l-3.1-3.1L210.4,231.9z M191.7,195.1c1-12.6,7-18.6,18.7-18.6c10.7,0,16.6,5.1,18.3,15.6l-12.6-7.5
		c-1-0.6-2.2-0.7-3.2-0.3c-1.1,0.4-1.9,1.3-2.3,2.3C208.7,192.3,198.4,194.4,191.7,195.1z M215.6,193l13.5,8.1
		c-1.5,9.2-12.9,16.8-18.7,16.8c-5.5,0-15.9-6.8-18.3-15.3C198.5,202.1,210.2,200.1,215.6,193z M184,247.1v-9.1
		c0-4.2,2.1-8.1,5.6-10.4c2.1-1.4,4.4-2.1,6.9-2.1h8.4l-5.5,13.7c-0.6,1.4-0.2,3,0.8,4.1l7.5,7.5c0.7,0.7,1.7,1.1,2.7,1.1
		c1,0,1.9-0.4,2.7-1.1l7.5-7.5c1.1-1.1,1.4-2.7,0.8-4.1l-5.5-13.7h8.4c2.5,0,4.9,0.7,6.9,2.1c3.5,2.3,5.6,6.2,5.6,10.4v9.1
		c-7.4,5.4-16.6,8.6-26.4,8.6C200.5,255.7,191.4,252.5,184,247.1z M150,111.1l3.1,7.8L150,122l-3.1-3.1L150,111.1z M131.3,74.3
		c1-12.6,7-18.6,18.7-18.6c10.7,0,16.6,5.1,18.3,15.6l-12.6-7.5c-1-0.6-2.2-0.7-3.2-0.3c-1.1,0.4-1.9,1.3-2.3,2.3
		C148.3,71.5,138,73.7,131.3,74.3z M155.2,72.2l13.5,8.1c-1.5,9.2-12.9,16.8-18.7,16.8c-5.5,0-15.9-6.8-18.3-15.3
		C138.1,81.3,149.8,79.4,155.2,72.2z M123.6,126.3v-9.1c0-4.2,2.1-8.1,5.6-10.4c2.1-1.4,4.4-2.1,6.9-2.1h8.4l-5.5,13.7
		c-0.6,1.4-0.2,3,0.8,4.1l7.5,7.5c0.7,0.7,1.7,1.1,2.7,1.1c1,0,1.9-0.4,2.7-1.1l7.5-7.5c1.1-1.1,1.4-2.7,0.8-4.1l-5.5-13.7h8.4
		c2.5,0,4.9,0.7,6.9,2.1c3.5,2.3,5.6,6.2,5.6,10.4v9.1c-7.4,5.4-16.6,8.6-26.4,8.6S131,131.7,123.6,126.3z M255.7,116
		c0,6.2-5.1,11.3-11.3,11.3c-6.2,0-11.3-5.1-11.3-11.3c0-6.2,5.1-11.3,11.3-11.3C250.6,104.7,255.7,109.8,255.7,116z M104.7,195.3
		c0,7.6-2.9,14.6-7.5,19.9v-1c0-8.5-4.7-16-11.7-19.8c2.6-2.7,4.2-6.3,4.2-10.4c0-8.3-6.8-15.1-15.1-15.1c-8.3,0-15.1,6.8-15.1,15.1
		c0,4,1.6,7.7,4.2,10.4c-7,3.9-11.7,11.3-11.7,19.8v1c-4.7-5.3-7.5-12.3-7.5-19.9c0-16.6,13.5-30.2,30.2-30.2
		C91.2,165.1,104.7,178.6,104.7,195.3z M74.5,199.1c8.3,0,15.1,6.8,15.1,15.1v7.2c-4.4,2.6-9.6,4.1-15.1,4.1
		c-5.5,0-10.6-1.5-15.1-4.1v-7.2C59.4,205.8,66.2,199.1,74.5,199.1z M67,184c0-4.2,3.4-7.5,7.5-7.5c4.2,0,7.5,3.4,7.5,7.5
		c0,4.2-3.4,7.5-7.5,7.5C70.4,191.5,67,188.1,67,184z M119.8,248.1c2.1,0,3.8,1.7,3.8,3.8c0,2.1-1.7,3.8-3.8,3.8s-3.8-1.7-3.8-3.8
		C116,249.8,117.7,248.1,119.8,248.1z M48.1,44.3c2.1,0,3.8,1.7,3.8,3.8s-1.7,3.8-3.8,3.8s-3.8-1.7-3.8-3.8S46,44.3,48.1,44.3z
		 M251.9,44.3c2.1,0,3.8,1.7,3.8,3.8s-1.7,3.8-3.8,3.8c-2.1,0-3.8-1.7-3.8-3.8S249.8,44.3,251.9,44.3z M241.3,51.9
		c1.6,4.4,5.7,7.5,10.6,7.5c6.2,0,11.3-5.1,11.3-11.3c0-6.2-5.1-11.3-11.3-11.3c-4.9,0-9.1,3.2-10.6,7.5h-46c-1,0-2,0.4-2.7,1.1
		l-6.1,6.1c-9.5-9.1-22.4-14.7-36.5-14.7c-27.9,0-50.7,21.7-52.6,49.1H65.7L53.3,58.1c3.6-1.9,6.1-5.6,6.1-10
		c0-6.2-5.1-11.3-11.3-11.3c-6.2,0-11.3,5.1-11.3,11.3c0,5.3,3.7,9.8,8.7,11l14.2,32.1c0.6,1.4,2,2.2,3.4,2.2h34.2
		c0.9,12.7,6.3,24.1,14.6,32.7L80.1,158c-1.8-0.3-3.6-0.5-5.5-0.5c-20.8,0-37.7,16.9-37.7,37.7c0,19.5,14.9,35.6,34,37.5v19.1
		c0,2.1,1.7,3.8,3.8,3.8h34.7c1.6,4.4,5.7,7.5,10.6,7.5c6.2,0,11.3-5.1,11.3-11.3c0-6.2-5.1-11.3-11.3-11.3c-4.9,0-9.1,3.2-10.6,7.5
		H78.3v-15.3c19-1.9,34-18,34-37.5c0-15.9-9.9-29.5-23.8-35l29-29c9,7,20.2,11.2,32.5,11.2c12.1,0,23.2-4.1,32.1-11l20.9,26.6
		c-25.7,3.6-45.5,25.6-45.5,52.3c0,29.1,23.7,52.8,52.8,52.8c29.1,0,52.8-23.7,52.8-52.8c0-28.5-22.7-51.7-50.9-52.7l-24.5-31.2
		c8.5-8.7,13.9-20.2,14.8-33.1h37.9v4.2c-8.6,1.8-15.1,9.4-15.1,18.5c0,10.4,8.5,18.9,18.9,18.9c10.4,0,18.9-8.5,18.9-18.9
		c0-9.1-6.5-16.7-15.1-18.5v-7.9c0-2.1-1.7-3.8-3.8-3.8h-41.7c-0.8-10.8-4.8-20.7-11.1-28.7l5.3-5.3H241.3z"/>
</g>
</svg>
