<?xml version="1.0" encoding="utf-8"?>
<!-- Generator: Adobe Illustrator 25.2.2, SVG Export Plug-In . SVG Version: 6.00 Build 0)  -->
<svg version="1.1" id="Layer_1" xmlns="http://www.w3.org/2000/svg" xmlns:xlink="http://www.w3.org/1999/xlink" x="0px" y="0px"
	 viewBox="0 0 300 300" style="enable-background:new 0 0 300 300;" xml:space="preserve">
<style type="text/css">
	.st0{clip-path:url(#SVGID_2_);fill:#6D9E40;}
	.st1{clip-path:url(#SVGID_4_);fill:#29ABE2;}
	.st2{clip-path:url(#SVGID_6_);fill:#F26623;}
</style>
<g>
	<defs>
		<rect id="SVGID_1_" x="47.6" y="35.9" width="204.8" height="228.2"/>
	</defs>
	<clipPath id="SVGID_2_">
		<use xlink:href="#SVGID_1_"  style="overflow:visible;"/>
	</clipPath>
	<path class="st0" d="M89.8,36.3c-2-0.2-3.8,1.2-4.1,3.2l-3.3,19.6H51.7c-2.1,0-3.8,1.7-3.8,3.8v197.5c0,2.1,1.7,3.8,3.8,3.8h158.8
		c2.1,0,3.8-1.7,3.8-3.8v-6.5l10.4,2.6c0.3,0.1,0.6,0.1,0.9,0.1c0.8,0,1.5-0.2,2.2-0.7c0.9-0.6,1.5-1.6,1.6-2.7l22.7-197.5
		c0.1-1-0.2-2-0.8-2.8c-0.6-0.8-1.6-1.3-2.6-1.4L89.8,36.3 M206.7,256.5H55.5V66.6h151.3V256.5z M222.4,248l-8.1-2V62.9
		c0-2.1-1.7-3.8-3.8-3.8H90.2l2.5-14.9l151.5,14.5L222.4,248z"/>
	<polyline class="st0" points="70.6,97 63,97 63,157.8 199.2,157.8 199.2,150.2 70.6,150.2 70.6,97 	"/>
	<polyline class="st0" points="154.1,119.2 130.6,103.5 108.4,125.8 97.1,114.4 75.5,136.1 80.8,141.5 97.1,125.2 108.4,136.6 
		131.6,113.3 153.5,128 200.9,104.2 197.5,97.4 154.1,119.2 	"/>
	<path class="st0" d="M70.6,89.4c4.2,0,7.6-3.4,7.6-7.6c0-4.2-3.4-7.6-7.6-7.6c-4.2,0-7.6,3.4-7.6,7.6C63,86,66.4,89.4,70.6,89.4"/>
	<path class="st0" d="M191.6,89.4c4.2,0,7.6-3.4,7.6-7.6c0-4.2-3.4-7.6-7.6-7.6c-4.2,0-7.6,3.4-7.6,7.6
		C184,86,187.4,89.4,191.6,89.4"/>
	<path class="st0" d="M70.6,233.7c-4.2,0-7.6,3.4-7.6,7.6c0,4.2,3.4,7.6,7.6,7.6c4.2,0,7.6-3.4,7.6-7.6
		C78.1,237.1,74.7,233.7,70.6,233.7"/>
	<path class="st0" d="M191.6,233.7c-4.2,0-7.6,3.4-7.6,7.6c0,4.2,3.4,7.6,7.6,7.6c4.2,0,7.6-3.4,7.6-7.6
		C199.2,237.1,195.8,233.7,191.6,233.7"/>
	<polyline class="st0" points="63,173 108.4,173 108.4,165.4 63,165.4 63,173 	"/>
	<polyline class="st0" points="131.1,248.9 176.5,248.9 176.5,241.3 131.1,241.3 131.1,248.9 	"/>
	<polyline class="st0" points="63,188.2 108.4,188.2 108.4,180.6 63,180.6 63,188.2 	"/>
	<polyline class="st0" points="63,203.4 108.4,203.4 108.4,195.8 63,195.8 63,203.4 	"/>
	<polyline class="st0" points="70.6,210.9 63,210.9 63,218.5 70.6,218.5 70.6,210.9 	"/>
	<polyline class="st0" points="78.1,218.5 85.7,218.5 85.7,210.9 78.1,210.9 78.1,218.5 	"/>
	<polyline class="st0" points="100.8,210.9 93.3,210.9 93.3,218.5 100.8,218.5 100.8,210.9 	"/>
	<path class="st0" d="M184,199.6v-3.8h-30.3v-30.4H150c-18.8,0-34,15.3-34,34.2c0,18.9,15.3,34.2,34,34.2S184,218.4,184,199.6
		 M123.5,199.6c0-13.4,9.9-24.5,22.7-26.3v30.1h30c-1.8,12.9-12.9,22.8-26.2,22.8C135.4,226.1,123.5,214.2,123.5,199.6z"/>
	<polyline class="st0" points="157.8,186.8 164.9,189.6 171.5,173 199.2,173 199.2,165.4 166.4,165.4 157.8,186.8 	"/>
	<polyline class="st0" points="116,248.9 123.5,248.9 123.5,241.3 116,241.3 116,248.9 	"/>
	<polyline class="st0" points="100.8,248.9 108.4,248.9 108.4,241.3 100.8,241.3 100.8,248.9 	"/>
</g>
</svg>
