<?xml version="1.0" encoding="utf-8"?>
<!-- Generator: Adobe Illustrator 25.2.2, SVG Export Plug-In . SVG Version: 6.00 Build 0)  -->
<svg version="1.1" id="Layer_1" xmlns="http://www.w3.org/2000/svg" xmlns:xlink="http://www.w3.org/1999/xlink" x="0px" y="0px"
	 viewBox="0 0 300 300" style="enable-background:new 0 0 300 300;" xml:space="preserve">
<style type="text/css">
	.st0{clip-path:url(#SVGID_2_);fill:#6D9E40;}
	.st1{clip-path:url(#SVGID_4_);fill:#29ABE2;}
	.st2{clip-path:url(#SVGID_6_);fill:#F26623;}
</style>
<g>
	<defs>
		<rect id="SVGID_3_" x="28.6" y="31.5" width="242.9" height="237"/>
	</defs>
	<clipPath id="SVGID_2_">
		<use xlink:href="#SVGID_3_"  style="overflow:visible;"/>
	</clipPath>
	<path style="clip-path:url(#SVGID_2_);fill:#29ABE2;" d="M229.5,56.9c0-7-5.6-12.7-12.6-12.7h-12.6c0-7-5.6-12.7-12.6-12.7
		c-6.9,0-12.6,5.7-12.6,12.7h-16.7c0-7-5.6-12.7-12.6-12.7c-6.9,0-12.6,5.7-12.6,12.7h-16.7c0-7-5.6-12.7-12.6-12.7
		c-6.9,0-12.6,5.7-12.6,12.7H78.9c0-7-5.6-12.7-12.6-12.7c-6.9,0-12.6,5.7-12.6,12.7H41.2c-6.9,0-12.6,5.7-12.6,12.7v177.8
		c0,2.3,1.9,4.2,4.2,4.2h12.6v12.7c0,2.3,1.9,4.2,4.2,4.2h110.2c0,0,0.1,0,0.1,0c11.5,8,25.4,12.7,40.3,12.7
		c39.2,0,71.1-32.3,71.1-71.9c0-29.1-17.2-54.2-41.8-65.5V56.9 M187.7,44.2c0-2.3,1.9-4.2,4.2-4.2c2.3,0,4.2,1.9,4.2,4.2v12.7h-8.4
		V44.2z M145.8,44.2c0-2.3,1.9-4.2,4.2-4.2c2.3,0,4.2,1.9,4.2,4.2v12.7h-8.4V44.2z M104,44.2c0-2.3,1.9-4.2,4.2-4.2
		c2.3,0,4.2,1.9,4.2,4.2v12.7H104V44.2z M62.1,44.2c0-2.3,1.9-4.2,4.2-4.2c2.3,0,4.2,1.9,4.2,4.2v12.7h-8.4V44.2z M37,56.9
		c0-2.3,1.9-4.2,4.2-4.2h12.6v8.5c0,2.3,1.9,4.2,4.2,4.2h16.7c2.3,0,4.2-1.9,4.2-4.2v-8.5h16.7v8.5c0,2.3,1.9,4.2,4.2,4.2h16.7
		c2.3,0,4.2-1.9,4.2-4.2v-8.5h16.7v8.5c0,2.3,1.9,4.2,4.2,4.2h16.7c2.3,0,4.2-1.9,4.2-4.2v-8.5h16.7v8.5c0,2.3,1.9,4.2,4.2,4.2h16.7
		c2.3,0,4.2-1.9,4.2-4.2v-8.5H217c2.3,0,4.2,1.9,4.2,4.2v21.2H37V56.9z M53.7,238.9h89.1c2.2,3,4.5,5.9,7.1,8.5H53.7V238.9z
		 M263,196.6c0,35-28.2,63.5-62.8,63.5c-34.6,0-62.8-28.5-62.8-63.5s28.2-63.5,62.8-63.5C234.8,133.1,263,161.5,263,196.6z
		 M200.2,124.6c-39.2,0-71.1,32.3-71.1,71.9c0,12.2,3.1,23.8,8.4,33.9H37V86.5h184.1v41.3C214.5,125.7,207.5,124.6,200.2,124.6z"/>
	<path style="clip-path:url(#SVGID_2_);fill:#29ABE2;" d="M66.3,103.4c-6.9,0-12.6,5.7-12.6,12.7c0,7,5.6,12.7,12.6,12.7
		c6.9,0,12.6-5.7,12.6-12.7C78.9,109.1,73.2,103.4,66.3,103.4 M66.3,120.4c-2.3,0-4.2-1.9-4.2-4.2s1.9-4.2,4.2-4.2
		c2.3,0,4.2,1.9,4.2,4.2S68.6,120.4,66.3,120.4z"/>
	<path style="clip-path:url(#SVGID_2_);fill:#29ABE2;" d="M108.2,103.4c-6.9,0-12.6,5.7-12.6,12.7c0,7,5.6,12.7,12.6,12.7
		c6.9,0,12.6-5.7,12.6-12.7C120.7,109.1,115.1,103.4,108.2,103.4 M108.2,120.4c-2.3,0-4.2-1.9-4.2-4.2s1.9-4.2,4.2-4.2
		c2.3,0,4.2,1.9,4.2,4.2S110.5,120.4,108.2,120.4z"/>
	<path style="clip-path:url(#SVGID_2_);fill:#29ABE2;" d="M150,103.4c-6.9,0-12.6,5.7-12.6,12.7c0,7,5.6,12.7,12.6,12.7
		c6.9,0,12.6-5.7,12.6-12.7C162.6,109.1,156.9,103.4,150,103.4 M150,120.4c-2.3,0-4.2-1.9-4.2-4.2s1.9-4.2,4.2-4.2
		c2.3,0,4.2,1.9,4.2,4.2S152.3,120.4,150,120.4z"/>
	<path style="clip-path:url(#SVGID_2_);fill:#29ABE2;" d="M66.3,137.3c-6.9,0-12.6,5.7-12.6,12.7c0,7,5.6,12.7,12.6,12.7
		c6.9,0,12.6-5.7,12.6-12.7C78.9,143,73.2,137.3,66.3,137.3 M66.3,154.2c-2.3,0-4.2-1.9-4.2-4.2c0-2.3,1.9-4.2,4.2-4.2
		c2.3,0,4.2,1.9,4.2,4.2C70.5,152.3,68.6,154.2,66.3,154.2z"/>
	<path style="clip-path:url(#SVGID_2_);fill:#29ABE2;" d="M108.2,137.3c-6.9,0-12.6,5.7-12.6,12.7c0,7,5.6,12.7,12.6,12.7
		c6.9,0,12.6-5.7,12.6-12.7C120.7,143,115.1,137.3,108.2,137.3 M108.2,154.2c-2.3,0-4.2-1.9-4.2-4.2c0-2.3,1.9-4.2,4.2-4.2
		c2.3,0,4.2,1.9,4.2,4.2C112.3,152.3,110.5,154.2,108.2,154.2z"/>
	<path style="clip-path:url(#SVGID_2_);fill:#29ABE2;" d="M66.3,171.2c-6.9,0-12.6,5.7-12.6,12.7c0,7,5.6,12.7,12.6,12.7
		c6.9,0,12.6-5.7,12.6-12.7C78.9,176.8,73.2,171.2,66.3,171.2 M66.3,188.1c-2.3,0-4.2-1.9-4.2-4.2c0-2.3,1.9-4.2,4.2-4.2
		c2.3,0,4.2,1.9,4.2,4.2C70.5,186.2,68.6,188.1,66.3,188.1z"/>
	<path style="clip-path:url(#SVGID_2_);fill:#29ABE2;" d="M108.2,171.2c-6.9,0-12.6,5.7-12.6,12.7c0,7,5.6,12.7,12.6,12.7
		c6.9,0,12.6-5.7,12.6-12.7C120.7,176.8,115.1,171.2,108.2,171.2 M108.2,188.1c-2.3,0-4.2-1.9-4.2-4.2c0-2.3,1.9-4.2,4.2-4.2
		c2.3,0,4.2,1.9,4.2,4.2C112.3,186.2,110.5,188.1,108.2,188.1z"/>
	<path style="clip-path:url(#SVGID_2_);fill:#29ABE2;" d="M145.8,196.6c0,30.3,24.4,55,54.4,55s54.4-24.7,54.4-55
		c0-30.3-24.4-55-54.4-55S145.8,166.2,145.8,196.6 M246.3,196.6h-8.4c-2.3,0-4.2,1.9-4.2,4.2c0,2.3,1.9,4.2,4.2,4.2h7.6
		c-3.7,20.3-20.4,36-41,37.9v-8.2c0-2.3-1.9-4.2-4.2-4.2s-4.2,1.9-4.2,4.2v8.2c-20.6-1.9-37.3-17.6-41-37.9h7.6
		c2.3,0,4.2-1.9,4.2-4.2c0-2.3-1.9-4.2-4.2-4.2h-8.4c0-24.2,18.4-44.2,41.8-46.3v8.2c0,2.3,1.9,4.2,4.2,4.2s4.2-1.9,4.2-4.2v-8.2
		C227.8,152.4,246.3,172.3,246.3,196.6z"/>
	<path style="clip-path:url(#SVGID_2_);fill:#29ABE2;" d="M201.1,194.5l-5.8-8.8c-1.3-2-3.9-2.5-5.8-1.2c-1.9,1.3-2.4,3.9-1.2,5.9
		l8.4,12.7c0.7,1,1.7,1.7,2.9,1.8c0.2,0,0.4,0,0.6,0c1,0,1.9-0.3,2.7-1l25.1-21.2c1.8-1.5,2-4.2,0.5-6c-1.5-1.8-4.1-2-5.9-0.5
		L201.1,194.5"/>
</g>
</svg>
