<svg id="Layer_1" data-name="Layer 1" xmlns="http://www.w3.org/2000/svg" xmlns:xlink="http://www.w3.org/1999/xlink" viewBox="0 0 850 264"><defs><style>.cls-1,.cls-10,.cls-5{fill:none;}.cls-2{clip-path:url(#clip-path);}.cls-3{fill:#0e83cd;}.cls-4{fill:#cf202f;}.cls-5{stroke:#aa1a27;stroke-width:23.97px;}.cls-10,.cls-5{stroke-miterlimit:10;}.cls-6{fill:#f0ad4e;}.cls-7{fill:#cbdb2c;}.cls-8{fill:#ffc62f;}.cls-9{fill:#5bcbf5;}.cls-10{stroke:#5bcbf5;stroke-width:13.08px;}</style><clipPath id="clip-path"><rect class="cls-1" width="850" height="264"/></clipPath></defs><g class="cls-2"><polygon class="cls-3" points="-412 56.02 1225 19.02 1225 263.05 -362 187.05 -412 56.02"/><circle class="cls-4" cx="-6.24" cy="349.62" r="121.88"/><path class="cls-5" d="M549.11,16.42a29.5,29.5,0,0,1-29.49-29.49,29.5,29.5,0,0,1,29.49-29.49A29.54,29.54,0,0,1,578.6-13.07,29.54,29.54,0,0,1,549.11,16.42Z"/><path class="cls-6" d="M17.93-75.13A87.17,87.17,0,0,0-69.1,12a87.17,87.17,0,0,0,87,87.09A87.18,87.18,0,0,0,105,12,87.15,87.15,0,0,0,17.93-75.13Z"/><circle class="cls-7" cx="327.77" cy="236.06" r="43.39"/><circle class="cls-8" cx="883.07" cy="-3.19" r="79.31"/><path class="cls-9" d="M976.11-3.19v.4a.89.89,0,0,1-.06.39.5.5,0,0,1-.13.32c-.07.14-.14.2-.2.33a.51.51,0,0,1-.26.26l-.26.26c-.14.07-.2.14-.33.2s-.26.07-.33.13-.26.07-.39.07a.77.77,0,0,1-.39-.07.5.5,0,0,1-.33-.13c-.13-.06-.2-.13-.33-.2a.51.51,0,0,1-.26-.26l-.26-.26a1.48,1.48,0,0,1-.2-.33c-.06-.13-.06-.26-.13-.32s-.06-.26-.06-.39v-.4a.89.89,0,0,1,.06-.39.55.55,0,0,1,.13-.33c.07-.13.13-.19.2-.32a.51.51,0,0,1,.26-.26l.26-.27c.13-.06.2-.13.33-.19s.26-.07.33-.13.26-.07.39-.07a.77.77,0,0,1,.39.07.5.5,0,0,1,.33.13c.13.06.19.13.33.19a.53.53,0,0,1,.26.27l.26.26c.06.13.13.19.2.32s.06.27.13.33A.89.89,0,0,1,976.11-3.19ZM975.33-15v.78a.83.83,0,0,1-.07.4c-.06.13-.06.26-.13.32s-.13.2-.2.33a.47.47,0,0,1-.26.26c-.13.07-.19.13-.32.2s-.2.13-.33.13a.89.89,0,0,1-.39.06h-.4a.89.89,0,0,1-.39-.06c-.13-.07-.26-.07-.32-.13s-.2-.13-.33-.2a.47.47,0,0,1-.26-.26,1.59,1.59,0,0,1-.2-.33c-.06-.13-.13-.19-.13-.32a.83.83,0,0,1-.07-.4V-15a.77.77,0,0,1,.07-.39c.07-.13.07-.26.13-.33s.13-.19.2-.32a.47.47,0,0,1,.26-.26,1.18,1.18,0,0,1,.33-.2c.13-.07.19-.13.32-.13a.77.77,0,0,1,.39-.07h.4a.77.77,0,0,1,.39.07c.13.06.26.06.33.13s.19.13.32.2a.47.47,0,0,1,.26.26,1.27,1.27,0,0,1,.2.32c.07.14.13.2.13.33S975.33-15.15,975.33-15ZM973-27l.13.4c0,.13.07.26.07.39v.39c0,.13-.07.26-.07.39s-.06.26-.13.33-.13.2-.19.33-.2.19-.26.26-.2.13-.33.19a1,1,0,0,1-.33.13c-.13,0-.26.07-.39.07h-.39c-.13,0-.26-.07-.4-.07s-.26-.06-.32-.13-.2-.13-.33-.19l-.26-.26c-.07-.13-.13-.2-.2-.33a1.21,1.21,0,0,1-.13-.33l-.13-.39c0-.13-.06-.26-.06-.39v-.39c0-.14.06-.27.06-.4s.07-.26.13-.32.13-.2.2-.33l.26-.26.33-.2a1.32,1.32,0,0,1,.32-.13c.13,0,.27-.06.4-.06h.39c.13,0,.26.06.39.06s.26.07.33.13.19.13.32.2l.27.26c.06.13.13.2.19.33S973-27.12,973-27Zm-3.85-11.57.13.33c.06.13.06.26.13.32s.06.27.06.4a.89.89,0,0,1-.06.39.55.55,0,0,1-.13.33c-.07.13-.13.19-.2.32a.51.51,0,0,1-.26.26l-.26.27a1.6,1.6,0,0,1-.33.19c-.13.07-.26.07-.33.13s-.26.07-.39.07a.77.77,0,0,1-.39-.07.5.5,0,0,1-.33-.13c-.13-.06-.19-.13-.33-.19a.57.57,0,0,1-.26-.27c-.06-.13-.19-.19-.26-.26s-.13-.19-.2-.32l-.13-.33c-.06-.13-.06-.26-.13-.33s-.06-.26-.06-.39a.89.89,0,0,1,.06-.39.55.55,0,0,1,.13-.33c.07-.13.13-.2.2-.33a.55.55,0,0,1,.26-.26l.26-.26c.13-.06.2-.13.33-.2s.26-.06.33-.13.26-.06.39-.06a.89.89,0,0,1,.39.06.55.55,0,0,1,.33.13,1.1,1.1,0,0,0,.33.2.55.55,0,0,1,.26.26.8.8,0,0,0,.26.26A1.25,1.25,0,0,0,969.12-38.56Zm-5.37-10.92.2.33a.62.62,0,0,1,.13.33.77.77,0,0,1,.07.39V-48a.77.77,0,0,1-.07.39c-.06.13-.06.26-.13.33s-.13.2-.2.33a.51.51,0,0,1-.26.26,1.28,1.28,0,0,1-.32.19c-.14.07-.2.13-.33.13a.77.77,0,0,1-.39.07h-.4a.77.77,0,0,1-.39-.07c-.13-.06-.26-.06-.33-.13s-.19-.13-.32-.19a.51.51,0,0,1-.26-.26,1.59,1.59,0,0,1-.2-.33l-.2-.33c-.06-.13-.13-.19-.13-.32a1,1,0,0,1-.06-.4v-.39a.89.89,0,0,1,.06-.39c.07-.13.07-.26.13-.33s.13-.19.2-.33a.55.55,0,0,1,.26-.26,1.6,1.6,0,0,1,.33-.19.62.62,0,0,1,.33-.13c.13,0,.26-.07.39-.07h.39a.77.77,0,0,1,.39.07c.13.06.26.06.33.13s.2.13.33.19a.55.55,0,0,1,.26.26C963.62-49.67,963.69-49.61,963.75-49.48ZM957-59.61l.26.32c.07.13.13.2.2.33a1.21,1.21,0,0,1,.13.33c0,.13.06.26.06.39v.39c0,.13-.06.26-.06.39s-.07.27-.13.33-.13.2-.2.33l-.26.26-.33.2a1.32,1.32,0,0,1-.32.13c-.14,0-.27.06-.4.06h-.39c-.13,0-.26-.06-.39-.06s-.26-.07-.33-.13-.19-.13-.33-.2l-.26-.26-.26-.33c-.06-.13-.13-.19-.19-.33a1.09,1.09,0,0,1-.14-.32c0-.13-.06-.26-.06-.39v-.4c0-.13.06-.26.06-.39s.07-.26.14-.33.13-.19.19-.32l.26-.26c.13-.07.2-.14.33-.2a1,1,0,0,1,.33-.13c.13,0,.26-.07.39-.07h.39c.13,0,.26.07.39.07s.27.06.33.13.2.13.33.2A.51.51,0,0,1,957-59.61Zm-8-9.16.26.26.27.27c.06.13.13.19.19.32s.07.26.13.33.07.26.07.39a.77.77,0,0,1-.07.39.46.46,0,0,1-.13.33c-.06.13-.13.2-.19.33a.57.57,0,0,1-.27.26l-.26.26c-.13.07-.19.13-.32.2s-.27.06-.33.13-.26.06-.39.06a.93.93,0,0,1-.4-.06.5.5,0,0,1-.32-.13l-.33-.2a.47.47,0,0,1-.26-.26l-.26-.26-.26-.26c-.07-.13-.14-.2-.2-.33s-.07-.26-.13-.33-.07-.26-.07-.39a.77.77,0,0,1,.07-.39.5.5,0,0,1,.13-.33c.06-.13.13-.19.2-.33a.51.51,0,0,1,.26-.26l.26-.26c.13-.06.19-.13.33-.19s.26-.07.32-.14.26-.06.39-.06a.91.91,0,0,1,.4.06.46.46,0,0,1,.32.14,1.6,1.6,0,0,0,.33.19Zm-9.15-8.1.33.26a.51.51,0,0,1,.26.26,1.2,1.2,0,0,1,.19.33c.07.13.13.19.13.32a.77.77,0,0,1,.07.39v.4a.77.77,0,0,1-.07.39c-.06.13-.06.26-.13.33s-.13.19-.19.32a.51.51,0,0,1-.26.26,1.25,1.25,0,0,1-.33.2.65.65,0,0,1-.33.13.77.77,0,0,1-.39.07h-.39a.83.83,0,0,1-.4-.07c-.13-.06-.26-.06-.32-.13s-.2-.13-.33-.2l-.33-.26a.51.51,0,0,1-.26-.26,1.2,1.2,0,0,1-.19-.33c-.07-.13-.13-.19-.13-.32a.77.77,0,0,1-.07-.39v-.4a.77.77,0,0,1,.07-.39c.06-.13.06-.26.13-.33s.13-.19.19-.32a.51.51,0,0,1,.26-.26c.13-.07.2-.14.33-.2a.65.65,0,0,1,.33-.13.77.77,0,0,1,.39-.07h.39a.77.77,0,0,1,.39.07c.14.06.27.06.33.13S939.76-76.94,939.89-76.87Zm-10.14-6.8h0l.33.19.33.2.26.26c.06.13.13.2.2.33a1.32,1.32,0,0,1,.13.32c0,.13.06.26.06.4v.39c0,.13-.06.26-.06.39s-.07.26-.13.33-.14.19-.2.32l-.26.27c-.13.06-.2.13-.33.19a1,1,0,0,1-.33.13c-.13,0-.26.07-.39.07H929c-.13,0-.26-.07-.39-.07s-.26-.06-.33-.13l-.33-.19h0c-.13-.07-.19-.14-.32-.2l-.27-.26c-.06-.13-.13-.2-.19-.33a1,1,0,0,1-.13-.33c0-.06-.07-.26-.07-.39v-.39c0-.13.07-.26.07-.39s.06-.26.13-.33a1.6,1.6,0,0,0,.19-.33l.27-.26c.13-.06.19-.13.32-.19a1,1,0,0,1,.33-.14c.13,0,.26-.06.39-.06H929c.14,0,.27.06.4.06A1.09,1.09,0,0,0,929.75-83.67ZM918.9-89l.33.13c.13.07.19.14.32.2a.57.57,0,0,1,.27.26l.26.26c.06.13.13.2.19.33s.07.26.13.33.07.26.07.39a.77.77,0,0,1-.07.39.5.5,0,0,1-.13.33,1.37,1.37,0,0,0-.19.33.55.55,0,0,1-.26.26l-.27.26c-.13.06-.19.13-.32.2s-.26.06-.33.13-.26.06-.39.06a.89.89,0,0,1-.39-.06.5.5,0,0,1-.33-.13l-.33-.14c-.13-.06-.19-.13-.33-.19a.55.55,0,0,1-.26-.26l-.26-.26a1.6,1.6,0,0,1-.19-.33c-.07-.13-.07-.26-.14-.33s-.06-.26-.06-.39a.89.89,0,0,1,.06-.39.5.5,0,0,1,.14-.33c.06-.13.13-.2.19-.33a.55.55,0,0,1,.26-.26l.26-.26a1.59,1.59,0,0,1,.33-.2c.13-.06.26-.06.33-.13s.26-.06.39-.06a.89.89,0,0,1,.39.06C918.64-89.1,918.77-89.1,918.9-89ZM907.33-93l.39.13c.13.07.26.07.33.13s.19.13.32.2a.53.53,0,0,1,.27.26,1.6,1.6,0,0,1,.19.33c.07.13.13.19.13.32a.81.81,0,0,1,.07.4v.39a.77.77,0,0,1-.07.39c-.06.13-.06.26-.13.33s-.13.19-.19.32a.55.55,0,0,1-.27.27,1.28,1.28,0,0,1-.32.19.65.65,0,0,1-.33.13.77.77,0,0,1-.39.07h-.39a.79.79,0,0,1-.4-.07l-.39-.13c-.13-.06-.26-.06-.33-.13s-.19-.13-.32-.19a.53.53,0,0,1-.26-.27,1,1,0,0,1-.2-.32.65.65,0,0,1-.13-.33.77.77,0,0,1-.07-.39v-.39a.79.79,0,0,1,.07-.4c.06-.13.06-.26.13-.32s.13-.2.2-.33a.47.47,0,0,1,.26-.26,1.27,1.27,0,0,1,.32-.2c.13-.06.2-.13.33-.13a.89.89,0,0,1,.39-.06h.4C907.13-93,907.26-93,907.33-93Zm-11.9-2.42.39.07c.13,0,.26.06.39.06a.55.55,0,0,1,.33.13l.33.2.26.26c.06.13.13.2.19.33a1,1,0,0,1,.13.32c0,.14.07.27.07.4v.39c0,.13-.07.26-.07.39s-.06.26-.13.33-.13.19-.19.33l-.26.26c-.13.06-.2.13-.33.19a1,1,0,0,1-.33.13c-.13,0-.26.07-.39.07h-.39l-.39-.07c-.14,0-.27-.06-.4-.06s-.26-.07-.32-.13L894-92l-.26-.26c-.07-.13-.13-.2-.2-.33a1.32,1.32,0,0,1-.13-.32c0-.13-.06-.27-.06-.4v-.39c0-.13.06-.26.06-.39s.07-.26.13-.33.13-.19.2-.32L894-95c.13-.06.2-.13.33-.19a1,1,0,0,1,.32-.13c.13,0,.26-.07.4-.07S895.3-95.38,895.43-95.38Zm-12.16-.85h.39a.77.77,0,0,1,.39.07.5.5,0,0,1,.33.13c.13.06.19.13.32.19a.51.51,0,0,1,.27.27l.26.26c.06.13.13.19.19.32s.07.27.13.33.07.26.07.39a.83.83,0,0,1-.07.4.45.45,0,0,1-.13.32,1.6,1.6,0,0,0-.19.33A.51.51,0,0,1,885-93l-.27.26c-.13.07-.19.13-.32.2s-.26.06-.33.13-.26.06-.39.06h-.39a.93.93,0,0,1-.4-.06c-.13-.07-.26-.07-.32-.13l-.33-.2A.47.47,0,0,1,882-93l-.26-.26c-.07-.13-.13-.2-.2-.33s-.06-.26-.13-.32-.07-.27-.07-.4a.77.77,0,0,1,.07-.39.55.55,0,0,1,.13-.33c.07-.13.13-.19.2-.32a.47.47,0,0,1,.26-.26l.26-.27c.13-.06.2-.13.33-.19s.26-.07.32-.13A1,1,0,0,1,883.27-96.23Zm-12.1.79.39-.07H872a.79.79,0,0,1,.4.07c.13.06.26.06.32.13s.2.13.33.19a.51.51,0,0,1,.26.26,1.59,1.59,0,0,1,.2.33c.06.13.13.2.13.33a.89.89,0,0,1,.06.39v.39a1,1,0,0,1-.06.4c-.07.13-.07.26-.13.32s-.13.2-.2.33a.47.47,0,0,1-.26.26,1.36,1.36,0,0,1-.33.2c-.13.06-.19.13-.32.13a.91.91,0,0,1-.4.06l-.39.07h-.39a.77.77,0,0,1-.39-.07c-.13-.06-.26-.06-.33-.13s-.2-.13-.33-.19a.53.53,0,0,1-.26-.27,1.28,1.28,0,0,1-.19-.32.65.65,0,0,1-.13-.33.77.77,0,0,1-.07-.39v-.39a.81.81,0,0,1,.07-.4c.06-.13.06-.26.13-.32s.13-.2.19-.33a.51.51,0,0,1,.26-.26,1.59,1.59,0,0,1,.33-.2c.13-.06.2-.13.33-.13S871-95.44,871.17-95.44Zm-12,2.35.4-.13c.13,0,.26-.07.39-.07h.39c.13,0,.26.07.39.07s.27.06.33.13l.33.2.26.26a1.64,1.64,0,0,1,.2.32A1.52,1.52,0,0,1,862-92c0,.13.06.26.06.39v.4c0,.13-.06.26-.06.39s-.07.26-.13.33-.14.19-.2.32a1.06,1.06,0,0,1-.26.26l-.33.2a1,1,0,0,1-.33.13l-.39.13c-.13,0-.26.07-.39.07h-.39c-.13,0-.26-.07-.4-.07s-.26-.06-.32-.13-.2-.13-.33-.2l-.26-.26c-.07-.13-.13-.19-.2-.32a1.35,1.35,0,0,1-.13-.33c0-.13-.06-.26-.06-.39v-.4c0-.13.06-.26.06-.39s.07-.26.13-.32a1.59,1.59,0,0,0,.2-.33l.26-.26.33-.2C859-93,859.07-93.09,859.2-93.09Zm-11.5,3.86.32-.13c.13-.07.27-.07.33-.13s.26-.07.39-.07a.83.83,0,0,1,.4.07.45.45,0,0,1,.32.13c.13.06.2.13.33.19a.51.51,0,0,1,.26.26l.26.27c.07.13.13.19.2.32s.06.26.13.33.06.26.06.39a.89.89,0,0,1-.06.39.5.5,0,0,1-.13.33,1.59,1.59,0,0,0-.2.33.51.51,0,0,1-.26.26l-.26.26-.33.2-.32.13c-.14.06-.27.06-.33.13s-.26.06-.39.06a.93.93,0,0,1-.4-.06.5.5,0,0,1-.32-.13l-.33-.2a.47.47,0,0,1-.26-.26l-.26-.26c-.07-.13-.13-.2-.2-.33s-.06-.26-.13-.32-.06-.27-.06-.4a.89.89,0,0,1,.06-.39.55.55,0,0,1,.13-.33c.07-.13.13-.19.2-.32a.47.47,0,0,1,.26-.26l.26-.27A1.6,1.6,0,0,1,847.7-89.23Zm-10.92,5.36.33-.2c.13-.06.19-.13.32-.13a.89.89,0,0,1,.39-.06h.4a.89.89,0,0,1,.39.06c.13.07.26.07.33.13s.19.13.32.2a.47.47,0,0,1,.26.26,1.25,1.25,0,0,1,.2.33c.07.13.13.19.13.32a.83.83,0,0,1,.07.4v.39a.77.77,0,0,1-.07.39c-.06.13-.06.26-.13.33s-.13.19-.2.33a.51.51,0,0,1-.26.26,1.28,1.28,0,0,1-.32.19l-.33.2c-.13.06-.2.13-.33.13a.77.77,0,0,1-.39.07h-.39a.77.77,0,0,1-.39-.07c-.14-.07-.27-.07-.33-.13l-.33-.2a.51.51,0,0,1-.26-.26,1.18,1.18,0,0,1-.2-.33c-.06-.13-.13-.19-.13-.32a.89.89,0,0,1-.06-.39v-.4a.89.89,0,0,1,.06-.39c.07-.13.07-.26.13-.33s.13-.19.2-.32a.51.51,0,0,1,.26-.26A1.25,1.25,0,0,1,836.78-83.87Zm-10.2,6.8.33-.26c.13-.07.19-.13.32-.2a1.21,1.21,0,0,1,.33-.13c.13,0,.26-.06.39-.06h.39c.13,0,.27.06.4.06a.5.5,0,0,1,.32.13l.33.2.26.26c.07.13.13.2.2.33a1.32,1.32,0,0,1,.13.32c0,.13.06.26.06.4v.39c0,.13-.06.26-.06.39s-.07.26-.13.33-.13.19-.2.32-.19.2-.26.27l-.33.26c-.13.06-.19.13-.32.19a1,1,0,0,1-.33.13c-.13,0-.26.07-.39.07h-.4c-.13,0-.26-.07-.39-.07s-.26-.06-.32-.13-.2-.13-.33-.19l-.26-.26c-.07-.14-.13-.2-.2-.33A1.21,1.21,0,0,1,826-75c0-.13-.07-.26-.07-.39v-.39c0-.13.07-.26.07-.4s.07-.26.13-.32.13-.2.2-.33Zm-9.16,8,.27-.27.26-.26c.13-.06.19-.13.32-.19s.27-.07.33-.13.26-.07.39-.07a.81.81,0,0,1,.4.07.45.45,0,0,1,.32.13c.13.06.2.13.33.19a.51.51,0,0,1,.26.26l.26.27c.07.13.13.19.2.32s.06.26.13.33.07.26.07.39a.77.77,0,0,1-.07.39.5.5,0,0,1-.13.33c-.07.13-.13.2-.2.33a.51.51,0,0,1-.26.26l-.26.26-.26.26-.33.2c-.13.06-.26.06-.33.13s-.26.07-.39.07a.77.77,0,0,1-.39-.07A.55.55,0,0,1,818-66c-.13-.07-.19-.13-.32-.2a.53.53,0,0,1-.27-.26l-.26-.26c-.06-.13-.13-.2-.19-.33s-.07-.26-.13-.32-.07-.27-.07-.4a.77.77,0,0,1,.07-.39.5.5,0,0,1,.13-.33c.06-.13.13-.19.19-.32A1.06,1.06,0,0,1,817.42-69.09Zm-8,9.15.26-.33a.53.53,0,0,1,.27-.26,1.28,1.28,0,0,1,.32-.19c.13-.07.2-.14.33-.14s.26-.06.39-.06h.39a.93.93,0,0,1,.4.06c.13.07.26.07.32.14s.2.13.33.19a.51.51,0,0,1,.26.26,1.59,1.59,0,0,1,.2.33c.06.13.13.2.13.33a.89.89,0,0,1,.06.39v.39a.89.89,0,0,1-.06.39c-.07.13-.07.27-.13.33s-.13.2-.2.33l-.26.32a.53.53,0,0,1-.26.27,1.6,1.6,0,0,1-.33.19.62.62,0,0,1-.33.13c-.13,0-.26.07-.39.07h-.39a.77.77,0,0,1-.39-.07c-.13-.06-.26-.06-.33-.13a1.37,1.37,0,0,0-.33-.19.53.53,0,0,1-.26-.27,1.28,1.28,0,0,1-.19-.32.65.65,0,0,1-.13-.33.77.77,0,0,1-.07-.39v-.39a.81.81,0,0,1,.07-.4c.06-.13.06-.26.13-.32A1.6,1.6,0,0,1,809.38-59.94Zm-6.8,10.13.2-.32c.06-.13.13-.2.19-.33l.27-.26c.13-.07.19-.13.32-.2a1.21,1.21,0,0,1,.33-.13c.13,0,.26-.06.39-.06h.39c.14,0,.27.06.4.06s.26.07.32.13l.33.2.26.26c.07.13.13.2.2.33a1.32,1.32,0,0,1,.13.32c0,.14.06.27.06.4V-49c0,.13-.06.26-.06.39s-.07.26-.13.33L806-48c-.06.13-.13.19-.19.32l-.27.26c-.13.07-.19.13-.32.2a1,1,0,0,1-.33.13c-.13,0-.26.07-.39.07h-.39c-.13,0-.27-.07-.4-.07s-.26-.06-.32-.13l-.33-.2-.26-.26a1.27,1.27,0,0,1-.2-.32,1.52,1.52,0,0,1-.13-.33c0-.13-.06-.26-.06-.39v-.4c0-.13.06-.26.06-.39S802.52-49.74,802.58-49.81Zm-5.36,10.86.13-.33c.07-.13.13-.19.2-.33a.51.51,0,0,1,.26-.26l.26-.26c.13-.06.2-.13.33-.19s.26-.07.32-.14a.81.81,0,0,1,.4-.06.89.89,0,0,1,.39.06.5.5,0,0,1,.33.14c.13.06.19.13.32.19a.51.51,0,0,1,.26.26l.27.26c.06.14.13.2.19.33s.07.26.13.33.07.26.07.39a.77.77,0,0,1-.07.39.5.5,0,0,1-.13.33l-.13.33c-.06.13-.13.19-.19.32a.53.53,0,0,1-.27.26l-.26.27c-.13.06-.19.13-.32.19s-.27.07-.33.13-.26.07-.39.07a.81.81,0,0,1-.4-.07.45.45,0,0,1-.32-.13c-.13-.06-.2-.13-.33-.19a.49.49,0,0,1-.26-.27l-.26-.26a1.27,1.27,0,0,1-.2-.32c-.06-.13-.06-.27-.13-.33s-.07-.26-.07-.39a.83.83,0,0,1,.07-.4A1.32,1.32,0,0,1,797.22-38.95ZM793.3-27.38l.13-.39c.06-.13.06-.26.13-.33a1.48,1.48,0,0,0,.2-.33.51.51,0,0,1,.26-.26,1.28,1.28,0,0,1,.32-.19.65.65,0,0,1,.33-.13.77.77,0,0,1,.39-.07h.4a.77.77,0,0,1,.39.07c.13.06.26.06.32.13s.2.13.33.19a.51.51,0,0,1,.26.26,1.59,1.59,0,0,1,.2.33c.06.13.13.2.13.33a.77.77,0,0,1,.07.39V-27a.83.83,0,0,1-.07.4l-.13.39c-.07.13-.07.26-.13.32a1.59,1.59,0,0,0-.2.33.47.47,0,0,1-.26.26,1.36,1.36,0,0,1-.33.2c-.13.06-.19.13-.32.13a.79.79,0,0,1-.4.07h-.39a.77.77,0,0,1-.39-.07c-.13-.07-.26-.07-.33-.13s-.19-.13-.32-.2a.53.53,0,0,1-.27-.26,1.2,1.2,0,0,1-.19-.33c-.07-.13-.13-.19-.13-.32a.77.77,0,0,1-.07-.39V-27A.67.67,0,0,1,793.3-27.38Zm-2.42,12,.06-.4c0-.13.07-.26.07-.39s.06-.26.13-.33.13-.19.2-.32l.26-.26c.13-.07.19-.13.32-.2a1.13,1.13,0,0,1,.33-.13c.13,0,.26-.07.39-.07h.4c.13,0,.26.07.39.07s.26.06.33.13.19.13.32.2l.26.26c.07.13.13.19.2.32a1.13,1.13,0,0,1,.13.33c0,.07.07.26.07.39v.4l-.07.39c0,.13-.06.26-.06.39s-.07.26-.14.33-.13.19-.19.32l-.26.27c-.13.06-.2.13-.33.19a1,1,0,0,1-.33.13c-.13,0-.26.07-.39.07h-.39c-.13,0-.26-.07-.39-.07s-.27-.06-.33-.13-.2-.13-.33-.19l-.26-.27c-.06-.13-.13-.19-.2-.32a1.21,1.21,0,0,1-.13-.33c0-.13-.06-.26-.06-.39Zm-.79,12.09v-.39a.77.77,0,0,1,.07-.39c.06-.13.06-.26.13-.33s.13-.2.2-.33a.51.51,0,0,1,.26-.26c.13-.06.19-.19.26-.26s.2-.13.33-.2.26-.06.32-.13.26-.06.4-.06a.89.89,0,0,1,.39.06.5.5,0,0,1,.32.13c.14.07.2.14.33.2a.51.51,0,0,1,.26.26l.26.26c.07.13.14.2.2.33s.07.26.13.33.07.26.07.39v.39a.77.77,0,0,1-.07.39.46.46,0,0,1-.13.33c-.06.13-.13.2-.2.33a.51.51,0,0,1-.26.26l-.26.26c-.13.07-.19.13-.33.2s-.26.06-.32.13-.26.06-.39.06a.91.91,0,0,1-.4-.06.5.5,0,0,1-.32-.13l-.33-.2a.47.47,0,0,1-.26-.26l-.26-.26c-.07-.13-.13-.2-.2-.33s-.07-.26-.13-.33A.77.77,0,0,1,790.09-3.32Zm.72,12.1-.06-.39V8a.89.89,0,0,1,.06-.39c.07-.13.07-.26.13-.33s.13-.19.2-.32a.51.51,0,0,1,.26-.26l.33-.2a.62.62,0,0,1,.33-.13.77.77,0,0,1,.39-.07h.39a.77.77,0,0,1,.39.07c.13.06.26.06.33.13l.33.2a.51.51,0,0,1,.26.26,1.28,1.28,0,0,1,.19.32c.07.14.13.2.13.33a.77.77,0,0,1,.07.39l.07.4v.39a.77.77,0,0,1-.07.39c-.07.13-.07.26-.13.33s-.13.19-.2.32a.49.49,0,0,1-.26.27,1.2,1.2,0,0,1-.33.19c-.13.07-.19.13-.32.13a.77.77,0,0,1-.39.07h-.4a.77.77,0,0,1-.39-.07c-.13-.06-.26-.06-.33-.13s-.19-.13-.32-.19a.49.49,0,0,1-.26-.27,1,1,0,0,1-.2-.32.65.65,0,0,1-.13-.33A.77.77,0,0,0,790.81,8.78Zm2.36,12-.13-.39c0-.13-.07-.26-.07-.39v-.39c0-.13.07-.26.07-.4s.06-.26.13-.32.13-.2.19-.33l.27-.26c.13-.07.19-.13.32-.2a1.21,1.21,0,0,1,.33-.13c.13,0,.26-.06.39-.06h.39c.13,0,.26.06.4.06s.26.07.32.13a1.59,1.59,0,0,0,.33.2l.26.26c.07.13.13.2.2.33a1.32,1.32,0,0,1,.13.32l.13.4c0,.13.06.26.06.39v.39c0,.13-.06.26-.06.39s-.07.27-.13.33-.13.2-.2.33l-.26.26c-.13.06-.2.13-.33.2a1.32,1.32,0,0,1-.32.13c-.13,0-.27.06-.4.06h-.39c-.13,0-.26-.06-.39-.06a.55.55,0,0,1-.33-.13c-.13-.07-.19-.14-.32-.2l-.27-.26c-.06-.13-.13-.2-.19-.33A1.35,1.35,0,0,0,793.17,20.74Zm3.92,11.51-.13-.33c-.07-.13-.07-.26-.13-.32s-.07-.26-.07-.4a.77.77,0,0,1,.07-.39.45.45,0,0,1,.13-.32,3.62,3.62,0,0,1,.2-.33.47.47,0,0,1,.26-.26l.26-.26c.13-.07.2-.14.33-.2s.26-.07.32-.13.26-.07.39-.07a.79.79,0,0,1,.4.07.45.45,0,0,1,.32.13c.13.06.2.13.33.2a.47.47,0,0,1,.26.26l.26.26c.07.13.13.19.2.33l.13.32c.07.13.07.26.13.33s.07.26.07.39a.77.77,0,0,1-.07.39.48.48,0,0,1-.13.33c-.06.13-.13.2-.2.33a.51.51,0,0,1-.26.26l-.26.26c-.13.07-.19.13-.33.2s-.26.06-.32.13-.26.06-.39.06a.91.91,0,0,1-.4-.06.5.5,0,0,1-.32-.13l-.33-.2a.47.47,0,0,1-.26-.26l-.26-.26A1.59,1.59,0,0,1,797.09,32.25Zm5.36,11h0l-.19-.33c-.07-.13-.14-.2-.14-.33s-.06-.26-.06-.39V41.8a1,1,0,0,1,.06-.4c.07-.13.07-.26.14-.32s.13-.2.19-.33a.51.51,0,0,1,.26-.26,1.59,1.59,0,0,1,.33-.2c.13-.06.2-.13.33-.13a.89.89,0,0,1,.39-.06h.39a.89.89,0,0,1,.39.06c.13.07.27.07.33.13l.33.2a.51.51,0,0,1,.26.26,2.18,2.18,0,0,1,.2.33l.19.26v.06c.07.14.13.2.13.33a.77.77,0,0,1,.07.39v.4a.77.77,0,0,1-.07.39.5.5,0,0,1-.13.33c-.06.13-.13.19-.19.32a.53.53,0,0,1-.27.26c-.13.07-.19.13-.32.2a.65.65,0,0,1-.33.13.77.77,0,0,1-.39.07H804a.79.79,0,0,1-.4-.07.45.45,0,0,1-.32-.13l-.33-.2a.47.47,0,0,1-.26-.26A1.27,1.27,0,0,0,802.45,43.24Zm6.74,10.13-.27-.33c-.06-.13-.13-.19-.19-.32a1,1,0,0,1-.13-.33c0-.07-.07-.26-.07-.39v-.4c0-.13.07-.26.07-.39s.06-.26.13-.32.13-.2.19-.33l.27-.26c.13-.07.19-.13.32-.2a1.21,1.21,0,0,1,.33-.13c.07,0,.26-.07.39-.07h.39c.14,0,.27.07.4.07s.26.07.32.13l.33.2.26.26.26.33c.07.13.13.19.2.32a1,1,0,0,1,.13.33c0,.13.07.26.07.39v.39c0,.13-.07.27-.07.4s-.06.26-.13.32-.13.2-.2.33l-.26.26c-.13.07-.19.13-.32.2a1.52,1.52,0,0,1-.33.13c-.13,0-.26.06-.39.06h-.4c-.13,0-.26-.06-.39-.06s-.26-.07-.33-.13-.19-.13-.32-.2A.55.55,0,0,0,809.19,53.37Zm8,9.15-.26-.26-.26-.26c-.07-.13-.14-.2-.2-.33s-.07-.26-.13-.32-.07-.26-.07-.4a.77.77,0,0,1,.07-.39.45.45,0,0,1,.13-.32,3.62,3.62,0,0,1,.2-.33.47.47,0,0,1,.26-.26l.26-.26a3.62,3.62,0,0,1,.33-.2c.13-.07.26-.07.32-.13s.26-.07.39-.07a.79.79,0,0,1,.4.07.45.45,0,0,1,.32.13c.13.06.2.13.33.2a.47.47,0,0,1,.26.26l.26.26.27.26c.06.13.13.2.19.33s.07.26.13.32.07.27.07.4a.77.77,0,0,1-.07.39.5.5,0,0,1-.13.33c-.06.13-.13.19-.19.32a.53.53,0,0,1-.27.26l-.26.27c-.13.06-.19.13-.32.19s-.27.07-.33.13-.26.07-.39.07a.81.81,0,0,1-.4-.07.45.45,0,0,1-.32-.13c-.13-.06-.2-.13-.33-.19A.93.93,0,0,1,817.23,62.52Zm9.15,8-.32-.27a.49.49,0,0,1-.27-.26,1.28,1.28,0,0,1-.19-.32.65.65,0,0,1-.13-.33.77.77,0,0,1-.07-.39v-.4a.77.77,0,0,1,.07-.39c.06-.13.06-.26.13-.32s.13-.2.19-.33a.49.49,0,0,1,.27-.26,1.27,1.27,0,0,1,.32-.2c.13-.06.2-.13.33-.13a.77.77,0,0,1,.39-.07h.39a.81.81,0,0,1,.4.07c.13.07.26.07.32.13l.33.2.33.26a.51.51,0,0,1,.26.26,1.6,1.6,0,0,1,.19.33c.07.13.14.19.14.32a.93.93,0,0,1,.06.4v.39a.89.89,0,0,1-.06.39c-.07.13-.07.26-.14.33s-.13.19-.19.32a.53.53,0,0,1-.26.27c-.13.06-.2.13-.33.19a.65.65,0,0,1-.33.13.77.77,0,0,1-.39.07h-.39a.77.77,0,0,1-.39-.07c-.13-.06-.27-.06-.33-.13S826.51,70.63,826.38,70.57Zm10.14,6.73-.33-.2c-.13-.06-.2-.13-.33-.19l-.26-.26c-.06-.13-.13-.2-.19-.33a1,1,0,0,1-.14-.33c0-.13-.06-.26-.06-.39v-.39c0-.13.06-.26.06-.39s.07-.27.14-.33.13-.2.19-.33l.26-.26c.13-.06.2-.13.33-.2a1.21,1.21,0,0,1,.33-.13c.06,0,.26-.06.39-.06h.39c.13,0,.26.06.39.06s.27.07.33.13l.33.2c.13.07.19.13.32.2l.27.26c.06.13.13.19.19.33a1,1,0,0,1,.13.32c0,.13.07.26.07.39v.4c0,.13-.07.26-.07.39s-.06.26-.13.33-.13.19-.19.32l-.27.26c-.13.07-.19.14-.32.2a1,1,0,0,1-.33.13c-.13,0-.26.07-.39.07h-.39c-.13,0-.27-.07-.4-.07S836.65,77.37,836.52,77.3Zm10.92,5.43-.33-.13-.33-.2a.51.51,0,0,1-.26-.26l-.26-.26c-.07-.13-.13-.2-.2-.33s-.06-.26-.13-.33-.06-.26-.06-.39a.89.89,0,0,1,.06-.39.55.55,0,0,1,.13-.33c.07-.13.13-.19.2-.32a.49.49,0,0,1,.26-.27l.26-.26c.13-.06.2-.13.33-.19s.26-.07.33-.13.26-.07.39-.07a.77.77,0,0,1,.39.07c.13.06.26.06.33.13l.32.13c.13.06.2.13.33.19a.51.51,0,0,1,.26.26l.26.27c.07.13.14.19.2.32s.07.26.13.33.07.26.07.39a.77.77,0,0,1-.07.39.46.46,0,0,1-.13.33c-.06.13-.13.2-.2.33a.51.51,0,0,1-.26.26l-.26.26-.33.2c-.13.06-.26.06-.32.13s-.26.06-.39.06a.91.91,0,0,1-.4-.06C847.63,82.79,847.57,82.79,847.44,82.73Zm11.5,3.92-.39-.13c-.13-.07-.26-.07-.33-.13s-.19-.13-.32-.2a.47.47,0,0,1-.26-.26,1.1,1.1,0,0,1-.2-.33c-.07-.13-.13-.19-.13-.32a.79.79,0,0,1-.07-.4v-.39a.77.77,0,0,1,.07-.39c.06-.13.06-.26.13-.33s.13-.19.2-.32a.47.47,0,0,1,.26-.26,1,1,0,0,1,.32-.2.65.65,0,0,1,.33-.13.77.77,0,0,1,.39-.07h.4a.77.77,0,0,1,.39.07l.39.13c.13.06.26.06.33.13s.19.13.32.2a.53.53,0,0,1,.27.26,1.28,1.28,0,0,1,.19.32.65.65,0,0,1,.13.33.77.77,0,0,1,.07.39V85a.77.77,0,0,1-.07.39c-.06.13-.06.26-.13.32s-.13.2-.19.33a.53.53,0,0,1-.27.26,1.27,1.27,0,0,1-.32.2c-.13.06-.2.13-.33.13a.77.77,0,0,1-.39.07h-.39C859.2,86.72,859.07,86.65,858.94,86.65Zm12,2.35-.39-.06c-.13,0-.27-.07-.4-.07s-.26-.06-.32-.13-.2-.13-.33-.19l-.26-.27c-.07-.13-.13-.19-.2-.32a1.21,1.21,0,0,1-.13-.33c0-.13-.06-.26-.06-.39v-.39c0-.13.06-.27.06-.4s.07-.26.13-.32.13-.2.2-.33l.26-.26.33-.2a1.32,1.32,0,0,1,.32-.13c.13,0,.27-.06.4-.06h.39l.39.06c.13,0,.26.07.39.07s.26.06.33.13.2.13.33.19l.26.27c.06.13.13.19.19.32a1,1,0,0,1,.14.33c0,.13.06.26.06.39v.39c0,.13-.06.27-.06.4s-.07.26-.14.32-.13.2-.19.33l-.26.26a1.59,1.59,0,0,1-.33.2,1.21,1.21,0,0,1-.33.13c-.06,0-.26.06-.39.06A.39.39,0,0,1,870.91,89Zm12.09.85h-.39a.89.89,0,0,1-.39-.06.55.55,0,0,1-.33-.13c-.13-.07-.19-.13-.32-.2a.53.53,0,0,1-.27-.26l-.26-.26c-.06-.13-.13-.2-.19-.33s-.07-.26-.13-.33-.07-.26-.07-.39a.77.77,0,0,1,.07-.39.5.5,0,0,1,.13-.33c.06-.13.13-.19.19-.32a.57.57,0,0,1,.26-.27l.27-.26c.13-.06.19-.13.32-.19s.26-.07.33-.13.26-.07.39-.07H883a.79.79,0,0,1,.4.07.45.45,0,0,1,.32.13c.13.06.2.13.33.19a.51.51,0,0,1,.26.26l.26.27c.07.13.13.19.2.32s.07.26.13.33.07.26.07.39a.77.77,0,0,1-.07.39.46.46,0,0,1-.13.33c-.07.13-.13.2-.2.33a.51.51,0,0,1-.26.26l-.26.26-.33.2c-.13.06-.26.06-.32.13S883.14,89.85,883,89.85Zm12.1-.78-.39.06h-.39a.93.93,0,0,1-.4-.06c-.13-.07-.26-.07-.32-.13l-.33-.2a.47.47,0,0,1-.26-.26,1.36,1.36,0,0,1-.2-.33c-.06-.13-.13-.19-.13-.32a.91.91,0,0,1-.06-.4V87a.89.89,0,0,1,.06-.39c.07-.13.07-.26.13-.33s.13-.19.2-.32a.53.53,0,0,1,.26-.27,1.6,1.6,0,0,1,.33-.19c.13-.07.19-.13.32-.13a.81.81,0,0,1,.4-.07l.39-.06h.39a.89.89,0,0,1,.39.06c.13.07.26.07.33.13l.33.2a.51.51,0,0,1,.26.26,1.6,1.6,0,0,1,.19.33c.07.13.14.19.14.32a1,1,0,0,1,.06.4v.39a.89.89,0,0,1-.06.39c-.07.13-.07.26-.14.33s-.13.19-.19.33a.55.55,0,0,1-.26.26,1.6,1.6,0,0,1-.33.19.65.65,0,0,1-.33.13A.77.77,0,0,0,895.1,89.07Zm12-2.42-.4.13c-.13,0-.26.07-.39.07h-.39c-.13,0-.26-.07-.39-.07s-.26-.06-.33-.13l-.33-.2-.26-.26a1.28,1.28,0,0,1-.19-.32,1.24,1.24,0,0,1-.14-.33c0-.13-.06-.26-.06-.39v-.4c0-.13.06-.26.06-.39s.07-.26.14-.33a1.28,1.28,0,0,0,.19-.32l.26-.26.33-.2a1,1,0,0,1,.33-.13l.39-.13c.13,0,.26-.07.39-.07h.39c.13,0,.27.07.4.07s.26.06.32.13l.33.2.26.26a1.27,1.27,0,0,1,.2.32,1.35,1.35,0,0,1,.13.33c0,.13.06.26.06.39V85c0,.13-.06.26-.06.39s-.07.26-.13.32-.13.2-.2.33l-.26.26-.33.2A.5.5,0,0,1,907.07,86.65Zm11.57-3.86-.33.13c-.13.07-.26.07-.33.13s-.26.07-.39.07a.77.77,0,0,1-.39-.07.5.5,0,0,1-.33-.13c-.13-.06-.19-.13-.32-.19a.57.57,0,0,1-.27-.26L916,82.2c-.06-.13-.13-.19-.19-.32s-.07-.26-.13-.33-.07-.26-.07-.39a.77.77,0,0,1,.07-.39.48.48,0,0,1,.13-.33c.06-.13.13-.2.19-.33a.55.55,0,0,1,.26-.26l.27-.26c.13-.07.19-.13.32-.2l.33-.13c.13-.06.26-.06.33-.13s.26-.06.39-.06a.89.89,0,0,1,.39.06.55.55,0,0,1,.33.13c.13.07.19.13.33.2a.51.51,0,0,1,.26.26l.26.26c.06.13.13.2.19.33s.07.26.14.33.06.26.06.39a.89.89,0,0,1-.06.39c-.07.13-.07.26-.14.33s-.13.19-.19.32a.57.57,0,0,1-.26.27l-.26.26A1.2,1.2,0,0,0,918.64,82.79Zm10.92-5.42-.33.19a.65.65,0,0,1-.33.13c-.13,0-.26.07-.39.07h-.39a.77.77,0,0,1-.39-.07c-.13-.06-.26-.06-.33-.13s-.2-.13-.33-.19a.53.53,0,0,1-.26-.27,1.28,1.28,0,0,1-.19-.32c-.07-.13-.14-.2-.14-.33s-.06-.26-.06-.39v-.39a.93.93,0,0,1,.06-.4c.07-.13.07-.26.14-.32s.13-.2.19-.33a.51.51,0,0,1,.26-.26,1.59,1.59,0,0,1,.33-.2l.33-.19c.13-.07.19-.13.32-.13s.27-.07.4-.07h.39a.77.77,0,0,1,.39.07c.13.06.26.06.33.13s.19.13.32.19a.53.53,0,0,1,.27.26c.06.13.13.2.19.33a.65.65,0,0,1,.13.33.77.77,0,0,1,.07.39v.39a.77.77,0,0,1-.07.39c-.06.14-.06.27-.13.33s-.13.2-.19.33a.53.53,0,0,1-.27.26A1.27,1.27,0,0,0,929.56,77.37Zm10.13-6.74-.32.26c-.14.07-.2.13-.33.2a1.21,1.21,0,0,1-.33.13c-.13,0-.26.07-.39.07h-.39c-.13,0-.26-.07-.4-.07s-.26-.07-.32-.13l-.33-.2-.26-.26c-.07-.13-.13-.19-.2-.33a1.32,1.32,0,0,1-.13-.32c0-.13-.06-.26-.06-.39v-.4c0-.13.06-.26.06-.39s.07-.26.13-.33.13-.19.2-.32.2-.2.26-.26l.33-.27c.13-.06.19-.13.32-.19a1.13,1.13,0,0,1,.33-.13c.13,0,.26-.07.39-.07h.4c.13,0,.26.07.39.07s.26.06.33.13.19.13.32.19l.26.27c.07.13.13.19.2.32a1,1,0,0,1,.13.33c0,.13.07.26.07.39v.39c0,.13-.07.27-.07.4s-.06.26-.13.32a1.59,1.59,0,0,0-.2.33A.8.8,0,0,1,939.69,70.63Zm9.16-8-.27.26-.26.26c-.13.07-.19.13-.32.2s-.27.06-.33.13-.26.06-.39.06a1,1,0,0,1-.4-.06.5.5,0,0,1-.32-.13l-.33-.2a.47.47,0,0,1-.26-.26l-.26-.26c-.07-.13-.13-.2-.2-.33s-.06-.26-.13-.32-.06-.27-.06-.4a.89.89,0,0,1,.06-.39.55.55,0,0,1,.13-.33c.07-.13.13-.19.2-.32a.47.47,0,0,1,.26-.26l.26-.27.26-.26a1.6,1.6,0,0,1,.33-.19c.13-.07.26-.07.33-.13s.26-.07.39-.07a.77.77,0,0,1,.39.07.5.5,0,0,1,.33.13c.13.06.19.13.32.19a.53.53,0,0,1,.27.26l.26.27c.06.13.13.19.19.32s.07.26.13.33.07.26.07.39a.77.77,0,0,1-.07.39.48.48,0,0,1-.13.33c-.06.13-.13.2-.19.33A.8.8,0,0,0,948.85,62.59Zm8-9.15-.26.32a.51.51,0,0,1-.26.26,1.59,1.59,0,0,1-.33.2.65.65,0,0,1-.33.13.77.77,0,0,1-.39.07h-.39a.83.83,0,0,1-.4-.07c-.13-.06-.26-.06-.32-.13l-.33-.2a.47.47,0,0,1-.26-.26,1.27,1.27,0,0,1-.2-.32c-.06-.14-.13-.2-.13-.33a.89.89,0,0,1-.06-.39v-.4a.89.89,0,0,1,.06-.39c.07-.13.07-.26.13-.33s.13-.19.2-.32l.26-.33a.51.51,0,0,1,.26-.26,1.59,1.59,0,0,1,.33-.2c.13-.06.2-.13.33-.13a.89.89,0,0,1,.39-.06h.39a.89.89,0,0,1,.39.06c.13.07.26.07.33.13l.33.2a.51.51,0,0,1,.26.26,1.6,1.6,0,0,1,.19.33c.07.13.14.19.14.32a1,1,0,0,1,.06.4v.39a.89.89,0,0,1-.06.39.5.5,0,0,1-.14.33C957,53.17,957,53.37,956.89,53.44Zm6.73-10.14-.19.33c-.07.13-.13.19-.2.32l-.26.27c-.13.06-.2.13-.33.19a1,1,0,0,1-.32.13c-.14,0-.27.07-.4.07h-.39c-.13,0-.26-.07-.39-.07a.5.5,0,0,1-.33-.13,1.2,1.2,0,0,0-.33-.19l-.26-.27c-.06-.13-.13-.19-.19-.32a1,1,0,0,1-.13-.33c0-.13-.07-.26-.07-.39v-.39c0-.13.07-.27.07-.4s.06-.26.13-.32l.19-.33c.07-.13.13-.2.2-.33l.26-.26c.13-.06.2-.13.33-.19a1.09,1.09,0,0,1,.32-.14c.14,0,.27-.06.4-.06h.39c.13,0,.26.06.39.06s.26.07.33.14.19.13.33.19l.26.26c.06.13.13.2.19.33a1,1,0,0,1,.13.33c0,.13.07.26.07.39v.39c0,.13-.07.26-.07.39A.48.48,0,0,1,963.62,43.3ZM969,32.38l-.13.33c-.06.13-.13.19-.19.33a.55.55,0,0,1-.26.26l-.27.26c-.13.06-.19.13-.32.19s-.26.07-.33.14-.26.06-.39.06a.89.89,0,0,1-.39-.06.48.48,0,0,1-.33-.14c-.13-.06-.2-.13-.33-.19a.55.55,0,0,1-.26-.26l-.26-.26c-.07-.14-.13-.2-.2-.33s-.06-.26-.13-.33-.06-.26-.06-.39a.89.89,0,0,1,.06-.39.55.55,0,0,1,.13-.33l.13-.33c.07-.13.13-.19.2-.32a.53.53,0,0,1,.26-.27l.26-.26c.13-.06.2-.13.33-.19s.26-.07.33-.13.26-.07.39-.07a.77.77,0,0,1,.39.07.5.5,0,0,1,.33.13c.13.06.19.13.32.19a.53.53,0,0,1,.27.26c.06.14.19.2.26.27s.13.19.19.32.07.26.13.33.07.26.07.39a.77.77,0,0,1-.07.39A.42.42,0,0,1,969,32.38Zm3.93-11.51-.13.4c-.07.13-.07.26-.13.32s-.13.2-.2.33a.51.51,0,0,1-.26.26,1.59,1.59,0,0,1-.33.2c-.13.06-.2.13-.33.13a.89.89,0,0,1-.39.06h-.39a.89.89,0,0,1-.39-.06c-.13-.07-.26-.07-.33-.13l-.33-.2a.51.51,0,0,1-.26-.26c-.06-.13-.13-.2-.19-.33s-.13-.19-.13-.32a.79.79,0,0,1-.07-.4v-.39a.77.77,0,0,1,.07-.39l.13-.39a.5.5,0,0,1,.13-.33c.06-.13.13-.2.19-.33a.55.55,0,0,1,.26-.26,1.6,1.6,0,0,1,.33-.19.65.65,0,0,1,.33-.13c.13,0,.26-.07.39-.07h.39a.77.77,0,0,1,.39.07c.14.06.27.06.33.13s.2.13.33.19a.51.51,0,0,1,.26.26,1.59,1.59,0,0,1,.2.33c.06.13.13.2.13.33a.89.89,0,0,1,.06.39v.39A.89.89,0,0,1,972.91,20.87Zm2.42-12-.07.39c0,.13-.06.26-.06.39s-.07.27-.13.33-.14.2-.2.33l-.26.26c-.13.06-.2.13-.33.2a1.21,1.21,0,0,1-.33.13c-.13,0-.26.06-.39.06h-.39c-.13,0-.26-.06-.39-.06s-.26-.07-.33-.13-.2-.14-.33-.2-.19-.2-.26-.26-.13-.2-.19-.33a1,1,0,0,1-.14-.33c0-.13-.06-.26-.06-.39V8.91l.06-.39c0-.13.07-.26.07-.4s.07-.26.13-.32.13-.2.2-.33l.26-.26c.13-.07.19-.13.33-.2a1.32,1.32,0,0,1,.32-.13c.13,0,.26-.06.39-.06h.4c.13,0,.26.06.39.06s.26.07.33.13.19.13.32.2l.26.26c.07.13.13.2.2.33a1,1,0,0,1,.13.32c0,.14.07.27.07.4Z"/><path class="cls-10" d="M105.3,257.84a29,29,0,1,1-29-29A29,29,0,0,1,105.3,257.84Z"/><path class="cls-7" d="M829,213.55a37,37,0,1,1-38.09,35.87A37.07,37.07,0,0,1,829,213.55Zm-2.46,79.6a42.67,42.67,0,1,0-41.36-44A42.76,42.76,0,0,0,826.5,293.15Z"/><circle class="cls-9" cx="808.57" cy="216.43" r="15.56" transform="translate(207.56 799.02) rotate(-59.09)"/><circle class="cls-4" cx="104.66" r="27.46"/></g></svg>