<?xml version="1.0" encoding="utf-8"?>
<!-- Generator: Adobe Illustrator 25.2.2, SVG Export Plug-In . SVG Version: 6.00 Build 0)  -->
<svg version="1.1" id="Layer_1" xmlns="http://www.w3.org/2000/svg" xmlns:xlink="http://www.w3.org/1999/xlink" x="0px" y="0px"
	 viewBox="0 0 850 264" style="enable-background:new 0 0 850 264;" xml:space="preserve">
<style type="text/css">
	.st0{clip-path:url(#SVGID_2_);}
	.st1{opacity:0.92;fill:#FDFCF9;enable-background:new    ;}
	.st2{fill:#CF202F;}
	.st3{fill:none;stroke:#AA1A27;stroke-width:23.97;stroke-miterlimit:10;}
	.st4{fill:#F0AD4E;}
	.st5{fill:#CBDB2C;}
	.st6{fill:#FFC62F;}
	.st7{fill:#5BCBF5;}
	.st8{fill:none;stroke:#5BCBF5;stroke-width:13.08;stroke-miterlimit:10;}
</style>
<g>
	<g>
		<g>
			<g>
				<defs>
					<rect id="SVGID_1_" width="850" height="264"/>
				</defs>
				<clipPath id="SVGID_2_">
					<use xlink:href="#SVGID_1_"  style="overflow:visible;"/>
				</clipPath>
				<g class="st0">
					<polygon class="st1" points="-416,66 1225,19 1225,263 -358,196 					"/>
					<circle class="st2" cx="-6.2" cy="349.6" r="121.9"/>
					<path class="st3" d="M549.1,16.4c-16.3,0-29.5-13.2-29.5-29.5s13.2-29.5,29.5-29.5s29.5,13.2,29.5,29.5S565.4,16.4,549.1,16.4z
						"/>
					<path class="st4" d="M17.9-75.1C-30.2-75-69.1-36-69.1,12s39,87,87,87.1C66,99,105,60.1,105,12S66-75.1,17.9-75.1z"/>
					<circle class="st5" cx="327.8" cy="236.1" r="43.4"/>
					<circle class="st6" cx="883.1" cy="-3.2" r="79.3"/>
					<path class="st7" d="M976.1-3.2v0.4c0,0.1,0,0.3-0.1,0.4c0,0.1-0.1,0.2-0.1,0.3c-0.1,0.1-0.1,0.2-0.2,0.3
						c-0.1,0.1-0.1,0.2-0.3,0.3l-0.3,0.3c-0.1,0.1-0.2,0.1-0.3,0.2s-0.3,0.1-0.3,0.1s-0.3,0.1-0.4,0.1c-0.1,0-0.3,0-0.4-0.1
						c-0.1,0-0.2,0-0.3-0.1s-0.2-0.1-0.3-0.2s-0.2-0.1-0.3-0.3l-0.3-0.3c-0.1-0.1-0.1-0.2-0.2-0.3c-0.1-0.1-0.1-0.3-0.1-0.3
						s-0.1-0.3-0.1-0.4v-0.4c0-0.1,0-0.3,0.1-0.4c0-0.1,0.1-0.2,0.1-0.3c0.1-0.1,0.1-0.2,0.2-0.3c0.1-0.1,0.1-0.2,0.3-0.3l0.3-0.3
						c0.1-0.1,0.2-0.1,0.3-0.2s0.3-0.1,0.3-0.1s0.3-0.1,0.4-0.1c0.1,0,0.3,0,0.4,0.1c0.1,0,0.2,0,0.3,0.1s0.2,0.1,0.3,0.2
						s0.2,0.2,0.3,0.3l0.3,0.3c0.1,0.1,0.1,0.2,0.2,0.3s0.1,0.3,0.1,0.3C976.1-3.5,976.1-3.3,976.1-3.2z M975.3-15v0.8
						c0,0.1,0,0.3-0.1,0.4c-0.1,0.1-0.1,0.3-0.1,0.3s-0.1,0.2-0.2,0.3c0,0.1-0.1,0.2-0.3,0.3c-0.1,0.1-0.2,0.1-0.3,0.2
						s-0.2,0.1-0.3,0.1s-0.3,0.1-0.4,0.1h-0.4c-0.1,0-0.3,0-0.4-0.1c-0.1-0.1-0.3-0.1-0.3-0.1s-0.2-0.1-0.3-0.2
						c-0.1,0-0.2-0.1-0.3-0.3c-0.1-0.1-0.1-0.2-0.2-0.3c-0.1-0.1-0.1-0.2-0.1-0.3c-0.1-0.1-0.1-0.3-0.1-0.4V-15c0-0.1,0-0.3,0.1-0.4
						c0.1-0.1,0.1-0.3,0.1-0.3s0.1-0.2,0.2-0.3c0-0.1,0.1-0.2,0.3-0.3c0.1-0.1,0.2-0.2,0.3-0.2c0.1-0.1,0.2-0.1,0.3-0.1
						c0.1-0.1,0.3-0.1,0.4-0.1h0.4c0.1,0,0.3,0,0.4,0.1c0.1,0.1,0.3,0.1,0.3,0.1s0.2,0.1,0.3,0.2c0.1,0,0.2,0.1,0.3,0.3
						c0.1,0.1,0.1,0.2,0.2,0.3c0.1,0.1,0.1,0.2,0.1,0.3S975.3-15.1,975.3-15z M973-27l0.1,0.4c0,0.1,0.1,0.3,0.1,0.4v0.4
						c0,0.1-0.1,0.3-0.1,0.4s-0.1,0.3-0.1,0.3s-0.1,0.2-0.2,0.3s-0.2,0.2-0.3,0.3s-0.2,0.1-0.3,0.2s-0.2,0.1-0.3,0.1
						s-0.3,0.1-0.4,0.1h-0.4c-0.1,0-0.3-0.1-0.4-0.1s-0.3-0.1-0.3-0.1s-0.2-0.1-0.3-0.2l-0.3-0.3c-0.1-0.1-0.1-0.2-0.2-0.3
						c-0.1-0.1-0.1-0.2-0.1-0.3l-0.1-0.4c0-0.1-0.1-0.3-0.1-0.4v-0.4c0-0.1,0.1-0.3,0.1-0.4s0.1-0.3,0.1-0.3s0.1-0.2,0.2-0.3
						l0.3-0.3l0.3-0.2c0.1-0.1,0.2-0.1,0.3-0.1s0.3-0.1,0.4-0.1h0.4c0.1,0,0.3,0.1,0.4,0.1s0.3,0.1,0.3,0.1s0.2,0.1,0.3,0.2l0.3,0.3
						c0.1,0.1,0.1,0.2,0.2,0.3S973-27.1,973-27z M969.2-38.6l0.1,0.3c0.1,0.1,0.1,0.3,0.1,0.3s0.1,0.3,0.1,0.4c0,0.1,0,0.3-0.1,0.4
						c0,0.1-0.1,0.2-0.1,0.3c-0.1,0.1-0.1,0.2-0.2,0.3c-0.1,0.1-0.1,0.2-0.3,0.3l-0.3,0.3c-0.1,0.1-0.2,0.1-0.3,0.2
						c-0.1,0.1-0.3,0.1-0.3,0.1s-0.3,0.1-0.4,0.1c-0.1,0-0.3,0-0.4-0.1c-0.1,0-0.2,0-0.3-0.1s-0.2-0.1-0.3-0.2
						c-0.1-0.1-0.2-0.2-0.3-0.3s-0.2-0.2-0.3-0.3s-0.1-0.2-0.2-0.3l-0.1-0.3c-0.1-0.1-0.1-0.3-0.1-0.3s-0.1-0.3-0.1-0.4
						c0-0.1,0-0.3,0.1-0.4c0-0.1,0.1-0.2,0.1-0.3c0.1-0.1,0.1-0.2,0.2-0.3c0.1-0.1,0.1-0.2,0.3-0.3l0.3-0.3c0.1-0.1,0.2-0.1,0.3-0.2
						s0.3-0.1,0.3-0.1s0.3-0.1,0.4-0.1c0.1,0,0.3,0,0.4,0.1c0.1,0,0.2,0.1,0.3,0.1c0.1,0.1,0.2,0.2,0.3,0.2c0.1,0.1,0.2,0.1,0.3,0.3
						c0.1,0.1,0.2,0.2,0.3,0.3C969-38.8,969-38.7,969.2-38.6L969.2-38.6z M963.8-49.5l0.2,0.3c0.1,0.1,0.1,0.2,0.1,0.3
						c0.1,0.1,0.1,0.3,0.1,0.4v0.4c0,0.1,0,0.3-0.1,0.4c-0.1,0.1-0.1,0.3-0.1,0.3s-0.1,0.2-0.2,0.3c-0.1,0.1-0.1,0.2-0.3,0.3
						c-0.1,0.1-0.2,0.1-0.3,0.2c-0.1,0.1-0.2,0.1-0.3,0.1c-0.1,0.1-0.3,0.1-0.4,0.1h-0.4c-0.1,0-0.3,0-0.4-0.1
						c-0.1-0.1-0.3-0.1-0.3-0.1s-0.2-0.1-0.3-0.2c-0.1-0.1-0.2-0.1-0.3-0.3c-0.1-0.1-0.1-0.2-0.2-0.3l-0.2-0.3
						c-0.1-0.1-0.1-0.2-0.1-0.3s-0.1-0.3-0.1-0.4v-0.4c0-0.1,0-0.3,0.1-0.4c0.1-0.1,0.1-0.3,0.1-0.3s0.1-0.2,0.2-0.3
						c0.1-0.1,0.1-0.2,0.3-0.3c0.1-0.1,0.2-0.1,0.3-0.2c0.1-0.1,0.2-0.1,0.3-0.1s0.3-0.1,0.4-0.1h0.4c0.1,0,0.3,0,0.4,0.1
						c0.1,0.1,0.3,0.1,0.3,0.1s0.2,0.1,0.3,0.2c0.1,0.1,0.2,0.1,0.3,0.3C963.6-49.7,963.7-49.6,963.8-49.5L963.8-49.5z M957-59.6
						l0.3,0.3c0.1,0.1,0.1,0.2,0.2,0.3c0.1,0.1,0.1,0.2,0.1,0.3s0.1,0.3,0.1,0.4v0.4c0,0.1-0.1,0.3-0.1,0.4s-0.1,0.3-0.1,0.3
						s-0.1,0.2-0.2,0.3l-0.3,0.3l-0.3,0.2c-0.1,0.1-0.2,0.1-0.3,0.1s-0.3,0.1-0.4,0.1h-0.4c-0.1,0-0.3-0.1-0.4-0.1s-0.3-0.1-0.3-0.1
						s-0.2-0.1-0.3-0.2l-0.3-0.3l-0.3-0.3c-0.1-0.1-0.1-0.2-0.2-0.3c-0.1-0.1-0.1-0.2-0.1-0.3s-0.1-0.3-0.1-0.4v-0.4
						c0-0.1,0.1-0.3,0.1-0.4s0.1-0.3,0.1-0.3s0.1-0.2,0.2-0.3l0.3-0.3c0.1-0.1,0.2-0.1,0.3-0.2c0.1-0.1,0.2-0.1,0.3-0.1
						s0.3-0.1,0.4-0.1h0.4c0.1,0,0.3,0.1,0.4,0.1s0.3,0.1,0.3,0.1s0.2,0.1,0.3,0.2C956.9-59.8,956.9-59.7,957-59.6z M949-68.8
						l0.3,0.3l0.3,0.3c0.1,0.1,0.1,0.2,0.2,0.3s0.1,0.3,0.1,0.3s0.1,0.3,0.1,0.4s0,0.3-0.1,0.4c0,0.1,0,0.2-0.1,0.3
						c-0.1,0.1-0.1,0.2-0.2,0.3c-0.1,0.1-0.2,0.2-0.3,0.3l-0.3,0.3c-0.1,0.1-0.2,0.1-0.3,0.2s-0.3,0.1-0.3,0.1s-0.3,0.1-0.4,0.1
						c-0.1,0-0.3,0-0.4-0.1c-0.1,0-0.2-0.1-0.3-0.1l-0.3-0.2c-0.1,0-0.2-0.1-0.3-0.3l-0.3-0.3l-0.3-0.3c-0.1-0.1-0.1-0.2-0.2-0.3
						s-0.1-0.3-0.1-0.3s-0.1-0.3-0.1-0.4s0-0.3,0.1-0.4c0-0.1,0-0.2,0.1-0.3c0.1-0.1,0.1-0.2,0.2-0.3c0.1-0.1,0.1-0.2,0.3-0.3
						l0.3-0.3c0.1-0.1,0.2-0.1,0.3-0.2s0.3-0.1,0.3-0.1s0.3-0.1,0.4-0.1c0.1,0,0.3,0,0.4,0.1c0.1,0,0.2,0.1,0.3,0.1
						c0.1,0.1,0.2,0.1,0.3,0.2L949-68.8z M939.8-76.9l0.3,0.3c0.1,0.1,0.2,0.1,0.3,0.3c0.1,0.1,0.1,0.2,0.2,0.3
						c0.1,0.1,0.1,0.2,0.1,0.3c0.1,0.1,0.1,0.3,0.1,0.4v0.4c0,0.1,0,0.3-0.1,0.4s-0.1,0.3-0.1,0.3s-0.1,0.2-0.2,0.3
						c-0.1,0.1-0.1,0.2-0.3,0.3c-0.1,0.1-0.2,0.2-0.3,0.2c-0.1,0.1-0.2,0.1-0.3,0.1c-0.1,0.1-0.3,0.1-0.4,0.1h-0.4
						c-0.1,0-0.3,0-0.4-0.1c-0.1-0.1-0.3-0.1-0.3-0.1s-0.2-0.1-0.3-0.2l-0.3-0.3c-0.1-0.1-0.2-0.1-0.3-0.3c-0.1-0.1-0.1-0.2-0.2-0.3
						c-0.1-0.1-0.1-0.2-0.1-0.3c-0.1-0.1-0.1-0.3-0.1-0.4v-0.4c0-0.1,0-0.3,0.1-0.4s0.1-0.3,0.1-0.3s0.1-0.2,0.2-0.3
						c0.1-0.1,0.1-0.2,0.3-0.3c0.1-0.1,0.2-0.1,0.3-0.2s0.2-0.1,0.3-0.1c0.1-0.1,0.3-0.1,0.4-0.1h0.4c0.1,0,0.3,0,0.4,0.1
						c0.1,0.1,0.3,0.1,0.3,0.1L939.8-76.9L939.8-76.9z M929.7-83.7L929.7-83.7l0.3,0.2l0.3,0.2l0.3,0.3c0.1,0.1,0.1,0.2,0.2,0.3
						c0.1,0.1,0.1,0.2,0.1,0.3c0,0.1,0.1,0.3,0.1,0.4v0.4c0,0.1-0.1,0.3-0.1,0.4s-0.1,0.3-0.1,0.3s-0.1,0.2-0.2,0.3l-0.3,0.3
						c-0.1,0.1-0.2,0.1-0.3,0.2s-0.2,0.1-0.3,0.1s-0.3,0.1-0.4,0.1H929c-0.1,0-0.3-0.1-0.4-0.1s-0.3-0.1-0.3-0.1l-0.3-0.2l0,0
						c-0.1-0.1-0.2-0.1-0.3-0.2l-0.3-0.3c-0.1-0.1-0.1-0.2-0.2-0.3c-0.1-0.1-0.1-0.2-0.1-0.3c0-0.1-0.1-0.3-0.1-0.4v-0.4
						c0-0.1,0.1-0.3,0.1-0.4s0.1-0.3,0.1-0.3c0.1-0.1,0.1-0.2,0.2-0.3l0.3-0.3c0.1-0.1,0.2-0.1,0.3-0.2s0.2-0.1,0.3-0.1
						s0.3-0.1,0.4-0.1h0.3c0.1,0,0.3,0.1,0.4,0.1C929.5-83.7,929.6-83.7,929.7-83.7L929.7-83.7z M918.9-89l0.3,0.1
						c0.1,0.1,0.2,0.1,0.3,0.2s0.2,0.1,0.3,0.3l0.3,0.3c0.1,0.1,0.1,0.2,0.2,0.3s0.1,0.3,0.1,0.3s0.1,0.3,0.1,0.4s0,0.3-0.1,0.4
						c0,0.1,0,0.2-0.1,0.3c-0.1,0.1-0.1,0.2-0.2,0.3c-0.1,0.1-0.1,0.2-0.3,0.3l-0.3,0.3c-0.1,0.1-0.2,0.1-0.3,0.2s-0.3,0.1-0.3,0.1
						s-0.3,0.1-0.4,0.1c-0.1,0-0.3,0-0.4-0.1c-0.1,0-0.2,0-0.3-0.1l-0.3-0.1c-0.1-0.1-0.2-0.1-0.3-0.2s-0.2-0.1-0.3-0.3l-0.3-0.3
						c-0.1-0.1-0.1-0.2-0.2-0.3c-0.1-0.1-0.1-0.3-0.1-0.3s-0.1-0.3-0.1-0.4s0-0.3,0.1-0.4c0-0.1,0.1-0.2,0.1-0.3
						c0.1-0.1,0.1-0.2,0.2-0.3c0.1-0.1,0.1-0.2,0.3-0.3l0.3-0.3c0.1-0.1,0.2-0.1,0.3-0.2s0.3-0.1,0.3-0.1s0.3-0.1,0.4-0.1
						c0.1,0,0.3,0,0.4,0.1C918.6-89.1,918.8-89.1,918.9-89z M907.3-93l0.4,0.1c0.1,0.1,0.3,0.1,0.3,0.1s0.2,0.1,0.3,0.2
						s0.2,0.1,0.3,0.3c0.1,0.1,0.1,0.2,0.2,0.3c0.1,0.1,0.1,0.2,0.1,0.3c0.1,0.1,0.1,0.3,0.1,0.4v0.4c0,0.1,0,0.3-0.1,0.4
						s-0.1,0.3-0.1,0.3s-0.1,0.2-0.2,0.3c-0.1,0.1-0.2,0.2-0.3,0.3c-0.1,0.1-0.2,0.1-0.3,0.2s-0.2,0.1-0.3,0.1
						c-0.1,0.1-0.3,0.1-0.4,0.1h-0.4c-0.1,0-0.3,0-0.4-0.1l-0.4-0.1c-0.1-0.1-0.3-0.1-0.3-0.1s-0.2-0.1-0.3-0.2s-0.2-0.2-0.3-0.3
						c-0.1-0.1-0.2-0.2-0.2-0.3c-0.1-0.1-0.1-0.2-0.1-0.3c-0.1-0.1-0.1-0.3-0.1-0.4v-0.4c0-0.1,0-0.3,0.1-0.4s0.1-0.3,0.1-0.3
						s0.1-0.2,0.2-0.3c0-0.1,0.1-0.2,0.3-0.3c0.1-0.1,0.2-0.1,0.3-0.2s0.2-0.1,0.3-0.1s0.3-0.1,0.4-0.1h0.4
						C907.1-93,907.3-93,907.3-93z M895.4-95.4l0.4,0.1c0.1,0,0.3,0.1,0.4,0.1c0.1,0,0.2,0.1,0.3,0.1l0.3,0.2l0.3,0.3
						c0.1,0.1,0.1,0.2,0.2,0.3c0.1,0.1,0.1,0.2,0.1,0.3c0,0.1,0.1,0.3,0.1,0.4v0.4c0,0.1-0.1,0.3-0.1,0.4s-0.1,0.3-0.1,0.3
						s-0.1,0.2-0.2,0.3l-0.3,0.3c-0.1,0.1-0.2,0.1-0.3,0.2s-0.2,0.1-0.3,0.1s-0.3,0.1-0.4,0.1h-0.4l-0.4-0.1c-0.1,0-0.3-0.1-0.4-0.1
						s-0.3-0.1-0.3-0.1L894-92l-0.3-0.3c-0.1-0.1-0.1-0.2-0.2-0.3c-0.1-0.1-0.1-0.2-0.1-0.3c0-0.1-0.1-0.3-0.1-0.4v-0.4
						c0-0.1,0.1-0.3,0.1-0.4s0.1-0.3,0.1-0.3s0.1-0.2,0.2-0.3L894-95c0.1-0.1,0.2-0.1,0.3-0.2s0.2-0.1,0.3-0.1s0.3-0.1,0.4-0.1
						S895.3-95.4,895.4-95.4L895.4-95.4z M883.3-96.3h0.4c0.1,0,0.3,0,0.4,0.1c0.1,0,0.2,0,0.3,0.1s0.2,0.1,0.3,0.2s0.2,0.1,0.3,0.3
						l0.3,0.3c0.1,0.1,0.1,0.2,0.2,0.3s0.1,0.3,0.1,0.3s0.1,0.3,0.1,0.4s0,0.3-0.1,0.4c0,0.1,0,0.2-0.1,0.3
						c-0.1,0.1-0.1,0.2-0.2,0.3c0,0.1-0.1,0.2-0.2,0.3l-0.3,0.3c-0.1,0.1-0.2,0.1-0.3,0.2s-0.3,0.1-0.3,0.1s-0.3,0.1-0.4,0.1h-0.4
						c-0.1,0-0.3,0-0.4-0.1c-0.1-0.1-0.3-0.1-0.3-0.1l-0.3-0.2c-0.1,0-0.2-0.1-0.2-0.3l-0.3-0.3c-0.1-0.1-0.1-0.2-0.2-0.3
						s-0.1-0.3-0.1-0.3s-0.1-0.3-0.1-0.4s0-0.3,0.1-0.4c0-0.1,0.1-0.2,0.1-0.3c0.1-0.1,0.1-0.2,0.2-0.3c0-0.1,0.1-0.2,0.3-0.3
						l0.3-0.3c0.1-0.1,0.2-0.1,0.3-0.2s0.3-0.1,0.3-0.1C883-96.2,883.1-96.2,883.3-96.3L883.3-96.3z M871.2-95.5l0.4-0.1h0.4
						c0.1,0,0.3,0,0.4,0.1c0.1,0.1,0.3,0.1,0.3,0.1s0.2,0.1,0.3,0.2s0.2,0.1,0.3,0.3c0.1,0.1,0.1,0.2,0.2,0.3
						c0.1,0.1,0.1,0.2,0.1,0.3c0,0.1,0.1,0.3,0.1,0.4v0.4c0,0.1,0,0.3-0.1,0.4s-0.1,0.3-0.1,0.3s-0.1,0.2-0.2,0.3
						c0,0.1-0.1,0.2-0.3,0.3c-0.1,0.1-0.2,0.1-0.3,0.2s-0.2,0.1-0.3,0.1s-0.3,0.1-0.4,0.1l-0.4,0.1h-0.4c-0.1,0-0.3,0-0.4-0.1
						c-0.1-0.1-0.3-0.1-0.3-0.1s-0.2-0.1-0.3-0.2s-0.2-0.2-0.3-0.3c-0.1-0.1-0.1-0.2-0.2-0.3c-0.1-0.1-0.1-0.2-0.1-0.3
						c-0.1-0.1-0.1-0.3-0.1-0.4v-0.4c0-0.1,0-0.3,0.1-0.4s0.1-0.3,0.1-0.3s0.1-0.2,0.2-0.3c0.1-0.1,0.1-0.2,0.3-0.3
						c0.1-0.1,0.2-0.1,0.3-0.2s0.2-0.1,0.3-0.1S871-95.4,871.2-95.5L871.2-95.5z M859.2-93.1l0.4-0.1c0.1,0,0.3-0.1,0.4-0.1h0.4
						c0.1,0,0.3,0.1,0.4,0.1s0.3,0.1,0.3,0.1l0.3,0.2l0.3,0.3c0.1,0.1,0.1,0.2,0.2,0.3c0.1,0.1,0.1,0.2,0.1,0.3
						c0,0.1,0.1,0.3,0.1,0.4v0.4c0,0.1-0.1,0.3-0.1,0.4s-0.1,0.3-0.1,0.3s-0.1,0.2-0.2,0.3c-0.1,0.1-0.2,0.2-0.3,0.3l-0.3,0.2
						c-0.1,0.1-0.2,0.1-0.3,0.1l-0.4,0.1c-0.1,0-0.3,0.1-0.4,0.1h-0.4c-0.1,0-0.3-0.1-0.4-0.1s-0.3-0.1-0.3-0.1s-0.2-0.1-0.3-0.2
						l-0.3-0.3c-0.1-0.1-0.1-0.2-0.2-0.3c-0.1-0.1-0.1-0.2-0.1-0.3c0-0.1-0.1-0.3-0.1-0.4v-0.4c0-0.1,0.1-0.3,0.1-0.4
						s0.1-0.3,0.1-0.3c0.1-0.1,0.1-0.2,0.2-0.3l0.3-0.3l0.3-0.2C859-93,859.1-93.1,859.2-93.1L859.2-93.1z M847.7-89.3l0.3-0.1
						c0.1-0.1,0.3-0.1,0.3-0.1s0.3-0.1,0.4-0.1c0.1,0,0.3,0,0.4,0.1c0.1,0,0.2,0,0.3,0.1s0.2,0.1,0.3,0.2s0.2,0.1,0.3,0.3l0.3,0.3
						c0.1,0.1,0.1,0.2,0.2,0.3s0.1,0.3,0.1,0.3s0.1,0.3,0.1,0.4s0,0.3-0.1,0.4c0,0.1,0,0.2-0.1,0.3c-0.1,0.1-0.1,0.2-0.2,0.3
						c-0.1,0.1-0.1,0.2-0.3,0.3l-0.3,0.3l-0.3,0.2l-0.3,0.1c-0.1,0.1-0.3,0.1-0.3,0.1s-0.3,0.1-0.4,0.1c-0.1,0-0.3,0-0.4-0.1
						c-0.1,0-0.2-0.1-0.3-0.1l-0.3-0.2c-0.1,0-0.2-0.1-0.3-0.3l-0.3-0.3c-0.1-0.1-0.1-0.2-0.2-0.3s-0.1-0.3-0.1-0.3
						s-0.1-0.3-0.1-0.4s0-0.3,0.1-0.4c0-0.1,0.1-0.2,0.1-0.3c0.1-0.1,0.1-0.2,0.2-0.3c0-0.1,0.1-0.2,0.3-0.3l0.3-0.3
						C847.5-89.1,847.6-89.2,847.7-89.3L847.7-89.3z M836.8-83.9l0.3-0.2c0.1-0.1,0.2-0.1,0.3-0.1s0.3-0.1,0.4-0.1h0.4
						c0.1,0,0.3,0,0.4,0.1c0.1,0.1,0.3,0.1,0.3,0.1s0.2,0.1,0.3,0.2c0.1,0,0.2,0.1,0.3,0.3c0.1,0.1,0.2,0.2,0.2,0.3
						c0.1,0.1,0.1,0.2,0.1,0.3c0.1,0.1,0.1,0.3,0.1,0.4v0.4c0,0.1,0,0.3-0.1,0.4s-0.1,0.3-0.1,0.3s-0.1,0.2-0.2,0.3
						c-0.1,0.1-0.1,0.2-0.3,0.3c-0.1,0.1-0.2,0.1-0.3,0.2l-0.3,0.2c-0.1,0.1-0.2,0.1-0.3,0.1c-0.1,0.1-0.3,0.1-0.4,0.1h-0.4
						c-0.1,0-0.3,0-0.4-0.1c-0.1-0.1-0.3-0.1-0.3-0.1l-0.3-0.2c-0.1-0.1-0.2-0.1-0.3-0.3c-0.1-0.1-0.2-0.2-0.2-0.3
						c-0.1-0.1-0.1-0.2-0.1-0.3c0-0.1-0.1-0.3-0.1-0.4v-0.4c0-0.1,0-0.3,0.1-0.4s0.1-0.3,0.1-0.3s0.1-0.2,0.2-0.3
						c0.1-0.1,0.1-0.2,0.3-0.3C836.5-83.8,836.7-83.8,836.8-83.9L836.8-83.9z M826.6-77.1l0.3-0.3c0.1-0.1,0.2-0.1,0.3-0.2
						s0.2-0.1,0.3-0.1s0.3-0.1,0.4-0.1h0.4c0.1,0,0.3,0.1,0.4,0.1c0.1,0,0.2,0.1,0.3,0.1l0.3,0.2l0.3,0.3c0.1,0.1,0.1,0.2,0.2,0.3
						c0.1,0.1,0.1,0.2,0.1,0.3c0,0.1,0.1,0.3,0.1,0.4v0.4c0,0.1-0.1,0.3-0.1,0.4s-0.1,0.3-0.1,0.3s-0.1,0.2-0.2,0.3
						s-0.2,0.2-0.3,0.3l-0.3,0.3c-0.1,0.1-0.2,0.1-0.3,0.2s-0.2,0.1-0.3,0.1s-0.3,0.1-0.4,0.1h-0.4c-0.1,0-0.3-0.1-0.4-0.1
						s-0.3-0.1-0.3-0.1s-0.2-0.1-0.3-0.2l-0.3-0.3c-0.1-0.1-0.1-0.2-0.2-0.3c0-0.1-0.1-0.2-0.1-0.3c0-0.1-0.1-0.3-0.1-0.4v-0.4
						c0-0.1,0.1-0.3,0.1-0.4s0.1-0.3,0.1-0.3s0.1-0.2,0.2-0.3L826.6-77.1z M817.4-69.1l0.3-0.3l0.3-0.3c0.1-0.1,0.2-0.1,0.3-0.2
						s0.3-0.1,0.3-0.1s0.3-0.1,0.4-0.1c0.1,0,0.3,0,0.4,0.1c0.1,0,0.2,0,0.3,0.1s0.2,0.1,0.3,0.2s0.2,0.1,0.3,0.3l0.3,0.3
						c0.1,0.1,0.1,0.2,0.2,0.3s0.1,0.3,0.1,0.3s0.1,0.3,0.1,0.4s0,0.3-0.1,0.4c0,0.1,0,0.2-0.1,0.3c-0.1,0.1-0.1,0.2-0.2,0.3
						c-0.1,0.1-0.1,0.2-0.3,0.3l-0.3,0.3l-0.3,0.3l-0.3,0.2c-0.1,0.1-0.3,0.1-0.3,0.1s-0.3,0.1-0.4,0.1c-0.1,0-0.3,0-0.4-0.1
						c-0.1,0-0.2,0-0.3-0.1s-0.2-0.1-0.3-0.2s-0.2-0.1-0.3-0.3l-0.3-0.3c-0.1-0.1-0.1-0.2-0.2-0.3s-0.1-0.3-0.1-0.3
						s-0.1-0.3-0.1-0.4s0-0.3,0.1-0.4c0-0.1,0-0.2,0.1-0.3c0.1-0.1,0.1-0.2,0.2-0.3C817.2-68.9,817.3-69,817.4-69.1L817.4-69.1z
						 M809.4-60l0.3-0.3c0.1-0.1,0.2-0.2,0.3-0.3s0.2-0.1,0.3-0.2c0.1-0.1,0.2-0.1,0.3-0.1s0.3-0.1,0.4-0.1h0.4c0.1,0,0.3,0,0.4,0.1
						c0.1,0.1,0.3,0.1,0.3,0.1s0.2,0.1,0.3,0.2c0.1,0.1,0.2,0.1,0.3,0.3c0.1,0.1,0.1,0.2,0.2,0.3c0.1,0.1,0.1,0.2,0.1,0.3
						s0.1,0.3,0.1,0.4v0.4c0,0.1,0,0.3-0.1,0.4c-0.1,0.1-0.1,0.3-0.1,0.3s-0.1,0.2-0.2,0.3l-0.3,0.3c-0.1,0.1-0.1,0.2-0.3,0.3
						c-0.1,0.1-0.2,0.1-0.3,0.2c-0.1,0.1-0.2,0.1-0.3,0.1s-0.3,0.1-0.4,0.1h-0.4c-0.1,0-0.3,0-0.4-0.1c-0.1-0.1-0.3-0.1-0.3-0.1
						c-0.1-0.1-0.2-0.1-0.3-0.2c-0.1-0.1-0.2-0.2-0.3-0.3s-0.1-0.2-0.2-0.3c-0.1-0.1-0.1-0.2-0.1-0.3c-0.1-0.1-0.1-0.3-0.1-0.4V-59
						c0-0.1,0-0.3,0.1-0.4c0.1-0.1,0.1-0.3,0.1-0.3S809.3-59.8,809.4-60L809.4-60z M802.6-49.8l0.2-0.3c0.1-0.1,0.1-0.2,0.2-0.3
						l0.3-0.3c0.1-0.1,0.2-0.1,0.3-0.2c0.1-0.1,0.2-0.1,0.3-0.1s0.3-0.1,0.4-0.1h0.4c0.1,0,0.3,0.1,0.4,0.1s0.3,0.1,0.3,0.1l0.3,0.2
						l0.3,0.3c0.1,0.1,0.1,0.2,0.2,0.3c0.1,0.1,0.1,0.2,0.1,0.3s0.1,0.3,0.1,0.4v0.4c0,0.1-0.1,0.3-0.1,0.4s-0.1,0.3-0.1,0.3L806-48
						c-0.1,0.1-0.1,0.2-0.2,0.3l-0.3,0.3c-0.1,0.1-0.2,0.1-0.3,0.2c-0.1,0.1-0.2,0.1-0.3,0.1s-0.3,0.1-0.4,0.1h-0.4
						c-0.1,0-0.3-0.1-0.4-0.1s-0.3-0.1-0.3-0.1l-0.3-0.2l-0.3-0.3c-0.1-0.1-0.1-0.2-0.2-0.3c-0.1-0.1-0.1-0.2-0.1-0.3
						s-0.1-0.3-0.1-0.4v-0.4c0-0.1,0.1-0.3,0.1-0.4S802.5-49.7,802.6-49.8L802.6-49.8z M797.2-39l0.1-0.3c0.1-0.1,0.1-0.2,0.2-0.3
						c0.1-0.1,0.1-0.2,0.3-0.3l0.3-0.3c0.1-0.1,0.2-0.1,0.3-0.2s0.3-0.1,0.3-0.1c0.1-0.1,0.3-0.1,0.4-0.1c0.1,0,0.3,0,0.4,0.1
						c0.1,0,0.2,0.1,0.3,0.1c0.1,0.1,0.2,0.1,0.3,0.2c0.1,0.1,0.2,0.1,0.3,0.3l0.3,0.3c0.1,0.1,0.1,0.2,0.2,0.3S801-39,801-39
						s0.1,0.3,0.1,0.4c0,0.1,0,0.3-0.1,0.4c0,0.1,0,0.2-0.1,0.3l-0.1,0.3c-0.1,0.1-0.1,0.2-0.2,0.3c-0.1,0.1-0.2,0.2-0.3,0.3
						l-0.3,0.3c-0.1,0.1-0.2,0.1-0.3,0.2s-0.3,0.1-0.3,0.1s-0.3,0.1-0.4,0.1c-0.1,0-0.3,0-0.4-0.1c-0.1,0-0.2,0-0.3-0.1
						s-0.2-0.1-0.3-0.2c-0.1-0.1-0.2-0.1-0.3-0.3l-0.3-0.3c-0.1-0.1-0.1-0.2-0.2-0.3c-0.1-0.1-0.1-0.3-0.1-0.3s-0.1-0.3-0.1-0.4
						c0-0.1,0-0.3,0.1-0.4C797.1-38.8,797.2-38.9,797.2-39L797.2-39z M793.3-27.4l0.1-0.4c0.1-0.1,0.1-0.3,0.1-0.3
						c0.1-0.1,0.1-0.2,0.2-0.3c0.1-0.1,0.1-0.2,0.3-0.3c0.1-0.1,0.2-0.1,0.3-0.2s0.2-0.1,0.3-0.1c0.1-0.1,0.3-0.1,0.4-0.1h0.4
						c0.1,0,0.3,0,0.4,0.1c0.1,0.1,0.3,0.1,0.3,0.1s0.2,0.1,0.3,0.2s0.2,0.1,0.3,0.3c0.1,0.1,0.1,0.2,0.2,0.3
						c0.1,0.1,0.1,0.2,0.1,0.3c0.1,0.1,0.1,0.3,0.1,0.4v0.4c0,0.1,0,0.3-0.1,0.4l-0.1,0.4c-0.1,0.1-0.1,0.3-0.1,0.3
						c-0.1,0.1-0.1,0.2-0.2,0.3c0,0.1-0.1,0.2-0.3,0.3c-0.1,0.1-0.2,0.1-0.3,0.2s-0.2,0.1-0.3,0.1c-0.1,0.1-0.3,0.1-0.4,0.1h-0.4
						c-0.1,0-0.3,0-0.4-0.1c-0.1-0.1-0.3-0.1-0.3-0.1s-0.2-0.1-0.3-0.2s-0.2-0.1-0.3-0.3c-0.1-0.1-0.1-0.2-0.2-0.3
						c-0.1-0.1-0.1-0.2-0.1-0.3c-0.1-0.1-0.1-0.3-0.1-0.4V-27C793.2-27.1,793.2-27.3,793.3-27.4z M790.9-15.4l0.1-0.4
						c0-0.1,0.1-0.3,0.1-0.4s0.1-0.3,0.1-0.3s0.1-0.2,0.2-0.3l0.3-0.3c0.1-0.1,0.2-0.1,0.3-0.2s0.2-0.1,0.3-0.1s0.3-0.1,0.4-0.1h0.4
						c0.1,0,0.3,0.1,0.4,0.1s0.3,0.1,0.3,0.1s0.2,0.1,0.3,0.2l0.3,0.3c0.1,0.1,0.1,0.2,0.2,0.3c0.1,0.1,0.1,0.2,0.1,0.3
						c0,0.1,0.1,0.3,0.1,0.4v0.4l-0.1,0.4c0,0.1-0.1,0.3-0.1,0.4s-0.1,0.3-0.1,0.3s-0.1,0.2-0.2,0.3l-0.3,0.3
						c-0.1,0.1-0.2,0.1-0.3,0.2c-0.1,0.1-0.2,0.1-0.3,0.1s-0.3,0.1-0.4,0.1h-0.4c-0.1,0-0.3-0.1-0.4-0.1s-0.3-0.1-0.3-0.1
						s-0.2-0.1-0.3-0.2l-0.3-0.3c-0.1-0.1-0.1-0.2-0.2-0.3c-0.1-0.1-0.1-0.2-0.1-0.3s-0.1-0.3-0.1-0.4V-15.4z M790.1-3.3v-0.4
						c0-0.1,0-0.3,0.1-0.4s0.1-0.3,0.1-0.3s0.1-0.2,0.2-0.3c0.1-0.1,0.1-0.2,0.3-0.3c0.1-0.1,0.2-0.2,0.3-0.3s0.2-0.1,0.3-0.2
						s0.3-0.1,0.3-0.1s0.3-0.1,0.4-0.1c0.1,0,0.3,0,0.4,0.1c0.1,0,0.2,0.1,0.3,0.1c0.1,0.1,0.2,0.1,0.3,0.2s0.2,0.1,0.3,0.3l0.3,0.3
						c0.1,0.1,0.1,0.2,0.2,0.3s0.1,0.3,0.1,0.3s0.1,0.3,0.1,0.4v0.4c0,0.1,0,0.3-0.1,0.4c0,0.1,0,0.2-0.1,0.3s-0.1,0.2-0.2,0.3
						c-0.1,0.1-0.1,0.2-0.3,0.3l-0.3,0.3c-0.1,0.1-0.2,0.1-0.3,0.2s-0.3,0.1-0.3,0.1s-0.3,0.1-0.4,0.1c-0.1,0-0.3,0-0.4-0.1
						c-0.1,0-0.2-0.1-0.3-0.1L791-1.7c-0.1,0-0.2-0.1-0.3-0.3l-0.3-0.3c-0.1-0.1-0.1-0.2-0.2-0.3s-0.1-0.3-0.1-0.3
						C790.1-3,790.1-3.2,790.1-3.3L790.1-3.3z M790.8,8.8l-0.1-0.4V8c0-0.1,0-0.3,0.1-0.4s0.1-0.3,0.1-0.3s0.1-0.2,0.2-0.3
						c0.1-0.1,0.1-0.2,0.3-0.3l0.3-0.2c0.1-0.1,0.2-0.1,0.3-0.1c0.1-0.1,0.3-0.1,0.4-0.1h0.4c0.1,0,0.3,0,0.4,0.1
						c0.1,0.1,0.3,0.1,0.3,0.1l0.3,0.2c0.1,0.1,0.2,0.1,0.3,0.3c0.1,0.1,0.1,0.2,0.2,0.3c0.1,0.1,0.1,0.2,0.1,0.3
						c0.1,0.1,0.1,0.3,0.1,0.4l0.1,0.4v0.4c0,0.1,0,0.3-0.1,0.4c-0.1,0.1-0.1,0.3-0.1,0.3s-0.1,0.2-0.2,0.3c0,0.1-0.1,0.2-0.3,0.3
						c-0.1,0.1-0.2,0.1-0.3,0.2c-0.1,0.1-0.2,0.1-0.3,0.1c-0.1,0.1-0.3,0.1-0.4,0.1h-0.4c-0.1,0-0.3,0-0.4-0.1
						c-0.1-0.1-0.3-0.1-0.3-0.1s-0.2-0.1-0.3-0.2c-0.1-0.1-0.2-0.1-0.3-0.3c-0.1-0.1-0.2-0.2-0.2-0.3c-0.1-0.1-0.1-0.2-0.1-0.3
						C790.9,9,790.9,8.9,790.8,8.8L790.8,8.8z M793.2,20.8l-0.1-0.4c0-0.1-0.1-0.3-0.1-0.4v-0.4c0-0.1,0.1-0.3,0.1-0.4
						s0.1-0.3,0.1-0.3s0.1-0.2,0.2-0.3l0.3-0.3c0.1-0.1,0.2-0.1,0.3-0.2s0.2-0.1,0.3-0.1s0.3-0.1,0.4-0.1h0.4c0.1,0,0.3,0.1,0.4,0.1
						s0.3,0.1,0.3,0.1c0.1,0.1,0.2,0.1,0.3,0.2l0.3,0.3c0.1,0.1,0.1,0.2,0.2,0.3c0.1,0.1,0.1,0.2,0.1,0.3l0.1,0.4
						c0,0.1,0.1,0.3,0.1,0.4v0.4c0,0.1-0.1,0.3-0.1,0.4s-0.1,0.3-0.1,0.3s-0.1,0.2-0.2,0.3l-0.3,0.3c-0.1,0.1-0.2,0.1-0.3,0.2
						s-0.2,0.1-0.3,0.1s-0.3,0.1-0.4,0.1h-0.4c-0.1,0-0.3-0.1-0.4-0.1c-0.1,0-0.2-0.1-0.3-0.1c-0.1-0.1-0.2-0.1-0.3-0.2l-0.3-0.3
						c-0.1-0.1-0.1-0.2-0.2-0.3C793.3,21,793.2,20.9,793.2,20.8L793.2,20.8z M797.1,32.3L797,32c-0.1-0.1-0.1-0.3-0.1-0.3
						s-0.1-0.3-0.1-0.4s0-0.3,0.1-0.4c0-0.1,0-0.2,0.1-0.3c0.1-0.1,0.1-0.2,0.2-0.3c0-0.1,0.1-0.2,0.3-0.3l0.3-0.3
						c0.1-0.1,0.2-0.1,0.3-0.2s0.3-0.1,0.3-0.1s0.3-0.1,0.4-0.1c0.1,0,0.3,0,0.4,0.1c0.1,0,0.2,0,0.3,0.1s0.2,0.1,0.3,0.2
						c0.1,0,0.2,0.1,0.3,0.3l0.3,0.3c0.1,0.1,0.1,0.2,0.2,0.3l0.1,0.3c0.1,0.1,0.1,0.3,0.1,0.3s0.1,0.3,0.1,0.4s0,0.3-0.1,0.4
						c0,0.1,0,0.2-0.1,0.3s-0.1,0.2-0.2,0.3c-0.1,0.1-0.1,0.2-0.3,0.3l-0.3,0.3c-0.1,0.1-0.2,0.1-0.3,0.2s-0.3,0.1-0.3,0.1
						s-0.3,0.1-0.4,0.1c-0.1,0-0.3,0-0.4-0.1c-0.1,0-0.2-0.1-0.3-0.1l-0.3-0.2c-0.1,0-0.2-0.1-0.3-0.3l-0.3-0.3
						C797.2,32.5,797.1,32.4,797.1,32.3L797.1,32.3z M802.4,43.3L802.4,43.3l-0.2-0.3c-0.1-0.1-0.1-0.2-0.1-0.3s-0.1-0.3-0.1-0.4
						v-0.5c0-0.1,0-0.3,0.1-0.4c0.1-0.1,0.1-0.3,0.1-0.3s0.1-0.2,0.2-0.3c0.1-0.1,0.1-0.2,0.3-0.3c0.1-0.1,0.2-0.1,0.3-0.2
						c0.1-0.1,0.2-0.1,0.3-0.1s0.3-0.1,0.4-0.1h0.4c0.1,0,0.3,0,0.4,0.1c0.1,0.1,0.3,0.1,0.3,0.1l0.3,0.2c0.1,0.1,0.2,0.1,0.3,0.3
						c0.1,0.1,0.1,0.2,0.2,0.3l0.2,0.3v0.1c0.1,0.1,0.1,0.2,0.1,0.3c0.1,0.1,0.1,0.3,0.1,0.4v0.4c0,0.1,0,0.3-0.1,0.4
						c0,0.1,0,0.2-0.1,0.3s-0.1,0.2-0.2,0.3c-0.1,0.1-0.2,0.2-0.3,0.3s-0.2,0.1-0.3,0.2c-0.1,0.1-0.2,0.1-0.3,0.1
						c-0.1,0.1-0.3,0.1-0.4,0.1H804c-0.1,0-0.3,0-0.4-0.1c-0.1,0-0.2,0-0.3-0.1l-0.3-0.2c-0.1,0-0.2-0.1-0.3-0.3
						C802.6,43.4,802.5,43.3,802.4,43.3L802.4,43.3z M809.2,53.5l-0.3-0.3c-0.1-0.1-0.1-0.2-0.2-0.3c-0.1-0.1-0.1-0.2-0.1-0.3
						s-0.1-0.3-0.1-0.4v-0.4c0-0.1,0.1-0.3,0.1-0.4s0.1-0.3,0.1-0.3s0.1-0.2,0.2-0.3l0.3-0.3c0.1-0.1,0.2-0.1,0.3-0.2
						c0.1-0.1,0.2-0.1,0.3-0.1s0.3-0.1,0.4-0.1h0.4c0.1,0,0.3,0.1,0.4,0.1s0.3,0.1,0.3,0.1l0.3,0.2l0.3,0.3l0.3,0.3
						c0.1,0.1,0.1,0.2,0.2,0.3c0.1,0.1,0.1,0.2,0.1,0.3s0.1,0.3,0.1,0.4v0.4c0,0.1-0.1,0.3-0.1,0.4s-0.1,0.3-0.1,0.3
						s-0.1,0.2-0.2,0.3l-0.3,0.3c-0.1,0.1-0.2,0.1-0.3,0.2c-0.1,0.1-0.2,0.1-0.3,0.1s-0.3,0.1-0.4,0.1h-0.4c-0.1,0-0.3-0.1-0.4-0.1
						s-0.3-0.1-0.3-0.1s-0.2-0.1-0.3-0.2C809.4,53.6,809.3,53.4,809.2,53.5L809.2,53.5z M817.2,62.6l-0.3-0.3l-0.3-0.3
						c-0.1-0.1-0.1-0.2-0.2-0.3s-0.1-0.3-0.1-0.3s-0.1-0.3-0.1-0.4c0-0.1,0-0.3,0.1-0.4c0-0.1,0-0.2,0.1-0.3s0.1-0.2,0.2-0.3
						c0-0.1,0.1-0.2,0.3-0.3l0.3-0.3c0.1-0.1,0.2-0.1,0.3-0.2c0.1-0.1,0.3-0.1,0.3-0.1s0.3-0.1,0.4-0.1c0.1,0,0.3,0,0.4,0.1
						c0.1,0,0.2,0,0.3,0.1s0.2,0.1,0.3,0.2c0.1,0,0.2,0.1,0.3,0.3l0.3,0.3l0.3,0.3c0.1,0.1,0.1,0.2,0.2,0.3s0.1,0.3,0.1,0.3
						s0.1,0.3,0.1,0.4c0,0.1,0,0.3-0.1,0.4c0,0.1,0,0.2-0.1,0.3s-0.1,0.2-0.2,0.3c-0.1,0.1-0.2,0.2-0.3,0.3l-0.3,0.3
						c-0.1,0.1-0.2,0.1-0.3,0.2s-0.3,0.1-0.3,0.1s-0.3,0.1-0.4,0.1c-0.1,0-0.3,0-0.4-0.1c-0.1,0-0.2,0-0.3-0.1s-0.2-0.1-0.3-0.2
						C817.4,62.8,817.3,62.7,817.2,62.6L817.2,62.6z M826.3,70.6l-0.3-0.3c-0.1,0-0.2-0.1-0.3-0.3c-0.1-0.1-0.1-0.2-0.2-0.3
						c-0.1-0.1-0.1-0.2-0.1-0.3c-0.1-0.1-0.1-0.3-0.1-0.4v-0.4c0-0.1,0-0.3,0.1-0.4s0.1-0.3,0.1-0.3s0.1-0.2,0.2-0.3
						c0.1-0.1,0.1-0.2,0.3-0.3c0.1-0.1,0.2-0.1,0.3-0.2s0.2-0.1,0.3-0.1c0.1-0.1,0.3-0.1,0.4-0.1h0.4c0.1,0,0.3,0,0.4,0.1
						c0.1,0.1,0.3,0.1,0.3,0.1l0.3,0.2l0.3,0.3c0.1,0.1,0.2,0.1,0.3,0.3c0.1,0.1,0.1,0.2,0.2,0.3c0.1,0.1,0.1,0.2,0.1,0.3
						c0,0.1,0.1,0.3,0.1,0.4v0.4c0,0.1,0,0.3-0.1,0.4s-0.1,0.3-0.1,0.3s-0.1,0.2-0.2,0.3c-0.1,0.1-0.1,0.2-0.3,0.3
						c-0.1,0.1-0.2,0.1-0.3,0.2s-0.2,0.1-0.3,0.1c-0.1,0.1-0.3,0.1-0.4,0.1h-0.4c-0.1,0-0.3,0-0.4-0.1c-0.1-0.1-0.3-0.1-0.3-0.1
						S826.5,70.6,826.3,70.6L826.3,70.6z M836.5,77.3l-0.3-0.2c-0.1-0.1-0.2-0.1-0.3-0.2l-0.3-0.3c-0.1-0.1-0.1-0.2-0.2-0.3
						c-0.1-0.1-0.1-0.2-0.1-0.3c0-0.1-0.1-0.3-0.1-0.4v-0.4c0-0.1,0.1-0.3,0.1-0.4s0.1-0.3,0.1-0.3s0.1-0.2,0.2-0.3l0.3-0.3
						c0.1-0.1,0.2-0.1,0.3-0.2s0.2-0.1,0.3-0.1s0.3-0.1,0.4-0.1h0.4c0.1,0,0.3,0.1,0.4,0.1s0.3,0.1,0.3,0.1l0.3,0.2
						c0.1,0.1,0.2,0.1,0.3,0.2l0.3,0.3c0.1,0.1,0.1,0.2,0.2,0.3c0.1,0.1,0.1,0.2,0.1,0.3c0,0.1,0.1,0.3,0.1,0.4v0.4
						c0,0.1-0.1,0.3-0.1,0.4s-0.1,0.3-0.1,0.3s-0.1,0.2-0.2,0.3l-0.3,0.3c-0.1,0.1-0.2,0.1-0.3,0.2s-0.2,0.1-0.3,0.1
						s-0.3,0.1-0.4,0.1h-0.4c-0.1,0-0.3-0.1-0.4-0.1S836.7,77.4,836.5,77.3L836.5,77.3z M847.4,82.8l-0.3-0.1l-0.3-0.2
						c-0.1-0.1-0.2-0.1-0.3-0.3l-0.3-0.3c-0.1-0.1-0.1-0.2-0.2-0.3s-0.1-0.3-0.1-0.3s-0.1-0.3-0.1-0.4s0-0.3,0.1-0.4
						c0-0.1,0.1-0.2,0.1-0.3c0.1-0.1,0.1-0.2,0.2-0.3c0-0.1,0.1-0.2,0.3-0.3l0.3-0.3c0.1-0.1,0.2-0.1,0.3-0.2s0.3-0.1,0.3-0.1
						s0.3-0.1,0.4-0.1c0.1,0,0.3,0,0.4,0.1c0.1,0.1,0.3,0.1,0.3,0.1l0.3,0.1c0.1,0.1,0.2,0.1,0.3,0.2s0.2,0.1,0.3,0.3l0.3,0.3
						c0.1,0.1,0.1,0.2,0.2,0.3s0.1,0.3,0.1,0.3s0.1,0.3,0.1,0.4s0,0.3-0.1,0.4c0,0.1,0,0.2-0.1,0.3c-0.1,0.1-0.1,0.2-0.2,0.3
						c-0.1,0.1-0.1,0.2-0.3,0.3l-0.3,0.3l-0.3,0.2c-0.1,0.1-0.3,0.1-0.3,0.1s-0.3,0.1-0.4,0.1c-0.1,0-0.3,0-0.4-0.1
						S847.6,82.8,847.4,82.8L847.4,82.8z M858.9,86.7l-0.4-0.1c-0.1-0.1-0.3-0.1-0.3-0.1s-0.2-0.1-0.3-0.2c-0.1,0-0.2-0.1-0.3-0.3
						c-0.1-0.1-0.2-0.2-0.2-0.3c-0.1-0.1-0.1-0.2-0.1-0.3c-0.1-0.1-0.1-0.3-0.1-0.4v-0.4c0-0.1,0-0.3,0.1-0.4s0.1-0.3,0.1-0.3
						s0.1-0.2,0.2-0.3c0-0.1,0.1-0.2,0.3-0.3c0.1-0.1,0.2-0.2,0.3-0.2c0.1-0.1,0.2-0.1,0.3-0.1c0.1-0.1,0.3-0.1,0.4-0.1h0.4
						c0.1,0,0.3,0,0.4,0.1l0.4,0.1c0.1,0.1,0.3,0.1,0.3,0.1s0.2,0.1,0.3,0.2s0.2,0.1,0.3,0.3c0.1,0.1,0.1,0.2,0.2,0.3
						c0.1,0.1,0.1,0.2,0.1,0.3c0.1,0.1,0.1,0.3,0.1,0.4V85c0,0.1,0,0.3-0.1,0.4s-0.1,0.3-0.1,0.3s-0.1,0.2-0.2,0.3
						c-0.1,0.1-0.2,0.2-0.3,0.3c-0.1,0.1-0.2,0.1-0.3,0.2s-0.2,0.1-0.3,0.1c-0.1,0.1-0.3,0.1-0.4,0.1h-0.4
						C859.2,86.7,859.1,86.7,858.9,86.7L858.9,86.7z M870.9,89l-0.4-0.1c-0.1,0-0.3-0.1-0.4-0.1s-0.3-0.1-0.3-0.1s-0.2-0.1-0.3-0.2
						l-0.3-0.3c-0.1-0.1-0.1-0.2-0.2-0.3c-0.1-0.1-0.1-0.2-0.1-0.3c0-0.1-0.1-0.3-0.1-0.4v-0.4c0-0.1,0.1-0.3,0.1-0.4
						s0.1-0.3,0.1-0.3s0.1-0.2,0.2-0.3l0.3-0.3l0.3-0.2c0.1-0.1,0.2-0.1,0.3-0.1s0.3-0.1,0.4-0.1h0.4l0.4,0.1c0.1,0,0.3,0.1,0.4,0.1
						s0.3,0.1,0.3,0.1s0.2,0.1,0.3,0.2l0.3,0.3c0.1,0.1,0.1,0.2,0.2,0.3c0.1,0.1,0.1,0.2,0.1,0.3c0,0.1,0.1,0.3,0.1,0.4v0.4
						c0,0.1-0.1,0.3-0.1,0.4s-0.1,0.3-0.1,0.3s-0.1,0.2-0.2,0.3l-0.3,0.3c-0.1,0.1-0.2,0.1-0.3,0.2s-0.2,0.1-0.3,0.1
						s-0.3,0.1-0.4,0.1C871.2,89.1,871,89.1,870.9,89L870.9,89z M883,89.9h-0.4c-0.1,0-0.3,0-0.4-0.1c-0.1,0-0.2-0.1-0.3-0.1
						c-0.1-0.1-0.2-0.1-0.3-0.2s-0.2-0.1-0.3-0.3L881,89c-0.1-0.1-0.1-0.2-0.2-0.3s-0.1-0.3-0.1-0.3s-0.1-0.3-0.1-0.4s0-0.3,0.1-0.4
						c0-0.1,0-0.2,0.1-0.3c0.1-0.1,0.1-0.2,0.2-0.3c0.1-0.1,0.1-0.2,0.3-0.3l0.3-0.3c0.1-0.1,0.2-0.1,0.3-0.2s0.3-0.1,0.3-0.1
						s0.3-0.1,0.4-0.1h0.4c0.1,0,0.3,0,0.4,0.1c0.1,0,0.2,0,0.3,0.1s0.2,0.1,0.3,0.2s0.2,0.1,0.3,0.3l0.3,0.3
						c0.1,0.1,0.1,0.2,0.2,0.3s0.1,0.3,0.1,0.3s0.1,0.3,0.1,0.4s0,0.3-0.1,0.4c0,0.1,0,0.2-0.1,0.3c-0.1,0.1-0.1,0.2-0.2,0.3
						c-0.1,0.1-0.1,0.2-0.3,0.3l-0.3,0.3l-0.3,0.2c-0.1,0.1-0.3,0.1-0.3,0.1S883.1,89.8,883,89.9L883,89.9z M895.1,89.1l-0.4,0.1
						h-0.4c-0.1,0-0.3,0-0.4-0.1c-0.1-0.1-0.3-0.1-0.3-0.1l-0.3-0.2c-0.1,0-0.2-0.1-0.3-0.3c-0.1-0.1-0.1-0.2-0.2-0.3
						c-0.1-0.1-0.1-0.2-0.1-0.3c0-0.1-0.1-0.3-0.1-0.4V87c0-0.1,0-0.3,0.1-0.4s0.1-0.3,0.1-0.3s0.1-0.2,0.2-0.3
						c0.1-0.1,0.1-0.2,0.3-0.3c0.1-0.1,0.2-0.1,0.3-0.2s0.2-0.1,0.3-0.1c0.1-0.1,0.3-0.1,0.4-0.1l0.4-0.1h0.4c0.1,0,0.3,0,0.4,0.1
						c0.1,0.1,0.3,0.1,0.3,0.1l0.3,0.2c0.1,0.1,0.2,0.1,0.3,0.3c0.1,0.1,0.1,0.2,0.2,0.3c0.1,0.1,0.1,0.2,0.1,0.3
						c0,0.1,0.1,0.3,0.1,0.4v0.4c0,0.1,0,0.3-0.1,0.4s-0.1,0.3-0.1,0.3s-0.1,0.2-0.2,0.3c-0.1,0.1-0.1,0.2-0.3,0.3
						c-0.1,0.1-0.2,0.1-0.3,0.2s-0.2,0.1-0.3,0.1C895.3,89,895.2,89,895.1,89.1L895.1,89.1z M907.1,86.7l-0.4,0.1
						c-0.1,0-0.3,0.1-0.4,0.1h-0.4c-0.1,0-0.3-0.1-0.4-0.1s-0.3-0.1-0.3-0.1l-0.3-0.2l-0.3-0.3c-0.1-0.1-0.1-0.2-0.2-0.3
						c-0.1-0.1-0.1-0.2-0.1-0.3c0-0.1-0.1-0.3-0.1-0.4v-0.4c0-0.1,0.1-0.3,0.1-0.4s0.1-0.3,0.1-0.3c0.1-0.1,0.1-0.2,0.2-0.3l0.3-0.3
						l0.3-0.2c0.1-0.1,0.2-0.1,0.3-0.1l0.4-0.1c0.1,0,0.3-0.1,0.4-0.1h0.4c0.1,0,0.3,0.1,0.4,0.1s0.3,0.1,0.3,0.1l0.3,0.2l0.3,0.3
						c0.1,0.1,0.1,0.2,0.2,0.3c0.1,0.1,0.1,0.2,0.1,0.3c0,0.1,0.1,0.3,0.1,0.4V85c0,0.1-0.1,0.3-0.1,0.4s-0.1,0.3-0.1,0.3
						s-0.1,0.2-0.2,0.3l-0.3,0.3l-0.3,0.2C907.3,86.6,907.2,86.6,907.1,86.7L907.1,86.7z M918.7,82.8l-0.3,0.1
						c-0.1,0.1-0.3,0.1-0.3,0.1s-0.3,0.1-0.4,0.1c-0.1,0-0.3,0-0.4-0.1c-0.1,0-0.2,0-0.3-0.1s-0.2-0.1-0.3-0.2s-0.2-0.1-0.3-0.3
						l-0.3-0.3c-0.1-0.1-0.1-0.2-0.2-0.3s-0.1-0.3-0.1-0.3s-0.1-0.3-0.1-0.4s0-0.3,0.1-0.4c0-0.1,0-0.2,0.1-0.3
						c0.1-0.1,0.1-0.2,0.2-0.3c0.1-0.1,0.1-0.2,0.3-0.3l0.3-0.3c0.1-0.1,0.2-0.1,0.3-0.2l0.3-0.1c0.1-0.1,0.3-0.1,0.3-0.1
						s0.3-0.1,0.4-0.1c0.1,0,0.3,0,0.4,0.1c0.1,0,0.2,0.1,0.3,0.1c0.1,0.1,0.2,0.1,0.3,0.2s0.2,0.1,0.3,0.3l0.3,0.3
						c0.1,0.1,0.1,0.2,0.2,0.3s0.1,0.3,0.1,0.3s0.1,0.3,0.1,0.4s0,0.3-0.1,0.4s-0.1,0.3-0.1,0.3s-0.1,0.2-0.2,0.3
						c-0.1,0.1-0.1,0.2-0.3,0.3l-0.3,0.3C918.8,82.6,918.7,82.7,918.7,82.8L918.7,82.8z M929.6,77.4l-0.3,0.2
						c-0.1,0.1-0.2,0.1-0.3,0.1s-0.3,0.1-0.4,0.1h-0.4c-0.1,0-0.3,0-0.4-0.1c-0.1-0.1-0.3-0.1-0.3-0.1s-0.2-0.1-0.3-0.2
						s-0.2-0.2-0.3-0.3c-0.1-0.1-0.1-0.2-0.2-0.3c-0.1-0.1-0.1-0.2-0.1-0.3s-0.1-0.3-0.1-0.4v-0.4c0-0.1,0-0.3,0.1-0.4
						s0.1-0.3,0.1-0.3s0.1-0.2,0.2-0.3c0.1-0.1,0.1-0.2,0.3-0.3c0.1-0.1,0.2-0.1,0.3-0.2l0.3-0.2c0.1-0.1,0.2-0.1,0.3-0.1
						s0.3-0.1,0.4-0.1h0.4c0.1,0,0.3,0,0.4,0.1c0.1,0.1,0.3,0.1,0.3,0.1s0.2,0.1,0.3,0.2s0.2,0.1,0.3,0.3c0.1,0.1,0.1,0.2,0.2,0.3
						c0.1,0.1,0.1,0.2,0.1,0.3c0.1,0.1,0.1,0.3,0.1,0.4v0.4c0,0.1,0,0.3-0.1,0.4s-0.1,0.3-0.1,0.3s-0.1,0.2-0.2,0.3
						c-0.1,0.1-0.2,0.2-0.3,0.3C929.8,77.2,929.7,77.3,929.6,77.4L929.6,77.4z M939.7,70.7l-0.3,0.3c-0.1,0.1-0.2,0.1-0.3,0.2
						s-0.2,0.1-0.3,0.1s-0.3,0.1-0.4,0.1H938c-0.1,0-0.3-0.1-0.4-0.1s-0.3-0.1-0.3-0.1L937,71l-0.3-0.3c-0.1-0.1-0.1-0.2-0.2-0.3
						c-0.1-0.1-0.1-0.2-0.1-0.3c0-0.1-0.1-0.3-0.1-0.4v-0.4c0-0.1,0.1-0.3,0.1-0.4s0.1-0.3,0.1-0.3s0.1-0.2,0.2-0.3s0.2-0.2,0.3-0.3
						l0.3-0.3c0.1-0.1,0.2-0.1,0.3-0.2s0.2-0.1,0.3-0.1s0.3-0.1,0.4-0.1h0.4c0.1,0,0.3,0.1,0.4,0.1s0.3,0.1,0.3,0.1s0.2,0.1,0.3,0.2
						L940,68c0.1,0.1,0.1,0.2,0.2,0.3c0.1,0.1,0.1,0.2,0.1,0.3c0,0.1,0.1,0.3,0.1,0.4v0.4c0,0.1-0.1,0.3-0.1,0.4s-0.1,0.3-0.1,0.3
						c-0.1,0.1-0.1,0.2-0.2,0.3C939.9,70.5,939.8,70.6,939.7,70.7L939.7,70.7z M948.9,62.7l-0.3,0.3l-0.3,0.3
						c-0.1,0.1-0.2,0.1-0.3,0.2s-0.3,0.1-0.3,0.1s-0.3,0.1-0.4,0.1c-0.1,0-0.3,0-0.4-0.1c-0.1,0-0.2-0.1-0.3-0.1l-0.3-0.2
						c-0.1,0-0.2-0.1-0.3-0.3l-0.3-0.3c-0.1-0.1-0.1-0.2-0.2-0.3s-0.1-0.3-0.1-0.3s-0.1-0.3-0.1-0.4c0-0.1,0-0.3,0.1-0.4
						c0-0.1,0.1-0.2,0.1-0.3c0.1-0.1,0.1-0.2,0.2-0.3c0-0.1,0.1-0.2,0.3-0.3l0.3-0.3l0.3-0.3c0.1-0.1,0.2-0.1,0.3-0.2
						c0.1-0.1,0.3-0.1,0.3-0.1s0.3-0.1,0.4-0.1c0.1,0,0.3,0,0.4,0.1c0.1,0,0.2,0,0.3,0.1s0.2,0.1,0.3,0.2c0.1,0.1,0.2,0.1,0.3,0.3
						l0.3,0.3c0.1,0.1,0.1,0.2,0.2,0.3s0.1,0.3,0.1,0.3s0.1,0.3,0.1,0.4c0,0.1,0,0.3-0.1,0.4c0,0.1,0,0.2-0.1,0.3s-0.1,0.2-0.2,0.3
						C949,62.4,948.9,62.5,948.9,62.7L948.9,62.7z M956.9,53.5l-0.3,0.3c-0.1,0.1-0.1,0.2-0.3,0.3c-0.1,0.1-0.2,0.1-0.3,0.2
						c-0.1,0.1-0.2,0.1-0.3,0.1c-0.1,0.1-0.3,0.1-0.4,0.1h-0.4c-0.1,0-0.3,0-0.4-0.1c-0.1-0.1-0.3-0.1-0.3-0.1l-0.3-0.2
						c-0.1,0-0.2-0.1-0.3-0.3c-0.1-0.1-0.1-0.2-0.2-0.3c-0.1-0.1-0.1-0.2-0.1-0.3s-0.1-0.3-0.1-0.4v-0.4c0-0.1,0-0.3,0.1-0.4
						c0.1-0.1,0.1-0.3,0.1-0.3s0.1-0.2,0.2-0.3l0.3-0.3c0.1-0.1,0.1-0.2,0.3-0.3c0.1-0.1,0.2-0.1,0.3-0.2c0.1-0.1,0.2-0.1,0.3-0.1
						s0.3-0.1,0.4-0.1h0.4c0.1,0,0.3,0,0.4,0.1c0.1,0.1,0.3,0.1,0.3,0.1l0.3,0.2c0.1,0.1,0.2,0.1,0.3,0.3c0.1,0.1,0.1,0.2,0.2,0.3
						c0.1,0.1,0.1,0.2,0.1,0.3s0.1,0.3,0.1,0.4v0.4c0,0.1,0,0.3-0.1,0.4c0,0.1-0.1,0.2-0.1,0.3C957,53.2,957,53.4,956.9,53.5
						L956.9,53.5z M963.6,43.4l-0.2,0.3c-0.1,0.1-0.1,0.2-0.2,0.3l-0.3,0.3c-0.1,0.1-0.2,0.1-0.3,0.2c-0.1,0.1-0.2,0.1-0.3,0.1
						s-0.3,0.1-0.4,0.1h-0.4c-0.1,0-0.3-0.1-0.4-0.1c-0.1,0-0.2,0-0.3-0.1s-0.2-0.1-0.3-0.2l-0.3-0.3c-0.1-0.1-0.1-0.2-0.2-0.3
						c-0.1-0.1-0.1-0.2-0.1-0.3s-0.1-0.3-0.1-0.4v-0.4c0-0.1,0.1-0.3,0.1-0.4s0.1-0.3,0.1-0.3l0.2-0.3c0.1-0.1,0.1-0.2,0.2-0.3
						l0.3-0.3c0.1-0.1,0.2-0.1,0.3-0.2c0.1-0.1,0.2-0.1,0.3-0.1s0.3-0.1,0.4-0.1h0.4c0.1,0,0.3,0.1,0.4,0.1s0.3,0.1,0.3,0.1
						s0.2,0.1,0.3,0.2l0.3,0.3c0.1,0.1,0.1,0.2,0.2,0.3c0.1,0.1,0.1,0.2,0.1,0.3s0.1,0.3,0.1,0.4v0.4c0,0.1-0.1,0.3-0.1,0.4
						C963.7,43.1,963.7,43.2,963.6,43.4L963.6,43.4z M969,32.4l-0.1,0.3c-0.1,0.1-0.1,0.2-0.2,0.3c-0.1,0.1-0.1,0.2-0.3,0.3
						l-0.3,0.3c-0.1,0.1-0.2,0.1-0.3,0.2s-0.3,0.1-0.3,0.1s-0.3,0.1-0.4,0.1c-0.1,0-0.3,0-0.4-0.1c-0.1,0-0.2-0.1-0.3-0.1
						c-0.1-0.1-0.2-0.1-0.3-0.2c-0.1-0.1-0.2-0.1-0.3-0.3l-0.3-0.3c-0.1-0.1-0.1-0.2-0.2-0.3s-0.1-0.3-0.1-0.3s-0.1-0.3-0.1-0.4
						c0-0.1,0-0.3,0.1-0.4c0-0.1,0.1-0.2,0.1-0.3l0.1-0.3c0.1-0.1,0.1-0.2,0.2-0.3c0.1-0.1,0.1-0.2,0.3-0.3l0.3-0.3
						c0.1-0.1,0.2-0.1,0.3-0.2s0.3-0.1,0.3-0.1s0.3-0.1,0.4-0.1c0.1,0,0.3,0,0.4,0.1c0.1,0,0.2,0,0.3,0.1s0.2,0.1,0.3,0.2
						s0.2,0.1,0.3,0.3c0.1,0.1,0.2,0.2,0.3,0.3s0.1,0.2,0.2,0.3s0.1,0.3,0.1,0.3s0.1,0.3,0.1,0.4s0,0.3-0.1,0.4
						C969.1,32.2,969.1,32.3,969,32.4z M972.9,20.9l-0.1,0.4c-0.1,0.1-0.1,0.3-0.1,0.3s-0.1,0.2-0.2,0.3c-0.1,0.1-0.1,0.2-0.3,0.3
						c-0.1,0.1-0.2,0.1-0.3,0.2s-0.2,0.1-0.3,0.1s-0.3,0.1-0.4,0.1h-0.4c-0.1,0-0.3,0-0.4-0.1c-0.1-0.1-0.3-0.1-0.3-0.1l-0.3-0.2
						c-0.1-0.1-0.2-0.1-0.3-0.3c-0.1-0.1-0.1-0.2-0.2-0.3s-0.1-0.2-0.1-0.3c-0.1-0.1-0.1-0.3-0.1-0.4v-0.4c0-0.1,0-0.3,0.1-0.4
						l0.1-0.4c0-0.1,0-0.2,0.1-0.3c0.1-0.1,0.1-0.2,0.2-0.3c0.1-0.1,0.1-0.2,0.3-0.3c0.1-0.1,0.2-0.1,0.3-0.2s0.2-0.1,0.3-0.1
						s0.3-0.1,0.4-0.1h0.4c0.1,0,0.3,0,0.4,0.1c0.1,0.1,0.3,0.1,0.3,0.1s0.2,0.1,0.3,0.2s0.2,0.1,0.3,0.3c0.1,0.1,0.1,0.2,0.2,0.3
						c0.1,0.1,0.1,0.2,0.1,0.3c0,0.1,0.1,0.3,0.1,0.4v0.4C973,20.6,973,20.7,972.9,20.9L972.9,20.9z M975.3,8.9l-0.1,0.4
						c0,0.1-0.1,0.3-0.1,0.4S975,10,975,10s-0.1,0.2-0.2,0.3l-0.3,0.3c-0.1,0.1-0.2,0.1-0.3,0.2c-0.1,0.1-0.2,0.1-0.3,0.1
						s-0.3,0.1-0.4,0.1h-0.4c-0.1,0-0.3-0.1-0.4-0.1s-0.3-0.1-0.3-0.1s-0.2-0.1-0.3-0.2s-0.2-0.2-0.3-0.3s-0.1-0.2-0.2-0.3
						c-0.1-0.1-0.1-0.2-0.1-0.3s-0.1-0.3-0.1-0.4V8.9l0.1-0.4c0-0.1,0.1-0.3,0.1-0.4s0.1-0.3,0.1-0.3s0.1-0.2,0.2-0.3l0.3-0.3
						c0.1-0.1,0.2-0.1,0.3-0.2s0.2-0.1,0.3-0.1s0.3-0.1,0.4-0.1h0.4c0.1,0,0.3,0.1,0.4,0.1s0.3,0.1,0.3,0.1s0.2,0.1,0.3,0.2l0.3,0.3
						c0.1,0.1,0.1,0.2,0.2,0.3c0.1,0.1,0.1,0.2,0.1,0.3s0.1,0.3,0.1,0.4L975.3,8.9L975.3,8.9z"/>
					<path class="st8" d="M105.3,257.8c0,16-13,29-29,29s-29-13-29-29s13-29,29-29S105.3,241.8,105.3,257.8L105.3,257.8z"/>
					<path class="st5" d="M829,213.6c20.4,0.6,36.5,17.7,35.9,38.1s-17.7,36.5-38.1,35.9c-20.4-0.6-36.5-17.7-35.9-38.1l0,0
						C791.6,229,808.6,213,829,213.6z M826.5,293.1c23.6,0.7,43.2-17.8,43.9-41.4s-17.8-43.2-41.4-43.9
						c-23.5-0.7-43.2,17.8-43.9,41.3C784.5,272.7,803,292.4,826.5,293.1L826.5,293.1z"/>
					<circle class="st7" cx="808.6" cy="216.5" r="15.6"/>
					<circle class="st2" cx="104.7" cy="0" r="27.5"/>
				</g>
			</g>
		</g>
	</g>
</g>
</svg>
