<?xml version="1.0" encoding="utf-8"?>
<!-- Generator: Adobe Illustrator 25.2.2, SVG Export Plug-In . SVG Version: 6.00 Build 0)  -->
<svg version="1.1" id="Layer_1" xmlns="http://www.w3.org/2000/svg" xmlns:xlink="http://www.w3.org/1999/xlink" x="0px" y="0px"
	 viewBox="0 0 267.09 98.2" style="enable-background:new 0 0 267.09 98.2;" xml:space="preserve">
<g>
	<path d="M156.34,12.98c1.72,4.16,1.8,7.9-0.05,11.46c-0.88,2.15-2.37,3.96-5.41,4.57c-2.88,0.51-4.7-0.58-6.36-2.44
		c-2.17-2.44-1.12-5.96,0.83-7.34c2.15-1.52,5.27-0.89,6.33,1.57c1.96-1.8,0.5-6.15-0.75-7.66c-1.32-1.72-4.59-3.3-7.37-3.45
		c-3.33-0.11-8.2,1.77-9.76,4.61c-2.5,3.43-2.05,8.63-0.06,12.08c2.5,3.88,6.29,4.9,12.08,5.39c3.48,0.31,4.51,1.2,4.51,2.61
		c0,1.4-1.36,2.39-4.75,2.62c-2.17-0.13-5.33,0.45-8.65,2.17c-5.48,3.42-7.4,7.72-7.45,13.89c-0.04,4.56,2.47,9.31,6.12,11.73
		c5.31,3.71,12.8,3.24,16.42,0.35c3.61-2.9,4.89-8.3,5.06-12.71c-1.91-2.67-3.79-5.15-6.41-5.96c-2.62-0.81-5.77,0.24-6.76,1.92
		c-0.5,0.87-1.34,3.57,0.64,5.32c1.81-3.98,8.52-2.18,7.46,2.92c-0.74,3.56-2.52,4.35-4.33,4.66c-2.67,0.31-4.82-0.42-6.35-1.59
		c-2.19-1.93-3.81-5.07-3.34-8.26c0.39-4.13,3.6-7.58,6.21-8.57c7.88-3,13.23,2.8,16.18,5.41c3.17,2.8,12.95,12.15,21.9,8.41
		c1.52-0.81,4.91-4.15,4.05-7c-1.76,2.4-4.75,1.67-6.31,0.65c-2.08-1.35-2.44-4.26-1.81-6.08c0.7-1.96,2.42-3.35,4.59-3.52
		c2.75-0.32,4.91,0.38,6.66,2.17c2.7,2.65,2.26,7.29,1.35,10.55c-1.97,5.23-6.19,8.46-11.9,8.95c-4.27,0.34-7.3-0.89-11.35-2.9
		c-2.26-1.21-6.52-4.4-6.52-4.4c-0.45,5.94-1.63,11.41-5.36,15.07c-3.94,3.22-9.29,4.87-14.65,4.56
		c-7.82-0.57-16.15-3.75-19.08-12.19c-3.45-10.75,0.29-18.43,3.72-22.95c1.09-1.99,5.8-4.19,5.8-5.09
		c-0.18-1.08-3.81-3.18-5.68-6.86c-2.01-5.12-2.09-11.48,1.93-16.37c3.78-5.1,10.93-6.97,17.37-6.38
		C149.82,5.54,154.63,8.83,156.34,12.98"/>
</g>
<polygon points="62.82,41.93 82.56,6.82 117.84,6.81 117.82,21.28 108.26,21.3 108.26,59.29 117.87,59.25 117.87,72.63 79.42,72.66 
	79.38,59.3 86.65,59.27 86.64,37.47 71,72.65 54.22,72.68 38.76,37.35 38.61,37.35 38.78,59.34 47.27,59.31 47.25,72.67 7.71,72.68 
	7.7,59.3 17.31,59.3 17.3,21.32 7.81,21.35 7.79,6.87 43.12,6.87 "/>
<polygon points="258.99,6.73 258.98,34.39 236.86,34.46 236.89,21.2 221.72,21.2 221.72,59.22 231.48,59.19 231.49,72.57 
	189.98,72.62 189.99,59.24 199.74,59.24 199.75,21.25 183.84,21.26 183.85,34.42 161.75,34.43 161.73,6.77 "/>
<g>
	<path d="M14.17,82.6h2.7c1.49,0,2.87,0.07,2.87,1.27c0,1.32-1.65,1.4-3.22,1.4h-2.34V82.6z M8.1,92.36h6.06v-3.97h3.58
		c4.52,0,7.71-1.49,7.71-4.67c0-1.87-1.87-4.48-7.22-4.48H8.1V92.36z"/>
	<path d="M33.57,82.37h2.84c2.32,0,3,0.48,3,1.3c0,1.18-1.54,1.3-2.67,1.3h-3.17V82.37z M27.5,92.36h6.06v-4.58h3.22
		c2.4,0,2.56,1.31,2.73,2.56c0.08,0.68,0.19,1.36,0.5,2.02h6.06c-0.55-0.61-0.58-2.17-0.66-2.81c-0.22-1.64-1.24-2.85-2.89-3.27
		c2.01-0.5,2.95-1.93,2.95-3.29c0-2.48-2.98-3.75-6.42-3.75H27.5V92.36z"/>
	<rect x="47.92" y="79.24" width="6.06" height="13.12"/>
	<polygon points="57.13,79.24 63.33,79.24 69.06,86.26 69.11,86.26 69.11,79.24 74.85,79.24 74.85,92.36 68.95,92.36 62.92,85.2 
		62.86,85.2 62.86,92.36 57.13,92.36 	"/>
	<polygon points="82.62,82.6 77.11,82.6 77.11,79.24 94.19,79.24 94.19,82.6 88.68,82.6 88.68,92.36 82.62,92.36 	"/>
	<rect x="96.43" y="79.24" width="6.06" height="13.12"/>
</g>
<g>
	<polygon points="105.63,79.24 111.83,79.24 117.56,86.26 117.62,86.26 117.62,79.24 123.35,79.24 123.35,92.36 117.45,92.36 
		111.42,85.2 111.36,85.2 111.36,92.36 105.63,92.36 	"/>
	<path d="M140.93,91.02c-1.35,1.16-3.45,1.65-5.6,1.65c-5.82,0-9.4-3.01-9.4-6.74c0-5,5.26-7,9.7-7c5.02,0,8.18,1.82,9.06,4.91
		h-5.81c-0.22-0.96-1.44-1.63-2.87-1.63c-4.16,0-4.02,2.92-4.02,3.82c0,1.23,0.74,3.38,4.44,3.38c1.4,0,2.84-0.48,3.14-1.45h-2.67
		v-2.81h8.05v7.22h-3.83L140.93,91.02z"/>
	<path d="M171.57,91.02c-1.35,1.16-3.44,1.65-5.59,1.65c-5.82,0-9.4-3.01-9.4-6.74c0-5,5.26-7,9.7-7c5.02,0,8.18,1.82,9.07,4.91
		h-5.82c-0.22-0.96-1.43-1.63-2.86-1.63c-4.16,0-4.02,2.92-4.02,3.82c0,1.23,0.75,3.38,4.44,3.38c1.4,0,2.84-0.48,3.14-1.45h-2.67
		v-2.81h8.05v7.22h-3.83L171.57,91.02z"/>
	<path d="M184.66,82.37h2.84c2.31,0,3,0.48,3,1.3c0,1.18-1.55,1.3-2.67,1.3h-3.17V82.37z M178.6,92.36h6.06v-4.58h3.23
		c2.4,0,2.56,1.31,2.73,2.56c0.09,0.68,0.19,1.36,0.5,2.02h6.06c-0.55-0.61-0.58-2.17-0.66-2.81c-0.22-1.64-1.24-2.85-2.89-3.27
		c2.01-0.5,2.94-1.93,2.94-3.29c0-2.48-2.98-3.75-6.42-3.75H178.6V92.36z"/>
	<path d="M204.51,85.8c0-2.92,2.37-3.6,3.91-3.6s3.91,0.68,3.91,3.6c0,2.92-2.37,3.6-3.91,3.6S204.51,88.72,204.51,85.8
		 M198.44,85.8c0,4.01,4,6.87,9.98,6.87s9.98-2.86,9.98-6.87c0-4-4-6.87-9.98-6.87S198.44,81.8,198.44,85.8"/>
	<path d="M238.82,87.29c0,3.64-2.95,5.39-8.96,5.39c-6.01,0-8.99-1.75-8.99-5.39v-8.05h6.07v7.15c0,1.34,0,3.01,2.95,3.01
		c2.87,0,2.87-1.67,2.87-3.01v-7.15h6.06V87.29z"/>
</g>
<g>
	<path d="M247.94,82.6h2.7c1.49,0,2.87,0.07,2.87,1.27c0,1.32-1.65,1.4-3.23,1.4h-2.34V82.6z M241.87,92.36h6.06v-3.97h3.59
		c4.52,0,7.71-1.49,7.71-4.67c0-1.87-1.87-4.48-7.22-4.48h-10.14V92.36z"/>
</g>
</svg>
