<?xml version="1.0" encoding="utf-8"?>
<!-- Generator: Adobe Illustrator 25.1.0, SVG Export Plug-In . SVG Version: 6.00 Build 0)  -->
<svg version="1.1" id="Layer_1" xmlns="http://www.w3.org/2000/svg" xmlns:xlink="http://www.w3.org/1999/xlink" x="0px" y="0px"
	 viewBox="0 0 1500 100" style="enable-background:new 0 0 1500 100;" xml:space="preserve">
<style type="text/css">
	.st0{opacity:0.8;}
	.st1{fill:#57CBF5;}
	.st2{opacity:0.298;enable-background:new    ;}
	.st3{fill:#FFFFFF;}
	.st4{fill:none;}
	.st5{fill-rule:evenodd;clip-rule:evenodd;fill:none;}
	.st6{clip-path:url(#SVGID_2_);fill:#FFFFFF;}
	.st7{clip-path:url(#SVGID_4_);fill:#FFFFFF;}
	.st8{clip-path:url(#SVGID_6_);}
	.st9{clip-path:url(#SVGID_8_);}
	.st10{clip-path:url(#SVGID_10_);fill:#FFFFFF;}
</style>
<g class="st0">
	<g>
		<rect x="-0.1" y="0.31" class="st1" width="1500.1" height="99.65"/>
	</g>
	<g class="st2">
		<path class="st3" d="M49.73-71.73c-19.52,0-37.89,7.62-51.69,21.42S-23.38-18.14-23.38,1.38s7.62,37.89,21.42,51.69
			s32.17,21.42,51.69,21.42s37.89-7.62,51.69-21.42c13.8-13.8,21.42-32.17,21.42-51.69s-7.62-37.89-21.42-51.69
			C87.62-64.11,69.25-71.73,49.73-71.73L49.73-71.73z M49.73,79.15c-20.76,0-40.32-8.08-54.99-22.78
			C-19.96,41.7-28.04,22.15-28.04,1.38s8.08-40.32,22.78-54.99c14.67-14.7,34.22-22.78,54.99-22.78s40.32,8.08,54.99,22.78
			c14.7,14.7,22.78,34.22,22.78,54.99s-8.08,40.32-22.78,54.99C90.04,71.07,70.49,79.15,49.73,79.15L49.73,79.15z"/>
		<rect x="-0.1" y="0.31" class="st4" width="127.96" height="79.13"/>
	</g>
	<g class="st2">
		<path class="st3" d="M788.73-71.73c-19.52,0-37.89,7.62-51.69,21.42s-21.42,32.17-21.42,51.69s7.62,37.89,21.42,51.69
			s32.17,21.42,51.69,21.42c19.52,0,37.89-7.62,51.69-21.42s21.42-32.17,21.42-51.69s-7.62-37.89-21.42-51.69
			S808.25-71.73,788.73-71.73L788.73-71.73z M788.73,79.15c-20.76,0-40.32-8.08-54.99-22.78c-14.7-14.67-22.78-34.22-22.78-54.99
			s8.08-40.32,22.78-54.99c14.67-14.7,34.22-22.78,54.99-22.78c20.76,0,40.32,8.08,54.99,22.78c14.7,14.7,22.78,34.22,22.78,54.99
			s-8.08,40.32-22.78,54.99C829.04,71.07,809.49,79.15,788.73,79.15L788.73,79.15z"/>
		<rect x="738.9" y="0.31" class="st4" width="127.96" height="79.13"/>
	</g>
	<g class="st2">
		<path class="st3" d="M551.26,35.77c-30.81,0-55.77-24.96-55.77-55.77c0-30.81,24.96-55.77,55.77-55.77S607.03-50.81,607.03-20
			C607.03,10.81,582.07,35.77,551.26,35.77z M551.26-89.71c-38.51,0-69.71,31.19-69.71,69.71c0,38.51,31.19,69.71,69.71,69.71
			c38.51,0,69.71-31.19,69.71-69.71C620.97-58.51,589.78-89.71,551.26-89.71z"/>
		<rect x="467.61" y="0.02" class="st5" width="167.3" height="63.64"/>
		<rect x="467.61" y="0.31" class="st4" width="167.38" height="63.54"/>
	</g>
	<g class="st2">
		<path class="st3" d="M1205.28,116.24c-16.19,0-29.31-13.12-29.31-29.31c0-16.19,13.12-29.31,29.31-29.31
			c16.19,0,29.31,13.12,29.31,29.31C1234.59,103.12,1221.47,116.24,1205.28,116.24z M1205.28,50.29c-20.24,0-36.64,16.4-36.64,36.64
			c0,20.24,16.4,36.64,36.64,36.64c20.24,0,36.64-16.4,36.64-36.64C1241.92,66.69,1225.52,50.29,1205.28,50.29z"/>
		<rect x="1161.31" y="97.45" class="st5" width="87.93" height="33.45"/>
		<rect x="1161.31" y="97.6" class="st4" width="87.97" height="33.4"/>
	</g>
	<g class="st2">
		<g>
			<g>
				<g>
					<g>
						<defs>
							<path id="SVGID_1_" d="M597.49,134.23l0,0.27c0,0.55-0.11,1.08-0.32,1.58c-0.21,0.51-0.51,0.95-0.9,1.34
								s-0.84,0.68-1.34,0.89c-0.51,0.21-1.04,0.31-1.58,0.31c-0.55,0-1.08-0.11-1.58-0.32c-0.51-0.21-0.95-0.51-1.34-0.9
								c-0.39-0.39-0.68-0.84-0.89-1.34c-0.21-0.51-0.31-1.04-0.31-1.58l0-0.27c0-0.55,0.11-1.08,0.32-1.58
								c0.21-0.51,0.51-0.95,0.9-1.34c0.39-0.39,0.84-0.68,1.34-0.89s1.04-0.31,1.58-0.31c0.55,0,1.08,0.11,1.58,0.32
								c0.51,0.21,0.95,0.51,1.34,0.9c0.39,0.39,0.68,0.84,0.89,1.34S597.49,133.68,597.49,134.23z M595.13,116.82l0.07,0.27
								c0.15,0.53,0.18,1.07,0.12,1.61c-0.07,0.54-0.24,1.05-0.51,1.53c-0.27,0.48-0.62,0.88-1.06,1.22
								c-0.43,0.34-0.91,0.58-1.44,0.72c-0.53,0.15-1.07,0.18-1.61,0.12c-0.54-0.07-1.05-0.24-1.53-0.51
								c-0.48-0.27-0.88-0.62-1.22-1.06c-0.34-0.43-0.58-0.91-0.72-1.44l-0.07-0.27c-0.15-0.53-0.18-1.07-0.12-1.61
								s0.24-1.05,0.51-1.53c0.27-0.48,0.62-0.88,1.06-1.22s0.91-0.58,1.44-0.72c0.53-0.15,1.07-0.18,1.61-0.12
								c0.54,0.07,1.05,0.24,1.53,0.51c0.48,0.27,0.88,0.62,1.22,1.06C594.74,115.81,594.98,116.3,595.13,116.82z M588.1,100.53
								l0.14,0.23c0.28,0.47,0.46,0.98,0.55,1.52c0.08,0.54,0.06,1.08-0.08,1.61c-0.13,0.53-0.36,1.02-0.69,1.46
								c-0.33,0.44-0.72,0.8-1.19,1.09c-0.47,0.28-0.98,0.46-1.52,0.55c-0.54,0.08-1.08,0.06-1.61-0.08s-1.02-0.36-1.46-0.69
								c-0.44-0.33-0.8-0.72-1.09-1.19l-0.14-0.23c-0.28-0.47-0.46-0.98-0.55-1.52c-0.08-0.54-0.06-1.08,0.08-1.61
								c0.13-0.53,0.36-1.02,0.69-1.46c0.33-0.44,0.72-0.8,1.19-1.09s0.98-0.46,1.52-0.55c0.54-0.08,1.08-0.06,1.61,0.08
								c0.53,0.13,1.02,0.36,1.46,0.69C587.46,99.66,587.82,100.06,588.1,100.53z M576.93,86.72l0.2,0.19
								c0.4,0.38,0.71,0.81,0.94,1.31c0.22,0.5,0.35,1.02,0.36,1.57c0.02,0.55-0.07,1.08-0.27,1.59c-0.19,0.51-0.48,0.97-0.86,1.37
								c-0.38,0.4-0.81,0.71-1.32,0.94c-0.5,0.22-1.02,0.35-1.57,0.36c-0.55,0.02-1.08-0.07-1.59-0.27
								c-0.51-0.19-0.97-0.48-1.37-0.86l-0.2-0.19c-0.4-0.38-0.71-0.81-0.94-1.31c-0.22-0.5-0.35-1.02-0.36-1.57
								c-0.02-0.55,0.07-1.08,0.27-1.59c0.19-0.51,0.48-0.97,0.86-1.37c0.38-0.4,0.81-0.71,1.31-0.94c0.5-0.22,1.02-0.35,1.57-0.36
								c0.55-0.02,1.08,0.07,1.59,0.27C576.08,86.06,576.53,86.34,576.93,86.72z M562.46,76.45l0.24,0.13
								c0.49,0.25,0.9,0.59,1.26,1.01c0.35,0.42,0.61,0.89,0.77,1.42c0.16,0.52,0.22,1.06,0.17,1.6s-0.2,1.06-0.46,1.55
								c-0.25,0.49-0.59,0.9-1.01,1.26c-0.42,0.35-0.89,0.61-1.42,0.77c-0.52,0.16-1.06,0.22-1.6,0.17
								c-0.55-0.05-1.06-0.2-1.55-0.46l-0.24-0.13c-0.49-0.25-0.9-0.59-1.26-1.01c-0.35-0.42-0.61-0.89-0.77-1.42
								c-0.16-0.52-0.22-1.06-0.17-1.6c0.05-0.55,0.2-1.06,0.46-1.55c0.25-0.49,0.59-0.9,1.01-1.26c0.42-0.35,0.89-0.61,1.42-0.77
								s1.06-0.22,1.6-0.17S561.97,76.19,562.46,76.45z M545.73,70.46l0.27,0.06c0.54,0.11,1.03,0.33,1.48,0.64
								c0.45,0.31,0.83,0.7,1.13,1.16c0.3,0.46,0.5,0.96,0.6,1.5c0.1,0.54,0.09,1.08-0.02,1.61c-0.11,0.54-0.33,1.03-0.64,1.48
								c-0.31,0.45-0.7,0.83-1.16,1.13c-0.46,0.3-0.96,0.5-1.5,0.6c-0.54,0.1-1.08,0.09-1.61-0.02l-0.27-0.06
								c-0.54-0.11-1.03-0.33-1.48-0.64c-0.45-0.31-0.83-0.7-1.13-1.16s-0.5-0.96-0.6-1.5c-0.1-0.54-0.09-1.08,0.02-1.61
								c0.11-0.54,0.33-1.03,0.64-1.48c0.31-0.45,0.7-0.83,1.16-1.13c0.46-0.3,0.96-0.5,1.5-0.6
								C544.66,70.34,545.19,70.35,545.73,70.46z M528.06,69.21l0.27-0.02c0.55-0.03,1.08,0.04,1.6,0.21
								c0.52,0.18,0.98,0.45,1.4,0.81c0.41,0.36,0.74,0.79,0.98,1.28c0.24,0.49,0.38,1.01,0.41,1.56c0.03,0.55-0.04,1.08-0.21,1.6
								c-0.18,0.52-0.45,0.98-0.81,1.4c-0.36,0.41-0.79,0.74-1.28,0.98c-0.49,0.24-1.01,0.38-1.56,0.41l-0.27,0.02
								c-0.55,0.03-1.08-0.04-1.6-0.21c-0.52-0.18-0.98-0.45-1.4-0.81c-0.41-0.36-0.74-0.79-0.98-1.28
								c-0.24-0.49-0.38-1.01-0.41-1.56c-0.03-0.55,0.04-1.08,0.21-1.6c0.18-0.52,0.45-0.98,0.81-1.4c0.36-0.41,0.79-0.74,1.28-0.98
								C526.99,69.39,527.51,69.25,528.06,69.21z M510.67,72.78l0.26-0.09c0.52-0.18,1.05-0.26,1.6-0.23
								c0.55,0.03,1.07,0.16,1.56,0.4c0.49,0.24,0.92,0.56,1.29,0.97c0.37,0.41,0.64,0.87,0.82,1.39s0.26,1.05,0.23,1.6
								c-0.03,0.55-0.16,1.07-0.4,1.56c-0.24,0.49-0.56,0.92-0.97,1.29c-0.41,0.37-0.87,0.64-1.39,0.82l-0.26,0.09
								c-0.52,0.18-1.05,0.26-1.6,0.23c-0.55-0.03-1.07-0.16-1.56-0.4c-0.49-0.24-0.92-0.56-1.29-0.97
								c-0.37-0.41-0.64-0.87-0.82-1.39c-0.18-0.52-0.26-1.05-0.23-1.6c0.03-0.55,0.16-1.07,0.4-1.56c0.24-0.49,0.56-0.92,0.97-1.29
								C509.69,73.24,510.15,72.96,510.67,72.78z M494.88,80.92l0.22-0.16c0.45-0.31,0.94-0.53,1.48-0.65
								c0.54-0.12,1.07-0.13,1.61-0.03c0.54,0.1,1.04,0.29,1.5,0.59c0.46,0.29,0.85,0.67,1.17,1.12c0.31,0.45,0.53,0.94,0.65,1.48
								c0.12,0.54,0.13,1.07,0.03,1.61c-0.1,0.54-0.29,1.04-0.59,1.5c-0.29,0.46-0.67,0.85-1.12,1.17l-0.22,0.16
								c-0.45,0.31-0.94,0.53-1.48,0.65c-0.54,0.12-1.07,0.13-1.61,0.03c-0.54-0.1-1.04-0.29-1.5-0.59s-0.85-0.67-1.17-1.12
								c-0.31-0.45-0.53-0.94-0.65-1.48c-0.12-0.54-0.13-1.07-0.03-1.61c0.1-0.54,0.29-1.04,0.59-1.5
								C494.06,81.62,494.43,81.23,494.88,80.92z M481.88,93.01l0.17-0.21c0.35-0.42,0.76-0.77,1.25-1.02
								c0.48-0.26,1-0.42,1.54-0.47c0.55-0.05,1.08,0,1.61,0.16c0.53,0.16,1,0.41,1.42,0.76c0.42,0.35,0.77,0.76,1.02,1.25
								c0.26,0.48,0.42,1,0.47,1.54c0.05,0.55,0,1.08-0.16,1.61c-0.16,0.53-0.41,1-0.76,1.42l-0.17,0.21
								c-0.35,0.42-0.76,0.77-1.25,1.02c-0.48,0.26-1,0.42-1.54,0.47c-0.55,0.05-1.08,0-1.61-0.16c-0.53-0.16-1-0.41-1.42-0.76
								c-0.42-0.35-0.77-0.76-1.02-1.25c-0.26-0.48-0.42-1-0.47-1.54c-0.05-0.55,0-1.08,0.16-1.61
								C481.28,93.91,481.54,93.44,481.88,93.01z M472.63,108.18l0.11-0.25c0.22-0.5,0.53-0.94,0.92-1.32
								c0.4-0.38,0.85-0.67,1.36-0.87c0.51-0.2,1.04-0.29,1.59-0.28c0.55,0.01,1.07,0.13,1.58,0.35c0.5,0.22,0.94,0.53,1.32,0.92
								c0.38,0.4,0.67,0.85,0.87,1.36c0.2,0.51,0.29,1.04,0.28,1.59c-0.01,0.55-0.13,1.07-0.35,1.58l-0.11,0.25
								c-0.22,0.5-0.53,0.94-0.92,1.32s-0.85,0.67-1.36,0.87c-0.51,0.2-1.04,0.29-1.59,0.28c-0.55-0.01-1.07-0.13-1.58-0.35
								c-0.5-0.22-0.94-0.53-1.32-0.92c-0.38-0.4-0.67-0.85-0.87-1.36c-0.2-0.51-0.29-1.04-0.28-1.59
								C472.29,109.2,472.41,108.68,472.63,108.18z M467.81,125.27l0.04-0.27c0.08-0.54,0.25-1.05,0.53-1.52
								c0.28-0.47,0.64-0.87,1.08-1.2c0.44-0.33,0.92-0.56,1.45-0.7c0.53-0.14,1.07-0.17,1.61-0.09c0.54,0.08,1.05,0.25,1.52,0.53
								c0.47,0.28,0.87,0.64,1.2,1.08c0.33,0.44,0.56,0.92,0.7,1.45c0.14,0.53,0.17,1.07,0.09,1.61l-0.04,0.27
								c-0.08,0.54-0.25,1.05-0.53,1.52c-0.28,0.47-0.64,0.87-1.08,1.2c-0.44,0.33-0.92,0.56-1.45,0.7
								c-0.53,0.14-1.07,0.17-1.61,0.09c-0.54-0.08-1.05-0.25-1.52-0.53c-0.47-0.28-0.87-0.64-1.2-1.08
								c-0.33-0.44-0.56-0.92-0.7-1.45C467.77,126.35,467.74,125.81,467.81,125.27z M467.79,142.97l-0.04-0.27
								c-0.07-0.54-0.04-1.08,0.1-1.61c0.14-0.53,0.38-1.01,0.71-1.45c0.33-0.44,0.74-0.79,1.21-1.07c0.47-0.28,0.98-0.45,1.53-0.52
								c0.54-0.07,1.08-0.04,1.61,0.1c0.53,0.14,1.01,0.38,1.45,0.71c0.44,0.33,0.79,0.74,1.07,1.21c0.28,0.47,0.45,0.98,0.52,1.53
								l0.04,0.27c0.07,0.54,0.04,1.08-0.1,1.61c-0.14,0.53-0.38,1.01-0.71,1.45c-0.33,0.44-0.74,0.79-1.21,1.07
								c-0.47,0.28-0.98,0.45-1.53,0.52c-0.54,0.07-1.08,0.04-1.61-0.1c-0.53-0.14-1.01-0.38-1.45-0.71
								c-0.44-0.33-0.79-0.74-1.07-1.21C468.03,144.03,467.86,143.52,467.79,142.97z M472.55,160.08l-0.11-0.25
								c-0.22-0.5-0.33-1.03-0.34-1.58s0.09-1.08,0.29-1.59c0.2-0.51,0.5-0.96,0.88-1.35c0.38-0.39,0.83-0.7,1.33-0.91
								c0.5-0.22,1.03-0.33,1.58-0.34c0.55-0.01,1.08,0.09,1.59,0.29c0.51,0.2,0.96,0.5,1.35,0.88c0.39,0.38,0.7,0.83,0.91,1.33
								l0.11,0.25c0.22,0.5,0.33,1.03,0.34,1.58s-0.09,1.08-0.29,1.59c-0.2,0.51-0.5,0.96-0.88,1.35c-0.38,0.39-0.83,0.7-1.33,0.91
								c-0.5,0.22-1.03,0.33-1.58,0.34c-0.55,0.01-1.08-0.09-1.59-0.29c-0.51-0.2-0.96-0.5-1.35-0.88S472.77,160.59,472.55,160.08z
								 M595.07,151.81l-0.08,0.27c-0.15,0.53-0.39,1.01-0.73,1.44c-0.34,0.43-0.75,0.78-1.23,1.05c-0.48,0.27-0.99,0.43-1.54,0.5
								c-0.54,0.06-1.08,0.02-1.61-0.13c-0.53-0.15-1.01-0.39-1.44-0.73c-0.43-0.34-0.78-0.75-1.05-1.23
								c-0.27-0.48-0.43-0.99-0.5-1.54c-0.06-0.54-0.02-1.08,0.13-1.61l0.08-0.27c0.15-0.53,0.39-1.01,0.73-1.44
								c0.34-0.43,0.75-0.78,1.23-1.05c0.48-0.27,0.99-0.43,1.54-0.5c0.54-0.06,1.08-0.02,1.61,0.13c0.53,0.15,1.01,0.39,1.44,0.73
								c0.43,0.34,0.78,0.75,1.05,1.23s0.43,0.99,0.5,1.54C595.27,150.74,595.22,151.28,595.07,151.81z"/>
						</defs>
						<clipPath id="SVGID_2_">
							<use xlink:href="#SVGID_1_"  style="overflow:visible;"/>
						</clipPath>
						<rect x="480.91" y="91.26" class="st6" width="8.51" height="8.55"/>
						<rect x="493.09" y="79.98" class="st6" width="8.56" height="8.49"/>
						<rect x="507.88" y="72.43" class="st6" width="8.58" height="8.41"/>
						<rect x="524.16" y="69.16" class="st6" width="8.6" height="8.34"/>
						<rect x="540.7" y="70.34" class="st6" width="8.6" height="8.39"/>
						<rect x="556.37" y="75.94" class="st6" width="8.58" height="8.46"/>
						<rect x="569.94" y="85.58" class="st6" width="8.5" height="8.49"/>
						<rect x="580.39" y="98.49" class="st6" width="8.49" height="8.58"/>
					</g>
				</g>
			</g>
		</g>
	</g>
	<g class="st2">
		<g>
			<g>
				<g>
					<g>
						<defs>
							<path id="SVGID_3_" d="M946.29-60.98l0-0.44c0-0.89,0.17-1.75,0.52-2.57c0.34-0.82,0.83-1.55,1.46-2.17s1.36-1.11,2.18-1.45
								c0.82-0.34,1.68-0.51,2.57-0.51c0.89,0,1.75,0.17,2.57,0.52s1.55,0.83,2.17,1.46c0.63,0.63,1.11,1.36,1.45,2.18
								c0.34,0.82,0.51,1.68,0.51,2.57l0,0.44c0,0.89-0.17,1.75-0.52,2.57c-0.34,0.82-0.83,1.55-1.46,2.17
								c-0.63,0.63-1.36,1.11-2.18,1.45c-0.82,0.34-1.68,0.51-2.57,0.51c-0.89,0-1.75-0.17-2.57-0.52
								c-0.82-0.34-1.55-0.83-2.17-1.46c-0.63-0.63-1.11-1.36-1.45-2.18C946.46-59.23,946.29-60.09,946.29-60.98z M950.13-32.73
								l-0.12-0.43c-0.24-0.86-0.3-1.73-0.19-2.61c0.11-0.88,0.39-1.71,0.83-2.49c0.44-0.77,1.01-1.43,1.71-1.98
								c0.7-0.55,1.48-0.94,2.34-1.17c0.86-0.24,1.73-0.3,2.61-0.19c0.88,0.11,1.71,0.39,2.49,0.83c0.77,0.44,1.43,1.01,1.98,1.71
								c0.55,0.7,0.94,1.48,1.17,2.34l0.12,0.43c0.24,0.86,0.3,1.73,0.19,2.61c-0.11,0.88-0.39,1.71-0.83,2.49
								c-0.44,0.77-1.01,1.43-1.71,1.98c-0.7,0.55-1.48,0.94-2.34,1.17c-0.86,0.24-1.73,0.3-2.61,0.19
								c-0.88-0.11-1.71-0.39-2.49-0.83c-0.77-0.44-1.43-1.01-1.98-1.71C950.75-31.09,950.36-31.87,950.13-32.73z M961.53-6.28
								l-0.23-0.38c-0.46-0.76-0.75-1.58-0.89-2.47c-0.13-0.88-0.09-1.75,0.12-2.62c0.22-0.86,0.59-1.65,1.12-2.37
								c0.53-0.72,1.18-1.3,1.94-1.76c0.76-0.46,1.58-0.75,2.47-0.89c0.88-0.13,1.75-0.09,2.62,0.12c0.86,0.22,1.65,0.59,2.37,1.12
								c0.72,0.53,1.3,1.18,1.76,1.94l0.23,0.38c0.46,0.76,0.75,1.58,0.89,2.47c0.13,0.88,0.09,1.75-0.12,2.62
								c-0.22,0.86-0.59,1.65-1.12,2.37c-0.53,0.72-1.18,1.3-1.94,1.76c-0.76,0.46-1.58,0.75-2.47,0.89
								c-0.88,0.13-1.75,0.09-2.62-0.12c-0.86-0.22-1.65-0.59-2.37-1.12C962.57-4.87,961.99-5.52,961.53-6.28z M979.66,16.13
								l-0.32-0.3c-0.65-0.61-1.15-1.32-1.52-2.13c-0.36-0.81-0.56-1.66-0.59-2.55c-0.03-0.89,0.12-1.75,0.43-2.58
								c0.32-0.83,0.78-1.57,1.39-2.22c0.61-0.65,1.32-1.15,2.13-1.52c0.81-0.36,1.66-0.56,2.55-0.59c0.89-0.03,1.75,0.12,2.58,0.43
								c0.83,0.32,1.57,0.78,2.22,1.39l0.32,0.3c0.65,0.61,1.15,1.32,1.52,2.13c0.36,0.81,0.56,1.66,0.59,2.55
								c0.03,0.89-0.12,1.75-0.43,2.58c-0.32,0.83-0.78,1.57-1.39,2.22c-0.61,0.65-1.32,1.15-2.13,1.52
								c-0.81,0.36-1.66,0.56-2.55,0.59c-0.89,0.03-1.75-0.12-2.58-0.44C981.05,17.2,980.31,16.74,979.66,16.13z M1003.15,32.8
								l-0.39-0.2c-0.79-0.41-1.47-0.96-2.04-1.64c-0.57-0.68-0.99-1.45-1.25-2.3s-0.36-1.72-0.28-2.6
								c0.08-0.89,0.33-1.72,0.74-2.51c0.41-0.79,0.96-1.47,1.64-2.04c0.68-0.57,1.45-0.99,2.3-1.25c0.85-0.27,1.72-0.36,2.6-0.28
								c0.89,0.08,1.72,0.33,2.51,0.74l0.39,0.2c0.79,0.41,1.47,0.96,2.04,1.64c0.57,0.68,0.99,1.45,1.25,2.3
								c0.27,0.85,0.36,1.72,0.28,2.6c-0.08,0.89-0.33,1.72-0.74,2.51c-0.41,0.79-0.96,1.47-1.64,2.04
								c-0.68,0.57-1.45,0.99-2.3,1.25c-0.85,0.27-1.72,0.36-2.6,0.28C1004.78,33.46,1003.94,33.21,1003.15,32.8z M1030.3,42.52
								l-0.43-0.09c-0.87-0.18-1.67-0.53-2.41-1.03s-1.34-1.13-1.83-1.88s-0.81-1.56-0.97-2.43c-0.16-0.88-0.15-1.75,0.03-2.62
								s0.53-1.67,1.03-2.41c0.5-0.73,1.13-1.34,1.88-1.83c0.75-0.49,1.56-0.81,2.43-0.97c0.88-0.16,1.75-0.15,2.62,0.03l0.43,0.09
								c0.87,0.18,1.67,0.53,2.41,1.03c0.73,0.5,1.34,1.13,1.83,1.88c0.49,0.75,0.81,1.56,0.97,2.43c0.16,0.88,0.15,1.75-0.03,2.62
								c-0.18,0.87-0.53,1.67-1.03,2.41c-0.5,0.73-1.13,1.34-1.88,1.83s-1.56,0.81-2.43,0.97
								C1032.04,42.71,1031.17,42.7,1030.3,42.52z M1058.98,44.54l-0.45,0.03c-0.89,0.06-1.75-0.06-2.6-0.35
								c-0.84-0.29-1.6-0.73-2.27-1.31c-0.67-0.59-1.2-1.28-1.59-2.08c-0.39-0.8-0.62-1.64-0.67-2.53c-0.06-0.89,0.06-1.75,0.35-2.6
								c0.29-0.84,0.73-1.6,1.31-2.27c0.59-0.67,1.28-1.2,2.08-1.59c0.8-0.39,1.64-0.62,2.53-0.67l0.45-0.03
								c0.89-0.06,1.75,0.06,2.6,0.35c0.84,0.29,1.6,0.73,2.27,1.31c0.67,0.59,1.2,1.28,1.59,2.08c0.39,0.8,0.62,1.64,0.67,2.53
								c0.06,0.89-0.06,1.75-0.35,2.6c-0.29,0.84-0.73,1.6-1.31,2.27c-0.59,0.67-1.28,1.2-2.08,1.59
								C1060.71,44.26,1059.87,44.49,1058.98,44.54z M1087.2,38.75l-0.42,0.15c-0.84,0.29-1.7,0.42-2.59,0.37s-1.73-0.27-2.54-0.65
								c-0.8-0.39-1.5-0.91-2.09-1.57c-0.59-0.66-1.04-1.42-1.33-2.26s-0.42-1.7-0.37-2.59c0.05-0.89,0.27-1.73,0.65-2.54
								s0.91-1.5,1.57-2.09c0.66-0.59,1.42-1.04,2.26-1.33l0.42-0.15c0.84-0.29,1.7-0.42,2.59-0.37c0.89,0.05,1.73,0.27,2.54,0.65
								c0.8,0.39,1.5,0.91,2.09,1.57c0.59,0.66,1.04,1.42,1.33,2.26c0.29,0.84,0.42,1.7,0.37,2.59c-0.05,0.89-0.27,1.73-0.65,2.54
								c-0.39,0.8-0.91,1.5-1.57,2.09C1088.79,38.01,1088.04,38.45,1087.2,38.75z M1112.82,25.54l-0.36,0.25
								c-0.73,0.51-1.53,0.86-2.4,1.05c-0.87,0.19-1.74,0.21-2.62,0.06c-0.88-0.15-1.69-0.47-2.44-0.95
								c-0.75-0.48-1.38-1.08-1.89-1.81s-0.86-1.53-1.05-2.4c-0.19-0.87-0.21-1.74-0.06-2.62c0.15-0.88,0.47-1.69,0.95-2.44
								c0.48-0.75,1.08-1.38,1.81-1.89l0.36-0.25c0.73-0.51,1.53-0.86,2.4-1.05c0.87-0.19,1.74-0.21,2.62-0.06s1.69,0.47,2.44,0.95
								c0.75,0.48,1.38,1.08,1.89,1.81c0.51,0.73,0.86,1.53,1.05,2.4c0.19,0.87,0.21,1.74,0.06,2.62s-0.47,1.69-0.95,2.44
								C1114.16,24.4,1113.55,25.03,1112.82,25.54z M1133.92,5.91l-0.28,0.34c-0.56,0.69-1.24,1.24-2.02,1.66
								c-0.79,0.42-1.62,0.67-2.51,0.76s-1.76,0-2.61-0.26c-0.85-0.26-1.62-0.67-2.31-1.23c-0.69-0.56-1.24-1.24-1.66-2.02
								c-0.42-0.79-0.67-1.62-0.76-2.51c-0.09-0.89,0-1.75,0.26-2.61c0.26-0.85,0.67-1.62,1.23-2.31l0.28-0.34
								c0.56-0.69,1.24-1.24,2.02-1.66c0.78-0.42,1.62-0.67,2.51-0.76c0.89-0.09,1.76,0,2.61,0.26s1.62,0.67,2.31,1.23
								s1.24,1.24,1.66,2.02c0.42,0.78,0.67,1.62,0.76,2.51c0.09,0.89,0,1.76-0.26,2.61C1134.9,4.45,1134.49,5.22,1133.92,5.91z
								 M1148.94-18.7l-0.18,0.41c-0.36,0.82-0.86,1.53-1.5,2.15c-0.64,0.62-1.38,1.09-2.21,1.41c-0.83,0.32-1.69,0.48-2.58,0.46
								c-0.89-0.02-1.74-0.21-2.56-0.56c-0.82-0.36-1.53-0.86-2.15-1.5c-0.62-0.64-1.09-1.38-1.41-2.21
								c-0.32-0.83-0.48-1.69-0.46-2.58c0.02-0.89,0.21-1.74,0.56-2.56l0.18-0.41c0.36-0.82,0.86-1.53,1.5-2.15
								c0.64-0.62,1.38-1.09,2.21-1.41c0.83-0.32,1.69-0.48,2.58-0.46c0.89,0.02,1.74,0.21,2.56,0.56c0.82,0.36,1.53,0.86,2.15,1.5
								c0.62,0.64,1.09,1.38,1.41,2.21s0.48,1.69,0.46,2.58C1149.49-20.36,1149.3-19.51,1148.94-18.7z M1156.76-46.44l-0.06,0.44
								c-0.12,0.88-0.41,1.71-0.86,2.47c-0.45,0.77-1.03,1.42-1.74,1.95c-0.71,0.54-1.5,0.91-2.36,1.14
								c-0.86,0.22-1.73,0.27-2.62,0.15c-0.88-0.12-1.71-0.41-2.47-0.86c-0.77-0.45-1.42-1.03-1.95-1.74
								c-0.54-0.71-0.91-1.5-1.14-2.36c-0.22-0.86-0.27-1.73-0.15-2.62l0.06-0.44c0.12-0.88,0.41-1.71,0.86-2.47
								c0.45-0.77,1.03-1.42,1.74-1.95c0.71-0.54,1.5-0.91,2.36-1.14c0.86-0.22,1.73-0.27,2.62-0.15c0.88,0.12,1.71,0.41,2.47,0.86
								c0.77,0.45,1.42,1.03,1.95,1.74c0.54,0.71,0.91,1.5,1.14,2.36C1156.83-48.19,1156.88-47.32,1156.76-46.44z M1156.8-75.17
								l0.06,0.44c0.12,0.88,0.06,1.75-0.17,2.61c-0.23,0.86-0.61,1.64-1.15,2.35c-0.54,0.71-1.2,1.28-1.97,1.73
								c-0.77,0.45-1.6,0.73-2.48,0.85c-0.88,0.12-1.75,0.06-2.61-0.17c-0.86-0.23-1.64-0.61-2.35-1.15
								c-0.71-0.54-1.28-1.2-1.73-1.97c-0.45-0.77-0.73-1.6-0.85-2.48l-0.06-0.44c-0.12-0.88-0.06-1.75,0.17-2.61
								c0.23-0.86,0.61-1.64,1.15-2.35c0.54-0.71,1.2-1.28,1.97-1.73c0.77-0.45,1.6-0.73,2.48-0.85c0.88-0.12,1.75-0.06,2.61,0.17
								c0.86,0.23,1.64,0.61,2.35,1.15c0.71,0.54,1.28,1.2,1.73,1.97C1156.4-76.88,1156.68-76.05,1156.8-75.17z M1149.07-102.94
								l0.17,0.41c0.35,0.82,0.53,1.67,0.55,2.56c0.01,0.89-0.15,1.75-0.48,2.58c-0.33,0.83-0.8,1.56-1.43,2.2
								c-0.62,0.64-1.34,1.13-2.16,1.48c-0.82,0.35-1.67,0.53-2.56,0.55c-0.89,0.01-1.75-0.15-2.58-0.48s-1.56-0.8-2.2-1.43
								s-1.13-1.34-1.48-2.16l-0.17-0.41c-0.35-0.82-0.53-1.67-0.55-2.56s0.15-1.75,0.48-2.58c0.33-0.83,0.8-1.56,1.43-2.2
								c0.62-0.64,1.34-1.13,2.16-1.48s1.67-0.53,2.56-0.55c0.89-0.01,1.75,0.15,2.58,0.48c0.83,0.33,1.56,0.8,2.2,1.43
								S1148.72-103.76,1149.07-102.94z M950.21-89.51l0.12-0.43c0.24-0.86,0.64-1.63,1.19-2.33c0.55-0.7,1.22-1.27,1.99-1.7
								c0.78-0.43,1.61-0.7,2.49-0.81c0.88-0.1,1.75-0.04,2.61,0.21c0.86,0.24,1.63,0.64,2.33,1.19c0.7,0.55,1.27,1.22,1.7,1.99
								c0.43,0.78,0.7,1.61,0.81,2.49c0.1,0.88,0.04,1.75-0.21,2.61l-0.12,0.43c-0.24,0.86-0.64,1.63-1.19,2.33
								c-0.55,0.7-1.22,1.27-1.99,1.7c-0.78,0.43-1.61,0.7-2.49,0.81c-0.88,0.1-1.75,0.04-2.61-0.21c-0.86-0.24-1.63-0.64-2.33-1.19
								c-0.7-0.55-1.27-1.22-1.7-1.99c-0.43-0.78-0.7-1.61-0.81-2.49C949.9-87.78,949.97-88.65,950.21-89.51z"/>
						</defs>
						<clipPath id="SVGID_4_">
							<use xlink:href="#SVGID_3_"  style="overflow:visible;"/>
						</clipPath>
						<rect x="1121.68" y="-5.11" class="st7" width="13.82" height="13.88"/>
						<rect x="1101.84" y="13.28" class="st7" width="13.9" height="13.79"/>
						<rect x="1077.81" y="25.66" class="st7" width="13.93" height="13.65"/>
						<rect x="1051.35" y="31.09" class="st7" width="13.96" height="13.54"/>
						<rect x="1024.5" y="29.09" class="st7" width="13.96" height="13.62"/>
						<rect x="999.11" y="19.88" class="st7" width="13.92" height="13.74"/>
						<rect x="977.2" y="4.2" class="st7" width="13.8" height="13.78"/>
					</g>
				</g>
			</g>
		</g>
	</g>
	<g class="st2">
		<g>
			<defs>
				<rect id="SVGID_5_" x="18.14" y="54.43" width="85.89" height="85.6"/>
			</defs>
			<clipPath id="SVGID_6_">
				<use xlink:href="#SVGID_5_"  style="overflow:visible;"/>
			</clipPath>
			<g class="st8">
				<defs>
					<rect id="SVGID_7_" x="17.84" y="54.14" width="86.48" height="86.19"/>
				</defs>
				<clipPath id="SVGID_8_">
					<use xlink:href="#SVGID_7_"  style="overflow:visible;"/>
				</clipPath>
				<g class="st9">
					<g>
						<defs>
							<path id="SVGID_9_" d="M103.68,97.15l0,0.18c0,0.36-0.07,0.7-0.21,1.03c-0.14,0.33-0.33,0.62-0.59,0.88
								c-0.25,0.25-0.55,0.45-0.88,0.58c-0.33,0.14-0.68,0.2-1.03,0.2c-0.36,0-0.7-0.07-1.03-0.21c-0.33-0.14-0.62-0.33-0.88-0.59
								s-0.45-0.55-0.58-0.88c-0.14-0.33-0.2-0.68-0.2-1.03l0-0.18c0-0.36,0.07-0.7,0.21-1.03c0.14-0.33,0.33-0.62,0.59-0.88
								c0.25-0.25,0.55-0.45,0.88-0.58c0.33-0.14,0.68-0.2,1.03-0.2c0.36,0,0.7,0.07,1.03,0.21c0.33,0.14,0.62,0.33,0.88,0.59
								c0.25,0.25,0.45,0.55,0.58,0.88C103.62,96.44,103.69,96.79,103.68,97.15z M102.14,85.78l0.05,0.17
								c0.09,0.35,0.12,0.7,0.08,1.05c-0.04,0.36-0.16,0.69-0.33,1c-0.18,0.31-0.41,0.58-0.69,0.8c-0.28,0.22-0.6,0.38-0.94,0.47
								c-0.35,0.1-0.7,0.12-1.05,0.08c-0.36-0.04-0.69-0.16-1-0.33c-0.31-0.18-0.58-0.41-0.8-0.69c-0.22-0.28-0.38-0.6-0.47-0.94
								l-0.05-0.17c-0.09-0.35-0.12-0.7-0.08-1.05c0.04-0.36,0.16-0.69,0.33-1s0.41-0.58,0.69-0.8c0.28-0.22,0.6-0.38,0.94-0.47
								c0.35-0.09,0.7-0.12,1.05-0.08c0.36,0.04,0.69,0.16,1,0.33c0.31,0.18,0.58,0.41,0.8,0.69
								C101.89,85.12,102.04,85.43,102.14,85.78z M97.55,75.13l0.09,0.15c0.18,0.31,0.3,0.64,0.36,0.99
								c0.05,0.35,0.04,0.71-0.05,1.05c-0.09,0.35-0.24,0.67-0.45,0.95c-0.21,0.29-0.47,0.52-0.78,0.71
								c-0.31,0.18-0.64,0.3-0.99,0.36c-0.35,0.05-0.71,0.04-1.05-0.05c-0.35-0.09-0.67-0.24-0.95-0.45s-0.52-0.47-0.71-0.78
								l-0.09-0.15c-0.18-0.31-0.3-0.64-0.36-0.99c-0.05-0.35-0.04-0.71,0.05-1.05c0.09-0.35,0.24-0.67,0.45-0.95
								c0.21-0.29,0.47-0.52,0.78-0.71c0.31-0.18,0.64-0.3,0.99-0.36c0.35-0.05,0.71-0.04,1.05,0.05c0.35,0.09,0.67,0.24,0.95,0.45
								C97.13,74.56,97.37,74.82,97.55,75.13z M90.25,66.11l0.13,0.12c0.26,0.25,0.46,0.53,0.61,0.86c0.15,0.33,0.23,0.67,0.24,1.03
								c0.01,0.36-0.05,0.7-0.18,1.04c-0.13,0.33-0.31,0.63-0.56,0.89c-0.25,0.26-0.53,0.46-0.86,0.61s-0.67,0.23-1.03,0.24
								c-0.36,0.01-0.7-0.05-1.04-0.18c-0.34-0.13-0.63-0.31-0.89-0.56l-0.13-0.12c-0.26-0.25-0.46-0.53-0.61-0.86
								c-0.15-0.33-0.23-0.67-0.24-1.03c-0.01-0.36,0.05-0.7,0.18-1.04c0.13-0.33,0.31-0.63,0.56-0.89
								c0.25-0.26,0.53-0.46,0.86-0.61c0.33-0.15,0.67-0.23,1.03-0.24c0.36-0.01,0.7,0.05,1.04,0.18
								C89.69,65.68,89.99,65.86,90.25,66.11z M80.79,59.4l0.16,0.08c0.32,0.17,0.59,0.39,0.82,0.66c0.23,0.28,0.4,0.58,0.5,0.93
								c0.11,0.34,0.14,0.69,0.11,1.05c-0.03,0.36-0.13,0.69-0.3,1.01s-0.39,0.59-0.66,0.82c-0.28,0.23-0.58,0.4-0.93,0.5
								c-0.34,0.11-0.69,0.14-1.05,0.11c-0.36-0.03-0.69-0.13-1.01-0.3l-0.16-0.08c-0.32-0.17-0.59-0.39-0.82-0.66
								c-0.23-0.28-0.4-0.58-0.5-0.93c-0.11-0.34-0.14-0.69-0.11-1.05c0.03-0.36,0.13-0.69,0.3-1.01c0.17-0.32,0.39-0.59,0.66-0.82
								s0.58-0.4,0.93-0.5c0.34-0.11,0.69-0.14,1.05-0.11C80.14,59.13,80.48,59.23,80.79,59.4z M69.87,55.49l0.17,0.04
								c0.35,0.07,0.67,0.21,0.97,0.42c0.3,0.2,0.54,0.45,0.74,0.76c0.2,0.3,0.33,0.63,0.39,0.98c0.07,0.35,0.06,0.7-0.01,1.05
								c-0.07,0.35-0.21,0.67-0.42,0.97c-0.2,0.3-0.45,0.54-0.76,0.74c-0.3,0.2-0.63,0.33-0.98,0.39c-0.35,0.07-0.7,0.06-1.05-0.01
								l-0.17-0.04c-0.35-0.07-0.67-0.21-0.97-0.42c-0.3-0.2-0.54-0.45-0.74-0.76c-0.2-0.3-0.33-0.63-0.39-0.98
								c-0.07-0.35-0.06-0.7,0.01-1.05c0.07-0.35,0.21-0.67,0.42-0.97c0.2-0.3,0.45-0.54,0.76-0.74c0.3-0.2,0.63-0.33,0.98-0.39
								C69.16,55.41,69.52,55.41,69.87,55.49z M58.32,54.67l0.18-0.01c0.36-0.02,0.71,0.02,1.05,0.14c0.34,0.12,0.64,0.29,0.91,0.53
								c0.27,0.24,0.48,0.52,0.64,0.84c0.16,0.32,0.25,0.66,0.27,1.02c0.02,0.36-0.02,0.71-0.14,1.05
								c-0.12,0.34-0.29,0.64-0.53,0.91c-0.24,0.27-0.52,0.48-0.84,0.64c-0.32,0.16-0.66,0.25-1.02,0.27l-0.18,0.01
								c-0.36,0.02-0.71-0.02-1.05-0.14c-0.34-0.12-0.64-0.29-0.91-0.53c-0.27-0.24-0.48-0.52-0.64-0.84
								c-0.16-0.32-0.25-0.66-0.27-1.02c-0.02-0.36,0.02-0.71,0.14-1.05c0.12-0.34,0.29-0.64,0.53-0.91
								c0.24-0.27,0.52-0.48,0.84-0.64C57.63,54.78,57.96,54.69,58.32,54.67z M46.96,57l0.17-0.06c0.34-0.12,0.69-0.17,1.04-0.15
								c0.36,0.02,0.7,0.11,1.02,0.26c0.32,0.16,0.6,0.37,0.84,0.63c0.24,0.27,0.42,0.57,0.54,0.91c0.12,0.34,0.17,0.69,0.15,1.04
								c-0.02,0.36-0.11,0.7-0.26,1.02c-0.16,0.32-0.37,0.6-0.63,0.84c-0.27,0.24-0.57,0.42-0.91,0.54l-0.17,0.06
								c-0.34,0.12-0.69,0.17-1.04,0.15c-0.36-0.02-0.7-0.11-1.02-0.26c-0.32-0.16-0.6-0.37-0.84-0.63
								c-0.24-0.27-0.42-0.57-0.54-0.91c-0.12-0.34-0.17-0.69-0.15-1.04c0.02-0.36,0.11-0.7,0.26-1.02c0.16-0.32,0.37-0.6,0.63-0.84
								C46.32,57.3,46.62,57.12,46.96,57z M36.65,62.32l0.15-0.1c0.29-0.21,0.62-0.35,0.97-0.42c0.35-0.08,0.7-0.08,1.05-0.02
								c0.35,0.06,0.68,0.19,0.98,0.38c0.3,0.19,0.56,0.44,0.76,0.73c0.21,0.29,0.35,0.62,0.42,0.97c0.08,0.35,0.08,0.7,0.02,1.05
								s-0.19,0.68-0.38,0.98c-0.19,0.3-0.44,0.56-0.73,0.76l-0.15,0.1c-0.29,0.21-0.62,0.35-0.97,0.42
								c-0.35,0.08-0.7,0.08-1.05,0.02c-0.35-0.06-0.68-0.19-0.98-0.38c-0.3-0.19-0.56-0.44-0.76-0.73
								c-0.21-0.29-0.35-0.62-0.42-0.97c-0.08-0.35-0.08-0.7-0.02-1.05c0.06-0.35,0.19-0.68,0.38-0.98
								C36.11,62.78,36.35,62.52,36.65,62.32z M28.15,70.22l0.11-0.14c0.23-0.28,0.5-0.5,0.81-0.67c0.32-0.17,0.65-0.27,1.01-0.31
								c0.36-0.04,0.71,0,1.05,0.1c0.34,0.1,0.65,0.27,0.93,0.5c0.28,0.23,0.5,0.5,0.67,0.81c0.17,0.32,0.27,0.65,0.31,1.01
								c0.04,0.36,0,0.71-0.1,1.05c-0.1,0.34-0.27,0.65-0.5,0.93l-0.11,0.14c-0.23,0.28-0.5,0.5-0.81,0.67
								c-0.32,0.17-0.65,0.27-1.01,0.31c-0.36,0.04-0.71,0-1.05-0.1c-0.34-0.1-0.65-0.27-0.93-0.5c-0.28-0.23-0.5-0.5-0.67-0.81
								c-0.17-0.32-0.27-0.65-0.31-1.01c-0.04-0.36,0-0.71,0.1-1.05S27.93,70.5,28.15,70.22z M22.11,80.13l0.07-0.16
								c0.14-0.33,0.35-0.62,0.6-0.86c0.26-0.25,0.55-0.44,0.89-0.57c0.33-0.13,0.68-0.19,1.04-0.18c0.36,0.01,0.7,0.08,1.03,0.23
								c0.33,0.14,0.62,0.35,0.86,0.6c0.25,0.26,0.44,0.55,0.57,0.89c0.13,0.33,0.19,0.68,0.18,1.04c-0.01,0.36-0.08,0.7-0.23,1.03
								l-0.07,0.16c-0.14,0.33-0.35,0.62-0.6,0.86c-0.26,0.25-0.55,0.44-0.89,0.57c-0.33,0.13-0.68,0.19-1.04,0.18
								c-0.36-0.01-0.7-0.08-1.03-0.23c-0.33-0.14-0.62-0.35-0.86-0.6c-0.25-0.26-0.44-0.55-0.57-0.89
								c-0.13-0.33-0.19-0.68-0.18-1.04C21.89,80.8,21.96,80.45,22.11,80.13z M18.96,91.29l0.02-0.18c0.05-0.35,0.17-0.69,0.35-1
								c0.18-0.31,0.42-0.57,0.7-0.79c0.29-0.22,0.6-0.37,0.95-0.46c0.35-0.09,0.7-0.11,1.05-0.06c0.35,0.05,0.69,0.17,1,0.35
								c0.31,0.18,0.57,0.42,0.79,0.7c0.22,0.29,0.37,0.6,0.46,0.95c0.09,0.35,0.11,0.7,0.06,1.05l-0.02,0.18
								c-0.05,0.35-0.17,0.69-0.35,1c-0.18,0.31-0.42,0.57-0.7,0.79c-0.29,0.22-0.6,0.37-0.95,0.46c-0.35,0.09-0.7,0.11-1.05,0.06
								c-0.35-0.05-0.69-0.17-1-0.35c-0.31-0.18-0.57-0.42-0.79-0.7c-0.22-0.29-0.37-0.6-0.46-0.95
								C18.93,92,18.91,91.65,18.96,91.29z M18.94,102.86l-0.02-0.18c-0.05-0.36-0.03-0.71,0.07-1.05c0.09-0.35,0.25-0.66,0.46-0.95
								c0.22-0.28,0.48-0.52,0.79-0.7c0.31-0.18,0.64-0.29,1-0.34c0.36-0.05,0.71-0.02,1.05,0.07c0.35,0.09,0.66,0.25,0.95,0.46
								c0.28,0.22,0.52,0.48,0.7,0.79c0.18,0.31,0.29,0.64,0.34,1l0.02,0.18c0.05,0.36,0.03,0.71-0.07,1.05
								c-0.09,0.35-0.25,0.66-0.46,0.95c-0.22,0.28-0.48,0.52-0.79,0.7c-0.31,0.18-0.64,0.29-1,0.34c-0.36,0.05-0.71,0.03-1.05-0.07
								c-0.35-0.09-0.66-0.25-0.95-0.46c-0.28-0.22-0.52-0.48-0.7-0.79C19.1,103.55,18.99,103.21,18.94,102.86z M22.06,114.04
								l-0.07-0.16c-0.14-0.33-0.21-0.67-0.22-1.03c0-0.36,0.06-0.7,0.19-1.04c0.13-0.33,0.32-0.63,0.57-0.88
								c0.25-0.26,0.54-0.46,0.87-0.6c0.33-0.14,0.67-0.21,1.03-0.22c0.36,0,0.7,0.06,1.04,0.19c0.33,0.13,0.63,0.32,0.88,0.57
								c0.26,0.25,0.46,0.54,0.6,0.87l0.07,0.16c0.14,0.33,0.21,0.67,0.22,1.03c0,0.36-0.06,0.7-0.19,1.04
								c-0.13,0.33-0.32,0.63-0.57,0.88c-0.25,0.26-0.54,0.46-0.87,0.6s-0.67,0.21-1.03,0.22c-0.36,0-0.7-0.06-1.04-0.19
								c-0.33-0.13-0.63-0.32-0.88-0.57C22.4,114.66,22.2,114.37,22.06,114.04z M28.07,123.96l-0.11-0.14
								c-0.23-0.28-0.39-0.59-0.49-0.93c-0.1-0.34-0.13-0.69-0.1-1.05c0.04-0.36,0.14-0.69,0.31-1.01c0.17-0.31,0.4-0.58,0.68-0.81
								c0.28-0.23,0.59-0.39,0.93-0.49c0.34-0.1,0.69-0.13,1.05-0.1c0.36,0.04,0.69,0.14,1.01,0.31c0.31,0.17,0.58,0.4,0.81,0.68
								l0.11,0.14c0.23,0.28,0.39,0.59,0.49,0.93s0.13,0.69,0.1,1.05c-0.04,0.36-0.14,0.69-0.31,1.01c-0.17,0.31-0.4,0.58-0.68,0.81
								c-0.28,0.23-0.59,0.39-0.93,0.49c-0.34,0.1-0.69,0.13-1.05,0.1c-0.36-0.04-0.69-0.14-1.01-0.31
								C28.57,124.47,28.3,124.24,28.07,123.96z M36.54,131.89l-0.1-0.07l-0.05-0.03c-0.29-0.21-0.53-0.46-0.72-0.77
								c-0.19-0.3-0.31-0.63-0.37-0.99c-0.06-0.35-0.05-0.7,0.03-1.05c0.08-0.35,0.22-0.67,0.43-0.96c0.21-0.29,0.46-0.53,0.77-0.72
								s0.63-0.31,0.99-0.37c0.35-0.06,0.7-0.05,1.05,0.03c0.35,0.08,0.67,0.22,0.96,0.43l0.04,0.03l0.1,0.07
								c0.29,0.21,0.53,0.46,0.72,0.77c0.19,0.3,0.32,0.63,0.38,0.99c0.06,0.35,0.05,0.7-0.03,1.05c-0.08,0.35-0.22,0.67-0.43,0.96
								c-0.21,0.29-0.46,0.53-0.77,0.72c-0.3,0.19-0.63,0.32-0.99,0.38c-0.35,0.06-0.7,0.05-1.05-0.03S36.83,132.1,36.54,131.89z
								 M46.84,137.24l-0.17-0.06c-0.34-0.12-0.64-0.3-0.9-0.54c-0.27-0.24-0.47-0.52-0.63-0.85c-0.15-0.32-0.24-0.67-0.26-1.02
								c-0.02-0.36,0.03-0.71,0.16-1.04c0.12-0.34,0.3-0.64,0.54-0.9c0.24-0.27,0.52-0.47,0.85-0.63c0.32-0.15,0.67-0.24,1.02-0.26
								c0.36-0.02,0.71,0.03,1.04,0.16l0.17,0.06c0.34,0.12,0.64,0.3,0.9,0.54c0.27,0.24,0.47,0.52,0.63,0.85s0.24,0.67,0.26,1.02
								s-0.03,0.71-0.16,1.04c-0.12,0.34-0.3,0.64-0.54,0.9c-0.24,0.27-0.52,0.47-0.85,0.63c-0.32,0.15-0.67,0.24-1.02,0.26
								C47.52,137.41,47.18,137.36,46.84,137.24z M58.19,139.6l-0.14-0.01l-0.05,0c-0.36-0.03-0.7-0.12-1.02-0.28
								c-0.32-0.16-0.6-0.38-0.83-0.65c-0.23-0.27-0.41-0.58-0.52-0.92c-0.11-0.34-0.16-0.69-0.13-1.05
								c0.03-0.36,0.12-0.7,0.28-1.02c0.16-0.32,0.38-0.6,0.65-0.83c0.27-0.23,0.58-0.41,0.92-0.52c0.34-0.11,0.69-0.16,1.05-0.13
								l0.04,0l0.14,0.01c0.36,0.03,0.7,0.12,1.02,0.28c0.32,0.16,0.6,0.38,0.83,0.65s0.41,0.58,0.52,0.92
								c0.11,0.34,0.16,0.69,0.13,1.05c-0.03,0.36-0.12,0.7-0.28,1.02c-0.16,0.32-0.38,0.6-0.65,0.83
								c-0.27,0.23-0.58,0.41-0.92,0.52C58.9,139.59,58.55,139.63,58.19,139.6z M69.74,138.82l-0.17,0.04
								c-0.35,0.07-0.7,0.07-1.05,0.01c-0.35-0.07-0.68-0.2-0.98-0.4c-0.3-0.2-0.55-0.44-0.75-0.74c-0.2-0.3-0.34-0.62-0.41-0.97
								c-0.07-0.35-0.07-0.7-0.01-1.05c0.07-0.35,0.2-0.68,0.4-0.98c0.2-0.3,0.44-0.55,0.74-0.75c0.3-0.2,0.62-0.34,0.97-0.41
								l0.17-0.04c0.35-0.07,0.7-0.07,1.05-0.01c0.35,0.07,0.68,0.2,0.98,0.4c0.3,0.2,0.55,0.44,0.75,0.74
								c0.2,0.3,0.34,0.62,0.41,0.97c0.07,0.35,0.07,0.7,0.01,1.05c-0.07,0.35-0.2,0.68-0.4,0.98s-0.44,0.55-0.74,0.75
								C70.42,138.62,70.09,138.75,69.74,138.82z M80.68,134.95l-0.16,0.08c-0.32,0.16-0.66,0.26-1.01,0.29
								c-0.36,0.03-0.71-0.01-1.05-0.12c-0.34-0.11-0.65-0.28-0.92-0.51c-0.27-0.23-0.49-0.51-0.66-0.83
								c-0.16-0.32-0.26-0.66-0.29-1.01c-0.03-0.36,0.01-0.71,0.12-1.05c0.11-0.34,0.28-0.65,0.51-0.92
								c0.23-0.27,0.51-0.49,0.83-0.66l0.16-0.08c0.32-0.16,0.66-0.26,1.01-0.29c0.36-0.03,0.71,0.01,1.05,0.12
								c0.34,0.11,0.65,0.28,0.92,0.51c0.27,0.23,0.49,0.51,0.66,0.83c0.16,0.32,0.26,0.66,0.29,1.01c0.03,0.36-0.01,0.71-0.12,1.05
								c-0.11,0.34-0.28,0.65-0.51,0.92C81.27,134.56,81,134.78,80.68,134.95z M90.16,128.26l-0.13,0.12
								c-0.26,0.24-0.56,0.43-0.9,0.55c-0.34,0.12-0.68,0.18-1.04,0.17c-0.36-0.01-0.7-0.09-1.03-0.24
								c-0.33-0.15-0.61-0.36-0.85-0.62c-0.24-0.26-0.43-0.56-0.55-0.9c-0.12-0.34-0.18-0.68-0.17-1.04
								c0.01-0.36,0.09-0.7,0.24-1.03c0.15-0.33,0.36-0.61,0.62-0.85l0.13-0.12c0.26-0.24,0.56-0.43,0.9-0.55
								c0.34-0.12,0.68-0.18,1.04-0.17c0.36,0.01,0.7,0.09,1.03,0.24c0.33,0.15,0.61,0.36,0.85,0.62s0.43,0.56,0.55,0.9
								c0.12,0.34,0.18,0.68,0.17,1.04c-0.01,0.36-0.09,0.7-0.24,1.03C90.63,127.74,90.42,128.02,90.16,128.26z M97.48,119.27
								l-0.09,0.15c-0.19,0.31-0.43,0.56-0.71,0.78c-0.29,0.21-0.61,0.36-0.96,0.44c-0.35,0.08-0.7,0.1-1.05,0.04
								c-0.35-0.06-0.68-0.18-0.99-0.36c-0.31-0.19-0.56-0.43-0.78-0.71c-0.21-0.29-0.36-0.61-0.44-0.96s-0.1-0.7-0.04-1.05
								c0.06-0.35,0.18-0.68,0.36-0.99l0.09-0.15c0.19-0.31,0.43-0.56,0.71-0.78c0.29-0.21,0.61-0.36,0.96-0.44
								c0.35-0.08,0.7-0.1,1.05-0.04c0.35,0.06,0.68,0.18,0.99,0.36c0.31,0.19,0.56,0.43,0.78,0.71c0.21,0.29,0.36,0.61,0.44,0.96
								c0.08,0.35,0.1,0.7,0.04,1.05C97.79,118.63,97.67,118.96,97.48,119.27z M102.1,108.63l-0.05,0.17
								c-0.1,0.34-0.26,0.66-0.48,0.94c-0.22,0.28-0.49,0.51-0.8,0.68c-0.31,0.17-0.65,0.28-1,0.33c-0.36,0.04-0.71,0.01-1.05-0.08
								c-0.34-0.1-0.66-0.26-0.94-0.48c-0.28-0.22-0.51-0.49-0.68-0.8c-0.17-0.31-0.28-0.65-0.33-1c-0.04-0.36-0.01-0.71,0.08-1.05
								l0.05-0.17c0.1-0.34,0.26-0.66,0.48-0.94c0.22-0.28,0.49-0.51,0.8-0.68c0.31-0.17,0.65-0.28,1-0.33
								c0.36-0.04,0.71-0.01,1.05,0.08c0.34,0.1,0.66,0.26,0.94,0.48c0.28,0.22,0.51,0.49,0.68,0.8c0.17,0.31,0.28,0.65,0.33,1
								C102.23,107.94,102.2,108.29,102.1,108.63z"/>
						</defs>
						<clipPath id="SVGID_10_">
							<use xlink:href="#SVGID_9_"  style="overflow:visible;"/>
						</clipPath>
						<rect x="18.87" y="99.6" class="st10" width="5.48" height="5.63"/>
						<rect x="18.91" y="88.77" class="st10" width="5.48" height="5.63"/>
						<rect x="21.87" y="78.34" class="st10" width="5.49" height="5.58"/>
						<rect x="27.52" y="69.07" class="st10" width="5.56" height="5.59"/>
						<rect x="35.47" y="61.71" class="st10" width="5.59" height="5.55"/>
						<rect x="45.14" y="56.78" class="st10" width="5.61" height="5.5"/>
						<rect x="55.77" y="54.64" class="st10" width="5.62" height="5.45"/>
						<rect x="66.58" y="55.41" class="st10" width="5.62" height="5.48"/>
						<rect x="76.82" y="59.07" class="st10" width="5.6" height="5.53"/>
						<rect x="85.69" y="65.36" class="st10" width="5.55" height="5.55"/>
						<rect x="92.51" y="73.8" class="st10" width="5.54" height="5.6"/>
						<rect x="96.81" y="83.77" class="st10" width="5.5" height="5.63"/>
						<rect x="98.28" y="94.44" class="st10" width="5.41" height="5.58"/>
						<rect x="103.68" y="94.44" class="st10" width="0" height="5.58"/>
					</g>
				</g>
			</g>
		</g>
	</g>
	<g class="st2">
		
			<ellipse transform="matrix(0.2298 -0.9732 0.9732 0.2298 465.4269 714.5682)" class="st3" cx="684.16" cy="63.24" rx="17.38" ry="17.38"/>
		<rect x="666.75" y="45.61" class="st4" width="35" height="35.3"/>
	</g>
	<g class="st2">
		
			<ellipse transform="matrix(0.2298 -0.9732 0.9732 0.2298 976.554 1310.4054)" class="st3" cx="1316.16" cy="38.24" rx="17.38" ry="17.38"/>
		<rect x="1298.75" y="20.61" class="st4" width="35" height="35.3"/>
	</g>
	<g class="st2">
		
			<ellipse transform="matrix(0.7071 -0.7071 0.7071 0.7071 110.2902 249.5579)" class="st3" cx="356.39" cy="-8.35" rx="51.17" ry="51.17"/>
		<rect x="304.94" y="0.31" class="st4" width="102.66" height="42.65"/>
	</g>
	<g class="st2">
		
			<ellipse transform="matrix(0.7071 -0.7071 0.7071 0.7071 412.7362 1005.7271)" class="st3" cx="1420.39" cy="4.65" rx="51.17" ry="51.17"/>
		<rect x="1368.94" y="13.31" class="st4" width="102.66" height="42.65"/>
	</g>
	<g class="st2">
		
			<ellipse transform="matrix(0.7071 -0.7071 0.7071 0.7071 185.9996 651.4285)" class="st3" cx="879.34" cy="101.19" rx="31.72" ry="31.72"/>
	</g>
	<g class="st2">
		<circle class="st3" cx="220.15" cy="56.53" r="26.88"/>
		<rect x="193" y="29.23" class="st4" width="54.35" height="54.35"/>
	</g>
</g>
</svg>
