<?xml version="1.0" encoding="utf-8"?>
<!-- Generator: Adobe Illustrator 25.2.2, SVG Export Plug-In . SVG Version: 6.00 Build 0)  -->
<svg version="1.1" id="Layer_1" xmlns="http://www.w3.org/2000/svg" xmlns:xlink="http://www.w3.org/1999/xlink" x="0px" y="0px"
	 viewBox="0 0 504 252" style="enable-background:new 0 0 504 252;" xml:space="preserve">
<style type="text/css">
	.st0{fill:#FFFFFF;}
	.st1{fill:none;stroke:#231F20;stroke-width:2.37;stroke-linecap:round;stroke-miterlimit:10;}
	.st2{fill:#CF202F;}
	.st3{fill:none;stroke:#000000;stroke-width:2.37;stroke-miterlimit:10;}
	.st4{fill:#AA1A27;}
	.st5{fill:none;stroke:#231F20;stroke-width:2.37;stroke-miterlimit:10;}
	.st6{fill:#231F20;}
</style>
<circle class="st0" cx="252" cy="139" r="255.6"/>
<g>
	<g>
		<path class="st1" d="M151.6,161.6c0,0-31.1-51.9-89.7-36.1"/>
		<path class="st1" d="M211.4,104.2c0,0-26.7-66.5-96.1-56.5"/>
		<path class="st2" d="M136.3,56.7c-2.5-0.2-5-0.4-7.6-0.4c-43.8,0-79.3,35.6-79.3,79.3s35.6,79.4,79.3,79.4
			c18.5,0,36.5-6.5,50.7-18.3c4.5-3.8,11.2-3.1,15,1.4c3.8,4.5,3.1,11.2-1.4,15c-18,15-40.9,23.3-64.4,23.3
			C73.2,236.4,28,191.2,28,135.7S73.2,35,128.7,35c2.8,0,5.5,0.1,8.2,0.3"/>
		<path class="st3" d="M136.3,56.7c-2.5-0.2-5-0.4-7.6-0.4c-43.8,0-79.3,35.6-79.3,79.3s35.6,79.4,79.3,79.4
			c18.5,0,36.5-6.5,50.7-18.3c4.5-3.8,11.2-3.1,15,1.4c3.8,4.5,3.1,11.2-1.4,15c-18,15-40.9,23.3-64.4,23.3
			C73.2,236.4,28,191.2,28,135.7S73.2,35,128.7,35c2.8,0,5.5,0.1,8.2,0.3"/>
		<path class="st4" d="M206.8,106.2c-4.3,0-8.4-2.7-10-6.9c-0.8-2.2-20.7-52.1-90.8-40c-5.8,1-11.3-2.9-12.3-8.7
			c-1-5.8,2.9-11.3,8.7-12.3c45.6-7.9,74.3,6.8,90.2,20.6c17.5,15.1,24,32.3,24.2,33c2,5.5-0.8,11.7-6.3,13.7
			C209.2,106,208,106.2,206.8,106.2"/>
		<path class="st5" d="M206.8,106.2c-4.3,0-8.4-2.7-10-6.9c-0.8-2.2-20.7-52.1-90.8-40c-5.8,1-11.3-2.9-12.3-8.7
			c-1-5.8,2.9-11.3,8.7-12.3c45.6-7.9,74.3,6.8,90.2,20.6c17.5,15.1,24,32.3,24.2,33c2,5.5-0.8,11.7-6.3,13.7
			C209.2,106,208,106.2,206.8,106.2z"/>
		<path class="st2" d="M145.6,51.3c0,19.7-14.9,35.7-33.2,35.7S79.3,71,79.3,51.3s14.9-35.7,33.2-35.7
			C130.8,15.6,145.6,31.6,145.6,51.3"/>
		<path class="st5" d="M145.6,51.3c0,19.7-14.9,35.7-33.2,35.7S79.3,71,79.3,51.3s14.9-35.7,33.2-35.7
			C130.8,15.6,145.6,31.6,145.6,51.3z"/>
		<path class="st2" d="M154.3,188c-2.9,0-5.6-1.4-7.2-3.9c-0.2-0.3-23.3-35-55.5-38.4c-17.1-1.8-34.2,5.6-51,22
			c-3.4,3.3-8.8,3.3-12.1-0.1c-3.3-3.4-3.3-8.8,0.1-12.1c20.6-20.2,42.5-29.3,64.9-26.8c26.8,2.9,47.5,21.6,58.7,34.3
			c11.2-22.6,25.4-37.1,42.1-43.2c20.6-7.6,37.4,0.8,38.1,1.1c4.2,2.2,5.9,7.3,3.7,11.6c-2.1,4.2-7.3,5.9-11.5,3.8
			c-0.6-0.3-11.3-5.3-24.7-0.2c-14.2,5.4-26.9,20.7-36.7,44.2l-1,2.5c-1.2,3-3.9,5-7.1,5.4C154.8,188,154.6,188,154.3,188"/>
		<path class="st5" d="M154.3,188c-2.9,0-5.6-1.4-7.2-3.9c-0.2-0.3-23.3-35-55.5-38.4c-17.1-1.8-34.2,5.6-51,22
			c-3.4,3.3-8.8,3.3-12.1-0.1c-3.3-3.4-3.3-8.8,0.1-12.1c20.6-20.2,42.5-29.3,64.9-26.8c26.8,2.9,47.5,21.6,58.7,34.3
			c11.2-22.6,25.4-37.1,42.1-43.2c20.6-7.6,37.4,0.8,38.1,1.1c4.2,2.2,5.9,7.3,3.7,11.6c-2.1,4.2-7.3,5.9-11.5,3.8
			c-0.6-0.3-11.3-5.3-24.7-0.2c-14.2,5.4-26.9,20.7-36.7,44.2l-1,2.5c-1.2,3-3.9,5-7.1,5.4C154.8,188,154.6,188,154.3,188z"/>
		<path class="st4" d="M152.4,164.8c0,0,1.8,12.7-3.4,19.5l-0.1,0.2c0,0,3.1,3.6,8,1.9c0,0,2.7-0.9,4.1-3.7l2.3-5.5
			c0,0,5.8-13.1,9.4-18s9-13.6,19.1-20.5c0,0,9.8-7.1,22.8-6.2c0,0,4.3,0.3,8,1.4c0,0,3.2,1.3,3.7,1.5c0,0,3.7,1.3,6.7-1
			c0,0,5.2-4.1,2-9.7c0,0-1.1-2.9-6.9-4.4c0,0-7.2-2.8-15.7-2.6c0,0-13.1-1.1-27.9,8.2c0,0-9.3,5.3-17.4,15.8
			C166.9,141.7,158.9,151.4,152.4,164.8"/>
		<path class="st1" d="M152.5,161.6c-1.3,1.3,11.6-41.9,50.6-51.9"/>
	</g>
	<path class="st6" d="M224.5,154.2c0-3.1-1.3-3.8-2-4.1c-1.1-0.6-2.4-0.6-3-0.6h-6.6v9.6h6.6c2.2,0,3.2-0.7,3.6-1.1
		C224.5,156.9,224.5,155.1,224.5,154.2z M209.4,146.2h11.1c3.3,0,4.6,1.4,5.3,2.1c2,2.1,2,4.6,2,5.9c0,3.2-1.2,4.9-1.8,5.6
		c-1.8,2.4-4.3,2.4-5.5,2.4h-7.7V174h-3.3L209.4,146.2L209.4,146.2z"/>
	<path class="st6" d="M231.7,153.8h2.9v3.5c0.4-1,1.3-2,1.7-2.5c1.4-1.5,2.6-1.5,3.2-1.5c0.1,0,0.2,0,0.3,0c0.2,0,0.5,0.1,0.7,0.1
		v3.6c-0.3-0.1-0.4-0.1-0.5-0.1c-0.2,0-0.4,0-0.5,0c-2.3,0-3.1,1.1-3.5,1.6c-1.2,1.6-1.2,3.1-1.2,3.8V174h-3V153.8z"/>
	<path class="st6" d="M250.3,153.2c3.5,0,5.1,1.7,5.9,2.6c2.4,2.6,2.4,6,2.4,7.7c0,4.9-1.4,7-2.1,8.1c-2.1,3.2-5.1,3.2-6.6,3.2
		c-3.7,0-5.1-1.9-5.9-2.8c-2.2-2.8-2.2-6-2.2-7.6c0-5.1,1.5-7.1,2.3-8.1C246.4,153.2,249,153.2,250.3,153.2z M250.1,171.8
		c3,0,3.7-1.7,4.1-2.6c1.1-2.6,1.1-4.6,1.1-5.7c0-2.8-0.5-4-0.8-4.6c-1.3-2.8-3.4-2.8-4.4-2.8c-2.8,0-3.6,1.6-4,2.4
		c-1.3,2.4-1.3,4.6-1.3,5.7c0,3.2,0.8,4.7,1.3,5.4C247.4,171.8,249.2,171.8,250.1,171.8z"/>
	<path class="st6" d="M259.2,179.1c2-0.1,2.3-0.3,2.4-0.4c0.4-0.3,0.4-1.5,0.4-2.1v-22.8h3V177c0,2.2-0.4,2.9-0.6,3.3
		c-1,1.9-3,1.9-4,1.9c-0.2,0-0.4,0-0.5,0c-0.2,0-0.6-0.1-0.8-0.1V179.1z M265.1,150.2h-3v-3.9h3V150.2z"/>
	<path class="st6" d="M282,162.2c-0.2-2.2-0.6-3.1-0.9-3.5c-1.2-2.4-3.2-2.4-4.1-2.4c-2.1,0-3,1.1-3.5,1.7c-1.4,1.7-1.5,3.4-1.5,4.3
		H282z M277.2,153.3c1.9,0,3.1,0.7,3.7,1c1.8,1,2.4,2.1,2.7,2.6c0.9,1.5,1.1,2.9,1.2,3.6c0.3,1.4,0.3,3.4,0.3,4.4h-13.1
		c0.1,3.1,0.9,4.3,1.3,4.9c1.2,1.9,2.9,1.9,3.7,1.9c2.4,0,3.3-1.2,3.8-1.8c0.8-1,1-1.9,1.1-2.4h3c-0.1,1.1-0.6,2-0.8,2.5
		c-0.7,1.4-1.2,1.9-1.5,2.2c-1.4,1.5-2.7,1.9-3.4,2c-1.1,0.3-2,0.3-2.5,0.3c-3.4,0-4.9-1.8-5.7-2.7c-2.3-2.7-2.3-6-2.3-7.7
		c0-4.9,1.6-6.9,2.3-7.9C273.4,153.3,275.9,153.3,277.2,153.3z"/>
	<path class="st6" d="M295.7,153.2c3,0,4.3,1.1,4.9,1.7c1.9,1.7,2.2,4.4,2.3,5.7H300c-0.3-1.9-0.9-2.7-1.2-3.1
		c-1-1.2-2.4-1.2-3.1-1.2c-2.9,0-3.7,2.1-4.1,3.2c-0.8,2.1-0.8,4.1-0.8,5.1c0,3,0.8,4.4,1.1,5.1c1.1,2.1,2.8,2.1,3.6,2.1
		c1.9,0,2.6-0.9,3-1.3c1.1-1.3,1.4-2.8,1.5-3.5h2.9c-0.5,4-1.8,5.3-2.5,5.9c-2,1.9-4.1,1.9-5.1,1.9c-3.5,0-4.9-1.9-5.6-2.9
		c-2.1-2.9-2.1-5.8-2.1-7.2c0-5.3,1.5-7.3,2.3-8.3C292.1,153.2,294.5,153.2,295.7,153.2z"/>
	<path class="st6" d="M306.5,148.1h3v5.6h2.9v2.8h-2.9v13.2c0,1.1,0.4,1.3,0.6,1.4c0.4,0.2,0.9,0.2,1.2,0.2c0.2,0,0.4,0,0.5,0
		c0.2,0,0.5,0,0.6-0.1v2.7c-0.5,0.2-0.9,0.2-1.1,0.2c-0.6,0.1-1,0.1-1.2,0.1c-2.1,0-2.6-0.8-2.9-1.2c-0.8-1.2-0.8-2.5-0.8-3.2v-13.4
		h-2.4v-2.8h2.4L306.5,148.1L306.5,148.1z"/>
	<path class="st6" d="M325.8,146.2h11.4c2.8,0,4,0.6,4.6,0.9c3.5,1.8,3.5,5,3.5,6.6c0,2.5-0.6,3.6-0.9,4.1c-0.9,1.6-2,2.2-2.5,2.6
		c1.4,0.7,1.9,1.4,2.2,1.7c0.7,1.1,0.8,2.7,0.8,3.5l0.1,3.7c0,1.6,0.2,2.1,0.2,2.4c0.3,1.3,0.8,1.6,1.1,1.7v0.6h-4.1
		c-0.2-0.4-0.2-0.7-0.3-0.9c-0.1-0.6-0.1-1.6-0.2-2.2l-0.2-4.6c-0.1-2.7-1.2-3.3-1.8-3.6c-1-0.5-2.3-0.5-3-0.5h-7.6V174h-3.3
		L325.8,146.2L325.8,146.2z M336.8,158.9c2.3,0,3.2-0.7,3.7-1.1c1.4-1.1,1.4-2.9,1.4-3.8c0-3-1.3-3.7-1.9-4c-1-0.6-2.2-0.6-2.7-0.6
		h-8.1v9.5L336.8,158.9L336.8,158.9z"/>
	<polygon class="st6" points="350.5,146.2 368.4,146.2 368.4,149.6 353.7,149.6 353.7,158.1 367.3,158.1 367.3,161.3 353.7,161.3 
		353.7,170.7 368.6,170.7 368.6,174 350.5,174 	"/>
	<path class="st6" d="M380.2,146.2h3.8l8.9,27.7h-3.6l-2.5-8.3H377l-2.7,8.3h-3.4L380.2,146.2z M385.6,162.6l-3.7-12.2l-4,12.2
		H385.6z"/>
	<path class="st6" d="M396,146.2h10c5.1,0,6.9,2.7,7.9,4.1c2.5,3.7,2.5,7.5,2.5,9.4c0,4.4-1,6.8-1.5,8c-2.6,6.3-6.8,6.3-8.9,6.3H396
		L396,146.2L396,146.2z M405.3,170.8c1.7,0,2.4-0.3,2.8-0.4c1.9-0.7,2.8-2.1,3.2-2.8c1-1.7,1.3-3.4,1.4-4.3c0.2-1.6,0.2-2.5,0.2-2.9
		c0-5.1-1.2-7.1-1.8-8c-1.8-2.9-4.5-2.9-5.9-2.9h-5.9v21.3L405.3,170.8L405.3,170.8z"/>
	<polygon class="st6" points="209.3,187.7 212.9,187.7 212.9,212.1 226.1,212.1 226.1,215.4 209.3,215.4 	"/>
	<path class="st6" d="M229.2,187.7h3.3v3.9h-3.3V187.7z M229.2,195.3h3.3v20.1h-3.3V195.3z"/>
	<path class="st6" d="M237.9,189.6h3.2v5.6h3.1v2.8h-3.1v13.2c0,1.1,0.4,1.3,0.7,1.4c0.4,0.2,1,0.2,1.2,0.2c0.2,0,0.4,0,0.5,0
		c0.3,0,0.5,0,0.6-0.1v2.7c-0.6,0.2-0.9,0.2-1.1,0.2c-0.6,0.1-1.1,0.1-1.3,0.1c-2.2,0-2.8-0.8-3.1-1.2c-0.8-1.2-0.8-2.5-0.8-3.2V198
		h-2.6v-2.8h2.6V189.6z"/>
	<path class="st6" d="M260.5,203.7c-0.2-2.2-0.7-3.1-0.9-3.5c-1.3-2.4-3.4-2.4-4.4-2.4c-2.2,0-3.2,1.1-3.7,1.7
		c-1.5,1.7-1.6,3.4-1.6,4.3H260.5z M255.4,194.8c2,0,3.3,0.7,3.9,1c1.9,1,2.6,2.1,2.9,2.6c1,1.5,1.2,2.9,1.3,3.6
		c0.3,1.4,0.3,3.4,0.3,4.4h-14c0.1,3.1,0.9,4.3,1.4,4.9c1.3,1.9,3.1,1.9,4,1.9c2.5,0,3.5-1.2,4-1.8c0.9-1,1.1-1.9,1.2-2.4h3.1
		c-0.1,1.1-0.6,2-0.8,2.5c-0.7,1.4-1.3,1.9-1.6,2.2c-1.5,1.5-2.9,1.9-3.6,2c-1.2,0.3-2.1,0.3-2.6,0.3c-3.6,0-5.2-1.8-6-2.7
		c-2.5-2.7-2.5-6-2.5-7.7c0-4.9,1.7-6.9,2.5-7.9C251.3,194.8,254,194.8,255.4,194.8z"/>
	<path class="st6" d="M267.8,195.2h3v3.5c0.4-1,1.4-2,1.8-2.5c1.5-1.5,2.7-1.5,3.4-1.5c0.1,0,0.2,0,0.3,0c0.2,0,0.6,0.1,0.7,0.1v3.6
		c-0.3-0.1-0.5-0.1-0.5-0.1c-0.2,0-0.4,0-0.5,0c-2.4,0-3.3,1.1-3.7,1.6c-1.3,1.6-1.3,3.1-1.3,3.8v11.6h-3.2L267.8,195.2L267.8,195.2
		z"/>
	<path class="st6" d="M290.1,203.2c1.1-0.1,1.4-0.7,1.5-1c0.2-0.4,0.2-1,0.2-1.3c0-1.7-0.8-2.3-1.2-2.5c-1.2-0.8-2.6-0.8-3.3-0.8
		c-2.5,0-3.2,1-3.6,1.4c-0.6,0.8-0.7,1.8-0.8,2.4h-3c0.1-3.7,1.6-4.7,2.3-5.2c2.2-1.5,4.1-1.5,5.1-1.5c3.4,0,4.8,0.9,5.5,1.4
		c2.1,1.4,2.1,3.3,2.1,4.2V212c0,0.5,0.1,0.7,0.2,0.9c0.2,0.3,0.6,0.3,0.9,0.3c0.2,0,0.4,0,0.5,0c0.3,0,0.5-0.1,0.6-0.1v2.5
		c-0.8,0.2-1,0.3-1.1,0.3c-0.4,0.1-0.8,0.1-1.1,0.1c-1.7,0-2.2-0.8-2.4-1.2c-0.4-0.7-0.5-1.5-0.5-1.9c-1,1.4-2.2,2-2.8,2.4
		c-1.8,1-3.3,1-4,1c-2.6,0-3.8-1.1-4.3-1.7c-1.7-1.7-1.7-3.4-1.7-4.3c0-2.8,1.1-3.8,1.7-4.4c1.7-1.6,3.5-1.8,4.4-1.9L290.1,203.2z
		 M282.3,210.1c0,1.5,0.7,2,1,2.3c1,0.9,1.9,0.9,2.4,0.9c1.7,0,2.8-0.6,3.3-0.8c2.7-1.4,2.7-3.5,2.7-4.5v-2.7
		c-0.6,0.4-1.2,0.6-1.5,0.7c-0.9,0.3-1.5,0.3-1.8,0.4l-1.9,0.3c-1.8,0.2-2.3,0.6-2.6,0.8C282.3,208.1,282.3,209.4,282.3,210.1z"/>
	<path class="st6" d="M307.5,194.7c3.2,0,4.6,1.1,5.2,1.7c2,1.7,2.3,4.4,2.4,5.7H312c-0.3-1.9-1-2.7-1.3-3.1c-1-1.2-2.5-1.2-3.3-1.2
		c-3.1,0-3.9,2.1-4.4,3.2c-0.9,2.1-0.9,4.1-0.9,5.1c0,3,0.8,4.4,1.2,5.1c1.2,2.1,3,2.1,3.8,2.1c2,0,2.8-0.9,3.2-1.3
		c1.2-1.3,1.5-2.8,1.6-3.5h3.1c-0.5,4-2,5.3-2.7,5.9c-2.1,1.9-4.4,1.9-5.5,1.9c-3.7,0-5.2-1.9-6-2.9c-2.2-2.9-2.2-5.8-2.2-7.2
		c0-5.3,1.6-7.3,2.4-8.3C303.7,194.7,306.2,194.7,307.5,194.7z"/>
	<path class="st6" d="M330.3,195.2h3.5c-0.7,1.9-2.2,6.6-3,8.9c-1.8,5.2-2.5,7.4-2.9,8.5c-2.8,7.7-3.5,8.9-3.9,9.4
		c-1.1,1.7-3,1.7-3.9,1.7c-0.7,0-0.9,0-1-0.1c-0.4-0.1-0.7-0.2-0.9-0.2v-3.1c0.8,0.2,1.1,0.3,1.2,0.3c0.4,0.1,0.6,0.1,0.7,0.1
		c0.9,0,1.2-0.2,1.3-0.3c0.4-0.3,0.6-0.6,0.7-0.8c0.1-0.1,0.5-1.1,0.6-1.6c0.5-1.4,0.7-1.9,0.8-2.1l-7-20.8h3.6l5.1,16.4
		L330.3,195.2z"/>
	<polygon class="st6" points="347.2,187.7 351.4,187.7 364.6,210.2 364.6,187.7 368,187.7 368,215.4 364,215.4 350.6,193 
		350.6,215.4 347.2,215.4 	"/>
	<path class="st6" d="M386.1,203.7c-0.2-2.2-0.7-3.1-0.9-3.5c-1.3-2.4-3.4-2.4-4.4-2.4c-2.2,0-3.2,1.1-3.7,1.7
		c-1.5,1.7-1.6,3.4-1.6,4.3H386.1z M381,194.8c2,0,3.3,0.7,3.9,1c1.9,1,2.6,2.1,2.9,2.6c1,1.5,1.2,2.9,1.3,3.6
		c0.3,1.4,0.3,3.4,0.3,4.4h-14c0.1,3.1,0.9,4.3,1.4,4.9c1.3,1.9,3.1,1.9,4,1.9c2.5,0,3.5-1.2,4-1.8c0.9-1,1.1-1.9,1.2-2.4h3.1
		c-0.1,1.1-0.6,2-0.8,2.5c-0.7,1.4-1.3,1.9-1.6,2.2c-1.5,1.5-2.9,1.9-3.6,2c-1.2,0.3-2.1,0.3-2.6,0.3c-3.6,0-5.2-1.8-6-2.7
		c-2.5-2.7-2.5-6-2.5-7.7c0-4.9,1.7-6.9,2.5-7.9C377,194.8,379.7,194.8,381,194.8z"/>
	<path class="st6" d="M394,189.6h3.2v5.6h3v2.8h-3v13.2c0,1.1,0.5,1.3,0.7,1.4c0.4,0.2,1,0.2,1.2,0.2c0.2,0,0.4,0,0.5,0
		c0.3,0,0.5,0,0.6-0.1v2.7c-0.5,0.2-1,0.2-1.1,0.2c-0.6,0.1-1.1,0.1-1.3,0.1c-2.2,0-2.8-0.8-3-1.2c-0.8-1.2-0.8-2.5-0.8-3.2V198
		h-2.6v-2.8h2.6V189.6z"/>
	<polygon class="st6" points="405,195.2 408.7,211.2 412.4,195.2 416,195.2 419.7,211.1 423.6,195.2 426.8,195.2 421.3,215.4 
		418,215.4 414.1,199.8 410.3,215.4 407,215.4 401.5,195.2 	"/>
	<path class="st6" d="M437.6,194.7c3.7,0,5.4,1.7,6.2,2.6c2.5,2.6,2.5,6,2.5,7.7c0,4.9-1.5,7-2.2,8.1c-2.2,3.2-5.4,3.2-7,3.2
		c-3.9,0-5.5-1.9-6.2-2.8c-2.3-2.8-2.3-6-2.3-7.6c0-5.1,1.6-7.1,2.4-8.1C433.4,194.7,436.2,194.7,437.6,194.7z M437.4,213.3
		c3.2,0,4-1.7,4.4-2.6c1.2-2.6,1.2-4.6,1.2-5.7c0-2.8-0.6-4-0.9-4.6c-1.4-2.8-3.6-2.8-4.7-2.8c-2.9,0-3.8,1.6-4.3,2.4
		c-1.3,2.4-1.3,4.6-1.3,5.7c0,3.2,0.9,4.7,1.3,5.4C434.5,213.3,436.5,213.3,437.4,213.3z"/>
	<path class="st6" d="M450.2,195.2h3v3.5c0.4-1,1.4-2,1.8-2.5c1.5-1.5,2.7-1.5,3.4-1.5c0.1,0,0.2,0,0.3,0c0.2,0,0.6,0.1,0.7,0.1v3.6
		c-0.3-0.1-0.5-0.1-0.5-0.1c-0.2,0-0.4,0-0.5,0c-2.4,0-3.3,1.1-3.7,1.6c-1.3,1.6-1.3,3.1-1.3,3.8v11.6h-3.2L450.2,195.2L450.2,195.2
		z"/>
	<polygon class="st6" points="462.2,187.7 465.3,187.7 465.3,203.8 473.5,195.2 477.6,195.2 470.3,202.8 478,215.4 474,215.4 
		468,205.3 465.3,207.9 465.3,215.4 462.2,215.4 	"/>
</g>
</svg>
