<?xml version="1.0" encoding="utf-8"?>
<!-- Generator: Adobe Illustrator 25.1.0, SVG Export Plug-In . SVG Version: 6.00 Build 0)  -->
<svg version="1.1" id="Layer_1" xmlns="http://www.w3.org/2000/svg" xmlns:xlink="http://www.w3.org/1999/xlink" x="0px" y="0px"
	 viewBox="0 0 504 252" style="enable-background:new 0 0 504 252;" xml:space="preserve">
<style type="text/css">
	.st0{fill:none;stroke:#231F20;stroke-width:2.37;stroke-linecap:round;stroke-miterlimit:10;}
	.st1{fill:#CF2030;}
	.st2{fill:none;stroke:#000000;stroke-width:2.37;stroke-miterlimit:10;}
	.st3{fill:#A91F27;}
	.st4{fill:none;stroke:#231F20;stroke-width:2.37;stroke-miterlimit:10;}
	.st5{fill:#231F20;}
</style>
<g>
	<g>
		<path class="st0" d="M151.65,161.63c0,0-31.1-51.86-89.66-36.11"/>
		<path class="st0" d="M211.39,104.18c0,0-26.71-66.5-96.14-56.46"/>
		<path class="st1" d="M136.28,56.73c-2.51-0.24-5.04-0.36-7.59-0.36c-43.75,0-79.35,35.59-79.35,79.34s35.59,79.35,79.35,79.35
			c18.51,0,36.53-6.51,50.72-18.33c4.53-3.77,11.25-3.15,15.02,1.37c3.77,4.53,3.15,11.25-1.37,15.02
			c-18.02,15-40.88,23.27-64.37,23.27c-55.51,0-100.68-45.16-100.68-100.68S73.18,35.04,128.69,35.04c2.76,0,5.5,0.11,8.22,0.33"/>
		<path class="st2" d="M136.28,56.73c-2.51-0.24-5.04-0.36-7.59-0.36c-43.75,0-79.35,35.59-79.35,79.34s35.59,79.35,79.35,79.35
			c18.51,0,36.53-6.51,50.72-18.33c4.53-3.77,11.25-3.15,15.02,1.37c3.77,4.53,3.15,11.25-1.37,15.02
			c-18.02,15-40.88,23.27-64.37,23.27c-55.51,0-100.68-45.16-100.68-100.68S73.18,35.04,128.69,35.04c2.76,0,5.5,0.11,8.22,0.33"/>
		<path class="st3" d="M206.79,106.2c-4.33,0-8.4-2.66-10-6.95c-0.84-2.21-20.71-52.1-90.82-39.97c-5.8,1.01-11.32-2.89-12.33-8.69
			c-1-5.8,2.89-11.32,8.69-12.33c45.63-7.89,74.26,6.84,90.24,20.59c17.51,15.07,23.96,32.28,24.23,33.01
			c2.03,5.53-0.81,11.66-6.34,13.68C209.25,105.99,208.01,106.2,206.79,106.2"/>
		<path class="st4" d="M206.79,106.2c-4.33,0-8.4-2.66-10-6.95c-0.84-2.21-20.71-52.1-90.82-39.97c-5.8,1.01-11.32-2.89-12.33-8.69
			c-1-5.8,2.89-11.32,8.69-12.33c45.63-7.89,74.26,6.84,90.24,20.59c17.51,15.07,23.96,32.28,24.23,33.01
			c2.03,5.53-0.81,11.66-6.34,13.68C209.25,105.99,208.01,106.2,206.79,106.2z"/>
		<path class="st1" d="M145.64,51.3c0,19.71-14.86,35.69-33.18,35.69c-18.32,0-33.18-15.98-33.18-35.69
			c0-19.71,14.86-35.69,33.18-35.69C130.79,15.61,145.64,31.59,145.64,51.3"/>
		<path class="st4" d="M145.64,51.3c0,19.71-14.86,35.69-33.18,35.69c-18.32,0-33.18-15.98-33.18-35.69
			c0-19.71,14.86-35.69,33.18-35.69C130.79,15.61,145.64,31.59,145.64,51.3z"/>
		<path class="st1" d="M154.27,188c-2.88,0-5.6-1.45-7.2-3.9c-0.22-0.34-23.34-34.99-55.54-38.43c-17.1-1.82-34.23,5.58-50.96,22.02
			c-3.38,3.33-8.83,3.28-12.15-0.11c-3.33-3.39-3.28-8.83,0.11-12.15c20.61-20.24,42.46-29.28,64.94-26.84
			c26.81,2.91,47.53,21.58,58.74,34.27c11.23-22.58,25.35-37.09,42.11-43.25c20.65-7.6,37.39,0.77,38.1,1.12
			c4.23,2.16,5.9,7.34,3.74,11.57c-2.15,4.2-7.29,5.88-11.5,3.77c-0.59-0.29-11.3-5.29-24.72-0.2c-14.24,5.4-26.92,20.68-36.66,44.2
			l-1.02,2.54c-1.19,2.98-3.94,5.04-7.13,5.35C154.84,187.99,154.55,188,154.27,188"/>
		<path class="st4" d="M154.27,188c-2.88,0-5.6-1.45-7.2-3.9c-0.22-0.34-23.34-34.99-55.54-38.43c-17.1-1.82-34.23,5.58-50.96,22.02
			c-3.38,3.33-8.83,3.28-12.15-0.11c-3.33-3.39-3.28-8.83,0.11-12.15c20.61-20.24,42.46-29.28,64.94-26.84
			c26.81,2.91,47.53,21.58,58.74,34.27c11.23-22.58,25.35-37.09,42.11-43.25c20.65-7.6,37.39,0.77,38.1,1.12
			c4.23,2.16,5.9,7.34,3.74,11.57c-2.15,4.2-7.29,5.88-11.5,3.77c-0.59-0.29-11.3-5.29-24.72-0.2c-14.24,5.4-26.92,20.68-36.66,44.2
			l-1.02,2.54c-1.19,2.98-3.94,5.04-7.13,5.35C154.84,187.99,154.55,188,154.27,188z"/>
		<path class="st3" d="M152.39,164.84c0,0,1.84,12.67-3.39,19.47l-0.14,0.18c0,0,3.06,3.6,7.98,1.87c0,0,2.73-0.86,4.08-3.67
			l2.26-5.49c0,0,5.84-13.07,9.35-17.98s9.04-13.59,19.13-20.49c0,0,9.78-7.11,22.8-6.22c0,0,4.29,0.26,8,1.41
			c0,0,3.24,1.26,3.66,1.52c0,0,3.71,1.31,6.69-0.99c0,0,5.23-4.13,2.04-9.72c0,0-1.1-2.88-6.9-4.44c0,0-7.16-2.82-15.74-2.61
			c0,0-13.07-1.1-27.86,8.21c0,0-9.31,5.33-17.41,15.84C166.94,141.69,158.87,151.44,152.39,164.84"/>
		<path class="st0" d="M152.48,161.63c-1.32,1.31,11.6-41.87,50.6-51.86"/>
	</g>
	<path class="st5" d="M224.46,154.21c0-3.06-1.34-3.79-2.01-4.15c-1.11-0.58-2.39-0.58-3.03-0.58h-6.63v9.6h6.63
		c2.24,0,3.18-0.72,3.64-1.08C224.46,156.93,224.46,155.12,224.46,154.21z M209.45,146.25h11.07c3.28,0,4.62,1.39,5.29,2.08
		c2.01,2.08,2.01,4.6,2.01,5.86c0,3.24-1.19,4.85-1.79,5.65c-1.79,2.41-4.27,2.41-5.51,2.41h-7.74v11.72h-3.33V146.25z"/>
	<path class="st5" d="M231.69,153.76h2.86v3.49c0.35-1.02,1.27-1.99,1.72-2.48c1.37-1.46,2.57-1.46,3.16-1.46
		c0.08,0,0.22,0.01,0.28,0.02c0.2,0.02,0.52,0.06,0.69,0.08v3.58c-0.27-0.06-0.42-0.07-0.49-0.08c-0.23-0.02-0.4-0.02-0.49-0.02
		c-2.28,0-3.09,1.1-3.5,1.65c-1.22,1.65-1.22,3.08-1.22,3.8v11.62h-3.01V153.76z"/>
	<path class="st5" d="M250.26,153.17c3.47,0,5.06,1.74,5.86,2.6c2.39,2.6,2.39,5.97,2.39,7.66c0,4.89-1.41,7.01-2.11,8.07
		c-2.11,3.19-5.07,3.19-6.55,3.19c-3.7,0-5.15-1.88-5.88-2.82c-2.18-2.82-2.18-5.99-2.18-7.57c0-5.09,1.53-7.11,2.29-8.11
		C246.39,153.17,248.97,153.17,250.26,153.17z M250.14,171.77c3,0,3.74-1.7,4.11-2.56c1.11-2.56,1.11-4.64,1.11-5.69
		c0-2.83-0.54-4.01-0.8-4.6c-1.27-2.79-3.35-2.79-4.39-2.79c-2.76,0-3.6,1.58-4.02,2.38c-1.26,2.38-1.26,4.62-1.26,5.74
		c0,3.23,0.84,4.66,1.26,5.38C247.41,171.77,249.23,171.77,250.14,171.77z"/>
	<path class="st5" d="M259.25,179.08c2.03-0.08,2.3-0.3,2.44-0.41c0.41-0.33,0.41-1.49,0.41-2.07v-22.75h3.01v23.11
		c0,2.21-0.42,2.94-0.64,3.3c-1.05,1.85-3.02,1.85-4,1.85c-0.22,0-0.38-0.01-0.46-0.02c-0.24-0.02-0.59-0.06-0.76-0.08V179.08z
		 M265.11,150.17h-3.01v-3.92h3.01V150.17z"/>
	<path class="st5" d="M281.98,162.25c-0.18-2.21-0.63-3.09-0.85-3.53c-1.24-2.45-3.17-2.45-4.14-2.45c-2.08,0-3.01,1.13-3.48,1.69
		c-1.41,1.69-1.46,3.42-1.49,4.29H281.98z M277.17,153.3c1.91,0,3.1,0.67,3.7,1.01c1.79,1.01,2.42,2.08,2.73,2.61
		c0.9,1.53,1.11,2.89,1.21,3.57c0.27,1.4,0.27,3.43,0.27,4.45h-13.14c0.08,3.08,0.89,4.31,1.29,4.93c1.21,1.86,2.89,1.86,3.73,1.86
		c2.36,0,3.3-1.17,3.77-1.75c0.8-1.02,1.03-1.91,1.14-2.36h2.96c-0.12,1.11-0.56,2.02-0.78,2.48c-0.66,1.37-1.21,1.95-1.48,2.24
		c-1.37,1.51-2.72,1.86-3.4,2.04c-1.09,0.3-2,0.3-2.46,0.3c-3.35,0-4.9-1.83-5.68-2.74c-2.33-2.74-2.33-6.04-2.33-7.69
		c0-4.87,1.56-6.89,2.34-7.9C273.39,153.3,275.91,153.3,277.17,153.3z"/>
	<path class="st5" d="M295.69,153.17c3.03,0,4.3,1.11,4.93,1.66c1.9,1.66,2.16,4.36,2.29,5.72h-2.93c-0.27-1.87-0.9-2.69-1.22-3.1
		c-0.95-1.24-2.36-1.24-3.06-1.24c-2.88,0-3.71,2.11-4.12,3.17c-0.8,2.06-0.8,4.07-0.8,5.07c0,3.04,0.76,4.42,1.14,5.11
		c1.14,2.08,2.77,2.08,3.58,2.08c1.88,0,2.61-0.86,2.97-1.29c1.1-1.29,1.38-2.79,1.52-3.54h2.93c-0.5,4.02-1.84,5.26-2.51,5.88
		c-2.01,1.86-4.1,1.86-5.14,1.86c-3.52,0-4.91-1.93-5.61-2.9c-2.09-2.9-2.09-5.79-2.09-7.24c0-5.32,1.53-7.29,2.29-8.28
		C292.14,153.17,294.5,153.17,295.69,153.17z"/>
	<path class="st5" d="M306.52,148.12h3.05v5.64h2.86v2.77h-2.86v13.19c0,1.06,0.42,1.3,0.64,1.41c0.35,0.21,0.9,0.21,1.17,0.21
		c0.22,0,0.39-0.01,0.47-0.01c0.25-0.01,0.47-0.03,0.59-0.05v2.68c-0.52,0.17-0.89,0.22-1.08,0.25c-0.56,0.08-1,0.08-1.21,0.08
		c-2.11,0-2.61-0.81-2.86-1.22c-0.75-1.22-0.75-2.51-0.75-3.16v-13.38h-2.43v-2.77h2.43V148.12z"/>
	<path class="st5" d="M325.79,146.25h11.39c2.81,0,4.03,0.62,4.64,0.92c3.47,1.77,3.47,4.96,3.47,6.55c0,2.49-0.61,3.55-0.91,4.07
		c-0.91,1.58-2.01,2.23-2.55,2.55c1.44,0.66,1.93,1.38,2.17,1.74c0.73,1.08,0.78,2.69,0.81,3.49l0.12,3.72
		c0.05,1.58,0.17,2.1,0.23,2.36c0.3,1.32,0.81,1.57,1.07,1.7v0.62h-4.09c-0.17-0.36-0.23-0.74-0.27-0.92
		c-0.1-0.57-0.15-1.65-0.17-2.19l-0.2-4.62c-0.12-2.72-1.23-3.33-1.79-3.64c-0.95-0.51-2.32-0.51-3-0.51h-7.59v11.89h-3.33V146.25z
		 M336.82,158.95c2.34,0,3.25-0.7,3.71-1.06c1.36-1.06,1.36-2.89,1.36-3.81c0-2.96-1.27-3.68-1.91-4.04
		c-1.02-0.57-2.16-0.57-2.73-0.57h-8.14v9.47H336.82z"/>
	<polygon class="st5" points="350.46,146.25 368.39,146.25 368.39,149.64 353.71,149.64 353.71,158.06 367.29,158.06 367.29,161.27 
		353.71,161.27 353.71,170.66 368.65,170.66 368.65,173.96 350.46,173.96 	"/>
	<path class="st5" d="M380.17,146.25h3.77l8.92,27.71h-3.65l-2.49-8.3h-9.73l-2.66,8.3h-3.42L380.17,146.25z M385.64,162.61
		l-3.73-12.24l-3.97,12.24H385.64z"/>
	<path class="st5" d="M396.04,146.25H406c5.07,0,6.94,2.7,7.87,4.06c2.49,3.66,2.49,7.47,2.49,9.38c0,4.41-0.98,6.79-1.47,7.98
		c-2.6,6.3-6.81,6.3-8.92,6.3h-9.93V146.25z M405.33,170.76c1.69,0,2.42-0.26,2.78-0.4c1.94-0.74,2.77-2.13,3.18-2.83
		c0.99-1.68,1.28-3.43,1.42-4.3c0.25-1.57,0.25-2.46,0.25-2.91c0-5.15-1.21-7.05-1.82-8c-1.82-2.85-4.51-2.85-5.85-2.85h-5.91v21.28
		H405.33z"/>
	<polygon class="st5" points="209.3,187.74 212.85,187.74 212.85,212.15 226.1,212.15 226.1,215.45 209.3,215.45 	"/>
	<path class="st5" d="M229.16,187.74h3.26v3.85h-3.26V187.74z M229.16,195.34h3.26v20.11h-3.26V195.34z"/>
	<path class="st5" d="M237.9,189.61h3.24v5.64h3.05v2.77h-3.05v13.19c0,1.06,0.45,1.3,0.68,1.41c0.37,0.21,0.96,0.21,1.25,0.21
		c0.23,0,0.41-0.01,0.5-0.01c0.27-0.01,0.5-0.03,0.62-0.05v2.68c-0.55,0.17-0.95,0.22-1.15,0.25c-0.6,0.08-1.06,0.08-1.29,0.08
		c-2.24,0-2.78-0.81-3.05-1.22c-0.8-1.22-0.8-2.51-0.8-3.16v-13.38h-2.58v-2.77h2.58V189.61z"/>
	<path class="st5" d="M260.46,203.74c-0.2-2.21-0.67-3.09-0.91-3.53c-1.32-2.45-3.37-2.45-4.4-2.45c-2.21,0-3.21,1.13-3.71,1.69
		c-1.5,1.69-1.56,3.42-1.59,4.29H260.46z M255.35,194.8c2.03,0,3.3,0.67,3.94,1.01c1.91,1.01,2.57,2.08,2.9,2.61
		c0.96,1.53,1.18,2.89,1.28,3.57c0.29,1.4,0.29,3.43,0.29,4.45h-13.98c0.09,3.08,0.94,4.31,1.37,4.93c1.28,1.86,3.08,1.86,3.97,1.86
		c2.51,0,3.51-1.17,4.01-1.75c0.86-1.02,1.09-1.91,1.21-2.36h3.15c-0.12,1.11-0.59,2.02-0.83,2.48c-0.7,1.37-1.29,1.95-1.58,2.24
		c-1.46,1.51-2.9,1.86-3.62,2.04c-1.16,0.3-2.13,0.3-2.62,0.3c-3.56,0-5.21-1.83-6.04-2.74c-2.48-2.74-2.48-6.04-2.48-7.69
		c0-4.87,1.66-6.89,2.49-7.9C251.32,194.8,254.01,194.8,255.35,194.8z"/>
	<path class="st5" d="M267.78,195.25h3.05v3.49c0.37-1.02,1.35-1.99,1.83-2.48c1.46-1.46,2.73-1.46,3.37-1.46
		c0.09,0,0.23,0.01,0.3,0.02c0.21,0.02,0.56,0.06,0.73,0.08v3.58c-0.29-0.06-0.45-0.07-0.53-0.08c-0.24-0.02-0.43-0.02-0.53-0.02
		c-2.42,0-3.29,1.1-3.72,1.65c-1.3,1.65-1.3,3.08-1.3,3.8v11.62h-3.21V195.25z"/>
	<path class="st5" d="M290.06,203.21c1.1-0.15,1.35-0.7,1.48-0.98c0.21-0.45,0.21-1.02,0.21-1.3c0-1.74-0.78-2.26-1.17-2.52
		c-1.17-0.78-2.62-0.78-3.34-0.78c-2.51,0-3.21,0.96-3.56,1.43c-0.59,0.79-0.71,1.84-0.77,2.36h-2.99c0.09-3.74,1.56-4.71,2.29-5.2
		c2.2-1.46,4.14-1.46,5.1-1.46c3.37,0,4.77,0.91,5.47,1.36c2.08,1.36,2.08,3.27,2.08,4.23v11.64c0,0.53,0.14,0.74,0.2,0.85
		c0.2,0.32,0.64,0.32,0.86,0.32c0.21,0,0.39-0.02,0.48-0.03c0.27-0.03,0.47-0.07,0.57-0.08v2.51c-0.75,0.23-1.01,0.26-1.14,0.28
		c-0.39,0.06-0.84,0.06-1.07,0.06c-1.66,0-2.16-0.83-2.4-1.25c-0.39-0.66-0.5-1.47-0.55-1.87c-0.98,1.36-2.2,2.02-2.81,2.36
		c-1.83,1-3.31,1-4.04,1c-2.65,0-3.78-1.14-4.34-1.71c-1.68-1.71-1.68-3.42-1.68-4.27c0-2.81,1.1-3.84,1.66-4.36
		c1.66-1.55,3.45-1.79,4.35-1.91L290.06,203.21z M282.3,210.08c0,1.47,0.68,2.04,1.02,2.32c1.02,0.85,1.94,0.85,2.4,0.85
		c1.69,0,2.75-0.55,3.28-0.83c2.67-1.38,2.67-3.46,2.67-4.51v-2.74c-0.59,0.4-1.21,0.57-1.51,0.66c-0.93,0.26-1.52,0.34-1.82,0.38
		l-1.94,0.26c-1.75,0.25-2.33,0.6-2.62,0.77C282.3,208.13,282.3,209.43,282.3,210.08z"/>
	<path class="st5" d="M307.48,194.66c3.22,0,4.57,1.11,5.25,1.66c2.02,1.66,2.3,4.36,2.43,5.72h-3.12c-0.29-1.87-0.96-2.69-1.3-3.1
		c-1.02-1.24-2.51-1.24-3.26-1.24c-3.06,0-3.94,2.11-4.38,3.17c-0.86,2.06-0.86,4.07-0.86,5.07c0,3.04,0.81,4.42,1.21,5.11
		c1.21,2.08,2.95,2.08,3.81,2.08c2,0,2.77-0.86,3.16-1.29c1.17-1.29,1.46-2.79,1.61-3.54h3.12c-0.53,4.02-1.96,5.26-2.67,5.88
		c-2.14,1.86-4.36,1.86-5.47,1.86c-3.74,0-5.23-1.93-5.97-2.9c-2.23-2.9-2.23-5.79-2.23-7.24c0-5.32,1.63-7.29,2.44-8.28
		C303.7,194.66,306.22,194.66,307.48,194.66z"/>
	<path class="st5" d="M330.28,195.25h3.55c-0.68,1.94-2.23,6.56-3.01,8.87c-1.75,5.21-2.53,7.4-2.92,8.49
		c-2.78,7.73-3.54,8.87-3.92,9.43c-1.14,1.7-2.99,1.7-3.92,1.7c-0.68,0-0.92-0.04-1.04-0.06c-0.37-0.06-0.72-0.16-0.9-0.21v-3.09
		c0.84,0.25,1.09,0.28,1.21,0.3c0.37,0.06,0.56,0.06,0.66,0.06c0.89,0,1.17-0.21,1.31-0.31c0.42-0.31,0.61-0.61,0.7-0.76
		c0.09-0.15,0.46-1.08,0.64-1.55c0.55-1.4,0.72-1.85,0.8-2.08l-7.05-20.79h3.63l5.11,16.45L330.28,195.25z"/>
	<polygon class="st5" points="347.18,187.74 351.36,187.74 364.58,210.19 364.58,187.74 367.95,187.74 367.95,215.45 363.98,215.45 
		350.56,193.02 350.56,215.45 347.18,215.45 	"/>
	<path class="st5" d="M386.15,203.74c-0.2-2.21-0.67-3.09-0.91-3.53c-1.32-2.45-3.37-2.45-4.4-2.45c-2.21,0-3.21,1.13-3.71,1.69
		c-1.5,1.69-1.56,3.42-1.59,4.29H386.15z M381.04,194.8c2.03,0,3.3,0.67,3.94,1.01c1.91,1.01,2.57,2.08,2.9,2.61
		c0.96,1.53,1.18,2.89,1.28,3.57c0.29,1.4,0.29,3.43,0.29,4.45h-13.98c0.09,3.08,0.94,4.31,1.37,4.93c1.28,1.86,3.08,1.86,3.97,1.86
		c2.51,0,3.51-1.17,4.01-1.75c0.86-1.02,1.09-1.91,1.21-2.36h3.15c-0.12,1.11-0.59,2.02-0.83,2.48c-0.7,1.37-1.29,1.95-1.58,2.24
		c-1.46,1.51-2.9,1.86-3.62,2.04c-1.16,0.3-2.13,0.3-2.62,0.3c-3.56,0-5.21-1.83-6.04-2.74c-2.48-2.74-2.48-6.04-2.48-7.69
		c0-4.87,1.66-6.89,2.49-7.9C377.01,194.8,379.7,194.8,381.04,194.8z"/>
	<path class="st5" d="M394.02,189.61h3.24v5.64h3.05v2.77h-3.05v13.19c0,1.06,0.45,1.3,0.68,1.41c0.37,0.21,0.96,0.21,1.25,0.21
		c0.23,0,0.41-0.01,0.5-0.01c0.27-0.01,0.5-0.03,0.62-0.05v2.68c-0.55,0.17-0.95,0.22-1.15,0.25c-0.6,0.08-1.06,0.08-1.29,0.08
		c-2.24,0-2.78-0.81-3.05-1.22c-0.8-1.22-0.8-2.51-0.8-3.16v-13.38h-2.58v-2.77h2.58V189.61z"/>
	<polygon class="st5" points="405,195.25 408.67,211.17 412.39,195.25 415.99,195.25 419.73,211.08 423.63,195.25 426.84,195.25 
		421.3,215.45 417.97,215.45 414.08,199.81 410.32,215.45 406.99,215.45 401.49,195.25 	"/>
	<path class="st5" d="M437.56,194.66c3.69,0,5.39,1.74,6.24,2.6c2.55,2.6,2.55,5.97,2.55,7.66c0,4.89-1.5,7.01-2.24,8.07
		c-2.24,3.19-5.39,3.19-6.97,3.19c-3.94,0-5.48-1.88-6.25-2.82c-2.32-2.82-2.32-5.99-2.32-7.57c0-5.09,1.63-7.11,2.44-8.11
		C433.44,194.66,436.19,194.66,437.56,194.66z M437.43,213.27c3.19,0,3.98-1.7,4.37-2.56c1.18-2.56,1.18-4.64,1.18-5.69
		c0-2.83-0.57-4.01-0.86-4.6c-1.35-2.79-3.56-2.79-4.67-2.79c-2.94,0-3.83,1.58-4.28,2.38c-1.34,2.38-1.34,4.62-1.34,5.74
		c0,3.23,0.89,4.66,1.34,5.38C434.53,213.27,436.46,213.27,437.43,213.27z"/>
	<path class="st5" d="M450.24,195.25h3.05v3.49c0.37-1.02,1.35-1.99,1.83-2.48c1.46-1.46,2.73-1.46,3.37-1.46
		c0.09,0,0.23,0.01,0.3,0.02c0.21,0.02,0.56,0.06,0.73,0.08v3.58c-0.29-0.06-0.45-0.07-0.53-0.08c-0.24-0.02-0.43-0.02-0.53-0.02
		c-2.42,0-3.29,1.1-3.72,1.65c-1.3,1.65-1.3,3.08-1.3,3.8v11.62h-3.21V195.25z"/>
	<polygon class="st5" points="462.22,187.74 465.31,187.74 465.31,203.83 473.54,195.25 477.63,195.25 470.33,202.81 478.04,215.45 
		473.95,215.45 468,205.27 465.31,207.87 465.31,215.45 462.22,215.45 	"/>
</g>
</svg>
