<?xml version="1.0" encoding="utf-8"?>
<!-- Generator: Adobe Illustrator 25.2.2, SVG Export Plug-In . SVG Version: 6.00 Build 0)  -->
<svg version="1.1" id="Layer_1" xmlns="http://www.w3.org/2000/svg" xmlns:xlink="http://www.w3.org/1999/xlink" x="0px" y="0px"
	 viewBox="0 0 138.5 52.11" style="enable-background:new 0 0 138.5 52.11;" xml:space="preserve">
<style type="text/css">
	.st0{fill:#FDAF3F;}
	.st1{fill:#2E55A5;}
</style>
<path class="st0" d="M108.48,34.14l-1.2,1.42l-0.37-0.32l1.24-1.38c-0.2-0.18-0.35-0.34-0.54-0.51l0.28-0.28
	c0.47,0.45,0.89,0.79,1.41,1.21l-0.24,0.3C108.86,34.43,108.67,34.29,108.48,34.14 M106.07,30.59l-1.95,1.14
	c0.07,0.14,0.14,0.3,0.23,0.43l1.95-1.14C106.21,30.85,106.16,30.75,106.07,30.59 M107.32,32.41l-1.05,0.91l0.54-1.57
	c-0.1-0.13-0.14-0.23-0.24-0.35l-1.89,1.28c0.08,0.13,0.19,0.25,0.28,0.38l1.14-0.79l-0.53,1.57c0.09,0.1,0.19,0.26,0.32,0.37
	l1.75-1.5C107.52,32.62,107.41,32.53,107.32,32.41 M109.89,35.21c0.31,0.17,0.61,0.34,0.94,0.5l0.2-0.33
	c-0.46-0.24-0.9-0.52-1.29-0.79l-1.28,1.88c0.48,0.32,0.93,0.59,1.43,0.88l0.21-0.33l-1.03-0.61l0.35-0.49l0.68,0.41l0.2-0.32
	c-0.22-0.12-0.45-0.26-0.69-0.41L109.89,35.21z M116.23,28.18c-1.77,0-3.22-1.45-3.22-3.22c0-1.78,1.45-3.23,3.22-3.23
	c1.79,0,3.22,1.45,3.22,3.23C119.46,26.73,118.01,28.18,116.23,28.18 M116.27,27.12c1.18,0,2.14-0.97,2.14-2.14
	c0-0.98-0.68-1.83-1.62-2.07c-0.01-0.1-0.04-0.54-0.04-0.54h-1.08c0,0-0.02,0.49-0.03,0.58c-0.9,0.27-1.5,1.09-1.5,2.02
	C114.14,26.15,115.11,27.12,116.27,27.12 M111.54,12.78v-0.11c-0.01-0.58,0.43-1.06,1.02-1.11c0.62-0.06,1.17,0.39,1.23,1.02v0.09
	c0,0.58-0.44,1.08-1.04,1.14C112.14,13.86,111.59,13.41,111.54,12.78 M111.95,12.74c0.03,0.4,0.39,0.69,0.77,0.66
	c0.38-0.04,0.67-0.35,0.67-0.73c0.01-0.02,0-0.04,0-0.07c-0.03-0.4-0.38-0.69-0.78-0.65c-0.38,0.03-0.67,0.33-0.66,0.71V12.74z
	 M116.64,13.3c-0.19,0-0.28,0-0.46,0l0.56-1.17l0.51-1.06l0.51,0.05l0.27,1.01l0.37,1.35c-0.17-0.03-0.3-0.06-0.46-0.07l-0.13-0.42
	c-0.33-0.05-0.64-0.07-0.95-0.08L116.64,13.3z M117.02,12.53c0.25,0.01,0.47,0.04,0.7,0.07l-0.12-0.47l-0.15-0.49l-0.23,0.49
	L117.02,12.53z M114.77,11.52l0.2,1.85l0.49-0.05l-0.19-1.83l0.73-0.05l-0.03-0.41c-0.82,0.05-1.15,0.08-1.97,0.2l0.05,0.39
	L114.77,11.52z M114.85,36.52l-0.16,1.38l-0.66-1.51c-0.16-0.03-0.25-0.07-0.41-0.1l-0.52,2.23c0.16,0.04,0.31,0.06,0.48,0.09
	l0.28-1.37l0.67,1.53c0.15,0.02,0.32,0.07,0.5,0.07l0.25-2.3C115.14,36.52,114.99,36.54,114.85,36.52 M127.94,31.73l-1.66-0.91
	l-0.21,0.39l1.99,1.11l0.77-1.37l-0.34-0.18L127.94,31.73z M125.44,32.07l2.25,0.74c-0.05,0.07-0.1,0.13-0.14,0.2
	c-0.04,0.05-0.09,0.1-0.12,0.17l-0.39-0.14l-0.62,0.77l0.23,0.35c-0.09,0.11-0.2,0.22-0.31,0.33L125.45,33l-0.33-0.55L125.44,32.07z
	 M125.7,32.58l0.27,0.42l0.24,0.43l0.33-0.43l0.08-0.11L125.7,32.58z M123.33,35.59c0.09,0.17,0.14,0.37,0.15,0.57
	c0,0.16-0.03,0.32-0.1,0.46c-0.11,0.21-0.26,0.4-0.48,0.52c-0.53,0.31-1.21,0.12-1.53-0.42c-0.01-0.03-0.03-0.06-0.05-0.1
	c-0.07-0.15-0.1-0.31-0.11-0.46c0.01-0.4,0.21-0.77,0.57-0.98C122.32,34.87,123.01,35.06,123.33,35.59 M123.08,36.16
	c0-0.14-0.03-0.26-0.1-0.37c-0.19-0.35-0.63-0.46-0.98-0.26c-0.24,0.13-0.37,0.38-0.37,0.64c0.01,0.12,0.04,0.25,0.11,0.36
	c0.02,0.04,0.04,0.07,0.08,0.11c0.22,0.26,0.6,0.32,0.9,0.15c0.08-0.04,0.15-0.09,0.2-0.15C123.01,36.49,123.08,36.32,123.08,36.16
	 M124.16,33.46l0.94,1.01l-1.58-0.46c-0.13,0.1-0.22,0.14-0.33,0.24l1.37,1.84c0.12-0.09,0.24-0.2,0.35-0.29l-0.83-1.11l1.59,0.48
	c0.11-0.09,0.27-0.2,0.37-0.33l-1.59-1.68C124.37,33.24,124.27,33.36,124.16,33.46 M134.25,24.97c0,0.21-0.01,0.42-0.03,0.59l0,0.05
	l-0.05,0.03c-0.76,0.45-1.75,0.71-2.74,0.74c-0.02,0.12-0.13,1.02-0.15,1.15c0.92,0.27,1.82,0.77,2.44,1.42l0.03,0.04v0.04
	c-0.05,0.35-0.17,0.83-0.31,1.13l-0.01,0.05l-0.04,0.01c-0.87,0.25-1.89,0.24-2.83,0.01c-0.04,0.12-0.39,0.95-0.43,1.07
	c0.83,0.52,1.56,1.24,1.97,2.01l0.02,0.04l-0.01,0.05c-0.13,0.31-0.37,0.75-0.59,1.01l-0.02,0.04h-0.05
	c-0.89,0.01-1.87-0.25-2.74-0.73c-0.08,0.1-0.65,0.86-0.73,0.97c0.68,0.7,1.19,1.59,1.4,2.46l0.01,0.05l-0.03,0.03
	c-0.2,0.26-0.56,0.62-0.82,0.83l-0.03,0.03l-0.07-0.02c-0.85-0.23-1.75-0.74-2.45-1.42c-0.1,0.08-0.82,0.64-0.92,0.71
	c0.46,0.84,0.73,1.8,0.73,2.67v0.12l-0.05,0.03c-0.26,0.21-0.7,0.47-1.01,0.59l-0.03,0.01l-0.05-0.02c-0.76-0.44-1.5-1.17-2-2.01
	c-0.12,0.05-0.99,0.42-1.11,0.48c0.12,0.47,0.19,0.95,0.2,1.43c0,0.49-0.08,0.97-0.2,1.41l-0.01,0.04l-0.05,0.02
	c-0.29,0.12-0.78,0.24-1.12,0.3l-0.05,0.01l-0.03-0.04c-0.66-0.63-1.17-1.52-1.43-2.46c-0.12,0.01-1.02,0.13-1.14,0.16
	c-0.01,0.98-0.29,1.97-0.75,2.74l-0.03,0.04l-0.05,0.01c-0.31,0.05-0.81,0.05-1.15,0l-0.04-0.01l-0.03-0.04
	c-0.45-0.77-0.72-1.76-0.74-2.74c-0.14-0.01-1.08-0.15-1.21-0.16c-0.26,0.93-0.77,1.82-1.41,2.45l-0.03,0.03l-0.05-0.01
	c-0.35-0.05-0.81-0.19-1.12-0.32l-0.04-0.02l-0.01-0.04c-0.13-0.44-0.2-0.93-0.2-1.41c0-0.48,0.07-0.95,0.19-1.42
	c-0.12-0.05-0.94-0.38-1.06-0.44c-0.51,0.85-1.24,1.59-2.01,2.02l-0.04,0.02l-0.05-0.01c-0.32-0.14-0.74-0.38-1.02-0.59l-0.03-0.03
	v-0.09c0-0.88,0.27-1.85,0.73-2.7c-0.1-0.08-0.87-0.66-0.97-0.74c-0.7,0.68-1.59,1.19-2.46,1.41l-0.04,0.01l-0.05-0.03
	c-0.26-0.21-0.6-0.55-0.82-0.82l-0.03-0.04l0.01-0.05c0.23-0.87,0.75-1.76,1.42-2.45c-0.08-0.11-0.66-0.86-0.74-0.97
	c-0.85,0.48-1.85,0.75-2.74,0.74h-0.05l-0.03-0.03c-0.21-0.27-0.45-0.71-0.59-1.02l-0.02-0.05l0.02-0.04c0.45-0.78,1.17-1.5,2.01-2
	c-0.05-0.13-0.41-0.96-0.47-1.08c-0.95,0.23-1.97,0.24-2.84,0l-0.04-0.02l-0.03-0.04c-0.12-0.29-0.25-0.78-0.3-1.13l-0.01-0.05
	l0.03-0.04c0.63-0.64,1.52-1.15,2.46-1.43c-0.01-0.13-0.15-1.08-0.16-1.22c-0.99-0.01-1.98-0.27-2.75-0.73l-0.04-0.02l0-0.05
	c-0.02-0.16-0.03-0.37-0.03-0.58c0-0.21,0.01-0.41,0.03-0.58l0-0.05l0.04-0.02c0.77-0.45,1.76-0.72,2.75-0.73
	c0.02-0.13,0.14-1.06,0.15-1.18c-0.93-0.27-1.83-0.78-2.46-1.42l-0.02-0.03l0.01-0.05c0.04-0.35,0.17-0.83,0.31-1.13l0.01-0.04
	l0.05-0.01c0.85-0.25,1.89-0.25,2.84-0.01c0.05-0.12,0.4-0.95,0.45-1.08c-0.84-0.51-1.57-1.23-2.01-2.01l-0.02-0.05l0.02-0.05
	c0.14-0.31,0.38-0.73,0.58-1l0.03-0.04h0.05c0.9-0.01,1.88,0.26,2.74,0.73c0.08-0.1,0.66-0.88,0.74-0.98
	c-0.68-0.71-1.19-1.59-1.41-2.46l-0.01-0.04l0.02-0.04c0.22-0.27,0.58-0.62,0.84-0.83l0.04-0.03l0.04,0.01
	c0.88,0.23,1.77,0.75,2.46,1.42c0.1-0.08,0.79-0.61,0.9-0.69c-0.48-0.84-0.74-1.8-0.74-2.67V9.73l0.04-0.03
	c0.26-0.2,0.7-0.45,1.01-0.58l0.03-0.02l0.05,0.03c0.77,0.43,1.5,1.17,2,2c0.12-0.04,1.02-0.44,1.15-0.49
	c-0.12-0.46-0.19-0.95-0.18-1.42c0-0.5,0.06-0.97,0.19-1.41l0.01-0.05l0.05-0.01c0.29-0.12,0.78-0.25,1.11-0.3l0.06-0.01l0.04,0.03
	c0.64,0.63,1.15,1.52,1.42,2.46c0.13-0.01,1.08-0.13,1.21-0.16c0.02-0.97,0.29-1.96,0.75-2.73l0.02-0.04l0.05-0.01
	c0.34-0.04,0.84-0.04,1.17,0l0.04,0.01l0.03,0.04c0.47,0.77,0.74,1.76,0.74,2.73c0.14,0.03,1.07,0.15,1.2,0.16
	c0.28-0.94,0.79-1.83,1.43-2.46l0.03-0.03l0.04,0.01c0.35,0.04,0.83,0.17,1.14,0.31l0.04,0.01l0.02,0.05c0.13,0.43,0.2,0.9,0.2,1.39
	c-0.01,0.48-0.08,0.97-0.2,1.43c0.12,0.05,1.01,0.42,1.14,0.48c0.5-0.83,1.22-1.56,2-2l0.04-0.03l0.05,0.02
	c0.31,0.13,0.74,0.38,1.01,0.59l0.04,0.02v0.12c0,0.89-0.27,1.85-0.74,2.68c0.1,0.08,0.84,0.66,0.95,0.74
	c0.7-0.68,1.59-1.2,2.46-1.42l0.04-0.02l0.04,0.04c0.27,0.2,0.62,0.56,0.82,0.83l0.04,0.04l-0.01,0.05
	c-0.22,0.88-0.75,1.76-1.42,2.46c0.08,0.11,0.64,0.84,0.72,0.95c0.87-0.47,1.86-0.73,2.75-0.72h0.04l0.03,0.04
	c0.22,0.28,0.46,0.71,0.59,1l0.03,0.06l-0.03,0.04c-0.44,0.77-1.17,1.49-2.01,2c0.05,0.13,0.39,0.97,0.46,1.08
	c0.94-0.24,1.97-0.24,2.82,0l0.05,0.01l0.02,0.05c0.12,0.29,0.26,0.78,0.3,1.13l0.01,0.04l-0.03,0.04
	c-0.63,0.65-1.52,1.15-2.46,1.42c0.02,0.13,0.13,1.04,0.16,1.18c0.99,0.02,1.97,0.28,2.74,0.74l0.05,0.03l0,0.04
	C134.24,24.55,134.25,24.76,134.25,24.97 M107.2,14.47l1.48,1.65c0.21,0.22,0.43,0.19,0.73-0.04c1.87-1.47,4.27-2.33,6.82-2.33
	c2.56,0,4.95,0.86,6.84,2.33c0.3,0.22,0.51,0.26,0.73,0.04l1.48-1.65c0.17-0.18,0.17-0.43-0.15-0.7c-2.48-1.93-5.54-3.12-8.91-3.12
	c-3.35,0-6.45,1.19-8.89,3.13C107.02,14.04,107.04,14.29,107.2,14.47 M107.3,21.4c-0.16-0.1-0.34-0.23-0.48-0.16
	c-0.11,0.04-0.2,0.16-0.26,0.35c-0.69,2.38-0.69,4.4,0,6.75c0.05,0.15,0.1,0.3,0.24,0.34c0.11,0.05,0.28,0,0.5-0.15l4.58-3.11
	c0.17-0.11,0.27-0.28,0.27-0.44c0-0.18-0.1-0.33-0.27-0.45L107.3,21.4z M108.3,18.67c0.02,0.17,0.21,0.25,0.38,0.33l4.99,2.42
	c0.2,0.09,0.38,0.09,0.53,0.01c0.14-0.09,0.23-0.25,0.24-0.46l0.4-5.54c0.02-0.26-0.01-0.42-0.11-0.5
	c-0.11-0.09-0.26-0.07-0.41-0.04c-2.39,0.58-4.13,1.58-5.85,3.38C108.34,18.43,108.27,18.56,108.3,18.67 M108.38,31.32
	c0,0.1,0.07,0.21,0.19,0.34c1.72,1.8,3.46,2.81,5.85,3.37c0.15,0.05,0.3,0.07,0.41-0.01c0.11-0.08,0.14-0.24,0.12-0.51
	c0-0.01-0.41-5.54-0.41-5.54c-0.02-0.21-0.1-0.37-0.24-0.46c-0.15-0.08-0.33-0.08-0.53,0.01l-4.98,2.42
	c-0.17,0.08-0.36,0.17-0.39,0.33C108.38,31.29,108.38,31.3,108.38,31.32 M116.23,28.53c1.97,0,3.57-1.6,3.57-3.57
	c0-1.97-1.6-3.57-3.57-3.58c-1.97,0-3.58,1.61-3.58,3.58C112.66,26.93,114.26,28.53,116.23,28.53 M117.75,34.94
	c0.08,0.07,0.22,0.09,0.43,0.03c2.38-0.57,4.13-1.58,5.83-3.37c0.1-0.11,0.21-0.24,0.18-0.37c-0.03-0.13-0.14-0.24-0.37-0.36
	l-5-2.42c-0.19-0.09-0.37-0.09-0.53-0.01c-0.15,0.09-0.24,0.25-0.25,0.47l-0.4,5.53C117.64,34.62,117.62,34.82,117.75,34.94
	 M125.2,28.49c0.15,0.1,0.32,0.21,0.48,0.16c0.11-0.03,0.2-0.15,0.26-0.36c0.7-2.37,0.7-4.4,0-6.74c-0.04-0.14-0.11-0.3-0.23-0.35
	c-0.12-0.05-0.28,0.01-0.51,0.16l-4.58,3.12c-0.18,0.12-0.27,0.28-0.27,0.45c0,0.17,0.09,0.33,0.27,0.45L125.2,28.49z M124.19,18.58
	c0.01-0.1-0.05-0.21-0.19-0.34c-1.7-1.8-3.45-2.81-5.85-3.38c-0.13-0.03-0.29-0.07-0.4,0.03c-0.11,0.08-0.14,0.25-0.12,0.5
	l0.39,5.54c0.01,0.21,0.11,0.38,0.25,0.46c0.15,0.09,0.34,0.07,0.53-0.02l4.99-2.41c0.16-0.08,0.34-0.16,0.38-0.33
	C124.19,18.61,124.19,18.6,124.19,18.58 M102.86,28.48l2.12-0.62c0.2-0.06,0.36-0.26,0.35-0.52c-0.76-3.96,0.21-7.17,2.53-9.74
	c0.23-0.17,0.26-0.51,0.04-0.75l-1.54-1.55c-0.15-0.17-0.43-0.17-0.66,0.07c-2.96,3.12-4.46,7.9-3.36,12.79
	C102.39,28.38,102.58,28.55,102.86,28.48 M129.29,29.61l-2.13-0.73c-0.11-0.04-0.4-0.04-0.55,0.34c-1.72,4.12-5.73,6.95-10.36,6.95
	c-4.65,0-8.73-2.89-10.37-7.02c-0.12-0.31-0.42-0.31-0.54-0.27l-2.12,0.73c-0.23,0.08-0.37,0.29-0.25,0.58
	c2.08,5.32,7.26,9.06,13.27,9.06c6.01,0,11.21-3.77,13.3-9.08C129.64,29.89,129.51,29.7,129.29,29.61 M126.82,15.34
	c-0.21-0.25-0.55-0.22-0.65-0.04l-1.54,1.54c-0.22,0.23-0.2,0.58,0.03,0.75c2.32,2.57,3.3,5.78,2.53,9.74
	c-0.02,0.26,0.15,0.47,0.35,0.52l2.13,0.62c0.28,0.08,0.46-0.09,0.53-0.33C131.29,23.26,129.79,18.46,126.82,15.34 M121.86,14.76
	l0.49-0.94l1.32-0.61c-0.14-0.1-0.29-0.17-0.43-0.26l-0.91,0.42l-0.17-0.99c-0.19-0.09-0.31-0.13-0.5-0.21l0.26,1.44l-0.49,0.93
	L121.86,14.76z M119.38,36.18c-0.66,0.14-1.17,0.26-1.82,0.37l0.06,0.38c0.24-0.04,0.46-0.07,0.72-0.1l0.33,1.83l0.49-0.09
	l-0.39-1.82c0.25-0.06,0.48-0.12,0.73-0.18L119.38,36.18z M112.9,36.49v0.12c-0.04,0.3-0.24,0.61-0.57,0.65l0.08,1.06
	c-0.15-0.03-0.33-0.09-0.49-0.16l-0.02-0.99l-0.45-0.19l-0.36,0.88c-0.15-0.05-0.29-0.1-0.43-0.17l0.46-1.07l0.06-0.13l0.37-0.88
	l1.02,0.39C112.78,36.09,112.88,36.29,112.9,36.49 M112.47,36.49c-0.01-0.06-0.04-0.11-0.12-0.15l-0.57-0.21l-0.13,0.36l-0.04,0.13
	l0,0.01l0.52,0.2c0.14,0.06,0.28-0.06,0.33-0.2C112.47,36.59,112.49,36.54,112.47,36.49 M119.37,13.71
	c-0.18-0.05-0.32-0.08-0.52-0.13l0.37-1.25l0.27-0.9c0.39,0.1,0.76,0.22,1.13,0.34c0.21,0.07,0.32,0.3,0.34,0.56
	c0.01,0.34-0.16,0.71-0.5,0.79l0.13,1.01c-0.16-0.07-0.28-0.12-0.46-0.19l-0.12-0.89l-0.43-0.13L119.37,13.71z M119.68,12.53
	l0.51,0.16c0.14,0.04,0.32-0.18,0.32-0.37c0-0.09-0.03-0.17-0.15-0.2c-0.19-0.07-0.31-0.1-0.52-0.16l-0.1,0.36L119.68,12.53z
	 M117.22,37.57l0.49,1.19c-0.16,0.01-0.31,0.02-0.45,0.04l-0.15-0.38l-0.98,0.03l-0.11,0.4c-0.15-0.01-0.3-0.02-0.46-0.02l0.42-1.26
	l0.3-0.95l0.02-0.03l0.5-0.02l0.02,0.06L117.22,37.57z M116.92,38.01l-0.18-0.43l-0.18-0.47l-0.15,0.47l-0.15,0.46L116.92,38.01z
	 M119.92,35.98l0.75,2.15c0.15-0.05,0.3-0.1,0.45-0.16l-0.73-2.13C120.19,35.9,120.1,35.93,119.92,35.98 M109.03,13.38l-0.12-0.22
	c0.33-0.21,0.68-0.39,1.03-0.58c0.4-0.22,0.97,0.32,0.93,0.8c-0.01,0.09-0.03,0.17-0.08,0.24l0.82,0.6
	c-0.16,0.07-0.27,0.14-0.46,0.21l-0.72-0.52l-0.4,0.21l0.42,0.7c-0.16,0.11-0.26,0.17-0.46,0.28L109.03,13.38z M109.52,13.28
	l0.06,0.11l0.23,0.4l0.48-0.25c0.04-0.03,0.07-0.08,0.08-0.15c0.01-0.21-0.15-0.5-0.37-0.37C109.82,13.11,109.72,13.17,109.52,13.28
	"/>
<path class="st1" d="M66.35,29.15l0.07,1.28c0.01,0.2-0.12,0.36-0.32,0.4c-0.54,0.1-1.29,0.22-1.76,0.22c-2.35,0-3.07-0.9-3.07-3.85
	v-4.5h-0.9c-0.21,0-0.39-0.17-0.39-0.39v-1.33c0-0.21,0.17-0.39,0.39-0.39h0.9v-1.58c0-0.18,0.12-0.33,0.29-0.38l1.56-0.38
	c0.12-0.03,0.24,0,0.33,0.07c0.09,0.07,0.15,0.18,0.15,0.3v1.96h2.38c0.21,0,0.39,0.17,0.39,0.39v1.33c0,0.21-0.17,0.39-0.39,0.39
	h-2.38v4.17c0,1.45,0.05,1.94,1.06,1.94c0.38,0,0.96-0.03,1.27-0.04C66.15,28.78,66.34,28.94,66.35,29.15 M58.98,25.65
	c0,3.72-1.41,5.38-4.59,5.38c-3.18,0-4.61-1.66-4.61-5.38c0-3.67,1.42-5.3,4.61-5.3C57.52,20.35,58.98,22.03,58.98,25.65
	 M56.61,25.65c0-2.29-0.62-3.17-2.21-3.17c-1.65,0-2.23,0.83-2.23,3.17c0,2.12,0.36,3.27,2.23,3.27
	C56.24,28.93,56.61,27.72,56.61,25.65 M93.82,20.74c-0.07-0.1-0.19-0.15-0.31-0.15H92c-0.18,0-0.33,0.12-0.38,0.29l-2.03,7.65h-0.16
	l-2.03-7.65c-0.05-0.17-0.2-0.29-0.38-0.29h-1.51c-0.12,0-0.24,0.06-0.31,0.15c-0.07,0.1-0.1,0.22-0.07,0.33l2.24,8.58
	c0.11,0.43,0.5,1.15,1.28,1.15h0.43c-0.04,0.14-0.08,0.3-0.12,0.43l-0.02,0.07c-0.12,0.39-0.3,0.99-1.41,0.99l-1.93-0.12
	c-0.11-0.01-0.22,0.03-0.29,0.11c-0.08,0.08-0.12,0.18-0.12,0.29l0.05,1.01c0.01,0.17,0.13,0.32,0.3,0.36
	c0.57,0.14,1.66,0.31,2.55,0.34c0.05,0,0.08,0,0.12,0c1.46,0,2.45-0.94,2.95-2.8c0.58-2.18,1.31-4.98,1.83-7.02
	c0.24-0.92,0.45-1.71,0.59-2.28l0.29-1.11C93.92,20.96,93.89,20.84,93.82,20.74 M48.37,30.26c0.05,0.12,0.04,0.26-0.03,0.37
	c-0.07,0.11-0.19,0.18-0.33,0.18H46.2c-0.15,0-0.29-0.09-0.35-0.23l-2.32-5.22c-1.15-0.01-2.15-0.07-2.69-0.11v5.17
	c0,0.21-0.17,0.39-0.39,0.39h-1.62c-0.22,0-0.39-0.17-0.39-0.39V17.33c0-0.2,0.15-0.36,0.35-0.38c2.08-0.23,3.74-0.26,4.36-0.26
	c0.21,0,0.33,0,0.33,0c3.99,0,4.82,2.35,4.82,4.33c0,1.64-0.79,2.84-2.41,3.64L48.37,30.26z M43.46,18.94h-0.85
	c-0.95,0-1.5,0.07-1.77,0.13v4.03c0.45,0.03,1.33,0.08,2.51,0.06c1.52-0.02,2.46-0.82,2.46-2.1C45.81,20.03,45.19,18.94,43.46,18.94
	 M75.87,23.81v6.77c0,0.11-0.05,0.22-0.13,0.29c-0.09,0.07-0.2,0.11-0.31,0.09c-0.79-0.11-1.17-0.36-1.55-0.65
	c-0.01,0.01-1.77,0.72-3.34,0.72c-1.89,0-2.97-1.19-2.97-3.28c0-2.03,0.99-2.93,3.42-3.11l2.54-0.2v-0.61
	c0-0.78-0.46-1.23-1.27-1.23c-1.11,0-2.7,0.13-3.54,0.21c-0.11,0.01-0.22-0.02-0.29-0.1c-0.08-0.07-0.13-0.17-0.13-0.27l-0.05-1.3
	c-0.01-0.2,0.13-0.37,0.33-0.4c0.76-0.12,2.64-0.4,3.81-0.4C74.76,20.35,75.87,21.45,75.87,23.81 M71.28,26.39
	c-0.92,0.09-1.35,0.5-1.35,1.31c0,0.5,0.14,1.33,1.04,1.33c1.08,0,2.55-0.41,2.56-0.41v-2.35L71.28,26.39z M83.44,20.52
	c-1.03,0.06-2.04,0.65-2.68,1.1v-0.63c0-0.21-0.17-0.39-0.39-0.39h-1.56c-0.21,0-0.39,0.17-0.39,0.39v9.44
	c0,0.21,0.17,0.39,0.39,0.39h1.56c0.21,0,0.39-0.17,0.39-0.39V23.9c0.35-0.29,1.44-1.11,2.74-1.22c0.2-0.02,0.35-0.18,0.35-0.39
	V20.9c0-0.11-0.04-0.21-0.12-0.28C83.65,20.55,83.55,20.51,83.44,20.52"/>
<g>
	<path class="st1" d="M9.28,37.75c-1.07,0-1.92,0.34-2.54,1.03s-0.93,1.63-0.93,2.82c0,1.22,0.29,2.17,0.87,2.85s1.41,1.01,2.5,1.01
		c0.72,0,1.38-0.09,1.98-0.28v0.53c-0.57,0.2-1.27,0.3-2.12,0.3c-1.2,0-2.15-0.39-2.84-1.17s-1.04-1.86-1.04-3.26
		c0-0.87,0.17-1.64,0.5-2.3s0.8-1.18,1.42-1.54s1.34-0.54,2.16-0.54c0.84,0,1.58,0.16,2.24,0.47l-0.24,0.54
		C10.63,37.91,9.97,37.75,9.28,37.75z"/>
	<path class="st1" d="M13.01,45.9h-0.58v-9.12h0.58V45.9z"/>
	<path class="st1" d="M15.46,39.53v4.12c0,0.64,0.13,1.11,0.4,1.4s0.69,0.44,1.25,0.44c0.76,0,1.32-0.19,1.67-0.57
		s0.54-1.01,0.54-1.87v-3.52h0.57v6.37h-0.49l-0.11-0.88h-0.04c-0.41,0.66-1.15,1-2.21,1c-1.45,0-2.17-0.78-2.17-2.33v-4.16H15.46z"
		/>
	<path class="st1" d="M24.59,39.41c0.89,0,1.56,0.28,2.01,0.84s0.68,1.38,0.68,2.46c0,1.06-0.24,1.88-0.71,2.45s-1.14,0.86-2,0.86
		c-0.45,0-0.86-0.09-1.22-0.28s-0.65-0.45-0.86-0.8h-0.05l-0.16,0.96H21.9v-9.12h0.58v2.29c0,0.34-0.01,0.66-0.02,0.95l-0.02,0.5
		h0.04c0.24-0.38,0.53-0.66,0.88-0.84S24.11,39.41,24.59,39.41z M24.58,39.94c-0.75,0-1.29,0.21-1.61,0.64s-0.49,1.14-0.49,2.13v0.1
		c0,0.96,0.17,1.65,0.51,2.07s0.86,0.63,1.58,0.63c0.7,0,1.22-0.24,1.57-0.73s0.53-1.18,0.53-2.08
		C26.66,40.86,25.97,39.94,24.58,39.94z"/>
	<path class="st1" d="M37.43,42.71c0,1.04-0.25,1.85-0.76,2.43s-1.2,0.88-2.09,0.88c-0.56,0-1.05-0.13-1.48-0.4
		s-0.75-0.66-0.98-1.16c-0.23-0.5-0.34-1.09-0.34-1.75c0-1.04,0.25-1.85,0.76-2.43s1.2-0.87,2.07-0.87c0.88,0,1.56,0.29,2.06,0.88
		S37.43,41.69,37.43,42.71z M32.4,42.71c0,0.88,0.19,1.56,0.58,2.05s0.93,0.74,1.63,0.74s1.25-0.25,1.63-0.74s0.58-1.17,0.58-2.05
		c0-0.88-0.19-1.56-0.58-2.04s-0.93-0.73-1.64-0.73s-1.25,0.24-1.63,0.72S32.4,41.83,32.4,42.71z"/>
	<path class="st1" d="M41.36,40.04h-1.5v5.87h-0.58v-5.87H38.1V39.7l1.18-0.22v-0.49c0-0.78,0.14-1.35,0.43-1.72
		s0.76-0.55,1.41-0.55c0.35,0,0.7,0.05,1.05,0.16l-0.13,0.5c-0.31-0.1-0.62-0.15-0.93-0.15c-0.45,0-0.77,0.13-0.96,0.4
		s-0.28,0.7-0.28,1.3v0.59h1.5V40.04z"/>
	<path class="st1" d="M51.23,45.9H50.5l-3.29-4.52l-1.14,1.01v3.52h-0.6v-8.57h0.6v4.45l0.95-0.95l3.36-3.5h0.76l-3.51,3.62
		L51.23,45.9z"/>
	<path class="st1" d="M52.03,37.76c0-0.38,0.12-0.56,0.37-0.56c0.12,0,0.22,0.05,0.28,0.15s0.1,0.24,0.1,0.42
		c0,0.18-0.03,0.31-0.1,0.42s-0.16,0.15-0.28,0.15C52.15,38.33,52.03,38.14,52.03,37.76z M52.69,45.9h-0.58v-6.37h0.58V45.9z"/>
	<path class="st1" d="M56.31,45.5c0.37,0,0.69-0.03,0.96-0.09v0.47c-0.28,0.09-0.61,0.14-0.97,0.14c-0.56,0-0.98-0.15-1.25-0.45
		s-0.4-0.77-0.4-1.42v-4.11h-0.94V39.7l0.94-0.26l0.29-1.44h0.3v1.54h1.87v0.5h-1.87v4.03c0,0.49,0.09,0.85,0.26,1.08
		S55.94,45.5,56.31,45.5z"/>
	<path class="st1" d="M61,46.02c-0.91,0-1.62-0.29-2.14-0.86s-0.77-1.38-0.77-2.4c0-1.05,0.27-1.88,0.8-2.46s1.27-0.88,2.2-0.88
		c0.55,0,1.08,0.1,1.58,0.29l-0.16,0.52c-0.55-0.18-1.03-0.28-1.44-0.28c-0.78,0-1.37,0.24-1.78,0.72s-0.6,1.18-0.6,2.08
		c0,0.86,0.2,1.53,0.6,2.02s0.96,0.73,1.69,0.73c0.58,0,1.12-0.1,1.61-0.31v0.54C62.19,45.92,61.66,46.02,61,46.02z"/>
	<path class="st1" d="M68.41,45.9v-4.13c0-0.64-0.13-1.11-0.4-1.4s-0.69-0.44-1.25-0.44c-0.76,0-1.32,0.19-1.67,0.58
		s-0.53,1.01-0.53,1.87v3.52h-0.58v-9.12h0.58v2.9l-0.03,0.81h0.04c0.24-0.38,0.54-0.66,0.9-0.83s0.81-0.26,1.35-0.26
		c1.45,0,2.17,0.78,2.17,2.33v4.17H68.41z"/>
	<path class="st1" d="M73.42,46.02c-0.93,0-1.65-0.29-2.17-0.86s-0.78-1.37-0.78-2.4c0-1.02,0.25-1.83,0.75-2.44
		s1.17-0.92,2.02-0.92c0.75,0,1.34,0.26,1.78,0.79s0.65,1.23,0.65,2.13v0.47h-4.59c0.01,0.88,0.21,1.54,0.61,2s0.97,0.69,1.72,0.69
		c0.36,0,0.68-0.03,0.96-0.08s0.62-0.16,1.05-0.33v0.53c-0.36,0.16-0.69,0.26-1,0.32S73.79,46.02,73.42,46.02z M73.25,39.93
		c-0.61,0-1.11,0.2-1.48,0.61s-0.59,0.99-0.65,1.75h3.94c0-0.74-0.16-1.32-0.48-1.73S73.82,39.93,73.25,39.93z"/>
	<path class="st1" d="M81.69,45.9v-4.13c0-0.64-0.13-1.11-0.4-1.4s-0.69-0.44-1.25-0.44c-0.76,0-1.32,0.19-1.67,0.58
		s-0.53,1.01-0.53,1.87v3.52h-0.58v-6.37h0.49l0.11,0.87h0.04c0.41-0.66,1.15-1,2.21-1c1.45,0,2.17,0.78,2.17,2.33v4.17H81.69z"/>
	<path class="st1" d="M86.7,46.02c-0.93,0-1.65-0.29-2.17-0.86s-0.78-1.37-0.78-2.4c0-1.02,0.25-1.83,0.75-2.44s1.17-0.92,2.02-0.92
		c0.75,0,1.34,0.26,1.78,0.79s0.65,1.23,0.65,2.13v0.47h-4.59c0.01,0.88,0.21,1.54,0.61,2s0.97,0.69,1.72,0.69
		c0.36,0,0.68-0.03,0.96-0.08s0.62-0.16,1.05-0.33v0.53c-0.36,0.16-0.69,0.26-1,0.32S87.07,46.02,86.7,46.02z M86.53,39.93
		c-0.61,0-1.11,0.2-1.48,0.61s-0.59,0.99-0.65,1.75h3.94c0-0.74-0.16-1.32-0.48-1.73S87.1,39.93,86.53,39.93z"/>
	<path class="st1" d="M93.03,39.41c0.27,0,0.56,0.03,0.87,0.08l-0.11,0.56c-0.27-0.07-0.54-0.1-0.83-0.1
		c-0.54,0-0.99,0.23-1.34,0.69s-0.52,1.04-0.52,1.75v3.52h-0.58v-6.37h0.49l0.06,1.15h0.04c0.26-0.47,0.54-0.8,0.84-0.99
		S92.61,39.41,93.03,39.41z"/>
</g>
</svg>
