<?xml version="1.0" encoding="utf-8"?>
<!-- Generator: Adobe Illustrator 25.2.2, SVG Export Plug-In . SVG Version: 6.00 Build 0)  -->
<svg version="1.1" id="Layer_1" xmlns="http://www.w3.org/2000/svg" xmlns:xlink="http://www.w3.org/1999/xlink" x="0px" y="0px"
	 viewBox="0 0 100 100" style="enable-background:new 0 0 100 100;" xml:space="preserve">
<style type="text/css">
	.st0{fill:#5AB65A;}
	.st1{fill:#EEAC4D;}
	.st2{fill:#1D81C4;}
	.st3{fill:#5BCAF4;}
	.st4{fill:#EF6724;}
	.st5{fill:#C9DA2C;}
	.st6{fill:#CE202F;}
	.st7{fill:#FFC52F;}
</style>
<path class="st2" d="M50,93.5c-2.84,0-5.7-0.28-8.49-0.84c-2.79-0.55-5.53-1.39-8.16-2.48c-2.63-1.09-5.16-2.44-7.52-4.02
	c-2.36-1.58-4.58-3.4-6.59-5.41c-2.01-2.01-3.83-4.23-5.41-6.59c-1.58-2.36-2.93-4.89-4.02-7.52c-1.09-2.63-1.92-5.37-2.48-8.16
	C6.78,55.7,6.5,52.84,6.5,50c0-2.85,0.28-5.7,0.84-8.49c0.55-2.79,1.39-5.53,2.47-8.16c1.09-2.63,2.44-5.16,4.02-7.52
	c1.58-2.36,3.4-4.58,5.41-6.59c2.01-2.01,4.23-3.83,6.59-5.41c2.36-1.58,4.89-2.93,7.52-4.02c2.63-1.09,5.37-1.92,8.16-2.48
	c5.57-1.11,11.4-1.11,16.97,0c2.79,0.55,5.53,1.39,8.16,2.48c2.63,1.09,5.16,2.44,7.52,4.02c2.36,1.58,4.58,3.4,6.59,5.41
	c2.01,2.01,3.83,4.23,5.41,6.59c1.58,2.36,2.93,4.89,4.02,7.52c1.09,2.62,1.92,5.37,2.48,8.16c0.55,2.78,0.84,5.64,0.84,8.49
	c0,2.84-0.28,5.7-0.84,8.49c-0.55,2.79-1.39,5.53-2.48,8.16c-1.09,2.63-2.44,5.16-4.02,7.52c-1.58,2.36-3.4,4.58-5.41,6.59
	c-2.01,2.01-4.23,3.83-6.59,5.41c-2.36,1.58-4.89,2.93-7.52,4.02c-2.63,1.09-5.37,1.92-8.16,2.48C55.7,93.22,52.84,93.5,50,93.5z
	 M50,17.5c-2.12,0-4.26,0.21-6.34,0.62c-2.08,0.41-4.14,1.04-6.1,1.85c-1.96,0.81-3.85,1.82-5.62,3c-1.77,1.18-3.42,2.54-4.93,4.04
	c-1.5,1.5-2.86,3.16-4.04,4.92c-1.18,1.77-2.19,3.66-3,5.62c-0.81,1.96-1.43,4.01-1.85,6.1c-0.42,2.08-0.62,4.21-0.62,6.34
	c0,2.12,0.21,4.26,0.62,6.34c0.41,2.08,1.04,4.14,1.85,6.1c0.81,1.96,1.83,3.86,3,5.62c1.18,1.77,2.54,3.42,4.04,4.93
	c1.5,1.5,3.16,2.86,4.92,4.04c1.77,1.18,3.66,2.19,5.62,3c1.96,0.81,4.01,1.43,6.1,1.85c4.17,0.83,8.52,0.83,12.68,0
	c2.08-0.41,4.14-1.04,6.1-1.85c1.96-0.81,3.86-1.83,5.62-3c1.77-1.18,3.42-2.54,4.93-4.04c1.5-1.5,2.86-3.16,4.04-4.92
	c1.18-1.76,2.19-3.65,3-5.62c0.81-1.96,1.43-4.01,1.85-6.1c0.42-2.08,0.62-4.22,0.62-6.34c0-2.13-0.21-4.26-0.62-6.34
	c-0.42-2.09-1.04-4.14-1.85-6.1c-0.81-1.96-1.82-3.85-3-5.62c-1.18-1.77-2.54-3.42-4.04-4.93c-1.5-1.5-3.16-2.86-4.92-4.04
	c-1.76-1.18-3.65-2.19-5.62-3c-1.96-0.81-4.01-1.43-6.1-1.85C54.26,17.71,52.12,17.5,50,17.5z"/>
</svg>
