<?xml version="1.0" encoding="utf-8"?>
<!-- Generator: Adobe Illustrator 25.2.2, SVG Export Plug-In . SVG Version: 6.00 Build 0)  -->
<svg version="1.1" id="Layer_1" xmlns="http://www.w3.org/2000/svg" xmlns:xlink="http://www.w3.org/1999/xlink" x="0px" y="0px"
	 viewBox="0 0 100 100" style="enable-background:new 0 0 100 100;" xml:space="preserve">
<style type="text/css">
	.st0{fill:#5AB65A;}
	.st1{fill:#EEAC4D;}
	.st2{fill:#1D81C4;}
	.st3{fill:#5BCAF4;}
	.st4{fill:#EF6724;}
	.st5{fill:#C9DA2C;}
	.st6{fill:#CE202F;}
	.st7{fill:#FFC52F;}
</style>
<path class="st0" d="M50,12c-2.5,0-4.97,0.24-7.41,0.73c-2.45,0.49-4.82,1.21-7.13,2.16c-2.31,0.95-4.5,2.13-6.57,3.51
	c-2.07,1.39-3.99,2.96-5.76,4.73c-1.76,1.76-3.34,3.68-4.73,5.76c-1.39,2.07-2.56,4.26-3.51,6.57c-0.95,2.31-1.68,4.68-2.16,7.13
	C12.24,45.03,12,47.5,12,50c0,2.5,0.24,4.97,0.73,7.41c0.49,2.45,1.21,4.82,2.16,7.13c0.95,2.31,2.13,4.5,3.51,6.57
	c1.39,2.07,2.96,3.99,4.73,5.76c1.76,1.76,3.68,3.34,5.76,4.73c2.07,1.39,4.26,2.56,6.57,3.51c2.31,0.96,4.68,1.68,7.13,2.16
	C45.03,87.76,47.5,88,50,88c2.5,0,4.97-0.24,7.41-0.73c2.45-0.49,4.82-1.21,7.13-2.16c2.31-0.95,4.5-2.13,6.57-3.51
	c2.07-1.39,3.99-2.96,5.76-4.73c1.76-1.76,3.34-3.68,4.73-5.76c1.39-2.07,2.56-4.26,3.51-6.57c0.95-2.31,1.68-4.68,2.16-7.13
	C87.76,54.97,88,52.5,88,50c0-2.5-0.24-4.97-0.73-7.41c-0.49-2.45-1.21-4.82-2.16-7.13c-0.95-2.31-2.13-4.49-3.51-6.57
	c-1.39-2.07-2.96-3.99-4.73-5.76c-1.76-1.76-3.68-3.34-5.76-4.73c-2.07-1.39-4.26-2.56-6.57-3.51c-2.31-0.95-4.68-1.68-7.13-2.16
	C54.97,12.24,52.5,12,50,12z"/>
</svg>
