<?xml version="1.0" encoding="utf-8"?>
<!-- Generator: Adobe Illustrator 28.0.0, SVG Export Plug-In . SVG Version: 6.00 Build 0)  -->
<svg version="1.1" id="Layer_1" xmlns="http://www.w3.org/2000/svg" xmlns:xlink="http://www.w3.org/1999/xlink" x="0px" y="0px"
	 viewBox="0 0 100 100" style="enable-background:new 0 0 100 100;" xml:space="preserve">
<style type="text/css">
	.st0{fill:#B12629;}
</style>
<path class="st0" d="M50,12c-2.5,0-5,0.2-7.4,0.7c-2.5,0.5-4.8,1.2-7.1,2.2S31,17,28.9,18.4c-2.1,1.4-4,3-5.8,4.7
	c-1.8,1.8-3.3,3.7-4.7,5.8c-1.4,2.1-2.6,4.3-3.5,6.6c-0.9,2.3-1.7,4.7-2.2,7.1C12.2,45,12,47.5,12,50s0.2,5,0.7,7.4
	c0.5,2.5,1.2,4.8,2.2,7.1c0.9,2.3,2.1,4.5,3.5,6.6c1.4,2.1,3,4,4.7,5.8c1.8,1.8,3.7,3.3,5.8,4.7c2.1,1.4,4.3,2.6,6.6,3.5
	c2.3,1,4.7,1.7,7.1,2.2C45,87.8,47.5,88,50,88s5-0.2,7.4-0.7c2.5-0.5,4.8-1.2,7.1-2.2c2.3-0.9,4.5-2.1,6.6-3.5c2.1-1.4,4-3,5.8-4.7
	c1.8-1.8,3.3-3.7,4.7-5.8c1.4-2.1,2.6-4.3,3.5-6.6c0.9-2.3,1.7-4.7,2.2-7.1C87.8,55,88,52.5,88,50s-0.2-5-0.7-7.4
	c-0.5-2.5-1.2-4.8-2.2-7.1c-0.9-2.3-2.1-4.5-3.5-6.6c-1.4-2.1-3-4-4.7-5.8c-1.8-1.8-3.7-3.3-5.8-4.7c-2.1-1.4-4.3-2.6-6.6-3.5
	c-2.3-0.9-4.7-1.7-7.1-2.2C55,12.2,52.5,12,50,12z"/>
</svg>
