<?xml version="1.0" encoding="utf-8"?>
<!-- Generator: Adobe Illustrator 25.2.2, SVG Export Plug-In . SVG Version: 6.00 Build 0)  -->
<svg version="1.1" id="Layer_1" xmlns="http://www.w3.org/2000/svg" xmlns:xlink="http://www.w3.org/1999/xlink" x="0px" y="0px"
	 viewBox="0 0 289 66.67" style="enable-background:new 0 0 289 66.67;" xml:space="preserve">
<style type="text/css">
	.st0{fill:#231F20;}
	.st1{fill:#B8292F;}
	.st2{fill:#B9282E;}
	.st3{fill:#BA272D;}
	.st4{fill:#BB272D;}
	.st5{fill:#BC262C;}
	.st6{fill:#BD252B;}
	.st7{fill:#BE242A;}
	.st8{fill:#BF2329;}
	.st9{fill:#C02228;}
	.st10{fill:#C12127;}
	.st11{fill:#C22026;}
	.st12{fill:#C31F25;}
	.st13{fill:#C41F25;}
	.st14{fill:#C51E24;}
	.st15{fill:#C61D23;}
	.st16{fill:#C61E23;}
	.st17{fill:#C71F23;}
	.st18{fill:#C72023;}
	.st19{fill:#C82123;}
	.st20{fill:#C82223;}
	.st21{fill:#C92323;}
	.st22{fill:#C92423;}
	.st23{fill:#CA2523;}
	.st24{fill:#CA2623;}
	.st25{fill:#CB2723;}
	.st26{fill:#CB2823;}
	.st27{fill:#CB2923;}
	.st28{fill:#CC2A23;}
	.st29{fill:#CC2B23;}
	.st30{fill:#CD2C23;}
	.st31{fill:#CD2D23;}
	.st32{fill:#CE2E22;}
	.st33{fill:#CE2F22;}
	.st34{fill:#CF3022;}
	.st35{fill:#CF3122;}
	.st36{fill:#D03222;}
	.st37{fill:#D03322;}
	.st38{fill:#D03422;}
	.st39{fill:#D13522;}
	.st40{fill:#D13622;}
	.st41{fill:#D23722;}
	.st42{fill:#D23822;}
	.st43{fill:#D33922;}
	.st44{fill:#D33A22;}
	.st45{fill:#D43B22;}
	.st46{fill:#D43C22;}
	.st47{fill:#D53D22;}
	.st48{fill:#D53E22;}
	.st49{fill:#D53F22;}
	.st50{fill:#D64022;}
	.st51{fill:#D64122;}
	.st52{fill:#D74222;}
	.st53{fill:#D74322;}
	.st54{fill:#D84422;}
	.st55{fill:#D84522;}
	.st56{fill:#D94622;}
	.st57{fill:#D94722;}
	.st58{fill:#DA4822;}
	.st59{fill:#DA4922;}
	.st60{fill:#DA4A22;}
	.st61{fill:#DB4B22;}
	.st62{fill:#DB4C22;}
	.st63{fill:#DC4D22;}
	.st64{fill:#DC4E22;}
	.st65{fill:#DD4F22;}
	.st66{fill:#DD4F21;}
	.st67{fill:#DE5021;}
	.st68{fill:#DE5121;}
	.st69{fill:#DF5221;}
	.st70{fill:#DF5321;}
	.st71{fill:#E05421;}
	.st72{fill:#E05521;}
	.st73{fill:#E05621;}
	.st74{fill:#E15721;}
	.st75{fill:#E15821;}
	.st76{fill:#E25921;}
	.st77{fill:#E25A21;}
	.st78{fill:#E35B21;}
	.st79{fill:#E35C21;}
	.st80{fill:#E45D21;}
	.st81{fill:#E45E21;}
	.st82{fill:#E55F21;}
	.st83{fill:#E56021;}
	.st84{fill:#E56121;}
	.st85{fill:#E66221;}
	.st86{fill:#E66321;}
	.st87{fill:#E76421;}
	.st88{fill:#E76521;}
	.st89{fill:#E86621;}
	.st90{fill:#E86721;}
	.st91{fill:#E96821;}
	.st92{fill:#E96921;}
	.st93{fill:#EA6A21;}
	.st94{fill:#EA6B21;}
	.st95{fill:#EA6C21;}
	.st96{fill:#EB6D21;}
	.st97{fill:#EB6E21;}
	.st98{fill:#EC6F21;}
	.st99{fill:#EC7021;}
	.st100{fill:#ED7120;}
	.st101{fill:#ED7220;}
	.st102{fill:#EE7320;}
	.st103{fill:#EE7420;}
	.st104{fill:#EF7520;}
	.st105{fill:#EF7620;}
	.st106{fill:#EF7720;}
	.st107{fill:#F07820;}
	.st108{fill:#F07920;}
	.st109{fill:#F17A20;}
	.st110{fill:#F17B20;}
	.st111{fill:#F27C20;}
	.st112{fill:#F27D20;}
	.st113{fill:#F37E20;}
	.st114{fill:#F37F20;}
	.st115{fill:#F48020;}
	.st116{fill:#F48120;}
	.st117{opacity:0.4;fill:#FFFFFF;enable-background:new    ;}
	.st118{fill:#FFFFFF;}
</style>
<g>
	<path class="st0" d="M19.26,20.35h-5.64c-1.17-0.01-2.33,0.06-3.49,0.21c-0.66,0.1-0.99,0.69-0.99,1.77c0,0.81,0,1.5-0.05,2.1v0.48
		H6.59v-6.48h30.4v6.48H34.5v-0.48c-0.05-0.58-0.07-1.29-0.07-2.1c0-1.08-0.32-1.67-0.97-1.77c-1.15-0.15-2.31-0.22-3.47-0.21h-5.65
		v27.27c0,2.13,0.19,3.41,0.57,3.86s1.5,0.75,3.43,0.83h1.03v1.5H14.3v-1.5h1.02c1.88-0.1,2.99-0.37,3.38-0.83
		c0.39-0.46,0.55-1.74,0.55-3.86C19.26,47.61,19.26,20.35,19.26,20.35z M46.57,32.67c1.04-1.66,2.45-3.06,4.13-4.08
		c1.59-0.92,3.4-1.39,5.24-1.36c1.99-0.1,3.92,0.71,5.24,2.2c1.26,1.5,1.89,3.52,1.89,6.06v12.12c0.11,2.38,0.3,3.72,0.55,4.02
		c0.25,0.31,1.4,0.52,3.44,0.67h0.43v1.5H53.93v-1.5h0.43c2.04-0.15,3.2-0.37,3.45-0.67c0.25-0.31,0.44-1.64,0.55-4.02V36.22
		c0-2.25-0.28-3.79-0.87-4.66c-0.58-0.88-1.62-1.3-3.11-1.3c-1.24,0.05-2.45,0.39-3.54,1c-1.54,0.82-2.98,1.82-4.27,2.99V47.6
		c0,2.17,0.17,3.47,0.52,3.88c0.35,0.41,1.5,0.69,3.45,0.82H51v1.5H37.42v-1.5h0.46c1.93-0.13,3.08-0.41,3.44-0.83
		s0.54-1.71,0.54-3.86V22.23c0-2.16-0.18-3.44-0.54-3.86c-0.36-0.42-1.5-0.7-3.44-0.83h-0.46v-1.5h9.15
		C46.57,16.04,46.57,32.67,46.57,32.67z M88.18,52.64c-2.61,1.1-5.4,1.7-8.23,1.77c-3.51,0.12-6.9-1.29-9.29-3.86
		c-2.38-2.56-3.57-5.9-3.58-10.01c0-3.9,1.07-7.1,3.2-9.59c2.03-2.44,5.06-3.82,8.23-3.74c3.1,0,5.48,1.05,7.14,3.14
		s2.49,5.07,2.5,8.94v0.46H72.29c0,4.05,0.7,7.12,2.12,9.18c1.4,2.06,3.79,3.24,6.28,3.1c2.61,0.08,5.2-0.55,7.48-1.81L88.18,52.64z
		 M72.46,38.3h10.72v-1.06c0-3.02-0.39-5.21-1.17-6.56c-0.78-1.33-2.24-2.1-3.78-2c-1.78,0.01-3.41,1.02-4.21,2.61
		c-1.13,2.16-1.67,4.58-1.56,7.01C72.47,38.31,72.46,38.3,72.46,38.3z M179.3,52.64c-2.61,1.1-5.4,1.7-8.23,1.77
		c-3.51,0.13-6.9-1.28-9.29-3.86c-2.39-2.56-3.58-5.9-3.58-10.01c0-3.9,1.07-7.1,3.2-9.59c2.03-2.44,5.06-3.82,8.23-3.74
		c3.09,0,5.47,1.05,7.14,3.14c1.67,2.09,2.51,5.07,2.5,8.94v0.46h-15.85c0,4.05,0.75,7.12,2.12,9.18c1.41,2.06,3.79,3.24,6.29,3.1
		c2.61,0.08,5.2-0.55,7.48-1.81L179.3,52.64L179.3,52.64z M163.58,38.3h10.76v-1.06c0-3.02-0.39-5.21-1.17-6.56
		c-0.78-1.34-2.26-2.12-3.81-2.01c-1.78,0.01-3.41,1.02-4.21,2.61c-1.05,1.77-1.56,4.09-1.56,7.03L163.58,38.3L163.58,38.3z
		 M202.78,52.94c-2.31,0.96-4.79,1.47-7.29,1.5c-3.49,0.13-6.85-1.26-9.24-3.81c-2.36-2.54-3.54-5.85-3.53-9.92
		c0.01-4.07,1.14-7.33,3.39-9.77c2.28-2.45,5.3-3.67,9.07-3.67c2.57,0.08,5.12,0.47,7.6,1.15v6.2h-2.93v-0.43
		c0-3.58-1.58-5.37-4.72-5.37c-2.24-0.02-4.33,1.17-5.45,3.11c-1.35,2.08-2.02,4.89-2.01,8.44c0,3.63,0.8,6.49,2.39,8.58
		c1.52,2.06,3.96,3.23,6.51,3.14c2.14,0.04,4.27-0.37,6.24-1.21L202.78,52.94L202.78,52.94z M218.53,54.43
		c-3.83,0-6.84-1.22-9.06-3.66c-2.22-2.44-3.32-5.75-3.32-9.95s1.11-7.48,3.32-9.94s5.24-3.65,9.06-3.65c3.82,0,6.87,1.22,9.07,3.65
		c2.2,2.43,3.31,5.73,3.31,9.94s-1.11,7.48-3.32,9.95C225.39,53.23,222.36,54.43,218.53,54.43L218.53,54.43z M218.53,52.97
		c2.13,0,3.89-1.15,5.3-3.44c1.41-2.3,2.11-5.2,2.1-8.7c0.11-3.03-0.62-6.03-2.1-8.67c-1.42-2.31-3.2-3.47-5.34-3.47
		c-2.1,0-3.86,1.15-5.24,3.47c-2.81,5.45-2.81,11.93,0,17.38c1.38,2.3,3.14,3.44,5.24,3.44H218.53L218.53,52.97z M241.83,34.96
		v12.65c0,2.16,0.19,3.44,0.56,3.88c0.37,0.43,1.5,0.7,3.44,0.82h1.03v1.5h-14.15v-1.5h0.45c1.93-0.13,3.08-0.4,3.44-0.83
		c0.36-0.43,0.54-1.71,0.54-3.86V34.04c0-2.16-0.19-3.44-0.54-3.85c-0.35-0.42-1.5-0.7-3.44-0.84h-0.45v-1.5h9.14v4.87
		c2.15-3.65,4.95-5.48,8.43-5.48c0.55,0.01,1.09,0.11,1.6,0.28v7.09h-2.7v-0.43c-0.06-0.9-0.21-1.79-0.46-2.65
		c-0.14-0.28-0.5-0.42-1.09-0.42C245.28,31.11,243.35,32.39,241.83,34.96L241.83,34.96z M273.26,53.82v-4.84
		c-0.99,1.66-2.37,3.06-4,4.08c-1.54,0.92-3.31,1.39-5.1,1.37c-2.77,0.08-5.4-1.23-7.01-3.49c-1.74-2.33-2.61-5.45-2.61-9.36
		c0-4.34,1-7.82,2.99-10.43c1.84-2.53,4.81-4,7.94-3.91c1.46-0.01,2.9,0.29,4.23,0.88c1.35,0.64,2.56,1.54,3.56,2.65v-8.53
		c0-2.19-0.16-3.48-0.5-3.89c-0.34-0.41-1.5-0.67-3.47-0.8h-0.46v-1.5h9.15v31.58c0,2.17,0.16,3.47,0.52,3.88s1.5,0.69,3.45,0.82
		h0.46v1.5L273.26,53.82L273.26,53.82z M273.26,32.61c-1.11-0.86-2.33-1.56-3.64-2.08c-1.13-0.44-2.32-0.67-3.53-0.68
		c-1.99-0.11-3.88,0.88-4.93,2.57c-1.09,1.74-1.63,4.35-1.63,7.84c0,3.71,0.53,6.48,1.59,8.32c0.92,1.77,2.78,2.85,4.78,2.78
		c1.4,0.01,2.78-0.34,4-1.03c1.33-0.77,2.48-1.81,3.37-3.06L273.26,32.61L273.26,32.61z"/>
	<path class="st1" d="M156.87,33.33c0,16.84-13.66,30.5-30.5,30.5s-30.5-13.66-30.5-30.5s13.66-30.5,30.5-30.5
		c16.84,0,30.5,13.64,30.5,30.49C156.87,33.32,156.87,33.33,156.87,33.33z"/>
	<path class="st2" d="M156.73,33.24c0,16.73-13.56,30.3-30.29,30.31c-16.73,0-30.3-13.56-30.31-30.29
		c0-16.73,13.56-30.3,30.29-30.31c0,0,0.01,0,0.01,0C143.16,2.96,156.72,16.52,156.73,33.24z"/>
	<path class="st3" d="M156.58,33.18c0,16.62-13.47,30.09-30.09,30.09S96.4,49.79,96.4,33.18s13.47-30.09,30.09-30.09
		S156.58,16.56,156.58,33.18z"/>
	<path class="st4" d="M156.43,33.08c0.02,16.5-13.34,29.9-29.84,29.92c-16.5,0.02-29.9-13.34-29.92-29.84
		c-0.02-16.5,13.34-29.9,29.84-29.92c0.01,0,0.02,0,0.04,0C143.04,3.24,156.41,16.59,156.43,33.08z"/>
	<path class="st5" d="M156.28,32.99c0,16.39-13.28,29.68-29.67,29.68c-16.39,0-29.68-13.28-29.68-29.67
		c0-16.39,13.28-29.68,29.67-29.68c0,0,0.01,0,0.01,0C143,3.32,156.28,16.61,156.28,32.99z"/>
	<path class="st6" d="M156.13,32.91c0,16.27-13.19,29.47-29.46,29.47S97.2,49.2,97.2,32.92c0-16.27,13.19-29.47,29.46-29.47
		c0,0,0.01,0,0.01,0C142.95,3.45,156.13,16.64,156.13,32.91z"/>
	<path class="st7" d="M155.99,32.82c0,16.16-13.09,29.26-29.25,29.27c-16.16,0-29.26-13.09-29.27-29.25
		c0-16.16,13.09-29.26,29.25-29.27c0,0,0.01,0,0.01,0C142.89,3.57,155.99,16.66,155.99,32.82z"/>
	<path class="st8" d="M155.84,32.73c0,16.04-13.01,29.05-29.05,29.05S97.75,48.78,97.75,32.73S110.75,3.69,126.8,3.69
		C142.84,3.69,155.84,16.69,155.84,32.73z"/>
	<path class="st8" d="M155.69,32.65c0,15.93-12.91,28.84-28.84,28.84S98.02,48.58,98.02,32.65s12.91-28.84,28.84-28.84
		S155.69,16.72,155.69,32.65z"/>
	<path class="st9" d="M155.55,32.56c0,15.82-12.81,28.64-28.63,28.64c-15.82,0-28.64-12.81-28.64-28.63
		c0-15.82,12.81-28.64,28.63-28.64c0,0,0.01,0,0.01,0C142.73,3.94,155.55,16.75,155.55,32.56z"/>
	<path class="st10" d="M155.4,32.48c0,15.71-12.73,28.44-28.44,28.44S98.52,48.19,98.52,32.48s12.73-28.44,28.44-28.44
		S155.4,16.77,155.4,32.48z"/>
	<path class="st11" d="M155.25,32.43c0,15.58-12.63,28.22-28.21,28.22S98.82,48.03,98.82,32.44s12.63-28.22,28.21-28.22
		c0,0,0.01,0,0.01,0C142.62,4.22,155.25,16.85,155.25,32.43L155.25,32.43z"/>
	<path class="st12" d="M155.11,32.31c0,15.47-12.54,28.02-28.01,28.02c-15.47,0-28.02-12.54-28.02-28.01
		c0-15.47,12.54-28.02,28.01-28.02c0,0,0.01,0,0.01,0C142.57,4.3,155.11,16.84,155.11,32.31L155.11,32.31z"/>
	<path class="st13" d="M154.96,32.23c0,15.36-12.44,27.81-27.8,27.81c-15.36,0-27.81-12.44-27.81-27.8s12.44-27.81,27.8-27.81
		c0.01,0,0.02,0,0.04,0C142.53,4.44,154.96,16.88,154.96,32.23z"/>
	<path class="st14" d="M154.82,32.14c0,15.24-12.35,27.6-27.59,27.6c-15.24,0-27.6-12.35-27.6-27.59c0-15.24,12.35-27.6,27.59-27.6
		c0,0,0,0,0.01,0C142.46,4.55,154.81,16.9,154.82,32.14L154.82,32.14z"/>
	<path class="st15" d="M154.67,32.05c0,15.13-12.26,27.39-27.39,27.39S99.9,47.18,99.9,32.05s12.26-27.39,27.39-27.39
		c0,0,0,0,0.01,0C142.41,4.67,154.67,16.93,154.67,32.05C154.67,32.05,154.67,32.05,154.67,32.05z"/>
	<path class="st15" d="M151.88,29.64c0,12.67-10.27,22.93-22.93,22.93s-22.93-10.27-22.93-22.93s10.27-22.93,22.93-22.93
		c12.66,0,22.93,10.26,22.93,22.92C151.88,29.63,151.88,29.64,151.88,29.64z"/>
	<path class="st16" d="M151.79,29.54c0,12.58-10.2,22.78-22.78,22.78s-22.78-10.2-22.78-22.78S116.42,6.76,129,6.76
		c12.58,0,22.78,10.19,22.78,22.77C151.79,29.53,151.79,29.53,151.79,29.54z"/>
	<path class="st17" d="M151.7,29.43c0,12.5-10.13,22.63-22.63,22.63s-22.63-10.13-22.63-22.63s10.13-22.63,22.63-22.63
		c12.49,0,22.62,10.12,22.63,22.61C151.7,29.42,151.7,29.43,151.7,29.43z"/>
	<path class="st18" d="M151.62,29.33c0,12.4-10.05,22.45-22.45,22.45s-22.45-10.05-22.45-22.45s10.05-22.45,22.45-22.45
		S151.62,16.93,151.62,29.33z"/>
	<path class="st19" d="M151.55,29.22c0,12.33-9.99,22.32-22.32,22.32c-12.32,0-22.32-9.99-22.32-22.31
		c0-12.33,9.99-22.32,22.31-22.32C141.55,6.9,151.54,16.89,151.55,29.22C151.55,29.22,151.55,29.22,151.55,29.22z"/>
	<path class="st20" d="M151.46,29.12c0.02,12.24-9.9,22.18-22.14,22.2c-12.24,0.02-22.18-9.9-22.2-22.14
		c-0.02-12.24,9.9-22.18,22.14-22.2c0.01,0,0.02,0,0.03,0C141.53,6.98,151.45,16.89,151.46,29.12z"/>
	<path class="st21" d="M151.38,29.01c-0.01,12.15-9.87,22-22.03,21.99c-12.15-0.01-22-9.87-22-22.02c0-12.15,9.86-22,22.01-22
		c12.15,0,22.01,9.84,22.01,22C151.38,28.99,151.38,29,151.38,29.01z"/>
	<path class="st22" d="M151.31,28.91c0,12.07-9.78,21.86-21.85,21.87c-12.07,0.01-21.87-9.78-21.87-21.85
		c-0.01-12.07,9.77-21.87,21.85-21.88c12.07-0.01,21.87,9.76,21.88,21.83C151.31,28.89,151.31,28.9,151.31,28.91L151.31,28.91z"/>
	<path class="st23" d="M151.22,28.81c0,11.99-9.72,21.71-21.71,21.71s-21.71-9.72-21.71-21.71s9.72-21.71,21.71-21.71
		S151.22,16.83,151.22,28.81z"/>
	<path class="st24" d="M151.14,28.69c0,11.9-9.65,21.54-21.55,21.54c-11.9,0-21.54-9.65-21.54-21.55c0-11.9,9.65-21.55,21.55-21.55
		c11.9,0,21.54,9.64,21.55,21.53C151.14,28.67,151.14,28.68,151.14,28.69z"/>
	<path class="st25" d="M151.07,28.6c0,11.82-9.58,21.4-21.4,21.4c-11.82,0-21.4-9.58-21.4-21.4s9.58-21.4,21.4-21.4
		c11.81,0,21.39,9.57,21.4,21.38C151.07,28.59,151.07,28.6,151.07,28.6z"/>
	<path class="st26" d="M150.99,28.5c0,11.73-9.51,21.24-21.24,21.24S108.5,40.23,108.5,28.5s9.51-21.24,21.24-21.24
		c11.73,0,21.24,9.5,21.24,21.23C150.99,28.49,150.99,28.49,150.99,28.5z"/>
	<path class="st27" d="M150.9,28.39c0,11.65-9.44,21.09-21.09,21.09c-11.65,0-21.09-9.44-21.09-21.09S118.16,7.3,129.81,7.3
		c0,0,0,0,0.01,0C141.46,7.3,150.9,16.74,150.9,28.39C150.9,28.39,150.9,28.39,150.9,28.39z"/>
	<path class="st28" d="M150.83,28.29c0,11.57-9.38,20.96-20.96,20.96c-11.57,0-20.96-9.38-20.96-20.96s9.38-20.96,20.96-20.96
		C141.45,7.33,150.83,16.71,150.83,28.29z"/>
	<path class="st29" d="M150.75,28.18c0,11.48-9.3,20.79-20.78,20.79s-20.79-9.3-20.79-20.78s9.3-20.79,20.78-20.79c0,0,0,0,0.01,0
		C141.44,7.4,150.74,16.7,150.75,28.18C150.75,28.18,150.75,28.18,150.75,28.18z"/>
	<path class="st30" d="M150.66,28.08c0,11.39-9.24,20.63-20.63,20.63s-20.63-9.24-20.63-20.63s9.24-20.63,20.63-20.63
		c11.39,0,20.62,9.22,20.63,20.61C150.66,28.07,150.66,28.07,150.66,28.08z"/>
	<path class="st31" d="M150.59,27.97c0,11.31-9.16,20.48-20.47,20.49s-20.48-9.16-20.49-20.47S118.79,7.51,130.1,7.5c0,0,0,0,0.01,0
		C141.42,7.5,150.58,16.66,150.59,27.97C150.59,27.97,150.59,27.97,150.59,27.97z"/>
	<path class="st32" d="M150.51,27.87c0,11.22-9.1,20.32-20.32,20.32c-11.22,0-20.32-9.09-20.32-20.32
		c0-11.22,9.09-20.32,20.31-20.33c11.22-0.01,20.32,9.08,20.33,20.3C150.51,27.85,150.51,27.86,150.51,27.87z"/>
	<path class="st33" d="M150.42,27.77c0,11.13-9.03,20.16-20.17,20.16c-11.13,0-20.16-9.03-20.16-20.17
		c0-11.14,9.03-20.16,20.16-20.16C141.4,7.6,150.42,16.63,150.42,27.77C150.42,27.77,150.42,27.77,150.42,27.77z"/>
	<path class="st34" d="M150.39,27.67c0,11.05-8.96,20.01-20.01,20.01s-20.01-8.96-20.01-20.01s8.96-20.01,20.01-20.01
		c11.05,0,20.01,8.95,20.01,20C150.39,27.66,150.39,27.66,150.39,27.67z"/>
	<path class="st35" d="M150.27,27.56c0.01,10.97-8.87,19.87-19.83,19.88c-10.97,0.01-19.87-8.87-19.88-19.83
		c-0.01-10.97,8.87-19.87,19.83-19.88c0.01,0,0.01,0,0.02,0C141.37,7.73,150.25,16.61,150.27,27.56z"/>
	<path class="st36" d="M150.18,27.46c-0.01,10.88-8.84,19.69-19.72,19.68c-10.88-0.01-19.7-8.84-19.69-19.72
		c0.01-10.88,8.83-19.7,19.71-19.69c10.88,0,19.7,8.82,19.7,19.7C150.18,27.44,150.18,27.45,150.18,27.46z"/>
	<path class="st37" d="M150.11,27.35c0,10.8-8.75,19.55-19.55,19.55c-10.8,0-19.55-8.75-19.55-19.54c0-10.8,8.75-19.55,19.54-19.56
		C141.35,7.8,150.11,16.55,150.11,27.35C150.11,27.35,150.11,27.35,150.11,27.35z"/>
	<path class="st38" d="M150.03,27.25c0,10.71-8.69,19.4-19.4,19.4s-19.4-8.69-19.4-19.4s8.69-19.4,19.4-19.4
		c10.71,0,19.4,8.67,19.4,19.39C150.03,27.24,150.03,27.24,150.03,27.25z"/>
	<path class="st39" d="M149.95,27.14c0,10.63-8.61,19.24-19.24,19.24s-19.24-8.61-19.24-19.24S120.07,7.9,130.7,7.9
		c10.62,0,19.24,8.6,19.24,19.23C149.95,27.13,149.95,27.14,149.95,27.14z"/>
	<path class="st40" d="M149.87,27.04c0,10.54-8.54,19.1-19.09,19.1c-10.54,0-19.1-8.54-19.1-19.09c0-10.54,8.54-19.1,19.09-19.1
		c0,0,0,0,0.01,0C141.32,7.95,149.87,16.49,149.87,27.04C149.87,27.03,149.87,27.04,149.87,27.04z"/>
	<path class="st41" d="M149.79,26.93c0,10.46-8.48,18.94-18.94,18.94s-18.94-8.48-18.94-18.94S120.39,8,130.85,8
		c10.45,0,18.93,8.47,18.94,18.92C149.79,26.92,149.79,26.93,149.79,26.93z"/>
	<path class="st42" d="M149.71,26.83c0,10.37-8.41,18.78-18.78,18.78s-18.78-8.41-18.78-18.78s8.41-18.78,18.78-18.78
		C141.3,8.05,149.71,16.46,149.71,26.83z"/>
	<path class="st43" d="M149.64,26.73c0,10.29-8.34,18.63-18.63,18.63s-18.63-8.34-18.63-18.62c0-10.29,8.33-18.63,18.62-18.63
		c10.28-0.01,18.63,8.32,18.64,18.61C149.64,26.72,149.64,26.72,149.64,26.73z"/>
	<path class="st44" d="M149.55,26.63c0,10.2-8.28,18.47-18.48,18.46c-10.2,0-18.47-8.27-18.47-18.47c0-10.2,8.27-18.47,18.47-18.47
		C141.28,8.15,149.55,16.42,149.55,26.63C149.55,26.62,149.55,26.62,149.55,26.63z"/>
	<path class="st45" d="M149.47,26.52c0,10.12-8.2,18.32-18.32,18.32s-18.32-8.2-18.32-18.32s8.2-18.32,18.32-18.32
		c10.12,0,18.32,8.19,18.32,18.31C149.47,26.51,149.47,26.52,149.47,26.52z"/>
	<path class="st46" d="M149.39,26.44c0,10.04-8.14,18.17-18.17,18.17c-10.04,0-18.17-8.14-18.17-18.17s8.14-18.17,18.17-18.17
		c10.03,0,18.17,8.13,18.17,18.16C149.39,26.43,149.39,26.43,149.39,26.44z"/>
	<path class="st47" d="M149.31,26.31c0,9.95-8.07,18.02-18.02,18.02s-18.02-8.07-18.02-18.02S121.34,8.3,131.29,8.3
		c9.95,0,18.01,8.06,18.02,18C149.31,26.3,149.31,26.31,149.31,26.31L149.31,26.31z"/>
	<path class="st48" d="M149.23,26.21c0,9.87-7.99,17.87-17.86,17.87c-9.87,0-17.87-7.99-17.87-17.86c0-9.87,7.99-17.87,17.86-17.87
		c0,0,0,0,0.01,0C141.23,8.35,149.23,16.34,149.23,26.21z"/>
	<path class="st49" d="M149.15,26.1c0,9.78-7.93,17.71-17.71,17.71c-9.78,0-17.71-7.93-17.71-17.71s7.93-17.71,17.71-17.71
		C141.22,8.39,149.15,16.32,149.15,26.1z"/>
	<path class="st50" d="M149.07,26c0.02,9.69-7.83,17.56-17.52,17.58c-9.69,0.02-17.56-7.83-17.58-17.52s7.83-17.56,17.52-17.58
		c0.01,0,0.02,0,0.03,0C141.2,8.47,149.06,16.31,149.07,26z"/>
	<path class="st51" d="M148.99,25.89c-0.01,9.61-7.8,17.39-17.41,17.39c-9.61-0.01-17.39-7.8-17.39-17.41
		c0-9.61,7.79-17.4,17.4-17.4c9.61,0,17.4,7.79,17.4,17.4C148.99,25.88,148.99,25.89,148.99,25.89z"/>
	<path class="st52" d="M148.89,25.79c0,9.51-7.71,17.21-17.21,17.21s-17.21-7.71-17.21-17.21s7.71-17.21,17.21-17.21
		S148.89,16.28,148.89,25.79z"/>
	<path class="st53" d="M148.83,25.69c0,9.44-7.65,17.09-17.09,17.09c-9.44,0-17.09-7.65-17.09-17.09c0-9.44,7.65-17.09,17.09-17.09
		c0,0,0,0,0.01,0C141.18,8.6,148.83,16.25,148.83,25.69C148.83,25.69,148.83,25.69,148.83,25.69z"/>
	<path class="st54" d="M148.76,25.59c0,9.35-7.58,16.94-16.94,16.94s-16.94-7.58-16.94-16.94s7.58-16.94,16.94-16.94
		c9.35,0,16.93,7.57,16.94,16.92C148.76,25.58,148.76,25.58,148.76,25.59z"/>
	<path class="st55" d="M148.67,25.48c0,9.27-7.52,16.79-16.79,16.79s-16.79-7.52-16.79-16.79s7.52-16.79,16.79-16.79
		c9.27,0,16.78,7.51,16.79,16.77C148.67,25.47,148.67,25.48,148.67,25.48L148.67,25.48z"/>
	<path class="st56" d="M148.59,25.38c0,9.19-7.45,16.63-16.63,16.63s-16.63-7.45-16.63-16.63s7.45-16.63,16.63-16.63
		c9.18,0,16.63,7.44,16.63,16.62C148.59,25.37,148.59,25.37,148.59,25.38z"/>
	<path class="st57" d="M148.52,25.27c0,9.09-7.37,16.47-16.47,16.47s-16.47-7.37-16.47-16.47s7.37-16.47,16.47-16.47
		S148.52,16.18,148.52,25.27z"/>
	<path class="st58" d="M148.43,25.17c0,9.02-7.31,16.32-16.32,16.32s-16.32-7.31-16.32-16.32s7.31-16.32,16.32-16.32l0,0
		c9.01,0,16.32,7.3,16.32,16.31C148.43,25.16,148.43,25.16,148.43,25.17z"/>
	<path class="st59" d="M148.35,25.06c0,8.93-7.24,16.17-16.17,16.17s-16.17-7.24-16.17-16.17S123.25,8.9,132.18,8.9
		C141.11,8.9,148.35,16.13,148.35,25.06z"/>
	<path class="st60" d="M148.28,24.94c0,8.85-7.17,16.02-16.02,16.02s-16.02-7.17-16.02-16.02s7.17-16.02,16.02-16.02
		C141.1,8.93,148.28,16.1,148.28,24.94z"/>
	<path class="st61" d="M148.19,24.85c0,8.76-7.1,15.86-15.86,15.86c-8.76,0-15.86-7.1-15.86-15.86s7.1-15.86,15.86-15.86
		C141.09,8.99,148.19,16.09,148.19,24.85L148.19,24.85z"/>
	<path class="st62" d="M148.14,24.75c0,8.68-7.04,15.72-15.72,15.72c-8.68,0-15.72-7.04-15.72-15.72s7.04-15.72,15.72-15.72
		C141.1,9.03,148.14,16.07,148.14,24.75z"/>
	<path class="st63" d="M148.04,24.65c0,8.59-6.97,15.55-15.56,15.55c-8.59,0-15.55-6.97-15.55-15.56c0-8.59,6.96-15.55,15.55-15.55
		C141.07,9.09,148.04,16.05,148.04,24.65C148.04,24.65,148.04,24.65,148.04,24.65z"/>
	<path class="st64" d="M147.95,24.55c0,8.51-6.9,15.4-15.4,15.4s-15.4-6.9-15.4-15.4s6.9-15.4,15.4-15.4c8.5,0,15.4,6.89,15.4,15.39
		C147.95,24.54,147.95,24.54,147.95,24.55z"/>
	<path class="st65" d="M147.87,24.44c0.02,8.42-6.8,15.26-15.22,15.28c-8.42,0.02-15.26-6.8-15.28-15.22
		c-0.02-8.42,6.8-15.26,15.22-15.28c0.01,0,0.02,0,0.03,0C141.04,9.22,147.86,16.03,147.87,24.44z"/>
	<path class="st66" d="M147.8,24.34c-0.01,8.34-6.77,15.09-15.11,15.08c-8.34-0.01-15.09-6.77-15.09-15.1
		c0-8.34,6.76-15.09,15.1-15.09c8.33,0,15.09,6.75,15.1,15.08C147.8,24.32,147.8,24.33,147.8,24.34z"/>
	<path class="st67" d="M147.71,24.23c0,8.27-6.7,14.97-14.97,14.97s-14.97-6.7-14.97-14.97s6.7-14.97,14.97-14.97
		S147.71,15.96,147.71,24.23z"/>
	<path class="st68" d="M147.63,24.13c0,8.16-6.62,14.78-14.78,14.78s-14.78-6.62-14.78-14.78s6.62-14.78,14.78-14.78
		S147.63,15.96,147.63,24.13z"/>
	<path class="st69" d="M147.56,24.02c0,8.08-6.55,14.63-14.63,14.63s-14.63-6.55-14.63-14.63s6.55-14.63,14.63-14.63
		S147.56,15.94,147.56,24.02z"/>
	<path class="st70" d="M147.48,23.92c0,7.99-6.48,14.48-14.48,14.48s-14.48-6.48-14.48-14.48S125.01,9.44,133,9.44l0,0
		C140.99,9.44,147.48,15.92,147.48,23.92z"/>
	<path class="st71" d="M147.39,23.81c0,7.91-6.41,14.33-14.33,14.33c-7.91,0-14.33-6.41-14.33-14.33s6.41-14.33,14.33-14.33
		c0,0,0,0,0.01,0C140.98,9.49,147.39,15.9,147.39,23.81C147.39,23.81,147.39,23.81,147.39,23.81z"/>
	<path class="st72" d="M147.32,23.71c0,7.83-6.34,14.17-14.17,14.17c-7.83,0-14.17-6.34-14.17-14.17c0-7.83,6.34-14.17,14.17-14.17
		c0.01,0,0.01,0,0.02,0C140.99,9.56,147.31,15.89,147.32,23.71z"/>
	<path class="st73" d="M147.24,23.61c0,7.74-6.28,14.02-14.02,14.02s-14.02-6.28-14.02-14.02s6.28-14.02,14.02-14.02
		c7.74,0,14.01,6.27,14.02,14C147.24,23.6,147.24,23.61,147.24,23.61z"/>
	<path class="st74" d="M147.15,23.51c0,7.65-6.21,13.86-13.87,13.85c-7.65,0-13.86-6.21-13.86-13.86s6.21-13.86,13.86-13.86
		C140.95,9.64,147.15,15.84,147.15,23.51C147.15,23.5,147.15,23.5,147.15,23.51L147.15,23.51z"/>
	<path class="st75" d="M147.08,23.4c0,7.57-6.14,13.71-13.71,13.71s-13.71-6.14-13.71-13.71s6.14-13.71,13.71-13.71
		C140.94,9.69,147.08,15.83,147.08,23.4L147.08,23.4z"/>
	<path class="st76" d="M147,23.3c0,7.49-6.07,13.55-13.55,13.55c-7.49,0-13.55-6.07-13.55-13.55s6.07-13.55,13.55-13.55
		C140.93,9.74,147,15.81,147,23.3z"/>
	<path class="st77" d="M146.91,23.19c0,7.4-6,13.39-13.4,13.39c-7.4,0-13.39-6-13.39-13.4c0-7.4,6-13.4,13.4-13.4
		c7.4,0,13.39,5.99,13.4,13.38C146.91,23.18,146.91,23.18,146.91,23.19L146.91,23.19z"/>
	<path class="st78" d="M146.84,23.09c0,7.32-5.93,13.25-13.25,13.25c-7.32,0-13.25-5.93-13.25-13.25s5.93-13.25,13.25-13.25
		c7.31,0,13.24,5.92,13.25,13.23C146.84,23.08,146.84,23.08,146.84,23.09z"/>
	<path class="st79" d="M146.76,22.98c0,7.23-5.86,13.09-13.09,13.09c-7.23,0-13.09-5.86-13.09-13.09s5.86-13.09,13.09-13.09
		C140.9,9.89,146.76,15.75,146.76,22.98z"/>
	<path class="st80" d="M146.64,22.88c0.02,7.15-5.76,12.96-12.9,12.98s-12.96-5.76-12.98-12.9c-0.02-7.15,5.76-12.96,12.9-12.98
		c0.02,0,0.05,0,0.07,0C140.86,9.99,146.63,15.76,146.64,22.88z"/>
	<path class="st81" d="M146.6,22.77c0,7.06-5.73,12.79-12.8,12.78c-7.06,0-12.79-5.73-12.79-12.79c0-7.06,5.73-12.79,12.79-12.79
		C140.87,9.97,146.6,15.7,146.6,22.77C146.6,22.77,146.6,22.77,146.6,22.77z"/>
	<path class="st82" d="M146.52,22.7c-0.01,6.98-5.68,12.62-12.66,12.61s-12.62-5.68-12.61-12.66c0.01-6.98,5.68-12.62,12.66-12.61
		c0,0,0.01,0,0.01,0C140.89,10.06,146.53,15.72,146.52,22.7C146.52,22.7,146.52,22.7,146.52,22.7z"/>
	<path class="st83" d="M146.43,22.57c0,6.89-5.59,12.47-12.48,12.47c-6.89,0-12.47-5.59-12.47-12.48c0-6.89,5.59-12.47,12.48-12.47
		C140.85,10.09,146.43,15.67,146.43,22.57C146.43,22.57,146.43,22.57,146.43,22.57z"/>
	<path class="st84" d="M146.36,22.47c0,6.81-5.52,12.33-12.33,12.33c-6.81,0-12.33-5.52-12.33-12.33s5.52-12.33,12.33-12.33
		c6.8,0,12.32,5.51,12.33,12.31C146.36,22.46,146.36,22.46,146.36,22.47z"/>
	<path class="st85" d="M146.28,22.36c0,6.72-5.45,12.17-12.18,12.16c-6.72,0-12.17-5.45-12.16-12.17c0-6.72,5.45-12.17,12.17-12.17
		C140.83,10.18,146.28,15.63,146.28,22.36C146.28,22.36,146.28,22.36,146.28,22.36L146.28,22.36z"/>
	<path class="st86" d="M146.2,22.26c0,6.63-5.39,12.01-12.02,12.01c-6.63,0-12.01-5.39-12.01-12.02c0-6.63,5.39-12.01,12.02-12.01
		c0.01,0,0.02,0,0.03,0c6.61,0,11.98,5.36,11.98,11.98C146.2,22.23,146.2,22.24,146.2,22.26z"/>
	<path class="st87" d="M146.12,22.15c0,6.55-5.31,11.86-11.86,11.86c-6.55,0-11.86-5.31-11.86-11.86s5.31-11.86,11.86-11.86
		C140.81,10.29,146.12,15.6,146.12,22.15z"/>
	<path class="st88" d="M146.04,22.05c0,6.47-5.24,11.71-11.71,11.71c-6.47,0-11.71-5.24-11.71-11.71s5.24-11.71,11.71-11.71
		c0,0,0,0,0.01,0C140.8,10.34,146.04,15.58,146.04,22.05z"/>
	<path class="st89" d="M145.96,21.95c0,6.38-5.17,11.56-11.56,11.56c-6.38,0-11.56-5.17-11.56-11.56c0-6.38,5.17-11.56,11.56-11.56
		c0,0,0.01,0,0.01,0C140.79,10.39,145.96,15.56,145.96,21.95C145.96,21.94,145.96,21.95,145.96,21.95L145.96,21.95z"/>
	<path class="st90" d="M145.9,21.84c0,6.3-5.1,11.41-11.4,11.41c-6.3,0-11.41-5.1-11.41-11.4c0-6.3,5.1-11.41,11.4-11.41
		c0,0,0,0,0.01,0C140.79,10.44,145.89,15.54,145.9,21.84z"/>
	<path class="st91" d="M145.8,21.73c0,6.2-5.03,11.23-11.23,11.23c-6.2,0-11.23-5.03-11.23-11.23s5.03-11.23,11.23-11.23
		C140.77,10.51,145.8,15.53,145.8,21.73z"/>
	<path class="st92" d="M145.72,21.63c0,6.13-4.97,11.09-11.09,11.09s-11.09-4.97-11.09-11.09s4.97-11.09,11.09-11.09
		S145.72,15.5,145.72,21.63z"/>
	<path class="st93" d="M145.64,21.53c0,6.04-4.89,10.94-10.93,10.94c-6.04,0.01-10.94-4.88-10.95-10.92
		c-0.01-6.04,4.87-10.95,10.91-10.96c6.04-0.02,10.95,4.86,10.97,10.9C145.64,21.5,145.64,21.52,145.64,21.53L145.64,21.53z"/>
	<path class="st94" d="M145.56,21.43c0,5.96-4.84,10.78-10.79,10.78c-5.96,0-10.78-4.83-10.78-10.79s4.83-10.78,10.79-10.78
		C140.73,10.63,145.56,15.46,145.56,21.43C145.56,21.42,145.56,21.42,145.56,21.43z"/>
	<path class="st95" d="M145.48,21.32c0.02,5.87-4.72,10.65-10.6,10.67c-5.87,0.02-10.65-4.72-10.67-10.6
		c-0.02-5.87,4.72-10.65,10.6-10.67c0.01,0,0.02,0,0.04,0C140.71,10.72,145.46,15.46,145.48,21.32z"/>
	<path class="st96" d="M145.4,21.2c0,5.79-4.69,10.48-10.48,10.48s-10.48-4.69-10.48-10.48s4.69-10.48,10.48-10.48
		S145.4,15.41,145.4,21.2z"/>
	<path class="st97" d="M145.32,21.11c0,5.7-4.62,10.33-10.33,10.33c-5.7,0-10.33-4.62-10.33-10.33c0-5.7,4.62-10.33,10.33-10.33
		c0,0,0,0,0.01,0C140.7,10.78,145.32,15.4,145.32,21.11C145.32,21.11,145.32,21.11,145.32,21.11z"/>
	<path class="st98" d="M145.24,21.01c0,5.62-4.55,10.17-10.17,10.17s-10.17-4.55-10.17-10.17s4.55-10.17,10.17-10.17
		C140.69,10.83,145.24,15.39,145.24,21.01z"/>
	<path class="st99" d="M145.15,20.9c0,5.53-4.49,10.02-10.02,10.02c-5.53,0-10.02-4.49-10.02-10.02s4.49-10.02,10.02-10.02l0,0
		C140.66,10.88,145.15,15.37,145.15,20.9z"/>
	<path class="st100" d="M145.08,20.8c0,5.45-4.42,9.86-9.86,9.86s-9.86-4.42-9.86-9.86s4.42-9.86,9.86-9.86
		S145.08,15.35,145.08,20.8z"/>
	<path class="st101" d="M145.01,20.69c0,5.37-4.36,9.73-9.73,9.73c-5.37,0-9.73-4.36-9.73-9.73s4.36-9.73,9.73-9.73
		C140.65,10.96,145.01,15.32,145.01,20.69z"/>
	<path class="st102" d="M144.92,20.59c0,5.28-4.28,9.55-9.56,9.55c-5.28,0-9.55-4.28-9.55-9.56c0-5.28,4.28-9.56,9.56-9.56
		c5.27,0,9.55,4.27,9.56,9.54C144.92,20.58,144.92,20.59,144.92,20.59z"/>
	<path class="st103" d="M144.84,20.49c0,5.19-4.21,9.39-9.4,9.39c-5.19,0-9.4-4.2-9.4-9.39c-0.01-5.19,4.19-9.4,9.38-9.41
		c5.19-0.01,9.41,4.19,9.42,9.38C144.84,20.47,144.84,20.48,144.84,20.49L144.84,20.49z"/>
	<path class="st104" d="M144.77,20.38c0,5.11-4.14,9.25-9.25,9.25c-5.11,0-9.25-4.14-9.25-9.25s4.14-9.25,9.25-9.25
		C140.62,11.13,144.77,15.28,144.77,20.38z"/>
	<path class="st105" d="M144.68,20.28c0,5.02-4.08,9.09-9.1,9.09c-5.02,0-9.09-4.07-9.09-9.1c0-5.02,4.07-9.09,9.09-9.09
		C140.61,11.18,144.68,15.25,144.68,20.28C144.68,20.28,144.68,20.28,144.68,20.28L144.68,20.28z"/>
	<path class="st106" d="M144.6,20.18c0,4.94-4,8.94-8.94,8.94c-4.94,0-8.94-4-8.94-8.94c0-4.94,4-8.94,8.94-8.94c0,0,0,0,0.01,0
		C140.6,11.23,144.6,15.23,144.6,20.18C144.6,20.17,144.6,20.17,144.6,20.18z"/>
	<path class="st107" d="M144.53,20.07c0,4.85-3.93,8.79-8.79,8.79s-8.79-3.93-8.79-8.79s3.93-8.79,8.79-8.79
		S144.53,15.22,144.53,20.07z"/>
	<path class="st108" d="M144.44,19.97c0,4.77-3.87,8.64-8.64,8.64s-8.64-3.87-8.64-8.64s3.87-8.64,8.64-8.64
		C140.58,11.33,144.44,15.2,144.44,19.97z"/>
	<path class="st109" d="M144.4,19.86c0,4.68-3.8,8.48-8.48,8.48s-8.48-3.8-8.48-8.48s3.8-8.48,8.48-8.48
		C140.6,11.38,144.4,15.18,144.4,19.86C144.4,19.86,144.4,19.86,144.4,19.86z"/>
	<path class="st110" d="M144.29,19.76c0.02,4.6-3.68,8.35-8.29,8.38c-4.6,0.02-8.35-3.68-8.38-8.29c-0.02-4.6,3.68-8.35,8.29-8.38
		c0.01,0,0.03,0,0.04,0C140.54,11.47,144.26,15.17,144.29,19.76z"/>
	<path class="st111" d="M144.2,19.65c0,4.51-3.67,8.17-8.18,8.17c-4.51,0-8.17-3.66-8.17-8.18c0-4.51,3.66-8.17,8.17-8.17
		C140.55,11.47,144.2,15.13,144.2,19.65C144.2,19.65,144.2,19.65,144.2,19.65z"/>
	<path class="st112" d="M144.12,19.55c0,4.43-3.59,8.01-8.02,8.01c-4.43,0-8.01-3.59-8.01-8.02c0-4.43,3.59-8.01,8.02-8.01
		C140.53,11.53,144.12,15.12,144.12,19.55C144.12,19.55,144.12,19.55,144.12,19.55L144.12,19.55z"/>
	<path class="st113" d="M144.05,19.45c0,4.34-3.53,7.86-7.87,7.86s-7.86-3.52-7.87-7.86c0-4.34,3.51-7.87,7.85-7.87
		C140.51,11.57,144.04,15.09,144.05,19.45C144.05,19.44,144.05,19.45,144.05,19.45L144.05,19.45z"/>
	<path class="st114" d="M143.96,19.34c0,4.26-3.46,7.7-7.71,7.7c-4.26,0-7.71-3.45-7.7-7.71c0-4.26,3.45-7.71,7.71-7.71
		C140.51,11.63,143.96,15.08,143.96,19.34C143.96,19.34,143.96,19.34,143.96,19.34z"/>
	<path class="st115" d="M143.88,19.24c0,4.18-3.38,7.56-7.56,7.56c-4.18,0-7.56-3.38-7.56-7.56s3.38-7.56,7.56-7.56c0,0,0,0,0.01,0
		C140.5,11.68,143.88,15.07,143.88,19.24z"/>
	<path class="st116" d="M143.81,19.13c0,4.09-3.32,7.41-7.41,7.41c-4.09,0-7.41-3.32-7.41-7.41s3.32-7.41,7.41-7.41c0,0,0,0,0.01,0
		C140.49,11.73,143.81,15.04,143.81,19.13C143.81,19.13,143.81,19.13,143.81,19.13z"/>
	<path class="st117" d="M145.07,35.14c-5.63,5.63-5.79-4.75-12.28-11.23s-16.86-6.65-11.23-12.28c5.64-5.63,15.46-4.92,21.95,1.57
		S150.7,29.51,145.07,35.14z"/>
	<path class="st118" d="M120.74,35.38v11.04c0,2.51,0.19,4.03,0.58,4.55c0.38,0.52,1.53,0.84,3.44,0.97h0.54v1.75h-15.72v-1.73h0.54
		c2.27-0.15,3.61-0.48,4.03-0.97c0.42-0.5,0.64-2.01,0.64-4.55V19.37c0-2.54-0.22-4.06-0.64-4.54c-0.42-0.49-1.77-0.8-4.03-0.95
		l-0.54-0.05v-1.76h9.98l5.04-0.13l2.25-0.06c8.58,0,12.87,3.49,12.87,10.48c0,5.82-2.82,9.72-8.45,11.68l8.03,12.31
		c1.06,1.63,2.23,3.18,3.51,4.64c0.59,0.52,1.36,0.82,2.15,0.82c0.25,0,0.88,0.07,1.88,0.11h0.56v1.75h-10.61l-11.23-18.34
		L120.74,35.38z M120.84,33.48h2.04c7.23,0,10.85-3.48,10.85-10.43c0-3.3-0.68-5.64-2.04-7.02c-1.36-1.38-3.67-2.07-6.93-2.07h-3.92
		V33.48z"/>
</g>
</svg>
