<?xml version="1.0" encoding="utf-8"?>
<!-- Generator: Adobe Illustrator 25.1.0, SVG Export Plug-In . SVG Version: 6.00 Build 0)  -->
<svg version="1.1"
	 id="Layer_1" xmlns:cc="http://creativecommons.org/ns#" xmlns:dc="http://purl.org/dc/elements/1.1/" xmlns:rdf="http://www.w3.org/1999/02/22-rdf-syntax-ns#" xmlns:svg="http://www.w3.org/2000/svg"
	 xmlns="http://www.w3.org/2000/svg" xmlns:xlink="http://www.w3.org/1999/xlink" x="0px" y="0px" viewBox="0 0 100 100"
	 style="enable-background:new 0 0 100 100;" xml:space="preserve">
<style type="text/css">
	.st0{fill:#CF2030;}
	.st1{fill:#A91F27;}
	.st2{fill:#231F20;}
</style>
<g>
	<path class="st0" d="M59.58,76.12c-1.21,0-2.36-0.61-3.03-1.64c-0.09-0.14-9.83-14.74-23.4-16.19c-7.2-0.77-14.42,2.35-21.47,9.27
		c-1.43,1.4-3.72,1.38-5.12-0.05c-1.4-1.43-1.38-3.72,0.05-5.12c8.68-8.53,17.88-12.33,27.36-11.3
		c11.29,1.22,20.02,9.09,24.75,14.43c4.73-9.51,10.68-15.62,17.74-18.22c8.7-3.2,15.75,0.32,16.05,0.47
		c1.78,0.91,2.48,3.09,1.57,4.87c-0.91,1.77-3.07,2.48-4.85,1.59c-0.25-0.12-4.76-2.23-10.41-0.09c-6,2.27-11.34,8.71-15.44,18.62
		l-0.43,1.07c-0.5,1.25-1.66,2.12-3,2.26C59.82,76.11,59.7,76.12,59.58,76.12"/>
	<g>
		<path class="st0" d="M70.17,79.79c-5.98,4.98-13.57,7.72-21.37,7.72c-15.23,0-28.1-10.24-32.12-24.2c-1.67,1.21-3.34,2.62-5,4.25
			c-0.76,0.74-1.75,1.08-2.74,1.03C14.88,84.86,30.51,96.5,48.8,96.5c9.89,0,19.52-3.48,27.12-9.8c1.91-1.59,2.17-4.42,0.58-6.33
			C74.91,78.47,72.08,78.21,70.17,79.79z"/>
		<path class="st0" d="M15.42,55.48c-0.02-0.46-0.04-0.92-0.04-1.39c0-11.67,6.02-21.96,15.11-27.94c-1.27-2.22-2.01-4.83-2.01-7.62
			c0-0.58,0.04-1.15,0.1-1.71C15.38,24.01,6.39,38.02,6.39,54.09c0,2.67,0.25,5.28,0.72,7.82C9.84,59.3,12.6,57.16,15.42,55.48z"/>
	</g>
	<path class="st1" d="M85.92,35.62c-0.11-0.31-2.83-7.56-10.21-13.91c-4.55-3.91-11.53-8.01-21.5-9.23
		c0.79,1.84,1.23,3.89,1.23,6.06c0,1.09-0.11,2.15-0.33,3.16c16.8,3.01,22.09,16.3,22.37,17.03c0.67,1.81,2.39,2.93,4.21,2.93
		c0.51,0,1.04-0.09,1.55-0.28C85.58,40.53,86.77,37.95,85.92,35.62z"/>
	<path class="st1" d="M58.79,66.36c0,0,0.78,5.34-1.43,8.2l-0.06,0.08c0,0,1.29,1.52,3.36,0.79c0,0,1.15-0.36,1.72-1.55l0.95-2.31
		c0,0,2.46-5.51,3.94-7.58s3.81-5.73,8.06-8.63c0,0,4.12-2.99,9.6-2.62c0,0,1.81,0.11,3.37,0.59c0,0,1.37,0.53,1.54,0.64
		c0,0,1.56,0.55,2.82-0.42c0,0,2.2-1.74,0.86-4.1c0,0-0.46-1.21-2.91-1.87c0,0-3.02-1.19-6.63-1.1c0,0-5.51-0.46-11.74,3.46
		c0,0-3.92,2.25-7.33,6.67C64.91,56.61,61.51,60.71,58.79,66.36"/>
	<g>
		<path class="st2" d="M94.52,52.88c0.5-0.98,0.59-2.1,0.25-3.14c-0.34-1.05-1.06-1.9-2.04-2.4c-0.3-0.16-7.55-3.77-16.45-0.5
			c-5.79,2.13-10.86,6.6-15.11,13.3c2.75-5.46,8.7-13.83,19.1-16.5c0.27-0.07,0.43-0.34,0.36-0.61c-0.07-0.27-0.34-0.43-0.61-0.36
			c-14.32,3.67-20.45,17.66-21.54,21.41c-1.08-1.61-4.2-5.83-9.34-9.58c-5.89-4.29-15.62-8.68-28.56-5.2
			c-0.27,0.07-0.42,0.35-0.35,0.61c0.07,0.27,0.35,0.42,0.61,0.35c12.53-3.37,21.97,0.87,27.68,5.02c2.18,1.59,4,3.28,5.45,4.82
			c-4.88-4.24-11.75-8.63-19.95-9.52c-6.18-0.67-12.25,0.68-18.13,4.02c0-0.18-0.01-0.35-0.01-0.53c0-11.13,5.56-20.99,14.04-26.95
			c2.6,4.17,7.03,6.92,12.04,6.92c6.75,0,12.43-4.98,14.03-11.69c0,0,0,0,0,0c15.77,3.29,20.77,15.85,21.03,16.53
			c0.72,1.94,2.6,3.25,4.68,3.25c0.58,0,1.16-0.1,1.72-0.31c1.25-0.46,2.25-1.38,2.81-2.59c0.56-1.21,0.62-2.57,0.16-3.82
			c-0.11-0.31-2.87-7.68-10.35-14.11c-4.47-3.85-11.27-7.88-20.9-9.24C52.85,6.73,47.81,3,41.97,3c-7.44,0-13.58,6.05-14.39,13.81
			c0,0,0,0,0,0C14.64,24.21,5.9,38.15,5.9,54.09c0,2.61,0.23,5.16,0.68,7.64c0,0,0,0,0,0c-0.11,0.1-0.21,0.2-0.32,0.31
			c-1.62,1.59-1.64,4.2-0.05,5.83c0.65,0.66,1.48,1.07,2.38,1.19c0,0,0,0,0,0C14.68,85.36,30.41,97,48.8,97
			c10.01,0,19.75-3.52,27.44-9.92c2.12-1.76,2.4-4.91,0.64-7.03c-0.85-1.02-2.05-1.66-3.38-1.78c-1.33-0.12-2.62,0.28-3.65,1.13
			c-5.89,4.9-13.37,7.61-21.05,7.61c-14.88,0-27.48-9.93-31.54-23.5c5.25-3.7,10.56-5.29,15.84-4.73
			c13.32,1.42,22.94,15.82,23.03,15.96c0.76,1.17,2.05,1.87,3.45,1.87c0.13,0,0.27-0.01,0.41-0.02c1.54-0.15,2.85-1.13,3.42-2.57
			l0.43-1.07c4.05-9.78,9.29-16.12,15.16-18.34c5.48-2.08,9.84-0.02,10.01,0.06C91.01,55.7,93.49,54.89,94.52,52.88z M75.39,22.09
			c7.28,6.26,9.95,13.4,10.06,13.7c0.37,1,0.32,2.09-0.13,3.05c-0.45,0.97-1.25,1.7-2.25,2.07c-0.44,0.16-0.91,0.25-1.37,0.25
			c-1.66,0-3.16-1.05-3.74-2.61c-0.27-0.71-5.46-13.76-21.76-17.16c0,0,0,0,0,0c0.16-0.93,0.25-1.88,0.25-2.86
			c0-1.88-0.32-3.69-0.89-5.37C64.66,14.58,71.11,18.42,75.39,22.09z M41.97,4c7.43,0,13.48,6.52,13.48,14.54
			S49.4,33.07,41.97,33.07c-7.43,0-13.48-6.52-13.48-14.54S34.53,4,41.97,4z M6.89,54.09c0-15.34,8.28-28.77,20.61-36.08
			c0,0,0,0,0,0c-0.01,0.17-0.01,0.35-0.01,0.52c0,2.82,0.71,5.46,1.93,7.74c0,0,0,0,0,0c-8.78,6.14-14.54,16.31-14.54,27.82
			c0,0.37,0.02,0.74,0.03,1.11c-2.52,1.54-5.01,3.44-7.46,5.71c0,0,0,0,0,0C7.09,58.69,6.89,56.41,6.89,54.09z M48.8,88.01
			c7.91,0,15.62-2.78,21.69-7.84c0.82-0.68,1.86-1,2.92-0.91c1.06,0.1,2.02,0.6,2.71,1.42c1.41,1.69,1.18,4.22-0.51,5.62
			C68.1,92.56,58.58,96,48.8,96C30.97,96,15.7,84.8,9.66,69.07c0,0,0,0,0,0c0.9-0.11,1.72-0.5,2.37-1.15
			c1.45-1.42,2.91-2.68,4.37-3.77C20.7,77.96,33.6,88.01,48.8,88.01z M9.11,69.1c0.11,0,0.21-0.01,0.32-0.01
			C9.32,69.1,9.22,69.1,9.11,69.1z M89.44,53.79c-0.2-0.1-4.93-2.33-10.81-0.1c-6.13,2.32-11.57,8.86-15.73,18.9l-0.43,1.07
			c-0.43,1.08-1.43,1.83-2.59,1.94c-1.17,0.12-2.29-0.43-2.92-1.4c-0.1-0.15-9.94-14.93-23.76-16.41c-0.73-0.08-1.46-0.12-2.19-0.12
			c-6.62,0-13.23,3.2-19.68,9.53c-0.59,0.58-1.36,0.89-2.19,0.89c-0.01,0-0.02,0-0.03,0c-0.83-0.01-1.62-0.34-2.2-0.93
			c-1.21-1.23-1.19-3.21,0.04-4.41c8.57-8.42,17.64-12.18,26.95-11.16c11.37,1.23,20.19,9.47,24.43,14.27l0.49,0.56l0.33-0.66
			c4.66-9.38,10.54-15.43,17.46-17.97c8.49-3.12,15.36,0.3,15.65,0.45c0.74,0.38,1.29,1.03,1.55,1.82s0.19,1.64-0.19,2.38
			C92.85,53.95,90.97,54.56,89.44,53.79z"/>
	</g>
	<path class="st0" d="M41.97,4c-7.43,0-13.48,6.52-13.48,14.54s6.05,14.54,13.48,14.54c7.43,0,13.48-6.52,13.48-14.54
		S49.4,4,41.97,4z"/>
</g>
</svg>
