<?xml version="1.0" encoding="utf-8"?>
<!-- Generator: Adobe Illustrator 25.2.2, SVG Export Plug-In . SVG Version: 6.00 Build 0)  -->
<svg version="1.1" id="Layer_1" xmlns="http://www.w3.org/2000/svg" xmlns:xlink="http://www.w3.org/1999/xlink" x="0px" y="0px"
	 viewBox="0 0 244.1 92.4" style="enable-background:new 0 0 244.1 92.4;" xml:space="preserve">
<style type="text/css">
	.st0{fill:#876D4B;}
</style>
<g>
	<g>
		<path class="st0" d="M37.8,76.4L37.8,76.4c8.4,0.9,12.3-1.3,17.3-2.6c8.1-2.1,10,5.5,10,5.5V53.6C62,66.1,51.1,75.5,37.8,76.4"/>
		<path class="st0" d="M65.1,38.9V13.2c0,0-1.9,7.6-10,5.5c-5.1-1.3-8.9-3.5-17.3-2.6l0,0C51.1,16.9,62,26.3,65.1,38.9"/>
		<path class="st0" d="M20.5,46.2c0-12.8,9-23.4,20.9-26c-1.8-0.4-3.7-0.6-5.7-0.6C21,19.6,9.1,31.5,9.1,46.2
			c0,14.7,11.9,26.6,26.6,26.6c2,0,3.9-0.2,5.7-0.6C29.5,69.6,20.5,59,20.5,46.2"/>
		<path d="M89.1,41c-1.5,1.6-2,3.8-1.9,5.3c0.1,2.4,0.9,4.2,2.5,5.5c1.6,1.3,3.6,1.9,6.3,1.8c1.1,0,2.6-0.2,3.4-0.6
			c0.4-0.2,0.4-0.2,0.5-0.6c0.2-0.7,0.3-2.3,0.3-2.4c0-0.3-0.2-0.4-0.2-0.4c-0.2,0-0.2,0.2-0.3,0.4c0,0.3-0.3,1.1-0.6,1.6
			c-0.8,0.8-2,1-3.2,1c-4.2,0.1-6.8-3.2-6.9-6.5c-0.1-1.6,0.1-3.4,1.5-4.9c0.9-0.9,2.3-1.4,4.2-1.5c1.7-0.1,3.1,0.4,3.7,0.9
			c0.5,0.4,0.8,1.1,0.8,1.8c0,0.2,0,0.5,0.3,0.5c0.2,0,0.2-0.3,0.2-0.5c0,0,0-3,0-3c0-0.2-0.1-0.3-0.3-0.3c-0.8-0.1-2.6-0.4-4.7-0.3
			C92.3,38.8,90.5,39.5,89.1,41"/>
		<path d="M113.1,52.8c-3.5,0-5.9-2.9-5.9-7.1c0-3.8,2.1-6.1,5.4-6.1c2.7,0,5.6,2.1,5.6,6.8C118.2,52.5,114,52.8,113.1,52.8
			 M112.7,38.8c-5.5,0-7.5,4.6-7.5,7.4c0,3.6,2.3,7.5,7.4,7.5c4.4,0,7.6-3.3,7.6-7.8C120.2,41.7,117.2,38.8,112.7,38.8"/>
		<path d="M150.9,40c1,0,1.1,0.4,1.3,0.6c0.1,0.2,0.1,0.5,0.1,0.6c0,0.3,0.1,0.3,0.2,0.3c0.2,0,0.2-0.2,0.2-0.3c0,0,0.2-2.1,0.2-2.1
			c0-0.1,0-0.2-0.1-0.2c0,0-0.1-0.1-0.1,0c-0.5,0.1-1,0.1-1,0.1l-7.2,0c-0.1,0-0.4,0-0.4,0.2c0,0.1,0.1,0.2,0.2,0.2
			c0.2,0,0.5,0,0.6,0.1c0.5,0.1,0.6,0.3,0.7,1v11.5c0,0.5-0.2,0.8-0.5,0.9c-0.2,0-0.4,0.1-0.5,0.1c-0.2,0-0.2,0.1-0.2,0.2
			c0,0.2,0.3,0.2,0.4,0.2h7.2c0.7,0,1,0,1.1-0.6c0.1-0.4,0.2-1.7,0.2-1.8c0-0.1,0-0.4-0.2-0.4c-0.2,0-0.2,0.2-0.3,0.4
			c-0.1,0.7-0.3,1.1-0.8,1.3c-0.5,0.2-1.3,0.2-1.8,0.2c-1.8,0-2.8-0.3-2.8-1.5v-4.8l3.5,0c0.7,0,0.8,0.3,0.9,0.6
			c0.1,0.2,0.1,0.4,0.1,0.6c0,0.2,0.1,0.3,0.2,0.3c0.2,0,0.2-0.2,0.2-0.4l0.2-2.3c0-0.2-0.1-0.3-0.2-0.3c-0.1,0-0.2,0.1-0.3,0.2
			l0,0.1c-0.1,0.2-0.3,0.2-0.8,0.2h-3.8V40H150.9z"/>
		<path d="M158.9,42.5c0,1.3,0.8,2.4,2.9,4l0.9,0.7c1.7,1.3,2.3,2.1,2.3,3.3c0,1.2-0.9,2.4-2.6,2.4c-0.7,0-2.7-0.1-3.1-1.7
			c-0.1-0.3-0.1-0.5-0.1-0.7c0-0.1,0-0.3-0.2-0.3c-0.2,0-0.2,0.3-0.2,0.4c0,0,0,2,0,2c0,0.5,0,0.6,0.4,0.8l0,0
			c0.7,0.3,1.9,0.5,3,0.4c1.1,0,2.3-0.4,3-0.9c1.4-0.9,1.6-2.3,1.6-3.2c-0.1-1.5-0.8-2.6-3.2-4.4l-0.5-0.4c-1.9-1.4-2.5-1.9-2.5-2.9
			c0-1.2,1-2.2,2.3-2.2c1.6-0.1,2.6,0.6,2.8,0.9c0.1,0.2,0.2,0.7,0.3,0.9c0,0.1,0.1,0.3,0.3,0.3c0.2,0,0.2-0.3,0.2-0.5c0,0,0-2,0-2
			c0-0.2-0.2-0.2-0.3-0.2c-0.1,0-0.3,0-0.6-0.1c-0.7-0.1-1.6-0.1-2.2-0.1C160.7,38.9,158.9,40.4,158.9,42.5"/>
		<path d="M193.4,52.8c-3.5,0-5.9-2.9-5.9-7.1c0-3.8,2.1-6.1,5.4-6.1c2.7,0,5.6,2.1,5.6,6.8C198.5,52.5,194.3,52.8,193.4,52.8
			 M193,38.8c-5.5,0-7.5,4.6-7.5,7.4c0,3.6,2.3,7.5,7.4,7.5c4.4,0,7.6-3.3,7.6-7.8C200.5,41.7,197.5,38.8,193,38.8"/>
		<path d="M207.5,40c-2,1.3-3.2,3.6-3.2,6.3c0,2.6,1.2,4.5,2.3,5.4c1.5,1.4,3.6,2,6.2,2c1.2,0,2.8-0.2,4-0.9
			c0.3-0.2,0.3-0.3,0.3-1.1v-4.1c0-0.6,0.2-0.9,0.7-1c0,0,0.5-0.1,0.5-0.1c0.1,0,0.2-0.1,0.2-0.2c0-0.2-0.3-0.2-0.4-0.2h-4
			c-0.1,0-0.4,0-0.4,0.2c0,0.1,0.1,0.2,0.2,0.2c0.2,0,0.5,0,0.6,0.1c0.7,0.2,0.8,0.3,0.8,1.8v3.2c0,0.3-0.1,0.5-0.3,0.6
			c-0.5,0.3-1.4,0.4-2.1,0.4c-1.9,0-3.5-0.7-4.9-2c-0.7-0.7-2-2.6-2-5.1c0-2,0.7-3.8,1.8-4.7c1.4-1.1,2.7-1.2,4-1.2
			c2.3,0,3.9,0.7,4.3,1.5c0.3,0.5,0.4,1.1,0.4,1.2c0,0.2,0,0.4,0.2,0.4c0.3,0,0.3-0.3,0.3-0.5c0,0,0.1-2.7,0.1-2.7
			c0-0.1-0.1-0.2-0.3-0.3c-0.5,0-1.1-0.1-1.5-0.2c-0.2,0-1.6-0.3-2.9-0.3C211.1,38.8,209.2,38.9,207.5,40"/>
		<path d="M225.3,47.1l1.7-5.2l1.8,5.2H225.3z M229.3,47.9c0,0,1.8,4.7,1.8,4.7c0,0.1,0.1,0.2,0.1,0.2c0,0.2-0.1,0.2-0.1,0.2
			c-0.1,0-0.2,0.1-0.2,0.2c0,0.2,0.2,0.2,0.6,0.2h3c0.4,0,0.5-0.1,0.5-0.2c0-0.2-0.2-0.2-0.3-0.2c-0.3,0-0.5,0-0.7-0.1
			c-0.4-0.1-0.9-0.4-1.6-2.1c-0.8-2.1-4.4-11.3-4.4-11.3c-0.2-0.6-0.3-0.7-0.5-0.7c-0.2,0-0.3,0.2-0.5,0.8l-4.3,11.7
			c-0.4,1-0.7,1.6-1.5,1.7c0,0-0.5,0-0.5,0c-0.2,0-0.3,0.1-0.3,0.2c0,0.2,0.3,0.2,0.4,0.2h3.6c0.3,0,0.4-0.2,0.4-0.2
			c0-0.1,0-0.2-0.3-0.2h-0.2c-0.2,0-0.6-0.1-0.6-0.5c0-0.2,1.4-4.7,1.4-4.7H229.3z"/>
		<path d="M180,40.1c1.1,0,1.6,0.2,1.9,0.6c0.2,0.3,0.3,0.4,0.3,0.6c0,0.1,0.1,0.2,0.3,0.2c0.1,0,0.2-0.1,0.2-0.3c0-0.2-0.4-2-0.4-2
			c-0.1-0.3-0.1-0.4-0.3-0.4l-0.2,0.1c-0.2,0.1-0.3,0.1-0.6,0.1h-9.3c-0.3,0-0.4-0.1-0.6-0.1l-0.2-0.1c-0.1-0.1-0.2,0.1-0.3,0.4
			c0,0-0.4,1.8-0.4,2c0,0.2,0.1,0.3,0.2,0.3c0.2,0,0.2-0.1,0.3-0.2c0.1-0.1,0.1-0.3,0.3-0.6c0.3-0.4,0.8-0.6,1.9-0.6l2.7,0v7.8
			c0,1.8,0,3.3-0.1,4.1c-0.1,0.6-0.2,0.9-0.5,1c-0.2,0-0.4,0.1-0.5,0.1c-0.2,0-0.2,0.1-0.2,0.2c0,0.2,0.3,0.2,0.4,0.2h3.7
			c0.1,0,0.4,0,0.4-0.2c0-0.1-0.1-0.2-0.2-0.2c-0.1,0-0.3,0-0.5-0.1c-0.3-0.1-0.4-0.4-0.5-1c-0.1-0.8-0.1-2.3-0.1-4.1v-7.8L180,40.1
			z"/>
		<path d="M124.6,39.1c-0.3,0-0.5,0-0.5,0.2c0,0.1,0.1,0.2,0.2,0.2c0.1,0,0.2,0,0.6,0.1c0.5,0.1,0.6,0.2,0.7,1.4l0,9.6
			c0,1.7-0.1,2.2-0.5,2.3c-0.2,0.1-0.6,0.1-0.7,0.1c-0.2,0-0.2,0.1-0.2,0.2c0,0.2,0.3,0.2,0.4,0.2h3.8c0.1,0,0.4,0,0.4-0.2
			c0-0.1-0.1-0.2-0.2-0.2c-0.1,0-0.5,0-0.9-0.1c-0.4-0.1-0.6-0.5-0.7-2.1c0,0-0.2-8.4-0.2-8.8c1.4,1.5,9.4,10.1,9.7,10.3
			c1.1,1.1,1.2,1.2,1.4,1.2c0.2,0,0.3-0.2,0.3-1.4l0-11c0-1.1,0.1-1.5,0.6-1.6c0.2-0.1,0.3-0.1,0.4-0.1c0.2,0,0.3-0.1,0.3-0.2
			c0-0.2-0.3-0.2-0.4-0.2h-3.6c-0.2,0-0.5,0-0.5,0.2c0,0.1,0.1,0.2,0.2,0.2c0.1,0,0.6,0,0.9,0.1c0.5,0.1,0.6,0.5,0.7,1.7l0,9.3
			c-0.3-0.3-10-10.9-10-10.9c-0.3-0.3-0.5-0.6-0.8-0.6H124.6z"/>
		<path d="M91.8,62.8c-0.1-0.8-0.8-1.2-1.6-1.2c-1.7,0-2.3,1.6-2.3,3c0,1.4,0.5,3,2.3,3c0.8,0,1.5-0.4,1.7-1.2h0.7
			c-0.2,1.1-1.2,1.8-2.3,1.8c-2.1,0-2.9-1.7-2.9-3.5c0-1.9,0.9-3.5,2.9-3.5c1.1,0,2.2,0.5,2.3,1.7H91.8z"/>
		<path d="M95.9,63.1c-1.5,0-2.2,1.3-2.2,2.5c0,1.2,0.7,2.5,2.2,2.5s2.2-1.3,2.2-2.5C98.1,64.4,97.4,63.1,95.9,63.1 M97.5,65.6
			c0,0.9-0.5,2-1.6,2c-1.1,0-1.6-1.1-1.6-2c0-0.9,0.5-2,1.6-2C97.1,63.6,97.5,64.7,97.5,65.6"/>
		<path d="M100.1,68h-0.6v-3.7c0-0.4,0-0.7,0-1.1h0.6l0,0.7l0,0c0.3-0.6,0.9-0.9,1.5-0.9c1.5,0,1.7,1.4,1.7,1.9v3h-0.6v-3.1
			c0-0.8-0.5-1.3-1.2-1.3c-0.9,0-1.4,0.8-1.4,1.6V68z"/>
		<path d="M105.5,68H105v-3.7c0-0.4,0-0.7,0-1.1h0.6l0,0.7l0,0c0.3-0.6,0.9-0.9,1.5-0.9c1.5,0,1.7,1.4,1.7,1.9v3h-0.6v-3.1
			c0-0.8-0.5-1.3-1.2-1.3c-0.9,0-1.4,0.8-1.4,1.6V68z"/>
		<path d="M114.3,65.7c0-1.5-0.6-2.6-2.2-2.6c-1.4,0-2.1,1.2-2.1,2.5c0,1.3,0.7,2.5,2.1,2.5c1.1,0,1.8-0.5,2.1-1.7h-0.6
			c-0.1,0.7-0.7,1.1-1.4,1.1c-1.2,0-1.6-0.8-1.6-1.9H114.3z M110.7,65.2c0.1-0.8,0.6-1.6,1.5-1.6c1,0,1.5,0.7,1.5,1.6H110.7z"/>
		<path d="M118.8,64.7c0-0.7-0.5-1.1-1.3-1.1c-0.9,0-1.4,0.9-1.4,2c0,1.1,0.5,2,1.4,2c0.7,0,1.2-0.5,1.3-1.1h0.6
			c-0.2,1.1-0.8,1.6-1.8,1.6c-1.4,0-2.1-1.2-2.1-2.5c0-1.3,0.7-2.5,2.1-2.5c1,0,1.8,0.6,1.8,1.6H118.8z"/>
		<path d="M121.3,63.8h-0.9v-0.5h0.9v-1l0.6-0.2v1.3h1.1v0.5h-1.1v3.2c0,0.4,0.2,0.7,0.6,0.7c0.2,0,0.3,0,0.5-0.1V68
			c-0.2,0-0.4,0.1-0.6,0.1c-1.2,0-1.1-0.8-1.1-1.4V63.8z"/>
	</g>
	<polygon points="127.3,68 127.3,61.2 127.9,61.2 127.9,67.4 131.3,67.4 131.3,68 	"/>
	<path d="M132.7,68h0.6v-4.7h-0.6V68z M132.7,61.9h0.7v-0.7h-0.7V61.9z"/>
	<g>
		<path d="M135.5,68v-4.2h-1v-0.5h1v-1c0-0.8,0.3-1.2,1.1-1.2c0.2,0,0.4,0.1,0.5,0.1v0.5c-0.1,0-0.2,0-0.3,0c-0.8,0-0.8,0.4-0.8,1.1
			v0.6h1.1v0.5h-1.1V68H135.5z"/>
		<path d="M142.2,65.7c0-1.5-0.6-2.6-2.2-2.6c-1.4,0-2.1,1.2-2.1,2.5c0,1.3,0.7,2.5,2.1,2.5c1.1,0,1.8-0.5,2.1-1.7h-0.6
			c-0.1,0.7-0.7,1.1-1.4,1.1c-1.2,0-1.6-0.8-1.6-1.9H142.2z M138.5,65.2c0.1-0.8,0.6-1.6,1.5-1.6c1,0,1.5,0.7,1.5,1.6H138.5z"/>
		<path d="M148.8,65.1c-0.7,0-1.5-0.1-2.1,0.2c-0.6,0.2-1,0.7-1,1.4c0,0.9,0.7,1.5,1.6,1.5c0.6,0,1.3-0.4,1.5-0.8l0-0.1h0l0,0.7h0.6
			c0-0.3-0.1-0.7,0-1.1v-2.2c0-1.1-0.6-1.6-1.7-1.6c-0.9,0-1.6,0.4-1.8,1.3h0.6c0.1-0.6,0.6-0.8,1.2-0.8c0.7,0,1.1,0.2,1.1,1V65.1z
			 M146.3,66.6c0-1.2,1.7-1,2.5-1.1c0.1,1-0.2,2-1.4,2C146.8,67.6,146.3,67.3,146.3,66.6"/>
		<path d="M151.6,68h-0.6v-3.7c0-0.4,0-0.7,0-1.1h0.6l0,0.7l0,0c0.3-0.6,0.9-0.9,1.5-0.9c1.5,0,1.7,1.4,1.7,1.9v3h-0.6v-3.1
			c0-0.8-0.5-1.3-1.2-1.3c-0.9,0-1.4,0.8-1.4,1.6V68z"/>
		<path d="M159.7,68h0.6c0-0.3,0-0.7,0-1.1v-5.7h-0.6v2.8l0,0c-0.3-0.6-1-0.9-1.6-0.9c-1.4,0-1.9,1.3-1.9,2.5c0,1.2,0.5,2.5,1.9,2.5
			c0.7,0,1.2-0.3,1.6-0.9l0,0L159.7,68z M159.7,65.5c0,1.1-0.4,2.1-1.6,2.1c-1.1,0-1.3-1.2-1.3-2.1c0-0.9,0.3-1.9,1.4-1.9
			C159.3,63.6,159.7,64.5,159.7,65.5"/>
	</g>
	<polygon points="164.4,68 164.4,61.2 165,61.2 165,67.4 168.5,67.4 168.5,68 	"/>
	<g>
		<path d="M173.5,65.7c0-1.5-0.6-2.6-2.2-2.6c-1.4,0-2.1,1.2-2.1,2.5c0,1.3,0.7,2.5,2.1,2.5c1.1,0,1.8-0.5,2.1-1.7h-0.6
			c-0.1,0.7-0.7,1.1-1.4,1.1c-1.2,0-1.6-0.8-1.6-1.9H173.5z M169.9,65.2c0.1-0.8,0.6-1.6,1.5-1.6c1,0,1.5,0.7,1.5,1.6H169.9z"/>
		<path d="M177.7,65.1c-0.7,0-1.5-0.1-2.1,0.2c-0.6,0.2-1,0.7-1,1.4c0,0.9,0.7,1.5,1.6,1.5c0.6,0,1.3-0.4,1.5-0.8l0-0.1h0l0,0.7h0.6
			c0-0.3-0.1-0.7,0-1.1v-2.2c0-1.1-0.6-1.6-1.7-1.6c-0.9,0-1.6,0.4-1.8,1.3h0.6c0.1-0.6,0.6-0.8,1.2-0.8c0.7,0,1.1,0.2,1.1,1V65.1z
			 M175.2,66.6c0-1.2,1.7-1,2.5-1.1c0.1,1-0.2,2-1.4,2C175.7,67.6,175.2,67.3,175.2,66.6"/>
		<path d="M180.6,68H180v-3.7c0-0.4,0-0.7,0-1.1h0.6l0,0.7h0c0.2-0.5,0.6-0.8,1.1-0.8c0.2,0,0.4,0,0.6,0v0.5c-0.1,0-0.2,0-0.3,0
			c-0.8,0-1.3,0.6-1.3,1.5V68z"/>
		<path d="M184,68h-0.6v-3.7c0-0.4,0-0.7,0-1.1h0.6l0,0.7l0,0c0.3-0.6,0.9-0.9,1.5-0.9c1.5,0,1.7,1.4,1.7,1.9v3h-0.6v-3.1
			c0-0.8-0.5-1.3-1.2-1.3c-0.9,0-1.4,0.8-1.4,1.6V68z"/>
	</g>
	<path d="M188.8,68h0.6v-4.7h-0.6V68z M188.8,61.9h0.7v-0.7h-0.7V61.9z"/>
	<g>
		<path d="M191.6,68h-0.6v-3.7c0-0.4,0-0.7,0-1.1h0.6l0,0.7l0,0c0.3-0.6,0.9-0.9,1.5-0.9c1.5,0,1.7,1.4,1.7,1.9v3h-0.6v-3.1
			c0-0.8-0.5-1.3-1.2-1.3c-0.9,0-1.4,0.8-1.4,1.6V68z"/>
		<path d="M199.8,63.9L199.8,63.9c-0.4-0.5-0.9-0.8-1.6-0.8c-1.4,0-2,1.2-2,2.5c0,1.3,0.6,2.4,2,2.4c0.6,0,1.3-0.3,1.5-0.9h0v0.9
			c0,0.8-0.7,1.3-1.4,1.3c-0.6,0-1.3-0.2-1.3-0.8h-0.6c0,1,1,1.3,1.9,1.3c0.4,0,0.7,0,1.1-0.2c1-0.5,1-1.5,1-2.4v-2.8
			c0-0.4,0-0.7,0-1.1h-0.6L199.8,63.9z M199.8,65.5c0,0.9-0.4,1.9-1.5,1.9c-1,0-1.5-1-1.5-1.9c0-0.9,0.4-1.9,1.5-1.9
			C199.3,63.6,199.8,64.6,199.8,65.5"/>
	</g>
</g>
</svg>
