<svg xmlns="http://www.w3.org/2000/svg" width="380.83" height="101.48" viewBox="0 0 380.83 101.48"><defs><style>.a{fill:#6a737b;}.b{fill:#7e0c6e;}.c{fill:#872d78;}.d{fill:#821f73;}.e{fill:#9f6196;}.f{fill:#904383;}.g{fill:#8b387e;}.h{fill:#9a5790;}.i{fill:#954d89;}</style></defs><path class="a" d="M123.58,53.81v0a9,9,0,0,1,9.15-9.17A9.58,9.58,0,0,1,139.55,47l-2,2.36a6.94,6.94,0,0,0-5-1.9,6,6,0,0,0-5.75,6.26v.05c0,3.65,2.41,6.33,6,6.33a7.24,7.24,0,0,0,4.28-1.34V55.43h-4.53V52.72h7.55v7.45a11.31,11.31,0,0,1-7.4,2.76,8.8,8.8,0,0,1-9.2-9.12m19.66,4c0,3.12,1.75,5.14,4.76,5.14a4.81,4.81,0,0,0,4.18-2.36v2.08h3.07V49.25h-3.07V56.8c0,2.08-1.24,3.32-3,3.32s-2.86-1.19-2.86-3.27v-7.6h-3.07v8.51M157.1,56A6.67,6.67,0,0,0,164,62.93a6.76,6.76,0,0,0,5.47-2.51l-1.8-1.6a4.86,4.86,0,0,1-3.62,1.6A3.73,3.73,0,0,1,160.17,57H170c0-.3,0-.58,0-.86,0-3.85-2.15-7.19-6.41-7.19-3.82,0-6.54,3.14-6.54,7v0m3-1c.28-2.08,1.6-3.52,3.47-3.52,2,0,3.19,1.55,3.39,3.52Zm12.37,7.63h3.06V44.13h-3.06Zm6.2,4.05h3.07V60.55a5.45,5.45,0,0,0,4.53,2.36c3.19,0,6.23-2.51,6.23-6.94v-.05c0-4.43-3.07-6.94-6.23-6.94a5.34,5.34,0,0,0-4.53,2.51V49.25h-3.07ZM189.42,56c0,2.63-1.72,4.28-3.83,4.28A4,4,0,0,1,181.7,56v-.05a4,4,0,0,1,3.9-4.28,4,4,0,0,1,3.83,4.28V56M195,62.63H198V55.08c0-2.08,1.24-3.32,3-3.32s2.86,1.19,2.86,3.27v7.6H207V54.11C207,51,205.23,49,202.22,49A4.81,4.81,0,0,0,198,51.33V44.13H195Zm22.39,0h3.12v-5.7H224c3.9,0,7.09-2.08,7.09-6.06v-.05c0-3.57-2.61-5.93-6.74-5.93h-7Zm3.12-8.51V47.73h3.62c2.33,0,3.83,1.09,3.83,3.17v.05c0,1.85-1.47,3.17-3.83,3.17ZM233,57.76c0,3.12,1.75,5.14,4.76,5.14a4.81,4.81,0,0,0,4.18-2.36v2.08H245V49.25H241.9V56.8c0,2.08-1.24,3.32-3,3.32S236,58.93,236,56.85v-7.6H233v8.51m18.17,2.79a5.45,5.45,0,0,0,4.53,2.36c3.19,0,6.23-2.51,6.23-6.94v-.05c0-4.43-3.07-6.94-6.23-6.94a5.34,5.34,0,0,0-4.53,2.51V44.13h-3.07V62.63h3.07V60.55M258.78,56c0,2.63-1.72,4.28-3.83,4.28a4,4,0,0,1-3.9-4.28v-.05a4,4,0,0,1,3.9-4.28,4,4,0,0,1,3.83,4.28V56m5.42,6.66h3.07V44.13H264.2Zm6.17-15.43h3.29V44.28h-3.29Zm.13,15.43h3.06V49.25H270.5ZM275.93,56a7,7,0,0,0,12.39,4.41l-1.85-1.82A4.71,4.71,0,0,1,283,60.27,4.07,4.07,0,0,1,279,56v-.05a4,4,0,0,1,3.85-4.26,4.5,4.5,0,0,1,3.47,1.67l1.9-2.05A6.68,6.68,0,0,0,282.88,49a6.9,6.9,0,0,0-6.94,7v0m21.89,6.61h12.44V59.79h-9.32V44.89h-3.12ZM312.18,47.2h3.29V44.28h-3.29Zm.13,15.43h3.07V49.25h-3.07Zm9.17-2.08A5.45,5.45,0,0,0,326,62.9c3.19,0,6.23-2.51,6.23-6.94v-.05c0-4.43-3.07-6.94-6.23-6.94a5.34,5.34,0,0,0-4.54,2.51V44.13h-3.07V62.63h3.07V60.55M329.13,56c0,2.63-1.72,4.28-3.83,4.28A4,4,0,0,1,321.4,56v-.05a4,4,0,0,1,3.9-4.28,4,4,0,0,1,3.83,4.28V56m5,6.66h3.07V57.53c0-3.55,1.87-5.29,4.56-5.29H342V49a4.74,4.74,0,0,0-4.74,3.27v-3h-3.07Zm21.08,0V54.7c0-3.57-1.92-5.65-5.88-5.65a11.47,11.47,0,0,0-5.09,1.11l.84,2.46a9.3,9.3,0,0,1,3.83-.84c2.13,0,3.29,1,3.29,2.86v.25a11.29,11.29,0,0,0-3.7-.56c-3.12,0-5.42,1.42-5.42,4.38v.05c0,2.69,2.23,4.13,4.76,4.13A5.4,5.4,0,0,0,352.21,61v1.65Zm-3-4.84c0,1.67-1.52,2.81-3.55,2.81-1.44,0-2.58-.71-2.58-2v0c0-1.29,1.14-2.08,3.07-2.08a8.76,8.76,0,0,1,3.07.53Zm5.42,4.84h3.07V57.53c0-3.55,1.87-5.29,4.56-5.29h.18V49a4.74,4.74,0,0,0-4.74,3.27v-3H357.7Zm10.23,3.32a6.25,6.25,0,0,0,3.17.81c2.15,0,3.34-1,4.41-3.75l5.32-13.76h-3.19l-3.47,9.93-3.8-9.93H367.1l5.57,13.38c-.51,1.16-1,1.54-1.9,1.54a3.77,3.77,0,0,1-1.8-.51l-1,2.28M127.78,85.06h8.55v-1.2H129.1v-4.1h6.39V78.55H129.1v-4h7.14v-1.2h-8.47Zm10.1,0h1.44L142,81.53l2.68,3.53h1.49l-3.41-4.43L146,76.41H144.6L142,79.75l-2.56-3.35H138l3.26,4.25Zm9.94,2.68h1.29V83.4a3.9,3.9,0,0,0,3.31,1.84,4.23,4.23,0,0,0,4.13-4.5v0a4.22,4.22,0,0,0-4.13-4.48,3.89,3.89,0,0,0-3.31,1.92V76.41h-1.29Zm7.41-7a3.05,3.05,0,0,1-3,3.33,3.22,3.22,0,0,1-3.13-3.34v0a3.22,3.22,0,0,1,3.13-3.33,3.11,3.11,0,0,1,3,3.34v0m3.47,4.3H160V72.84H158.7Zm3.37-4.28a4.43,4.43,0,0,0,4.48,4.48,4.49,4.49,0,0,0,4.53-4.52v0a4.51,4.51,0,0,0-9,0v0m7.7,0a3.19,3.19,0,0,1-3.18,3.33,3.24,3.24,0,0,1-3.19-3.36v0a3.19,3.19,0,0,1,3.16-3.35,3.27,3.27,0,0,1,3.21,3.38v0m3.34,4.28h1.29V81.61c0-2.61,1.54-4,3.43-4h.1V76.26a3.7,3.7,0,0,0-3.53,2.41V76.41h-1.29Zm10-.92a3,3,0,0,1-3-2.88h6.86c0-.2,0-.33,0-.45,0-2.54-1.47-4.58-4-4.58a4.53,4.53,0,0,0,.17,9,4.47,4.47,0,0,0,3.56-1.62l-.8-.72a3.58,3.58,0,0,1-2.73,1.22m-3-3.91a3,3,0,0,1,2.81-2.91c1.71,0,2.61,1.34,2.76,2.91Zm14.06-1a2.19,2.19,0,0,0,4.38,0v0a2.19,2.19,0,0,0-4.38,0v0m11.88.05a5.84,5.84,0,0,0,5.87,6,6.1,6.1,0,0,0,4.68-2.06l-.87-.85A5.09,5.09,0,0,1,211.93,84a4.62,4.62,0,0,1-4.53-4.84v0a4.59,4.59,0,0,1,4.53-4.8A5.09,5.09,0,0,1,215.61,76l.9-1a6.1,6.1,0,0,0-4.57-1.86A5.9,5.9,0,0,0,206,79.2v0m11.8,1.54a4.43,4.43,0,0,0,4.48,4.48,4.49,4.49,0,0,0,4.53-4.52v0a4.51,4.51,0,0,0-9,0v0m7.7,0a3.19,3.19,0,0,1-3.18,3.33,3.24,3.24,0,0,1-3.19-3.36v0a3.19,3.19,0,0,1,3.16-3.35,3.27,3.27,0,0,1,3.21,3.38v0m3.34,4.28h1.29v-5a2.54,2.54,0,0,1,2.59-2.71A2.3,2.3,0,0,1,235.13,80v5.05h1.29V79.69a3.16,3.16,0,0,0-3.31-3.46,3.28,3.28,0,0,0-3,1.69V76.41h-1.29Zm10,0h1.29v-5a2.55,2.55,0,0,1,2.59-2.71A2.3,2.3,0,0,1,245.17,80v5.05h1.29V79.69a3.16,3.16,0,0,0-3.31-3.46,3.28,3.28,0,0,0-3,1.69V76.41h-1.29Zm13.87-.92a3,3,0,0,1-3-2.88h6.86c0-.2,0-.33,0-.45,0-2.54-1.47-4.58-4-4.58a4.53,4.53,0,0,0,.17,9,4.46,4.46,0,0,0,3.56-1.62l-.8-.72a3.58,3.58,0,0,1-2.73,1.22m-3-3.91a3,3,0,0,1,2.81-2.91c1.71,0,2.61,1.34,2.76,2.91Zm8.34.55a4.47,4.47,0,0,0,8,2.81l-.82-.77a3.57,3.57,0,0,1-2.64,1.29,3.23,3.23,0,0,1-3.18-3.36v0a3.19,3.19,0,0,1,3.1-3.35,3.49,3.49,0,0,1,2.63,1.31l.85-.9a4.51,4.51,0,0,0-7.9,3v0m10.41,2a2.2,2.2,0,0,0,2.44,2.44,3.22,3.22,0,0,0,1.55-.37v-1.1a2.68,2.68,0,0,1-1.25.3,1.28,1.28,0,0,1-1.46-1.44V77.54h2.74V76.41h-2.74V73.8h-1.29v2.61h-1.2v1.14h1.2v5.22m11.23-3.58a2.19,2.19,0,0,0,4.38,0v0a2.19,2.19,0,0,0-4.38,0v0m15.5,5.87h1.34V74.57h3.93V73.35h-9.2v1.22h3.93Zm7.12,0h1.29v-5a2.55,2.55,0,0,1,2.59-2.71A2.3,2.3,0,0,1,308.58,80v5.05h1.29V79.69a3.16,3.16,0,0,0-3.31-3.46,3.28,3.28,0,0,0-3,1.69V72.84h-1.29Zm10,0h1.29V81.61c0-2.61,1.54-4,3.43-4h.1V76.26a3.7,3.7,0,0,0-3.53,2.41V76.41h-1.29Zm6.36-10.54h1.47V73.09H318.7Zm.08,10.54h1.29V76.41h-1.29Zm6.68.07h1.14l3.76-8.72H329l-2.93,7.18-2.91-7.18h-1.42Zm10-1a3,3,0,0,1-3-2.88h6.86c0-.2,0-.33,0-.45,0-2.54-1.47-4.58-4-4.58a4.53,4.53,0,0,0,.17,9,4.46,4.46,0,0,0,3.56-1.62l-.8-.72a3.58,3.58,0,0,1-2.73,1.22m-3-3.91a3,3,0,0,1,2.81-2.91c1.71,0,2.61,1.34,2.76,2.91Z"/><rect class="b" x="78.22" y="45.29" width="18.52" height="19.42"/><rect class="b" x="58.26" y="81.07" width="17.78" height="18.72"/><rect class="c" x="22.05" y="63.53" width="16.37" height="17.24"/><rect class="d" x="40.88" y="71.23" width="13.58" height="14.53"/><path class="e" d="M77.29,25.49a6.93,6.93,0,1,1-6.94-6.93,6.94,6.94,0,0,1,6.94,6.93"/><path class="f" d="M5.7,34.12s-5.7,0-5.7,5.7v3.44S0,49,5.7,49H9.14s5.7,0,5.7-5.7V39.82s0-5.7-5.7-5.7Z"/><path class="g" d="M9.15,60.27s-5.7,0-5.7,5.7v3.44s0,5.7,5.7,5.7h3.44s5.7,0,5.7-5.7V66s0-5.7-5.7-5.7Z"/><rect class="b" x="65.31" y="44.18" width="9.56" height="10.32"/><path class="e" d="M85.16,13.34a6,6,0,1,1-6-6,6,6,0,0,1,6,6"/><path class="h" d="M48.8,23.72a6,6,0,1,1-6-6,6,6,0,0,1,6,6"/><path class="g" d="M21.28,49.14s-3.8,0-3.8,3.8v3.52s0,3.8,3.8,3.8H24.8s3.8,0,3.8-3.8V52.94s0-3.8-3.8-3.8Z"/><path class="h" d="M57.28,5.56A5.56,5.56,0,1,1,51.72,0a5.57,5.57,0,0,1,5.57,5.56"/><path class="i" d="M15.71,23.44s-3.8,0-3.8,3.8v3.53s0,3.8,3.8,3.8h3.52s3.8,0,3.8-3.8V27.24s0-3.8-3.8-3.8Z"/><rect class="b" x="79.21" y="67.54" width="15.31" height="16.14"/><rect class="d" x="25.09" y="83.21" width="8.77" height="9.41"/><rect class="b" x="65.17" y="65.99" width="11.8" height="12.75"/><rect class="b" x="36.33" y="87.46" width="6.48" height="7.28"/><path class="g" d="M14.4,76.78a2.79,2.79,0,0,0-2.85,2.85v2.29a2.79,2.79,0,0,0,2.85,2.85h2.29a2.79,2.79,0,0,0,2.85-2.85V79.63a2.79,2.79,0,0,0-2.85-2.85Z"/><path class="e" d="M73.18,7a4,4,0,1,1-4-4,4,4,0,0,1,4,4"/><path class="f" d="M21.28,36.69s-3.8,0-3.8,3.8v2.09s0,3.8,3.8,3.8h2.09s3.8,0,3.8-3.8V40.5s0-3.8-3.8-3.8Z"/><rect class="b" x="44.89" y="89.36" width="11.13" height="12.12"/><rect class="b" x="60.89" y="56.47" width="5.07" height="5.45"/><rect class="b" x="51.54" y="46.06" width="5.11" height="5.5"/><path class="h" d="M60.2,25A4.19,4.19,0,1,1,56,20.81,4.19,4.19,0,0,1,60.2,25"/><path class="h" d="M43.77,11.21A4.18,4.18,0,1,1,39.58,7a4.19,4.19,0,0,1,4.19,4.19"/><path class="f" d="M9.32,50.19a1.86,1.86,0,0,0-1.9,1.9v3.09a1.86,1.86,0,0,0,1.9,1.9h3.1a1.86,1.86,0,0,0,1.9-1.9V52.09a1.86,1.86,0,0,0-1.9-1.9Z"/><path class="i" d="M33.48,34.12A3.45,3.45,0,1,1,30,30.67a3.45,3.45,0,0,1,3.45,3.45"/><path class="e" d="M65.07,16.93a3.59,3.59,0,1,1-3.6-3.59,3.59,3.59,0,0,1,3.6,3.59"/><path class="i" d="M29.38,23.15a.93.93,0,0,0-.95,1v3.75a.93.93,0,0,0,.95,1h3.76a.93.93,0,0,0,.95-1V24.1a.93.93,0,0,0-.95-1Z"/><rect class="b" x="69.42" y="56.67" width="6.25" height="7.2"/><path class="h" d="M53.1,15.68a2.34,2.34,0,1,1-2.35-2.34,2.34,2.34,0,0,1,2.35,2.34"/><path class="e" d="M62.41,9.27a1.7,1.7,0,1,1-1.7-1.7,1.7,1.7,0,0,1,1.7,1.7"/><path class="i" d="M16,18.11a1.7,1.7,0,1,1-1.7-1.7,1.7,1.7,0,0,1,1.7,1.7"/><path class="f" d="M6,26a.93.93,0,0,0-1,.95v2.79a.93.93,0,0,0,1,1H8.82a.93.93,0,0,0,1-1V26.93a.93.93,0,0,0-1-.95Z"/><rect class="b" x="57.13" y="72.15" width="5.28" height="6.34"/><rect class="b" x="58.78" y="48.91" width="3.96" height="4.77"/><rect class="b" x="46.72" y="52.81" width="3.85" height="4.63"/><rect class="b" x="52.41" y="54.57" width="5.85" height="7.13"/><rect class="b" x="78.27" y="86.43" width="6.25" height="7.52"/><path class="i" d="M24.33,7s-5.7,0-5.7,5.7v3.44s0,5.7,5.7,5.7h3.44s5.7,0,5.7-5.7V12.73s0-5.7-5.7-5.7Z"/></svg>