<svg xmlns="http://www.w3.org/2000/svg" xmlns:xlink="http://www.w3.org/1999/xlink" width="396.48" height="203.52" viewBox="0 0 297 153"><g fill="#4b009f"><path d="M15.92 137.32a5.55 5.55 0 0 1-2.1-2.17c-.51-.92-.76-1.96-.76-3.12s.25-2.2.76-3.12 1.2-1.64 2.1-2.17c.89-.52 1.9-.78 3.01-.78a6.16 6.16 0 0 1 2.55.53c.78.35 1.44.86 1.99 1.52s.92 1.42 1.14 2.28h-1.75c-.29-.82-.78-1.47-1.47-1.94s-1.49-.71-2.41-.71c-.81 0-1.53.19-2.16.56s-1.12.89-1.48 1.55c-.35.66-.53 1.42-.53 2.28s.18 1.61.53 2.28c.35.66.85 1.18 1.48 1.55s1.35.56 2.16.56c.92 0 1.73-.25 2.43-.74s1.19-1.17 1.48-2.02h1.74c-.21.89-.59 1.67-1.14 2.34s-1.21 1.19-2 1.56-1.64.55-2.56.55c-1.11 0-2.12-.26-3.01-.78zm12.47.19a4.34 4.34 0 0 1-1.67-1.65c-.4-.7-.6-1.5-.6-2.39s.2-1.68.6-2.39c.4-.7.95-1.25 1.67-1.65.71-.4 1.52-.6 2.42-.6s1.7.2 2.42.6a4.34 4.34 0 0 1 1.67 1.65c.4.7.6 1.5.6 2.39s-.2 1.68-.6 2.39a4.34 4.34 0 0 1-1.67 1.65c-.71.4-1.52.6-2.42.6s-1.71-.2-2.42-.6zm3.99-1.32c.46-.26.82-.64 1.08-1.11.26-.48.39-1.01.39-1.61s-.13-1.13-.39-1.61a2.75 2.75 0 0 0-1.08-1.11 3.13 3.13 0 0 0-1.57-.4c-.59 0-1.11.13-1.57.4-.46.26-.82.64-1.08 1.11-.26.48-.39 1.01-.39 1.61s.13 1.13.39 1.61a2.75 2.75 0 0 0 1.08 1.11 3.13 3.13 0 0 0 1.57.4c.59 0 1.11-.13 1.57-.4z"/><use xlink:href="#B"/><use xlink:href="#B" x="17.06"/><path d="M73.37 137.61c-.55-.32-.96-.79-1.25-1.4s-.43-1.36-.43-2.23v-4.97h1.62v4.96c0 .89.19 1.55.58 2 .39.44.98.67 1.76.67.55 0 1.04-.11 1.46-.33a2.35 2.35 0 0 0 .97-.93c.23-.4.34-.86.34-1.39v-4.97h1.62v8.94h-1.62v-1.84l.27.39a3.83 3.83 0 0 1-.91.89c-.34.24-.71.41-1.11.53a4.56 4.56 0 0 1-1.31.18c-.78 0-1.44-.16-1.98-.48zm9.4-8.61h1.62v1.84l-.27-.39a4.31 4.31 0 0 1 .89-.87 4.03 4.03 0 0 1 1.12-.55c.41-.12.86-.19 1.34-.19.78 0 1.44.16 2 .47s.98.78 1.27 1.4.44 1.37.44 2.24v4.97h-1.62v-4.91c0-.9-.2-1.58-.6-2.03s-.99-.68-1.78-.68c-.56 0-1.05.11-1.48.34a2.4 2.4 0 0 0-.98.94c-.23.4-.35.88-.35 1.42v4.92h-1.62v-8.94zm11.09-1.44a1.14 1.14 0 0 1-.35-.83c0-.35.12-.64.35-.87s.52-.35.87-.35a1.22 1.22 0 0 1 .88.35c.24.23.35.52.35.87 0 .33-.12.6-.35.83a1.22 1.22 0 0 1-.88.35c-.35 0-.64-.11-.87-.35zm.05 1.44h1.62v8.94h-1.62V129zm3.36 0h5.83v1.35h-5.83V129zm2.57 8.3c-.51-.46-.77-1.18-.77-2.16v-8.24l1.62-.17v8.21c0 .55.13.95.4 1.19.26.24.69.36 1.29.36a7.86 7.86 0 0 0 .83-.05v1.5l-1.03.05c-1.05 0-1.82-.23-2.33-.69zm6.15 3.17l1.79-3.93.12 1.1-3.79-8.55v-.08h1.8l1.42 3.37 1.5 3.61-.84.25 1.67-3.83 1.48-3.41h1.79v.08l-5.18 11.46H106v-.08zm14.49-2.84c-.64-.31-1.14-.76-1.51-1.34s-.58-1.25-.64-2.01h1.72a2.2 2.2 0 0 0 .4 1.13 2.16 2.16 0 0 0 .91.75c.38.17.81.26 1.29.26.81 0 1.44-.16 1.9-.49s.68-.78.68-1.35c0-.35-.09-.65-.28-.89-.19-.25-.48-.46-.88-.62-.4-.17-.94-.3-1.62-.4-.87-.13-1.59-.35-2.16-.64s-1-.66-1.28-1.11-.42-.98-.42-1.6.17-1.22.51-1.73.81-.91 1.42-1.19 1.31-.42 2.1-.42 1.48.14 2.07.42c.6.28 1.08.68 1.44 1.21.36.52.59 1.14.68 1.85h-1.72c-.12-.61-.4-1.06-.83-1.36s-.99-.45-1.69-.45-1.25.15-1.66.45-.62.7-.62 1.21c0 .34.08.62.25.84s.45.41.84.56.94.28 1.63.4c.89.15 1.63.37 2.22.68s1.03.7 1.32 1.16c.29.47.43 1.01.43 1.64 0 .7-.18 1.31-.55 1.85a3.63 3.63 0 0 1-1.53 1.24c-.65.29-1.41.44-2.27.44-.81 0-1.53-.16-2.17-.47zm10.26-.12c-.7-.4-1.25-.95-1.64-1.65-.4-.7-.6-1.5-.6-2.39s.2-1.68.6-2.39a4.4 4.4 0 0 1 1.64-1.65c.7-.4 1.49-.6 2.38-.6.94 0 1.78.21 2.5.64s1.28 1.03 1.65 1.82.54 1.7.48 2.73h-1.62c.08-.65 0-1.26-.24-1.83a2.97 2.97 0 0 0-1.09-1.35 2.95 2.95 0 0 0-1.69-.5c-.57 0-1.08.13-1.53.4-.45.26-.8.63-1.05 1.1s-.38 1.01-.38 1.62.13 1.15.38 1.62.6.84 1.05 1.1.96.4 1.53.4 1.13-.12 1.59-.36c.47-.24.81-.58 1.04-1h1.75a4.09 4.09 0 0 1-1.64 2.11c-.78.52-1.69.78-2.74.78-.89 0-1.68-.2-2.38-.6zm-.88-4.85h7.3v1.37h-7.3v-1.37zm10.05-3.66h1.62v1.87l-.29-.24c.33-.58.73-1.03 1.21-1.32.48-.3 1.05-.45 1.7-.45.31 0 .68.05 1.1.13v1.45a3.92 3.92 0 0 0-.89-.1c-.54 0-1.02.12-1.45.35a2.59 2.59 0 0 0-1.01.96c-.25.41-.37.89-.37 1.42v4.86h-1.62v-8.94zm6.07.09v-.08h1.72l1.62 4.03 1.25 3.15h-.41l1.26-3.19 1.6-4h1.72v.08l-3.78 8.85h-1.21l-3.78-8.85zm10.37-1.53a1.14 1.14 0 0 1-.35-.83c0-.35.12-.64.35-.87s.52-.35.87-.35a1.22 1.22 0 0 1 .88.35c.24.23.35.52.35.87 0 .33-.12.6-.35.83a1.22 1.22 0 0 1-.88.35c-.35 0-.64-.11-.87-.35zm.06 1.44h1.62v8.94h-1.62V129zm6.05 8.52c-.7-.39-1.24-.94-1.64-1.64-.39-.7-.59-1.49-.59-2.39s.19-1.72.58-2.42.93-1.25 1.63-1.64 1.5-.59 2.4-.59c.74 0 1.42.14 2.02.41.61.28 1.12.67 1.53 1.18.42.51.71 1.12.88 1.81h-1.62c-.22-.6-.58-1.06-1.06-1.39s-1.06-.5-1.72-.5a3.02 3.02 0 0 0-1.56.4c-.46.26-.81.63-1.06 1.1s-.38 1.02-.38 1.64.13 1.15.38 1.62a2.74 2.74 0 0 0 1.06 1.1c.45.26.97.39 1.56.39.69 0 1.27-.17 1.75-.5s.82-.8 1.04-1.41h1.65c-.16.7-.45 1.3-.87 1.82a4.17 4.17 0 0 1-1.56 1.19c-.62.28-1.3.41-2.04.41-.9 0-1.7-.2-2.39-.59zm10.51-.01a4.33 4.33 0 0 1-1.64-1.65c-.4-.7-.6-1.5-.6-2.39s.2-1.68.6-2.39a4.4 4.4 0 0 1 1.64-1.65c.7-.4 1.49-.6 2.38-.6.94 0 1.78.21 2.5.64a4.05 4.05 0 0 1 1.65 1.82c.37.79.54 1.7.48 2.73h-1.62c.08-.65 0-1.26-.24-1.83a2.97 2.97 0 0 0-1.09-1.35 2.95 2.95 0 0 0-1.69-.5c-.57 0-1.09.13-1.53.4-.45.26-.8.63-1.05 1.1s-.38 1.01-.38 1.62.13 1.15.38 1.62.6.84 1.05 1.1.96.4 1.53.4 1.13-.12 1.59-.36c.47-.24.81-.58 1.04-1h1.75a4.09 4.09 0 0 1-1.64 2.11c-.78.52-1.69.78-2.74.78-.89 0-1.68-.2-2.38-.6zm-.88-4.85h7.3v1.37h-7.3v-1.37zm11.24 5.08c-.55-.24-.98-.57-1.3-1.01-.31-.44-.48-.96-.51-1.57h1.65c.03.46.24.82.62 1.06.38.25.89.37 1.52.37s1.17-.1 1.55-.3.57-.49.57-.89c0-.24-.06-.42-.19-.56-.13-.13-.35-.25-.67-.35s-.78-.2-1.38-.29c-.87-.14-1.55-.31-2.06-.54-.51-.22-.89-.51-1.12-.87-.24-.35-.35-.8-.35-1.34s.16-1.04.48-1.44.76-.7 1.31-.89c.55-.2 1.17-.3 1.85-.3s1.3.11 1.82.33.92.53 1.21.94a2.74 2.74 0 0 1 .49 1.46h-1.63c-.06-.39-.25-.7-.59-.93-.34-.22-.79-.34-1.35-.34-.62 0-1.1.1-1.44.31s-.51.49-.51.85c0 .25.07.45.21.61s.38.29.71.39.79.19 1.39.27c1.12.15 1.99.41 2.59.8s.9.99.9 1.8c0 .62-.17 1.13-.5 1.54s-.78.72-1.36.92-1.23.3-1.96.3-1.41-.12-1.96-.35zM50.69 86.04h-5.68v-2.4h5.68l8.49-8.43h1.47v8.43h5.68v2.4h-5.68v29.52h-9.96V86.04zm47.5 9.66v21.13h-1.47l-5.27-5.5c-.91-.95-1.99-.76-2.88.35-2.2 2.72-6.31 4.83-11.26 4.83-5.55 0-9.38-2.74-9.38-8.24 0-7.66 8.11-11.17 20.24-11.3v-3.98c0-4.15-.51-7.16-5.62-7.16-4.47 0-9.02 2.59-11.49 4.3v-4.78c4.21-1.72 9.19-2.68 12.64-2.68 10.28 0 14.49 3.64 14.49 13.02zm-10.02 10.8v-7.18c-5 .31-10.94 1.79-10.94 8.15 0 2.84 1.81 5.28 4.62 5.28 3.32 0 6.27-2.56 6.32-6.25zm37.35-24.64v5.34c-3.41-1.3-9.36.13-9.26 5.43v22.93h-9.96v-33.2h1.41l5.19 4.9c.96.91 1.19.89 2.25-.31 2.88-3.26 7.03-5.08 10.37-5.08zm5.11-9.25h9.96v43.01h-9.96V72.61z"/></g><path d="M148.31,73.42c0-3.13,2.55-5.68,5.68-5.68s5.68,2.55,5.68,5.68-2.55,5.68-5.68,5.68-5.68-2.55-5.68-5.68Z" fill="#ffd000"/><path d="M149.01 83.64h9.96v31.92h-9.96zm89.76 32.81c0 6.38-6.26 10.6-17.43 10.6-6.96 0-12.45-1.21-15.32-2.68v-4.65c5.11 2.97 9.5 4.49 15.39 4.46 7.72-.04 12.22-2.05 12.25-4.33.03-2.11-2.22-2.76-6.5-2.76h-18.59l-2.36-8.55 5.76-5.75c-2.91-1.24-5.69-4.85-5.69-9.31 0-6.13 5.04-10.79 14.81-10.79 2.4 0 4.47.28 6.29.84.64.19 1.32.14 1.93-.12l8.06-3.46v4.34l-6.22 1c2.53 1.24 4.82 4.49 4.82 8.58 0 6.9-4.92 10.79-14.87 10.79-2.62 0-3.55-.22-5.63-.64l-3.8 3.31c-.79.67-.55 1.23.37 1.23h16.4c7.28 0 10.34 2.94 10.34 7.92zM214.9 93.79c0 5.01 2.15 8.45 6.19 8.45s6.22-3.69 6.26-8.45c.04-5.65-2.1-8.7-6.26-8.7s-6.2 3.44-6.19 8.7zm-15.26.83v20.94h-10.02V93.54c.02-3.91-1.4-6.51-5.74-6.52-3.8-.01-6.36 2.9-6.38 6.58v21.97h-10.09v-33.2h1.4l5.05 5.08c.98.98 1.37 1.32 2.29.28 3.59-4.04 7.39-5.57 12.2-5.04 7.3.81 11.3 3.83 11.3 11.94zm-185.4 19.53v-5.29c2.69 2.68 8.2 5.26 12.19 5.25 6.52-.02 10.34-2.75 10.41-6.52.1-5.3-4.73-6.96-10.02-9.58l-2.87-1.4c-6.38-3.19-11.1-5.5-11.1-12.46 0-8.49 7.14-12.9 16.27-12.9 3.9 0 7.92.83 10.79 2.17v5.22c-2.18-2.26-6.38-4.97-10.85-4.99-4.92-.02-8.61 2.57-8.55 6.14.05 3.37 2.68 5.12 7.85 7.67l2.94 1.47c7.85 3.89 13.27 6.45 13.27 13.73 0 9.45-8.16 13.85-18.18 13.85-4.79 0-9.32-1.15-12.13-2.36z" fill="#4b009f"/><path d="M141.57 53.91c-4.07-4.94-8.27-10.06-13.51-12.78-.65-.34-1.31-.64-1.99-.9h.26c.98.29 1.94.65 2.87 1.08 5.3 2.46 9.44 6.92 13.82 11.64 3.31 3.57 6.73 7.26 10.7 9.99.18.13.37.25.56.37.25 0 .5.01.75.04-.37-.23-.74-.47-1.1-.72-3.94-2.71-7.35-6.38-10.64-9.94-4.4-4.75-8.56-9.23-13.93-11.72-.56-.26-1.13-.5-1.72-.71h.21c.91.25 1.81.54 2.67.9 5.46 2.23 9.75 6.29 14.3 10.61 3.33 3.16 6.78 6.42 10.75 8.93 2.82 1.78 5.88 3.13 9.11 4.02 2.98.82 6.18 1.27 9.5 1.34 5.75.11 12.09-.93 18.81-3.1l2.91-.98 5.93-2.18c8.99-3.38 18.28-6.87 27.2-5.1 5.17 1.02 9.9 3.81 14.43 7.13.06-.11.13-.22.19-.33-4.55-3.34-9.32-6.14-14.54-7.17-9.02-1.78-18.37 1.73-27.41 5.12l-5.92 2.17-2.9.97c-6.69 2.15-12.96 3.19-18.69 3.08-3.29-.06-6.46-.51-9.41-1.32a33.64 33.64 0 0 1-9.01-3.98c-3.94-2.49-7.38-5.74-10.7-8.89-4.57-4.33-8.88-8.42-14.41-10.67-.44-.18-.88-.34-1.33-.49h.21a23.35 23.35 0 0 1 2.3.69c5.65 2 10.13 5.69 14.86 9.59 3.32 2.74 6.76 5.58 10.71 7.86 5.57 3.22 11.9 4.99 18.8 5.27 5.98.25 12.37-.62 19-2.58l2.95-.92c2.61-.86 5.27-1.86 7.85-2.82 8.41-3.16 17.11-6.42 25.31-5.22 5.07.75 9.7 3.26 14.12 6.3l.21-.32c-4.45-3.06-9.13-5.6-14.27-6.36-8.3-1.22-17.04 2.06-25.5 5.24l-7.83 2.82c-1.01.33-2 .64-2.94.91-6.59 1.94-12.94 2.81-18.88 2.57-6.84-.28-13.11-2.04-18.63-5.22-3.92-2.26-7.35-5.09-10.66-7.82-4.76-3.93-9.26-7.63-14.98-9.65l-.78-.26h.24a33.85 33.85 0 0 1 1.73.46c5.91 1.77 10.61 5.1 15.59 8.62 3.27 2.32 6.65 4.71 10.52 6.73 5.74 3.01 12.13 4.75 18.99 5.18 6.21.38 12.67-.31 19.19-2.06.97-.26 1.97-.55 2.99-.86 3.23-1 6.51-2.24 9.69-3.45 7.85-2.98 15.97-6.07 23.5-5.35 5.05.48 9.64 2.79 14.03 5.61.07-.1.15-.2.22-.3-4.43-2.85-9.08-5.19-14.21-5.68-7.63-.72-15.78 2.37-23.68 5.37-3.17 1.2-6.44 2.45-9.66 3.44-1.01.31-2.02.6-2.98.86-6.48 1.74-12.9 2.43-19.07 2.05-6.81-.42-13.15-2.15-18.84-5.14-3.84-2.01-7.21-4.4-10.47-6.71-5-3.54-9.73-6.88-15.7-8.67-.01 0-.03 0-.04-.01.11 0 .23.02.34.02.3.07.61.12.91.2 6.27 1.55 11.27 4.54 16.57 7.71 3.14 1.87 6.38 3.81 10.05 5.55 7.76 3.67 16.6 5.5 25.58 5.27 4.34-.11 8.72-.69 12.99-1.73.99-.24 2.01-.51 3.03-.8 3.53-1.02 7.23-2.37 11.32-4.14 7.17-3.09 16.3-6.48 23.35-5.15 4.85.91 8.65 2.75 12.53 5 .08-.1.16-.2.25-.29-3.92-2.28-7.77-4.15-12.7-5.08-7.15-1.35-16.35 2.06-23.57 5.17-4.07 1.76-7.76 3.1-11.27 4.12-1.01.29-2.03.56-3.02.8-4.25 1.03-8.59 1.61-12.91 1.72-8.92.23-17.7-1.59-25.4-5.24-3.66-1.73-6.89-3.67-10.03-5.54-5.03-3-9.79-5.85-15.63-7.47l.63.03c6.62 1.37 11.97 4.01 17.63 6.81 2.85 1.41 5.79 2.87 9.08 4.27 8.74 3.71 18.29 5.55 27.56 5.32 3.88-.1 7.71-.55 11.39-1.36a71.86 71.86 0 0 0 3.07-.74c4.25-1.15 8.53-3.08 12.67-4.95 7.26-3.28 14.12-6.38 20.56-5.38 5.14.8 9.82 2.7 14.31 4.89a7.68 7.68 0 0 0 .27-.29c-4.54-2.22-9.29-4.16-14.52-4.98-6.55-1.02-13.46 2.1-20.77 5.41-4.12 1.86-8.39 3.79-12.61 4.93a71.44 71.44 0 0 1-3.06.74c-3.66.8-7.47 1.25-11.32 1.35-9.23.23-18.71-1.6-27.4-5.29-3.28-1.4-6.22-2.85-9.06-4.26-5.04-2.5-9.85-4.87-15.53-6.34.25.02.5.03.74.04a13.31 13.31 0 0 0 .63.04c6.52 1.26 11.91 3.43 18.04 5.9l6.88 2.71c6.54 2.47 13.12 4.12 19.56 4.91 6.95.85 13.6.68 19.77-.52a57.76 57.76 0 0 0 3.11-.69c4.63-1.16 9.24-3.34 13.7-5.46 9.06-4.29 15.95-6.1 21.05-5.51 6.39.73 9.96 2.04 13.88 4.05l.3-.27c-3.94-2.02-7.66-3.42-14.14-4.16-3.31-.38-7.35.23-12.22 1.84 4.52-1.92 8.85-3.53 13.02-4.11 6.08-.83 11.44 1.46 16.6 3.76l.35-.26c-5.28-2.35-10.73-4.74-17-3.88-5.44.75-11.12 3.24-17.13 5.87-5.26 2.31-10.7 4.7-16.23 5.98-1.03.24-2.09.45-3.13.62-3.11.53-6.41.79-9.84.77-3.18-.02-6.55-.27-10.01-.77-6.11-.87-12.55-2.44-19.68-4.81l-.83-.28c-7.16-2.38-12.91-4.29-19.32-5.54a35.77 35.77 0 0 0 1.49-.15l.59-.09c6.4.75 12.31 2.02 19.79 4.18 12.39 3.57 26.73 7.22 40.09 5.24 1.1-.16 2.17-.35 3.2-.57 6.16-1.31 12.12-4.06 17.88-6.73 5.44-2.52 10.58-4.89 15.48-5.88 5.95-1.2 11.19.7 16.28 2.54l2.21.79.38-.27-2.48-.88c-5.12-1.86-10.42-3.77-16.47-2.55-4.95 1-10.1 3.38-15.57 5.91-5.74 2.66-11.68 5.4-17.8 6.7-1.01.22-2.08.41-3.17.57-13.29 1.96-27.58-1.67-39.93-5.23-7.04-2.03-12.69-3.28-18.67-4.05a25.07 25.07 0 0 0 1.85-.47c6.06.26 11.6.92 18.56 2.63l3.93.98.24.06c5.9 1.48 12.01 3.02 18.11 3.99 6.9 1.1 12.85 1.31 18.19.64 1.12-.14 2.21-.31 3.24-.51 6.75-1.31 13.19-4.46 19.42-7.51 4.91-2.4 9.54-4.67 13.98-5.86 5.65-1.52 10.67-.16 15.52 1.15 1.79.48 3.48.94 5.2 1.26l.38-.32c-.08-.01-.15-.02-.23-.04-1.73-.31-3.44-.78-5.25-1.27-4.9-1.33-9.97-2.7-15.72-1.15-4.47 1.2-9.12 3.48-14.05 5.89-6.2 3.04-12.62 6.18-19.32 7.48-1.02.2-2.1.37-3.21.51-5.3.66-11.22.46-18.09-.64-6.09-.97-12.19-2.5-18.08-3.98l-.24-.06-3.93-.98c-6.59-1.62-11.92-2.3-17.6-2.6.55-.19 1.11-.39 1.67-.61 5.58-.19 11.05-.02 17.68 1.33 3.12.64 6.35 1.41 9.49 2.15 9.1 2.17 18.51 4.4 27.68 4.18a48.98 48.98 0 0 0 3.7-.23c1.13-.12 2.23-.27 3.28-.46 7.38-1.31 14.3-4.91 20.99-8.38 4.36-2.27 8.48-4.41 12.44-5.76 5.15-1.75 9.84-1.06 14.38-.39l.51.07c3.24.48 6.01.71 8.25.81.11-.12.23-.24.34-.36-2.29-.1-5.14-.33-8.53-.82l-.51-.07c-4.58-.67-9.32-1.37-14.56.41-3.99 1.36-8.12 3.5-12.49 5.78-6.67 3.47-13.56 7.05-20.88 8.35-1.04.18-2.13.34-3.25.45-1.18.12-2.42.2-3.67.23-9.11.23-18.5-2.01-27.59-4.17l-9.49-2.15c-6.28-1.29-11.53-1.51-16.8-1.37.47-.21.94-.42 1.41-.66.03-.02.06-.03.09-.05 5.41-.61 10.64-.85 17.06.2 4.28.71 8.75 1.77 13.07 2.79 8.43 2 17.14 4.07 25.63 3.86a51.35 51.35 0 0 0 2.54-.13c1.12-.09 2.24-.23 3.32-.4 3.6-.59 7.43-1.8 11.7-3.73 3.77-1.7 7.41-3.71 10.93-5.66 3.79-2.1 7.37-4.08 10.82-5.52 5.68-2.36 12.07-2.1 15.89-1.95h.06c2.89.12 6.17.09 9.13-.03.1-.13.19-.26.29-.39-3.02.12-6.42.16-9.4.04h-.06c-3.85-.16-10.29-.42-16.05 1.97-3.48 1.45-7.06 3.43-10.86 5.53-3.51 1.95-7.15 3.96-10.91 5.65-4.24 1.91-8.04 3.12-11.61 3.7a43.49 43.49 0 0 1-3.29.39c-.82.07-1.67.11-2.52.13-8.44.21-17.13-1.85-25.53-3.85-4.32-1.03-8.8-2.09-13.09-2.8-6.08-1-11.1-.84-16.2-.31a33.41 33.41 0 0 0 1.3-.74c5.21-.98 10.45-1.61 16.68-.82 5.14.65 10.5 1.96 15.7 3.23 8.02 1.96 16.31 3.98 24.39 3.78.51-.01 1.02-.03 1.53-.07a41.09 41.09 0 0 0 3.36-.34c3.93-.57 8.09-1.92 12.71-4.11 4.07-1.93 7.96-4.24 11.73-6.48 3.16-1.88 6.15-3.65 9.05-5.09 4.49-2.23 9.27-2.74 13.89-3.23l.58-.06 11.67-1.11a5.2 5.2 0 0 0 .23-.4c-4.09.3-9.44.86-11.94 1.13l-.58.06c-4.65.5-9.47 1.01-14.02 3.27-2.92 1.44-5.91 3.22-9.08 5.11-3.76 2.23-7.64 4.54-11.69 6.46-4.59 2.17-8.71 3.5-12.61 4.07-1.09.15-2.21.27-3.33.34-.5.03-1.01.05-1.52.06-8.04.2-16.3-1.82-24.3-3.78-5.2-1.27-10.57-2.58-15.73-3.24-5.89-.74-10.9-.23-15.82.65l1.15-.73c5.14-1.35 10.31-2.33 16.46-1.78 5.82.52 11.88 2.07 17.75 3.56 7.76 1.98 15.79 4.04 23.62 3.84.21 0 .42-.01.64-.02a41.74 41.74 0 0 0 3.4-.28c4.32-.56 8.85-2.06 13.86-4.57 4.4-2.21 8.56-4.88 12.59-7.47l1.76-1.15c1.82-1.19 3.55-2.32 5.31-3.25 4.23-2.25 7.42-3.15 10.8-4.11l.86-.25c5.03-1.44 10.13-2.07 14.88-2.5.06-.13.13-.26.19-.4-4.82.44-10.04 1.07-15.17 2.54l-.86.25c-3.4.97-6.6 1.88-10.87 4.14-1.31.7-2.6 1.5-3.92 2.35 1.31-.88 2.65-1.85 4.19-3.04l1.95-1.33c.14-.09.28-.19.42-.28 3.31-2.2 6.98-3.99 11.22-5.46 4.66-1.62 8.57-2.54 14.87-3.52.03-.09.15-.4.15-.4-.03 0-.08.01-.09.01-6.4.99-10.34 1.92-15.05 3.56-4.11 1.42-7.69 3.15-10.93 5.26h0l-.37.24c-.05.04-.11.07-.16.11-.01 0-.02.01-.03.02h0c-2.57 1.64-4.79 2.45-6.93 3.22l-.39.14c-3.37 1.22-7.18 1.42-10.12 1.45-1.19.01-2.43-.05-3.68-.18-6.33-.67-12.69-3.14-18.84-5.53-8.61-3.34-17.51-6.8-26.33-5.27-7.48 1.3-13.85 6.08-19.96 11.03l-2.64 1.97-2.26 1.57a24.4 24.4 0 0 1-.64.44l-.97.61-2.06 1.29-1.85 1.04-5.13 2.51a74.15 74.15 0 0 1-2.74 1.06c-1.1.36-2.21.71-3.35 1.03a77.25 77.25 0 0 1-3.39.75l-2.43.36a25.52 25.52 0 0 1-.81.1c-.16.02-.32.03-.49.05l-2.3.2-.59.03-2.17.1-2.13.03h-.14c-3.81-.96-7.64-2.41-11.52-3.97l-1.96-.79c-10.46-4.24-20.33-8.24-29.94-3.77-3.52 1.64-6.46 4.26-9.08 7.33-.37.39-.73.79-1.09 1.19-.36.36-.71.74-1.06 1.11-.36.35-.71.71-1.06 1.07-.4.37-.8.75-1.19 1.14l-1.14 1.04-1.2 1.02-1.27 1-1.35.97-1.31.84-1.22.69c-.06.03-.11.06-.16.09l-1.43.7-1.47.59-1.6.5-1.37.31c-.31.05-.62.09-.93.13l-2.67.17c-.42-.01-.83-.03-1.25-.05l-1.48-.16c-.07 0-.14-.02-.21-.03l-.56-.11-1.19-.25-1.57-.43-1.63-.56-1.95-.8-5.9-2.38c-3.72-1.42-7.7-2.73-11.82-3.9-.12-.04-.25-.07-.37-.1a10.58 10.58 0 0 0-2.68-.33l2.95.79c4.11 1.16 8.08 2.47 11.79 3.89l1.49.59-.53-.18c-4-1.31-8.22-2.49-11.94-3.54l-5.33-1.45c-.32.04-.64.08-.96.14 2.1.53 4.17 1.1 6.19 1.67l11.92 3.54 2.44.82-1.5-.42-5.05-1.32-7-1.86-2.65-.75-5.29-1.48c-.25.06-.5.12-.74.19 1.95.51 3.92 1.08 5.93 1.65l2.65.75 7.04 1.87L48.14 48l3.29.92-2.37-.52-1.67-.36c-3.41-.73-6.94-1.48-10.49-2.48l-4.94-1.46-5.07-1.49-.64.22 5.61 1.64 4.94 1.46c3.56 1 7.09 1.75 10.51 2.48l1.67.36 3.55.79.08.02.58.13-.93-.15-2.39-.39c-3.55-.57-7.96-1.27-12.27-2.48-2.1-.59-4.19-1.27-6.23-1.93l-5.6-1.74c-.19.07-.37.15-.56.23 2 .56 4 1.21 6.06 1.88l6.23 1.93c4.33 1.21 8.75 1.92 12.31 2.49l2.4.39 2.68.43-3.53-.36-.67-.07c-3.7-.39-8.01-.91-12.38-2.12-2.4-.67-4.76-1.49-7.06-2.29-2.1-.73-4.24-1.47-6.41-2.1-.18.08-.35.15-.53.24 2.31.65 4.58 1.44 6.82 2.22 2.3.8 4.67 1.63 7.08 2.3 4.4 1.23 8.72 1.75 12.44 2.14l.67.07 5.77.57c-1.52-.04-3.08-.12-4.68-.2l-.9-.05c-3.7-.19-8.08-.54-12.49-1.77-2.6-.73-5.16-1.68-7.63-2.61-2.4-.9-4.85-1.81-7.35-2.51a11.61 11.61 0 0 0-.49.26c2.62.71 5.2 1.67 7.71 2.61 2.48.93 5.04 1.88 7.66 2.62 4.44 1.24 8.85 1.6 12.57 1.78l.9.05 5.65.22c-1.68.08-3.55.12-5.72.12-3.45.01-7.99-.14-12.6-1.42-2.76-.77-5.46-1.85-8.06-2.89-2.72-1.09-5.51-2.2-8.38-2.96l-.46.27c2.98.75 5.88 1.91 8.7 3.04 2.61 1.05 5.32 2.13 8.1 2.9 4.65 1.29 9.23 1.45 12.7 1.43 2.77-.01 5.04-.07 7.07-.19l.09.03c-1.92.23-4.02.42-6.34.55-3.42.2-7.95.25-12.71-1.07-2.89-.8-5.69-2-8.4-3.15-3.05-1.3-6.19-2.63-9.45-3.4-.15.09-.31.18-.46.28 3.36.74 6.61 2.12 9.77 3.47 2.72 1.16 5.53 2.36 8.44 3.17 4.81 1.33 9.38 1.28 12.83 1.08a96.79 96.79 0 0 0 7.09-.65c.06.02.11.04.17.06-2.01.39-4.17.72-6.46.97-2.31.26-4.36.35-6.27.27-2.33-.09-4.47-.41-6.54-.99-3-.83-5.88-2.14-8.67-3.4-3.24-1.47-6.59-2.98-10.1-3.74-.16-.04-.33-.06-.49-.09l-.45.3.86.16c3.47.74 6.8 2.25 10.02 3.71 2.8 1.27 5.69 2.58 8.72 3.42 2.11.58 4.28.91 6.63 1 1.93.07 4-.02 6.33-.28 2.54-.28 4.92-.65 7.12-1.1.07.03.14.05.22.08-2.07.56-4.26 1.04-6.56 1.42-4.97.82-9.07.7-12.92-.36-3.09-.86-6.04-2.27-8.89-3.64-3.18-1.53-6.47-3.1-9.93-3.89a22.57 22.57 0 0 0-1.86-.33c-.14.1-.28.21-.43.32.75.09 1.49.21 2.21.38 3.42.77 6.69 2.34 9.85 3.86 2.87 1.38 5.83 2.8 8.95 3.66 3.91 1.08 8.07 1.2 13.09.37 2.52-.41 4.91-.94 7.15-1.57l.27.09a56.15 56.15 0 0 1-6.67 1.87c-4.96 1.08-9.1 1.07-13.04-.01-3.17-.88-6.17-2.4-9.08-3.87-3.13-1.59-6.37-3.23-9.8-4.05-1.06-.25-2.15-.42-3.25-.5-.15.11-.29.23-.44.35a20.53 20.53 0 0 1 3.61.52c3.39.81 6.61 2.44 9.72 4.02 2.92 1.48 5.94 3.01 9.15 3.9 4 1.1 8.2 1.11 13.22.02a58.27 58.27 0 0 0 7.19-2.04c.1.03.21.06.32.1-2.17.92-4.44 1.71-6.77 2.34-2.29.62-4.39.97-6.4 1.06-2.37.11-4.58-.12-6.74-.72-3.24-.89-6.29-2.52-9.24-4.1-3.09-1.65-6.29-3.36-9.7-4.21-1.59-.4-3.15-.58-4.67-.6l-.45.38c1.63 0 3.32.17 5.03.59 3.36.84 6.54 2.54 9.62 4.18 2.97 1.58 6.03 3.22 9.32 4.13 2.21.61 4.46.85 6.86.74 2.04-.1 4.16-.45 6.48-1.07a51.08 51.08 0 0 0 7.23-2.54c.12.04.23.07.35.11-2.21 1.12-4.55 2.08-6.86 2.83-2.29.74-4.4 1.17-6.45 1.32-2.35.17-4.64-.04-6.81-.64-3.31-.91-6.39-2.64-9.39-4.32-3.06-1.72-6.23-3.49-9.62-4.38-2.11-.55-4.18-.71-6.14-.61-.15.14-.3.27-.44.41 2.07-.16 4.25-.02 6.49.56 3.34.87 6.49 2.63 9.53 4.34 3.01 1.69 6.11 3.43 9.46 4.36 2.21.61 4.54.83 6.94.65 2.08-.15 4.21-.59 6.53-1.34 2.46-.79 4.94-1.83 7.28-3.04.13.04.26.07.38.11a45.68 45.68 0 0 1-6.96 3.34c-4.88 1.83-9.26 2.17-13.37 1.04-3.36-.92-6.49-2.76-9.51-4.54-3.03-1.79-6.17-3.63-9.55-4.55-2.44-.66-5.05-.8-7.7-.45-.14.15-.29.29-.43.44 2.77-.43 5.49-.32 8.03.37 3.33.9 6.44 2.74 9.46 4.51 3.04 1.79 6.18 3.64 9.6 4.58 4.19 1.15 8.64.81 13.6-1.05 2.47-.92 4.96-2.14 7.32-3.55.14.04.27.07.41.11-2.28 1.53-4.68 2.85-7.04 3.86-4.89 2.08-9.29 2.54-13.48 1.39-3.42-.94-6.57-2.88-9.62-4.76-3.01-1.86-6.13-3.77-9.5-4.73-2.93-.83-6.07-.87-9.25-.2-.14.16-.28.31-.41.47 3.29-.77 6.54-.77 9.56.09 3.32.94 6.42 2.84 9.41 4.68 3.07 1.89 6.25 3.85 9.72 4.8 4.27 1.17 8.76.71 13.73-1.4 2.48-1.06 5-2.45 7.38-4.08a6.39 6.39 0 0 0 .42.1c-2.31 1.75-4.73 3.25-7.13 4.4-2.3 1.1-4.45 1.79-6.58 2.11-2.4.37-4.76.24-7.02-.38-3.47-.95-6.65-2.99-9.72-4.97-2.99-1.92-6.09-3.92-9.46-4.9-3.42-1.01-7.13-.91-10.82.19-.13.17-.27.33-.39.51 3.79-1.22 7.6-1.37 11.1-.33 3.32.97 6.39 2.95 9.36 4.86 3.1 1.99 6.3 4.05 9.82 5.02 2.3.63 4.72.76 7.17.39 2.17-.33 4.35-1.03 6.68-2.15 2.5-1.19 5.03-2.78 7.43-4.62l.44.09c-2.33 1.98-4.79 3.68-7.21 4.96-2.27 1.2-4.5 2-6.62 2.38-2.42.43-4.8.33-7.08-.29-3.52-.96-6.72-3.11-9.82-5.19-2.98-1.99-6.05-4.06-9.42-5.08-3.88-1.18-8.2-.86-12.41.78l-.35.54c4.29-1.78 8.71-2.17 12.66-.96 1.51.46 2.97 1.14 4.39 1.93-1.18-.63-2.38-1.17-3.63-1.56-4.38-1.38-9.28-.81-13.94 1.48-.11.19-.2.39-.31.58 4.72-2.44 9.71-3.09 14.14-1.69 1.37.43 2.69 1.05 3.97 1.77-1.04-.56-2.11-1.04-3.21-1.4-4.86-1.58-10.33-.71-15.39 2.3l-.28.62c5.09-3.19 10.64-4.16 15.55-2.56 1.07.35 2.11.82 3.13 1.36-.77-.38-1.56-.72-2.36-.99-6.01-2.01-12.08.04-16.76 3.31-.08.21-.16.41-.23.63 4.65-3.39 10.79-5.61 16.87-3.58.99.33 1.95.77 2.88 1.27-.69-.34-1.39-.66-2.12-.91-6.59-2.27-13.19.43-17.98 4.33-.06.2-.11.41-.16.62 4.73-4.01 11.39-6.88 18.01-4.59.92.32 1.81.73 2.68 1.2-.62-.31-1.26-.6-1.91-.83-7.14-2.54-14.21.86-19.04 5.38a11.47 11.47 0 0 0-.1.62c4.74-4.61 11.85-8.19 19.02-5.65 3.34 1.18 6.34 3.6 9.24 5.94 3.21 2.59 6.53 5.26 10.33 6.29 2.49.68 5.06.63 7.64-.14 2.31-.68 4.65-1.95 6.97-3.76 2.71-2.11 5.35-4.91 7.87-8.33 1.84.14 3.59.12 5.29-.08 3.08-.35 6.3-1.3 9.84-2.9 3.15-1.43 6.24-3.22 9.24-4.96l2.69-1.55 2.09-1.06 2.23-.98 1.32-.5c.34-.13.68-.25 1.02-.37.75-.24 1.49-.46 2.23-.67a73.86 73.86 0 0 1 2.96-.7l2.09-.38a103.31 103.31 0 0 1 2.95-.37l2.4-.2 2.38-.11 2.45-.04h1.02c1.02.33 2.01.74 2.97 1.24 5.17 2.69 9.35 7.77 13.39 12.69 2.85 3.46 5.78 7.02 9.09 9.83l.41-.15c-3.36-2.81-6.33-6.41-9.21-9.92zm50.88-38.06c8.71-1.51 17.57 1.92 26.14 5.25 6.17 2.4 12.55 4.87 18.93 5.55 1.27.13 2.52.2 3.72.18 2.97-.03 6.82-.23 10.25-1.47l.39-.14c.14-.05.29-.1.43-.16-4.42 1.89-9.19 3.05-13.35 3.15a32.07 32.07 0 0 1-3.64-.12c-6.42-.58-12.89-2.97-19.15-5.29-8.39-3.11-17.06-6.32-25.63-5.09-4.6.66-8.78 2.61-12.73 5.07 4.52-3.29 9.3-6.02 14.62-6.94zm-1.84 2.25c8.47-1.22 17.1 1.98 25.45 5.07 6.28 2.32 12.77 4.73 19.24 5.31 1.25.11 2.49.15 3.68.13 3.99-.1 8.54-1.17 12.82-2.91l-.44.27c-4.69 2.47-9.6 3.82-14.66 4.01a33.52 33.52 0 0 1-3.6-.07c-6.53-.47-13.13-2.79-19.51-5.04-8.15-2.87-16.59-5.84-24.86-4.9-4.91.56-9.32 2.52-13.49 5 4.74-3.29 9.75-6.06 15.38-6.87zm-1.84 2.24c8.2-.93 16.58 2.02 24.7 4.88 6.4 2.26 13.02 4.59 19.61 5.06 1.24.09 2.46.11 3.64.07 3.64-.14 7.2-.87 10.66-2.18-1.15.57-2.3 1.07-3.44 1.5-3.18 1.2-6.38 1.89-9.51 2.06a35.22 35.22 0 0 1-3.56 0c-6.67-.36-13.42-2.62-19.94-4.8-7.89-2.64-16.05-5.36-24.03-4.71-5.28.43-9.84 2.35-14.28 4.83 4.97-3.24 10.21-6.03 16.16-6.7zm-18.91 8.75c5.35-3.26 10.7-5.98 17.07-6.5 7.91-.65 16.02 2.07 23.88 4.69 6.55 2.19 13.33 4.46 20.04 4.82a30.88 30.88 0 0 0 3.6 0c3.17-.17 6.4-.87 9.62-2.09a33.05 33.05 0 0 0 1.77-.73c-1.7.9-3.25 1.67-4.27 2.05-3.17 1.21-6.34 1.93-9.42 2.14-1.14.08-2.33.09-3.52.05-6.83-.25-13.76-2.45-20.47-4.57-7.59-2.41-15.45-4.9-23.09-4.51-5.66.28-10.49 2.2-15.23 4.66 0 0 .02-.01.02-.02zm-1.55 1.26c5.25-2.85 10.51-5.2 16.77-5.51 7.58-.38 15.4 2.1 22.97 4.5 6.73 2.13 13.69 4.34 20.57 4.59 1.21.04 2.41.03 3.56-.05 3.12-.21 6.32-.94 9.53-2.16 2.24-.85 7.02-3.49 10.44-5.52-.62.43-1.91 1.22-1.91 1.22-6.74 4.24-14.91 7.39-20.35 7.84a36.25 36.25 0 0 1-3.48.11c-7.16-.13-14.45-2.27-21.51-4.35-7.12-2.1-14.49-4.26-21.65-4.31h-.89c-5.16.13-9.64 1.64-14.03 3.64zm-1.26 1.01c4.81-2.3 9.65-4.13 15.3-4.27h.88c7.1.04 14.44 2.21 21.55 4.3 7.08 2.08 14.4 4.24 21.61 4.36 1.2.02 2.38-.01 3.52-.11 3.78-.31 8.86-1.91 13.87-4.27-5.77 3.3-11.06 5.15-16.17 5.65-1.12.11-2.28.16-3.44.16h-.05c-7.26 0-14.67-2.11-21.85-4.14-6.87-1.95-13.98-3.97-20.86-4.09-5.7-.1-10.55 1.3-15.31 3.16l.95-.75zm-2.06 1.59c5.13-2.08 10.27-3.73 16.41-3.62 6.83.12 13.91 2.13 20.76 4.08 7.2 2.04 14.64 4.16 21.95 4.16h.05a39.6 39.6 0 0 0 3.48-.16c4.48-.44 9.09-1.91 14.03-4.45-5.14 2.9-10.59 5.18-16.34 5.84a38.28 38.28 0 0 1-3.41.22c-7.57.16-15.36-1.93-22.89-3.96-6.42-1.73-13.06-3.51-19.47-3.85-5.73-.3-10.6.82-15.39 2.36l.81-.6zm-1.81 1.32c5.12-1.72 10.26-3.03 16.37-2.71 6.37.34 12.99 2.11 19.39 3.84 7.55 2.03 15.37 4.13 23 3.97a38.96 38.96 0 0 0 3.44-.22c5.25-.6 10.25-2.54 14.98-5.06-1.17.66-2.36 1.3-3.56 1.91-4.97 2.5-9.47 3.98-13.74 4.53a41 41 0 0 1-3.37.28c-.21 0-.42.02-.63.02-7.8.2-15.78-1.85-23.52-3.82-5.88-1.5-11.95-3.05-17.8-3.57-5.79-.52-10.71.31-15.55 1.52a34.08 34.08 0 0 0 .98-.68zm-18.3 6.88c7.07 1.24 13.17 3.26 20.93 5.84l.83.28c7.15 2.38 13.61 3.96 19.75 4.83 3.48.49 6.86.75 10.06.77 3.44.01 6.77-.24 9.91-.78 1.05-.18 2.11-.39 3.16-.63 2.75-.64 5.47-1.55 8.15-2.58-3.46 1.6-6.98 3.09-10.51 3.97-1.03.25-2.07.48-3.1.68-6.13 1.19-12.74 1.37-19.65.52-6.41-.79-12.96-2.43-19.47-4.89-2.44-.92-4.69-1.83-6.9-2.72-5.34-2.15-10.12-4.07-15.6-5.37.82.06 1.63.09 2.45.09zM61.14 52.02s-.05-.02-.08-.03c.03 0 .06.02.09.03zm.86.3c-.06-.02-.11-.04-.17-.06.03 0 .06-.01.09-.02.06.02.11.03.17.05-.03 0-.06.02-.09.03zm.74-.26s.04 0 .07.01c-.01 0-.02 0-.04.01-.02 0-.04-.01-.06-.02h.03zm.11.54c-.08-.03-.15-.05-.23-.08.05-.02.1-.03.15-.05l.24.06a2.77 2.77 0 0 1-.16.06zm.72-.37l.16.03c-.04.01-.08.03-.11.04-.05-.01-.1-.03-.16-.04a1.64 1.64 0 0 0 .11-.03zm.15.64l-.28-.09c.07-.03.14-.05.21-.08.09.02.19.05.28.07-.07.03-.14.07-.21.1zm.68-.9h.06c-.02 0-.04.01-.05.02-.02 0-.04 0-.05-.01.02 0 .03-.01.05-.02zm.04.42c.07.01.14.03.21.04-.06.03-.12.06-.18.08-.07-.02-.14-.03-.22-.05.06-.02.13-.05.19-.07zm.14.74l-.33-.09.26-.12c.11.03.22.05.33.08l-.26.14zm-32.61.33l.49.28-.49-.28zm61.12-22c9.46-4.41 19.26-.43 29.64 3.78l1.96.79c2.91 1.17 5.81 2.28 8.68 3.17-3.16-.85-6.35-1.97-9.57-3.15l-1.76-.66c-10.38-3.88-20.19-7.54-29.78-3.2-1.24.56-2.41 1.24-3.52 2.01 1.36-1.08 2.8-2.01 4.36-2.74zm-.68 1.07c9.46-4.27 19.19-.64 29.5 3.21l1.76.66c2.75 1.02 5.48 1.98 8.2 2.77-3.01-.75-6.04-1.73-9.1-2.76l-1.55-.53c-10.31-3.51-20.06-6.83-29.65-2.63-1.41.62-2.73 1.38-3.98 2.25 1.49-1.18 3.09-2.19 4.82-2.98zm-.69 1.07c9.46-4.14 19.14-.85 29.38 2.64l1.55.53c2.47.83 4.92 1.63 7.35 2.3-2.83-.67-5.61-1.49-8.26-2.29l-1.31-.4c-10.26-3.15-19.94-6.12-29.55-2.06-1.49.63-2.88 1.42-4.2 2.31 1.56-1.2 3.22-2.23 5.03-3.03zm-.68 1.07c9.48-4.01 19.1-1.06 29.29 2.07l1.31.4c2.11.64 4.31 1.29 6.55 1.87-2.55-.56-5.06-1.21-7.47-1.86l-1.02-.28c-10.21-2.78-19.86-5.42-29.49-1.48-1.59.65-3.08 1.47-4.48 2.39 1.64-1.23 3.4-2.29 5.31-3.11zm-12.2 10.55c-.03.05-.07.1-.1.15.02-.05.05-.1.09-.15zm-.54.75l.06-.03c-.05.07-.09.14-.14.21-.02 0-.05.02-.07.03l.15-.21zm-.43.72l-.17.26c-.04.01-.08.03-.12.04.06-.09.12-.17.18-.26.04-.01.08-.03.11-.04zm-.28-.36l-.07.1c.02-.04.04-.07.07-.11zm-.38 1.18a.75.75 0 0 1 .16-.05c-.07.1-.13.21-.2.31-.06.02-.11.03-.17.05l.22-.31zm-.15-.5s.04-.02.06-.02l-.15.21c-.02 0-.05.02-.07.02.05-.07.11-.14.16-.21zm-.21 1.24l-.23.35c-.07.02-.14.03-.21.05l.24-.34.2-.06zm-.24-.53c-.06.09-.12.18-.18.26-.04.01-.09.02-.13.04l.2-.26c.04-.01.08-.03.11-.04zm-.26-.43s.02 0 .03-.01a2.22 2.22 0 0 0-.12.16c-.01 0-.03 0-.04.01l.13-.16zm-.02 1.77a7.22 7.22 0 0 0-.23.36c-.08.02-.17.03-.25.04l.24-.35a2.05 2.05 0 0 1 .24-.05zm-.25-.59c-.07.1-.14.2-.21.31-.06.01-.12.03-.18.04.08-.1.15-.2.23-.3.05-.02.11-.03.16-.05zm-7.15 5.3l.41.06-.37.36c-.14-.03-.28-.05-.42-.08a6.14 6.14 0 0 0 .38-.34zm-.5-.46l.34-.28c.12.01.24.02.36.04-.11.1-.22.21-.33.31l-.37-.06zm.85.13l.36-.33.37.03c-.11.12-.23.23-.34.35-.13-.02-.26-.03-.39-.05zm.73-.67a9.81 9.81 0 0 0 .33-.32h.34c-.1.1-.19.21-.29.31l-.03.03a4.34 4.34 0 0 1-.36-.02zm-.2 1.12c.14.02.28.04.42.05l-.38.4a6.49 6.49 0 0 1-.43-.08c.13-.13.26-.25.38-.38zm.34-.34l.37-.37c.13 0 .26.02.39.03l-.36.39c-.13-.01-.26-.03-.4-.05zm.71-.73l.33-.36h.35c-.11.13-.22.25-.32.38-.12 0-.24-.02-.36-.02zM70.69 54c.15.02.29.02.43.04a7.99 7.99 0 0 1-.38.44l-.44-.06.38-.42zm.32-.35c.12-.14.25-.27.37-.41.13 0 .27 0 .4.01a16.33 16.33 0 0 1-.36.43c-.14-.01-.27-.02-.41-.04zm1.51-2.32c-.09 0-.19 0-.28.01.1-.11.19-.21.29-.31.09 0 .18-.02.27-.03-.09.11-.18.22-.28.33zm.5.36l-.31.4h-.34l.33-.39c.11 0 .21 0 .32-.01zm-.62.78l-.33.41c-.13 0-.25 0-.38-.01l.34-.4h.36zm-.81 1.61c.14.01.29.03.43.04l-.37.48-.45-.06a19.47 19.47 0 0 0 .39-.47zm.29-.36c.12-.15.25-.29.37-.44.14-.01.28 0 .41 0l-.36.47c-.14 0-.28-.02-.41-.03zm.67-.82l.35-.44h.37l-.33.46h-.38zm1.31-1.28c-.11.15-.21.3-.32.45h-.35l.33-.43c.11 0 .22-.02.33-.03zm-.02-.38l.3-.39c.1-.01.2-.03.29-.04l-.29.41c-.1 0-.2.02-.31.03zm-.51.05c-.1 0-.2.02-.3.02l.3-.36c.1-.01.19-.02.29-.04a9.36 9.36 0 0 1-.29.37zm-.3 2.12l.09-.12h.41c0 .01-.02.03-.03.04l-.33.47c-.14 0-.28-.01-.42-.02.09-.12.19-.24.28-.37zm.36-.5c.11-.16.23-.31.34-.47.13 0 .25 0 .38-.02l-.33.49h-.39zm.62-.86c.11-.16.23-.31.34-.47.11 0 .23-.02.34-.03l-.32.48a4.34 4.34 0 0 0-.36.02zm.63-.87l.3-.43c.1-.01.21-.03.31-.04-.1.15-.19.3-.29.44l-.32.03zm.59-.85c.1-.15.2-.29.31-.44.09-.02.18-.03.27-.05-.1.15-.19.3-.29.45-.1.01-.19.02-.29.04zm.53-2.33s.06-.02.1-.03c-.05.07-.11.14-.16.22-.04.01-.07.02-.11.03l.18-.21zm-.22 1.23l-.22.31c-.07.01-.15.03-.22.04.08-.1.15-.2.23-.3.07-.02.14-.03.21-.05zm-.22-.55l-.05.06c-.05.07-.1.13-.15.2-.05.01-.11.02-.16.04a.57.57 0 0 1 .07-.08l.14-.17c.05-.01.1-.03.15-.04zm-.29-.43s.04-.01.06-.02l-.13.16c-.02 0-.05.01-.07.02.05-.05.1-.11.15-.16zm-.01 1.73c-.1.14-.19.28-.29.41l-.27.03c.1-.14.21-.27.31-.4.08-.01.17-.03.25-.04zm-.26-.57c-.07.09-.13.18-.2.27-.07.01-.14.02-.21.04.07-.09.14-.17.21-.26.07-.01.13-.03.2-.05zm-.23-.51l-.18.21c-.04 0-.09.02-.13.03.06-.07.13-.14.19-.21l.12-.03zm-.24-.4c-.03.03-.06.07-.09.1.01-.04.05-.07.08-.11zm-.06 1.62l-.29.38-.26.03.31-.37c.08-.01.16-.03.24-.04zm-.26-.53c-.06.07-.12.15-.18.22-.06 0-.12.02-.18.03.06-.07.12-.14.19-.21.06-.01.11-.02.17-.04zm-.31-.45s.05-.01.08-.02c-.05.05-.1.11-.15.16-.03 0-.06.01-.09.02l.16-.16zm-.45 1.14l.22-.03-.29.35a1.64 1.64 0 0 0-.23.02c.1-.11.2-.23.31-.34zm-.04-.52c-.05.05-.1.11-.15.16a.77.77 0 0 0-.15.02l.15-.15.14-.03zm-.27-.41h.03l-.1.1h-.04c.04-.03.07-.07.11-.1zm-.65.61s.07-.02.11-.02l-.1.1c-.04 0-.07.01-.11.02.04-.03.07-.07.11-.1zm.18.43c.06 0 .13-.02.19-.03l-.28.31a1.49 1.49 0 0 0-.21.02c.1-.1.2-.2.29-.3zm-.24 1.34c-.1.12-.21.25-.32.37h-.33l.33-.36c.1 0 .21 0 .31-.01zm-.23-.64c-.09.09-.17.19-.26.28-.09 0-.17 0-.26.01l.27-.27c.08 0 .17-.02.25-.02zm-.5-.97s.04 0 .06-.01c-.02.01-.03.03-.05.04h-.06c.02-.01.03-.03.05-.04zm.18.39c.05 0 .11-.02.16-.02l-.26.26a1.1 1.1 0 0 0-.18.02l.28-.25zm-.61 1.58h-.31c.1-.1.21-.2.31-.31.1 0 .2 0 .3-.01-.1.11-.2.22-.31.33zm-.15-.69c-.08 0-.16 0-.24.01l.25-.22c.08 0 .15-.02.23-.02l-.24.24zm-.03-.78s.08 0 .12-.02l-.25.22h-.14c.09-.07.18-.14.26-.22zm-.37 1.18c-.09.09-.19.18-.28.27-.1 0-.19 0-.29-.01.1-.09.2-.17.3-.26h.27zm-.42-.38h-.2c.07-.06.15-.12.22-.18.07 0 .13 0 .19-.01-.07.06-.14.13-.21.19zm.02-.7h.07c-.07.06-.14.11-.21.17h-.09l.23-.17zm-.46 1.9s-.07.06-.11.1l-.33-.03c.1-.09.21-.18.31-.27.11 0 .22.01.32.01-.07.06-.13.13-.2.19zm-.26-.59c-.09 0-.18 0-.26-.01l.28-.22h.25c-.09.08-.18.15-.27.23zm-.07-1.21c-.05.04-.1.07-.16.11h-.03c.06-.04.12-.07.18-.11zm-.02.48h.16l-.17.14h-.17c.06-.04.12-.09.18-.13zm-.32 1.09s-.07.06-.1.09c-.06.05-.13.1-.19.16h-.07c-.08 0-.16-.02-.24-.03.1-.07.2-.15.29-.23.1 0 .2.01.31.02zm-.51-1.04h.12l-.12.09h-.12c.04-.03.08-.05.13-.08zm.11.45h.22c-.08.06-.16.12-.24.19-.08 0-.15-.01-.23-.02.08-.06.17-.11.25-.17zm-.92-.42h.04c-.02.01-.04.03-.07.04h-.04c.02-.01.04-.02.07-.04zm.07.42h.18c-.06.04-.12.08-.18.13-.06 0-.13 0-.19-.01.07-.04.13-.08.2-.12zm.38.54c-.09.07-.18.13-.27.2l-.28-.03c.09-.06.18-.12.27-.19.09 0 .19.01.28.02zm-1.21-.57H67c-.05.03-.1.06-.14.09-.05 0-.09 0-.14-.01.05-.03.1-.05.15-.08zm-.84-.03h.07c-.03.01-.05.03-.08.04h-.07c.03-.01.06-.02.08-.04zm-.1.52c.06-.03.11-.06.17-.09a1.23 1.23 0 0 1 .2.02c-.06.04-.13.07-.19.11l-.2-.03zm-.8-.13s.08-.03.12-.05c.05 0 .09.01.14.02-.05.02-.09.04-.14.06-.04 0-.09-.01-.13-.02zm.17.42c.09.02.19.03.28.05-.08.04-.15.09-.23.13-.09-.02-.19-.04-.28-.07.08-.04.16-.07.24-.11zm.15.82c-.11-.03-.23-.06-.34-.1.1-.05.2-.1.29-.16.11.03.23.05.34.07-.1.06-.2.12-.29.18zm.46-.53l.27-.15c.1.02.2.03.3.04-.09.06-.17.12-.26.17l-.31-.06zm.42.76l-.37-.09c.11-.07.22-.13.33-.2.12.02.24.05.36.07-.11.07-.21.15-.32.22zm.39-1.22c.08-.04.15-.09.23-.14.08 0 .16.02.25.02l-.24.15c-.08-.01-.16-.02-.24-.04zm.32.44a3.06 3.06 0 0 1 .32.05c-.1.07-.19.14-.29.21l-.34-.06c.1-.07.2-.13.31-.2zm.16 1c-.13-.03-.26-.06-.39-.1l.35-.24c.13.02.25.05.38.07l-.35.27zm.71-.89c.11.01.23.03.34.04-.11.09-.21.18-.32.26a12.42 12.42 0 0 1-.35-.06l.33-.24zm-.23.99c.12-.1.25-.19.37-.29l.4.06a9.93 9.93 0 0 1-.36.31l-.41-.09zm-31.71 2.03l.81.54c3.12 2.09 6.35 4.25 9.92 5.23 2.33.64 4.77.74 7.25.3 2.17-.39 4.43-1.2 6.73-2.42 2.52-1.33 5.08-3.11 7.5-5.19.15.03.29.07.44.09-2.35 2.22-4.84 4.11-7.29 5.53-2.27 1.32-4.52 2.2-6.67 2.64-2.44.49-4.85.43-7.15-.2-3.56-.97-6.78-3.22-9.9-5.39l-1.64-1.14zm1.82 1.72c3.02 2.1 6.15 4.23 9.63 5.18 2.37.65 4.83.72 7.33.21 2.19-.44 4.47-1.35 6.78-2.68 2.55-1.48 5.13-3.46 7.57-5.78.15.03.3.05.45.08-2.38 2.47-4.9 4.57-7.39 6.14-2.28 1.43-4.53 2.41-6.71 2.9-2.46.56-4.89.52-7.22-.12-3.61-.98-6.85-3.33-9.98-5.6l-.46-.33zm1.5 1.55c2.77 1.98 5.65 3.87 8.83 4.74 2.39.65 4.89.69 7.4.12 2.22-.5 4.52-1.5 6.83-2.95 2.58-1.62 5.19-3.81 7.63-6.38.16.02.31.04.46.07-2.39 2.72-4.95 5.04-7.47 6.76-2.28 1.55-4.55 2.62-6.76 3.17-2.47.62-4.93.61-7.29-.03-3.49-.95-6.61-3.23-9.64-5.5zm9.54 5.86c2.43.66 4.94.67 7.48.04 2.25-.56 4.56-1.65 6.88-3.22 2.61-1.78 5.25-4.18 7.71-7.01l.46.06c-2.44 3.02-4.97 5.51-7.56 7.4-3.48 2.54-6.94 3.87-10.28 3.95-1.31.03-2.61-.13-3.88-.47-3.28-.89-6.23-3.01-9.07-5.2 2.59 1.89 5.29 3.63 8.26 4.44zm15.79-1.97c-2.28 1.78-4.58 3.03-6.84 3.7-2.52.75-5.02.79-7.43.14-3.1-.84-5.9-2.82-8.58-4.93 2.43 1.8 4.98 3.42 7.78 4.18a13.55 13.55 0 0 0 3.99.48c3.42-.09 6.95-1.44 10.49-4.03 2.67-1.95 5.28-4.52 7.79-7.66.16.02.32.03.47.05-2.45 3.31-5.02 6.03-7.66 8.08zm7.92-8.43c-.15-.01-.3-.03-.45-.04.13-.16.26-.33.38-.5.15 0 .29.02.44.02l-.37.52zm15.16-2.92c-3.5 1.59-6.69 2.53-9.73 2.87-1.61.18-3.26.21-5 .09.13-.18.25-.36.38-.53a32.36 32.36 0 0 0 5.34-.25c4.88-.64 9.45-2.5 13.88-4.65-1.61.88-3.23 1.73-4.87 2.47zm-9.05 1.8c-1.63.22-3.3.3-5.03.25.06-.09.13-.18.19-.27.06-.08.11-.17.17-.25 1.85-.02 3.64-.16 5.41-.43 5.22-.78 10.12-2.71 14.88-4.84-4.96 2.52-10.1 4.81-15.61 5.54zm.68-1.07c-1.67.25-3.36.39-5.1.42l.34-.51c1.86-.1 3.68-.3 5.5-.61 5.59-.94 10.86-2.92 15.95-4.99-5.32 2.45-10.82 4.8-16.7 5.68zm.68-1.07c-1.71.29-3.42.48-5.17.59l.33-.5c1.87-.18 3.73-.44 5.59-.79 5.92-1.1 11.53-3.07 16.96-5.02-5.65 2.32-11.49 4.67-17.71 5.71zm18.3-6.32c-5.64 2.02-11.46 4.12-17.62 5.26-1.75.33-3.5.58-5.25.76l.3-.47c1.87-.26 3.76-.59 5.7-.99 5.67-1.15 11.09-2.83 16.32-4.46l2.05-.63-1.5.54zm-.65-.27c-5.23 1.63-10.63 3.31-16.29 4.45a91.55 91.55 0 0 1-5.36.94 12.66 12.66 0 0 1 .31-.47 139.59 139.59 0 0 0 5.81-1.18c4.63-1.02 9.12-2.22 13.48-3.39l6.24-1.65-4.2 1.29zm-2.16 0c-4.34 1.16-8.83 2.37-13.45 3.39-1.87.42-3.68.79-5.45 1.11.07-.1.13-.21.2-.31l.04-.06s.01-.02.02-.03l4.84-1.15 1.12-.27 5.55-1.33 15.62-3.57-8.49 2.21zm-7.22.99l-5.55 1.33-1.12.27-4.45 1.06c.08-.13.16-.25.25-.38l6.1-1.65c8.08-2.05 15.32-3.53 22.45-4.59-5.85 1.12-11.62 2.51-17.67 3.97zm19.55-4.63c-7.76 1.08-15.59 2.65-24.42 4.88l-5.7 1.54c.08-.12.15-.23.23-.34 1.99-.66 4.06-1.3 6.25-1.9 7.35-1.98 14.96-3.34 23.69-4.2-.02 0-.03.01-.05.02zm1.42-.52c-9.34.86-17.39 2.25-25.16 4.34a126.93 126.93 0 0 0-5.82 1.76c.07-.1.13-.2.2-.31 2.03-.77 4.14-1.5 6.4-2.16 8.66-2.48 16.86-3.31 24.52-3.69-.05.02-.1.03-.14.05zm1.49-.5c-8.06.35-16.75 1.13-25.97 3.77-2.09.61-4.05 1.28-5.94 1.99l.17-.26c2.07-.89 4.23-1.73 6.56-2.44 8.83-2.67 17.35-3.1 25.39-3.12-.07.02-.14.04-.21.07zm1.59-.44c-8.48-.01-17.49.31-26.88 3.14-2.15.66-4.15 1.42-6.07 2.23l.14-.2c2.11-1.02 4.33-1.96 6.73-2.74 8.81-2.8 17.52-2.86 26.39-2.51-.1.02-.2.05-.3.07zm1.76-.39c-9.4-.42-18.62-.51-27.96 2.46-2.2.71-4.24 1.55-6.19 2.47.03-.05.06-.09.09-.14 2.15-1.16 4.42-2.21 6.9-3.05 8.9-2.97 17.42-2.65 27.5-1.82-.11.02-.23.05-.34.07zm2.02-.3l-.53-.05c-10.62-.91-19.48-1.36-28.77 1.74-2.25.76-4.33 1.7-6.3 2.72.02-.03.04-.05.06-.08 2.18-1.3 4.5-2.46 7.05-3.36 9.76-3.41 19.5-2.2 28.91-1.03-.14.01-.27.03-.41.05zm2.63-.15l-2-.25-.12-.02c-9.47-1.18-19.26-2.4-29.12 1.04-2.24.79-4.3 1.78-6.24 2.88 2.17-1.41 4.49-2.65 7.05-3.59 9.64-3.51 19.14-1.97 29.2-.34h.08l1.68.28c-.17 0-.35-.01-.52-.01zm-1.1-.63h-.08c-10.11-1.65-19.65-3.2-29.39.34-2.08.76-3.99 1.72-5.8 2.8 2.03-1.39 4.21-2.6 6.61-3.52 9.56-3.62 19.04-1.73 29.08.27l.53.1 4.03.78-4.98-.78zm1.03-.37l-.53-.11c-10.1-2.01-19.63-3.91-29.29-.25-1.89.72-3.64 1.63-5.29 2.65 1.88-1.33 3.9-2.49 6.11-3.37 9.5-3.74 19-1.5 29.06.87l.88.21 4.95 1.12c-1.92-.33-3.88-.71-5.89-1.11zm1.02-.37l-.88-.21c-10.12-2.38-19.67-4.64-29.28-.85-1.76.7-3.4 1.58-4.94 2.57 1.78-1.3 3.68-2.43 5.77-3.29 9.51-3.89 19.1-1.27 29.25 1.49l1.02.28 5.73 1.47c-2.27-.45-4.51-.96-6.66-1.46zm104.86 21.87c-10.71-3.13-21.27 1.03-31.47 5.05l-1.84.72-2.82 1.09c-3.25 1.23-6.2 2.15-9.01 2.82-3.28.78-6.41 1.22-9.32 1.29-2.3.06-4.52-.12-6.62-.51l.15.41c2.07.37 4.24.53 6.49.47 2.92-.07 6.08-.51 9.39-1.3 2.83-.68 5.79-1.6 9.05-2.84l2.83-1.09 1.84-.72c10.15-4 20.64-8.13 31.23-5.04 5.6 1.64 10.76 5.2 15.71 9.3.05-.12.09-.25.14-.37-4.95-4.09-10.12-7.65-15.74-9.29zm-27.13 2.53l-3.92 1.48-2.86 1.03c-6.88 2.41-12.93 3.58-18.5 3.59-3.28 0-6.41-.4-9.31-1.22a32.37 32.37 0 0 1-1.67-.53c.18.18.35.38.52.58l1.05.32c2.93.83 6.08 1.24 9.42 1.23 5.62-.01 11.71-1.2 18.62-3.62l2.87-1.03 3.92-1.48c9.57-3.65 19.46-7.43 29.18-5.04 5.35 1.32 10.26 4.45 14.96 8.12.05-.12.11-.24.16-.35-4.71-3.67-9.65-6.81-15.03-8.14-9.84-2.42-19.78 1.38-29.4 5.05z" fill="#8672b4"/><defs ><path id="B" d="M37.71 129h1.62v1.77l-.29-.29c.36-.53.8-.93 1.33-1.21s1.11-.42 1.74-.42c.81 0 1.49.17 2.04.52s.96.87 1.21 1.55l-.56-.03c.43-.66.96-1.17 1.59-1.52s1.32-.52 2.07-.52 1.43.16 1.96.47.94.78 1.21 1.39.4 1.36.4 2.25v4.97h-1.62v-4.94c0-.9-.18-1.57-.54-2.01s-.9-.67-1.62-.67c-.52 0-.97.11-1.36.33a2.24 2.24 0 0 0-.9.93c-.21.4-.32.87-.32 1.41v4.96h-1.62V133c0-.9-.18-1.57-.54-2.01s-.9-.67-1.62-.67c-.52 0-.97.11-1.36.33a2.24 2.24 0 0 0-.9.93c-.21.4-.32.87-.32 1.41v4.96h-1.62v-8.94z"/></defs></svg>